<svg width="248" height="94" viewBox="0 0 248 94" fill="none" xmlns="http://www.w3.org/2000/svg">
<rect x="0.743317" y="0.743317" width="246.038" height="92.1714" rx="14.2567" stroke="url(#paint0_linear_416_3042)" stroke-width="1.48663"/>
<path d="M84.9966 28.5698H87.4737C88.5335 28.5698 89.3357 28.7187 89.8801 29.0163C90.4245 29.3139 90.6967 29.8365 90.6967 30.5842C90.6967 30.8855 90.6477 31.1577 90.5497 31.4008C90.4553 31.644 90.3174 31.8436 90.136 31.9997C89.9545 32.1558 89.7331 32.2574 89.4718 32.3046V32.359C89.7367 32.4135 89.9763 32.5078 90.1904 32.6421C90.4045 32.7728 90.5751 32.9651 90.7022 33.2192C90.8328 33.4696 90.8981 33.8036 90.8981 34.2209C90.8981 34.7037 90.7802 35.1174 90.5443 35.4622C90.3084 35.807 89.9708 36.072 89.5316 36.2571C89.0961 36.4386 88.5771 36.5293 87.9746 36.5293H84.9966V28.5698ZM86.6843 31.7221H87.6643C88.1543 31.7221 88.4936 31.6458 88.6823 31.4934C88.8711 31.3373 88.9654 31.1087 88.9654 30.8074C88.9654 30.5025 88.8529 30.2848 88.6279 30.1541C88.4065 30.0198 88.0544 29.9527 87.5717 29.9527H86.6843V31.7221ZM86.6843 33.0613V35.1356H87.7841C88.2922 35.1356 88.6461 35.0376 88.8457 34.8416C89.0453 34.6456 89.1451 34.3825 89.1451 34.0522C89.1451 33.8562 89.1016 33.6838 89.0144 33.535C88.9273 33.3862 88.7803 33.27 88.5735 33.1865C88.3702 33.1031 88.0889 33.0613 87.7296 33.0613H86.6843ZM97.0719 36.5293H92.4879V28.5698H97.0719V29.9527H94.1756V31.7003H96.8705V33.0831H94.1756V35.1356H97.0719V36.5293ZM104.971 28.5698V35.1247H106.033V38.8485H104.405V36.5293H99.4183V38.8485H97.7905V35.1247H98.4057C98.6126 34.7109 98.8122 34.2736 99.0046 33.8126C99.1969 33.3517 99.3766 32.8563 99.5436 32.3264C99.7105 31.7965 99.8611 31.2212 99.9954 30.6005C100.13 29.9799 100.242 29.303 100.333 28.5698H104.971ZM103.289 29.9745H101.672C101.618 30.3592 101.543 30.7693 101.449 31.2048C101.355 31.6404 101.242 32.085 101.112 32.5387C100.984 32.9887 100.841 33.4334 100.681 33.8725C100.525 34.3117 100.358 34.7291 100.181 35.1247H103.289V29.9745ZM113.655 28.5698L111.189 34.1992C110.967 34.7073 110.731 35.1447 110.481 35.5112C110.231 35.8742 109.913 36.1536 109.528 36.3496C109.144 36.542 108.639 36.6382 108.015 36.6382C107.819 36.6382 107.606 36.6237 107.378 36.5946C107.149 36.5692 106.937 36.5293 106.741 36.4749V35.0267C106.922 35.0957 107.118 35.1465 107.329 35.1791C107.543 35.2082 107.744 35.2227 107.933 35.2227C108.18 35.2227 108.38 35.1809 108.532 35.0975C108.684 35.014 108.806 34.9015 108.897 34.7599C108.987 34.6184 109.064 34.4605 109.125 34.2863L106.371 28.5698H108.156L109.643 32.016C109.675 32.0886 109.717 32.1866 109.768 32.31C109.822 32.4298 109.875 32.5532 109.926 32.6802C109.98 32.8036 110.022 32.9125 110.051 33.0069H110.111C110.14 32.9161 110.178 32.8073 110.225 32.6802C110.276 32.5496 110.329 32.4171 110.383 32.2828C110.437 32.1449 110.486 32.0215 110.53 31.9126L111.913 28.5698H113.655ZM125.855 35.19V38.8485H124.228V36.5293H114.657V28.5698H116.344V35.1247H118.816V28.5698H120.515V35.1247H122.986V28.5698H124.669V35.19H125.855ZM131.953 36.5293L131.376 34.6347H128.474L127.897 36.5293H126.079L128.888 28.5372H130.951L133.771 36.5293H131.953ZM130.973 33.2192L130.396 31.3682C130.36 31.2448 130.311 31.0869 130.249 30.8945C130.191 30.6985 130.131 30.5007 130.069 30.3011C130.011 30.0979 129.964 29.9218 129.928 29.773C129.891 29.9218 129.841 30.1069 129.775 30.3283C129.714 30.5461 129.654 30.753 129.596 30.949C129.538 31.145 129.496 31.2847 129.47 31.3682L128.899 33.2192H130.973ZM137.457 33.4751L135.595 36.5293H133.722L135.987 33.0287C135.773 32.9379 135.557 32.8055 135.339 32.6312C135.125 32.457 134.947 32.2247 134.806 31.9344C134.664 31.6404 134.593 31.2774 134.593 30.8455C134.593 30.1087 134.857 29.5462 135.383 29.1578C135.909 28.7658 136.648 28.5698 137.599 28.5698H140.19V36.5293H138.502V33.4751H137.457ZM138.502 29.9527H137.669C137.379 29.9527 137.13 29.9872 136.924 30.0561C136.72 30.1251 136.564 30.234 136.455 30.3828C136.35 30.528 136.297 30.7221 136.297 30.9653C136.297 31.3174 136.414 31.595 136.646 31.7983C136.878 32.0015 137.234 32.1031 137.713 32.1031H138.502V29.9527ZM152.314 32.5387C152.314 33.1521 152.238 33.711 152.086 34.2155C151.933 34.7164 151.701 35.1483 151.389 35.5112C151.08 35.8742 150.688 36.1536 150.213 36.3496C149.737 36.542 149.175 36.6382 148.525 36.6382C147.876 36.6382 147.313 36.542 146.838 36.3496C146.362 36.1536 145.968 35.8742 145.656 35.5112C145.348 35.1483 145.117 34.7146 144.965 34.2101C144.812 33.7056 144.736 33.1448 144.736 32.5278C144.736 31.7039 144.87 30.9871 145.139 30.3773C145.411 29.7639 145.829 29.2885 146.391 28.9509C146.954 28.6134 147.669 28.4446 148.536 28.4446C149.4 28.4446 150.109 28.6134 150.665 28.9509C151.224 29.2885 151.637 29.7639 151.906 30.3773C152.178 30.9907 152.314 31.7112 152.314 32.5387ZM146.505 32.5387C146.505 33.094 146.574 33.5731 146.712 33.976C146.854 34.3752 147.073 34.6837 147.371 34.9015C147.669 35.1156 148.053 35.2227 148.525 35.2227C149.004 35.2227 149.393 35.1156 149.69 34.9015C149.988 34.6837 150.204 34.3752 150.338 33.976C150.476 33.5731 150.545 33.094 150.545 32.5387C150.545 31.7039 150.389 31.047 150.077 30.5679C149.765 30.0888 149.251 29.8492 148.536 29.8492C148.061 29.8492 147.672 29.9581 147.371 30.1759C147.073 30.39 146.854 30.6985 146.712 31.1014C146.574 31.5007 146.505 31.9797 146.505 32.5387ZM156.506 28.5698C157.534 28.5698 158.283 28.7912 158.755 29.234C159.227 29.6732 159.463 30.2793 159.463 31.0524C159.463 31.4008 159.41 31.7348 159.305 32.0541C159.2 32.3699 159.027 32.6512 158.788 32.898C158.552 33.1448 158.236 33.3408 157.84 33.486C157.445 33.6275 156.956 33.6983 156.376 33.6983H155.652V36.5293H153.964V28.5698H156.506ZM156.419 29.9527H155.652V32.3155H156.207C156.523 32.3155 156.797 32.2737 157.029 32.1903C157.261 32.1068 157.441 31.9761 157.568 31.7983C157.695 31.6204 157.759 31.3918 157.759 31.1123C157.759 30.7203 157.65 30.43 157.432 30.2412C157.214 30.0489 156.877 29.9527 156.419 29.9527ZM165.996 28.5698V29.9636H162.653V36.5293H160.965V28.5698H165.996ZM172.099 36.5293L171.522 34.6347H168.62L168.043 36.5293H166.224L169.034 28.5372H171.097L173.917 36.5293H172.099ZM171.119 33.2192L170.542 31.3682C170.505 31.2448 170.456 31.0869 170.395 30.8945C170.337 30.6985 170.277 30.5007 170.215 30.3011C170.157 30.0979 170.11 29.9218 170.073 29.773C170.037 29.9218 169.986 30.1069 169.921 30.3283C169.859 30.5461 169.799 30.753 169.741 30.949C169.683 31.145 169.642 31.2847 169.616 31.3682L169.044 33.2192H171.119ZM181.446 36.5293H179.764V33.094H176.612V36.5293H174.924V28.5698H176.612V31.6894H179.764V28.5698H181.446V36.5293ZM183.461 28.5698H184.98V32.4135C184.98 32.6022 184.976 32.8109 184.969 33.0396C184.965 33.2682 184.958 33.4932 184.947 33.7146C184.94 33.9324 184.933 34.123 184.925 34.2863C184.918 34.4496 184.911 34.5585 184.903 34.6129H184.936L188.611 28.5698H190.631V36.5293H189.128V32.7075C189.128 32.5042 189.132 32.2828 189.139 32.0433C189.146 31.8037 189.155 31.5714 189.166 31.3464C189.181 31.1214 189.194 30.9272 189.204 30.7639C189.215 30.5969 189.223 30.4862 189.226 30.4318H189.183L185.491 36.5293H183.461V28.5698ZM198.138 30.4318C198.138 30.9653 197.948 31.3954 197.567 31.7221C197.186 32.0487 196.703 32.2538 196.119 32.3372V32.3699C196.844 32.4425 197.403 32.6439 197.795 32.9742C198.187 33.3045 198.383 33.7346 198.383 34.2645C198.383 34.7291 198.256 35.141 198.002 35.5003C197.748 35.856 197.373 36.1355 196.875 36.3387C196.378 36.5384 195.763 36.6382 195.03 36.6382C194.427 36.6382 193.892 36.6019 193.424 36.5293C192.959 36.4531 192.556 36.346 192.215 36.2081V34.7926C192.447 34.9015 192.707 34.9958 192.994 35.0757C193.284 35.1519 193.578 35.2118 193.876 35.2553C194.173 35.2953 194.449 35.3152 194.703 35.3152C195.407 35.3152 195.917 35.2136 196.233 35.0104C196.552 34.8071 196.712 34.5186 196.712 34.1447C196.712 33.7636 196.482 33.486 196.021 33.3118C195.56 33.1375 194.939 33.0504 194.159 33.0504H193.413V31.7329H194.082C194.714 31.7329 195.204 31.693 195.552 31.6132C195.904 31.5297 196.149 31.4117 196.287 31.2593C196.429 31.1032 196.5 30.9163 196.5 30.6985C196.5 30.4263 196.378 30.2104 196.135 30.0507C195.892 29.8873 195.531 29.8057 195.052 29.8057C194.638 29.8057 194.251 29.8656 193.892 29.9853C193.533 30.1015 193.197 30.2576 192.885 30.4535L192.15 29.3266C192.422 29.1487 192.712 28.9945 193.021 28.8638C193.333 28.7332 193.674 28.6334 194.044 28.5644C194.415 28.4918 194.828 28.4555 195.286 28.4555C195.884 28.4555 196.396 28.5408 196.821 28.7114C197.246 28.882 197.57 29.1161 197.795 29.4137C198.024 29.7077 198.138 30.047 198.138 30.4318ZM204.742 36.5293L204.165 34.6347H201.263L200.686 36.5293H198.868L201.677 28.5372H203.74L206.561 36.5293H204.742ZM203.762 33.2192L203.185 31.3682C203.149 31.2448 203.1 31.0869 203.038 30.8945C202.98 30.6985 202.92 30.5007 202.859 30.3011C202.8 30.0979 202.753 29.9218 202.717 29.773C202.681 29.9218 202.63 30.1069 202.565 30.3283C202.503 30.5461 202.443 30.753 202.385 30.949C202.327 31.145 202.285 31.2847 202.26 31.3682L201.688 33.2192H203.762ZM215.054 35.19V38.8485H213.426V36.5293H207.568V28.5698H209.255V35.1247H212.184V28.5698H213.867V35.19H215.054ZM216.279 28.5698H217.797V32.4135C217.797 32.6022 217.794 32.8109 217.787 33.0396C217.783 33.2682 217.776 33.4932 217.765 33.7146C217.758 33.9324 217.75 34.123 217.743 34.2863C217.736 34.4496 217.729 34.5585 217.721 34.6129H217.754L221.429 28.5698H223.449V36.5293H221.946V32.7075C221.946 32.5042 221.95 32.2828 221.957 32.0433C221.964 31.8037 221.973 31.5714 221.984 31.3464C221.999 31.1214 222.011 30.9272 222.022 30.7639C222.033 30.5969 222.04 30.4862 222.044 30.4318H222L218.309 36.5293H216.279V28.5698ZM228.136 33.4751L226.274 36.5293H224.401L226.666 33.0287C226.452 32.9379 226.236 32.8055 226.018 32.6312C225.804 32.457 225.626 32.2247 225.485 31.9344C225.343 31.6404 225.272 31.2774 225.272 30.8455C225.272 30.1087 225.536 29.5462 226.062 29.1578C226.588 28.7658 227.327 28.5698 228.278 28.5698H230.869V36.5293H229.181V33.4751H228.136ZM229.181 29.9527H228.348C228.058 29.9527 227.809 29.9872 227.603 30.0561C227.399 30.1251 227.243 30.234 227.134 30.3828C227.029 30.528 226.976 30.7221 226.976 30.9653C226.976 31.3174 227.093 31.595 227.325 31.7983C227.557 32.0015 227.913 32.1031 228.392 32.1031H229.181V29.9527ZM84.9966 43.5698H86.5155V47.4135C86.5155 47.6022 86.5119 47.8109 86.5047 48.0396C86.501 48.2682 86.4938 48.4932 86.4829 48.7146C86.4756 48.9324 86.4684 49.123 86.4611 49.2863C86.4538 49.4496 86.4466 49.5585 86.4393 49.6129H86.472L90.1468 43.5698H92.1666V51.5293H90.664V47.7075C90.664 47.5042 90.6677 47.2828 90.6749 47.0433C90.6822 46.8037 90.6913 46.5714 90.7022 46.3464C90.7167 46.1214 90.7294 45.9272 90.7403 45.7639C90.7511 45.5969 90.7584 45.4862 90.762 45.4318H90.7185L87.0273 51.5293H84.9966V43.5698ZM97.2461 51.5293H95.5584V44.9745H93.397V43.5698H99.4075V44.9745H97.2461V51.5293ZM99.9628 49.2209V47.8599H102.886V49.2209H99.9628ZM104.226 43.5698H105.745V47.4135C105.745 47.6022 105.741 47.8109 105.734 48.0396C105.73 48.2682 105.723 48.4932 105.712 48.7146C105.705 48.9324 105.697 49.123 105.69 49.2863C105.683 49.4496 105.676 49.5585 105.668 49.6129H105.701L109.376 43.5698H111.396V51.5293H109.893V47.7075C109.893 47.5042 109.897 47.2828 109.904 47.0433C109.911 46.8037 109.92 46.5714 109.931 46.3464C109.946 46.1214 109.958 45.9272 109.969 45.7639C109.98 45.5969 109.987 45.4862 109.991 45.4318H109.947L106.256 51.5293H104.226V43.5698ZM119.927 51.5293H118.244V48.094H115.092V51.5293H113.405V43.5698H115.092V46.6894H118.244V43.5698H119.927V51.5293ZM128.175 43.5698V50.1247H129.236V53.8485H127.609V51.5293H122.622V53.8485H120.994V50.1247H121.609C121.816 49.7109 122.015 49.2736 122.208 48.8126C122.4 48.3517 122.58 47.8563 122.747 47.3264C122.914 46.7965 123.064 46.2212 123.199 45.6005C123.333 44.9799 123.446 44.303 123.536 43.5698H128.175ZM126.492 44.9745H124.876C124.821 45.3592 124.747 45.7693 124.652 46.2048C124.558 46.6404 124.445 47.085 124.315 47.5387C124.188 47.9887 124.044 48.4334 123.885 48.8725C123.729 49.3117 123.562 49.7291 123.384 50.1247H126.492V44.9745ZM136.858 43.5698L134.392 49.1992C134.171 49.7073 133.935 50.1447 133.684 50.5112C133.434 50.8742 133.116 51.1536 132.732 51.3496C132.347 51.542 131.842 51.6382 131.218 51.6382C131.022 51.6382 130.81 51.6237 130.581 51.5946C130.352 51.5692 130.14 51.5293 129.944 51.4749V50.0267C130.126 50.0957 130.322 50.1465 130.532 50.1791C130.746 50.2082 130.948 50.2227 131.136 50.2227C131.383 50.2227 131.583 50.1809 131.735 50.0975C131.888 50.014 132.009 49.9015 132.1 49.7599C132.191 49.6184 132.267 49.4605 132.329 49.2863L129.574 43.5698H131.36L132.846 47.016C132.879 47.0886 132.92 47.1866 132.971 47.31C133.026 47.4298 133.078 47.5532 133.129 47.6802C133.183 47.8036 133.225 47.9125 133.254 48.0069H133.314C133.343 47.9161 133.381 47.8073 133.428 47.6802C133.479 47.5496 133.532 47.4171 133.586 47.2828C133.641 47.1449 133.69 47.0215 133.733 46.9126L135.116 43.5698H136.858ZM141.241 44.8601C140.918 44.8601 140.631 44.9236 140.381 45.0507C140.134 45.1741 139.925 45.3537 139.755 45.5897C139.588 45.8256 139.461 46.1105 139.373 46.4444C139.286 46.7783 139.243 47.154 139.243 47.5713C139.243 48.1339 139.312 48.6148 139.45 49.0141C139.591 49.4097 139.809 49.7127 140.103 49.9233C140.397 50.1301 140.776 50.2336 141.241 50.2336C141.564 50.2336 141.887 50.1973 142.21 50.1247C142.537 50.0521 142.89 49.9487 143.272 49.8144V51.2299C142.919 51.375 142.573 51.4785 142.232 51.5402C141.891 51.6055 141.508 51.6382 141.083 51.6382C140.263 51.6382 139.588 51.4694 139.058 51.1319C138.531 50.7907 138.141 50.3152 137.887 49.7055C137.633 49.0921 137.506 48.3771 137.506 47.5605C137.506 46.958 137.588 46.4063 137.751 45.9054C137.914 45.4045 138.154 44.9708 138.47 44.6042C138.785 44.2377 139.176 43.9546 139.64 43.755C140.105 43.5553 140.638 43.4555 141.241 43.4555C141.636 43.4555 142.032 43.5063 142.428 43.608C142.827 43.706 143.208 43.8421 143.571 44.0163L143.027 45.3882C142.729 45.2467 142.429 45.1233 142.128 45.018C141.827 44.9128 141.531 44.8601 141.241 44.8601ZM148.041 51.5293H146.353V44.9745H144.192V43.5698H150.202V44.9745H148.041V51.5293ZM153.969 43.5698C154.997 43.5698 155.746 43.7912 156.218 44.234C156.69 44.6732 156.926 45.2793 156.926 46.0524C156.926 46.4008 156.873 46.7348 156.768 47.0541C156.663 47.3699 156.49 47.6512 156.251 47.898C156.015 48.1448 155.699 48.3408 155.303 48.486C154.908 48.6275 154.419 48.6983 153.839 48.6983H153.115V51.5293H151.427V43.5698H153.969ZM153.882 44.9527H153.115V47.3155H153.67C153.986 47.3155 154.26 47.2737 154.492 47.1903C154.724 47.1068 154.904 46.9761 155.031 46.7983C155.158 46.6204 155.222 46.3918 155.222 46.1123C155.222 45.7203 155.113 45.43 154.895 45.2412C154.677 45.0489 154.34 44.9527 153.882 44.9527ZM158.428 43.5698H159.947V47.4135C159.947 47.6022 159.944 47.8109 159.936 48.0396C159.933 48.2682 159.925 48.4932 159.915 48.7146C159.907 48.9324 159.9 49.123 159.893 49.2863C159.885 49.4496 159.878 49.5585 159.871 49.6129H159.904L163.578 43.5698H165.598V51.5293H164.096V47.7075C164.096 47.5042 164.099 47.2828 164.107 47.0433C164.114 46.8037 164.123 46.5714 164.134 46.3464C164.148 46.1214 164.161 45.9272 164.172 45.7639C164.183 45.5969 164.19 45.4862 164.194 45.4318H164.15L160.459 51.5293H158.428V43.5698ZM167.607 43.5698H169.126V47.4135C169.126 47.6022 169.123 47.8109 169.115 48.0396C169.112 48.2682 169.104 48.4932 169.093 48.7146C169.086 48.9324 169.079 49.123 169.072 49.2863C169.064 49.4496 169.057 49.5585 169.05 49.6129H169.083L172.757 43.5698H174.777V51.5293H173.275V47.7075C173.275 47.5042 173.278 47.2828 173.286 47.0433C173.293 46.8037 173.302 46.5714 173.313 46.3464C173.327 46.1214 173.34 45.9272 173.351 45.7639C173.362 45.5969 173.369 45.4862 173.373 45.4318H173.329L169.638 51.5293H167.607V43.5698ZM91.1105 66.5293H89.4228V63.4533C88.9546 63.613 88.5263 63.7346 88.1379 63.8181C87.7496 63.9016 87.3576 63.9433 86.962 63.9433C86.2143 63.9433 85.6318 63.7636 85.2144 63.4043C84.797 63.0414 84.5883 62.526 84.5883 61.8582V58.5698H86.2706V61.3791C86.2706 61.7638 86.3595 62.0541 86.5373 62.2501C86.7152 62.4425 87.0164 62.5387 87.4411 62.5387C87.7532 62.5387 88.0653 62.506 88.3775 62.4407C88.6896 62.3717 89.038 62.2701 89.4228 62.1358V58.5698H91.1105V66.5293ZM99.5109 58.5698L97.0447 64.1992C96.8233 64.7073 96.5874 65.1447 96.3369 65.5112C96.0865 65.8742 95.7689 66.1536 95.3842 66.3496C94.9995 66.542 94.495 66.6382 93.8707 66.6382C93.6747 66.6382 93.4624 66.6237 93.2337 66.5946C93.0051 66.5692 92.7927 66.5293 92.5967 66.4749V65.0267C92.7782 65.0957 92.9742 65.1465 93.1847 65.1791C93.3989 65.2082 93.6003 65.2227 93.789 65.2227C94.0358 65.2227 94.2355 65.1809 94.3879 65.0975C94.5403 65.014 94.6619 64.9015 94.7527 64.7599C94.8434 64.6184 94.9196 64.4605 94.9813 64.2863L92.2265 58.5698H94.0122L95.4985 62.016C95.5312 62.0886 95.5729 62.1866 95.6237 62.31C95.6782 62.4298 95.7308 62.5532 95.7816 62.6802C95.8361 62.8036 95.8778 62.9125 95.9068 63.0069H95.9667C95.9957 62.9161 96.0339 62.8073 96.081 62.6802C96.1319 62.5496 96.1845 62.4171 96.2389 62.2828C96.2934 62.1449 96.3424 62.0215 96.3859 61.9126L97.7687 58.5698H99.5109ZM100.513 58.5698H102.99C104.05 58.5698 104.852 58.7187 105.396 59.0163C105.941 59.3139 106.213 59.8365 106.213 60.5842C106.213 60.8855 106.164 61.1577 106.066 61.4008C105.971 61.644 105.833 61.8436 105.652 61.9997C105.471 62.1558 105.249 62.2574 104.988 62.3046V62.359C105.253 62.4135 105.492 62.5078 105.706 62.6421C105.921 62.7728 106.091 62.9651 106.218 63.2192C106.349 63.4696 106.414 63.8036 106.414 64.2209C106.414 64.7037 106.296 65.1174 106.06 65.4622C105.824 65.807 105.487 66.072 105.048 66.2571C104.612 66.4386 104.093 66.5293 103.491 66.5293H100.513V58.5698ZM102.2 61.7221H103.18C103.67 61.7221 104.01 61.6458 104.198 61.4934C104.387 61.3373 104.481 61.1087 104.481 60.8074C104.481 60.5025 104.369 60.2848 104.144 60.1541C103.923 60.0198 103.57 59.9527 103.088 59.9527H102.2V61.7221ZM102.2 63.0613V65.1356H103.3C103.808 65.1356 104.162 65.0376 104.362 64.8416C104.561 64.6456 104.661 64.3825 104.661 64.0522C104.661 63.8562 104.618 63.6838 104.53 63.535C104.443 63.3862 104.296 63.27 104.089 63.1865C103.886 63.1031 103.605 63.0613 103.246 63.0613H102.2ZM112.876 66.5293L112.299 64.6347H109.398L108.821 66.5293H107.002L109.811 58.5372H111.875L114.695 66.5293H112.876ZM111.896 63.2192L111.319 61.3682C111.283 61.2448 111.234 61.0869 111.172 60.8945C111.114 60.6985 111.054 60.5007 110.993 60.3011C110.935 60.0979 110.888 59.9218 110.851 59.773C110.815 59.9218 110.764 60.1069 110.699 60.3283C110.637 60.5461 110.577 60.753 110.519 60.949C110.461 61.145 110.419 61.2847 110.394 61.3682L109.822 63.2192H111.896ZM125.714 66.5293H115.702V58.5698H117.39V65.1247H119.861V58.5698H121.56V65.1247H124.032V58.5698H125.714V66.5293ZM131.104 59.8601C130.781 59.8601 130.494 59.9236 130.244 60.0507C129.997 60.1741 129.788 60.3537 129.617 60.5897C129.45 60.8256 129.323 61.1105 129.236 61.4444C129.149 61.7783 129.106 62.154 129.106 62.5713C129.106 63.1339 129.175 63.6148 129.313 64.0141C129.454 64.4097 129.672 64.7127 129.966 64.9233C130.26 65.1301 130.639 65.2336 131.104 65.2336C131.427 65.2336 131.75 65.1973 132.073 65.1247C132.399 65.0521 132.753 64.9487 133.134 64.8144V66.2299C132.782 66.375 132.436 66.4785 132.095 66.5402C131.753 66.6055 131.37 66.6382 130.946 66.6382C130.126 66.6382 129.45 66.4694 128.921 66.1319C128.394 65.7907 128.004 65.3152 127.75 64.7055C127.496 64.0921 127.369 63.3771 127.369 62.5605C127.369 61.958 127.451 61.4063 127.614 60.9054C127.777 60.4045 128.017 59.9708 128.333 59.6042C128.648 59.2377 129.039 58.9546 129.503 58.755C129.968 58.5553 130.501 58.4555 131.104 58.4555C131.499 58.4555 131.895 58.5063 132.291 58.608C132.69 58.706 133.071 58.8421 133.434 59.0163L132.889 60.3882C132.592 60.2467 132.292 60.1233 131.991 60.018C131.69 59.9128 131.394 59.8601 131.104 59.8601ZM141.323 66.5293H139.406L136.521 62.4951V66.5293H134.833V58.5698H136.521V62.4244L139.373 58.5698H141.17L138.268 62.3917L141.323 66.5293ZM149.549 62.5387C149.549 63.1521 149.473 63.711 149.32 64.2155C149.168 64.7164 148.935 65.1483 148.623 65.5112C148.315 65.8742 147.923 66.1536 147.447 66.3496C146.972 66.542 146.409 66.6382 145.76 66.6382C145.11 66.6382 144.547 66.542 144.072 66.3496C143.596 66.1536 143.203 65.8742 142.89 65.5112C142.582 65.1483 142.351 64.7146 142.199 64.2101C142.047 63.7056 141.97 63.1448 141.97 62.5278C141.97 61.7039 142.105 60.9871 142.373 60.3773C142.645 59.7639 143.063 59.2885 143.625 58.9509C144.188 58.6134 144.903 58.4446 145.77 58.4446C146.634 58.4446 147.344 58.6134 147.899 58.9509C148.458 59.2885 148.872 59.7639 149.14 60.3773C149.413 60.9907 149.549 61.7112 149.549 62.5387ZM143.74 62.5387C143.74 63.094 143.809 63.5731 143.947 63.976C144.088 64.3752 144.308 64.6837 144.605 64.9015C144.903 65.1156 145.288 65.2227 145.76 65.2227C146.239 65.2227 146.627 65.1156 146.925 64.9015C147.222 64.6837 147.438 64.3752 147.572 63.976C147.71 63.5731 147.779 63.094 147.779 62.5387C147.779 61.7039 147.623 61.047 147.311 60.5679C146.999 60.0888 146.485 59.8492 145.77 59.8492C145.295 59.8492 144.907 59.9581 144.605 60.1759C144.308 60.39 144.088 60.6985 143.947 61.1014C143.809 61.5007 143.74 61.9797 143.74 62.5387ZM151.198 58.5698H152.717V62.4135C152.717 62.6022 152.714 62.8109 152.706 63.0396C152.703 63.2682 152.695 63.4932 152.685 63.7146C152.677 63.9324 152.67 64.123 152.663 64.2863C152.656 64.4496 152.648 64.5585 152.641 64.6129H152.674L156.349 58.5698H158.368V66.5293H156.866V62.7075C156.866 62.5042 156.869 62.2828 156.877 62.0433C156.884 61.8037 156.893 61.5714 156.904 61.3464C156.918 61.1214 156.931 60.9272 156.942 60.7639C156.953 60.5969 156.96 60.4862 156.964 60.4318H156.92L153.229 66.5293H151.198V58.5698ZM157.612 55.9512C157.572 56.3359 157.463 56.6753 157.285 56.9692C157.107 57.2632 156.829 57.4919 156.452 57.6552C156.075 57.8185 155.566 57.9002 154.928 57.9002C154.271 57.9002 153.759 57.8222 153.392 57.6661C153.026 57.5064 152.764 57.2814 152.608 56.991C152.452 56.697 152.358 56.3504 152.325 55.9512H153.812C153.844 56.3613 153.948 56.6335 154.122 56.7678C154.296 56.8985 154.576 56.9638 154.96 56.9638C155.28 56.9638 155.541 56.8912 155.744 56.746C155.947 56.6009 156.069 56.3359 156.109 55.9512H157.612ZM165.816 58.5698C166.843 58.5698 167.593 58.7912 168.065 59.234C168.536 59.6732 168.772 60.2793 168.772 61.0524C168.772 61.4008 168.72 61.7348 168.614 62.0541C168.509 62.3699 168.337 62.6512 168.097 62.898C167.861 63.1448 167.546 63.3408 167.15 63.486C166.754 63.6275 166.266 63.6983 165.685 63.6983H164.961V66.5293H163.274V58.5698H165.816ZM165.729 59.9527H164.961V62.3155H165.517C165.832 62.3155 166.106 62.2737 166.339 62.1903C166.571 62.1068 166.751 61.9761 166.878 61.7983C167.005 61.6204 167.068 61.3918 167.068 61.1123C167.068 60.7203 166.959 60.43 166.742 60.2412C166.524 60.0489 166.186 59.9527 165.729 59.9527ZM174.859 66.5293H170.275V58.5698H174.859V59.9527H171.963V61.7003H174.657V63.0831H171.963V65.1356H174.859V66.5293ZM179.906 59.8601C179.583 59.8601 179.296 59.9236 179.046 60.0507C178.799 60.1741 178.59 60.3537 178.419 60.5897C178.252 60.8256 178.125 61.1105 178.038 61.4444C177.951 61.7783 177.908 62.154 177.908 62.5713C177.908 63.1339 177.977 63.6148 178.115 64.0141C178.256 64.4097 178.474 64.7127 178.768 64.9233C179.062 65.1301 179.441 65.2336 179.906 65.2336C180.229 65.2336 180.552 65.1973 180.875 65.1247C181.201 65.0521 181.555 64.9487 181.936 64.8144V66.2299C181.584 66.375 181.238 66.4785 180.897 66.5402C180.555 66.6055 180.172 66.6382 179.748 66.6382C178.928 66.6382 178.252 66.4694 177.723 66.1319C177.196 65.7907 176.806 65.3152 176.552 64.7055C176.298 64.0921 176.171 63.3771 176.171 62.5605C176.171 61.958 176.253 61.4063 176.416 60.9054C176.579 60.4045 176.819 59.9708 177.135 59.6042C177.45 59.2377 177.841 58.9546 178.305 58.755C178.77 58.5553 179.303 58.4555 179.906 58.4555C180.301 58.4555 180.697 58.5063 181.093 58.608C181.492 58.706 181.873 58.8421 182.236 59.0163L181.691 60.3882C181.394 60.2467 181.094 60.1233 180.793 60.018C180.492 59.9128 180.196 59.8601 179.906 59.8601ZM183.635 66.5293V58.5698H189.934V66.5293H188.252V59.9745H185.323V66.5293H183.635ZM198.334 58.5698L195.868 64.1992C195.647 64.7073 195.411 65.1447 195.16 65.5112C194.91 65.8742 194.592 66.1536 194.208 66.3496C193.823 66.542 193.318 66.6382 192.694 66.6382C192.498 66.6382 192.286 66.6237 192.057 66.5946C191.829 66.5692 191.616 66.5293 191.42 66.4749V65.0267C191.602 65.0957 191.798 65.1465 192.008 65.1791C192.222 65.2082 192.424 65.2227 192.612 65.2227C192.859 65.2227 193.059 65.1809 193.211 65.0975C193.364 65.014 193.485 64.9015 193.576 64.7599C193.667 64.6184 193.743 64.4605 193.805 64.2863L191.05 58.5698H192.836L194.322 62.016C194.355 62.0886 194.396 62.1866 194.447 62.31C194.502 62.4298 194.554 62.5532 194.605 62.6802C194.66 62.8036 194.701 62.9125 194.73 63.0069H194.79C194.819 62.9161 194.857 62.8073 194.905 62.6802C194.955 62.5496 195.008 62.4171 195.062 62.2828C195.117 62.1449 195.166 62.0215 195.209 61.9126L196.592 58.5698H198.334ZM199.336 66.5293V58.5698H204.367V59.9636H201.024V61.6241H201.688C202.436 61.6241 203.049 61.7275 203.528 61.9344C204.011 62.1413 204.367 62.428 204.595 62.7946C204.828 63.1575 204.944 63.5731 204.944 64.0413C204.944 64.8289 204.681 65.4405 204.154 65.876C203.632 66.3115 202.799 66.5293 201.655 66.5293H199.336ZM201.024 65.1465H201.59C202.102 65.1465 202.505 65.0648 202.799 64.9015C203.093 64.7345 203.24 64.4478 203.24 64.0413C203.24 63.7582 203.167 63.5422 203.022 63.3934C202.88 63.2446 202.675 63.143 202.407 63.0885C202.142 63.0341 201.824 63.0069 201.454 63.0069H201.024V65.1465ZM212.756 66.5293H211.074V59.9745H209.125C209.081 60.3156 209.034 60.6876 208.983 61.0905C208.932 61.4934 208.88 61.8999 208.825 62.31C208.771 62.7202 208.713 63.1103 208.651 63.4805C208.593 63.8507 208.535 64.1756 208.477 64.455C208.383 64.9196 208.254 65.3152 208.09 65.6419C207.931 65.9649 207.711 66.2117 207.432 66.3823C207.156 66.5529 206.795 66.6382 206.348 66.6382C206.199 66.6382 206.056 66.6273 205.918 66.6055C205.784 66.5837 205.659 66.5547 205.543 66.5184V65.1356C205.637 65.1682 205.731 65.1955 205.826 65.2172C205.92 65.2354 206.023 65.2445 206.136 65.2445C206.281 65.2445 206.401 65.1973 206.495 65.1029C206.593 65.0049 206.68 64.8398 206.757 64.6075C206.833 64.3716 206.909 64.0467 206.985 63.633C207.018 63.4515 207.061 63.1956 207.116 62.8653C207.17 62.5314 207.232 62.1413 207.301 61.6948C207.37 61.2448 207.441 60.7548 207.513 60.2249C207.59 59.695 207.662 59.1433 207.731 58.5698H212.756V66.5293ZM214.765 58.5698H216.284V62.4135C216.284 62.6022 216.28 62.8109 216.273 63.0396C216.269 63.2682 216.262 63.4932 216.251 63.7146C216.244 63.9324 216.237 64.123 216.23 64.2863C216.222 64.4496 216.215 64.5585 216.208 64.6129H216.24L219.915 58.5698H221.935V66.5293H220.432V62.7075C220.432 62.5042 220.436 62.2828 220.443 62.0433C220.451 61.8037 220.46 61.5714 220.471 61.3464C220.485 61.1214 220.498 60.9272 220.509 60.7639C220.52 60.5969 220.527 60.4862 220.53 60.4318H220.487L216.796 66.5293H214.765V58.5698ZM230.433 66.5293H228.517L225.632 62.4951V66.5293H223.944V58.5698H225.632V62.4244L228.484 58.5698H230.281L227.379 62.3917L230.433 66.5293ZM231.435 58.5698H232.954V62.4135C232.954 62.6022 232.951 62.8109 232.943 63.0396C232.94 63.2682 232.932 63.4932 232.922 63.7146C232.914 63.9324 232.907 64.123 232.9 64.2863C232.892 64.4496 232.885 64.5585 232.878 64.6129H232.911L236.585 58.5698H238.605V66.5293H237.103V62.7075C237.103 62.5042 237.106 62.2828 237.114 62.0433C237.121 61.8037 237.13 61.5714 237.141 61.3464C237.155 61.1214 237.168 60.9272 237.179 60.7639C237.19 60.5969 237.197 60.4862 237.201 60.4318H237.157L233.466 66.5293H231.435V58.5698Z" fill="url(#paint1_linear_416_3042)"/>
<mask id="mask0_416_3042" style="mask-type:luminance" maskUnits="userSpaceOnUse" x="0" y="8" width="76" height="78">
<path d="M75.8898 8.91992H0V85.4779H75.8898V8.91992Z" fill="white"/>
</mask>
<g mask="url(#mask0_416_3042)">
<path fill-rule="evenodd" clip-rule="evenodd" d="M12.0473 41.7049C14.2572 41.7049 15.3101 41.0577 15.7063 40.6883C16.0628 40.3565 16.1459 40.0501 15.8805 39.8072C15.5306 39.486 15.0037 39.4195 14.3851 39.4006C13.9007 40.138 12.8038 41.2553 12.0473 41.7049ZM63.8423 41.7049C61.6324 41.7049 60.5795 41.0577 60.1834 40.6883C59.8269 40.3565 59.7438 40.0501 60.0093 39.8072C60.3591 39.486 60.886 39.4195 61.5046 39.4006C61.9891 40.138 63.0858 41.2553 63.8423 41.7049ZM73.3071 33.0133C73.3133 33.031 73.3201 33.0491 73.3267 33.0668L73.3071 33.0133ZM2.58259 33.0133C2.57639 33.031 2.56971 33.0491 2.56302 33.0668L2.58259 33.0133ZM37.9449 73.1954C35.662 73.1954 33.4441 72.9147 31.3247 72.3864C30.2881 73.2186 29.1531 73.4183 27.9202 72.9838C16.9305 68.9112 9.09765 58.3332 9.09765 45.9261C9.09765 45.0687 9.13488 44.2202 9.2084 43.382C11.0923 43.382 12.3948 43.5944 13.2415 44.2178C13.7117 44.5633 14.4009 45.4927 14.2558 46.3357C14.209 46.6077 12.9928 45.5861 12.1566 45.9261C11.9118 46.0253 12.2645 46.6841 12.579 46.9776C13.1294 47.4906 13.8067 47.4081 13.8086 47.6596C13.8105 47.9747 13.2229 47.8152 12.686 48.5616C12.3413 49.0413 12.1848 49.5215 12.3017 49.6915C12.3862 49.8137 12.6674 49.7902 13.0282 49.7124C13.4764 49.6159 13.7389 49.3644 13.8382 49.4155C13.9031 49.449 13.8434 49.7616 13.7942 50.0489C13.7527 50.2942 13.83 50.5649 13.9947 50.5941C14.1656 50.6241 14.3932 50.4469 14.5417 50.2204C14.766 49.8756 14.9975 49.6643 15.0968 49.712C15.1645 49.745 15.3168 50.7468 16.1463 51.3586C16.3869 51.5363 16.6131 51.5768 16.7205 51.5523C16.9425 51.5019 17.0279 50.753 16.9573 50.2656C16.8857 49.7703 16.3907 49.4704 16.447 49.2978C16.4809 49.1932 17.6732 49.2967 17.5634 48.7145C17.5348 48.5626 17.1635 48.5163 16.8723 48.144C16.4079 47.5499 15.7717 47.8683 15.7569 47.5941C15.7445 47.368 17.3482 47.5264 17.8021 46.3394C17.9424 45.9724 17.3334 46.2052 17.0227 45.9667C16.2179 45.348 15.638 46.1928 15.449 46.0597C15.2595 45.9261 15.5149 44.835 15.009 44.1132C14.2959 43.0957 12.8525 42.659 12.1676 42.659C15.471 42.659 16.153 42.3306 17.2422 41.4094C17.8083 40.9303 18.0713 39.9766 17.9204 39.4454C17.7854 38.9723 17.3749 38.4675 16.8909 38.3753C16.3153 38.266 15.6414 38.2353 14.9493 38.2287C15.082 37.7663 15.124 37.258 15.0825 36.6111C15.0385 35.9229 14.8042 35.2399 14.3007 34.7554C13.8167 34.2897 12.989 34.1918 12.3308 34.5904C11.4135 35.1454 10.4823 36.1224 9.66898 37.026C9.15493 36.3755 8.98646 35.5109 8.95304 34.4982C8.92155 33.5575 9.53677 32.3671 9.95535 32.3198C10.5338 32.2539 10.7486 33.136 11.3725 33.5427C12.0197 33.9645 12.4607 33.8635 12.9723 33.6357C13.158 33.4583 13.0258 33.2311 13.0578 32.9275C13.7083 32.7112 14.5307 33.1378 15.0343 31.9652C14.9512 31.7419 14.6873 31.696 14.5269 31.4846C14.8615 31.2225 15.607 31.1652 16.0337 29.7467C15.8442 29.3573 14.9364 29.6026 14.9498 29.1272C14.9593 28.8003 13.8501 28.9373 13.5055 28.9449C14.1231 28.8036 15.0681 28.5941 14.6247 27.6829C15.2104 27.1808 15.2514 26.2997 15.2428 26.0811C15.0147 25.9513 14.9039 26.0553 14.5718 25.9694C14.8519 25.4296 15.3202 25.0917 14.5531 23.8441C12.7203 23.6522 12.5051 24.4502 12.2335 24.601C12.0998 24.5027 12.0049 24.0378 11.928 24.014C10.9228 23.9887 10.5625 25.2177 10.4565 25.4888C10.2465 25.549 9.88616 25.0635 9.70907 25.2272C9.37164 25.5399 9.7167 26.7069 9.69954 27.3025C9.66278 26.546 9.12391 25.8678 8.68385 26.0773C8.49531 26.1675 7.62568 25.074 7.12787 25.1977C6.8601 25.264 6.64197 25.7489 6.547 26.0701C6.36134 26.7002 6.57278 27.176 6.4797 27.3049C6.33364 27.5068 5.81148 27.2901 5.65207 27.4462C5.53371 27.5627 5.44779 28.427 5.53896 29.2862C5.25162 29.3158 4.91131 29.405 4.66361 29.5946C4.05409 30.0603 3.95242 30.8078 3.86222 30.8393C3.67799 30.9037 3.28517 30.4307 3.10524 30.4622C2.88903 30.5003 2.53344 30.9343 2.44896 31.2941C2.29002 31.9753 2.68139 32.9156 2.56351 33.0668C2.38403 33.2973 0.978411 32.3371 0.782243 32.6812C-0.0802284 34.1942 0.951204 34.8886 0.938794 35.0753C0.919227 35.3712 0.266765 35.2446 0.219036 35.5373C0.0467319 36.593 1.27433 37.5482 1.92632 37.5391C2.16354 37.5356 2.8661 36.9816 3.24412 37.2131C3.59828 37.4302 3.99109 40.5146 6.17042 40.7432C7.62665 40.8953 8.81653 39.9064 9.7969 38.8287C10.0188 38.9414 10.2637 39.0425 10.5357 39.1394C11.3686 39.4354 12.223 39.422 12.9003 39.3995C12.6187 39.7957 12.2435 40.1713 11.7638 40.5045C9.77208 41.8862 6.18378 41.7049 5.34279 41.7049H2.07093L0.393724 43.382C0.337882 44.2227 0.309245 45.0712 0.309245 45.9261C0.309245 64.0804 13.1633 79.2325 30.2667 82.7775C31.972 83.1621 32.9495 83.8968 33.1985 84.9812C34.7546 85.1683 36.3387 85.2646 37.9449 85.2646C39.551 85.2646 41.1351 85.1683 42.6911 84.9812C42.9401 83.8968 43.9177 83.1621 45.6232 82.7775C62.7265 79.2325 75.5804 64.0804 75.5804 45.9261C75.5804 45.0712 75.5518 44.2227 75.496 43.382L73.8187 41.7049H70.5469C69.706 41.7049 66.1177 41.8862 64.1259 40.5045C63.6462 40.1713 63.271 39.7957 62.9895 39.3995C63.6668 39.422 64.521 39.4354 65.3539 39.1394C65.626 39.0425 65.8709 38.9414 66.0928 38.8287C67.0732 39.9064 68.2631 40.8953 69.7194 40.7432C71.8986 40.5146 72.2915 37.4302 72.6457 37.2131C73.0235 36.9816 73.7261 37.5356 73.9634 37.5391C74.6154 37.5482 75.843 36.593 75.6707 35.5373C75.623 35.2446 74.9704 35.3712 74.9508 35.0753C74.9385 34.8886 75.97 34.1942 75.1075 32.6812C74.9113 32.3371 73.5057 33.2973 73.3262 33.0668C73.2083 32.9156 73.5998 31.9753 73.4407 31.2941C73.3563 30.9343 73.0007 30.5003 72.7844 30.4622C72.6045 30.4307 72.2116 30.9037 72.0274 30.8393C71.9373 30.8078 71.8356 30.0603 71.2261 29.5946C70.9785 29.405 70.6381 29.3158 70.3508 29.2862C70.4419 28.427 70.3559 27.5627 70.2376 27.4462C70.0783 27.2901 69.556 27.5068 69.4101 27.3049C69.3168 27.176 69.5284 26.7002 69.3428 26.0701C69.2477 25.7489 69.0295 25.264 68.7618 25.1977C68.264 25.074 67.3944 26.1675 67.2059 26.0773C66.7657 25.8678 66.2269 26.546 66.1901 27.3025C66.173 26.7069 66.5181 25.5399 66.1806 25.2272C66.0036 25.0635 65.6433 25.549 65.4332 25.4888C65.3272 25.2177 64.9668 23.9887 63.9617 24.014C63.8849 24.0378 63.7898 24.5027 63.6563 24.601C63.3846 24.4502 63.1693 23.6522 61.3365 23.8441C60.5695 25.0917 61.0379 25.4296 61.318 25.9694C60.9858 26.0553 60.8751 25.9513 60.6468 26.0811C60.6382 26.2997 60.6794 27.1808 61.2649 27.6829C60.8216 28.5941 61.7666 28.8036 62.3842 28.9449C62.0397 28.9373 60.9304 28.8003 60.9399 29.1272C60.9533 29.6026 60.0455 29.3573 59.856 29.7467C60.2828 31.1652 61.0282 31.2225 61.3628 31.4846C61.2025 31.696 60.9385 31.7419 60.8555 31.9652C61.3589 33.1378 62.1813 32.7112 62.8318 32.9275C62.8639 33.2311 62.7316 33.4583 62.9174 33.6357C63.4291 33.8635 63.8701 33.9645 64.5173 33.5427C65.1411 33.136 65.3558 32.2539 65.9343 32.3198C66.3529 32.3671 66.9682 33.5575 66.9367 34.4982C66.9032 35.5109 66.7349 36.3755 66.2208 37.026C65.4074 36.1224 64.4762 35.1454 63.5589 34.5904C62.9006 34.1918 62.0731 34.2897 61.589 34.7554C61.0854 35.2399 60.8512 35.9229 60.8072 36.6111C60.7658 37.258 60.8078 37.7663 60.9403 38.2287C60.2484 38.2353 59.5744 38.266 58.9988 38.3753C58.5147 38.4675 58.1044 38.9723 57.9692 39.4454C57.8185 39.9766 58.0813 40.9303 58.6475 41.4094C59.7366 42.3306 60.4188 42.659 63.7221 42.659C63.0372 42.659 61.5937 43.0957 60.8808 44.1132C60.3748 44.835 60.6302 45.9261 60.4406 46.0597C60.2517 46.1928 59.6718 45.348 58.8671 45.9667C58.5563 46.2052 57.9474 45.9724 58.0877 46.3394C58.5415 47.5264 60.1453 47.368 60.1328 47.5941C60.1179 47.8683 59.4818 47.5499 59.0173 48.144C58.7263 48.5163 58.3548 48.5626 58.3262 48.7145C58.2165 49.2967 59.4087 49.1932 59.4427 49.2978C59.4989 49.4704 59.0039 49.7703 58.9325 50.2656C58.8617 50.753 58.9471 51.5019 59.1692 51.5523C59.2766 51.5768 59.5028 51.5363 59.7434 51.3586C60.573 50.7468 60.7251 49.745 60.793 49.712C60.8922 49.6643 61.1237 49.8756 61.348 50.2204C61.4964 50.4469 61.7242 50.6241 61.895 50.5941C62.0597 50.5649 62.1371 50.2942 62.0955 50.0489C62.0463 49.7616 61.9866 49.449 62.0516 49.4155C62.1508 49.3644 62.4132 49.6159 62.8615 49.7124C63.2224 49.7902 63.5036 49.8137 63.5879 49.6915C63.7048 49.5215 63.5484 49.0413 63.2037 48.5616C62.6668 47.8152 62.0792 47.9747 62.0811 47.6596C62.0831 47.4081 62.7604 47.4906 63.3107 46.9776C63.6252 46.6841 63.9779 46.0253 63.733 45.9261C62.8969 45.5861 61.6808 46.6077 61.6339 46.3357C61.4888 45.4927 62.178 44.5633 62.6483 44.2178C63.4949 43.5944 64.7974 43.382 66.6813 43.382C66.7548 44.2202 66.7921 45.0687 66.7921 45.9261C66.7921 58.3332 58.9591 68.9112 47.9695 72.9838C46.7365 73.4183 45.6016 73.2186 44.5649 72.3864C42.4458 72.9147 40.2277 73.1954 37.9449 73.1954ZM67.1224 38.0326C67.3518 37.761 67.5523 37.4313 67.739 37.0178C67.9376 36.5778 68.053 36.0217 68.0794 35.3459C68.3681 35.585 68.6511 35.734 68.6677 35.8285C68.714 36.0971 68.1355 36.0228 68.2162 36.2833C68.3613 36.7505 68.7241 37.3706 69.4319 37.4951C69.9235 37.5815 70.6088 36.6278 70.9569 37.2827C71.239 37.813 70.7198 38.8768 69.9431 39.2812C69.5924 39.4635 68.884 39.5031 68.1047 38.9758C67.8439 38.799 67.5089 38.457 67.1224 38.0326ZM68.7994 31.4254C68.3928 32.4128 69.4778 33.3455 69.421 33.5984C69.3891 33.7402 68.5146 33.4548 67.9625 33.5054C67.7766 32.441 67.4173 31.8215 67.6344 31.5328C67.74 31.3935 68.2487 31.5137 68.7994 31.4254ZM62.4287 38.2298C62.2815 37.6918 62.2764 37.1578 62.3881 36.6784C62.6176 35.6972 63.3947 36.1215 63.9751 36.5072C64.3379 36.7482 64.7497 37.2407 65.2197 37.8073C65.0677 37.8807 64.902 37.9472 64.7225 38.0063C64.1465 38.1954 63.3212 38.2269 62.4287 38.2298ZM8.76738 38.0326C8.53779 37.761 8.33734 37.4313 8.1507 37.0178C7.95216 36.5778 7.83665 36.0217 7.81041 35.3459C7.52163 35.585 7.23859 35.734 7.2219 35.8285C7.17559 36.0971 7.75408 36.0228 7.67341 36.2833C7.52832 36.7505 7.16557 37.3706 6.45774 37.4951C5.96614 37.5815 5.28074 36.6278 4.9328 37.2827C4.6507 37.813 5.17 38.8768 5.94657 39.2812C6.29738 39.4635 7.00569 39.5031 7.7851 38.9758C8.0457 38.799 8.38077 38.457 8.76738 38.0326ZM7.09017 31.4254C7.49681 32.4128 6.41193 33.3455 6.46873 33.5984C6.50071 33.7402 7.3751 33.4548 7.92734 33.5054C8.113 32.441 8.47241 31.8215 8.25523 31.5328C8.14975 31.3935 7.64095 31.5137 7.09017 31.4254ZM13.4611 38.2298C13.6081 37.6918 13.6133 37.1578 13.5017 36.6784C13.2721 35.6972 12.495 36.1215 11.9147 36.5072C11.5519 36.7482 11.14 37.2407 10.6699 37.8073C10.8221 37.8807 10.9878 37.9472 11.1672 38.0063C11.7433 38.1954 12.5686 38.2269 13.4611 38.2298Z" fill="url(#paint2_linear_416_3042)"/>
<path fill-rule="evenodd" clip-rule="evenodd" d="M73.9649 43.3823H68.2144C68.2842 44.2208 68.3194 45.0695 68.3194 45.9262C68.3194 58.6419 60.4041 70.0268 48.4979 74.4169C47.0149 74.9639 45.5459 74.8049 44.2547 74.0288C42.1843 74.4918 40.0679 74.7227 37.945 74.7227C35.822 74.7227 33.7055 74.4918 31.6352 74.0288C30.344 74.8049 28.875 74.9639 27.3919 74.4169C15.4858 70.0268 7.57041 58.6419 7.57041 45.9262C7.57041 45.0695 7.60572 44.2208 7.67541 43.3823H1.92497C1.86626 44.2222 1.83667 45.0709 1.83667 45.9262C1.83667 63.031 13.8693 77.7919 30.5788 81.2826C32.0727 81.5948 33.5119 82.2793 34.2626 83.5605C35.4863 83.6788 36.7154 83.7374 37.945 83.7374C39.1745 83.7374 40.4035 83.6788 41.6272 83.5605C42.378 82.2793 43.8171 81.5948 45.311 81.2826C62.0206 77.7919 74.0532 63.031 74.0532 45.9262C74.0532 45.0709 74.0236 44.2222 73.9649 43.3823Z" fill="#E8E8E8"/>
<path fill-rule="evenodd" clip-rule="evenodd" d="M15.7064 52.8632C15.5088 52.7692 15.3665 52.5969 15.2644 52.4663C14.8764 51.9684 14.9465 51.6328 14.7947 51.627C14.6096 51.6204 14.4205 52.3148 14.1394 52.6389C14.1456 52.8643 14.1213 53.0909 14.1857 53.3067C14.2396 53.4891 14.3895 53.7309 14.4802 53.7482C14.5976 53.7706 14.9794 53.6618 15.1642 53.5228C15.3971 53.3477 15.5102 53.0785 15.7064 52.8632Z" fill="url(#paint3_linear_416_3042)"/>
<path fill-rule="evenodd" clip-rule="evenodd" d="M16.1464 51.3586C15.3168 50.7466 15.1646 49.7447 15.0968 49.7118C14.9975 49.6643 14.766 49.8756 14.5417 50.2201C14.3933 50.4469 14.1656 50.6239 13.9947 50.5939C13.8301 50.5649 13.7527 50.2942 13.7943 50.0489C13.8434 49.7616 13.9031 49.449 13.8382 49.4155C13.7389 49.3644 13.4764 49.6159 13.0282 49.7124C12.8526 50.0399 12.5929 50.4206 12.5347 50.7877C12.4779 51.1471 12.5189 51.4401 12.7428 51.7274C12.8182 51.8244 13.1537 51.6517 13.2621 51.7571C13.3466 51.8396 13.1743 52.0822 13.2053 52.5204C13.2153 52.6568 13.4115 52.9713 13.5666 53.0077C13.6616 53.0295 13.8745 52.9441 14.1393 52.6387C14.4205 52.3146 14.6095 51.6202 14.7947 51.6268C14.9465 51.6325 14.8763 51.968 15.2643 52.4658C15.3665 52.5967 15.5087 52.769 15.7063 52.863C15.7693 52.8931 15.8743 52.939 15.9421 52.8902C16.0695 52.799 16.1502 52.5331 16.1631 52.3518C16.197 51.8731 16.1621 51.6568 16.1464 51.3586Z" fill="url(#paint4_linear_416_3042)"/>
<path fill-rule="evenodd" clip-rule="evenodd" d="M60.1836 52.8632C60.3812 52.7692 60.5234 52.5969 60.6257 52.4663C61.0136 51.9684 60.9434 51.6328 61.0953 51.627C61.2805 51.6204 61.4694 52.3148 61.7506 52.6389C61.7444 52.8643 61.7687 53.0909 61.7043 53.3067C61.6503 53.4891 61.5005 53.7309 61.4098 53.7482C61.2925 53.7706 60.9105 53.6618 60.7259 53.5228C60.4929 53.3477 60.3797 53.0785 60.1836 52.8632Z" fill="url(#paint5_linear_416_3042)"/>
<path fill-rule="evenodd" clip-rule="evenodd" d="M59.7434 51.3586C60.573 50.7466 60.7251 49.7447 60.793 49.7118C60.8922 49.6643 61.1238 49.8756 61.3481 50.2201C61.4965 50.4469 61.7241 50.6239 61.8951 50.5939C62.0597 50.5649 62.1371 50.2942 62.0956 50.0489C62.0464 49.7616 61.9867 49.449 62.0515 49.4155C62.1509 49.3644 62.4133 49.6159 62.8615 49.7124C63.0373 50.0399 63.2968 50.4206 63.3551 50.7877C63.4119 51.1471 63.3709 51.4401 63.147 51.7274C63.0717 51.8244 62.736 51.6517 62.6278 51.7571C62.5432 51.8396 62.7154 52.0822 62.6846 52.5204C62.6745 52.6568 62.4783 52.9713 62.3232 53.0077C62.2283 53.0295 62.0153 52.9441 61.7504 52.6387C61.4693 52.3146 61.2804 51.6202 61.0951 51.6268C60.9433 51.6325 61.0134 51.968 60.6255 52.4658C60.5232 52.5967 60.381 52.769 60.1834 52.863C60.1205 52.8931 60.0155 52.939 59.9476 52.8902C59.8202 52.799 59.7395 52.5331 59.7268 52.3518C59.6928 51.8731 59.7276 51.6568 59.7434 51.3586Z" fill="url(#paint6_linear_416_3042)"/>
<path fill-rule="evenodd" clip-rule="evenodd" d="M37.945 72.1044C37.563 72.1044 37.2977 72.0983 36.9725 71.9974C35.6982 68.096 33.549 67.54 29.4863 67.571C23.2199 67.6188 17.2914 63.5999 17.5601 55.4679C19.7413 54.1709 20.0463 51.1798 20.3905 48.1012C20.5813 46.3949 20.5518 43.5088 20.1666 41.2845C19.5199 37.5473 18.5596 35.6964 15.4194 35.6219C17.657 24.8661 15.4194 35.6219 17.657 24.8661C20.2769 24.8661 23.3111 24.238 26.5185 21.2893C29.0443 18.9672 33.3628 17.2404 37.945 20.7447C42.5269 17.2404 46.8454 18.9672 49.3712 21.2893C52.5786 24.238 55.6128 24.8661 58.2328 24.8661C60.4703 35.6219 58.2328 24.8661 60.4703 35.6219C57.3302 35.6964 56.3699 37.5473 55.7231 41.2845C55.338 43.5088 55.3084 46.3949 55.4992 48.1012C55.8435 51.1798 56.1485 54.1709 58.3295 55.4679C58.5983 63.5999 52.6698 67.6188 46.4034 67.571C42.3407 67.54 40.1915 68.096 38.9172 71.9974C38.592 72.0983 38.3267 72.1044 37.945 72.1044Z" fill="url(#paint7_linear_416_3042)"/>
<path fill-rule="evenodd" clip-rule="evenodd" d="M36.4191 40.3949V38.5411L29.5777 31.7163H27.1005L23.3923 35.4242L26.4933 38.5248H28.971L31.1364 36.3594L28.6592 33.8817L27.1005 35.4242L28.0354 36.3594L28.6592 35.7356L29.2659 36.3594L28.0354 37.5893L25.87 35.4242L28.6592 32.6513L36.4191 40.3949Z" fill="#E8E8E8"/>
<path fill-rule="evenodd" clip-rule="evenodd" d="M39.4707 40.3949V38.5411L46.2955 31.7163H48.7727L52.4975 35.4242L49.3965 38.5248H46.9188L44.7534 36.3594L47.2306 33.8817L48.7727 35.4242L47.8544 36.3594L47.2306 35.7356L46.6073 36.3594L47.8544 37.5893L50.0199 35.4242L47.2306 32.6513L39.4707 40.3949Z" fill="#E8E8E8"/>
<path fill-rule="evenodd" clip-rule="evenodd" d="M47.2407 11.4102V9.05713L49.6138 11.4102L51.9669 9.05713V11.4102H54.34L51.9669 13.7828L54.34 16.1359H51.9669V18.509L49.6138 16.1359L47.2407 18.509V16.1359H44.8882L47.2407 13.7828L44.8882 11.4102H47.2407Z" fill="url(#paint8_linear_416_3042)"/>
<path fill-rule="evenodd" clip-rule="evenodd" d="M47.2407 11.4102V9.05713L49.6138 11.4102L51.9669 9.05713V11.4102H54.34L51.9669 13.7828L54.34 16.1359H51.9669V18.509L49.6138 16.1359L47.2407 18.509V16.1359H44.8882L47.2407 13.7828L44.8882 11.4102H47.2407ZM48.0044 10.8866V11.4102V12.1739H47.2407H46.7176L47.7811 13.2459L48.317 13.7866L47.7811 14.3226L46.7315 15.3722H47.2407H48.0044V16.1359V16.6657L49.074 15.5961L49.6148 15.0553L50.1536 15.5989L51.2032 16.6576V16.1359V15.3722H51.9669H52.4882L51.43 14.3226L50.8863 13.7838L51.4271 13.243L52.4962 12.1739H51.9669H51.2032V11.4102V10.9009L50.1536 11.95L49.6177 12.486L49.0769 11.95L48.0044 10.8866Z" fill="#E8E8E8"/>
<path fill-rule="evenodd" clip-rule="evenodd" d="M35.5713 11.4102V9.03711L37.945 11.4102L40.2975 9.03711V11.4102H42.671L40.2975 13.7628L42.671 16.1359H40.2975V18.489L37.945 16.1359L35.5713 18.489V16.1359H33.2188L35.5713 13.7628L33.2188 11.4102H35.5713Z" fill="url(#paint9_linear_416_3042)"/>
<path fill-rule="evenodd" clip-rule="evenodd" d="M35.5713 11.4102V9.03711L37.945 11.4102L40.2975 9.03711V11.4102H42.671L40.2975 13.7628L42.671 16.1359H40.2975V18.489L37.945 16.1359L35.5713 18.489V16.1359H33.2188L35.5713 13.7628L33.2188 11.4102H35.5713ZM36.335 10.8804V11.4102V12.1739H35.5713H35.0625L36.1115 13.223L36.6476 13.759L36.1115 14.2998L35.0481 15.3722H35.5713H36.335V16.1359V16.6595L37.4078 15.5961L37.9487 15.0601L38.4848 15.5961L39.5338 16.6452V16.1359V15.3722H40.2975H40.8272L39.7577 14.3026L39.2168 13.7618L39.7605 13.223L40.8186 12.1739H40.2975H39.5338V11.4102V10.889L38.4848 11.9472L37.9458 12.4908L37.4052 11.95L36.335 10.8804Z" fill="#E8E8E8"/>
<path fill-rule="evenodd" clip-rule="evenodd" d="M23.9234 11.4102V9.05713L26.2765 11.4102L28.6492 9.05713V11.4102H31.0021L28.6492 13.7828L31.0021 16.1359H28.6492V18.509L26.2765 16.1359L23.9234 18.509V16.1359H21.5503L23.9234 13.7828L21.5503 11.4102H23.9234Z" fill="url(#paint10_linear_416_3042)"/>
<path fill-rule="evenodd" clip-rule="evenodd" d="M23.9234 11.4102V9.05713L26.2765 11.4102L28.6492 9.05713V11.4102H31.0021L28.6492 13.7828L31.0021 16.1359H28.6492V18.509L26.2765 16.1359L23.9234 18.509V16.1359H21.5503L23.9234 13.7828L21.5503 11.4102H23.9234ZM24.6871 10.9004V11.4102V12.1739H23.9234H23.3941L24.4632 13.243L25.004 13.7838L24.4603 14.3226L23.4017 15.3722H23.9234H24.6871V16.1359V16.6576L25.7363 15.5989L26.2755 15.0553L26.8163 15.5961L27.8855 16.6657V16.1359V15.3722H28.6492H29.1583L28.1094 14.3226L27.5733 13.7866L28.1094 13.2459L29.1728 12.1739H28.6492H27.8855V11.4102V10.8866L26.8134 11.95L26.2726 12.486L25.7363 11.95L24.6871 10.9004Z" fill="#E8E8E8"/>
<path fill-rule="evenodd" clip-rule="evenodd" d="M37.9444 31.3422L36.0286 33.258L37.9477 35.1771L39.8684 33.2656L37.9444 31.3422ZM37.9444 30.8018L35.4888 33.258L37.9464 35.7155L40.4082 33.2656L37.9444 30.8018Z" fill="#E8E8E8"/>
<path fill-rule="evenodd" clip-rule="evenodd" d="M21.4802 52.6987H33.77V42.9159L30.7141 45.9721L30.4439 46.2427L30.1743 45.9706L27.4345 43.2057L27.3229 43.0927V42.9369V39.8614H26.0982H25.9401L25.828 39.7491L21.7725 35.6942L21.5026 35.4244L21.7725 35.1543L26.4351 30.4915L26.5468 30.38H26.7053H28.8646V28.2187V28.0617L28.9782 27.9485L33.6585 23.2892L33.9285 23.0205L34.1969 23.2892L37.9531 27.0455L41.7109 23.2878L41.9811 23.0176L42.2507 23.2878L46.9133 27.95L47.0251 28.0617V28.2201V30.38H49.1673H49.3232L49.4358 30.4915L54.1176 35.1529L54.3888 35.4229L54.119 35.6927L50.0621 39.7491L49.9499 39.8614H49.7919H48.5671V42.9369V43.0927L48.4556 43.2057L45.7158 45.9706L45.4462 46.2427L45.1759 45.9721L42.12 42.9159V52.6987H54.4098C54.0361 51.3593 53.8784 49.9366 53.734 48.6312L53.6975 48.3024C53.5735 47.1949 53.5368 45.9311 53.5784 44.6659C53.6204 43.3794 53.743 42.095 53.9363 40.9762C54.2207 39.3333 54.6035 37.8267 55.3024 36.6176C55.9692 35.4649 56.9128 34.5925 58.3108 34.1428C58.0858 33.0642 57.8586 31.9731 57.5767 30.6098C57.3756 29.6372 57.1071 28.349 56.8412 27.0718L56.7446 26.6112C55.1447 26.4618 53.6675 26.0666 52.2792 25.4308C50.811 24.7588 49.4469 23.8209 48.1444 22.6234C46.7511 21.3423 45.2218 20.6541 43.6682 20.5796C42.128 20.5056 40.551 21.034 39.0462 22.1847L38.176 22.8501L37.9451 23.0267L37.714 22.8501L36.8439 22.1847C35.3391 21.034 33.762 20.5056 32.2218 20.5796C30.6682 20.6541 29.1389 21.3423 27.7458 22.6234C26.4431 23.8209 25.0791 24.7588 23.6109 25.4308C22.2225 26.0666 20.7453 26.4618 19.1454 26.6112L19.0489 27.0718C18.7831 28.349 18.5144 29.6372 18.3134 30.6098C18.0314 31.9731 17.8042 33.0642 17.5794 34.1428C18.9774 34.5925 19.921 35.4649 20.5877 36.6176C21.2866 37.8267 21.6693 39.3333 21.9538 40.9762C22.147 42.095 22.2697 43.3794 22.3117 44.6659C22.3532 45.9311 22.3166 47.1949 22.1925 48.3024L22.1557 48.6316C22.0116 49.937 21.854 51.3597 21.4802 52.6987ZM17.1345 34.4098C20.0952 35.1747 21.0221 37.8318 21.5776 41.0403C21.9577 43.2335 22.0598 46.0581 21.8134 48.2608C21.6422 49.7957 21.4759 51.5273 20.9667 53.0804H34.152V42.5786L33.8598 42.2864L30.4443 45.7025L27.7047 42.9369V39.4795H26.0982L22.0425 35.4244L26.7053 30.7617H29.2463V28.2187L33.9273 23.5594L37.9531 27.5853L41.9811 23.5574L46.6437 28.2201V30.7617H49.1673L53.849 35.4225L49.7919 39.4795H48.1854V42.9369L45.4457 45.7025L42.0303 42.2864L41.738 42.5786V53.0804H54.9233C54.4141 51.5273 54.2481 49.7957 54.0766 48.2608C53.8303 46.0581 53.9326 43.2335 54.3125 41.0403C54.8679 37.8318 55.7949 35.1747 58.7555 34.4098C58.4863 33.1182 58.2167 31.8261 57.9494 30.5341C57.6545 29.1074 57.3571 27.6813 57.0597 26.2551C53.7272 26.0074 50.9507 24.6862 48.4025 22.3432C45.4935 19.6684 41.9862 19.457 38.8146 21.8821L37.9451 22.547L37.0754 21.8821C33.9038 19.457 30.3965 19.6684 27.4875 22.3432C24.9393 24.6862 22.1629 26.0074 18.8303 26.2551C18.533 27.6813 18.2356 29.1074 17.9407 30.5341C17.6734 31.8261 17.4037 33.1182 17.1345 34.4098Z" fill="#E8E8E8"/>
<path fill-rule="evenodd" clip-rule="evenodd" d="M39.4707 55.3473V41.6418L44.13 36.9824L47.2306 40.0668V42.544L45.4426 44.3491L42.6532 41.5598L44.1959 40.0176L45.1309 40.9365L44.5071 41.5598L45.1309 42.183L46.3121 41.0017L44.13 38.8363L40.7833 42.183V54.0349H55.2939C55.5084 54.5031 55.7656 54.9445 56.0772 55.3473H39.4707Z" fill="#E8E8E8"/>
<path fill-rule="evenodd" clip-rule="evenodd" d="M36.419 55.3473V41.6418L31.7596 36.9824L28.659 40.0668V42.544L30.447 44.3491L33.2365 41.5598L31.6938 40.0176L30.7588 40.9365L31.3826 41.5598L30.7588 42.183L29.5775 41.0017L31.7596 38.8363L35.1064 42.183V54.0349H20.5958C20.3814 54.5031 20.1242 54.9445 19.8125 55.3473H36.419Z" fill="#E8E8E8"/>
<path fill-rule="evenodd" clip-rule="evenodd" d="M56.905 56.2086H38.6011V38.1802L45.6891 31.0924V28.6153L41.981 24.9077L38.8799 28.0087V30.4697L41.0458 32.6351L43.523 30.1575L41.981 28.6158L41.062 29.5504L41.6858 30.1741L41.062 30.7975L39.8155 29.567L41.981 27.4016L44.7702 30.1908L37.945 36.9829L31.1363 30.1741L33.9257 27.3849L36.0911 29.5504L34.844 30.7808L34.2206 30.1575L34.844 29.5337L33.9257 28.5986L32.3834 30.1408L34.8606 32.6178L37.0261 30.4524V28.0087L33.9257 24.9077L30.2009 28.6153V31.0924L37.2887 38.1802V56.2086H18.9849C19.0378 59.4271 20.2254 62.3744 22.975 64.2688C24.868 65.5732 27.1933 66.1568 29.4752 66.1393C33.6396 66.1078 36.3546 66.7812 37.945 70.5118C39.5352 66.7812 42.2501 66.1078 46.4145 66.1393C48.6964 66.1568 51.0218 65.5732 52.9147 64.2688C55.6645 62.3744 56.8519 59.4271 56.905 56.2086Z" fill="#E8E8E8"/>
<path fill-rule="evenodd" clip-rule="evenodd" d="M31.9726 78.2921L32.0583 77.75L32.5192 78.3785L33.1469 77.9223L33.0609 78.4645L33.6075 78.5508L32.9745 79.0109L33.4351 79.6395L32.8887 79.5526L32.8018 80.0992L32.3464 79.4668L31.7135 79.927L31.8 79.3804L31.2583 79.2945L31.8858 78.8387L31.4306 78.2063L31.9726 78.2921Z" fill="url(#paint11_linear_416_3042)"/>
<path fill-rule="evenodd" clip-rule="evenodd" d="M1.45385 34.0794C1.40421 33.9184 1.55122 33.9744 1.63284 34.0234C2.04617 34.2712 2.28768 34.6206 2.68526 34.8931C2.9979 35.1073 3.47186 35.3236 3.78543 35.536C3.99687 35.6793 4.0489 35.8371 3.7735 35.8244C3.24084 35.7995 2.7626 35.5327 2.36358 35.2463C1.97744 34.969 1.59513 34.536 1.45385 34.0794Z" fill="#E8E8E8"/>
<path fill-rule="evenodd" clip-rule="evenodd" d="M4.18537 35.7019C4.02071 35.6665 4.13239 35.5459 4.22404 35.5185C4.65359 35.3911 5.14712 35.2471 5.57907 35.0333C5.91889 34.8657 6.75512 34.5692 7.05963 34.5463C7.18658 34.5369 7.25341 34.6009 7.15127 34.7149C6.81143 35.0923 6.26445 35.3455 5.81961 35.5535C5.3891 35.7548 4.65264 35.8017 4.18537 35.7019Z" fill="#E8E8E8"/>
<path fill-rule="evenodd" clip-rule="evenodd" d="M5.0361 30.8477C5.15684 30.6009 5.32772 30.6079 5.28571 30.8423C5.17738 31.4433 4.8595 32.3333 4.55641 33.6947C4.42277 34.295 4.18173 36.2615 4.09917 36.6309C4.04522 36.8721 3.93879 36.9702 3.8209 36.5656C3.67246 36.0538 3.88678 34.2922 3.99797 33.8139C4.17935 33.0378 4.27482 32.4045 5.0361 30.8477Z" fill="#E8E8E8"/>
<path fill-rule="evenodd" clip-rule="evenodd" d="M7.78851 27.7987C7.80044 27.613 7.93026 27.729 7.99517 27.8116C8.32357 28.2311 8.43429 28.6869 8.7369 29.1256C8.9746 29.4702 9.37791 29.8807 9.61797 30.2238C9.7793 30.4553 9.77025 30.6391 9.49102 30.5168C8.95167 30.2802 8.56363 29.8163 8.26533 29.3628C7.97657 28.9242 7.75366 28.3256 7.78851 27.7987Z" fill="#E8E8E8"/>
<path fill-rule="evenodd" clip-rule="evenodd" d="M9.96452 30.5532C9.80844 30.4519 9.97215 30.3713 10.0767 30.3795C10.5707 30.4176 11.1368 30.4645 11.6675 30.4153C12.0842 30.376 13.0645 30.4013 13.3877 30.4982C13.5223 30.5384 13.5657 30.631 13.4149 30.7084C12.9151 30.9635 12.2508 31.008 11.7095 31.0467C11.1854 31.0844 10.407 30.8415 9.96452 30.5532Z" fill="#E8E8E8"/>
<path fill-rule="evenodd" clip-rule="evenodd" d="M12.7631 25.8809C12.9855 25.6737 13.1587 25.7487 13.0227 25.9744C12.6728 26.5515 11.9932 27.3438 11.1417 28.6287C10.7661 29.1952 9.7394 31.1288 9.50791 31.4776C9.35708 31.7048 9.20816 31.7645 9.24731 31.3C9.296 30.7131 10.2143 28.9799 10.5184 28.5313C11.0128 27.802 11.3617 27.1863 12.7631 25.8809Z" fill="#E8E8E8"/>
<path fill-rule="evenodd" clip-rule="evenodd" d="M74.4361 34.0794C74.4857 33.9184 74.3387 33.9744 74.257 34.0234C73.8438 34.2712 73.6021 34.6206 73.2045 34.8931C72.8919 35.1073 72.418 35.3236 72.1045 35.536C71.893 35.6793 71.8409 35.8371 72.1163 35.8244C72.6491 35.7995 73.1274 35.5327 73.5262 35.2463C73.9125 34.969 74.2947 34.536 74.4361 34.0794Z" fill="#E8E8E8"/>
<path fill-rule="evenodd" clip-rule="evenodd" d="M71.7045 35.7019C71.8692 35.6665 71.7574 35.5459 71.6658 35.5185C71.2363 35.3911 70.7428 35.2471 70.3108 35.0333C69.9711 34.8657 69.1347 34.5692 68.8303 34.5463C68.7033 34.5369 68.6364 34.6009 68.7385 34.7149C69.0785 35.0923 69.6255 35.3455 70.0703 35.5535C70.5008 35.7548 71.2374 35.8017 71.7045 35.7019Z" fill="#E8E8E8"/>
<path fill-rule="evenodd" clip-rule="evenodd" d="M70.8538 30.8477C70.733 30.6009 70.5622 30.6079 70.6041 30.8423C70.7126 31.4433 71.0304 32.3333 71.3335 33.6947C71.4671 34.295 71.7083 36.2615 71.7908 36.6309C71.8447 36.8721 71.9511 36.9702 72.069 36.5656C72.2174 36.0538 72.0032 34.2922 71.8918 33.8139C71.7105 33.0378 71.615 32.4045 70.8538 30.8477Z" fill="#E8E8E8"/>
<path fill-rule="evenodd" clip-rule="evenodd" d="M68.1013 27.7987C68.0894 27.613 67.9598 27.729 67.8947 27.8116C67.5665 28.2311 67.4558 28.6869 67.153 29.1256C66.9153 29.4702 66.512 29.8807 66.272 30.2238C66.1106 30.4553 66.1197 30.6391 66.399 30.5168C66.9382 30.2802 67.3263 29.8163 67.6247 29.3628C67.9135 28.9242 68.1363 28.3256 68.1013 27.7987Z" fill="#E8E8E8"/>
<path fill-rule="evenodd" clip-rule="evenodd" d="M65.9252 30.5532C66.0814 30.4519 65.9176 30.3713 65.813 30.3795C65.3191 30.4176 64.753 30.4645 64.2222 30.4153C63.8057 30.376 62.8252 30.4013 62.5021 30.4982C62.3675 30.5384 62.3241 30.631 62.475 30.7084C62.9746 30.9635 63.639 31.008 64.1802 31.0467C64.7044 31.0844 65.4827 30.8415 65.9252 30.5532Z" fill="#E8E8E8"/>
<path fill-rule="evenodd" clip-rule="evenodd" d="M63.1272 25.8809C62.9047 25.6737 62.7314 25.7487 62.8674 25.9744C63.2173 26.5515 63.8969 27.3438 64.7485 28.6287C65.1241 29.1952 66.1508 31.1288 66.3823 31.4776C66.533 31.7048 66.682 31.7645 66.6429 31.3C66.5941 30.7131 65.6758 28.9799 65.3718 28.5313C64.8773 27.802 64.5285 27.1863 63.1272 25.8809Z" fill="#E8E8E8"/>
<path d="M5.16668 45.8668C5.52465 45.8578 5.8683 45.8578 6.12222 45.8864L6.13654 45.8817C6.13654 45.8817 6.11697 45.6822 6.11314 45.5304C6.10933 45.383 6.11888 45.183 6.11888 45.183L6.10408 45.1743C5.83298 45.2159 5.50889 45.233 5.15092 45.242L5.04114 45.2449C4.56862 45.2568 4.19633 45.4489 4.20921 45.9432C4.21495 46.1772 4.29036 46.5552 4.5018 46.8567L4.02259 46.8693C3.66462 46.8783 3.32528 46.8693 3.06658 46.8411L3.05273 46.8458C3.05273 46.8458 3.07231 47.0539 3.07613 47.2058C3.07994 47.3531 3.07087 47.5622 3.07087 47.5622L3.08519 47.5705C3.35629 47.5289 3.68039 47.503 4.03836 47.4939L5.20724 47.4645C5.56522 47.4554 5.90886 47.4645 6.16278 47.4925L6.1771 47.4877C6.1771 47.4877 6.15753 47.2797 6.15372 47.128C6.1499 46.9804 6.15897 46.7713 6.15897 46.7713L6.14418 46.7633C5.87307 46.8049 5.54947 46.8306 5.1915 46.8397L4.75716 46.8506C4.58914 46.6015 4.56815 46.3585 4.56529 46.243C4.55716 45.9304 4.68509 45.8794 5.07598 45.8693L5.16668 45.8668ZM6.78566 49.0847C6.77469 48.9417 6.84962 48.8575 6.93075 48.8514C6.95415 48.8495 6.98325 48.852 6.9928 48.851C7.06439 48.8456 7.12883 48.7536 7.1212 48.6538C7.11259 48.5373 7.04244 48.4992 6.95223 48.5058C6.70451 48.5246 6.5685 48.8137 6.59043 49.0996C6.61192 49.385 6.78996 49.6505 7.03766 49.6313C7.12788 49.6246 7.19135 49.5764 7.18277 49.4595C7.17514 49.3597 7.09685 49.2786 7.02574 49.2844C7.0162 49.2848 6.98802 49.2916 6.96417 49.293C6.88302 49.2992 6.79615 49.2276 6.78566 49.0847ZM4.52329 49.6161C4.51182 49.4935 4.49894 49.3574 4.4913 49.2547C4.48176 49.1292 4.46935 48.9382 4.46554 48.8022L5.53467 49.1282L5.53657 49.1535C5.15808 49.3373 4.81777 49.4881 4.52329 49.6161ZM4.18917 48.7215C4.20541 48.8857 4.22878 49.1411 4.24072 49.2953C4.25122 49.4346 4.26029 49.585 4.26793 49.7268C3.68372 49.9744 3.33386 50.0963 3.23172 50.13C3.25176 50.2027 3.26703 50.406 3.27278 50.4795C3.2785 50.5535 3.2971 50.8003 3.28852 50.8746C3.75246 50.6217 5.30652 49.9024 6.3203 49.4509L6.29071 49.0615C5.20247 48.7258 4.15671 48.3788 3.07136 48.0214C3.08996 48.072 3.10046 48.2152 3.10429 48.263C3.10762 48.3101 3.11526 48.4056 3.10476 48.4587C3.39257 48.5058 3.77728 48.6042 4.18917 48.7215ZM6.15897 51.5266C6.31408 51.499 6.37805 51.5315 6.43962 51.8775C6.48257 52.117 6.3833 52.2845 5.97282 52.358C5.62965 52.4191 5.45974 52.3615 5.39625 52.0067L5.33659 51.6731L6.15897 51.5266ZM5.08745 51.7176L5.15855 52.1152C5.24781 52.6153 4.85835 52.7643 4.52376 52.8239C4.19968 52.8822 3.97822 52.8908 3.87606 52.3181C3.82262 52.0186 3.87512 51.9343 4.03023 51.9065L5.08745 51.7176ZM6.5532 51.1563C6.52744 51.0106 6.50309 50.7945 6.50309 50.7945L6.48782 50.7884C6.2258 50.8703 5.90934 50.9448 5.55711 51.0073L4.40588 51.2131C4.05363 51.2761 3.71665 51.3185 3.45701 51.3296L3.44363 51.3366C3.44363 51.3366 3.49615 51.5476 3.52287 51.6976C3.57775 52.0049 3.58111 52.1061 3.64888 52.4864C3.80113 53.337 4.33189 53.5685 4.73615 53.4965C5.1872 53.4158 5.38814 53.0493 5.4392 52.6564C5.59576 52.853 5.88452 53.031 6.14273 52.9849C6.45775 52.9289 6.83291 52.6412 6.69115 51.846C6.66442 51.6966 6.60142 51.4255 6.5532 51.1563ZM5.63776 55.2123C5.6015 55.0939 5.56188 54.9637 5.53418 54.8649C5.49983 54.7437 5.44972 54.5595 5.41869 54.4263L6.53127 54.5321L6.53841 54.557C6.20384 54.8132 5.90028 55.0281 5.63776 55.2123ZM5.13135 54.4024C5.18051 54.5599 5.25402 54.8052 5.2965 54.955C5.33468 55.0888 5.37335 55.2343 5.40914 55.3722C4.88603 55.7311 4.56768 55.9202 4.47459 55.9741C4.50849 56.0408 4.56432 56.2376 4.58437 56.3082C4.60441 56.3794 4.6722 56.6175 4.6784 56.6924C5.08315 56.3516 6.46206 55.3374 7.36556 54.6926L7.25865 54.3164C6.12555 54.2047 5.03112 54.0736 3.8966 53.9394C3.92475 53.9857 3.9639 54.1236 3.97725 54.1695C3.99014 54.2158 4.0164 54.3074 4.01687 54.3613C4.30754 54.3493 4.70466 54.3699 5.13135 54.4024ZM7.01858 60.1099L8.10632 59.6808C8.43947 59.5495 8.74591 59.4425 9.01177 59.3752L9.02179 59.3618C9.02179 59.3618 8.93395 59.1772 8.87954 59.0398C8.8237 58.8984 8.76404 58.7076 8.76404 58.7076L8.74877 58.7084C8.52634 58.8335 8.2099 58.9677 7.87675 59.099L6.82908 59.5123C6.75368 59.5423 6.30789 59.7131 6.18999 59.7271C6.14559 59.7304 6.10742 59.7127 6.07879 59.6401L5.88929 59.1595C5.86066 59.0865 5.87641 59.0478 5.91125 59.0198C6.00672 58.9496 6.44917 58.7706 6.52458 58.7409L7.57272 58.3277C7.90587 58.1964 8.22851 58.0785 8.4767 58.0179L8.48817 58.0083C8.48817 58.0083 8.40177 57.8278 8.34594 57.6866C8.292 57.5491 8.23042 57.354 8.23042 57.354L8.21371 57.3512C7.97364 57.4833 7.67628 57.6146 7.34313 57.7459L6.29548 58.1591C6.22005 58.1888 5.77427 58.36 5.65639 58.3734C5.61199 58.3773 5.57429 58.3596 5.54517 58.2865L5.35902 57.814C5.33038 57.7416 5.34567 57.7025 5.38098 57.6747C5.47643 57.6045 5.91888 57.425 5.99431 57.3954L7.04243 56.9822C7.37511 56.8509 7.69824 56.7329 7.94596 56.6724L7.9579 56.6634C7.9579 56.6634 7.8715 56.4829 7.81565 56.3411C7.76124 56.2042 7.69968 56.0089 7.69968 56.0089L7.68344 56.006C7.44288 56.1384 7.14602 56.2695 6.81286 56.4008L5.7251 56.8294C5.39195 56.9605 5.0736 57.077 4.82112 57.1392L4.80918 57.1486C4.80918 57.1486 4.89747 57.3335 4.95333 57.4746L6.01578 60.169C6.06972 60.3065 6.12985 60.4974 6.12985 60.4974L6.14609 60.5003C6.38663 60.368 6.68543 60.2416 7.01858 60.1099ZM9.66136 61.4229C9.78115 61.3542 9.86039 61.3484 10.0165 61.6195C10.1444 61.8415 10.1778 62.063 9.68521 62.3459C9.26758 62.5861 8.98598 62.4986 8.85997 62.2797C8.80557 62.1856 8.7292 62.0239 8.73015 61.9584L9.66136 61.4229ZM8.87812 61.1622L7.86434 61.745C7.5541 61.9236 7.25149 62.0772 7.01095 62.1755L7.00043 62.1864C7.00043 62.1864 7.11689 62.3603 7.19279 62.4921C7.26628 62.6199 7.35315 62.8004 7.35315 62.8004H7.36986C7.58847 62.6347 7.86148 62.4581 8.17173 62.2797L8.51918 62.0796C8.53781 62.1788 8.59699 62.3105 8.67287 62.4425C9.06665 63.1274 9.66039 63.1163 10.0866 62.8714C10.237 62.7851 10.4413 62.5974 10.4813 62.2939C10.5062 62.1025 10.4274 61.8749 10.2737 61.6071C10.2174 61.5092 9.92624 61.0702 9.86133 60.9574C9.78784 60.8292 9.6962 60.6415 9.6962 60.6415L9.67949 60.6411C9.46089 60.8068 9.18836 60.9837 8.87812 61.1622ZM9.49573 64.4762L9.94153 64.1901C10.0542 64.3659 10.3234 64.8121 10.457 65.0823L10.4761 65.0856C10.5076 65.0551 10.5854 65.0002 10.6217 64.9767C10.6579 64.9539 10.7362 64.9086 10.7773 64.8923L10.7825 64.8738C10.6241 64.6709 10.4632 64.4647 10.1868 64.0331L10.4799 63.8452C10.5482 63.8012 10.9162 63.5707 11.0293 63.5344C11.3433 64.024 11.6512 64.6108 11.6512 64.6108L11.6722 64.6079C11.7018 64.5834 11.7958 64.5182 11.8321 64.4947C11.8641 64.4741 11.918 64.4433 11.9772 64.4122L11.9848 64.397C11.939 64.3439 11.8813 64.2624 11.8321 64.1854L11.1195 63.0739C11.0398 62.9498 10.9348 62.7592 10.9348 62.7592L10.9181 62.7598C10.7076 62.936 10.4441 63.1253 10.1425 63.3188L9.15828 63.9498C8.85663 64.143 8.56215 64.3115 8.32637 64.4212L8.31682 64.4328C8.31682 64.4328 8.44569 64.6073 8.52778 64.7353L9.26377 65.8832C9.31294 65.96 9.36257 66.0469 9.39217 66.1105L9.40886 66.1098C9.4585 66.0707 9.50861 66.036 9.54919 66.0102C9.58928 65.9843 9.74012 65.8927 9.77446 65.8756L9.78593 65.8579C9.78593 65.8579 9.31818 65.3224 9.00411 64.8326C9.08431 64.7454 9.42748 64.52 9.49573 64.4762ZM13.1165 65.7347C12.8726 65.4241 12.5514 65.2097 12.2001 65.1405C11.7572 65.0533 11.2522 65.2006 10.8393 65.5252C10.4455 65.8349 10.173 66.2918 10.1859 66.718C10.1959 67.0415 10.2909 67.2994 10.5186 67.5885C10.7577 67.8931 11.1309 68.1514 11.6827 68.1818L11.7457 67.9995C11.2741 67.9557 11.0632 67.8182 10.8135 67.5006C10.521 67.1283 10.7095 66.5276 11.3481 66.0255C12.1099 65.4268 12.6712 65.5931 12.8912 65.8732C13.1327 66.1806 13.1174 66.485 12.9198 66.867L13.0039 66.9666C13.2048 66.8283 13.3294 66.7561 13.5456 66.6517L13.5513 66.6359C13.5513 66.6359 13.4439 66.1514 13.1165 65.7347ZM15.5216 68.5264L14.1789 67.1185C14.0773 67.0115 13.9436 66.8511 13.9436 66.8511L13.9303 66.8577C13.768 67.0606 13.5284 67.3008 13.2697 67.548L12.423 68.3545C12.1643 68.6019 11.9204 68.8161 11.6994 68.9789L11.6951 68.9952C11.6951 68.9952 11.8493 69.1359 11.9509 69.243C12.0559 69.3531 12.1805 69.5043 12.1805 69.5043L12.1939 69.4973C12.3528 69.2977 12.5957 69.0542 12.8544 68.8075L13.7012 68.0005C13.7599 67.9446 14.0601 67.6645 14.1637 67.6072C14.2157 67.5996 14.2415 67.599 14.2863 67.6464L14.9636 68.3566C15.0085 68.4037 15.007 68.4296 14.997 68.4811C14.935 68.5817 14.641 68.8686 14.5818 68.9246L13.7355 69.7311C13.4764 69.9783 13.222 70.2094 13.0148 70.3588L13.0077 70.3716C13.0077 70.3716 13.1886 70.5411 13.2936 70.6508C13.3952 70.7579 13.4931 70.8809 13.4931 70.8809L13.5093 70.877C13.6821 70.6642 13.9078 70.4308 14.167 70.1841L15.0137 69.3769C15.2724 69.1298 15.5239 68.9026 15.7344 68.7499L15.7416 68.7369C15.7416 68.7369 15.6237 68.6334 15.5216 68.5264ZM14.8758 71.602C14.7674 71.6566 14.5942 71.6903 14.5178 71.6241C14.4066 71.5282 14.4443 71.2691 14.4868 71.1639L14.3837 71.0861C14.2811 71.1783 13.9751 71.3563 13.8768 71.3798L13.8687 71.3925C13.8792 71.487 14.0596 71.699 14.1637 71.7887C14.3221 71.9262 14.5192 72.0036 14.7727 71.982C14.9884 71.9638 15.1202 71.9048 15.386 71.7681L17.7529 70.5545C17.7038 70.5311 17.6317 70.4685 17.5959 70.4374C17.5596 70.4059 17.3988 70.2666 17.3687 70.2217C16.9783 70.4992 16.2604 70.9501 15.6309 71.2866C16.0046 70.2361 16.1664 69.9254 16.4399 69.4171C16.3745 69.3798 16.2008 69.229 16.1449 69.1808C16.0891 69.1326 15.8724 68.945 15.8261 68.8859C15.7082 69.2792 15.2338 70.6772 14.8758 71.602ZM17.5754 72.3929L17.8317 72.594C18.3266 72.9834 18.1348 73.3118 17.9577 73.537C17.7749 73.7695 17.521 74.0015 17.0021 73.5934C16.8146 73.4458 16.8294 73.3423 16.9267 73.2186L17.5754 72.3929ZM17.4503 71.5477L16.7277 72.467C16.5062 72.7486 16.29 73.0097 16.1034 73.191L16.0981 73.2048C16.0981 73.2048 16.2776 73.3275 16.3941 73.4187C16.4929 73.4965 16.9038 73.8377 17.027 73.9346C17.4398 74.2591 18.0006 74.5786 18.5199 73.9179C18.7824 73.5843 18.9667 73.1462 18.2288 72.5662L17.741 72.1824L17.9386 71.9315C17.9887 71.8675 18.2393 71.5487 18.3338 71.4771C18.7915 71.8369 19.3561 72.4746 19.3561 72.4746L19.3748 72.465C19.412 72.4034 19.5862 72.182 19.6755 72.0822L19.6774 72.0655C19.6168 72.0303 19.5356 71.9725 19.4635 71.9161L18.2961 70.9984C18.1801 70.9073 18.0216 70.7644 18.0216 70.7644L18.0059 70.7702C17.8651 71.0054 17.6713 71.2662 17.4503 71.5477ZM20.567 73.0861L21.1485 73.4584C21.1203 73.5423 21.0205 73.7222 20.8453 73.9957L20.2401 74.9397C20.0105 75.2974 19.8272 75.5598 19.6884 75.7201L19.6841 75.7345C19.8062 75.8014 19.9112 75.863 19.9952 75.9169C20.0793 75.9708 20.1718 76.0356 20.2764 76.114L20.2917 76.1068C20.4 75.8815 20.5575 75.6028 20.7665 75.2772L21.3975 74.2927C21.6266 73.9352 21.8075 73.6769 21.9493 73.5127L21.9532 73.4985C21.8276 73.4287 21.7264 73.3695 21.6424 73.3156L20.5308 72.6035C20.4492 72.551 20.3814 72.5008 20.3155 72.4483L20.2979 72.4598C20.2067 72.6508 20.126 72.792 20.0153 72.9649C19.6807 73.487 19.3309 73.9599 19.0774 74.1947C18.8139 74.445 18.5094 74.5901 18.3109 74.5536L18.1596 74.7175C18.1863 74.78 18.5018 75.0443 18.5677 75.0865C18.6588 75.1451 18.7276 75.1665 18.929 75.029C19.297 74.7776 19.7284 74.1527 20.3852 73.1281C20.4239 73.068 20.505 73.0459 20.567 73.0861ZM21.9937 74.5786L21.4605 75.6195C21.2973 75.9383 21.1273 76.232 20.9789 76.4452L20.9766 76.46C20.9766 76.46 21.1685 76.5425 21.3035 76.6119C21.4352 76.6792 21.6142 76.787 21.6142 76.787L21.6286 76.778C21.6819 76.6267 21.7503 76.4639 21.8291 76.291L23.6393 75.3289C23.6265 75.3532 23.6142 75.3775 23.6016 75.4024L23.0686 76.4429C22.9054 76.7617 22.7354 77.0552 22.587 77.269L22.5842 77.2834C22.5842 77.2834 22.7764 77.3659 22.9116 77.4351C23.0427 77.5024 23.2217 77.6102 23.2217 77.6102L23.2361 77.6012C23.3292 77.3435 23.4619 77.0465 23.6251 76.7283L24.1581 75.6872C24.3215 75.3684 24.4932 75.0706 24.6397 74.8615L24.6422 74.8467C24.6422 74.8467 24.4504 74.7642 24.3147 74.695C24.1834 74.6277 24.0046 74.5199 24.0046 74.5199L23.9902 74.529C23.9367 74.6784 23.8694 74.8416 23.7908 75.0138L21.9808 75.9755C21.9927 75.9523 22.005 75.9278 22.017 75.9045L22.5502 74.864C22.7134 74.5452 22.8857 74.2472 23.0318 74.0377L23.0347 74.0229C23.0347 74.0229 22.8422 73.9408 22.7072 73.8716C22.5755 73.8043 22.3965 73.6965 22.3965 73.6965L22.3823 73.7055C22.289 73.9632 22.1569 74.2602 21.9937 74.5786ZM24.6693 75.9368L24.2402 77.0247C24.1091 77.3579 23.9688 77.6666 23.8418 77.8938L23.8408 77.9086C23.8408 77.9086 24.0398 77.9716 24.1812 78.0274C24.3187 78.0819 24.5072 78.1716 24.5072 78.1716L24.5205 78.1611C24.5878 77.8952 24.6909 77.587 24.822 77.2542L25.0173 76.7588C25.4067 76.9588 25.437 77.2542 25.4464 77.6594C25.453 77.9391 25.4602 78.1572 25.5113 78.5725C25.6039 78.5989 25.6878 78.6217 25.7891 78.6612C25.8817 78.6981 26.1653 78.8203 26.2145 78.8497L26.2334 78.8364C26.0659 78.3143 26.1458 77.8992 26.0503 77.5024C25.9747 77.1955 25.9066 76.9788 25.6487 76.8156C25.6259 76.8012 25.614 76.7856 25.6168 76.7773C26.0301 76.5349 26.9099 76.1737 27.3999 75.9722C27.3303 75.9599 27.0879 75.8644 27.0272 75.8405C26.9747 75.8199 26.7403 75.7273 26.6932 75.6936C26.2215 75.9879 25.7634 76.2606 25.3289 76.4639C25.2336 76.5081 25.1639 76.5355 25.1042 76.5384L25.2511 76.1665C25.3824 75.8333 25.5246 75.5197 25.6498 75.2974L25.6512 75.2826C25.6512 75.2826 25.4516 75.219 25.3104 75.1636C25.1729 75.1093 24.9844 75.0196 24.9844 75.0196L24.971 75.0297C24.9037 75.2954 24.8006 75.6039 24.6693 75.9368ZM27.2754 76.9774L26.9562 78.1025C26.8582 78.4466 26.749 78.7676 26.6448 79.0064L26.6454 79.0212C26.6454 79.0212 26.8496 79.0646 26.9961 79.1056C27.1379 79.1463 27.3347 79.2169 27.3347 79.2169L27.347 79.2054C27.3705 79.0469 27.4048 78.8736 27.4487 78.6886L29.0356 77.3912C29.028 77.418 29.0208 77.4441 29.0132 77.4709L28.694 78.596C28.596 78.9401 28.4867 79.2613 28.3828 79.4999L28.3832 79.5147C28.3832 79.5147 28.5876 79.5577 28.7335 79.5993C28.8757 79.6398 29.0724 79.7104 29.0724 79.7104L29.0844 79.6989C29.1253 79.4278 29.1976 79.1109 29.2953 78.7664L29.6147 77.6419C29.7125 77.2972 29.8232 76.9712 29.9259 76.7378L29.9253 76.7226C29.9253 76.7226 29.7211 76.6796 29.5746 76.638C29.4328 76.5975 29.2361 76.5269 29.2361 76.5269L29.2237 76.5384C29.2003 76.6954 29.1665 76.8685 29.1231 77.0529L27.5359 78.3497C27.5431 78.3243 27.5503 78.298 27.5575 78.2733L27.8767 77.1482C27.9747 76.8037 28.0854 76.4781 28.1879 76.2443L28.1875 76.2291C28.1875 76.2291 27.9831 76.1861 27.8372 76.1445C27.695 76.104 27.4983 76.0334 27.4983 76.0334L27.4859 76.0447C27.4454 76.3159 27.3734 76.6329 27.2754 76.9774ZM35.8487 78.6732C35.8571 78.3157 35.8748 77.972 35.916 77.7201L35.912 77.7057C35.912 77.7057 35.712 77.7154 35.5599 77.7115C35.4124 77.7078 35.2127 77.688 35.2127 77.688L35.2037 77.7024C35.2319 77.9749 35.2325 78.3001 35.2232 78.6575L35.2206 78.7672C35.2086 79.2397 35.3813 79.6211 35.8762 79.6341C36.1102 79.6398 36.4916 79.5834 36.8032 79.3877L36.7912 79.867C36.7822 80.2249 36.7564 80.5632 36.7149 80.8201L36.7188 80.8345C36.7188 80.8345 36.9277 80.8254 37.0796 80.8291C37.2269 80.8331 37.4352 80.8526 37.4352 80.8526L37.4442 80.8382C37.4164 80.5657 37.4074 80.2408 37.416 79.8827L37.4457 78.7137C37.4547 78.3558 37.4809 78.0128 37.522 77.7606L37.5181 77.7462C37.5181 77.7462 37.3096 77.7553 37.1573 77.7516C37.0098 77.7477 36.8017 77.7281 36.8017 77.7281L36.7927 77.7425C36.8204 78.0154 36.8299 78.3402 36.8209 78.6981L36.8097 79.1323C36.5525 79.2871 36.3086 79.2961 36.1932 79.2932C35.8806 79.2856 35.8361 79.1554 35.8462 78.7639L35.8487 78.6732ZM38.8894 80.421C38.8459 80.5342 38.741 80.6764 38.6397 80.6789C38.4932 80.6826 38.3463 80.4659 38.3067 80.3595L38.1783 80.3714C38.1643 80.5085 38.0585 80.8464 38.0011 80.93L38.0044 80.9446C38.0756 81.0072 38.3516 81.0426 38.4889 81.0393C38.699 81.0339 38.8966 80.958 39.0694 80.7715C39.2168 80.6124 39.2742 80.4807 39.3786 80.2L40.3104 77.7092C40.2584 77.7248 40.1629 77.7273 40.1151 77.7281C40.0674 77.7296 39.855 77.7349 39.8025 77.722C39.7004 78.1902 39.4736 79.0064 39.2349 79.6793C38.8035 78.6514 38.7138 78.3128 38.5739 77.753C38.5004 77.7693 38.2703 77.7751 38.1964 77.7769C38.123 77.7788 37.8361 77.786 37.762 77.7736C37.94 78.1438 38.5311 79.4966 38.8894 80.421ZM41.231 78.0809C41.211 77.9249 41.2468 77.8623 41.5956 77.8179C41.8373 77.7874 41.9994 77.8952 42.0519 78.3085C42.096 78.6542 42.0301 78.8218 41.672 78.867L41.3359 78.9094L41.231 78.0809ZM41.368 79.1605L41.7689 79.1095C42.2729 79.0455 42.4018 79.4422 42.4448 79.7791C42.4864 80.1062 42.4839 80.3276 41.9064 80.4011C41.6053 80.4391 41.5236 80.3823 41.5037 80.2259L41.368 79.1605ZM40.8807 77.6684C40.7342 77.6872 40.517 77.7006 40.517 77.7006L40.5103 77.7158C40.579 77.9811 40.6372 78.3009 40.6825 78.6561L40.8301 79.8158C40.8749 80.171 40.9002 80.5093 40.8984 80.7695L40.9046 80.7835C40.9046 80.7835 41.1184 80.7419 41.2686 80.7223C41.579 80.683 41.6802 80.6845 42.0634 80.6359C42.9206 80.527 43.1785 80.0082 43.1268 79.6011C43.0692 79.1467 42.7129 78.9271 42.3232 78.8565C42.5279 78.71 42.7197 78.4307 42.6868 78.1702C42.6467 77.8528 42.3779 77.4637 41.5771 77.5653C41.4263 77.5851 41.1524 77.6341 40.8807 77.6684ZM44.9224 78.8312C44.8012 78.8555 44.6676 78.8819 44.5664 78.8996C44.4423 78.922 44.2538 78.9529 44.1182 78.9712L44.3349 77.8743L44.3606 77.8699C44.5816 78.2278 44.7654 78.5515 44.9224 78.8312ZM44.0657 79.2541C44.2274 79.2212 44.4789 79.1724 44.6322 79.1449C44.7693 79.1204 44.9177 79.0965 45.0585 79.0747C45.3639 79.6308 45.5201 79.9666 45.5639 80.0646C45.6341 80.0374 45.8349 80.0016 45.9076 79.9886C45.9807 79.9757 46.2239 79.9323 46.2994 79.9333C46.0006 79.497 45.129 78.0237 44.5773 77.0599L44.1927 77.1286C43.9687 78.2451 43.7288 79.3208 43.482 80.4363C43.531 80.413 43.672 80.3881 43.7191 80.3795C43.766 80.371 43.8599 80.3544 43.9138 80.3591C43.9311 80.0683 43.9912 79.6756 44.0657 79.2541ZM49.8524 77.7349L49.4776 76.6271C49.3632 76.2881 49.2716 75.9766 49.2171 75.7078L49.2043 75.6969C49.2043 75.6969 49.0156 75.7755 48.8759 75.8232C48.7318 75.872 48.5379 75.922 48.5379 75.922L48.5383 75.9375C48.6526 76.1655 48.7709 76.4886 48.8853 76.8275L49.2467 77.8948C49.2724 77.9716 49.4214 78.425 49.4291 78.5435C49.4305 78.5884 49.4109 78.625 49.3369 78.6499L48.8477 78.8154C48.7738 78.8407 48.7355 78.8232 48.7094 78.7868C48.6439 78.688 48.4869 78.2375 48.4612 78.1601L48.0998 77.0934C47.9852 76.7545 47.8831 76.426 47.8349 76.1752L47.8263 76.1632C47.8263 76.1632 47.6415 76.2404 47.4978 76.2892C47.3581 76.3369 47.1599 76.3884 47.1599 76.3884L47.1562 76.4046C47.2764 76.6514 47.3929 76.9545 47.5075 77.2939L47.8683 78.3606C47.8946 78.4375 48.0434 78.8913 48.051 79.0092C48.0525 79.0541 48.0329 79.0914 47.959 79.1163L47.4779 79.2788C47.404 79.3042 47.3657 79.2865 47.34 79.2502C47.2741 79.1515 47.1171 78.701 47.0912 78.6236L46.73 77.5569C46.6153 77.2179 46.5133 76.8895 46.4651 76.6386L46.4565 76.6267C46.4565 76.6267 46.2717 76.7039 46.128 76.7526C45.9883 76.8004 45.7901 76.8518 45.7901 76.8518L45.7864 76.8681C45.9066 77.1148 46.023 77.418 46.1377 77.7574L46.5129 78.8652C46.6273 79.2039 46.7275 79.5277 46.7771 79.7828L46.7862 79.7954C46.7862 79.7954 46.9749 79.7162 47.1189 79.6674L49.8625 78.739C50.0022 78.6919 50.1961 78.6413 50.1961 78.6413L50.1998 78.625C50.0796 78.3787 49.9678 78.0737 49.8524 77.7349ZM50.9425 74.9259C50.5826 75.0887 50.2977 75.3493 50.1465 75.6734C49.9559 76.083 49.9783 76.6084 50.1946 77.0873C50.4008 77.5439 50.7797 77.9173 51.1965 78.0064C51.513 78.0747 51.7859 78.0436 52.1213 77.8919C52.4741 77.7325 52.8145 77.4322 52.9758 76.9035L52.8141 76.7985C52.6585 77.2461 52.4741 77.4184 52.1067 77.5845C51.6752 77.7798 51.1368 77.4528 50.8022 76.7129C50.4031 75.83 50.6986 75.3246 51.0232 75.178C51.3792 75.0167 51.6713 75.1046 51.995 75.388L52.1119 75.3297C52.0254 75.1017 51.9849 74.9636 51.9353 74.7288L51.9215 74.7193C51.9215 74.7193 51.4255 74.7078 50.9425 74.9259ZM52.6947 75.2447L53.278 76.2585C53.456 76.5689 53.6101 76.8714 53.7085 77.112L53.7194 77.1225C53.7194 77.1225 53.8927 77.006 54.0244 76.9302C54.1528 76.8566 54.3403 76.765 54.3403 76.765L54.3409 76.7483C54.1752 76.5298 53.9982 76.2573 53.8196 75.9469L53.5543 75.4853C53.9538 75.3054 54.2034 75.4668 54.5261 75.7117C54.7484 75.8807 54.9237 76.0113 55.2802 76.2305C55.358 76.1745 55.4286 76.1231 55.5226 76.0685C55.6095 76.019 55.8815 75.8734 55.935 75.8539L55.9369 75.8304C55.4238 75.6358 55.1495 75.3145 54.7795 75.1418C54.4926 75.0091 54.2808 74.9274 53.9925 75.0272C53.9672 75.0363 53.947 75.0358 53.9429 75.0282C54.0106 74.5543 54.2773 73.6411 54.4253 73.1318C54.3724 73.1791 54.1466 73.309 54.0898 73.3415C54.0411 73.3695 53.8225 73.495 53.7667 73.5109C53.7027 74.063 53.6297 74.5913 53.5179 75.0577C53.4932 75.1599 53.4712 75.2316 53.4364 75.2801L53.2368 74.9331C53.0584 74.623 52.9024 74.3159 52.8065 74.0797L52.7953 74.0692C52.7953 74.0692 52.6216 74.1857 52.4899 74.2616C52.3619 74.3351 52.174 74.4263 52.174 74.4263V74.4429C52.3395 74.6615 52.5161 74.9346 52.6947 75.2447ZM56.8179 73.7385C56.7148 73.8072 56.6018 73.8825 56.5154 73.9381C56.409 74.0062 56.2472 74.1071 56.1283 74.1756L55.9083 73.0799L55.9303 73.0659C56.2719 73.3118 56.5656 73.5405 56.8179 73.7385ZM56.1884 74.4573C56.3255 74.3651 56.5389 74.2233 56.67 74.1394C56.7871 74.0645 56.9149 73.9852 57.0367 73.9107C57.5321 74.3079 57.8052 74.558 57.8829 74.6314C57.9373 74.58 58.1091 74.4697 58.1717 74.4296C58.2336 74.39 58.4423 74.2563 58.5119 74.2287C58.069 73.9399 56.6988 72.9132 55.8204 72.2345L55.4915 72.4454C55.7122 73.5629 55.9025 74.6483 56.1026 75.7732C56.1388 75.7327 56.2596 75.6553 56.2997 75.6296C56.3399 75.6039 56.4205 75.5522 56.472 75.5366C56.3765 75.261 56.281 74.8753 56.1884 74.4573ZM58.0385 70.9149C58.2503 70.7482 58.333 70.8046 58.4184 70.9134L59.0122 71.6685L58.8957 71.7597C58.5644 72.0198 58.3925 72.1248 58.0237 71.6551C57.6757 71.2123 57.8303 71.0785 58.0385 70.9149ZM58.5115 72.3057C58.5444 72.7916 58.6981 73.7041 58.6942 74.054L58.7095 74.0597C58.7691 73.9947 58.95 73.8531 59.0184 73.7992C59.0832 73.7479 59.2198 73.6407 59.2937 73.601C59.2307 73.444 59.1659 73.0521 59.1243 72.6479C59.1034 72.4302 59.0552 72.183 59.0498 71.9768C59.0933 71.9435 59.1367 71.9105 59.1772 71.8784L59.4598 72.2384C59.6808 72.5199 59.8747 72.7801 60.0155 73.0159L60.0311 73.0217C60.0311 73.0217 60.1791 72.8871 60.2956 72.7959C60.4149 72.7019 60.581 72.5897 60.581 72.5897L60.5752 72.5759C60.3886 72.3944 60.1657 72.1386 59.9443 71.8574L59.2221 70.9377C59.0007 70.6566 58.814 70.3903 58.6732 70.1551L58.6576 70.1493C58.6576 70.1493 58.4956 70.2948 58.3798 70.386C58.2771 70.4662 57.9116 70.7109 57.8261 70.7782C57.6008 70.9554 57.3841 71.1501 57.3154 71.386C57.252 71.5936 57.2997 71.8231 57.4915 72.067C57.8002 72.4598 58.167 72.453 58.5115 72.3057ZM60.509 68.9211C60.4135 68.8209 60.3892 68.7451 60.6158 68.5292C60.801 68.3527 61.0076 68.2673 61.4001 68.6786C61.7323 69.0277 61.7141 69.3222 61.5314 69.4963C61.453 69.5712 61.3141 69.6834 61.2503 69.6982L60.509 68.9211ZM60.4417 69.7441L61.2488 70.5903C61.4956 70.8494 61.717 71.1067 61.8697 71.3172L61.8825 71.3244C61.8825 71.3244 62.0235 71.1701 62.1336 71.0657C62.2406 70.9634 62.3947 70.8361 62.3947 70.8361L62.3914 70.8198C62.1784 70.6465 61.9418 70.4236 61.695 70.1645L61.4182 69.8748C61.5104 69.8328 61.6238 69.7445 61.7341 69.6395C62.306 69.094 62.1542 68.5198 61.8152 68.1641C61.6954 68.0386 61.4649 67.8845 61.1605 67.9178C60.9685 67.9388 60.7662 68.0693 60.5423 68.2825C60.4608 68.3603 60.1033 68.7474 60.0093 68.8371C59.9023 68.9394 59.7415 69.0726 59.7415 69.0726L59.7452 69.0892C59.958 69.2619 60.1943 69.4848 60.4417 69.7441ZM63.4342 68.3335L63.0337 67.9865C63.1704 67.8291 63.5221 67.4445 63.7436 67.2397L63.7411 67.2205C63.7034 67.1991 63.6281 67.1399 63.5956 67.1117C63.5631 67.0835 63.4978 67.0211 63.4711 66.9861L63.4515 66.9868C63.3015 67.1963 63.1494 67.4086 62.8137 67.7958L62.5503 67.5675C62.4892 67.5146 62.1638 67.2267 62.0969 67.129C62.4779 66.6894 62.9531 66.2278 62.9531 66.2278L62.9446 66.2086C62.9125 66.1872 62.8234 66.1152 62.7909 66.087C62.7623 66.0621 62.7168 66.0193 62.6705 65.9709L62.6538 65.9687C62.6158 66.0273 62.5536 66.1055 62.4939 66.1749L61.6296 67.1724C61.5332 67.2841 61.3799 67.4387 61.3799 67.4387L61.3853 67.455C61.6139 67.6066 61.8701 67.8063 62.1408 68.0405L63.0247 68.806C63.2953 69.0404 63.5402 69.2753 63.7121 69.4706L63.7259 69.4763C63.7259 69.4763 63.8572 69.303 63.957 69.188L64.8495 68.1576C64.9092 68.0888 64.9784 68.0162 65.0308 67.9699L65.0255 67.9542C64.974 67.9178 64.9263 67.8793 64.8901 67.8482C64.8543 67.8168 64.7234 67.6978 64.6976 67.6696L64.6771 67.6634C64.6771 67.6634 64.2963 68.264 63.915 68.704C63.809 68.6519 63.4953 68.3866 63.4342 68.3335ZM63.7102 64.5515C63.4809 64.8738 63.3665 65.2426 63.399 65.5986C63.4404 66.0483 63.725 66.4912 64.1531 66.7954C64.5612 67.086 65.0767 67.2177 65.4813 67.0849C65.7892 66.9843 66.0098 66.8201 66.223 66.5198C66.4474 66.2043 66.5896 65.7734 66.4628 65.2354L66.27 65.2263C66.3615 65.6912 66.2889 65.9329 66.0551 66.2617C65.7806 66.6478 65.151 66.6369 64.4892 66.1662C63.6997 65.6044 63.7001 65.0189 63.9063 64.7287C64.1331 64.4103 64.4299 64.3387 64.8518 64.4208L64.9234 64.3115C64.7339 64.1582 64.6299 64.059 64.4682 63.8814L64.4513 63.88C64.4513 63.88 64.0175 64.1202 63.7102 64.5515ZM65.7118 61.4787L64.7421 63.1654C64.6686 63.2935 64.5521 63.4671 64.5521 63.4671L64.5626 63.4776C64.8032 63.5764 65.1014 63.7378 65.4118 63.9162L66.4255 64.499C66.7357 64.6775 67.0106 64.8503 67.2292 65.016H67.2459C67.2459 65.016 67.337 64.8279 67.4111 64.6999C67.4865 64.5682 67.5964 64.406 67.5964 64.406L67.5863 64.3949C67.3496 64.299 67.0475 64.1354 66.7371 63.9567L65.7234 63.3741C65.6528 63.3334 65.299 63.1249 65.215 63.0418C65.193 62.9942 65.185 62.9693 65.2175 62.9129L65.7067 62.0619C65.7392 62.0055 65.7645 62 65.817 61.9951C65.9314 62.0257 66.2895 62.2266 66.3597 62.2671L67.3735 62.85C67.6836 63.0286 67.9771 63.2074 68.179 63.3636L68.1938 63.3669C68.1938 63.3669 68.3051 63.1455 68.3805 63.0138C68.4539 62.8853 68.5447 62.7569 68.5447 62.7569L68.5365 62.7425C68.2831 62.6372 67.9954 62.4863 67.6851 62.3079L66.6713 61.725C66.3611 61.5464 66.0714 61.3704 65.8656 61.2114L65.8507 61.2081C65.8507 61.2081 65.7855 61.3509 65.7118 61.4787ZM68.8884 61.2C68.967 61.292 69.0415 61.4524 68.9952 61.5427C68.9285 61.673 68.6678 61.6983 68.5556 61.682L68.5046 61.801C68.6186 61.8788 68.8645 62.1331 68.9102 62.2233L68.925 62.2276C69.0143 62.1951 69.1771 61.9699 69.2397 61.8471C69.3356 61.6606 69.3632 61.4505 69.2821 61.2095C69.2129 61.0043 69.1246 60.8907 68.9285 60.665L67.1858 58.6551C67.1749 58.708 67.1314 58.793 67.1098 58.8354C67.088 58.8784 66.9911 59.0673 66.9543 59.1075C67.3171 59.4207 67.9256 60.0105 68.4025 60.5417C67.2928 60.4291 66.9528 60.3456 66.3945 60.2011C66.3735 60.2735 66.2685 60.4783 66.2346 60.5442C66.2012 60.6096 66.0703 60.865 66.024 60.9241C66.4346 60.9446 67.9051 61.0724 68.8884 61.2ZM68.8783 58.4561L68.9977 58.153C69.2286 57.5672 69.5986 57.657 69.8649 57.7619C70.1403 57.8704 70.4348 58.0474 70.1927 58.6613C70.1049 58.8838 70.0013 58.899 69.8548 58.8412L68.8783 58.4561ZM68.1041 58.8183L69.1919 59.2468C69.5251 59.3787 69.8371 59.5108 70.0643 59.6378L70.0791 59.6388C70.0791 59.6388 70.1456 59.4316 70.1995 59.2941C70.2458 59.1772 70.4547 58.6856 70.5126 58.5401C70.705 58.0513 70.8505 57.4222 70.0691 57.1143C69.6739 56.9583 69.2014 56.9076 68.8573 57.7802L68.6297 58.3577L68.3319 58.2402C68.2564 58.2106 67.8789 58.0618 67.7838 57.9916C67.9973 57.4503 68.4463 56.7268 68.4463 56.7268L68.4321 56.7115C68.3623 56.6934 68.1004 56.5903 67.9791 56.5329L67.9625 56.5358C67.9462 56.6037 67.9137 56.6986 67.8804 56.7836L67.3356 58.1649C67.2813 58.3024 67.1901 58.4952 67.1901 58.4952L67.2002 58.5086C67.4661 58.5759 67.7709 58.687 68.1041 58.8183ZM68.7604 55.409L68.9489 54.7445C69.0378 54.7469 69.2386 54.7908 69.5508 54.8791L70.6301 55.1855C71.0386 55.3016 71.3426 55.4018 71.5364 55.4882H71.5512C71.5798 55.3516 71.6084 55.2333 71.636 55.1374C71.6634 55.0414 71.6986 54.934 71.7434 54.8114L71.7321 54.799C71.4848 54.7603 71.1726 54.6897 70.8009 54.5842L69.6758 54.265C69.2673 54.1489 68.9676 54.0501 68.7694 53.9622H68.7542C68.7241 54.103 68.697 54.2172 68.6698 54.3131L68.3088 55.5831C68.2827 55.6763 68.2539 55.7556 68.223 55.8338L68.2387 55.8476C68.4482 55.8795 68.6066 55.9159 68.8038 55.9717C69.401 56.141 69.955 56.3392 70.2524 56.514C70.5683 56.6942 70.7955 56.9435 70.818 57.1439L71.0184 57.2417C71.0705 57.1978 71.2329 56.8194 71.2538 56.7445C71.2835 56.6399 71.2843 56.5679 71.0944 56.4146C70.7474 56.1355 70.0242 55.9029 68.8534 55.5708C68.7842 55.5512 68.7404 55.4796 68.7604 55.409ZM69.8649 53.6539L71.0161 53.8597C71.3683 53.9227 71.6992 53.9991 71.9468 54.0787L71.9616 54.0769C71.9616 54.0769 71.984 53.8692 72.0108 53.7194C72.0365 53.5743 72.0871 53.3714 72.0871 53.3714L72.0748 53.3605C71.9143 53.3533 71.7391 53.3356 71.5502 53.3109L70.1012 51.8612C70.1283 51.8659 70.1551 51.8709 70.1822 51.8756L71.3335 52.0812C71.6862 52.1442 72.0165 52.2205 72.2641 52.3004L72.2789 52.2985C72.2789 52.2985 72.3014 52.0909 72.3281 51.9415C72.3545 51.7958 72.4051 51.5935 72.4051 51.5935L72.3925 51.5819C72.1186 51.5686 71.7959 51.5286 71.4438 51.4657L70.2925 51.2599C69.9398 51.1973 69.6048 51.1195 69.3617 51.0407L69.3469 51.0427C69.3469 51.0427 69.3245 51.2504 69.2979 51.4002C69.2716 51.5453 69.2209 51.748 69.2209 51.748L69.2335 51.7591C69.3924 51.7667 69.5679 51.7834 69.7556 51.8083L71.2042 53.2578C71.1783 53.2534 71.1516 53.2487 71.1258 53.244L69.9746 53.0382C69.6225 52.9752 69.2874 52.8978 69.0444 52.8192L69.0295 52.8211C69.0295 52.8211 69.0067 53.0287 68.98 53.1785C68.9542 53.3236 68.9036 53.5265 68.9036 53.5265L68.9159 53.5375C69.1899 53.5508 69.5126 53.591 69.8649 53.6539ZM70.4189 50.5587L71.5792 50.7062C71.9344 50.7511 72.2684 50.8112 72.5195 50.8781L72.5343 50.8756C72.5343 50.8756 72.5463 50.6669 72.5658 50.5163C72.5839 50.3698 72.6245 50.165 72.6245 50.165L72.6117 50.1545C72.3372 50.1545 72.0133 50.131 71.658 50.0858L71.1302 50.0189C71.2275 49.5916 71.5068 49.49 71.8968 49.3807C72.1664 49.3054 72.3759 49.2446 72.7659 49.093C72.7683 48.9971 72.7696 48.9096 72.7836 48.8018C72.7959 48.7026 72.8447 48.398 72.8614 48.343L72.8437 48.3278C72.3788 48.619 71.9569 48.6443 71.5961 48.8347C71.3172 48.9831 71.124 49.1029 71.0295 49.3932C71.0213 49.4183 71.0089 49.4342 70.9999 49.4332C70.6634 49.0924 70.0964 48.3288 69.7799 47.9034C69.7853 47.9742 69.7527 48.2329 69.7441 48.2973C69.7375 48.3531 69.7054 48.6032 69.684 48.6571C70.0859 49.0419 70.463 49.419 70.7669 49.7892C70.8338 49.8709 70.8772 49.932 70.8949 49.9888L70.4981 49.9382C70.1427 49.8933 69.8042 49.8328 69.5574 49.7664L69.5426 49.7688C69.5426 49.7688 69.5307 49.9773 69.5117 50.1282C69.493 50.2747 69.4525 50.4795 69.4525 50.4795L69.4659 50.49C69.7398 50.49 70.0639 50.5134 70.4189 50.5587ZM71.5253 46.4005C71.5245 46.5242 71.5234 46.6602 71.521 46.7633C71.5177 46.8893 71.5105 47.0796 71.5006 47.2167L70.4702 46.7843L70.4706 46.7586C70.8657 46.6135 71.2199 46.4984 71.5253 46.4005ZM71.7677 47.3245C71.7677 47.1595 71.7702 46.9037 71.7745 46.7481C71.7778 46.6092 71.784 46.4583 71.7908 46.3161C72.3969 46.1284 72.7572 46.043 72.8622 46.0195C72.8498 45.9452 72.8552 45.7413 72.857 45.6674C72.8589 45.5939 72.8651 45.3462 72.8809 45.2727C72.3936 45.4779 70.7756 46.0364 69.7212 46.3834L69.7112 46.7738C70.7597 47.2171 71.7655 47.6686 72.8089 48.1335C72.7959 48.081 72.7992 47.9378 72.8007 47.8901C72.8017 47.8423 72.8039 47.747 72.8198 47.695C72.5387 47.6201 72.1653 47.4826 71.7677 47.3245Z" fill="url(#paint12_linear_416_3042)"/>
</g>
<defs>
<linearGradient id="paint0_linear_416_3042" x1="1.62228e-08" y1="46.829" x2="243.306" y2="47.4791" gradientUnits="userSpaceOnUse">
<stop stop-color="#9566FF"/>
<stop offset="1" stop-color="#48A6FE"/>
</linearGradient>
<linearGradient id="paint1_linear_416_3042" x1="83.9949" y1="47.0293" x2="238.161" y2="47.5726" gradientUnits="userSpaceOnUse">
<stop stop-color="#9566FF"/>
<stop offset="1" stop-color="#48A6FE"/>
</linearGradient>
<linearGradient id="paint2_linear_416_3042" x1="0.202637" y1="54.5395" x2="74.4011" y2="54.6317" gradientUnits="userSpaceOnUse">
<stop stop-color="#9566FF"/>
<stop offset="1" stop-color="#48A6FE"/>
</linearGradient>
<linearGradient id="paint3_linear_416_3042" x1="14.1394" y1="52.689" x2="15.6797" y2="52.6902" gradientUnits="userSpaceOnUse">
<stop stop-color="#9566FF"/>
<stop offset="1" stop-color="#48A6FE"/>
</linearGradient>
<linearGradient id="paint4_linear_416_3042" x1="12.5117" y1="51.2098" x2="16.1149" y2="51.2135" gradientUnits="userSpaceOnUse">
<stop stop-color="#9566FF"/>
<stop offset="1" stop-color="#48A6FE"/>
</linearGradient>
<linearGradient id="paint5_linear_416_3042" x1="60.1836" y1="52.689" x2="61.7239" y2="52.6902" gradientUnits="userSpaceOnUse">
<stop stop-color="#9566FF"/>
<stop offset="1" stop-color="#48A6FE"/>
</linearGradient>
<linearGradient id="paint6_linear_416_3042" x1="59.7124" y1="51.2098" x2="63.3156" y2="51.2135" gradientUnits="userSpaceOnUse">
<stop stop-color="#9566FF"/>
<stop offset="1" stop-color="#48A6FE"/>
</linearGradient>
<linearGradient id="paint7_linear_416_3042" x1="15.4194" y1="45.4287" x2="59.7028" y2="45.4665" gradientUnits="userSpaceOnUse">
<stop stop-color="#9566FF"/>
<stop offset="1" stop-color="#48A6FE"/>
</linearGradient>
<linearGradient id="paint8_linear_416_3042" x1="44.8882" y1="13.7831" x2="54.179" y2="13.7925" gradientUnits="userSpaceOnUse">
<stop stop-color="#9566FF"/>
<stop offset="1" stop-color="#48A6FE"/>
</linearGradient>
<linearGradient id="paint9_linear_416_3042" x1="33.2188" y1="13.763" x2="42.5099" y2="13.7724" gradientUnits="userSpaceOnUse">
<stop stop-color="#9566FF"/>
<stop offset="1" stop-color="#48A6FE"/>
</linearGradient>
<linearGradient id="paint10_linear_416_3042" x1="21.5503" y1="13.7831" x2="30.8411" y2="13.7925" gradientUnits="userSpaceOnUse">
<stop stop-color="#9566FF"/>
<stop offset="1" stop-color="#48A6FE"/>
</linearGradient>
<linearGradient id="paint11_linear_416_3042" x1="31.2583" y1="78.9246" x2="33.5675" y2="78.9269" gradientUnits="userSpaceOnUse">
<stop stop-color="#9566FF"/>
<stop offset="1" stop-color="#48A6FE"/>
</linearGradient>
<linearGradient id="paint12_linear_416_3042" x1="3.05273" y1="63.1069" x2="71.6911" y2="63.242" gradientUnits="userSpaceOnUse">
<stop stop-color="#9566FF"/>
<stop offset="1" stop-color="#48A6FE"/>
</linearGradient>
</defs>
</svg>
