<svg width="23" height="25" viewBox="0 0 23 25" fill="none" xmlns="http://www.w3.org/2000/svg">
<path d="M21.4994 17.9712V21.2831C21.5005 21.5906 21.4431 21.8949 21.331 22.1766C21.2188 22.4583 21.0542 22.7112 20.8478 22.919C20.6415 23.1269 20.3978 23.2851 20.1325 23.3836C19.8672 23.4821 19.5861 23.5187 19.3072 23.491C16.2128 23.1219 13.2404 21.9611 10.6289 20.1019C8.19921 18.4069 6.13926 16.1455 4.59534 13.4781C2.89586 10.5981 1.83824 7.31909 1.50816 3.90675C1.48303 3.60146 1.51608 3.29378 1.6052 3.00329C1.69432 2.7128 1.83757 2.44586 2.02581 2.21947C2.21405 1.99309 2.44317 1.81221 2.69858 1.68836C2.95398 1.56451 3.23008 1.5004 3.5093 1.50011H6.52608C7.0141 1.49483 7.48722 1.68456 7.85725 2.03391C8.22727 2.38326 8.46896 2.86841 8.53727 3.39892C8.6646 4.4588 8.90074 5.49946 9.24118 6.50106C9.37648 6.89619 9.40576 7.32562 9.32556 7.73847C9.24536 8.15131 9.05903 8.53026 8.78867 8.83042L7.51156 10.2324C8.94308 12.9963 11.0276 15.2847 13.5451 16.8562L14.8222 15.4542C15.0956 15.1574 15.4408 14.9528 15.8169 14.8648C16.1929 14.7767 16.5841 14.8089 16.944 14.9574C17.8564 15.3312 18.8043 15.5904 19.7698 15.7302C20.2582 15.8058 20.7044 16.076 21.0233 16.4892C21.3422 16.9024 21.5116 17.4298 21.4994 17.9712Z" stroke="url(#paint0_linear_416_525)" stroke-width="3" stroke-linecap="round" stroke-linejoin="round"/>
<defs>
<linearGradient id="paint0_linear_416_525" x1="1.5" y1="12.5" x2="21.1593" y2="12.5181" gradientUnits="userSpaceOnUse">
<stop stop-color="#9566FF"/>
<stop offset="1" stop-color="#48A6FE"/>
</linearGradient>
</defs>
</svg>
