<svg width="16" height="18" viewBox="0 0 16 18" fill="none" xmlns="http://www.w3.org/2000/svg">
<path d="M14.9996 12.9791V15.3877C15.0004 15.6113 14.9602 15.8327 14.8817 16.0375C14.8031 16.2424 14.6879 16.4263 14.5435 16.5775C14.399 16.7286 14.2285 16.8437 14.0428 16.9154C13.8571 16.987 13.6603 17.0136 13.465 16.9935C11.299 16.725 9.2183 15.8808 7.39023 14.5286C5.68945 13.2959 4.24748 11.6512 3.16674 9.71135C1.9771 7.61679 1.23677 5.23206 1.00571 2.75036C0.988123 2.52834 1.01126 2.30457 1.07364 2.0933C1.13603 1.88203 1.2363 1.6879 1.36807 1.52325C1.49984 1.35861 1.66022 1.22706 1.839 1.13699C2.01779 1.04691 2.21106 1.00029 2.40651 1.00008H4.51826C4.85987 0.996243 5.19105 1.13422 5.45007 1.3883C5.70909 1.64237 5.87828 1.99521 5.92609 2.38103C6.01522 3.15185 6.18052 3.9087 6.41883 4.63713C6.51354 4.9245 6.53403 5.23682 6.47789 5.53707C6.42175 5.83732 6.29132 6.11292 6.10207 6.33121L5.20809 7.35087C6.21016 9.36092 7.6693 11.0252 9.43159 12.1682L10.3256 11.1485C10.5169 10.9326 10.7586 10.7839 11.0218 10.7198C11.2851 10.6558 11.5589 10.6792 11.8108 10.7872C12.4495 11.059 13.113 11.2476 13.7888 11.3492C14.1308 11.4042 14.4431 11.6007 14.6663 11.9012C14.8895 12.2017 15.0081 12.5853 14.9996 12.9791Z" stroke="url(#paint0_linear_416_3120)" stroke-width="2" stroke-linecap="round" stroke-linejoin="round"/>
<defs>
<linearGradient id="paint0_linear_416_3120" x1="1" y1="9" x2="14.7615" y2="9.01217" gradientUnits="userSpaceOnUse">
<stop stop-color="#9566FF"/>
<stop offset="1" stop-color="#48A6FE"/>
</linearGradient>
</defs>
</svg>
