<svg xmlns="http://www.w3.org/2000/svg" width="194" height="170" viewBox="0 0 194 170" fill="none">
    <mask id="mask0_416_797" style="mask-type:luminance" maskUnits="userSpaceOnUse" x="40" y="13" width="113" height="144">
    <mask id="mask1_416_797" style="mask-type:luminance" maskUnits="userSpaceOnUse" x="40" y="13" width="113" height="144">
    <mask id="mask2_416_797" style="mask-type:luminance" maskUnits="userSpaceOnUse" x="40" y="13" width="113" height="144">
    <path d="M147.499 13.6001C146.819 13.6001 146.237 13.6972 145.459 13.9887L50.7452 44.783C47.0538 46.0458 43.9451 50.0287 43.848 53.8172L41.2252 151.543C41.2252 153.389 41.808 154.846 42.9738 155.72C44.1395 156.594 45.7909 156.789 47.6366 156.206L142.351 125.314C146.042 124.149 149.151 120.069 149.248 116.28L151.871 18.5544C151.968 16.8058 151.288 15.3487 150.122 14.4744C149.442 13.8915 148.471 13.6001 147.499 13.6001ZM45.5966 156.886C44.528 156.886 43.5566 156.594 42.7795 156.012C41.5166 155.04 40.8366 153.486 40.9337 151.543L43.5566 53.8172C43.6537 49.9315 46.8594 45.7544 50.648 44.4915L145.362 13.6001C147.305 13.0172 149.054 13.2115 150.317 14.183C151.579 15.1544 152.259 16.7087 152.259 18.5544L149.539 116.28C149.442 120.166 146.334 124.44 142.448 125.606L47.7337 156.497C46.9566 156.789 46.2766 156.886 45.5966 156.886Z" fill="white"/>
    </mask>
    <g mask="url(#mask2_416_797)">
    <path d="M-578.449 -83.5427H511.494V1006.4H-578.449V-83.5427Z" fill="white"/>
    </g>
    </mask>
    <g mask="url(#mask1_416_797)">
    <path d="M147.499 13.6001C146.819 13.6001 146.237 13.6972 145.459 13.9887L50.7452 44.783C47.0538 46.0458 43.9451 50.0287 43.848 53.8172L41.2252 151.543C41.2252 153.389 41.808 154.846 42.9738 155.72C44.1395 156.594 45.7909 156.789 47.6366 156.206L142.351 125.314C146.042 124.149 149.151 120.069 149.248 116.28L151.871 18.5544C151.968 16.8058 151.288 15.3487 150.122 14.4744C149.442 13.8915 148.471 13.6001 147.499 13.6001ZM45.5966 156.886C44.528 156.886 43.5566 156.594 42.7795 156.012C41.5166 155.04 40.8366 153.486 40.9337 151.543L43.5566 53.8172C43.6537 49.9315 46.8594 45.7544 50.648 44.4915L145.362 13.6001C147.305 13.0172 149.054 13.2115 150.317 14.183C151.579 15.1544 152.259 16.7087 152.259 18.5544L149.539 116.28C149.442 120.166 146.334 124.44 142.448 125.606L47.7337 156.497C46.9566 156.789 46.2766 156.886 45.5966 156.886Z" fill="white"/>
    </g>
    </mask>
    <g mask="url(#mask0_416_797)">
    <path d="M-578.449 -83.5427H511.494V1006.4H-578.449V-83.5427Z" fill="url(#paint0_linear_416_797)"/>
    </g>
    <mask id="mask3_416_797" style="mask-type:luminance" maskUnits="userSpaceOnUse" x="35" y="15" width="123" height="140">
    <mask id="mask4_416_797" style="mask-type:luminance" maskUnits="userSpaceOnUse" x="35" y="15" width="123" height="140">
    <mask id="mask5_416_797" style="mask-type:luminance" maskUnits="userSpaceOnUse" x="35" y="15" width="123" height="140">
    <path d="M153.037 16.2229C152.551 16.2229 152.065 16.3201 151.482 16.4172L54.4366 39.6344C50.648 40.5086 47.248 44.3943 46.7623 48.2801L35.688 148.434C35.3966 150.28 35.9794 151.834 37.048 152.806C38.2137 153.874 39.768 154.166 41.6137 153.68L138.659 130.56C142.448 129.589 145.848 125.703 146.334 121.817L157.505 21.7601C157.699 19.9144 157.214 18.2629 156.048 17.2915C155.271 16.6115 154.202 16.2229 153.037 16.2229ZM40.0594 154.263C38.7966 154.263 37.728 153.874 36.8537 153.097C35.5909 152.029 35.1051 150.377 35.2994 148.337L46.4708 48.2801C46.8594 44.2001 50.4537 40.2172 54.3394 39.2458L151.482 16.1258C153.328 15.6401 155.077 15.9315 156.242 17.0001C157.505 18.0686 157.991 19.8172 157.797 21.7601L146.625 121.914C146.237 125.897 142.642 129.977 138.757 130.851L41.7109 154.069C41.128 154.166 40.5451 154.263 40.0594 154.263Z" fill="white"/>
    </mask>
    <g mask="url(#mask5_416_797)">
    <path d="M-578.449 -83.5427H511.494V1006.4H-578.449V-83.5427Z" fill="white"/>
    </g>
    </mask>
    <g mask="url(#mask4_416_797)">
    <path d="M153.037 16.2229C152.551 16.2229 152.065 16.3201 151.482 16.4172L54.4366 39.6344C50.648 40.5086 47.248 44.3943 46.7623 48.2801L35.688 148.434C35.3966 150.28 35.9794 151.834 37.048 152.806C38.2137 153.874 39.768 154.166 41.6137 153.68L138.659 130.56C142.448 129.589 145.848 125.703 146.334 121.817L157.505 21.7601C157.699 19.9144 157.214 18.2629 156.048 17.2915C155.271 16.6115 154.202 16.2229 153.037 16.2229ZM40.0594 154.263C38.7966 154.263 37.728 153.874 36.8537 153.097C35.5909 152.029 35.1051 150.377 35.2994 148.337L46.4708 48.2801C46.8594 44.2001 50.4537 40.2172 54.3394 39.2458L151.482 16.1258C153.328 15.6401 155.077 15.9315 156.242 17.0001C157.505 18.0686 157.991 19.8172 157.797 21.7601L146.625 121.914C146.237 125.897 142.642 129.977 138.757 130.851L41.7109 154.069C41.128 154.166 40.5451 154.263 40.0594 154.263Z" fill="white"/>
    </g>
    </mask>
    <g mask="url(#mask3_416_797)">
    <path d="M-578.449 -83.5427H511.494V1006.4H-578.449V-83.5427Z" fill="url(#paint1_linear_416_797)"/>
    </g>
    <mask id="mask6_416_797" style="mask-type:luminance" maskUnits="userSpaceOnUse" x="29" y="19" width="135" height="133">
    <mask id="mask7_416_797" style="mask-type:luminance" maskUnits="userSpaceOnUse" x="29" y="19" width="135" height="133">
    <mask id="mask8_416_797" style="mask-type:luminance" maskUnits="userSpaceOnUse" x="29" y="19" width="135" height="133">
    <path d="M158.282 19.4286C157.991 19.4286 157.602 19.4286 157.311 19.5257L58.5165 34.5829C54.728 35.1657 50.9393 38.8572 50.1622 42.84L30.3451 144.646C29.9565 146.589 30.3451 148.24 31.4136 149.406C32.4822 150.474 34.0365 150.863 35.7851 150.669L134.579 135.514C138.368 134.931 142.157 131.24 142.934 127.354L162.751 25.5486C163.139 23.6057 162.751 21.8572 161.682 20.7886C160.808 19.9143 159.642 19.4286 158.282 19.4286ZM34.8136 151.057C33.3565 151.057 32.0936 150.571 31.2193 149.6C30.0536 148.434 29.6651 146.589 30.0537 144.549L49.8708 42.7429C50.6479 38.6629 54.5337 34.8743 58.5165 34.2914L157.214 19.1372C159.157 18.8457 160.808 19.3314 161.876 20.4972C163.042 21.76 163.528 23.5086 163.139 25.5486L143.225 127.354C142.448 131.434 138.562 135.32 134.579 135.903L35.8823 150.96C35.4937 151.057 35.2022 151.057 34.8136 151.057Z" fill="white"/>
    </mask>
    <g mask="url(#mask8_416_797)">
    <path d="M-578.449 -83.5428H511.494V1006.4H-578.449V-83.5428Z" fill="white"/>
    </g>
    </mask>
    <g mask="url(#mask7_416_797)">
    <path d="M158.282 19.4286C157.991 19.4286 157.602 19.4286 157.311 19.5257L58.5165 34.5829C54.728 35.1657 50.9393 38.8572 50.1622 42.84L30.3451 144.646C29.9565 146.589 30.3451 148.24 31.4136 149.406C32.4822 150.474 34.0365 150.863 35.7851 150.669L134.579 135.514C138.368 134.931 142.157 131.24 142.934 127.354L162.751 25.5486C163.139 23.6057 162.751 21.8572 161.682 20.7886C160.808 19.9143 159.642 19.4286 158.282 19.4286ZM34.8136 151.057C33.3565 151.057 32.0936 150.571 31.2193 149.6C30.0536 148.434 29.6651 146.589 30.0537 144.549L49.8708 42.7429C50.6479 38.6629 54.5337 34.8743 58.5165 34.2914L157.214 19.1372C159.157 18.8457 160.808 19.3314 161.876 20.4972C163.042 21.76 163.528 23.5086 163.139 25.5486L143.225 127.354C142.448 131.434 138.562 135.32 134.579 135.903L35.8823 150.96C35.4937 151.057 35.2022 151.057 34.8136 151.057Z" fill="white"/>
    </g>
    </mask>
    <g mask="url(#mask6_416_797)">
    <path d="M-578.449 -83.5429H511.494V1006.4H-578.449V-83.5429Z" fill="url(#paint2_linear_416_797)"/>
    </g>
    <mask id="mask9_416_797" style="mask-type:luminance" maskUnits="userSpaceOnUse" x="24" y="22" width="145" height="126">
    <mask id="mask10_416_797" style="mask-type:luminance" maskUnits="userSpaceOnUse" x="24" y="22" width="145" height="126">
    <mask id="mask11_416_797" style="mask-type:luminance" maskUnits="userSpaceOnUse" x="24" y="22" width="145" height="126">
    <path d="M163.236 23.2171C163.042 23.2171 162.945 23.2171 162.751 23.2171L63.0822 29.8228C59.1965 30.0171 55.1165 33.5142 54.0479 37.4971L25.3907 140.274C24.905 142.217 25.0994 144.063 26.1679 145.326C27.0422 146.491 28.5965 147.074 30.3451 146.977L130.014 140.371C133.899 140.08 137.979 136.583 139.048 132.6L167.705 29.8228C168.191 27.8799 167.996 26.0342 166.928 24.7714C166.054 23.7028 164.791 23.2171 163.236 23.2171ZM29.8594 147.366C28.2079 147.366 26.8479 146.686 25.8765 145.617C24.8079 144.257 24.5165 142.314 25.0993 140.177L53.7565 37.4C54.825 33.32 59.0994 29.7257 63.0822 29.4342L162.751 22.8285C164.596 22.7314 166.248 23.3142 167.219 24.5771C168.288 25.9371 168.579 27.88 167.997 29.92L139.436 132.697C138.271 136.874 134.094 140.469 130.014 140.663L30.3451 147.269C30.2479 147.269 30.0536 147.366 29.8594 147.366Z" fill="white"/>
    </mask>
    <g mask="url(#mask11_416_797)">
    <path d="M-578.449 -83.5428H511.494V1006.4H-578.449V-83.5428Z" fill="white"/>
    </g>
    </mask>
    <g mask="url(#mask10_416_797)">
    <path d="M163.236 23.2171C163.042 23.2171 162.945 23.2171 162.751 23.2171L63.0822 29.8228C59.1965 30.0171 55.1165 33.5142 54.0479 37.4971L25.3907 140.274C24.905 142.217 25.0994 144.063 26.1679 145.326C27.0422 146.491 28.5965 147.074 30.3451 146.977L130.014 140.371C133.899 140.08 137.979 136.583 139.048 132.6L167.705 29.8228C168.191 27.8799 167.996 26.0342 166.928 24.7714C166.054 23.7028 164.791 23.2171 163.236 23.2171ZM29.8594 147.366C28.2079 147.366 26.8479 146.686 25.8765 145.617C24.8079 144.257 24.5165 142.314 25.0993 140.177L53.7565 37.4C54.825 33.32 59.0994 29.7257 63.0822 29.4342L162.751 22.8285C164.596 22.7314 166.248 23.3142 167.219 24.5771C168.288 25.9371 168.579 27.88 167.997 29.92L139.436 132.697C138.271 136.874 134.094 140.469 130.014 140.663L30.3451 147.269C30.2479 147.269 30.0536 147.366 29.8594 147.366Z" fill="white"/>
    </g>
    </mask>
    <g mask="url(#mask9_416_797)">
    <path d="M-578.449 -83.5428H511.494V1006.4H-578.449V-83.5428Z" fill="url(#paint3_linear_416_797)"/>
    </g>
    <mask id="mask12_416_797" style="mask-type:luminance" maskUnits="userSpaceOnUse" x="20" y="24" width="154" height="122">
    <mask id="mask13_416_797" style="mask-type:luminance" maskUnits="userSpaceOnUse" x="20" y="24" width="154" height="122">
    <mask id="mask14_416_797" style="mask-type:luminance" maskUnits="userSpaceOnUse" x="20" y="24" width="154" height="122">
    <path d="M67.8423 25.2571C64.0537 25.2571 59.7795 28.4628 58.3223 32.4457L20.9223 135.417C20.1452 137.36 20.2423 139.303 21.2137 140.76C22.088 141.926 23.4481 142.606 25.1966 142.703L125.059 144.84C128.945 144.937 133.317 141.731 134.774 137.749L172.271 34.7771C172.951 32.7371 172.854 30.7942 171.882 29.4342C171.105 28.1714 169.648 27.4914 167.899 27.4914L68.0366 25.2571C67.9395 25.2571 67.9394 25.2571 67.8423 25.2571ZM125.254 145.229C125.157 145.229 125.157 145.229 125.059 145.229L25.1966 142.994C23.3509 142.994 21.7966 142.217 20.9223 140.954C19.9509 139.497 19.7566 137.36 20.5337 135.223L58.0309 32.2514C59.488 28.1714 63.8594 24.9657 67.8423 24.9657C67.9394 24.9657 67.9395 24.9657 68.0366 24.9657L167.899 27.1028C169.745 27.1028 171.299 27.88 172.174 29.24C173.242 30.6971 173.339 32.7371 172.562 34.8742L135.065 137.846C133.608 141.926 129.237 145.229 125.254 145.229Z" fill="white"/>
    </mask>
    <g mask="url(#mask14_416_797)">
    <path d="M-578.449 -83.5429H511.494V1006.4H-578.449V-83.5429Z" fill="white"/>
    </g>
    </mask>
    <g mask="url(#mask13_416_797)">
    <path d="M67.8423 25.2571C64.0537 25.2571 59.7795 28.4628 58.3223 32.4457L20.9223 135.417C20.1452 137.36 20.2423 139.303 21.2137 140.76C22.088 141.926 23.4481 142.606 25.1966 142.703L125.059 144.84C128.945 144.937 133.317 141.731 134.774 137.749L172.271 34.7771C172.951 32.7371 172.854 30.7942 171.882 29.4342C171.105 28.1714 169.648 27.4914 167.899 27.4914L68.0366 25.2571C67.9395 25.2571 67.9394 25.2571 67.8423 25.2571ZM125.254 145.229C125.157 145.229 125.157 145.229 125.059 145.229L25.1966 142.994C23.3509 142.994 21.7966 142.217 20.9223 140.954C19.9509 139.497 19.7566 137.36 20.5337 135.223L58.0309 32.2514C59.488 28.1714 63.8594 24.9657 67.8423 24.9657C67.9394 24.9657 67.9395 24.9657 68.0366 24.9657L167.899 27.1028C169.745 27.1028 171.299 27.88 172.174 29.24C173.242 30.6971 173.339 32.7371 172.562 34.8742L135.065 137.846C133.608 141.926 129.237 145.229 125.254 145.229Z" fill="white"/>
    </g>
    </mask>
    <g mask="url(#mask12_416_797)">
    <path d="M-578.449 -83.5429H511.494V1006.4H-578.449V-83.5429Z" fill="url(#paint4_linear_416_797)"/>
    </g>
    <mask id="mask15_416_797" style="mask-type:luminance" maskUnits="userSpaceOnUse" x="15" y="20" width="163" height="130">
    <mask id="mask16_416_797" style="mask-type:luminance" maskUnits="userSpaceOnUse" x="15" y="20" width="163" height="130">
    <mask id="mask17_416_797" style="mask-type:luminance" maskUnits="userSpaceOnUse" x="15" y="20" width="163" height="130">
    <path d="M72.6022 21.0801C68.9107 21.0801 64.7336 23.8001 63.0822 27.5887L16.8422 129.977C15.8707 132.017 15.8707 134.057 16.6479 135.514C17.425 136.777 18.785 137.652 20.4364 137.846L119.716 149.017C123.602 149.406 128.168 146.589 130.014 142.606L176.351 40.2173C177.225 38.1773 177.322 36.1373 176.448 34.583C175.671 33.3201 174.311 32.543 172.659 32.3487L73.3793 21.0801C73.0879 21.0801 72.7965 21.0801 72.6022 21.0801ZM120.494 149.406C120.299 149.406 120.008 149.406 119.716 149.406L20.4364 138.137C18.5907 137.943 17.1336 137.069 16.3564 135.709C15.4822 134.057 15.4822 131.92 16.4536 129.783L62.7907 27.3944C64.6364 23.3144 69.3964 20.303 73.3793 20.7887L172.659 31.9601C174.505 32.1544 175.962 33.0287 176.739 34.3887C177.614 36.0401 177.614 38.1773 176.642 40.3144L130.305 142.703C128.654 146.589 124.379 149.406 120.494 149.406Z" fill="white"/>
    </mask>
    <g mask="url(#mask17_416_797)">
    <path d="M-578.449 -83.5427H511.494V1006.4H-578.449V-83.5427Z" fill="white"/>
    </g>
    </mask>
    <g mask="url(#mask16_416_797)">
    <path d="M72.6022 21.0801C68.9107 21.0801 64.7336 23.8001 63.0822 27.5887L16.8422 129.977C15.8707 132.017 15.8707 134.057 16.6479 135.514C17.425 136.777 18.785 137.652 20.4364 137.846L119.716 149.017C123.602 149.406 128.168 146.589 130.014 142.606L176.351 40.2173C177.225 38.1773 177.322 36.1373 176.448 34.583C175.671 33.3201 174.311 32.543 172.659 32.3487L73.3793 21.0801C73.0879 21.0801 72.7965 21.0801 72.6022 21.0801ZM120.494 149.406C120.299 149.406 120.008 149.406 119.716 149.406L20.4364 138.137C18.5907 137.943 17.1336 137.069 16.3564 135.709C15.4822 134.057 15.4822 131.92 16.4536 129.783L62.7907 27.3944C64.6364 23.3144 69.3964 20.303 73.3793 20.7887L172.659 31.9601C174.505 32.1544 175.962 33.0287 176.739 34.3887C177.614 36.0401 177.614 38.1773 176.642 40.3144L130.305 142.703C128.654 146.589 124.379 149.406 120.494 149.406Z" fill="white"/>
    </g>
    </mask>
    <g mask="url(#mask15_416_797)">
    <path d="M-578.449 -83.5427H511.494V1006.4H-578.449V-83.5427Z" fill="url(#paint5_linear_416_797)"/>
    </g>
    <mask id="mask18_416_797" style="mask-type:luminance" maskUnits="userSpaceOnUse" x="11" y="16" width="171" height="138">
    <mask id="mask19_416_797" style="mask-type:luminance" maskUnits="userSpaceOnUse" x="11" y="16" width="171" height="138">
    <mask id="mask20_416_797" style="mask-type:luminance" maskUnits="userSpaceOnUse" x="11" y="16" width="171" height="138">
    <path d="M77.5566 17.1944C74.0594 17.1944 70.0766 19.5258 68.2309 23.0229L13.1509 123.954C12.0823 125.994 11.888 128.132 12.6652 129.783C13.248 131.143 14.5109 132.114 16.1623 132.406L114.082 152.806C117.871 153.583 122.728 151.057 124.865 147.172L179.945 46.1429C181.014 44.1029 181.208 41.9658 180.528 40.3144C179.848 39.0515 178.585 38.0801 176.934 37.6915L79.0137 17.2915C78.528 17.1944 78.0423 17.1944 77.5566 17.1944ZM115.539 153.389C115.054 153.389 114.471 153.292 113.985 153.194L16.0652 132.794C14.3166 132.406 12.9566 131.434 12.2766 129.977C11.4994 128.229 11.6938 125.994 12.8595 123.76L67.9395 22.8287C70.1738 18.7487 75.128 16.1258 79.1109 16.9029L177.031 37.4001C178.779 37.6915 180.139 38.7601 180.819 40.2172C181.597 41.9658 181.402 44.2001 180.237 46.3372L125.157 147.366C123.214 150.863 119.134 153.389 115.539 153.389Z" fill="white"/>
    </mask>
    <g mask="url(#mask20_416_797)">
    <path d="M-578.449 -83.5428H511.494V1006.4H-578.449V-83.5428Z" fill="white"/>
    </g>
    </mask>
    <g mask="url(#mask19_416_797)">
    <path d="M77.5566 17.1944C74.0594 17.1944 70.0766 19.5258 68.2309 23.0229L13.1509 123.954C12.0823 125.994 11.888 128.132 12.6652 129.783C13.248 131.143 14.5109 132.114 16.1623 132.406L114.082 152.806C117.871 153.583 122.728 151.057 124.865 147.172L179.945 46.1429C181.014 44.1029 181.208 41.9658 180.528 40.3144C179.848 39.0515 178.585 38.0801 176.934 37.6915L79.0137 17.2915C78.528 17.1944 78.0423 17.1944 77.5566 17.1944ZM115.539 153.389C115.054 153.389 114.471 153.292 113.985 153.194L16.0652 132.794C14.3166 132.406 12.9566 131.434 12.2766 129.977C11.4994 128.229 11.6938 125.994 12.8595 123.76L67.9395 22.8287C70.1738 18.7487 75.128 16.1258 79.1109 16.9029L177.031 37.4001C178.779 37.6915 180.139 38.7601 180.819 40.2172C181.597 41.9658 181.402 44.2001 180.237 46.3372L125.157 147.366C123.214 150.863 119.134 153.389 115.539 153.389Z" fill="white"/>
    </g>
    </mask>
    <g mask="url(#mask18_416_797)">
    <path d="M-578.449 -83.5428H511.494V1006.4H-578.449V-83.5428Z" fill="url(#paint6_linear_416_797)"/>
    </g>
    <mask id="mask21_416_797" style="mask-type:luminance" maskUnits="userSpaceOnUse" x="8" y="13" width="177" height="144">
    <mask id="mask22_416_797" style="mask-type:luminance" maskUnits="userSpaceOnUse" x="8" y="13" width="177" height="144">
    <mask id="mask23_416_797" style="mask-type:luminance" maskUnits="userSpaceOnUse" x="8" y="13" width="177" height="144">
    <path d="M82.8993 13.6C79.4993 13.6 75.8079 15.64 73.7679 18.7486L10.1394 117.543C8.77937 119.583 8.39076 121.72 9.07076 123.469C9.55647 124.926 10.7222 125.994 12.2765 126.48L108.156 156.206C111.848 157.371 116.899 155.234 119.328 151.349L182.956 52.6514C184.316 50.6114 184.705 48.3771 184.025 46.6286C183.539 45.1714 182.374 44.2 180.819 43.7143L84.9394 13.8914C84.3565 13.6971 83.5793 13.6 82.8993 13.6ZM110.197 156.886C109.517 156.886 108.739 156.789 108.059 156.594L12.1793 126.869C10.5279 126.286 9.26508 125.12 8.68222 123.663C8.00222 121.72 8.39075 119.486 9.84789 117.349L73.4765 18.5543C76.0022 14.5714 81.2479 12.3371 85.1336 13.5029L180.917 43.3257C182.568 43.8114 183.831 44.9771 184.414 46.5314C185.094 48.3771 184.705 50.7086 183.345 52.8457L119.619 151.543C117.579 154.846 113.694 156.886 110.197 156.886Z" fill="white"/>
    </mask>
    <g mask="url(#mask23_416_797)">
    <path d="M-578.449 -83.5428H511.494V1006.4H-578.449V-83.5428Z" fill="white"/>
    </g>
    </mask>
    <g mask="url(#mask22_416_797)">
    <path d="M82.8993 13.6C79.4993 13.6 75.8079 15.64 73.7679 18.7486L10.1394 117.543C8.77937 119.583 8.39076 121.72 9.07076 123.469C9.55647 124.926 10.7222 125.994 12.2765 126.48L108.156 156.206C111.848 157.371 116.899 155.234 119.328 151.349L182.956 52.6514C184.316 50.6114 184.705 48.3771 184.025 46.6286C183.539 45.1714 182.374 44.2 180.819 43.7143L84.9394 13.8914C84.3565 13.6971 83.5793 13.6 82.8993 13.6ZM110.197 156.886C109.517 156.886 108.739 156.789 108.059 156.594L12.1793 126.869C10.5279 126.286 9.26508 125.12 8.68222 123.663C8.00222 121.72 8.39075 119.486 9.84789 117.349L73.4765 18.5543C76.0022 14.5714 81.2479 12.3371 85.1336 13.5029L180.917 43.3257C182.568 43.8114 183.831 44.9771 184.414 46.5314C185.094 48.3771 184.705 50.7086 183.345 52.8457L119.619 151.543C117.579 154.846 113.694 156.886 110.197 156.886Z" fill="white"/>
    </g>
    </mask>
    <g mask="url(#mask21_416_797)">
    <path d="M-578.449 -83.5428H511.494V1006.4H-578.449V-83.5428Z" fill="url(#paint7_linear_416_797)"/>
    </g>
    <mask id="mask24_416_797" style="mask-type:luminance" maskUnits="userSpaceOnUse" x="5" y="10" width="183" height="151">
    <mask id="mask25_416_797" style="mask-type:luminance" maskUnits="userSpaceOnUse" x="5" y="10" width="183" height="151">
    <mask id="mask26_416_797" style="mask-type:luminance" maskUnits="userSpaceOnUse" x="5" y="10" width="183" height="151">
    <path d="M88.4366 10.3943C85.2309 10.3943 81.7338 12.1428 79.5966 14.96L7.61375 110.646C6.15661 112.589 5.57377 114.823 6.05949 116.766C6.44806 118.223 7.51661 119.389 9.07089 120.069L101.842 159.217C105.437 160.771 110.682 158.926 113.499 155.234L185.482 59.4514C186.939 57.5085 187.522 55.2743 187.037 53.4286C186.648 51.8743 185.579 50.7086 184.025 50.1257L91.2538 10.9771C90.3795 10.5886 89.408 10.3943 88.4366 10.3943ZM104.659 160.091C103.688 160.091 102.619 159.897 101.745 159.606L8.87659 120.36C7.22517 119.68 6.15661 118.417 5.67089 116.863C5.18518 114.823 5.76805 112.491 7.32233 110.451L79.3052 14.6686C82.2194 10.88 87.6595 9.03427 91.3509 10.5886L184.219 49.7371C185.871 50.4171 186.939 51.68 187.425 53.3314C187.911 55.2743 187.328 57.6057 185.774 59.7428L113.791 155.429C111.557 158.343 107.962 160.091 104.659 160.091Z" fill="white"/>
    </mask>
    <g mask="url(#mask26_416_797)">
    <path d="M-578.449 -83.5429H511.494V1006.4H-578.449V-83.5429Z" fill="white"/>
    </g>
    </mask>
    <g mask="url(#mask25_416_797)">
    <path d="M88.4366 10.3943C85.2309 10.3943 81.7338 12.1428 79.5966 14.96L7.61375 110.646C6.15661 112.589 5.57377 114.823 6.05949 116.766C6.44806 118.223 7.51661 119.389 9.07089 120.069L101.842 159.217C105.437 160.771 110.682 158.926 113.499 155.234L185.482 59.4514C186.939 57.5085 187.522 55.2743 187.037 53.4286C186.648 51.8743 185.579 50.7086 184.025 50.1257L91.2538 10.9771C90.3795 10.5886 89.408 10.3943 88.4366 10.3943ZM104.659 160.091C103.688 160.091 102.619 159.897 101.745 159.606L8.87659 120.36C7.22517 119.68 6.15661 118.417 5.67089 116.863C5.18518 114.823 5.76805 112.491 7.32233 110.451L79.3052 14.6686C82.2194 10.88 87.6595 9.03427 91.3509 10.5886L184.219 49.7371C185.871 50.4171 186.939 51.68 187.425 53.3314C187.911 55.2743 187.328 57.6057 185.774 59.7428L113.791 155.429C111.557 158.343 107.962 160.091 104.659 160.091Z" fill="white"/>
    </g>
    </mask>
    <g mask="url(#mask24_416_797)">
    <path d="M-578.449 -83.5429H511.494V1006.4H-578.449V-83.5429Z" fill="url(#paint8_linear_416_797)"/>
    </g>
    <mask id="mask27_416_797" style="mask-type:luminance" maskUnits="userSpaceOnUse" x="3" y="7" width="187" height="156">
    <mask id="mask28_416_797" style="mask-type:luminance" maskUnits="userSpaceOnUse" x="3" y="7" width="187" height="156">
    <mask id="mask29_416_797" style="mask-type:luminance" maskUnits="userSpaceOnUse" x="3" y="7" width="187" height="156">
    <path d="M94.168 7.57715C91.2537 7.57715 87.9508 9.0343 85.8137 11.4629L5.76798 103.36C4.01941 105.206 3.3394 107.537 3.63083 109.48C3.92226 111.034 4.89367 112.297 6.35082 113.074L95.4308 161.646C98.8308 163.589 104.174 162.229 107.282 158.634L187.328 66.8343C189.077 64.8914 189.757 62.6571 189.465 60.6171C189.174 59.0629 188.202 57.8 186.745 57.0229L97.6651 8.45143C96.6937 7.86858 95.4308 7.57715 94.168 7.57715ZM98.9279 162.909C97.5679 162.909 96.3051 162.617 95.2365 162.034L6.15652 113.463C4.60223 112.589 3.6308 111.229 3.24223 109.577C2.9508 107.44 3.72794 105.109 5.47651 103.069L85.5222 11.2686C88.728 7.57715 94.2651 6.12001 97.8594 8.06287L186.939 56.7314C188.494 57.5086 189.562 58.8686 189.854 60.6171C190.242 62.6571 189.368 65.0857 187.619 67.0286L107.574 158.926C105.339 161.451 102.037 162.909 98.9279 162.909Z" fill="white"/>
    </mask>
    <g mask="url(#mask29_416_797)">
    <path d="M-578.449 -83.5428H511.494V1006.4H-578.449V-83.5428Z" fill="white"/>
    </g>
    </mask>
    <g mask="url(#mask28_416_797)">
    <path d="M94.168 7.57715C91.2537 7.57715 87.9508 9.0343 85.8137 11.4629L5.76798 103.36C4.01941 105.206 3.3394 107.537 3.63083 109.48C3.92226 111.034 4.89367 112.297 6.35082 113.074L95.4308 161.646C98.8308 163.589 104.174 162.229 107.282 158.634L187.328 66.8343C189.077 64.8914 189.757 62.6571 189.465 60.6171C189.174 59.0629 188.202 57.8 186.745 57.0229L97.6651 8.45143C96.6937 7.86858 95.4308 7.57715 94.168 7.57715ZM98.9279 162.909C97.5679 162.909 96.3051 162.617 95.2365 162.034L6.15652 113.463C4.60223 112.589 3.6308 111.229 3.24223 109.577C2.9508 107.44 3.72794 105.109 5.47651 103.069L85.5222 11.2686C88.728 7.57715 94.2651 6.12001 97.8594 8.06287L186.939 56.7314C188.494 57.5086 189.562 58.8686 189.854 60.6171C190.242 62.6571 189.368 65.0857 187.619 67.0286L107.574 158.926C105.339 161.451 102.037 162.909 98.9279 162.909Z" fill="white"/>
    </g>
    </mask>
    <g mask="url(#mask27_416_797)">
    <path d="M-578.449 -83.5428H511.494V1006.4H-578.449V-83.5428Z" fill="url(#paint9_linear_416_797)"/>
    </g>
    <mask id="mask30_416_797" style="mask-type:luminance" maskUnits="userSpaceOnUse" x="1" y="4" width="191" height="162">
    <mask id="mask31_416_797" style="mask-type:luminance" maskUnits="userSpaceOnUse" x="0" y="4" width="192" height="163">
    <mask id="mask32_416_797" style="mask-type:luminance" maskUnits="userSpaceOnUse" x="0" y="4" width="192" height="163">
    <g clip-path="url(#clip0_416_797)">
    <path d="M100.094 5.24573C97.3736 5.24573 94.4594 6.41145 92.2251 8.54859L4.50504 95.6857C2.65933 97.5314 1.68795 99.7657 1.88223 101.806C2.07652 103.457 2.85363 104.817 4.21363 105.789L88.7279 163.686C92.0308 165.92 97.4708 164.949 100.871 161.549L188.591 74.5086C190.436 72.6629 191.408 70.4286 191.214 68.2914C191.019 66.7372 190.242 65.28 188.882 64.4057L104.368 6.50859C103.202 5.6343 101.648 5.24573 100.094 5.24573ZM93.0022 165.24C91.3508 165.24 89.7965 164.851 88.5336 163.977L4.01933 106.08C2.56219 105.109 1.68792 103.554 1.49364 101.903C1.29935 99.6686 2.27077 97.3371 4.21363 95.3943L92.0308 8.25716C95.5279 4.76002 101.162 3.78859 104.562 6.12002L189.076 64.0171C190.534 65.0857 191.408 66.5429 191.602 68.2914C191.797 70.5257 190.825 72.8571 188.882 74.7029L101.162 161.84C98.9279 164.074 95.8194 165.24 93.0022 165.24Z" fill="white"/>
    </g>
    </mask>
    <g mask="url(#mask32_416_797)">
    <path d="M-578.449 -83.5429H511.494V1006.4H-578.449V-83.5429Z" fill="white"/>
    </g>
    </mask>
    <g mask="url(#mask31_416_797)">
    <path d="M100.094 5.24564C97.3736 5.24564 94.4594 6.41136 92.2251 8.5485L4.50504 95.6856C2.65933 97.5313 1.68795 99.7656 1.88223 101.806C2.07652 103.457 2.85363 104.817 4.21363 105.788L88.7279 163.686C92.0308 165.92 97.4708 164.949 100.871 161.548L188.591 74.5085C190.436 72.6628 191.408 70.4285 191.214 68.2914C191.019 66.7371 190.242 65.2799 188.882 64.4056L104.368 6.50849C103.202 5.63421 101.648 5.24564 100.094 5.24564ZM93.0022 165.24C91.3508 165.24 89.7965 164.851 88.5336 163.977L4.01933 106.08C2.56219 105.108 1.68792 103.554 1.49364 101.903C1.29935 99.6685 2.27077 97.3371 4.21363 95.3942L92.0308 8.25707C95.5279 4.75993 101.162 3.7885 104.562 6.11993L189.076 64.0171C190.534 65.0856 191.408 66.5428 191.602 68.2914C191.797 70.5256 190.825 72.8571 188.882 74.7028L101.162 161.84C98.9279 164.074 95.8194 165.24 93.0022 165.24Z" fill="white"/>
    </g>
    </mask>
    <g mask="url(#mask30_416_797)">
    <path d="M-578.449 -83.5429H511.494V1006.4H-578.449V-83.5429Z" fill="url(#paint10_linear_416_797)"/>
    </g>
    <mask id="mask33_416_797" style="mask-type:luminance" maskUnits="userSpaceOnUse" x="0" y="2" width="193" height="166">
    <mask id="mask34_416_797" style="mask-type:luminance" maskUnits="userSpaceOnUse" x="0" y="2" width="193" height="166">
    <mask id="mask35_416_797" style="mask-type:luminance" maskUnits="userSpaceOnUse" x="0" y="2" width="193" height="166">
    <path d="M106.214 3.40001C103.688 3.40001 101.065 4.2743 98.9279 6.12002L3.92217 87.72C1.97931 89.3715 0.813585 91.6057 0.813585 93.7429C0.813585 95.3943 1.49358 96.9486 2.75644 98.0172L81.9279 165.046C84.9393 167.669 90.4765 167.183 94.1679 164.074L189.174 82.4743C191.214 80.7257 192.282 78.4915 192.282 76.3543C192.282 74.7029 191.602 73.1486 190.339 72.08L111.168 5.05144C109.905 3.88573 108.059 3.40001 106.214 3.40001ZM86.9793 167.183C84.9393 167.183 83.0936 166.6 81.6365 165.434L2.56214 98.3086C1.20214 97.1429 0.425049 95.5886 0.425049 93.7429C0.425049 91.5086 1.59075 89.1772 3.63075 87.3314L98.7336 5.82859C102.522 2.52573 108.254 2.04002 111.459 4.76002L190.631 71.7886C191.991 72.9543 192.671 74.6057 192.671 76.3543C192.671 78.6857 191.505 81.0172 189.465 82.7657L94.3621 164.366C92.225 166.211 89.505 167.183 86.9793 167.183Z" fill="white"/>
    </mask>
    <g mask="url(#mask35_416_797)">
    <path d="M-578.449 -83.5428H511.494V1006.4H-578.449V-83.5428Z" fill="white"/>
    </g>
    </mask>
    <g mask="url(#mask34_416_797)">
    <path d="M106.214 3.40001C103.688 3.40001 101.065 4.2743 98.9279 6.12002L3.92217 87.72C1.97931 89.3715 0.813585 91.6057 0.813585 93.7429C0.813585 95.3943 1.49358 96.9486 2.75644 98.0172L81.9279 165.046C84.9393 167.669 90.4765 167.183 94.1679 164.074L189.174 82.4743C191.214 80.7257 192.282 78.4915 192.282 76.3543C192.282 74.7029 191.602 73.1486 190.339 72.08L111.168 5.05144C109.905 3.88573 108.059 3.40001 106.214 3.40001ZM86.9793 167.183C84.9393 167.183 83.0936 166.6 81.6365 165.434L2.56214 98.3086C1.20214 97.1429 0.425049 95.5886 0.425049 93.7429C0.425049 91.5086 1.59075 89.1772 3.63075 87.3314L98.7336 5.82859C102.522 2.52573 108.254 2.04002 111.459 4.76002L190.631 71.7886C191.991 72.9543 192.671 74.6057 192.671 76.3543C192.671 78.6857 191.505 81.0172 189.465 82.7657L94.3621 164.366C92.225 166.211 89.505 167.183 86.9793 167.183Z" fill="white"/>
    </g>
    </mask>
    <g mask="url(#mask33_416_797)">
    <path d="M-578.449 -83.5428H511.494V1006.4H-578.449V-83.5428Z" fill="url(#paint11_linear_416_797)"/>
    </g>
    <mask id="mask36_416_797" style="mask-type:luminance" maskUnits="userSpaceOnUse" x="0" y="1" width="194" height="168">
    <mask id="mask37_416_797" style="mask-type:luminance" maskUnits="userSpaceOnUse" x="0" y="1" width="194" height="168">
    <mask id="mask38_416_797" style="mask-type:luminance" maskUnits="userSpaceOnUse" x="0" y="1" width="194" height="168">
    <path d="M112.334 2.04013C110.197 2.04013 107.768 2.72013 105.825 4.17727L4.01945 79.463C1.88231 81.0173 0.619501 83.1544 0.425215 85.3887C0.230929 87.1373 0.813763 88.6916 1.97948 89.9544L75.0309 165.92C77.8481 168.834 83.288 168.932 87.2709 166.017L189.077 90.7315C191.214 89.1773 192.477 86.943 192.671 84.7087C192.865 83.0573 192.282 81.4058 191.117 80.143L118.065 4.17727C116.705 2.72013 114.568 2.04013 112.334 2.04013ZM80.7623 168.543C78.4309 168.543 76.1966 167.766 74.7395 166.212L1.68806 90.2458C0.425203 88.8858 -0.157666 87.2344 0.03662 85.3887C0.230906 83.0573 1.59093 80.7258 3.82521 79.0744L105.631 3.88584C109.711 0.777271 115.442 0.874414 118.357 3.88584L191.408 79.9487C192.671 81.2116 193.254 82.9601 193.059 84.8058C192.865 87.1373 191.505 89.3716 189.271 91.023L87.4652 166.309C85.5223 167.766 82.9966 168.543 80.7623 168.543Z" fill="white"/>
    </mask>
    <g mask="url(#mask38_416_797)">
    <path d="M-578.449 -83.5427H511.494V1006.4H-578.449V-83.5427Z" fill="white"/>
    </g>
    </mask>
    <g mask="url(#mask37_416_797)">
    <path d="M112.334 2.04013C110.197 2.04013 107.768 2.72013 105.825 4.17727L4.01945 79.463C1.88231 81.0173 0.619501 83.1544 0.425215 85.3887C0.230929 87.1373 0.813763 88.6916 1.97948 89.9544L75.0309 165.92C77.8481 168.834 83.288 168.932 87.2709 166.017L189.077 90.7315C191.214 89.1773 192.477 86.943 192.671 84.7087C192.865 83.0573 192.282 81.4058 191.117 80.143L118.065 4.17727C116.705 2.72013 114.568 2.04013 112.334 2.04013ZM80.7623 168.543C78.4309 168.543 76.1966 167.766 74.7395 166.212L1.68806 90.2458C0.425203 88.8858 -0.157666 87.2344 0.03662 85.3887C0.230906 83.0573 1.59093 80.7258 3.82521 79.0744L105.631 3.88584C109.711 0.777271 115.442 0.874414 118.357 3.88584L191.408 79.9487C192.671 81.2116 193.254 82.9601 193.059 84.8058C192.865 87.1373 191.505 89.3716 189.271 91.023L87.4652 166.309C85.5223 167.766 82.9966 168.543 80.7623 168.543Z" fill="white"/>
    </g>
    </mask>
    <g mask="url(#mask36_416_797)">
    <path d="M-578.449 -83.5427H511.494V1006.4H-578.449V-83.5427Z" fill="url(#paint12_linear_416_797)"/>
    </g>
    <mask id="mask39_416_797" style="mask-type:luminance" maskUnits="userSpaceOnUse" x="0" y="0" width="193" height="170">
    <mask id="mask40_416_797" style="mask-type:luminance" maskUnits="userSpaceOnUse" x="0" y="0" width="193" height="170">
    <mask id="mask41_416_797" style="mask-type:luminance" maskUnits="userSpaceOnUse" x="0" y="0" width="193" height="170">
    <path d="M118.648 1.16561C116.705 1.16561 114.665 1.65133 112.82 2.81704L4.89389 70.9142C2.65961 72.3713 1.10533 74.5085 0.716762 76.7428C0.425333 78.4913 0.911035 80.2399 1.97961 81.5999L68.0368 166.211C70.5625 169.417 76.0996 170 80.2767 167.28L188.202 99.1828C190.437 97.7256 191.991 95.6856 192.38 93.4513C192.671 91.7028 192.282 89.9542 191.117 88.497L125.06 3.98275C123.602 2.0399 121.174 1.16561 118.648 1.16561ZM74.4482 169.417C71.7282 169.417 69.2996 168.446 67.7453 166.406L1.59101 81.8913C0.52244 80.337 0.0367378 78.4913 0.328166 76.6456C0.813881 74.3142 2.36817 72.0799 4.6996 70.6227L112.625 2.42847C116.997 -0.29153 122.728 0.291331 125.351 3.69133L191.505 88.3027C192.671 89.7599 193.06 91.6056 192.768 93.4513C192.38 95.8799 190.728 98.017 188.397 99.5713L80.471 167.668C78.6253 168.834 76.4882 169.417 74.4482 169.417Z" fill="white"/>
    </mask>
    <g mask="url(#mask41_416_797)">
    <path d="M-578.449 -83.543H511.494V1006.4H-578.449V-83.543Z" fill="white"/>
    </g>
    </mask>
    <g mask="url(#mask40_416_797)">
    <path d="M118.648 1.16561C116.705 1.16561 114.665 1.65133 112.82 2.81704L4.89389 70.9142C2.65961 72.3713 1.10533 74.5085 0.716762 76.7428C0.425333 78.4913 0.911035 80.2399 1.97961 81.5999L68.0368 166.211C70.5625 169.417 76.0996 170 80.2767 167.28L188.202 99.1828C190.437 97.7256 191.991 95.6856 192.38 93.4513C192.671 91.7028 192.282 89.9542 191.117 88.497L125.06 3.98275C123.602 2.0399 121.174 1.16561 118.648 1.16561ZM74.4482 169.417C71.7282 169.417 69.2996 168.446 67.7453 166.406L1.59101 81.8913C0.52244 80.337 0.0367378 78.4913 0.328166 76.6456C0.813881 74.3142 2.36817 72.0799 4.6996 70.6227L112.625 2.42847C116.997 -0.29153 122.728 0.291331 125.351 3.69133L191.505 88.3027C192.671 89.7599 193.06 91.6056 192.768 93.4513C192.38 95.8799 190.728 98.017 188.397 99.5713L80.471 167.668C78.6253 168.834 76.4882 169.417 74.4482 169.417Z" fill="white"/>
    </g>
    </mask>
    <g mask="url(#mask39_416_797)">
    <path d="M-578.449 -83.543H511.494V1006.4H-578.449V-83.543Z" fill="url(#paint13_linear_416_797)"/>
    </g>
    <mask id="mask42_416_797" style="mask-type:luminance" maskUnits="userSpaceOnUse" x="1" y="0" width="191" height="170">
    <mask id="mask43_416_797" style="mask-type:luminance" maskUnits="userSpaceOnUse" x="0" y="0" width="192" height="170">
    <mask id="mask44_416_797" style="mask-type:luminance" maskUnits="userSpaceOnUse" x="0" y="0" width="192" height="170">
    <g clip-path="url(#clip1_416_797)">
    <path d="M124.962 0.777136C123.311 0.777136 121.562 1.1657 120.008 2.03999L6.44788 62.3657C4.11645 63.5314 2.46507 65.5714 1.88221 67.8057C1.3965 69.6514 1.68792 71.4971 2.65935 73.0514L61.0422 165.823C63.3736 169.417 68.7165 170.389 73.185 168.057L186.648 107.829C188.979 106.566 190.631 104.526 191.214 102.291C191.699 100.543 191.505 98.6971 190.534 97.1428L132.054 4.27428C130.596 2.03999 127.876 0.777136 124.962 0.777136ZM68.1336 169.709C65.1222 169.709 62.2079 168.446 60.7508 166.017L2.27075 73.2457C1.20218 71.5943 0.910763 69.6514 1.49362 67.7086C2.07648 65.3771 3.82507 63.24 6.25364 61.9771L119.814 1.65142C124.379 -0.777156 130.014 0.291416 132.345 4.07999L190.825 96.9486C191.894 98.5029 192.185 100.543 191.602 102.389C191.019 104.817 189.271 106.857 186.842 108.217L73.3793 168.446C71.6308 169.32 69.8822 169.709 68.1336 169.709Z" fill="white"/>
    </g>
    </mask>
    <g mask="url(#mask44_416_797)">
    <path d="M-578.449 -83.5428H511.494V1006.4H-578.449V-83.5428Z" fill="white"/>
    </g>
    </mask>
    <g mask="url(#mask43_416_797)">
    <path d="M124.962 0.777136C123.311 0.777136 121.562 1.1657 120.008 2.03999L6.44788 62.3657C4.11645 63.5314 2.46507 65.5714 1.88221 67.8057C1.3965 69.6514 1.68792 71.4971 2.65935 73.0514L61.0422 165.823C63.3736 169.417 68.7165 170.389 73.185 168.057L186.648 107.829C188.979 106.566 190.631 104.526 191.214 102.291C191.699 100.543 191.505 98.6971 190.534 97.1428L132.054 4.27428C130.596 2.03999 127.876 0.777136 124.962 0.777136ZM68.1336 169.709C65.1222 169.709 62.2079 168.446 60.7508 166.017L2.27075 73.2457C1.20218 71.5943 0.910763 69.6514 1.49362 67.7086C2.07648 65.3771 3.82507 63.24 6.25364 61.9771L119.814 1.65142C124.379 -0.777156 130.014 0.291416 132.345 4.07999L190.825 96.9486C191.894 98.5029 192.185 100.543 191.602 102.389C191.019 104.817 189.271 106.857 186.842 108.217L73.3793 168.446C71.6308 169.32 69.8822 169.709 68.1336 169.709Z" fill="white"/>
    </g>
    </mask>
    <g mask="url(#mask42_416_797)">
    <path d="M-578.449 -83.5428H511.494V1006.4H-578.449V-83.5428Z" fill="url(#paint14_linear_416_797)"/>
    </g>
    <mask id="mask45_416_797" style="mask-type:luminance" maskUnits="userSpaceOnUse" x="2" y="0" width="189" height="170">
    <mask id="mask46_416_797" style="mask-type:luminance" maskUnits="userSpaceOnUse" x="2" y="0" width="189" height="170">
    <mask id="mask47_416_797" style="mask-type:luminance" maskUnits="userSpaceOnUse" x="2" y="0" width="189" height="170">
    <path d="M131.276 1.06866C129.916 1.06866 128.459 1.36009 127.099 1.94294L8.7793 53.6229C6.44787 54.6915 4.60214 56.5372 3.72786 58.7715C3.145 60.6172 3.24213 62.5601 4.01927 64.2115L54.145 164.852C56.0879 168.737 61.4307 170.194 65.9965 168.252L184.316 116.474C186.745 115.503 188.494 113.56 189.368 111.326C190.048 109.48 189.951 107.537 189.076 105.886L138.951 5.34294C137.591 2.62294 134.579 1.06866 131.276 1.06866ZM61.8193 169.514C58.4193 169.514 55.2136 167.863 53.8536 165.046L3.63074 64.4058C2.75645 62.6572 2.65932 60.6172 3.33932 58.6744C4.21361 56.2458 6.15646 54.3029 8.68218 53.2344L126.905 1.55437C131.762 -0.582773 137.299 1.06866 139.339 5.14866L189.465 105.692C190.339 107.537 190.436 109.577 189.756 111.52C188.882 113.852 186.939 115.794 184.511 116.863L66.1907 168.64C64.7336 169.223 63.2764 169.514 61.8193 169.514Z" fill="white"/>
    </mask>
    <g mask="url(#mask47_416_797)">
    <path d="M-578.449 -83.5427H511.494V1006.4H-578.449V-83.5427Z" fill="white"/>
    </g>
    </mask>
    <g mask="url(#mask46_416_797)">
    <path d="M131.276 1.06866C129.916 1.06866 128.459 1.36009 127.099 1.94294L8.7793 53.6229C6.44787 54.6915 4.60214 56.5372 3.72786 58.7715C3.145 60.6172 3.24213 62.5601 4.01927 64.2115L54.145 164.852C56.0879 168.737 61.4307 170.194 65.9965 168.252L184.316 116.474C186.745 115.503 188.494 113.56 189.368 111.326C190.048 109.48 189.951 107.537 189.076 105.886L138.951 5.34294C137.591 2.62294 134.579 1.06866 131.276 1.06866ZM61.8193 169.514C58.4193 169.514 55.2136 167.863 53.8536 165.046L3.63074 64.4058C2.75645 62.6572 2.65932 60.6172 3.33932 58.6744C4.21361 56.2458 6.15646 54.3029 8.68218 53.2344L126.905 1.55437C131.762 -0.582773 137.299 1.06866 139.339 5.14866L189.465 105.692C190.339 107.537 190.436 109.577 189.756 111.52C188.882 113.852 186.939 115.794 184.511 116.863L66.1907 168.64C64.7336 169.223 63.2764 169.514 61.8193 169.514Z" fill="white"/>
    </g>
    </mask>
    <g mask="url(#mask45_416_797)">
    <path d="M-578.449 -83.5427H511.494V1006.4H-578.449V-83.5427Z" fill="url(#paint15_linear_416_797)"/>
    </g>
    <mask id="mask48_416_797" style="mask-type:luminance" maskUnits="userSpaceOnUse" x="5" y="1" width="183" height="168">
    <mask id="mask49_416_797" style="mask-type:luminance" maskUnits="userSpaceOnUse" x="5" y="1" width="183" height="168">
    <mask id="mask50_416_797" style="mask-type:luminance" maskUnits="userSpaceOnUse" x="5" y="1" width="183" height="168">
    <path d="M137.591 1.84582C136.522 1.84582 135.357 2.04011 134.288 2.42868L11.888 44.8801C9.45945 45.7544 7.41941 47.503 6.44798 49.6401C5.5737 51.4858 5.4766 53.5258 6.25375 55.3715L47.4423 163.2C48.9966 167.28 54.1451 169.417 58.9051 167.766L181.208 125.217C183.637 124.44 185.677 122.692 186.648 120.554C187.522 118.612 187.619 116.572 186.939 114.726L145.751 6.99439C144.488 3.78867 141.185 1.84582 137.591 1.84582ZM55.5051 168.737C51.7166 168.737 48.3166 166.697 46.9566 163.297L5.76803 55.5658C5.08803 53.5258 5.18516 51.3887 6.05945 49.4458C7.12802 47.2115 9.16798 45.3658 11.7908 44.4915L134.094 2.0401C139.048 0.291534 144.391 2.42868 146.139 6.80011L187.328 114.629C188.008 116.572 187.911 118.709 187.037 120.652C185.968 122.983 183.928 124.732 181.402 125.703L59.0023 168.154C57.8366 168.543 56.6708 168.737 55.5051 168.737Z" fill="white"/>
    </mask>
    <g mask="url(#mask50_416_797)">
    <path d="M-578.449 -83.5427H511.494V1006.4H-578.449V-83.5427Z" fill="white"/>
    </g>
    </mask>
    <g mask="url(#mask49_416_797)">
    <path d="M137.591 1.84582C136.522 1.84582 135.357 2.04011 134.288 2.42868L11.888 44.8801C9.45945 45.7544 7.41941 47.503 6.44798 49.6401C5.5737 51.4858 5.4766 53.5258 6.25375 55.3715L47.4423 163.2C48.9966 167.28 54.1451 169.417 58.9051 167.766L181.208 125.217C183.637 124.44 185.677 122.692 186.648 120.554C187.522 118.612 187.619 116.572 186.939 114.726L145.751 6.99439C144.488 3.78867 141.185 1.84582 137.591 1.84582ZM55.5051 168.737C51.7166 168.737 48.3166 166.697 46.9566 163.297L5.76803 55.5658C5.08803 53.5258 5.18516 51.3887 6.05945 49.4458C7.12802 47.2115 9.16798 45.3658 11.7908 44.4915L134.094 2.0401C139.048 0.291534 144.391 2.42868 146.139 6.80011L187.328 114.629C188.008 116.572 187.911 118.709 187.037 120.652C185.968 122.983 183.928 124.732 181.402 125.703L59.0023 168.154C57.8366 168.543 56.6708 168.737 55.5051 168.737Z" fill="white"/>
    </g>
    </mask>
    <g mask="url(#mask48_416_797)">
    <path d="M-578.449 -83.5427H511.494V1006.4H-578.449V-83.5427Z" fill="url(#paint16_linear_416_797)"/>
    </g>
    <mask id="mask51_416_797" style="mask-type:luminance" maskUnits="userSpaceOnUse" x="8" y="2" width="177" height="166">
    <mask id="mask52_416_797" style="mask-type:luminance" maskUnits="userSpaceOnUse" x="8" y="2" width="177" height="166">
    <mask id="mask53_416_797" style="mask-type:luminance" maskUnits="userSpaceOnUse" x="8" y="2" width="177" height="166">
    <path d="M143.808 3.20578C143.031 3.20578 142.157 3.30291 141.282 3.59434L15.6765 36.2343C13.248 36.8172 11.1109 38.3715 9.94515 40.5086C8.87658 42.3543 8.58516 44.4915 9.16802 46.4343L40.7395 160.869C42.0023 165.24 46.9566 167.863 51.8137 166.6L177.419 133.96C179.848 133.28 181.985 131.726 183.151 129.686C184.219 127.84 184.511 125.703 183.928 123.663L152.357 9.22863C151.288 5.63434 147.791 3.20578 143.808 3.20578ZM49.288 167.377C45.1109 167.377 41.4194 164.851 40.3509 160.966L8.68231 46.5315C8.09945 44.4915 8.39084 42.2572 9.55656 40.2172C10.8194 38.0801 13.0537 36.4286 15.5794 35.7486L141.185 3.10863C146.334 1.84577 151.482 4.46863 152.745 9.13149L184.414 123.566C184.997 125.703 184.705 127.937 183.539 129.88C182.277 132.114 180.042 133.669 177.517 134.349L51.9109 166.989C51.0366 167.183 50.1623 167.377 49.288 167.377Z" fill="white"/>
    </mask>
    <g mask="url(#mask53_416_797)">
    <path d="M-578.449 -83.5428H511.494V1006.4H-578.449V-83.5428Z" fill="white"/>
    </g>
    </mask>
    <g mask="url(#mask52_416_797)">
    <path d="M143.808 3.20578C143.031 3.20578 142.157 3.30291 141.282 3.59434L15.6765 36.2343C13.248 36.8172 11.1109 38.3715 9.94515 40.5086C8.87658 42.3543 8.58516 44.4915 9.16802 46.4343L40.7395 160.869C42.0023 165.24 46.9566 167.863 51.8137 166.6L177.419 133.96C179.848 133.28 181.985 131.726 183.151 129.686C184.219 127.84 184.511 125.703 183.928 123.663L152.357 9.22863C151.288 5.63434 147.791 3.20578 143.808 3.20578ZM49.288 167.377C45.1109 167.377 41.4194 164.851 40.3509 160.966L8.68231 46.5315C8.09945 44.4915 8.39084 42.2572 9.55656 40.2172C10.8194 38.0801 13.0537 36.4286 15.5794 35.7486L141.185 3.10863C146.334 1.84577 151.482 4.46863 152.745 9.13149L184.414 123.566C184.997 125.703 184.705 127.937 183.539 129.88C182.277 132.114 180.042 133.669 177.517 134.349L51.9109 166.989C51.0366 167.183 50.1623 167.377 49.288 167.377Z" fill="white"/>
    </g>
    </mask>
    <g mask="url(#mask51_416_797)">
    <path d="M-578.449 -83.5428H511.494V1006.4H-578.449V-83.5428Z" fill="url(#paint17_linear_416_797)"/>
    </g>
    <mask id="mask54_416_797" style="mask-type:luminance" maskUnits="userSpaceOnUse" x="12" y="4" width="169" height="162">
    <mask id="mask55_416_797" style="mask-type:luminance" maskUnits="userSpaceOnUse" x="12" y="4" width="169" height="162">
    <mask id="mask56_416_797" style="mask-type:luminance" maskUnits="userSpaceOnUse" x="12" y="4" width="169" height="162">
    <path d="M149.928 5.24575C149.345 5.24575 148.859 5.24575 148.276 5.34289L20.2422 27.5886C17.8136 28.0743 15.6765 29.3372 14.2193 31.3772C12.9565 33.2229 12.4708 35.4572 12.8594 37.5943L34.4251 157.954C35.2022 162.52 39.9622 165.629 44.8193 164.754L172.854 142.509C175.282 142.12 177.419 140.76 178.876 138.72C180.139 136.874 180.625 134.737 180.236 132.6L158.671 12.24C157.991 8.16003 154.202 5.24575 149.928 5.24575ZM43.1679 165.337C38.6994 165.337 34.7165 162.326 33.9394 157.954L12.3737 37.5943C11.9851 35.36 12.5679 33.0286 13.8308 31.0858C15.3851 29.0457 17.6193 27.5886 20.2422 27.2L148.179 4.95432C153.328 4.08003 158.282 7.28575 159.156 12.1429L180.722 132.503C181.111 134.737 180.625 137.069 179.265 139.011C177.808 141.149 175.477 142.509 172.854 142.994L44.9165 165.24C44.3337 165.337 43.7508 165.337 43.1679 165.337Z" fill="white"/>
    </mask>
    <g mask="url(#mask56_416_797)">
    <path d="M-578.449 -83.5428H511.494V1006.4H-578.449V-83.5428Z" fill="white"/>
    </g>
    </mask>
    <g mask="url(#mask55_416_797)">
    <path d="M149.928 5.24575C149.345 5.24575 148.859 5.24575 148.276 5.34289L20.2422 27.5886C17.8136 28.0743 15.6765 29.3372 14.2193 31.3772C12.9565 33.2229 12.4708 35.4572 12.8594 37.5943L34.4251 157.954C35.2022 162.52 39.9622 165.629 44.8193 164.754L172.854 142.509C175.282 142.12 177.419 140.76 178.876 138.72C180.139 136.874 180.625 134.737 180.236 132.6L158.671 12.24C157.991 8.16003 154.202 5.24575 149.928 5.24575ZM43.1679 165.337C38.6994 165.337 34.7165 162.326 33.9394 157.954L12.3737 37.5943C11.9851 35.36 12.5679 33.0286 13.8308 31.0858C15.3851 29.0457 17.6193 27.5886 20.2422 27.2L148.179 4.95432C153.328 4.08003 158.282 7.28575 159.156 12.1429L180.722 132.503C181.111 134.737 180.625 137.069 179.265 139.011C177.808 141.149 175.477 142.509 172.854 142.994L44.9165 165.24C44.3337 165.337 43.7508 165.337 43.1679 165.337Z" fill="white"/>
    </g>
    </mask>
    <g mask="url(#mask54_416_797)">
    <path d="M-578.449 -83.5428H511.494V1006.4H-578.449V-83.5428Z" fill="url(#paint18_linear_416_797)"/>
    </g>
    <mask id="mask57_416_797" style="mask-type:luminance" maskUnits="userSpaceOnUse" x="16" y="7" width="161" height="156">
    <mask id="mask58_416_797" style="mask-type:luminance" maskUnits="userSpaceOnUse" x="16" y="7" width="161" height="156">
    <mask id="mask59_416_797" style="mask-type:luminance" maskUnits="userSpaceOnUse" x="16" y="7" width="161" height="156">
    <path d="M155.854 7.86857C155.562 7.86857 155.271 7.86857 154.979 7.86857L25.5851 19.2343C23.1565 19.4286 21.0194 20.4971 19.368 22.3429C17.8137 24.0914 17.1337 26.4229 17.3279 28.7543L28.3051 154.263C28.4994 156.594 29.6651 158.731 31.5108 160.286C33.3566 161.743 35.688 162.52 38.1165 162.229L167.511 150.96C172.562 150.474 176.254 146.2 175.768 141.343L164.791 15.8343C164.597 13.5029 163.528 11.3657 161.585 9.90857C160.031 8.54857 157.991 7.86857 155.854 7.86857ZM37.2422 162.714C35.0079 162.714 32.8708 162.034 31.2194 160.577C29.2765 159.023 28.0136 156.789 27.8194 154.36L16.8422 28.7543C16.6479 26.3257 17.4251 23.8971 19.0765 22.0514C20.7279 20.1086 23.0594 18.9429 25.5851 18.7486L154.979 7.38286C157.505 7.18857 159.934 7.96572 161.877 9.52C163.819 11.0743 165.082 13.3086 165.277 15.8343L176.254 141.343C176.739 146.394 172.757 150.96 167.608 151.349L38.1165 162.714C37.8251 162.714 37.5337 162.714 37.2422 162.714Z" fill="white"/>
    </mask>
    <g mask="url(#mask59_416_797)">
    <path d="M-578.449 -83.5428H511.494V1006.4H-578.449V-83.5428Z" fill="white"/>
    </g>
    </mask>
    <g mask="url(#mask58_416_797)">
    <path d="M155.854 7.86857C155.562 7.86857 155.271 7.86857 154.979 7.86857L25.5851 19.2343C23.1565 19.4286 21.0194 20.4971 19.368 22.3429C17.8137 24.0914 17.1337 26.4229 17.3279 28.7543L28.3051 154.263C28.4994 156.594 29.6651 158.731 31.5108 160.286C33.3566 161.743 35.688 162.52 38.1165 162.229L167.511 150.96C172.562 150.474 176.254 146.2 175.768 141.343L164.791 15.8343C164.597 13.5029 163.528 11.3657 161.585 9.90857C160.031 8.54857 157.991 7.86857 155.854 7.86857ZM37.2422 162.714C35.0079 162.714 32.8708 162.034 31.2194 160.577C29.2765 159.023 28.0136 156.789 27.8194 154.36L16.8422 28.7543C16.6479 26.3257 17.4251 23.8971 19.0765 22.0514C20.7279 20.1086 23.0594 18.9429 25.5851 18.7486L154.979 7.38286C157.505 7.18857 159.934 7.96572 161.877 9.52C163.819 11.0743 165.082 13.3086 165.277 15.8343L176.254 141.343C176.739 146.394 172.757 150.96 167.608 151.349L38.1165 162.714C37.8251 162.714 37.5337 162.714 37.2422 162.714Z" fill="white"/>
    </g>
    </mask>
    <g mask="url(#mask57_416_797)">
    <path d="M-578.449 -83.5428H511.494V1006.4H-578.449V-83.5428Z" fill="url(#paint19_linear_416_797)"/>
    </g>
    <mask id="mask60_416_797" style="mask-type:luminance" maskUnits="userSpaceOnUse" x="22" y="10" width="150" height="150">
    <mask id="mask61_416_797" style="mask-type:luminance" maskUnits="userSpaceOnUse" x="22" y="10" width="150" height="150">
    <mask id="mask62_416_797" style="mask-type:luminance" maskUnits="userSpaceOnUse" x="22" y="10" width="150" height="150">
    <path d="M31.6079 11.0742C26.5565 11.0742 22.4764 15.1542 22.4764 20.1085V149.988C22.4764 155.04 26.5565 159.12 31.6079 159.12H161.488C166.539 159.12 170.619 155.04 170.619 149.988V20.1085C170.619 15.1542 166.539 11.0742 161.488 11.0742H31.6079ZM161.488 159.606H31.6079C26.3622 159.606 22.0879 155.331 22.0879 149.988V20.1085C22.0879 14.8628 26.3622 10.5885 31.6079 10.5885H161.488C166.734 10.5885 171.008 14.8628 171.008 20.1085V149.988C171.008 155.331 166.734 159.606 161.488 159.606Z" fill="white"/>
    </mask>
    <g mask="url(#mask62_416_797)">
    <path d="M-578.449 -83.543H511.494V1006.4H-578.449V-83.543Z" fill="white"/>
    </g>
    </mask>
    <g mask="url(#mask61_416_797)">
    <path d="M31.6079 11.0742C26.5565 11.0742 22.4764 15.1542 22.4764 20.1085V149.988C22.4764 155.04 26.5565 159.12 31.6079 159.12H161.488C166.539 159.12 170.619 155.04 170.619 149.988V20.1085C170.619 15.1542 166.539 11.0742 161.488 11.0742H31.6079ZM161.488 159.606H31.6079C26.3622 159.606 22.0879 155.331 22.0879 149.988V20.1085C22.0879 14.8628 26.3622 10.5885 31.6079 10.5885H161.488C166.734 10.5885 171.008 14.8628 171.008 20.1085V149.988C171.008 155.331 166.734 159.606 161.488 159.606Z" fill="white"/>
    </g>
    </mask>
    <g mask="url(#mask60_416_797)">
    <path d="M-578.449 -83.543H511.494V1006.4H-578.449V-83.543Z" fill="url(#paint20_linear_416_797)"/>
    </g>
    <defs>
    <linearGradient id="paint0_linear_416_797" x1="40.8873" y1="85.0691" x2="152.225" y2="85.0691" gradientUnits="userSpaceOnUse">
    <stop stop-color="#3DDEED"/>
    <stop offset="1" stop-color="#CB00DD"/>
    </linearGradient>
    <linearGradient id="paint1_linear_416_797" x1="35.2565" y1="85.0691" x2="157.855" y2="85.0691" gradientUnits="userSpaceOnUse">
    <stop stop-color="#3DDEED"/>
    <stop offset="1" stop-color="#CB00DD"/>
    </linearGradient>
    <linearGradient id="paint2_linear_416_797" x1="29.8722" y1="85.069" x2="163.24" y2="85.069" gradientUnits="userSpaceOnUse">
    <stop stop-color="#3DDEED"/>
    <stop offset="1" stop-color="#CB00DD"/>
    </linearGradient>
    <linearGradient id="paint3_linear_416_797" x1="24.7914" y1="85.069" x2="168.319" y2="85.069" gradientUnits="userSpaceOnUse">
    <stop stop-color="#3DDEED"/>
    <stop offset="1" stop-color="#CB00DD"/>
    </linearGradient>
    <linearGradient id="paint4_linear_416_797" x1="20.0527" y1="85.0689" x2="173.058" y2="85.0689" gradientUnits="userSpaceOnUse">
    <stop stop-color="#3DDEED"/>
    <stop offset="1" stop-color="#CB00DD"/>
    </linearGradient>
    <linearGradient id="paint5_linear_416_797" x1="15.7105" y1="85.0692" x2="177.401" y2="85.0692" gradientUnits="userSpaceOnUse">
    <stop stop-color="#3DDEED"/>
    <stop offset="1" stop-color="#CB00DD"/>
    </linearGradient>
    <linearGradient id="paint6_linear_416_797" x1="11.8102" y1="85.0691" x2="181.301" y2="85.0691" gradientUnits="userSpaceOnUse">
    <stop stop-color="#3DDEED"/>
    <stop offset="1" stop-color="#CB00DD"/>
    </linearGradient>
    <linearGradient id="paint7_linear_416_797" x1="8.39662" y1="85.069" x2="184.714" y2="85.069" gradientUnits="userSpaceOnUse">
    <stop stop-color="#3DDEED"/>
    <stop offset="1" stop-color="#CB00DD"/>
    </linearGradient>
    <linearGradient id="paint8_linear_416_797" x1="5.5134" y1="85.069" x2="187.599" y2="85.069" gradientUnits="userSpaceOnUse">
    <stop stop-color="#3DDEED"/>
    <stop offset="1" stop-color="#CB00DD"/>
    </linearGradient>
    <linearGradient id="paint9_linear_416_797" x1="3.1967" y1="85.069" x2="189.915" y2="85.069" gradientUnits="userSpaceOnUse">
    <stop stop-color="#3DDEED"/>
    <stop offset="1" stop-color="#CB00DD"/>
    </linearGradient>
    <linearGradient id="paint10_linear_416_797" x1="1.48297" y1="85.069" x2="191.627" y2="85.069" gradientUnits="userSpaceOnUse">
    <stop stop-color="#3DDEED"/>
    <stop offset="1" stop-color="#CB00DD"/>
    </linearGradient>
    <linearGradient id="paint11_linear_416_797" x1="0.404664" y1="85.069" x2="192.708" y2="85.069" gradientUnits="userSpaceOnUse">
    <stop stop-color="#3DDEED"/>
    <stop offset="1" stop-color="#CB00DD"/>
    </linearGradient>
    <linearGradient id="paint12_linear_416_797" x1="-0.0140206" y1="85.0692" x2="193.124" y2="85.0692" gradientUnits="userSpaceOnUse">
    <stop stop-color="#3DDEED"/>
    <stop offset="1" stop-color="#CB00DD"/>
    </linearGradient>
    <linearGradient id="paint13_linear_416_797" x1="0.253363" y1="85.0688" x2="192.859" y2="85.0688" gradientUnits="userSpaceOnUse">
    <stop stop-color="#3DDEED"/>
    <stop offset="1" stop-color="#CB00DD"/>
    </linearGradient>
    <linearGradient id="paint14_linear_416_797" x1="1.22065" y1="85.069" x2="191.891" y2="85.069" gradientUnits="userSpaceOnUse">
    <stop stop-color="#3DDEED"/>
    <stop offset="1" stop-color="#CB00DD"/>
    </linearGradient>
    <linearGradient id="paint15_linear_416_797" x1="2.90219" y1="85.0691" x2="190.209" y2="85.0691" gradientUnits="userSpaceOnUse">
    <stop stop-color="#3DDEED"/>
    <stop offset="1" stop-color="#CB00DD"/>
    </linearGradient>
    <linearGradient id="paint16_linear_416_797" x1="5.30586" y1="85.0691" x2="187.807" y2="85.0691" gradientUnits="userSpaceOnUse">
    <stop stop-color="#3DDEED"/>
    <stop offset="1" stop-color="#CB00DD"/>
    </linearGradient>
    <linearGradient id="paint17_linear_416_797" x1="8.42961" y1="85.0691" x2="184.682" y2="85.0691" gradientUnits="userSpaceOnUse">
    <stop stop-color="#3DDEED"/>
    <stop offset="1" stop-color="#CB00DD"/>
    </linearGradient>
    <linearGradient id="paint18_linear_416_797" x1="12.2726" y1="85.069" x2="180.839" y2="85.069" gradientUnits="userSpaceOnUse">
    <stop stop-color="#3DDEED"/>
    <stop offset="1" stop-color="#CB00DD"/>
    </linearGradient>
    <linearGradient id="paint19_linear_416_797" x1="16.8218" y1="85.0691" x2="176.289" y2="85.0691" gradientUnits="userSpaceOnUse">
    <stop stop-color="#3DDEED"/>
    <stop offset="1" stop-color="#CB00DD"/>
    </linearGradient>
    <linearGradient id="paint20_linear_416_797" x1="22.0617" y1="85.0689" x2="171.05" y2="85.0689" gradientUnits="userSpaceOnUse">
    <stop stop-color="#3DDEED"/>
    <stop offset="1" stop-color="#CB00DD"/>
    </linearGradient>
    <clipPath id="clip0_416_797">
    <rect width="191.371" height="161.257" fill="white" transform="translate(0.522217 4.85715)"/>
    </clipPath>
    <clipPath id="clip1_416_797">
    <rect width="191.371" height="170" fill="white" transform="translate(0.522217)"/>
    </clipPath>
    </defs>
</svg>