<svg width="105" height="72" viewBox="0 0 105 72" fill="none" xmlns="http://www.w3.org/2000/svg">
<mask id="mask0_761_202" style="mask-type:luminance" maskUnits="userSpaceOnUse" x="33" y="10" width="93" height="120">
<mask id="mask1_761_202" style="mask-type:luminance" maskUnits="userSpaceOnUse" x="33" y="10" width="93" height="120">
<mask id="mask2_761_202" style="mask-type:luminance" maskUnits="userSpaceOnUse" x="33" y="10" width="93" height="120">
<path d="M121.456 11.2664C120.896 11.2664 120.416 11.3469 119.776 11.5883L41.7858 37.0984C38.7461 38.1446 36.1864 41.444 36.1065 44.5824L33.9468 125.539C33.9468 127.068 34.4267 128.275 35.3866 128.999C36.3464 129.723 37.7063 129.884 39.2261 129.401L117.216 103.811C120.256 102.845 122.815 99.4653 122.895 96.3269L125.055 15.3706C125.135 13.922 124.575 12.7149 123.615 11.9907C123.055 11.5078 122.255 11.2664 121.456 11.2664ZM37.5463 129.965C36.6664 129.965 35.8665 129.723 35.2266 129.241C34.1867 128.436 33.6268 127.148 33.7068 125.539L35.8665 44.5824C35.9465 41.3635 38.5861 37.9031 41.7057 36.857L119.696 11.2664C121.296 10.7836 122.735 10.9445 123.775 11.7492C124.815 12.554 125.375 13.8416 125.375 15.3706L123.135 96.3269C123.055 99.5458 120.496 103.087 117.296 104.052L39.306 129.643C38.6661 129.884 38.1062 129.965 37.5463 129.965Z" fill="white"/>
</mask>
<g mask="url(#mask2_761_202)">
<path d="M-476.309 -69.207H421.177V833.705H-476.309V-69.207Z" fill="white"/>
</g>
</mask>
<g mask="url(#mask1_761_202)">
<path d="M121.456 11.2664C120.896 11.2664 120.416 11.3469 119.776 11.5883L41.7858 37.0984C38.7461 38.1446 36.1864 41.444 36.1065 44.5824L33.9468 125.539C33.9468 127.068 34.4267 128.275 35.3866 128.999C36.3464 129.723 37.7063 129.884 39.2261 129.401L117.216 103.811C120.256 102.845 122.815 99.4653 122.895 96.3269L125.055 15.3706C125.135 13.922 124.575 12.7149 123.615 11.9907C123.055 11.5078 122.255 11.2664 121.456 11.2664ZM37.5463 129.965C36.6664 129.965 35.8665 129.723 35.2266 129.241C34.1867 128.436 33.6268 127.148 33.7068 125.539L35.8665 44.5824C35.9465 41.3635 38.5861 37.9031 41.7057 36.857L119.696 11.2664C121.296 10.7836 122.735 10.9445 123.775 11.7492C124.815 12.554 125.375 13.8416 125.375 15.3706L123.135 96.3269C123.055 99.5458 120.496 103.087 117.296 104.052L39.306 129.643C38.6661 129.884 38.1062 129.965 37.5463 129.965Z" fill="white"/>
</g>
</mask>
<g mask="url(#mask0_761_202)">
<path d="M-476.309 -69.207H421.177V833.705H-476.309V-69.207Z" fill="url(#paint0_linear_761_202)"/>
</g>
<mask id="mask3_761_202" style="mask-type:luminance" maskUnits="userSpaceOnUse" x="29" y="13" width="101" height="115">
<mask id="mask4_761_202" style="mask-type:luminance" maskUnits="userSpaceOnUse" x="29" y="13" width="101" height="115">
<mask id="mask5_761_202" style="mask-type:luminance" maskUnits="userSpaceOnUse" x="29" y="13" width="101" height="115">
<path d="M126.013 13.4391C125.613 13.4391 125.213 13.5196 124.733 13.6001L44.8233 32.8332C41.7037 33.5575 38.904 36.7764 38.5041 39.9954L29.3853 122.964C29.1453 124.493 29.6252 125.78 30.5051 126.585C31.465 127.47 32.7448 127.711 34.2646 127.309L114.174 108.156C117.294 107.352 120.094 104.133 120.494 100.914L129.692 18.0261C129.852 16.4971 129.452 15.1291 128.493 14.3243C127.853 13.761 126.973 13.4391 126.013 13.4391ZM32.9848 127.792C31.945 127.792 31.0651 127.47 30.3452 126.826C29.3053 125.941 28.9053 124.573 29.0653 122.883L38.2641 39.9954C38.5841 36.6155 41.5437 33.3161 44.7433 32.5113L124.733 13.3587C126.253 12.9563 127.693 13.1977 128.653 14.0829C129.692 14.9681 130.092 16.4166 129.932 18.0261L120.734 100.994C120.414 104.294 117.454 107.674 114.254 108.398L34.3447 127.631C33.8647 127.711 33.3848 127.792 32.9848 127.792Z" fill="white"/>
</mask>
<g mask="url(#mask5_761_202)">
<path d="M-476.312 -69.207H421.173V833.705H-476.312V-69.207Z" fill="white"/>
</g>
</mask>
<g mask="url(#mask4_761_202)">
<path d="M126.013 13.4391C125.613 13.4391 125.213 13.5196 124.733 13.6001L44.8233 32.8332C41.7037 33.5575 38.904 36.7764 38.5041 39.9954L29.3853 122.964C29.1453 124.493 29.6252 125.78 30.5051 126.585C31.465 127.47 32.7448 127.711 34.2646 127.309L114.174 108.156C117.294 107.352 120.094 104.133 120.494 100.914L129.692 18.0261C129.852 16.4971 129.452 15.1291 128.493 14.3243C127.853 13.761 126.973 13.4391 126.013 13.4391ZM32.9848 127.792C31.945 127.792 31.0651 127.47 30.3452 126.826C29.3053 125.941 28.9053 124.573 29.0653 122.883L38.2641 39.9954C38.5841 36.6155 41.5437 33.3161 44.7433 32.5113L124.733 13.3587C126.253 12.9563 127.693 13.1977 128.653 14.0829C129.692 14.9681 130.092 16.4166 129.932 18.0261L120.734 100.994C120.414 104.294 117.454 107.674 114.254 108.398L34.3447 127.631C33.8647 127.711 33.3848 127.792 32.9848 127.792Z" fill="white"/>
</g>
</mask>
<g mask="url(#mask3_761_202)">
<path d="M-476.312 -69.207H421.173V833.705H-476.312V-69.207Z" fill="url(#paint1_linear_761_202)"/>
</g>
<mask id="mask6_761_202" style="mask-type:luminance" maskUnits="userSpaceOnUse" x="24" y="15" width="111" height="111">
<mask id="mask7_761_202" style="mask-type:luminance" maskUnits="userSpaceOnUse" x="24" y="15" width="111" height="111">
<mask id="mask8_761_202" style="mask-type:luminance" maskUnits="userSpaceOnUse" x="24" y="15" width="111" height="111">
<path d="M130.331 16.0947C130.092 16.0947 129.772 16.0947 129.532 16.1751L48.182 28.6485C45.0624 29.1314 41.9428 32.1894 41.3028 35.4888L24.985 119.825C24.665 121.434 24.9849 122.802 25.8648 123.768C26.7447 124.653 28.0245 124.975 29.4644 124.814L110.814 112.26C113.934 111.778 117.053 108.72 117.693 105.501L134.011 21.1645C134.331 19.555 134.011 18.1065 133.131 17.2213C132.411 16.497 131.451 16.0947 130.331 16.0947ZM28.6645 125.136C27.4646 125.136 26.4247 124.734 25.7048 123.929C24.745 122.963 24.425 121.434 24.745 119.744L41.0629 35.4083C41.7028 32.0284 44.9024 28.8899 48.182 28.4071L129.452 15.8532C131.051 15.6118 132.411 16.0142 133.291 16.9799C134.251 18.026 134.651 19.4745 134.331 21.1645L117.933 105.501C117.293 108.881 114.094 112.1 110.814 112.582L29.5444 125.056C29.2244 125.136 28.9844 125.136 28.6645 125.136Z" fill="white"/>
</mask>
<g mask="url(#mask8_761_202)">
<path d="M-476.312 -69.2072H421.173V833.705H-476.312V-69.2072Z" fill="white"/>
</g>
</mask>
<g mask="url(#mask7_761_202)">
<path d="M130.331 16.0947C130.092 16.0947 129.772 16.0947 129.532 16.1751L48.182 28.6485C45.0624 29.1314 41.9428 32.1894 41.3028 35.4888L24.985 119.825C24.665 121.434 24.9849 122.802 25.8648 123.768C26.7447 124.653 28.0245 124.975 29.4644 124.814L110.814 112.26C113.934 111.778 117.053 108.72 117.693 105.501L134.011 21.1645C134.331 19.555 134.011 18.1065 133.131 17.2213C132.411 16.497 131.451 16.0947 130.331 16.0947ZM28.6645 125.136C27.4646 125.136 26.4247 124.734 25.7048 123.929C24.745 122.963 24.425 121.434 24.745 119.744L41.0629 35.4083C41.7028 32.0284 44.9024 28.8899 48.182 28.4071L129.452 15.8532C131.051 15.6118 132.411 16.0142 133.291 16.9799C134.251 18.026 134.651 19.4745 134.331 21.1645L117.933 105.501C117.293 108.881 114.094 112.1 110.814 112.582L29.5444 125.056C29.2244 125.136 28.9844 125.136 28.6645 125.136Z" fill="white"/>
</g>
</mask>
<g mask="url(#mask6_761_202)">
<path d="M-476.312 -69.2072H421.173V833.705H-476.312V-69.2072Z" fill="url(#paint2_linear_761_202)"/>
</g>
<mask id="mask9_761_202" style="mask-type:luminance" maskUnits="userSpaceOnUse" x="20" y="18" width="119" height="105">
<mask id="mask10_761_202" style="mask-type:luminance" maskUnits="userSpaceOnUse" x="20" y="18" width="119" height="105">
<mask id="mask11_761_202" style="mask-type:luminance" maskUnits="userSpaceOnUse" x="20" y="18" width="119" height="105">
<path d="M134.414 19.2331C134.254 19.2331 134.174 19.2331 134.014 19.2331L51.9448 24.7053C48.7452 24.8662 45.3856 27.7633 44.5057 31.0627L20.9088 116.204C20.5088 117.813 20.6688 119.342 21.5487 120.388C22.2686 121.354 23.5485 121.837 24.9883 121.756L107.058 116.284C110.257 116.043 113.617 113.146 114.497 109.846L138.094 24.7053C138.494 23.0958 138.334 21.5668 137.454 20.5207C136.734 19.6355 135.694 19.2331 134.414 19.2331ZM24.5883 122.078C23.2285 122.078 22.1086 121.515 21.3087 120.63C20.4288 119.503 20.1889 117.894 20.6688 116.123L44.2658 30.9822C45.1457 27.6023 48.6652 24.6248 51.9448 24.3834L134.014 18.9112C135.534 18.8307 136.894 19.3136 137.694 20.3597C138.574 21.4864 138.814 23.0958 138.334 24.7858L114.817 109.927C113.857 113.387 110.417 116.365 107.058 116.526L24.9883 121.998C24.9083 121.998 24.7483 122.078 24.5883 122.078Z" fill="white"/>
</mask>
<g mask="url(#mask11_761_202)">
<path d="M-476.309 -69.2072H421.177V833.705H-476.309V-69.2072Z" fill="white"/>
</g>
</mask>
<g mask="url(#mask10_761_202)">
<path d="M134.414 19.2331C134.254 19.2331 134.174 19.2331 134.014 19.2331L51.9448 24.7053C48.7452 24.8662 45.3856 27.7633 44.5057 31.0627L20.9088 116.204C20.5088 117.813 20.6688 119.342 21.5487 120.388C22.2686 121.354 23.5485 121.837 24.9883 121.756L107.058 116.284C110.257 116.043 113.617 113.146 114.497 109.846L138.094 24.7053C138.494 23.0958 138.334 21.5668 137.454 20.5207C136.734 19.6355 135.694 19.2331 134.414 19.2331ZM24.5883 122.078C23.2285 122.078 22.1086 121.515 21.3087 120.63C20.4288 119.503 20.1889 117.894 20.6688 116.123L44.2658 30.9822C45.1457 27.6023 48.6652 24.6248 51.9448 24.3834L134.014 18.9112C135.534 18.8307 136.894 19.3136 137.694 20.3597C138.574 21.4864 138.814 23.0958 138.334 24.7858L114.817 109.927C113.857 113.387 110.417 116.365 107.058 116.526L24.9883 121.998C24.9083 121.998 24.7483 122.078 24.5883 122.078Z" fill="white"/>
</g>
</mask>
<g mask="url(#mask9_761_202)">
<path d="M-476.309 -69.2072H421.177V833.705H-476.309V-69.2072Z" fill="url(#paint3_linear_761_202)"/>
</g>
<mask id="mask12_761_202" style="mask-type:luminance" maskUnits="userSpaceOnUse" x="16" y="20" width="127" height="101">
<mask id="mask13_761_202" style="mask-type:luminance" maskUnits="userSpaceOnUse" x="16" y="20" width="127" height="101">
<mask id="mask14_761_202" style="mask-type:luminance" maskUnits="userSpaceOnUse" x="16" y="20" width="127" height="101">
<path d="M55.8616 20.9231C52.742 20.9231 49.2225 23.5787 48.0226 26.8781L17.2265 112.18C16.5866 113.789 16.6666 115.399 17.4665 116.606C18.1864 117.572 19.3063 118.135 20.7461 118.215L102.976 119.986C106.175 120.066 109.775 117.411 110.975 114.111L141.851 28.8095C142.411 27.1195 142.331 25.5101 141.531 24.3834C140.891 23.3373 139.691 22.774 138.251 22.774L56.0216 20.9231C55.9416 20.9231 55.9416 20.9231 55.8616 20.9231ZM103.136 120.308C103.056 120.308 103.056 120.308 102.976 120.308L20.7461 118.457C19.2263 118.457 17.9465 117.813 17.2265 116.767C16.4267 115.56 16.2667 113.789 16.9066 112.019L47.7826 26.7172C48.9825 23.3373 52.582 20.6816 55.8616 20.6816C55.9416 20.6816 55.9416 20.6816 56.0216 20.6816L138.251 22.4521C139.771 22.4521 141.051 23.0958 141.771 24.2225C142.651 25.4296 142.73 27.1195 142.091 28.8899L111.215 114.192C110.015 117.572 106.415 120.308 103.136 120.308Z" fill="white"/>
</mask>
<g mask="url(#mask14_761_202)">
<path d="M-476.309 -69.2072H421.177V833.705H-476.309V-69.2072Z" fill="white"/>
</g>
</mask>
<g mask="url(#mask13_761_202)">
<path d="M55.8616 20.9231C52.742 20.9231 49.2225 23.5787 48.0226 26.8781L17.2265 112.18C16.5866 113.789 16.6666 115.399 17.4665 116.606C18.1864 117.572 19.3063 118.135 20.7461 118.215L102.976 119.986C106.175 120.066 109.775 117.411 110.975 114.111L141.851 28.8095C142.411 27.1195 142.331 25.5101 141.531 24.3834C140.891 23.3373 139.691 22.774 138.251 22.774L56.0216 20.9231C55.9416 20.9231 55.9416 20.9231 55.8616 20.9231ZM103.136 120.308C103.056 120.308 103.056 120.308 102.976 120.308L20.7461 118.457C19.2263 118.457 17.9465 117.813 17.2265 116.767C16.4267 115.56 16.2667 113.789 16.9066 112.019L47.7826 26.7172C48.9825 23.3373 52.582 20.6816 55.8616 20.6816C55.9416 20.6816 55.9416 20.6816 56.0216 20.6816L138.251 22.4521C139.771 22.4521 141.051 23.0958 141.771 24.2225C142.651 25.4296 142.73 27.1195 142.091 28.8899L111.215 114.192C110.015 117.572 106.415 120.308 103.136 120.308Z" fill="white"/>
</g>
</mask>
<g mask="url(#mask12_761_202)">
<path d="M-476.309 -69.2072H421.177V833.705H-476.309V-69.2072Z" fill="url(#paint4_linear_761_202)"/>
</g>
<mask id="mask15_761_202" style="mask-type:luminance" maskUnits="userSpaceOnUse" x="12" y="17" width="135" height="107">
<mask id="mask16_761_202" style="mask-type:luminance" maskUnits="userSpaceOnUse" x="12" y="17" width="135" height="107">
<mask id="mask17_761_202" style="mask-type:luminance" maskUnits="userSpaceOnUse" x="12" y="17" width="135" height="107">
<path d="M59.7819 17.4628C56.7423 17.4628 53.3027 19.7161 51.9429 22.8545L13.8678 107.674C13.0679 109.364 13.0679 111.053 13.7078 112.261C14.3477 113.307 15.4676 114.031 16.8274 114.192L98.577 123.446C101.777 123.768 105.536 121.435 107.056 118.135L145.211 33.3161C145.931 31.6261 146.011 29.9362 145.291 28.6486C144.651 27.6025 143.531 26.9587 142.171 26.7977L60.4218 17.4628C60.1819 17.4628 59.9419 17.4628 59.7819 17.4628ZM99.2169 123.768C99.0569 123.768 98.8169 123.768 98.577 123.768L16.8274 114.433C15.3076 114.272 14.1077 113.548 13.4678 112.421C12.7479 111.053 12.7479 109.283 13.5478 107.513L51.7029 22.6936C53.2227 19.3137 57.1422 16.819 60.4218 17.2214L142.171 26.4758C143.691 26.6368 144.891 27.361 145.531 28.4877C146.251 29.8557 146.251 31.6261 145.451 33.3965L107.296 118.216C105.936 121.435 102.416 123.768 99.2169 123.768Z" fill="white"/>
</mask>
<g mask="url(#mask17_761_202)">
<path d="M-476.309 -69.207H421.177V833.705H-476.309V-69.207Z" fill="white"/>
</g>
</mask>
<g mask="url(#mask16_761_202)">
<path d="M59.7819 17.4628C56.7423 17.4628 53.3027 19.7161 51.9429 22.8545L13.8678 107.674C13.0679 109.364 13.0679 111.053 13.7078 112.261C14.3477 113.307 15.4676 114.031 16.8274 114.192L98.577 123.446C101.777 123.768 105.536 121.435 107.056 118.135L145.211 33.3161C145.931 31.6261 146.011 29.9362 145.291 28.6486C144.651 27.6025 143.531 26.9587 142.171 26.7977L60.4218 17.4628C60.1819 17.4628 59.9419 17.4628 59.7819 17.4628ZM99.2169 123.768C99.0569 123.768 98.8169 123.768 98.577 123.768L16.8274 114.433C15.3076 114.272 14.1077 113.548 13.4678 112.421C12.7479 111.053 12.7479 109.283 13.5478 107.513L51.7029 22.6936C53.2227 19.3137 57.1422 16.819 60.4218 17.2214L142.171 26.4758C143.691 26.6368 144.891 27.361 145.531 28.4877C146.251 29.8557 146.251 31.6261 145.451 33.3965L107.296 118.216C105.936 121.435 102.416 123.768 99.2169 123.768Z" fill="white"/>
</g>
</mask>
<g mask="url(#mask15_761_202)">
<path d="M-476.309 -69.207H421.177V833.705H-476.309V-69.207Z" fill="url(#paint5_linear_761_202)"/>
</g>
<mask id="mask18_761_202" style="mask-type:luminance" maskUnits="userSpaceOnUse" x="9" y="13" width="141" height="115">
<mask id="mask19_761_202" style="mask-type:luminance" maskUnits="userSpaceOnUse" x="9" y="13" width="141" height="115">
<mask id="mask20_761_202" style="mask-type:luminance" maskUnits="userSpaceOnUse" x="9" y="13" width="141" height="115">
<path d="M63.8597 14.2439C60.9801 14.2439 57.7005 16.1753 56.1807 19.0723L10.8265 102.684C9.94664 104.374 9.78666 106.145 10.4266 107.513C10.9065 108.639 11.9464 109.444 13.3062 109.685L93.9359 126.585C97.0555 127.229 101.055 125.136 102.815 121.917L148.169 38.225C149.049 36.535 149.209 34.7646 148.649 33.3966C148.089 32.3504 147.049 31.5457 145.689 31.2238L65.0596 14.3244C64.6596 14.2439 64.2597 14.2439 63.8597 14.2439ZM95.1358 127.068C94.7358 127.068 94.2558 126.987 93.8559 126.907L13.2262 110.007C11.7864 109.685 10.6665 108.881 10.1066 107.674C9.46668 106.225 9.62669 104.374 10.5866 102.523L55.9408 18.9114C57.7805 15.5315 61.86 13.3587 65.1396 14.0025L145.769 30.9824C147.209 31.2238 148.329 32.109 148.889 33.3161C149.529 34.7646 149.369 36.6155 148.409 38.3859L103.055 122.078C101.455 124.975 98.0954 127.068 95.1358 127.068Z" fill="white"/>
</mask>
<g mask="url(#mask20_761_202)">
<path d="M-476.312 -69.2072H421.173V833.705H-476.312V-69.2072Z" fill="white"/>
</g>
</mask>
<g mask="url(#mask19_761_202)">
<path d="M63.8597 14.2439C60.9801 14.2439 57.7005 16.1753 56.1807 19.0723L10.8265 102.684C9.94664 104.374 9.78666 106.145 10.4266 107.513C10.9065 108.639 11.9464 109.444 13.3062 109.685L93.9359 126.585C97.0555 127.229 101.055 125.136 102.815 121.917L148.169 38.225C149.049 36.535 149.209 34.7646 148.649 33.3966C148.089 32.3504 147.049 31.5457 145.689 31.2238L65.0596 14.3244C64.6596 14.2439 64.2597 14.2439 63.8597 14.2439ZM95.1358 127.068C94.7358 127.068 94.2558 126.987 93.8559 126.907L13.2262 110.007C11.7864 109.685 10.6665 108.881 10.1066 107.674C9.46668 106.225 9.62669 104.374 10.5866 102.523L55.9408 18.9114C57.7805 15.5315 61.86 13.3587 65.1396 14.0025L145.769 30.9824C147.209 31.2238 148.329 32.109 148.889 33.3161C149.529 34.7646 149.369 36.6155 148.409 38.3859L103.055 122.078C101.455 124.975 98.0954 127.068 95.1358 127.068Z" fill="white"/>
</g>
</mask>
<g mask="url(#mask18_761_202)">
<path d="M-476.312 -69.2072H421.173V833.705H-476.312V-69.2072Z" fill="url(#paint6_linear_761_202)"/>
</g>
<mask id="mask21_761_202" style="mask-type:luminance" maskUnits="userSpaceOnUse" x="6" y="10" width="147" height="120">
<mask id="mask22_761_202" style="mask-type:luminance" maskUnits="userSpaceOnUse" x="6" y="10" width="147" height="120">
<mask id="mask23_761_202" style="mask-type:luminance" maskUnits="userSpaceOnUse" x="6" y="10" width="147" height="120">
<path d="M68.2622 11.2663C65.4626 11.2663 62.423 12.9562 60.7432 15.5314L8.34991 97.3729C7.23005 99.0628 6.91006 100.833 7.46999 102.282C7.86994 103.489 8.82981 104.374 10.1096 104.776L89.0596 129.401C92.0992 130.367 96.2587 128.597 98.2584 125.378L150.652 43.6166C151.772 41.9267 152.092 40.0758 151.532 38.6272C151.132 37.4201 150.172 36.6154 148.892 36.213L69.942 11.5077C69.4621 11.3467 68.8222 11.2663 68.2622 11.2663ZM90.7394 129.965C90.1795 129.965 89.5395 129.884 88.9796 129.723L10.0297 105.098C8.66985 104.615 7.63 103.65 7.15006 102.443C6.59013 100.833 6.91005 98.9824 8.1099 97.2119L60.5032 15.3704C62.5829 12.071 66.9024 10.2201 70.102 11.1858L148.972 35.8912C150.332 36.2935 151.372 37.2592 151.852 38.5468C152.411 40.0758 152.092 42.0071 150.972 43.7775L98.4984 125.539C96.8186 128.275 93.619 129.965 90.7394 129.965Z" fill="white"/>
</mask>
<g mask="url(#mask23_761_202)">
<path d="M-476.312 -69.2072H421.173V833.705H-476.312V-69.2072Z" fill="white"/>
</g>
</mask>
<g mask="url(#mask22_761_202)">
<path d="M68.2622 11.2663C65.4626 11.2663 62.423 12.9562 60.7432 15.5314L8.34991 97.3729C7.23005 99.0628 6.91006 100.833 7.46999 102.282C7.86994 103.489 8.82981 104.374 10.1096 104.776L89.0596 129.401C92.0992 130.367 96.2587 128.597 98.2584 125.378L150.652 43.6166C151.772 41.9267 152.092 40.0758 151.532 38.6272C151.132 37.4201 150.172 36.6154 148.892 36.213L69.942 11.5077C69.4621 11.3467 68.8222 11.2663 68.2622 11.2663ZM90.7394 129.965C90.1795 129.965 89.5395 129.884 88.9796 129.723L10.0297 105.098C8.66985 104.615 7.63 103.65 7.15006 102.443C6.59013 100.833 6.91005 98.9824 8.1099 97.2119L60.5032 15.3704C62.5829 12.071 66.9024 10.2201 70.102 11.1858L148.972 35.8912C150.332 36.2935 151.372 37.2592 151.852 38.5468C152.411 40.0758 152.092 42.0071 150.972 43.7775L98.4984 125.539C96.8186 128.275 93.619 129.965 90.7394 129.965Z" fill="white"/>
</g>
</mask>
<g mask="url(#mask21_761_202)">
<path d="M-476.312 -69.2072H421.173V833.705H-476.312V-69.2072Z" fill="url(#paint7_linear_761_202)"/>
</g>
<mask id="mask24_761_202" style="mask-type:luminance" maskUnits="userSpaceOnUse" x="4" y="8" width="151" height="125">
<mask id="mask25_761_202" style="mask-type:luminance" maskUnits="userSpaceOnUse" x="4" y="8" width="151" height="125">
<mask id="mask26_761_202" style="mask-type:luminance" maskUnits="userSpaceOnUse" x="4" y="8" width="151" height="125">
<path d="M72.8198 8.61067C70.1802 8.61067 67.3006 10.0592 65.5408 12.3929L6.26834 91.6593C5.0685 93.2688 4.58858 95.1197 4.98853 96.7291C5.30849 97.9362 6.18835 98.9019 7.46819 99.4652L83.8584 131.896C86.8181 133.184 91.1375 131.655 93.4572 128.597L152.73 49.2498C153.93 47.6403 154.409 45.7894 154.009 44.2604C153.69 42.9728 152.81 42.0072 151.53 41.5243L75.1396 9.09352C74.4197 8.77162 73.6198 8.61067 72.8198 8.61067ZM86.1782 132.62C85.3783 132.62 84.4984 132.459 83.7785 132.218L7.3082 99.7066C5.94838 99.1433 5.0685 98.0972 4.66855 96.8096C4.2686 95.1197 4.74855 93.1883 6.02838 91.4983L65.3008 12.1515C67.7005 9.01304 72.1799 7.48405 75.2195 8.77162L151.69 41.2024C153.05 41.7657 153.93 42.8119 154.329 44.1799C154.729 45.7894 154.249 47.7208 152.97 49.4912L93.6972 128.758C91.8574 131.172 88.8978 132.62 86.1782 132.62Z" fill="white"/>
</mask>
<g mask="url(#mask26_761_202)">
<path d="M-476.312 -69.2072H421.173V833.705H-476.312V-69.2072Z" fill="white"/>
</g>
</mask>
<g mask="url(#mask25_761_202)">
<path d="M72.8198 8.61067C70.1802 8.61067 67.3006 10.0592 65.5408 12.3929L6.26834 91.6593C5.0685 93.2688 4.58858 95.1197 4.98853 96.7291C5.30849 97.9362 6.18835 98.9019 7.46819 99.4652L83.8584 131.896C86.8181 133.184 91.1375 131.655 93.4572 128.597L152.73 49.2498C153.93 47.6403 154.409 45.7894 154.009 44.2604C153.69 42.9728 152.81 42.0072 151.53 41.5243L75.1396 9.09352C74.4197 8.77162 73.6198 8.61067 72.8198 8.61067ZM86.1782 132.62C85.3783 132.62 84.4984 132.459 83.7785 132.218L7.3082 99.7066C5.94838 99.1433 5.0685 98.0972 4.66855 96.8096C4.2686 95.1197 4.74855 93.1883 6.02838 91.4983L65.3008 12.1515C67.7005 9.01304 72.1799 7.48405 75.2195 8.77162L151.69 41.2024C153.05 41.7657 153.93 42.8119 154.329 44.1799C154.729 45.7894 154.249 47.7208 152.97 49.4912L93.6972 128.758C91.8574 131.172 88.8978 132.62 86.1782 132.62Z" fill="white"/>
</g>
</mask>
<g mask="url(#mask24_761_202)">
<path d="M-476.312 -69.2072H421.173V833.705H-476.312V-69.2072Z" fill="url(#paint8_linear_761_202)"/>
</g>
<mask id="mask27_761_202" style="mask-type:luminance" maskUnits="userSpaceOnUse" x="2" y="5" width="155" height="130">
<mask id="mask28_761_202" style="mask-type:luminance" maskUnits="userSpaceOnUse" x="2" y="5" width="155" height="130">
<mask id="mask29_761_202" style="mask-type:luminance" maskUnits="userSpaceOnUse" x="2" y="5" width="155" height="130">
<path d="M77.5447 6.27692C75.1451 6.27692 72.4254 7.48402 70.6656 9.49586L4.75405 85.6237C3.31424 87.1527 2.7543 89.0841 2.99427 90.6936C3.23424 91.9812 4.03413 93.0273 5.23397 93.6711L78.5846 133.908C81.3842 135.517 85.7837 134.391 88.3434 131.413L154.255 55.3657C155.695 53.7563 156.255 51.9054 156.015 50.2154C155.775 48.9278 154.975 47.8817 153.775 47.2379L80.4244 7.00117C79.6245 6.51833 78.5846 6.27692 77.5447 6.27692ZM81.4642 134.954C80.3444 134.954 79.3045 134.713 78.4246 134.23L5.07398 93.993C3.79415 93.2687 2.99425 92.1421 2.67429 90.7741C2.43432 89.0036 3.07423 87.0723 4.51404 85.3823L70.4256 9.3349C73.0653 6.27691 77.6247 5.06981 80.5843 6.67928L153.935 46.9965C155.215 47.6403 156.095 48.7669 156.335 50.2154C156.655 51.9054 155.935 53.9172 154.495 55.5267L88.5833 131.655C86.7436 133.747 84.0239 134.954 81.4642 134.954Z" fill="white"/>
</mask>
<g mask="url(#mask29_761_202)">
<path d="M-476.305 -69.2072H421.181V833.705H-476.305V-69.2072Z" fill="white"/>
</g>
</mask>
<g mask="url(#mask28_761_202)">
<path d="M77.5447 6.27692C75.1451 6.27692 72.4254 7.48402 70.6656 9.49586L4.75405 85.6237C3.31424 87.1527 2.7543 89.0841 2.99427 90.6936C3.23424 91.9812 4.03413 93.0273 5.23397 93.6711L78.5846 133.908C81.3842 135.517 85.7837 134.391 88.3434 131.413L154.255 55.3657C155.695 53.7563 156.255 51.9054 156.015 50.2154C155.775 48.9278 154.975 47.8817 153.775 47.2379L80.4244 7.00117C79.6245 6.51833 78.5846 6.27692 77.5447 6.27692ZM81.4642 134.954C80.3444 134.954 79.3045 134.713 78.4246 134.23L5.07398 93.993C3.79415 93.2687 2.99425 92.1421 2.67429 90.7741C2.43432 89.0036 3.07423 87.0723 4.51404 85.3823L70.4256 9.3349C73.0653 6.27691 77.6247 5.06981 80.5843 6.67928L153.935 46.9965C155.215 47.6403 156.095 48.7669 156.335 50.2154C156.655 51.9054 155.935 53.9172 154.495 55.5267L88.5833 131.655C86.7436 133.747 84.0239 134.954 81.4642 134.954Z" fill="white"/>
</g>
</mask>
<g mask="url(#mask27_761_202)">
<path d="M-476.305 -69.2072H421.181V833.705H-476.305V-69.2072Z" fill="url(#paint9_linear_761_202)"/>
</g>
<mask id="mask30_761_202" style="mask-type:luminance" maskUnits="userSpaceOnUse" x="1" y="4" width="157" height="133">
<mask id="mask31_761_202" style="mask-type:luminance" maskUnits="userSpaceOnUse" x="0" y="4" width="159" height="134">
<mask id="mask32_761_202" style="mask-type:luminance" maskUnits="userSpaceOnUse" x="0" y="4" width="159" height="134">
<g clip-path="url(#clip0_761_202)">
<path d="M82.4207 4.34554C80.1809 4.34554 77.7813 5.31123 75.9415 7.08164L3.71069 79.2663C2.19089 80.7953 1.39103 82.6462 1.55101 84.3362C1.71099 85.7042 2.35088 86.8308 3.47073 87.6356L73.0618 135.598C75.7815 137.449 80.2609 136.644 83.0606 133.827L155.291 61.7231C156.811 60.1941 157.611 58.3432 157.451 56.5728C157.291 55.2852 156.651 54.0781 155.531 53.3539L85.9402 5.39169C84.9803 4.66743 83.7005 4.34554 82.4207 4.34554ZM76.5814 136.885C75.2216 136.885 73.9417 136.563 72.9018 135.839L3.31074 87.877C2.1109 87.0722 1.39101 85.7847 1.23103 84.4166C1.07105 82.5657 1.87094 80.6344 3.47073 79.0249L75.7815 6.84022C78.6611 3.94318 83.3005 3.13844 86.1002 5.06981L155.691 53.032C156.891 53.9172 157.611 55.1243 157.771 56.5728C157.931 58.4237 157.131 60.3551 155.531 61.884L83.3005 134.069C81.4608 135.92 78.9011 136.885 76.5814 136.885Z" fill="white"/>
</g>
</mask>
<g mask="url(#mask32_761_202)">
<path d="M-476.312 -69.2072H421.173V833.705H-476.312V-69.2072Z" fill="white"/>
</g>
</mask>
<g mask="url(#mask31_761_202)">
<path d="M82.4207 4.34548C80.1809 4.34548 77.7813 5.31117 75.9415 7.08158L3.71069 79.2663C2.19089 80.7953 1.39103 82.6462 1.55101 84.3361C1.71099 85.7042 2.35088 86.8308 3.47073 87.6355L73.0618 135.598C75.7815 137.449 80.2609 136.644 83.0606 133.827L155.291 61.7231C156.811 60.1941 157.611 58.3432 157.451 56.5728C157.291 55.2852 156.651 54.0781 155.531 53.3538L85.9402 5.39163C84.9803 4.66737 83.7005 4.34548 82.4207 4.34548ZM76.5814 136.885C75.2216 136.885 73.9417 136.563 72.9018 135.839L3.31074 87.8769C2.1109 87.0722 1.39101 85.7846 1.23103 84.4166C1.07105 82.5657 1.87094 80.6343 3.47073 79.0248L75.7815 6.84016C78.6611 3.94311 83.3005 3.13838 86.1002 5.06975L155.691 53.0319C156.891 53.9171 157.611 55.1242 157.771 56.5728C157.931 58.4236 157.131 60.355 155.531 61.884L83.3005 134.069C81.4608 135.92 78.9011 136.885 76.5814 136.885Z" fill="white"/>
</g>
</mask>
<g mask="url(#mask30_761_202)">
<path d="M-476.312 -69.2072H421.173V833.705H-476.312V-69.2072Z" fill="url(#paint10_linear_761_202)"/>
</g>
<mask id="mask33_761_202" style="mask-type:luminance" maskUnits="userSpaceOnUse" x="0" y="2" width="159" height="137">
<mask id="mask34_761_202" style="mask-type:luminance" maskUnits="userSpaceOnUse" x="0" y="2" width="159" height="137">
<mask id="mask35_761_202" style="mask-type:luminance" maskUnits="userSpaceOnUse" x="0" y="2" width="159" height="137">
<path d="M87.4604 2.81654C85.3807 2.81654 83.2209 3.54081 81.4612 5.0698L3.23117 72.6675C1.63138 74.0356 0.671492 75.8865 0.671492 77.6569C0.671492 79.0249 1.23142 80.3125 2.27129 81.1977L67.463 136.724C69.9426 138.897 74.5021 138.495 77.5417 135.92L155.772 68.3219C157.451 66.8734 158.331 65.0225 158.331 63.2521C158.331 61.8841 157.771 60.5965 156.732 59.7113L91.5399 4.18459C90.5 3.21891 88.9802 2.81654 87.4604 2.81654ZM71.6224 138.495C69.9426 138.495 68.4228 138.012 67.223 137.046L2.1113 81.4391C0.991442 80.4734 0.351562 79.1859 0.351562 77.6569C0.351562 75.806 1.31143 73.8746 2.99122 72.3456L81.3012 4.82838C84.4208 2.09228 89.1402 1.68992 91.7799 3.94317L156.972 59.4699C158.091 60.4355 158.651 61.8036 158.651 63.2521C158.651 65.1835 157.691 67.1148 156.012 68.5634L77.7016 136.161C75.9419 137.69 73.7022 138.495 71.6224 138.495Z" fill="white"/>
</mask>
<g mask="url(#mask35_761_202)">
<path d="M-476.305 -69.2072H421.181V833.705H-476.305V-69.2072Z" fill="white"/>
</g>
</mask>
<g mask="url(#mask34_761_202)">
<path d="M87.4604 2.81654C85.3807 2.81654 83.2209 3.54081 81.4612 5.0698L3.23117 72.6675C1.63138 74.0356 0.671492 75.8865 0.671492 77.6569C0.671492 79.0249 1.23142 80.3125 2.27129 81.1977L67.463 136.724C69.9426 138.897 74.5021 138.495 77.5417 135.92L155.772 68.3219C157.451 66.8734 158.331 65.0225 158.331 63.2521C158.331 61.8841 157.771 60.5965 156.732 59.7113L91.5399 4.18459C90.5 3.21891 88.9802 2.81654 87.4604 2.81654ZM71.6224 138.495C69.9426 138.495 68.4228 138.012 67.223 137.046L2.1113 81.4391C0.991442 80.4734 0.351562 79.1859 0.351562 77.6569C0.351562 75.806 1.31143 73.8746 2.99122 72.3456L81.3012 4.82838C84.4208 2.09228 89.1402 1.68992 91.7799 3.94317L156.972 59.4699C158.091 60.4355 158.651 61.8036 158.651 63.2521C158.651 65.1835 157.691 67.1148 156.012 68.5634L77.7016 136.161C75.9419 137.69 73.7022 138.495 71.6224 138.495Z" fill="white"/>
</g>
</mask>
<g mask="url(#mask33_761_202)">
<path d="M-476.305 -69.2072H421.181V833.705H-476.305V-69.2072Z" fill="url(#paint11_linear_761_202)"/>
</g>
<mask id="mask36_761_202" style="mask-type:luminance" maskUnits="userSpaceOnUse" x="0" y="1" width="159" height="139">
<mask id="mask37_761_202" style="mask-type:luminance" maskUnits="userSpaceOnUse" x="0" y="1" width="159" height="139">
<mask id="mask38_761_202" style="mask-type:luminance" maskUnits="userSpaceOnUse" x="0" y="1" width="159" height="139">
<path d="M92.4983 1.69C90.7385 1.69 88.7388 2.25331 87.139 3.46042L3.30972 65.8274C1.54994 67.1149 0.510112 68.8853 0.350132 70.7362C0.190153 72.1847 0.670072 73.4723 1.62995 74.5185L61.7823 137.449C64.102 139.863 68.5814 139.943 71.861 137.529L155.69 75.1623C157.45 73.8747 158.49 72.0238 158.65 70.1729C158.81 68.8049 158.33 67.4368 157.37 66.3907L97.2177 3.46042C96.0979 2.25331 94.3381 1.69 92.4983 1.69ZM66.5016 139.622C64.5819 139.622 62.7422 138.978 61.5423 137.69L1.38999 74.7599C0.350123 73.6333 -0.129826 72.2652 0.0301538 70.7362C0.190133 68.8049 1.31001 66.8735 3.14977 65.5054L86.979 3.21899C90.3386 0.643842 95.058 0.724316 97.4577 3.21899L157.61 66.2297C158.65 67.2759 159.13 68.7244 158.97 70.2534C158.81 72.1848 157.69 74.0356 155.85 75.4037L72.021 137.771C70.4212 138.978 68.3414 139.622 66.5016 139.622Z" fill="white"/>
</mask>
<g mask="url(#mask38_761_202)">
<path d="M-476.312 -69.207H421.173V833.705H-476.312V-69.207Z" fill="white"/>
</g>
</mask>
<g mask="url(#mask37_761_202)">
<path d="M92.4983 1.69C90.7385 1.69 88.7388 2.25331 87.139 3.46042L3.30972 65.8274C1.54994 67.1149 0.510112 68.8853 0.350132 70.7362C0.190153 72.1847 0.670072 73.4723 1.62995 74.5185L61.7823 137.449C64.102 139.863 68.5814 139.943 71.861 137.529L155.69 75.1623C157.45 73.8747 158.49 72.0238 158.65 70.1729C158.81 68.8049 158.33 67.4368 157.37 66.3907L97.2177 3.46042C96.0979 2.25331 94.3381 1.69 92.4983 1.69ZM66.5016 139.622C64.5819 139.622 62.7422 138.978 61.5423 137.69L1.38999 74.7599C0.350123 73.6333 -0.129826 72.2652 0.0301538 70.7362C0.190133 68.8049 1.31001 66.8735 3.14977 65.5054L86.979 3.21899C90.3386 0.643842 95.058 0.724316 97.4577 3.21899L157.61 66.2297C158.65 67.2759 159.13 68.7244 158.97 70.2534C158.81 72.1848 157.69 74.0356 155.85 75.4037L72.021 137.771C70.4212 138.978 68.3414 139.622 66.5016 139.622Z" fill="white"/>
</g>
</mask>
<g mask="url(#mask36_761_202)">
<path d="M-476.312 -69.207H421.173V833.705H-476.312V-69.207Z" fill="url(#paint12_linear_761_202)"/>
</g>
<mask id="mask39_761_202" style="mask-type:luminance" maskUnits="userSpaceOnUse" x="0" y="0" width="159" height="141">
<mask id="mask40_761_202" style="mask-type:luminance" maskUnits="userSpaceOnUse" x="0" y="0" width="159" height="141">
<mask id="mask41_761_202" style="mask-type:luminance" maskUnits="userSpaceOnUse" x="0" y="0" width="159" height="141">
<path d="M97.6954 0.965585C96.0956 0.965585 94.4158 1.36796 92.896 2.33364L4.02733 58.7455C2.18757 59.9526 0.907742 61.7231 0.587783 63.5739C0.347814 65.0225 0.747753 66.471 1.62764 67.5976L56.0207 137.69C58.1004 140.346 62.6598 140.828 66.0994 138.575L154.968 82.1633C156.808 80.9562 158.088 79.2663 158.408 77.4154C158.648 75.9669 158.328 74.5183 157.368 73.3112L102.975 3.29932C101.775 1.68985 99.7751 0.965585 97.6954 0.965585ZM61.3 140.346C59.0603 140.346 57.0606 139.541 55.7807 137.851L1.30766 67.839C0.427774 66.5515 0.0278352 65.0225 0.267805 63.4935C0.667753 61.5621 1.94759 59.7112 3.86734 58.5041L92.736 2.01174C96.3356 -0.241514 101.055 0.241329 103.215 3.0579L157.688 73.1503C158.648 74.3574 158.968 75.8864 158.728 77.4154C158.408 79.4272 157.048 81.1976 155.128 82.4852L66.2594 138.897C64.7396 139.863 62.9798 140.346 61.3 140.346Z" fill="white"/>
</mask>
<g mask="url(#mask41_761_202)">
<path d="M-476.309 -69.2073H421.177V833.705H-476.309V-69.2073Z" fill="white"/>
</g>
</mask>
<g mask="url(#mask40_761_202)">
<path d="M97.6954 0.965585C96.0956 0.965585 94.4158 1.36796 92.896 2.33364L4.02733 58.7455C2.18757 59.9526 0.907742 61.7231 0.587783 63.5739C0.347814 65.0225 0.747753 66.471 1.62764 67.5976L56.0207 137.69C58.1004 140.346 62.6598 140.828 66.0994 138.575L154.968 82.1633C156.808 80.9562 158.088 79.2663 158.408 77.4154C158.648 75.9669 158.328 74.5183 157.368 73.3112L102.975 3.29932C101.775 1.68985 99.7751 0.965585 97.6954 0.965585ZM61.3 140.346C59.0603 140.346 57.0606 139.541 55.7807 137.851L1.30766 67.839C0.427774 66.5515 0.0278352 65.0225 0.267805 63.4935C0.667753 61.5621 1.94759 59.7112 3.86734 58.5041L92.736 2.01174C96.3356 -0.241514 101.055 0.241329 103.215 3.0579L157.688 73.1503C158.648 74.3574 158.968 75.8864 158.728 77.4154C158.408 79.4272 157.048 81.1976 155.128 82.4852L66.2594 138.897C64.7396 139.863 62.9798 140.346 61.3 140.346Z" fill="white"/>
</g>
</mask>
<g mask="url(#mask39_761_202)">
<path d="M-476.309 -69.2073H421.177V833.705H-476.309V-69.2073Z" fill="url(#paint13_linear_761_202)"/>
</g>
<mask id="mask42_761_202" style="mask-type:luminance" maskUnits="userSpaceOnUse" x="0" y="0" width="159" height="141">
<mask id="mask43_761_202" style="mask-type:luminance" maskUnits="userSpaceOnUse" x="0" y="0" width="159" height="141">
<mask id="mask44_761_202" style="mask-type:luminance" maskUnits="userSpaceOnUse" x="0" y="0" width="159" height="141">
<g clip-path="url(#clip1_761_202)">
<path d="M102.898 0.643783C101.538 0.643783 100.099 0.965673 98.8188 1.68993L5.31076 51.664C3.39101 52.6296 2.03122 54.3196 1.55128 56.1705C1.15133 57.6995 1.39129 59.2285 2.19119 60.516L50.265 137.368C52.1848 140.346 56.5842 141.15 60.2637 139.219L153.692 89.3255C155.612 88.2794 156.971 86.5894 157.451 84.7386C157.851 83.29 157.691 81.761 156.891 80.4735L108.738 3.54083C107.538 1.68994 105.298 0.643783 102.898 0.643783ZM56.1043 140.587C53.6246 140.587 51.2249 139.541 50.0251 137.529L1.87121 60.677C0.991322 59.3089 0.751363 57.6995 1.2313 56.09C1.71124 54.1586 3.15108 52.3882 5.15082 51.3421L98.6588 1.36804C102.418 -0.643798 107.058 0.24141 108.978 3.37988L157.131 80.3125C158.011 81.6001 158.251 83.29 157.771 84.819C157.291 86.8309 155.852 88.5208 153.852 89.6474L60.4237 139.541C58.9839 140.265 57.5441 140.587 56.1043 140.587Z" fill="white"/>
</g>
</mask>
<g mask="url(#mask44_761_202)">
<path d="M-476.312 -69.2072H421.173V833.705H-476.312V-69.2072Z" fill="white"/>
</g>
</mask>
<g mask="url(#mask43_761_202)">
<path d="M102.894 0.643722C101.535 0.643722 100.095 0.965612 98.8149 1.68987L5.30685 51.6639C3.3871 52.6296 2.02731 54.3195 1.54737 56.1704C1.14742 57.6994 1.38738 59.2284 2.18728 60.516L50.2611 137.368C52.1809 140.346 56.5803 141.15 60.2598 139.219L153.688 89.3255C155.608 88.2793 156.967 86.5894 157.447 84.7385C157.847 83.29 157.687 81.761 156.887 80.4734L108.734 3.54077C107.534 1.68988 105.294 0.643722 102.894 0.643722ZM56.1004 140.587C53.6207 140.587 51.221 139.541 50.0212 137.529L1.8673 60.6769C0.987416 59.3089 0.747456 57.6994 1.2274 56.0899C1.70733 54.1586 3.14717 52.3882 5.14691 51.342L98.6549 1.36798C102.414 -0.643859 107.054 0.241349 108.974 3.37981L157.128 80.3125C158.007 81.6 158.247 83.29 157.767 84.819C157.287 86.8308 155.848 88.5207 153.848 89.6474L60.4198 139.541C58.98 140.265 57.5402 140.587 56.1004 140.587Z" fill="white"/>
</g>
</mask>
<g mask="url(#mask42_761_202)">
<path d="M-476.312 -69.2072H421.173V833.705H-476.312V-69.2072Z" fill="url(#paint14_linear_761_202)"/>
</g>
<mask id="mask45_761_202" style="mask-type:luminance" maskUnits="userSpaceOnUse" x="2" y="0" width="155" height="141">
<mask id="mask46_761_202" style="mask-type:luminance" maskUnits="userSpaceOnUse" x="2" y="0" width="155" height="141">
<mask id="mask47_761_202" style="mask-type:luminance" maskUnits="userSpaceOnUse" x="2" y="0" width="155" height="141">
<path d="M108.097 0.885243C106.977 0.885243 105.777 1.12666 104.657 1.60951L7.22968 44.4214C5.30992 45.3066 3.79011 46.8356 3.0702 48.6865C2.59026 50.2155 2.67024 51.825 3.31016 53.193L44.5849 136.564C46.1847 139.782 50.5842 140.99 54.3437 139.38L151.771 96.4877C153.771 95.683 155.211 94.0735 155.931 92.2226C156.491 90.6936 156.411 89.0842 155.691 87.7161L114.416 4.42608C113.296 2.17282 110.816 0.885243 108.097 0.885243ZM50.9041 140.426C48.1044 140.426 45.4648 139.058 44.345 136.724L2.99023 53.354C2.27032 51.9054 2.19034 50.2155 2.75027 48.606C3.47018 46.5942 5.06997 44.9847 7.14971 44.0995L104.497 1.28761C108.497 -0.482806 113.056 0.885247 114.736 4.26513L156.011 87.5552C156.731 89.0842 156.811 90.7741 156.251 92.3836C155.531 94.3149 153.931 95.9244 151.931 96.8096L54.5036 139.702C53.3038 140.185 52.1039 140.426 50.9041 140.426Z" fill="white"/>
</mask>
<g mask="url(#mask47_761_202)">
<path d="M-476.309 -69.207H421.177V833.705H-476.309V-69.207Z" fill="white"/>
</g>
</mask>
<g mask="url(#mask46_761_202)">
<path d="M108.097 0.885243C106.977 0.885243 105.777 1.12666 104.657 1.60951L7.22968 44.4214C5.30992 45.3066 3.79011 46.8356 3.0702 48.6865C2.59026 50.2155 2.67024 51.825 3.31016 53.193L44.5849 136.564C46.1847 139.782 50.5842 140.99 54.3437 139.38L151.771 96.4877C153.771 95.683 155.211 94.0735 155.931 92.2226C156.491 90.6936 156.411 89.0842 155.691 87.7161L114.416 4.42608C113.296 2.17282 110.816 0.885243 108.097 0.885243ZM50.9041 140.426C48.1044 140.426 45.4648 139.058 44.345 136.724L2.99023 53.354C2.27032 51.9054 2.19034 50.2155 2.75027 48.606C3.47018 46.5942 5.06997 44.9847 7.14971 44.0995L104.497 1.28761C108.497 -0.482806 113.056 0.885247 114.736 4.26513L156.011 87.5552C156.731 89.0842 156.811 90.7741 156.251 92.3836C155.531 94.3149 153.931 95.9244 151.931 96.8096L54.5036 139.702C53.3038 140.185 52.1039 140.426 50.9041 140.426Z" fill="white"/>
</g>
</mask>
<g mask="url(#mask45_761_202)">
<path d="M-476.309 -69.207H421.177V833.705H-476.309V-69.207Z" fill="url(#paint15_linear_761_202)"/>
</g>
<mask id="mask48_761_202" style="mask-type:luminance" maskUnits="userSpaceOnUse" x="4" y="1" width="151" height="139">
<mask id="mask49_761_202" style="mask-type:luminance" maskUnits="userSpaceOnUse" x="4" y="1" width="151" height="139">
<mask id="mask50_761_202" style="mask-type:luminance" maskUnits="userSpaceOnUse" x="4" y="1" width="151" height="139">
<path d="M113.296 1.52908C112.416 1.52908 111.457 1.69002 110.577 2.01192L9.78962 37.1788C7.78987 37.9031 6.11006 39.3516 5.31016 41.122C4.59025 42.651 4.5103 44.341 5.15022 45.87L39.0659 135.196C40.3457 138.575 44.5851 140.346 48.5046 138.978L149.212 103.73C151.212 103.087 152.891 101.638 153.691 99.8677C154.411 98.2582 154.491 96.5683 153.931 95.0393L120.016 5.79417C118.976 3.13854 116.256 1.52908 113.296 1.52908ZM45.705 139.783C42.5854 139.783 39.7858 138.093 38.6659 135.276L4.75027 46.0309C4.19034 44.341 4.27032 42.5705 4.99023 40.9611C5.87012 39.1102 7.54987 37.5812 9.7096 36.8569L110.417 1.69002C114.496 0.241501 118.896 2.01192 120.336 5.63322L154.251 94.9588C154.811 96.5682 154.731 98.3387 154.011 99.9481C153.131 101.879 151.452 103.328 149.372 104.133L48.5847 139.3C47.6248 139.622 46.6649 139.783 45.705 139.783Z" fill="white"/>
</mask>
<g mask="url(#mask50_761_202)">
<path d="M-476.309 -69.2072H421.177V833.705H-476.309V-69.2072Z" fill="white"/>
</g>
</mask>
<g mask="url(#mask49_761_202)">
<path d="M113.296 1.52908C112.416 1.52908 111.457 1.69002 110.577 2.01192L9.78962 37.1788C7.78987 37.9031 6.11006 39.3516 5.31016 41.122C4.59025 42.651 4.5103 44.341 5.15022 45.87L39.0659 135.196C40.3457 138.575 44.5851 140.346 48.5046 138.978L149.212 103.73C151.212 103.087 152.891 101.638 153.691 99.8677C154.411 98.2582 154.491 96.5683 153.931 95.0393L120.016 5.79417C118.976 3.13854 116.256 1.52908 113.296 1.52908ZM45.705 139.783C42.5854 139.783 39.7858 138.093 38.6659 135.276L4.75027 46.0309C4.19034 44.341 4.27032 42.5705 4.99023 40.9611C5.87012 39.1102 7.54987 37.5812 9.7096 36.8569L110.417 1.69002C114.496 0.241501 118.896 2.01192 120.336 5.63322L154.251 94.9588C154.811 96.5682 154.731 98.3387 154.011 99.9481C153.131 101.879 151.452 103.328 149.372 104.133L48.5847 139.3C47.6248 139.622 46.6649 139.783 45.705 139.783Z" fill="white"/>
</g>
</mask>
<g mask="url(#mask48_761_202)">
<path d="M-476.309 -69.2072H421.177V833.705H-476.309V-69.2072Z" fill="url(#paint16_linear_761_202)"/>
</g>
<mask id="mask51_761_202" style="mask-type:luminance" maskUnits="userSpaceOnUse" x="6" y="2" width="147" height="137">
<mask id="mask52_761_202" style="mask-type:luminance" maskUnits="userSpaceOnUse" x="6" y="2" width="147" height="137">
<mask id="mask53_761_202" style="mask-type:luminance" maskUnits="userSpaceOnUse" x="6" y="2" width="147" height="137">
<path d="M118.412 2.65562C117.772 2.65562 117.052 2.73609 116.332 2.97751L12.9055 30.0166C10.9057 30.4994 9.14596 31.787 8.18608 33.5574C7.3062 35.0864 7.06624 36.8568 7.54618 38.4663L33.5429 133.264C34.5827 136.885 38.6622 139.058 42.6617 138.012L146.088 110.973C148.088 110.41 149.848 109.122 150.808 107.432C151.688 105.903 151.928 104.133 151.448 102.443L125.451 7.64498C124.571 4.66746 121.692 2.65562 118.412 2.65562ZM40.5819 138.656C37.1424 138.656 34.1028 136.563 33.2229 133.345L7.14623 38.5468C6.66629 36.8568 6.90623 35.006 7.86611 33.316C8.90597 31.5456 10.7457 30.1776 12.8255 29.6142L116.252 2.57514C120.492 1.52899 124.731 3.70178 125.771 7.5645L151.848 102.362C152.328 104.133 152.088 105.984 151.128 107.593C150.088 109.444 148.248 110.732 146.168 111.295L42.7417 138.334C42.0218 138.495 41.3019 138.656 40.5819 138.656Z" fill="white"/>
</mask>
<g mask="url(#mask53_761_202)">
<path d="M-476.312 -69.2072H421.173V833.705H-476.312V-69.2072Z" fill="white"/>
</g>
</mask>
<g mask="url(#mask52_761_202)">
<path d="M118.412 2.65562C117.772 2.65562 117.052 2.73609 116.332 2.97751L12.9055 30.0166C10.9057 30.4994 9.14596 31.787 8.18608 33.5574C7.3062 35.0864 7.06624 36.8568 7.54618 38.4663L33.5429 133.264C34.5827 136.885 38.6622 139.058 42.6617 138.012L146.088 110.973C148.088 110.41 149.848 109.122 150.808 107.432C151.688 105.903 151.928 104.133 151.448 102.443L125.451 7.64498C124.571 4.66746 121.692 2.65562 118.412 2.65562ZM40.5819 138.656C37.1424 138.656 34.1028 136.563 33.2229 133.345L7.14623 38.5468C6.66629 36.8568 6.90623 35.006 7.86611 33.316C8.90597 31.5456 10.7457 30.1776 12.8255 29.6142L116.252 2.57514C120.492 1.52899 124.731 3.70178 125.771 7.5645L151.848 102.362C152.328 104.133 152.088 105.984 151.128 107.593C150.088 109.444 148.248 110.732 146.168 111.295L42.7417 138.334C42.0218 138.495 41.3019 138.656 40.5819 138.656Z" fill="white"/>
</g>
</mask>
<g mask="url(#mask51_761_202)">
<path d="M-476.312 -69.2072H421.173V833.705H-476.312V-69.2072Z" fill="url(#paint17_linear_761_202)"/>
</g>
<mask id="mask54_761_202" style="mask-type:luminance" maskUnits="userSpaceOnUse" x="10" y="3" width="139" height="134">
<mask id="mask55_761_202" style="mask-type:luminance" maskUnits="userSpaceOnUse" x="10" y="3" width="139" height="134">
<mask id="mask56_761_202" style="mask-type:luminance" maskUnits="userSpaceOnUse" x="10" y="3" width="139" height="134">
<path d="M123.457 4.34559C122.977 4.34559 122.577 4.34559 122.097 4.42606L16.6709 22.8545C14.6712 23.2569 12.9114 24.303 11.7115 25.993C10.6717 27.522 10.2717 29.3728 10.5917 31.1433L28.3494 130.85C28.9894 134.632 32.9088 137.207 36.9083 136.483L142.335 118.055C144.335 117.733 146.094 116.606 147.294 114.916C148.334 113.387 148.734 111.617 148.414 109.846L130.656 10.1397C130.096 6.75979 126.977 4.34559 123.457 4.34559ZM35.5485 136.966C31.869 136.966 28.5894 134.471 27.9495 130.85L10.1917 31.1433C9.87179 29.2924 10.3517 27.361 11.3916 25.7515C12.6714 24.0616 14.5112 22.8545 16.6709 22.5326L122.017 4.10417C126.257 3.37991 130.336 6.03553 131.056 10.0592L148.814 109.766C149.134 111.617 148.734 113.548 147.614 115.158C146.414 116.928 144.495 118.055 142.335 118.457L36.9883 136.885C36.5084 136.966 36.0285 136.966 35.5485 136.966Z" fill="white"/>
</mask>
<g mask="url(#mask56_761_202)">
<path d="M-476.309 -69.2072H421.177V833.705H-476.309V-69.2072Z" fill="white"/>
</g>
</mask>
<g mask="url(#mask55_761_202)">
<path d="M123.457 4.34559C122.977 4.34559 122.577 4.34559 122.097 4.42606L16.6709 22.8545C14.6712 23.2569 12.9114 24.303 11.7115 25.993C10.6717 27.522 10.2717 29.3728 10.5917 31.1433L28.3494 130.85C28.9894 134.632 32.9088 137.207 36.9083 136.483L142.335 118.055C144.335 117.733 146.094 116.606 147.294 114.916C148.334 113.387 148.734 111.617 148.414 109.846L130.656 10.1397C130.096 6.75979 126.977 4.34559 123.457 4.34559ZM35.5485 136.966C31.869 136.966 28.5894 134.471 27.9495 130.85L10.1917 31.1433C9.87179 29.2924 10.3517 27.361 11.3916 25.7515C12.6714 24.0616 14.5112 22.8545 16.6709 22.5326L122.017 4.10417C126.257 3.37991 130.336 6.03553 131.056 10.0592L148.814 109.766C149.134 111.617 148.734 113.548 147.614 115.158C146.414 116.928 144.495 118.055 142.335 118.457L36.9883 136.885C36.5084 136.966 36.0285 136.966 35.5485 136.966Z" fill="white"/>
</g>
</mask>
<g mask="url(#mask54_761_202)">
<path d="M-476.309 -69.2072H421.177V833.705H-476.309V-69.2072Z" fill="url(#paint18_linear_761_202)"/>
</g>
<mask id="mask57_761_202" style="mask-type:luminance" maskUnits="userSpaceOnUse" x="13" y="6" width="133" height="129">
<mask id="mask58_761_202" style="mask-type:luminance" maskUnits="userSpaceOnUse" x="13" y="6" width="133" height="129">
<mask id="mask59_761_202" style="mask-type:luminance" maskUnits="userSpaceOnUse" x="13" y="6" width="133" height="129">
<path d="M128.333 6.51835C128.093 6.51835 127.853 6.51835 127.613 6.51835L21.0669 15.9337C19.0672 16.0947 17.3074 16.9799 15.9476 18.5089C14.6678 19.9574 14.1078 21.8888 14.2678 23.8201L23.3066 127.792C23.4666 129.723 24.4265 131.494 25.9463 132.781C27.4661 133.988 29.3859 134.632 31.3856 134.391L137.932 125.056C142.091 124.653 145.131 121.113 144.731 117.089L135.692 13.1172C135.532 11.1858 134.652 9.41539 133.053 8.20829C131.773 7.08166 130.093 6.51835 128.333 6.51835ZM30.6657 134.793C28.8259 134.793 27.0661 134.23 25.7063 133.023C24.1065 131.735 23.0666 129.884 22.9067 127.872L13.8678 23.8201C13.7078 21.8083 14.3478 19.7965 15.7076 18.2675C17.0674 16.658 18.9872 15.6923 21.0669 15.5314L127.613 6.11598C129.693 5.95503 131.693 6.59882 133.293 7.8864C134.892 9.17398 135.932 11.0249 136.092 13.1172L145.131 117.089C145.531 121.274 142.251 125.056 138.012 125.378L31.3856 134.793C31.1456 134.793 30.9057 134.793 30.6657 134.793Z" fill="white"/>
</mask>
<g mask="url(#mask59_761_202)">
<path d="M-476.312 -69.2072H421.173V833.705H-476.312V-69.2072Z" fill="white"/>
</g>
</mask>
<g mask="url(#mask58_761_202)">
<path d="M128.333 6.51835C128.093 6.51835 127.853 6.51835 127.613 6.51835L21.0669 15.9337C19.0672 16.0947 17.3074 16.9799 15.9476 18.5089C14.6678 19.9574 14.1078 21.8888 14.2678 23.8201L23.3066 127.792C23.4666 129.723 24.4265 131.494 25.9463 132.781C27.4661 133.988 29.3859 134.632 31.3856 134.391L137.932 125.056C142.091 124.653 145.131 121.113 144.731 117.089L135.692 13.1172C135.532 11.1858 134.652 9.41539 133.053 8.20829C131.773 7.08166 130.093 6.51835 128.333 6.51835ZM30.6657 134.793C28.8259 134.793 27.0661 134.23 25.7063 133.023C24.1065 131.735 23.0666 129.884 22.9067 127.872L13.8678 23.8201C13.7078 21.8083 14.3478 19.7965 15.7076 18.2675C17.0674 16.658 18.9872 15.6923 21.0669 15.5314L127.613 6.11598C129.693 5.95503 131.693 6.59882 133.293 7.8864C134.892 9.17398 135.932 11.0249 136.092 13.1172L145.131 117.089C145.531 121.274 142.251 125.056 138.012 125.378L31.3856 134.793C31.1456 134.793 30.9057 134.793 30.6657 134.793Z" fill="white"/>
</g>
</mask>
<g mask="url(#mask57_761_202)">
<path d="M-476.312 -69.2072H421.173V833.705H-476.312V-69.2072Z" fill="url(#paint19_linear_761_202)"/>
</g>
<mask id="mask60_761_202" style="mask-type:luminance" maskUnits="userSpaceOnUse" x="18" y="8" width="123" height="125">
<mask id="mask61_761_202" style="mask-type:luminance" maskUnits="userSpaceOnUse" x="18" y="8" width="123" height="125">
<mask id="mask62_761_202" style="mask-type:luminance" maskUnits="userSpaceOnUse" x="18" y="8" width="123" height="125">
<path d="M26.0265 9.17391C21.867 9.17391 18.5074 12.5538 18.5074 16.6579V124.251C18.5074 128.436 21.867 131.815 26.0265 131.815H132.973C137.132 131.815 140.492 128.436 140.492 124.251V16.6579C140.492 12.5538 137.132 9.17391 132.973 9.17391H26.0265ZM132.973 132.218H26.0265C21.707 132.218 18.1875 128.677 18.1875 124.251V16.6579C18.1875 12.3124 21.707 8.77155 26.0265 8.77155H132.973C137.292 8.77155 140.812 12.3124 140.812 16.6579V124.251C140.812 128.677 137.292 132.218 132.973 132.218Z" fill="white"/>
</mask>
<g mask="url(#mask62_761_202)">
<path d="M-476.309 -69.2073H421.177V833.705H-476.309V-69.2073Z" fill="white"/>
</g>
</mask>
<g mask="url(#mask61_761_202)">
<path d="M26.0265 9.17391C21.867 9.17391 18.5074 12.5538 18.5074 16.6579V124.251C18.5074 128.436 21.867 131.815 26.0265 131.815H132.973C137.132 131.815 140.492 128.436 140.492 124.251V16.6579C140.492 12.5538 137.132 9.17391 132.973 9.17391H26.0265ZM132.973 132.218H26.0265C21.707 132.218 18.1875 128.677 18.1875 124.251V16.6579C18.1875 12.3124 21.707 8.77155 26.0265 8.77155H132.973C137.292 8.77155 140.812 12.3124 140.812 16.6579V124.251C140.812 128.677 137.292 132.218 132.973 132.218Z" fill="white"/>
</g>
</mask>
<g mask="url(#mask60_761_202)">
<path d="M-476.309 -69.2073H421.177V833.705H-476.309V-69.2073Z" fill="url(#paint20_linear_761_202)"/>
</g>
<defs>
<linearGradient id="paint0_linear_761_202" x1="33.6678" y1="70.4716" x2="125.346" y2="70.4716" gradientUnits="userSpaceOnUse">
<stop stop-color="#3DDEED"/>
<stop offset="1" stop-color="#CB00DD"/>
</linearGradient>
<linearGradient id="paint1_linear_761_202" x1="29.0277" y1="70.4716" x2="129.978" y2="70.4716" gradientUnits="userSpaceOnUse">
<stop stop-color="#3DDEED"/>
<stop offset="1" stop-color="#CB00DD"/>
</linearGradient>
<linearGradient id="paint2_linear_761_202" x1="24.5939" y1="70.4714" x2="134.412" y2="70.4714" gradientUnits="userSpaceOnUse">
<stop stop-color="#3DDEED"/>
<stop offset="1" stop-color="#CB00DD"/>
</linearGradient>
<linearGradient id="paint3_linear_761_202" x1="20.4143" y1="70.4714" x2="138.598" y2="70.4714" gradientUnits="userSpaceOnUse">
<stop stop-color="#3DDEED"/>
<stop offset="1" stop-color="#CB00DD"/>
</linearGradient>
<linearGradient id="paint4_linear_761_202" x1="16.5124" y1="70.4714" x2="142.5" y2="70.4714" gradientUnits="userSpaceOnUse">
<stop stop-color="#3DDEED"/>
<stop offset="1" stop-color="#CB00DD"/>
</linearGradient>
<linearGradient id="paint5_linear_761_202" x1="12.9368" y1="70.4716" x2="146.077" y2="70.4716" gradientUnits="userSpaceOnUse">
<stop stop-color="#3DDEED"/>
<stop offset="1" stop-color="#CB00DD"/>
</linearGradient>
<linearGradient id="paint6_linear_761_202" x1="9.72137" y1="70.4715" x2="149.284" y2="70.4715" gradientUnits="userSpaceOnUse">
<stop stop-color="#3DDEED"/>
<stop offset="1" stop-color="#CB00DD"/>
</linearGradient>
<linearGradient id="paint7_linear_761_202" x1="6.91054" y1="70.4714" x2="152.094" y2="70.4714" gradientUnits="userSpaceOnUse">
<stop stop-color="#3DDEED"/>
<stop offset="1" stop-color="#CB00DD"/>
</linearGradient>
<linearGradient id="paint8_linear_761_202" x1="4.53642" y1="70.4714" x2="154.47" y2="70.4714" gradientUnits="userSpaceOnUse">
<stop stop-color="#3DDEED"/>
<stop offset="1" stop-color="#CB00DD"/>
</linearGradient>
<linearGradient id="paint9_linear_761_202" x1="2.63647" y1="70.4714" x2="156.385" y2="70.4714" gradientUnits="userSpaceOnUse">
<stop stop-color="#3DDEED"/>
<stop offset="1" stop-color="#CB00DD"/>
</linearGradient>
<linearGradient id="paint10_linear_761_202" x1="1.21767" y1="70.4714" x2="157.787" y2="70.4714" gradientUnits="userSpaceOnUse">
<stop stop-color="#3DDEED"/>
<stop offset="1" stop-color="#CB00DD"/>
</linearGradient>
<linearGradient id="paint11_linear_761_202" x1="0.337583" y1="70.4714" x2="158.685" y2="70.4714" gradientUnits="userSpaceOnUse">
<stop stop-color="#3DDEED"/>
<stop offset="1" stop-color="#CB00DD"/>
</linearGradient>
<linearGradient id="paint12_linear_761_202" x1="-0.0149842" y1="70.4716" x2="159.02" y2="70.4716" gradientUnits="userSpaceOnUse">
<stop stop-color="#3DDEED"/>
<stop offset="1" stop-color="#CB00DD"/>
</linearGradient>
<linearGradient id="paint13_linear_761_202" x1="0.208891" y1="70.4713" x2="158.805" y2="70.4713" gradientUnits="userSpaceOnUse">
<stop stop-color="#3DDEED"/>
<stop offset="1" stop-color="#CB00DD"/>
</linearGradient>
<linearGradient id="paint14_linear_761_202" x1="1.00167" y1="70.4714" x2="158.004" y2="70.4714" gradientUnits="userSpaceOnUse">
<stop stop-color="#3DDEED"/>
<stop offset="1" stop-color="#CB00DD"/>
</linearGradient>
<linearGradient id="paint15_linear_761_202" x1="2.3902" y1="70.4716" x2="156.623" y2="70.4716" gradientUnits="userSpaceOnUse">
<stop stop-color="#3DDEED"/>
<stop offset="1" stop-color="#CB00DD"/>
</linearGradient>
<linearGradient id="paint16_linear_761_202" x1="4.36922" y1="70.4715" x2="154.645" y2="70.4715" gradientUnits="userSpaceOnUse">
<stop stop-color="#3DDEED"/>
<stop offset="1" stop-color="#CB00DD"/>
</linearGradient>
<linearGradient id="paint17_linear_761_202" x1="6.93771" y1="70.4715" x2="152.068" y2="70.4715" gradientUnits="userSpaceOnUse">
<stop stop-color="#3DDEED"/>
<stop offset="1" stop-color="#CB00DD"/>
</linearGradient>
<linearGradient id="paint18_linear_761_202" x1="10.1061" y1="70.4714" x2="148.908" y2="70.4714" gradientUnits="userSpaceOnUse">
<stop stop-color="#3DDEED"/>
<stop offset="1" stop-color="#CB00DD"/>
</linearGradient>
<linearGradient id="paint19_linear_761_202" x1="13.848" y1="70.4715" x2="145.157" y2="70.4715" gradientUnits="userSpaceOnUse">
<stop stop-color="#3DDEED"/>
<stop offset="1" stop-color="#CB00DD"/>
</linearGradient>
<linearGradient id="paint20_linear_761_202" x1="18.1666" y1="70.4713" x2="140.847" y2="70.4713" gradientUnits="userSpaceOnUse">
<stop stop-color="#3DDEED"/>
<stop offset="1" stop-color="#CB00DD"/>
</linearGradient>
<clipPath id="clip0_761_202">
<rect width="157.58" height="133.586" fill="white" transform="translate(0.429688 4.02368)"/>
</clipPath>
<clipPath id="clip1_761_202">
<rect width="157.58" height="140.829" fill="white" transform="translate(0.429688)"/>
</clipPath>
</defs>
</svg>
