<svg width="105" height="75" viewBox="0 0 105 75" fill="none" xmlns="http://www.w3.org/2000/svg">
<mask id="mask0_761_356" style="mask-type:luminance" maskUnits="userSpaceOnUse" x="33" y="-56" width="93" height="120">
<mask id="mask1_761_356" style="mask-type:luminance" maskUnits="userSpaceOnUse" x="33" y="-56" width="93" height="120">
<mask id="mask2_761_356" style="mask-type:luminance" maskUnits="userSpaceOnUse" x="33" y="-56" width="93" height="120">
<path d="M121.456 -54.7336C120.896 -54.7336 120.416 -54.6531 119.776 -54.4117L41.7858 -28.9016C38.7461 -27.8554 36.1864 -24.556 36.1065 -21.4176L33.9468 59.5387C33.9468 61.0677 34.4267 62.2748 35.3866 62.9991C36.3464 63.7234 37.7063 63.8843 39.2261 63.4015L117.216 37.8109C120.256 36.8452 122.815 33.4653 122.895 30.3269L125.055 -50.6294C125.135 -52.078 124.575 -53.2851 123.615 -54.0093C123.055 -54.4922 122.255 -54.7336 121.456 -54.7336ZM37.5463 63.9648C36.6664 63.9648 35.8665 63.7234 35.2266 63.2405C34.1867 62.4358 33.6268 61.1482 33.7068 59.5387L35.8665 -21.4176C35.9465 -24.6365 38.5861 -28.0969 41.7057 -29.143L119.696 -54.7336C121.296 -55.2164 122.735 -55.0555 123.775 -54.2508C124.815 -53.446 125.375 -52.1584 125.375 -50.6294L123.135 30.3269C123.055 33.5458 120.496 37.0866 117.296 38.0523L39.306 63.6429C38.6661 63.8843 38.1062 63.9648 37.5463 63.9648Z" fill="white"/>
</mask>
<g mask="url(#mask2_761_356)">
<path d="M-476.309 -135.207H421.177V767.705H-476.309V-135.207Z" fill="white"/>
</g>
</mask>
<g mask="url(#mask1_761_356)">
<path d="M121.456 -54.7336C120.896 -54.7336 120.416 -54.6531 119.776 -54.4117L41.7858 -28.9016C38.7461 -27.8554 36.1864 -24.556 36.1065 -21.4176L33.9468 59.5387C33.9468 61.0677 34.4267 62.2748 35.3866 62.9991C36.3464 63.7234 37.7063 63.8843 39.2261 63.4015L117.216 37.8109C120.256 36.8452 122.815 33.4653 122.895 30.3269L125.055 -50.6294C125.135 -52.078 124.575 -53.2851 123.615 -54.0093C123.055 -54.4922 122.255 -54.7336 121.456 -54.7336ZM37.5463 63.9648C36.6664 63.9648 35.8665 63.7234 35.2266 63.2405C34.1867 62.4358 33.6268 61.1482 33.7068 59.5387L35.8665 -21.4176C35.9465 -24.6365 38.5861 -28.0969 41.7057 -29.143L119.696 -54.7336C121.296 -55.2164 122.735 -55.0555 123.775 -54.2508C124.815 -53.446 125.375 -52.1584 125.375 -50.6294L123.135 30.3269C123.055 33.5458 120.496 37.0866 117.296 38.0523L39.306 63.6429C38.6661 63.8843 38.1062 63.9648 37.5463 63.9648Z" fill="white"/>
</g>
</mask>
<g mask="url(#mask0_761_356)">
<path d="M-476.309 -135.207H421.177V767.705H-476.309V-135.207Z" fill="url(#paint0_linear_761_356)"/>
</g>
<mask id="mask3_761_356" style="mask-type:luminance" maskUnits="userSpaceOnUse" x="29" y="-53" width="101" height="115">
<mask id="mask4_761_356" style="mask-type:luminance" maskUnits="userSpaceOnUse" x="29" y="-53" width="101" height="115">
<mask id="mask5_761_356" style="mask-type:luminance" maskUnits="userSpaceOnUse" x="29" y="-53" width="101" height="115">
<path d="M126.013 -52.5609C125.613 -52.5609 125.213 -52.4804 124.733 -52.3999L44.8233 -33.1668C41.7037 -32.4425 38.904 -29.2236 38.5041 -26.0046L29.3853 56.9635C29.1453 58.4925 29.6252 59.7801 30.5051 60.5848C31.465 61.47 32.7448 61.7114 34.2646 61.3091L114.174 42.1564C117.294 41.3517 120.094 38.1327 120.494 34.9138L129.692 -47.9739C129.852 -49.5029 129.452 -50.8709 128.493 -51.6757C127.853 -52.239 126.973 -52.5609 126.013 -52.5609ZM32.9848 61.7919C31.945 61.7919 31.0651 61.47 30.3452 60.8262C29.3053 59.941 28.9053 58.573 29.0653 56.883L38.2641 -26.0046C38.5841 -29.3845 41.5437 -32.6839 44.7433 -33.4887L124.733 -52.6413C126.253 -53.0437 127.693 -52.8023 128.653 -51.9171C129.692 -51.0319 130.092 -49.5834 129.932 -47.9739L120.734 34.9943C120.414 38.2937 117.454 41.6736 114.254 42.3978L34.3447 61.631C33.8647 61.7114 33.3848 61.7919 32.9848 61.7919Z" fill="white"/>
</mask>
<g mask="url(#mask5_761_356)">
<path d="M-476.312 -135.207H421.173V767.705H-476.312V-135.207Z" fill="white"/>
</g>
</mask>
<g mask="url(#mask4_761_356)">
<path d="M126.013 -52.5609C125.613 -52.5609 125.213 -52.4804 124.733 -52.3999L44.8233 -33.1668C41.7037 -32.4425 38.904 -29.2236 38.5041 -26.0046L29.3853 56.9635C29.1453 58.4925 29.6252 59.7801 30.5051 60.5848C31.465 61.47 32.7448 61.7114 34.2646 61.3091L114.174 42.1564C117.294 41.3517 120.094 38.1327 120.494 34.9138L129.692 -47.9739C129.852 -49.5029 129.452 -50.8709 128.493 -51.6757C127.853 -52.239 126.973 -52.5609 126.013 -52.5609ZM32.9848 61.7919C31.945 61.7919 31.0651 61.47 30.3452 60.8262C29.3053 59.941 28.9053 58.573 29.0653 56.883L38.2641 -26.0046C38.5841 -29.3845 41.5437 -32.6839 44.7433 -33.4887L124.733 -52.6413C126.253 -53.0437 127.693 -52.8023 128.653 -51.9171C129.692 -51.0319 130.092 -49.5834 129.932 -47.9739L120.734 34.9943C120.414 38.2937 117.454 41.6736 114.254 42.3978L34.3447 61.631C33.8647 61.7114 33.3848 61.7919 32.9848 61.7919Z" fill="white"/>
</g>
</mask>
<g mask="url(#mask3_761_356)">
<path d="M-476.312 -135.207H421.173V767.705H-476.312V-135.207Z" fill="url(#paint1_linear_761_356)"/>
</g>
<mask id="mask6_761_356" style="mask-type:luminance" maskUnits="userSpaceOnUse" x="24" y="-51" width="111" height="111">
<mask id="mask7_761_356" style="mask-type:luminance" maskUnits="userSpaceOnUse" x="24" y="-51" width="111" height="111">
<mask id="mask8_761_356" style="mask-type:luminance" maskUnits="userSpaceOnUse" x="24" y="-51" width="111" height="111">
<path d="M130.331 -49.9053C130.092 -49.9053 129.772 -49.9053 129.532 -49.8249L48.182 -37.3515C45.0624 -36.8686 41.9428 -33.8106 41.3028 -30.5112L24.985 53.825C24.665 55.4344 24.9849 56.8025 25.8648 57.7682C26.7447 58.6534 28.0245 58.9753 29.4644 58.8143L110.814 46.2605C113.934 45.7776 117.053 42.7196 117.693 39.5007L134.011 -44.8355C134.331 -46.445 134.011 -47.8935 133.131 -48.7787C132.411 -49.503 131.451 -49.9053 130.331 -49.9053ZM28.6645 59.1362C27.4646 59.1362 26.4247 58.7338 25.7048 57.9291C24.745 56.9634 24.425 55.4344 24.745 53.7445L41.0629 -30.5917C41.7028 -33.9716 44.9024 -37.1101 48.182 -37.5929L129.452 -50.1468C131.051 -50.3882 132.411 -49.9858 133.291 -49.0201C134.251 -47.974 134.651 -46.5255 134.331 -44.8355L117.933 39.5007C117.293 42.8806 114.094 46.0995 110.814 46.5823L29.5444 59.0557C29.2244 59.1362 28.9844 59.1362 28.6645 59.1362Z" fill="white"/>
</mask>
<g mask="url(#mask8_761_356)">
<path d="M-476.312 -135.207H421.173V767.705H-476.312V-135.207Z" fill="white"/>
</g>
</mask>
<g mask="url(#mask7_761_356)">
<path d="M130.331 -49.9053C130.092 -49.9053 129.772 -49.9053 129.532 -49.8249L48.182 -37.3515C45.0624 -36.8686 41.9428 -33.8106 41.3028 -30.5112L24.985 53.825C24.665 55.4344 24.9849 56.8025 25.8648 57.7682C26.7447 58.6534 28.0245 58.9753 29.4644 58.8143L110.814 46.2605C113.934 45.7776 117.053 42.7196 117.693 39.5007L134.011 -44.8355C134.331 -46.445 134.011 -47.8935 133.131 -48.7787C132.411 -49.503 131.451 -49.9053 130.331 -49.9053ZM28.6645 59.1362C27.4646 59.1362 26.4247 58.7338 25.7048 57.9291C24.745 56.9634 24.425 55.4344 24.745 53.7445L41.0629 -30.5917C41.7028 -33.9716 44.9024 -37.1101 48.182 -37.5929L129.452 -50.1468C131.051 -50.3882 132.411 -49.9858 133.291 -49.0201C134.251 -47.974 134.651 -46.5255 134.331 -44.8355L117.933 39.5007C117.293 42.8806 114.094 46.0995 110.814 46.5823L29.5444 59.0557C29.2244 59.1362 28.9844 59.1362 28.6645 59.1362Z" fill="white"/>
</g>
</mask>
<g mask="url(#mask6_761_356)">
<path d="M-476.312 -135.207H421.173V767.705H-476.312V-135.207Z" fill="url(#paint2_linear_761_356)"/>
</g>
<mask id="mask9_761_356" style="mask-type:luminance" maskUnits="userSpaceOnUse" x="20" y="-48" width="119" height="105">
<mask id="mask10_761_356" style="mask-type:luminance" maskUnits="userSpaceOnUse" x="20" y="-48" width="119" height="105">
<mask id="mask11_761_356" style="mask-type:luminance" maskUnits="userSpaceOnUse" x="20" y="-48" width="119" height="105">
<path d="M134.414 -46.7669C134.254 -46.7669 134.174 -46.7669 134.014 -46.7669L51.9448 -41.2947C48.7452 -41.1338 45.3856 -38.2367 44.5057 -34.9373L20.9088 50.2036C20.5088 51.8131 20.6688 53.3421 21.5487 54.3883C22.2686 55.3539 23.5485 55.8368 24.9883 55.7563L107.058 50.2841C110.257 50.0427 113.617 47.1456 114.497 43.8462L138.094 -41.2947C138.494 -42.9042 138.334 -44.4332 137.454 -45.4793C136.734 -46.3645 135.694 -46.7669 134.414 -46.7669ZM24.5883 56.0782C23.2285 56.0782 22.1086 55.5149 21.3087 54.6297C20.4288 53.503 20.1889 51.8936 20.6688 50.1232L44.2658 -35.0178C45.1457 -38.3977 48.6652 -41.3752 51.9448 -41.6166L134.014 -47.0888C135.534 -47.1693 136.894 -46.6864 137.694 -45.6403C138.574 -44.5136 138.814 -42.9042 138.334 -41.2142L114.817 43.9267C113.857 47.3871 110.417 50.3646 107.058 50.5255L24.9883 55.9977C24.9083 55.9977 24.7483 56.0782 24.5883 56.0782Z" fill="white"/>
</mask>
<g mask="url(#mask11_761_356)">
<path d="M-476.309 -135.207H421.177V767.705H-476.309V-135.207Z" fill="white"/>
</g>
</mask>
<g mask="url(#mask10_761_356)">
<path d="M134.414 -46.7669C134.254 -46.7669 134.174 -46.7669 134.014 -46.7669L51.9448 -41.2947C48.7452 -41.1338 45.3856 -38.2367 44.5057 -34.9373L20.9088 50.2036C20.5088 51.8131 20.6688 53.3421 21.5487 54.3883C22.2686 55.3539 23.5485 55.8368 24.9883 55.7563L107.058 50.2841C110.257 50.0427 113.617 47.1456 114.497 43.8462L138.094 -41.2947C138.494 -42.9042 138.334 -44.4332 137.454 -45.4793C136.734 -46.3645 135.694 -46.7669 134.414 -46.7669ZM24.5883 56.0782C23.2285 56.0782 22.1086 55.5149 21.3087 54.6297C20.4288 53.503 20.1889 51.8936 20.6688 50.1232L44.2658 -35.0178C45.1457 -38.3977 48.6652 -41.3752 51.9448 -41.6166L134.014 -47.0888C135.534 -47.1693 136.894 -46.6864 137.694 -45.6403C138.574 -44.5136 138.814 -42.9042 138.334 -41.2142L114.817 43.9267C113.857 47.3871 110.417 50.3646 107.058 50.5255L24.9883 55.9977C24.9083 55.9977 24.7483 56.0782 24.5883 56.0782Z" fill="white"/>
</g>
</mask>
<g mask="url(#mask9_761_356)">
<path d="M-476.309 -135.207H421.177V767.705H-476.309V-135.207Z" fill="url(#paint3_linear_761_356)"/>
</g>
<mask id="mask12_761_356" style="mask-type:luminance" maskUnits="userSpaceOnUse" x="16" y="-46" width="127" height="101">
<mask id="mask13_761_356" style="mask-type:luminance" maskUnits="userSpaceOnUse" x="16" y="-46" width="127" height="101">
<mask id="mask14_761_356" style="mask-type:luminance" maskUnits="userSpaceOnUse" x="16" y="-46" width="127" height="101">
<path d="M55.8616 -45.0769C52.742 -45.0769 49.2225 -42.4213 48.0226 -39.1219L17.2265 46.18C16.5866 47.7895 16.6666 49.3989 17.4665 50.606C18.1864 51.5717 19.3063 52.135 20.7461 52.2155L102.976 53.9859C106.175 54.0664 109.775 51.4108 110.975 48.1114L141.851 -37.1905C142.411 -38.8805 142.331 -40.4899 141.531 -41.6166C140.891 -42.6627 139.691 -43.226 138.251 -43.226L56.0216 -45.0769C55.9416 -45.0769 55.9416 -45.0769 55.8616 -45.0769ZM103.136 54.3078C103.056 54.3078 103.056 54.3078 102.976 54.3078L20.7461 52.4569C19.2263 52.4569 17.9465 51.8131 17.2265 50.767C16.4267 49.5599 16.2667 47.7895 16.9066 46.019L47.7826 -39.2828C48.9825 -42.6627 52.582 -45.3184 55.8616 -45.3184C55.9416 -45.3184 55.9416 -45.3184 56.0216 -45.3184L138.251 -43.5479C139.771 -43.5479 141.051 -42.9042 141.771 -41.7775C142.651 -40.5704 142.73 -38.8805 142.091 -37.1101L111.215 48.1918C110.015 51.5717 106.415 54.3078 103.136 54.3078Z" fill="white"/>
</mask>
<g mask="url(#mask14_761_356)">
<path d="M-476.309 -135.207H421.177V767.705H-476.309V-135.207Z" fill="white"/>
</g>
</mask>
<g mask="url(#mask13_761_356)">
<path d="M55.8616 -45.0769C52.742 -45.0769 49.2225 -42.4213 48.0226 -39.1219L17.2265 46.18C16.5866 47.7895 16.6666 49.3989 17.4665 50.606C18.1864 51.5717 19.3063 52.135 20.7461 52.2155L102.976 53.9859C106.175 54.0664 109.775 51.4108 110.975 48.1114L141.851 -37.1905C142.411 -38.8805 142.331 -40.4899 141.531 -41.6166C140.891 -42.6627 139.691 -43.226 138.251 -43.226L56.0216 -45.0769C55.9416 -45.0769 55.9416 -45.0769 55.8616 -45.0769ZM103.136 54.3078C103.056 54.3078 103.056 54.3078 102.976 54.3078L20.7461 52.4569C19.2263 52.4569 17.9465 51.8131 17.2265 50.767C16.4267 49.5599 16.2667 47.7895 16.9066 46.019L47.7826 -39.2828C48.9825 -42.6627 52.582 -45.3184 55.8616 -45.3184C55.9416 -45.3184 55.9416 -45.3184 56.0216 -45.3184L138.251 -43.5479C139.771 -43.5479 141.051 -42.9042 141.771 -41.7775C142.651 -40.5704 142.73 -38.8805 142.091 -37.1101L111.215 48.1918C110.015 51.5717 106.415 54.3078 103.136 54.3078Z" fill="white"/>
</g>
</mask>
<g mask="url(#mask12_761_356)">
<path d="M-476.309 -135.207H421.177V767.705H-476.309V-135.207Z" fill="url(#paint4_linear_761_356)"/>
</g>
<mask id="mask15_761_356" style="mask-type:luminance" maskUnits="userSpaceOnUse" x="12" y="-49" width="135" height="107">
<mask id="mask16_761_356" style="mask-type:luminance" maskUnits="userSpaceOnUse" x="12" y="-49" width="135" height="107">
<mask id="mask17_761_356" style="mask-type:luminance" maskUnits="userSpaceOnUse" x="12" y="-49" width="135" height="107">
<path d="M59.7819 -48.5372C56.7423 -48.5372 53.3027 -46.2839 51.9429 -43.1455L13.8678 41.6736C13.0679 43.3635 13.0679 45.0534 13.7078 46.2606C14.3477 47.3067 15.4676 48.031 16.8274 48.1919L98.577 57.4464C101.777 57.7682 105.536 55.4345 107.056 52.1351L145.211 -32.6839C145.931 -34.3739 146.011 -36.0638 145.291 -37.3514C144.651 -38.3975 143.531 -39.0413 142.171 -39.2023L60.4218 -48.5372C60.1819 -48.5372 59.9419 -48.5372 59.7819 -48.5372ZM99.2169 57.7683C99.0569 57.7683 98.8169 57.7683 98.577 57.7683L16.8274 48.4333C15.3076 48.2724 14.1077 47.5481 13.4678 46.4215C12.7479 45.0534 12.7479 43.283 13.5478 41.5126L51.7029 -43.3064C53.2227 -46.6863 57.1422 -49.181 60.4218 -48.7786L142.171 -39.5242C143.691 -39.3632 144.891 -38.639 145.531 -37.5123C146.251 -36.1443 146.251 -34.3739 145.451 -32.6035L107.296 52.2156C105.936 55.4345 102.416 57.7683 99.2169 57.7683Z" fill="white"/>
</mask>
<g mask="url(#mask17_761_356)">
<path d="M-476.309 -135.207H421.177V767.705H-476.309V-135.207Z" fill="white"/>
</g>
</mask>
<g mask="url(#mask16_761_356)">
<path d="M59.7819 -48.5372C56.7423 -48.5372 53.3027 -46.2839 51.9429 -43.1455L13.8678 41.6736C13.0679 43.3635 13.0679 45.0534 13.7078 46.2606C14.3477 47.3067 15.4676 48.031 16.8274 48.1919L98.577 57.4464C101.777 57.7682 105.536 55.4345 107.056 52.1351L145.211 -32.6839C145.931 -34.3739 146.011 -36.0638 145.291 -37.3514C144.651 -38.3975 143.531 -39.0413 142.171 -39.2023L60.4218 -48.5372C60.1819 -48.5372 59.9419 -48.5372 59.7819 -48.5372ZM99.2169 57.7683C99.0569 57.7683 98.8169 57.7683 98.577 57.7683L16.8274 48.4333C15.3076 48.2724 14.1077 47.5481 13.4678 46.4215C12.7479 45.0534 12.7479 43.283 13.5478 41.5126L51.7029 -43.3064C53.2227 -46.6863 57.1422 -49.181 60.4218 -48.7786L142.171 -39.5242C143.691 -39.3632 144.891 -38.639 145.531 -37.5123C146.251 -36.1443 146.251 -34.3739 145.451 -32.6035L107.296 52.2156C105.936 55.4345 102.416 57.7683 99.2169 57.7683Z" fill="white"/>
</g>
</mask>
<g mask="url(#mask15_761_356)">
<path d="M-476.309 -135.207H421.177V767.705H-476.309V-135.207Z" fill="url(#paint5_linear_761_356)"/>
</g>
<mask id="mask18_761_356" style="mask-type:luminance" maskUnits="userSpaceOnUse" x="9" y="-53" width="141" height="115">
<mask id="mask19_761_356" style="mask-type:luminance" maskUnits="userSpaceOnUse" x="9" y="-53" width="141" height="115">
<mask id="mask20_761_356" style="mask-type:luminance" maskUnits="userSpaceOnUse" x="9" y="-53" width="141" height="115">
<path d="M63.8597 -51.7561C60.9801 -51.7561 57.7005 -49.8247 56.1807 -46.9277L10.8265 36.6842C9.94664 38.3742 9.78666 40.1446 10.4266 41.5126C10.9065 42.6393 11.9464 43.444 13.3062 43.6854L93.9359 60.5849C97.0555 61.2286 101.055 59.1363 102.815 55.9174L148.169 -27.775C149.049 -29.465 149.209 -31.2354 148.649 -32.6034C148.089 -33.6496 147.049 -34.4543 145.689 -34.7762L65.0596 -51.6756C64.6596 -51.7561 64.2597 -51.7561 63.8597 -51.7561ZM95.1358 61.0677C94.7358 61.0677 94.2558 60.9872 93.8559 60.9067L13.2262 44.0073C11.7864 43.6854 10.6665 42.8807 10.1066 41.6736C9.46668 40.2251 9.62669 38.3742 10.5866 36.5233L55.9408 -47.0886C57.7805 -50.4685 61.86 -52.6413 65.1396 -51.9975L145.769 -35.0176C147.209 -34.7762 148.329 -33.891 148.889 -32.6839C149.529 -31.2354 149.369 -29.3845 148.409 -27.6141L103.055 56.0783C101.455 58.9754 98.0954 61.0677 95.1358 61.0677Z" fill="white"/>
</mask>
<g mask="url(#mask20_761_356)">
<path d="M-476.312 -135.207H421.173V767.705H-476.312V-135.207Z" fill="white"/>
</g>
</mask>
<g mask="url(#mask19_761_356)">
<path d="M63.8597 -51.7561C60.9801 -51.7561 57.7005 -49.8247 56.1807 -46.9277L10.8265 36.6842C9.94664 38.3742 9.78666 40.1446 10.4266 41.5126C10.9065 42.6393 11.9464 43.444 13.3062 43.6854L93.9359 60.5849C97.0555 61.2286 101.055 59.1363 102.815 55.9174L148.169 -27.775C149.049 -29.465 149.209 -31.2354 148.649 -32.6034C148.089 -33.6496 147.049 -34.4543 145.689 -34.7762L65.0596 -51.6756C64.6596 -51.7561 64.2597 -51.7561 63.8597 -51.7561ZM95.1358 61.0677C94.7358 61.0677 94.2558 60.9872 93.8559 60.9067L13.2262 44.0073C11.7864 43.6854 10.6665 42.8807 10.1066 41.6736C9.46668 40.2251 9.62669 38.3742 10.5866 36.5233L55.9408 -47.0886C57.7805 -50.4685 61.86 -52.6413 65.1396 -51.9975L145.769 -35.0176C147.209 -34.7762 148.329 -33.891 148.889 -32.6839C149.529 -31.2354 149.369 -29.3845 148.409 -27.6141L103.055 56.0783C101.455 58.9754 98.0954 61.0677 95.1358 61.0677Z" fill="white"/>
</g>
</mask>
<g mask="url(#mask18_761_356)">
<path d="M-476.312 -135.207H421.173V767.705H-476.312V-135.207Z" fill="url(#paint6_linear_761_356)"/>
</g>
<mask id="mask21_761_356" style="mask-type:luminance" maskUnits="userSpaceOnUse" x="6" y="-56" width="147" height="120">
<mask id="mask22_761_356" style="mask-type:luminance" maskUnits="userSpaceOnUse" x="6" y="-56" width="147" height="120">
<mask id="mask23_761_356" style="mask-type:luminance" maskUnits="userSpaceOnUse" x="6" y="-56" width="147" height="120">
<path d="M68.2622 -54.7337C65.4626 -54.7337 62.423 -53.0438 60.7432 -50.4686L8.34991 31.3729C7.23005 33.0628 6.91006 34.8332 7.46999 36.2818C7.86994 37.4889 8.82981 38.3741 10.1096 38.7764L89.0596 63.4013C92.0992 64.367 96.2587 62.5966 98.2584 59.3777L150.652 -22.3834C151.772 -24.0733 152.092 -25.9242 151.532 -27.3728C151.132 -28.5799 150.172 -29.3846 148.892 -29.787L69.942 -54.4923C69.4621 -54.6533 68.8222 -54.7337 68.2622 -54.7337ZM90.7394 63.9646C90.1795 63.9646 89.5395 63.8842 88.9796 63.7232L10.0297 39.0983C8.66985 38.6155 7.63 37.6498 7.15006 36.4427C6.59013 34.8332 6.91005 32.9824 8.1099 31.2119L60.5032 -50.6296C62.5829 -53.929 66.9024 -55.7799 70.102 -54.8142L148.972 -30.1088C150.332 -29.7065 151.372 -28.7408 151.852 -27.4532C152.411 -25.9242 152.092 -23.9929 150.972 -22.2225L98.4984 59.5386C96.8186 62.2747 93.619 63.9646 90.7394 63.9646Z" fill="white"/>
</mask>
<g mask="url(#mask23_761_356)">
<path d="M-476.312 -135.207H421.173V767.705H-476.312V-135.207Z" fill="white"/>
</g>
</mask>
<g mask="url(#mask22_761_356)">
<path d="M68.2622 -54.7337C65.4626 -54.7337 62.423 -53.0438 60.7432 -50.4686L8.34991 31.3729C7.23005 33.0628 6.91006 34.8332 7.46999 36.2818C7.86994 37.4889 8.82981 38.3741 10.1096 38.7764L89.0596 63.4013C92.0992 64.367 96.2587 62.5966 98.2584 59.3777L150.652 -22.3834C151.772 -24.0733 152.092 -25.9242 151.532 -27.3728C151.132 -28.5799 150.172 -29.3846 148.892 -29.787L69.942 -54.4923C69.4621 -54.6533 68.8222 -54.7337 68.2622 -54.7337ZM90.7394 63.9646C90.1795 63.9646 89.5395 63.8842 88.9796 63.7232L10.0297 39.0983C8.66985 38.6155 7.63 37.6498 7.15006 36.4427C6.59013 34.8332 6.91005 32.9824 8.1099 31.2119L60.5032 -50.6296C62.5829 -53.929 66.9024 -55.7799 70.102 -54.8142L148.972 -30.1088C150.332 -29.7065 151.372 -28.7408 151.852 -27.4532C152.411 -25.9242 152.092 -23.9929 150.972 -22.2225L98.4984 59.5386C96.8186 62.2747 93.619 63.9646 90.7394 63.9646Z" fill="white"/>
</g>
</mask>
<g mask="url(#mask21_761_356)">
<path d="M-476.312 -135.207H421.173V767.705H-476.312V-135.207Z" fill="url(#paint7_linear_761_356)"/>
</g>
<mask id="mask24_761_356" style="mask-type:luminance" maskUnits="userSpaceOnUse" x="4" y="-58" width="151" height="125">
<mask id="mask25_761_356" style="mask-type:luminance" maskUnits="userSpaceOnUse" x="4" y="-58" width="151" height="125">
<mask id="mask26_761_356" style="mask-type:luminance" maskUnits="userSpaceOnUse" x="4" y="-58" width="151" height="125">
<path d="M72.8198 -57.3893C70.1802 -57.3893 67.3006 -55.9408 65.5408 -53.6071L6.26834 25.6593C5.0685 27.2688 4.58858 29.1197 4.98853 30.7291C5.30849 31.9362 6.18835 32.9019 7.46819 33.4652L83.8584 65.896C86.8181 67.1836 91.1375 65.6546 93.4572 62.5966L152.73 -16.7502C153.93 -18.3597 154.409 -20.2106 154.009 -21.7396C153.69 -23.0272 152.81 -23.9928 151.53 -24.4757L75.1396 -56.9065C74.4197 -57.2284 73.6198 -57.3893 72.8198 -57.3893ZM86.1782 66.6203C85.3783 66.6203 84.4984 66.4593 83.7785 66.2179L7.3082 33.7066C5.94838 33.1433 5.0685 32.0972 4.66855 30.8096C4.2686 29.1197 4.74855 27.1883 6.02838 25.4983L65.3008 -53.8485C67.7005 -56.987 72.1799 -58.516 75.2195 -57.2284L151.69 -24.7976C153.05 -24.2343 153.93 -23.1881 154.329 -21.8201C154.729 -20.2106 154.249 -18.2792 152.97 -16.5088L93.6972 62.7576C91.8574 65.1718 88.8978 66.6203 86.1782 66.6203Z" fill="white"/>
</mask>
<g mask="url(#mask26_761_356)">
<path d="M-476.312 -135.207H421.173V767.705H-476.312V-135.207Z" fill="white"/>
</g>
</mask>
<g mask="url(#mask25_761_356)">
<path d="M72.8198 -57.3893C70.1802 -57.3893 67.3006 -55.9408 65.5408 -53.6071L6.26834 25.6593C5.0685 27.2688 4.58858 29.1197 4.98853 30.7291C5.30849 31.9362 6.18835 32.9019 7.46819 33.4652L83.8584 65.896C86.8181 67.1836 91.1375 65.6546 93.4572 62.5966L152.73 -16.7502C153.93 -18.3597 154.409 -20.2106 154.009 -21.7396C153.69 -23.0272 152.81 -23.9928 151.53 -24.4757L75.1396 -56.9065C74.4197 -57.2284 73.6198 -57.3893 72.8198 -57.3893ZM86.1782 66.6203C85.3783 66.6203 84.4984 66.4593 83.7785 66.2179L7.3082 33.7066C5.94838 33.1433 5.0685 32.0972 4.66855 30.8096C4.2686 29.1197 4.74855 27.1883 6.02838 25.4983L65.3008 -53.8485C67.7005 -56.987 72.1799 -58.516 75.2195 -57.2284L151.69 -24.7976C153.05 -24.2343 153.93 -23.1881 154.329 -21.8201C154.729 -20.2106 154.249 -18.2792 152.97 -16.5088L93.6972 62.7576C91.8574 65.1718 88.8978 66.6203 86.1782 66.6203Z" fill="white"/>
</g>
</mask>
<g mask="url(#mask24_761_356)">
<path d="M-476.312 -135.207H421.173V767.705H-476.312V-135.207Z" fill="url(#paint8_linear_761_356)"/>
</g>
<mask id="mask27_761_356" style="mask-type:luminance" maskUnits="userSpaceOnUse" x="2" y="-61" width="155" height="130">
<mask id="mask28_761_356" style="mask-type:luminance" maskUnits="userSpaceOnUse" x="2" y="-61" width="155" height="130">
<mask id="mask29_761_356" style="mask-type:luminance" maskUnits="userSpaceOnUse" x="2" y="-61" width="155" height="130">
<path d="M77.5447 -59.7231C75.1451 -59.7231 72.4254 -58.516 70.6656 -56.5041L4.75405 19.6237C3.31424 21.1527 2.7543 23.0841 2.99427 24.6936C3.23424 25.9812 4.03413 27.0273 5.23397 27.6711L78.5846 67.9078C81.3842 69.5173 85.7837 68.3907 88.3434 65.4132L154.255 -10.6343C155.695 -12.2437 156.255 -14.0946 156.015 -15.7846C155.775 -17.0722 154.975 -18.1183 153.775 -18.7621L80.4244 -58.9988C79.6245 -59.4817 78.5846 -59.7231 77.5447 -59.7231ZM81.4642 68.954C80.3444 68.954 79.3045 68.7126 78.4246 68.2297L5.07398 27.993C3.79415 27.2687 2.99425 26.1421 2.67429 24.7741C2.43432 23.0036 3.07423 21.0723 4.51404 19.3823L70.4256 -56.6651C73.0653 -59.7231 77.6247 -60.9302 80.5843 -59.3207L153.935 -19.0035C155.215 -18.3597 156.095 -17.2331 156.335 -15.7846C156.655 -14.0946 155.935 -12.0828 154.495 -10.4733L88.5833 65.6546C86.7436 67.7469 84.0239 68.954 81.4642 68.954Z" fill="white"/>
</mask>
<g mask="url(#mask29_761_356)">
<path d="M-476.305 -135.207H421.181V767.705H-476.305V-135.207Z" fill="white"/>
</g>
</mask>
<g mask="url(#mask28_761_356)">
<path d="M77.5447 -59.7231C75.1451 -59.7231 72.4254 -58.516 70.6656 -56.5041L4.75405 19.6237C3.31424 21.1527 2.7543 23.0841 2.99427 24.6936C3.23424 25.9812 4.03413 27.0273 5.23397 27.6711L78.5846 67.9078C81.3842 69.5173 85.7837 68.3907 88.3434 65.4132L154.255 -10.6343C155.695 -12.2437 156.255 -14.0946 156.015 -15.7846C155.775 -17.0722 154.975 -18.1183 153.775 -18.7621L80.4244 -58.9988C79.6245 -59.4817 78.5846 -59.7231 77.5447 -59.7231ZM81.4642 68.954C80.3444 68.954 79.3045 68.7126 78.4246 68.2297L5.07398 27.993C3.79415 27.2687 2.99425 26.1421 2.67429 24.7741C2.43432 23.0036 3.07423 21.0723 4.51404 19.3823L70.4256 -56.6651C73.0653 -59.7231 77.6247 -60.9302 80.5843 -59.3207L153.935 -19.0035C155.215 -18.3597 156.095 -17.2331 156.335 -15.7846C156.655 -14.0946 155.935 -12.0828 154.495 -10.4733L88.5833 65.6546C86.7436 67.7469 84.0239 68.954 81.4642 68.954Z" fill="white"/>
</g>
</mask>
<g mask="url(#mask27_761_356)">
<path d="M-476.305 -135.207H421.181V767.705H-476.305V-135.207Z" fill="url(#paint9_linear_761_356)"/>
</g>
<mask id="mask30_761_356" style="mask-type:luminance" maskUnits="userSpaceOnUse" x="1" y="-62" width="157" height="133">
<mask id="mask31_761_356" style="mask-type:luminance" maskUnits="userSpaceOnUse" x="0" y="-62" width="159" height="134">
<mask id="mask32_761_356" style="mask-type:luminance" maskUnits="userSpaceOnUse" x="0" y="-62" width="159" height="134">
<g clip-path="url(#clip0_761_356)">
<path d="M82.4207 -61.6545C80.1809 -61.6545 77.7813 -60.6888 75.9415 -58.9184L3.71069 13.2663C2.19089 14.7953 1.39103 16.6462 1.55101 18.3362C1.71099 19.7042 2.35088 20.8308 3.47073 21.6356L73.0618 69.5977C75.7815 71.4486 80.2609 70.6439 83.0606 67.8273L155.291 -4.27689C156.811 -5.80589 157.611 -7.65677 157.451 -9.42719C157.291 -10.7148 156.651 -11.9219 155.531 -12.6461L85.9402 -60.6083C84.9803 -61.3326 83.7005 -61.6545 82.4207 -61.6545ZM76.5814 70.8853C75.2216 70.8853 73.9417 70.5634 72.9018 69.8392L3.31074 21.877C2.1109 21.0722 1.39101 19.7847 1.23103 18.4166C1.07105 16.5657 1.87094 14.6344 3.47073 13.0249L75.7815 -59.1598C78.6611 -62.0568 83.3005 -62.8616 86.1002 -60.9302L155.691 -12.968C156.891 -12.0828 157.611 -10.8757 157.771 -9.42719C157.931 -7.5763 157.131 -5.64494 155.531 -4.11595L83.3005 68.0687C81.4608 69.9196 78.9011 70.8853 76.5814 70.8853Z" fill="white"/>
</g>
</mask>
<g mask="url(#mask32_761_356)">
<path d="M-476.312 -135.207H421.173V767.705H-476.312V-135.207Z" fill="white"/>
</g>
</mask>
<g mask="url(#mask31_761_356)">
<path d="M82.4207 -61.6545C80.1809 -61.6545 77.7813 -60.6888 75.9415 -58.9184L3.71069 13.2663C2.19089 14.7953 1.39103 16.6462 1.55101 18.3361C1.71099 19.7042 2.35088 20.8308 3.47073 21.6355L73.0618 69.5977C75.7815 71.4486 80.2609 70.6439 83.0606 67.8273L155.291 -4.27694C156.811 -5.80594 157.611 -7.65682 157.451 -9.42724C157.291 -10.7148 156.651 -11.9219 155.531 -12.6462L85.9402 -60.6084C84.9803 -61.3326 83.7005 -61.6545 82.4207 -61.6545ZM76.5814 70.8853C75.2216 70.8853 73.9417 70.5634 72.9018 69.8391L3.31074 21.8769C2.1109 21.0722 1.39101 19.7846 1.23103 18.4166C1.07105 16.5657 1.87094 14.6343 3.47073 13.0248L75.7815 -59.1598C78.6611 -62.0569 83.3005 -62.8616 86.1002 -60.9303L155.691 -12.9681C156.891 -12.0829 157.611 -10.8758 157.771 -9.42724C157.931 -7.57635 157.131 -5.64499 155.531 -4.116L83.3005 68.0687C81.4608 69.9196 78.9011 70.8853 76.5814 70.8853Z" fill="white"/>
</g>
</mask>
<g mask="url(#mask30_761_356)">
<path d="M-476.312 -135.207H421.173V767.705H-476.312V-135.207Z" fill="url(#paint10_linear_761_356)"/>
</g>
<mask id="mask33_761_356" style="mask-type:luminance" maskUnits="userSpaceOnUse" x="0" y="-64" width="159" height="137">
<mask id="mask34_761_356" style="mask-type:luminance" maskUnits="userSpaceOnUse" x="0" y="-64" width="159" height="137">
<mask id="mask35_761_356" style="mask-type:luminance" maskUnits="userSpaceOnUse" x="0" y="-64" width="159" height="137">
<path d="M87.4604 -63.1835C85.3807 -63.1835 83.2209 -62.4592 81.4612 -60.9302L3.23117 6.66752C1.63138 8.03557 0.671492 9.88645 0.671492 11.6569C0.671492 13.0249 1.23142 14.3125 2.27129 15.1977L67.463 70.7244C69.9426 72.8972 74.5021 72.4948 77.5417 69.9196L155.772 2.32194C157.451 0.873421 158.331 -0.977463 158.331 -2.74788C158.331 -4.11592 157.771 -5.40351 156.732 -6.28872L91.5399 -61.8154C90.5 -62.7811 88.9802 -63.1835 87.4604 -63.1835ZM71.6224 72.4948C69.9426 72.4948 68.4228 72.012 67.223 71.0463L2.1113 15.4391C0.991442 14.4734 0.351562 13.1859 0.351562 11.6569C0.351562 9.80598 1.31143 7.87461 2.99122 6.34561L81.3012 -61.1716C84.4208 -63.9077 89.1402 -64.3101 91.7799 -62.0568L156.972 -6.53014C158.091 -5.56446 158.651 -4.1964 158.651 -2.74788C158.651 -0.816513 157.691 1.11485 156.012 2.56336L77.7016 70.1611C75.9419 71.6901 73.7022 72.4948 71.6224 72.4948Z" fill="white"/>
</mask>
<g mask="url(#mask35_761_356)">
<path d="M-476.305 -135.207H421.181V767.705H-476.305V-135.207Z" fill="white"/>
</g>
</mask>
<g mask="url(#mask34_761_356)">
<path d="M87.4604 -63.1835C85.3807 -63.1835 83.2209 -62.4592 81.4612 -60.9302L3.23117 6.66752C1.63138 8.03557 0.671492 9.88645 0.671492 11.6569C0.671492 13.0249 1.23142 14.3125 2.27129 15.1977L67.463 70.7244C69.9426 72.8972 74.5021 72.4948 77.5417 69.9196L155.772 2.32194C157.451 0.873421 158.331 -0.977463 158.331 -2.74788C158.331 -4.11592 157.771 -5.40351 156.732 -6.28872L91.5399 -61.8154C90.5 -62.7811 88.9802 -63.1835 87.4604 -63.1835ZM71.6224 72.4948C69.9426 72.4948 68.4228 72.012 67.223 71.0463L2.1113 15.4391C0.991442 14.4734 0.351562 13.1859 0.351562 11.6569C0.351562 9.80598 1.31143 7.87461 2.99122 6.34561L81.3012 -61.1716C84.4208 -63.9077 89.1402 -64.3101 91.7799 -62.0568L156.972 -6.53014C158.091 -5.56446 158.651 -4.1964 158.651 -2.74788C158.651 -0.816513 157.691 1.11485 156.012 2.56336L77.7016 70.1611C75.9419 71.6901 73.7022 72.4948 71.6224 72.4948Z" fill="white"/>
</g>
</mask>
<g mask="url(#mask33_761_356)">
<path d="M-476.305 -135.207H421.181V767.705H-476.305V-135.207Z" fill="url(#paint11_linear_761_356)"/>
</g>
<mask id="mask36_761_356" style="mask-type:luminance" maskUnits="userSpaceOnUse" x="0" y="-65" width="159" height="139">
<mask id="mask37_761_356" style="mask-type:luminance" maskUnits="userSpaceOnUse" x="0" y="-65" width="159" height="139">
<mask id="mask38_761_356" style="mask-type:luminance" maskUnits="userSpaceOnUse" x="0" y="-65" width="159" height="139">
<path d="M92.4983 -64.31C90.7385 -64.31 88.7388 -63.7467 87.139 -62.5396L3.30972 -0.172646C1.54994 1.11493 0.510112 2.88534 0.350132 4.73622C0.190153 6.18475 0.670072 7.47234 1.62995 8.51849L61.7823 71.4487C64.102 73.8629 68.5814 73.9434 71.861 71.5292L155.69 9.16226C157.45 7.87469 158.49 6.0238 158.65 4.17291C158.81 2.80486 158.33 1.43682 157.37 0.390663L97.2177 -62.5396C96.0979 -63.7467 94.3381 -64.31 92.4983 -64.31ZM66.5016 73.6215C64.5819 73.6215 62.7422 72.9777 61.5423 71.6902L1.38999 8.7599C0.350123 7.63327 -0.129826 6.26522 0.0301538 4.73622C0.190133 2.80486 1.31001 0.873497 3.14977 -0.494553L86.979 -62.781C90.3386 -65.3562 95.058 -65.2757 97.4577 -62.781L157.61 0.229721C158.65 1.27587 159.13 2.7244 158.97 4.2534C158.81 6.18475 157.69 8.03564 155.85 9.40369L72.021 71.7706C70.4212 72.9777 68.3414 73.6215 66.5016 73.6215Z" fill="white"/>
</mask>
<g mask="url(#mask38_761_356)">
<path d="M-476.312 -135.207H421.173V767.705H-476.312V-135.207Z" fill="white"/>
</g>
</mask>
<g mask="url(#mask37_761_356)">
<path d="M92.4983 -64.31C90.7385 -64.31 88.7388 -63.7467 87.139 -62.5396L3.30972 -0.172646C1.54994 1.11493 0.510112 2.88534 0.350132 4.73622C0.190153 6.18475 0.670072 7.47234 1.62995 8.51849L61.7823 71.4487C64.102 73.8629 68.5814 73.9434 71.861 71.5292L155.69 9.16226C157.45 7.87469 158.49 6.0238 158.65 4.17291C158.81 2.80486 158.33 1.43682 157.37 0.390663L97.2177 -62.5396C96.0979 -63.7467 94.3381 -64.31 92.4983 -64.31ZM66.5016 73.6215C64.5819 73.6215 62.7422 72.9777 61.5423 71.6902L1.38999 8.7599C0.350123 7.63327 -0.129826 6.26522 0.0301538 4.73622C0.190133 2.80486 1.31001 0.873497 3.14977 -0.494553L86.979 -62.781C90.3386 -65.3562 95.058 -65.2757 97.4577 -62.781L157.61 0.229721C158.65 1.27587 159.13 2.7244 158.97 4.2534C158.81 6.18475 157.69 8.03564 155.85 9.40369L72.021 71.7706C70.4212 72.9777 68.3414 73.6215 66.5016 73.6215Z" fill="white"/>
</g>
</mask>
<g mask="url(#mask36_761_356)">
<path d="M-476.312 -135.207H421.173V767.705H-476.312V-135.207Z" fill="url(#paint12_linear_761_356)"/>
</g>
<mask id="mask39_761_356" style="mask-type:luminance" maskUnits="userSpaceOnUse" x="0" y="-66" width="159" height="141">
<mask id="mask40_761_356" style="mask-type:luminance" maskUnits="userSpaceOnUse" x="0" y="-66" width="159" height="141">
<mask id="mask41_761_356" style="mask-type:luminance" maskUnits="userSpaceOnUse" x="0" y="-66" width="159" height="141">
<path d="M97.6954 -65.0344C96.0956 -65.0344 94.4158 -64.632 92.896 -63.6664L4.02733 -7.25446C2.18757 -6.04736 0.907742 -4.27695 0.587783 -2.42606C0.347814 -0.977531 0.747753 0.470985 1.62764 1.59762L56.0207 71.69C58.1004 74.3456 62.6598 74.8285 66.0994 72.5752L154.968 16.1633C156.808 14.9562 158.088 13.2663 158.408 11.4154C158.648 9.96686 158.328 8.51834 157.368 7.31124L102.975 -62.7007C101.775 -64.3102 99.7751 -65.0344 97.6954 -65.0344ZM61.3 74.3456C59.0603 74.3456 57.0606 73.5409 55.7807 71.8509L1.30766 1.83904C0.427774 0.55146 0.0278352 -0.977539 0.267805 -2.50653C0.667753 -4.4379 1.94759 -6.28878 3.86734 -7.49589L92.736 -63.9883C96.3356 -66.2415 101.055 -65.7587 103.215 -62.9421L157.688 7.15028C158.648 8.35738 158.968 9.88638 158.728 11.4154C158.408 13.4272 157.048 15.1976 155.128 16.4852L66.2594 72.8971C64.7396 73.8628 62.9798 74.3456 61.3 74.3456Z" fill="white"/>
</mask>
<g mask="url(#mask41_761_356)">
<path d="M-476.312 -135.207H421.173V767.705H-476.312V-135.207Z" fill="white"/>
</g>
</mask>
<g mask="url(#mask40_761_356)">
<path d="M97.6954 -65.0344C96.0956 -65.0344 94.4158 -64.632 92.896 -63.6664L4.02733 -7.25446C2.18757 -6.04736 0.907742 -4.27695 0.587783 -2.42606C0.347814 -0.977531 0.747753 0.470985 1.62764 1.59762L56.0207 71.69C58.1004 74.3456 62.6598 74.8285 66.0994 72.5752L154.968 16.1633C156.808 14.9562 158.088 13.2663 158.408 11.4154C158.648 9.96686 158.328 8.51834 157.368 7.31124L102.975 -62.7007C101.775 -64.3102 99.7751 -65.0344 97.6954 -65.0344ZM61.3 74.3456C59.0603 74.3456 57.0606 73.5409 55.7807 71.8509L1.30766 1.83904C0.427774 0.55146 0.0278352 -0.977539 0.267805 -2.50653C0.667753 -4.4379 1.94759 -6.28878 3.86734 -7.49589L92.736 -63.9883C96.3356 -66.2415 101.055 -65.7587 103.215 -62.9421L157.688 7.15028C158.648 8.35738 158.968 9.88638 158.728 11.4154C158.408 13.4272 157.048 15.1976 155.128 16.4852L66.2594 72.8971C64.7396 73.8628 62.9798 74.3456 61.3 74.3456Z" fill="white"/>
</g>
</mask>
<g mask="url(#mask39_761_356)">
<path d="M-476.312 -135.207H421.173V767.705H-476.312V-135.207Z" fill="url(#paint13_linear_761_356)"/>
</g>
<mask id="mask42_761_356" style="mask-type:luminance" maskUnits="userSpaceOnUse" x="0" y="-66" width="159" height="141">
<mask id="mask43_761_356" style="mask-type:luminance" maskUnits="userSpaceOnUse" x="0" y="-66" width="159" height="141">
<mask id="mask44_761_356" style="mask-type:luminance" maskUnits="userSpaceOnUse" x="0" y="-66" width="159" height="141">
<g clip-path="url(#clip1_761_356)">
<path d="M102.898 -65.3562C101.538 -65.3562 100.099 -65.0343 98.8188 -64.3101L5.31076 -14.336C3.39101 -13.3704 2.03122 -11.6804 1.55128 -9.82952C1.15133 -8.30053 1.39129 -6.77153 2.19119 -5.48396L50.265 71.3682C52.1848 74.3457 56.5842 75.1505 60.2637 73.2191L153.692 23.3255C155.612 22.2794 156.971 20.5894 157.451 18.7386C157.851 17.29 157.691 15.761 156.891 14.4735L108.738 -62.4592C107.538 -64.3101 105.298 -65.3562 102.898 -65.3562ZM56.1043 74.5872C53.6246 74.5872 51.2249 73.541 50.0251 71.5291L1.87121 -5.32301C0.991322 -6.69106 0.751363 -8.30053 1.2313 -9.91C1.71124 -11.8414 3.15108 -13.6118 5.15082 -14.6579L98.6588 -64.632C102.418 -66.6438 107.058 -65.7586 108.978 -62.6201L157.131 14.3125C158.011 15.6001 158.251 17.29 157.771 18.819C157.291 20.8309 155.852 22.5208 153.852 23.6474L60.4237 73.541C58.9839 74.2652 57.5441 74.5872 56.1043 74.5872Z" fill="white"/>
</g>
</mask>
<g mask="url(#mask44_761_356)">
<path d="M-476.312 -135.207H421.173V767.705H-476.312V-135.207Z" fill="white"/>
</g>
</mask>
<g mask="url(#mask43_761_356)">
<path d="M102.894 -65.3563C101.535 -65.3563 100.095 -65.0344 98.8149 -64.3101L5.30685 -14.3361C3.3871 -13.3704 2.02731 -11.6805 1.54737 -9.82958C1.14742 -8.30059 1.38738 -6.7716 2.18728 -5.48402L50.2611 71.3682C52.1809 74.3457 56.5803 75.1504 60.2598 73.219L153.688 23.3255C155.608 22.2793 156.967 20.5894 157.447 18.7385C157.847 17.29 157.687 15.761 156.887 14.4734L108.734 -62.4592C107.534 -64.3101 105.294 -65.3563 102.894 -65.3563ZM56.1004 74.5871C53.6207 74.5871 51.221 73.5409 50.0212 71.5291L1.8673 -5.32307C0.987416 -6.69112 0.747456 -8.30059 1.2274 -9.91006C1.70733 -11.8414 3.14717 -13.6118 5.14691 -14.658L98.6549 -64.632C102.414 -66.6439 107.054 -65.7587 108.974 -62.6202L157.128 14.3125C158.007 15.6 158.247 17.29 157.767 18.819C157.287 20.8308 155.848 22.5207 153.848 23.6474L60.4198 73.5409C58.98 74.2652 57.5402 74.5871 56.1004 74.5871Z" fill="white"/>
</g>
</mask>
<g mask="url(#mask42_761_356)">
<path d="M-476.312 -135.207H421.173V767.705H-476.312V-135.207Z" fill="url(#paint14_linear_761_356)"/>
</g>
<mask id="mask45_761_356" style="mask-type:luminance" maskUnits="userSpaceOnUse" x="2" y="-66" width="155" height="141">
<mask id="mask46_761_356" style="mask-type:luminance" maskUnits="userSpaceOnUse" x="2" y="-66" width="155" height="141">
<mask id="mask47_761_356" style="mask-type:luminance" maskUnits="userSpaceOnUse" x="2" y="-66" width="155" height="141">
<path d="M108.097 -65.1148C106.977 -65.1148 105.777 -64.8733 104.657 -64.3905L7.22968 -21.5786C5.30992 -20.6934 3.79011 -19.1644 3.0702 -17.3135C2.59026 -15.7845 2.67024 -14.175 3.31016 -12.807L44.5849 70.5635C46.1847 73.7825 50.5842 74.9896 54.3437 73.3801L151.771 30.4877C153.771 29.683 155.211 28.0735 155.931 26.2226C156.491 24.6936 156.411 23.0842 155.691 21.7161L114.416 -61.5739C113.296 -63.8272 110.816 -65.1148 108.097 -65.1148ZM50.9041 74.4262C48.1044 74.4262 45.4648 73.0582 44.345 70.7245L2.99023 -12.646C2.27032 -14.0946 2.19034 -15.7845 2.75027 -17.394C3.47018 -19.4058 5.06997 -21.0153 7.14971 -21.9005L104.497 -64.7124C108.497 -66.4828 113.056 -65.1148 114.736 -61.7349L156.011 21.5552C156.731 23.0842 156.811 24.7741 156.251 26.3836C155.531 28.3149 153.931 29.9244 151.931 30.8096L54.5036 73.702C53.3038 74.1848 52.1039 74.4262 50.9041 74.4262Z" fill="white"/>
</mask>
<g mask="url(#mask47_761_356)">
<path d="M-476.312 -135.207H421.173V767.705H-476.312V-135.207Z" fill="white"/>
</g>
</mask>
<g mask="url(#mask46_761_356)">
<path d="M108.097 -65.1148C106.977 -65.1148 105.777 -64.8733 104.657 -64.3905L7.22968 -21.5786C5.30992 -20.6934 3.79011 -19.1644 3.0702 -17.3135C2.59026 -15.7845 2.67024 -14.175 3.31016 -12.807L44.5849 70.5635C46.1847 73.7825 50.5842 74.9896 54.3437 73.3801L151.771 30.4877C153.771 29.683 155.211 28.0735 155.931 26.2226C156.491 24.6936 156.411 23.0842 155.691 21.7161L114.416 -61.5739C113.296 -63.8272 110.816 -65.1148 108.097 -65.1148ZM50.9041 74.4262C48.1044 74.4262 45.4648 73.0582 44.345 70.7245L2.99023 -12.646C2.27032 -14.0946 2.19034 -15.7845 2.75027 -17.394C3.47018 -19.4058 5.06997 -21.0153 7.14971 -21.9005L104.497 -64.7124C108.497 -66.4828 113.056 -65.1148 114.736 -61.7349L156.011 21.5552C156.731 23.0842 156.811 24.7741 156.251 26.3836C155.531 28.3149 153.931 29.9244 151.931 30.8096L54.5036 73.702C53.3038 74.1848 52.1039 74.4262 50.9041 74.4262Z" fill="white"/>
</g>
</mask>
<g mask="url(#mask45_761_356)">
<path d="M-476.312 -135.207H421.173V767.705H-476.312V-135.207Z" fill="url(#paint15_linear_761_356)"/>
</g>
<mask id="mask48_761_356" style="mask-type:luminance" maskUnits="userSpaceOnUse" x="4" y="-65" width="151" height="139">
<mask id="mask49_761_356" style="mask-type:luminance" maskUnits="userSpaceOnUse" x="4" y="-65" width="151" height="139">
<mask id="mask50_761_356" style="mask-type:luminance" maskUnits="userSpaceOnUse" x="4" y="-65" width="151" height="139">
<path d="M113.296 -64.4709C112.416 -64.4709 111.457 -64.31 110.577 -63.9881L9.78962 -28.8212C7.78987 -28.0969 6.11006 -26.6484 5.31016 -24.878C4.59025 -23.349 4.5103 -21.659 5.15022 -20.13L39.0659 69.1955C40.3457 72.5754 44.5851 74.3458 48.5046 72.9778L149.212 37.7304C151.212 37.0866 152.891 35.6381 153.691 33.8677C154.411 32.2582 154.491 30.5683 153.931 29.0393L120.016 -60.2058C118.976 -62.8615 116.256 -64.4709 113.296 -64.4709ZM45.705 73.7825C42.5854 73.7825 39.7858 72.0926 38.6659 69.276L4.75027 -19.9691C4.19034 -21.659 4.27032 -23.4295 4.99023 -25.0389C5.87012 -26.8898 7.54987 -28.4188 9.7096 -29.1431L110.417 -64.31C114.496 -65.7585 118.896 -63.9881 120.336 -60.3668L154.251 28.9588C154.811 30.5682 154.731 32.3387 154.011 33.9481C153.131 35.8795 151.452 37.328 149.372 38.1328L48.5847 73.2997C47.6248 73.6216 46.6649 73.7825 45.705 73.7825Z" fill="white"/>
</mask>
<g mask="url(#mask50_761_356)">
<path d="M-476.309 -135.207H421.177V767.705H-476.309V-135.207Z" fill="white"/>
</g>
</mask>
<g mask="url(#mask49_761_356)">
<path d="M113.296 -64.4709C112.416 -64.4709 111.457 -64.31 110.577 -63.9881L9.78962 -28.8212C7.78987 -28.0969 6.11006 -26.6484 5.31016 -24.878C4.59025 -23.349 4.5103 -21.659 5.15022 -20.13L39.0659 69.1955C40.3457 72.5754 44.5851 74.3458 48.5046 72.9778L149.212 37.7304C151.212 37.0866 152.891 35.6381 153.691 33.8677C154.411 32.2582 154.491 30.5683 153.931 29.0393L120.016 -60.2058C118.976 -62.8615 116.256 -64.4709 113.296 -64.4709ZM45.705 73.7825C42.5854 73.7825 39.7858 72.0926 38.6659 69.276L4.75027 -19.9691C4.19034 -21.659 4.27032 -23.4295 4.99023 -25.0389C5.87012 -26.8898 7.54987 -28.4188 9.7096 -29.1431L110.417 -64.31C114.496 -65.7585 118.896 -63.9881 120.336 -60.3668L154.251 28.9588C154.811 30.5682 154.731 32.3387 154.011 33.9481C153.131 35.8795 151.452 37.328 149.372 38.1328L48.5847 73.2997C47.6248 73.6216 46.6649 73.7825 45.705 73.7825Z" fill="white"/>
</g>
</mask>
<g mask="url(#mask48_761_356)">
<path d="M-476.309 -135.207H421.177V767.705H-476.309V-135.207Z" fill="url(#paint16_linear_761_356)"/>
</g>
<mask id="mask51_761_356" style="mask-type:luminance" maskUnits="userSpaceOnUse" x="6" y="-64" width="147" height="137">
<mask id="mask52_761_356" style="mask-type:luminance" maskUnits="userSpaceOnUse" x="6" y="-64" width="147" height="137">
<mask id="mask53_761_356" style="mask-type:luminance" maskUnits="userSpaceOnUse" x="6" y="-64" width="147" height="137">
<path d="M118.412 -63.3444C117.772 -63.3444 117.052 -63.2639 116.332 -63.0225L12.9055 -35.9834C10.9057 -35.5006 9.14596 -34.213 8.18608 -32.4426C7.3062 -30.9136 7.06624 -29.1432 7.54618 -27.5337L33.5429 67.2641C34.5827 70.8854 38.6622 73.0582 42.6617 72.012L146.088 44.9729C148.088 44.4096 149.848 43.122 150.808 41.4321C151.688 39.9031 151.928 38.1327 151.448 36.4427L125.451 -58.355C124.571 -61.3325 121.692 -63.3444 118.412 -63.3444ZM40.5819 72.6558C37.1424 72.6558 34.1028 70.5635 33.2229 67.3445L7.14623 -27.4532C6.66629 -29.1432 6.90623 -30.994 7.86611 -32.684C8.90597 -34.4544 10.7457 -35.8224 12.8255 -36.3858L116.252 -63.4249C120.492 -64.471 124.731 -62.2982 125.771 -58.4355L151.848 36.3623C152.328 38.1327 152.088 39.9836 151.128 41.593C150.088 43.4439 148.248 44.7315 146.168 45.2948L42.7417 72.3339C42.0218 72.4948 41.3019 72.6558 40.5819 72.6558Z" fill="white"/>
</mask>
<g mask="url(#mask53_761_356)">
<path d="M-476.312 -135.207H421.173V767.705H-476.312V-135.207Z" fill="white"/>
</g>
</mask>
<g mask="url(#mask52_761_356)">
<path d="M118.412 -63.3444C117.772 -63.3444 117.052 -63.2639 116.332 -63.0225L12.9055 -35.9834C10.9057 -35.5006 9.14596 -34.213 8.18608 -32.4426C7.3062 -30.9136 7.06624 -29.1432 7.54618 -27.5337L33.5429 67.2641C34.5827 70.8854 38.6622 73.0582 42.6617 72.012L146.088 44.9729C148.088 44.4096 149.848 43.122 150.808 41.4321C151.688 39.9031 151.928 38.1327 151.448 36.4427L125.451 -58.355C124.571 -61.3325 121.692 -63.3444 118.412 -63.3444ZM40.5819 72.6558C37.1424 72.6558 34.1028 70.5635 33.2229 67.3445L7.14623 -27.4532C6.66629 -29.1432 6.90623 -30.994 7.86611 -32.684C8.90597 -34.4544 10.7457 -35.8224 12.8255 -36.3858L116.252 -63.4249C120.492 -64.471 124.731 -62.2982 125.771 -58.4355L151.848 36.3623C152.328 38.1327 152.088 39.9836 151.128 41.593C150.088 43.4439 148.248 44.7315 146.168 45.2948L42.7417 72.3339C42.0218 72.4948 41.3019 72.6558 40.5819 72.6558Z" fill="white"/>
</g>
</mask>
<g mask="url(#mask51_761_356)">
<path d="M-476.312 -135.207H421.173V767.705H-476.312V-135.207Z" fill="url(#paint17_linear_761_356)"/>
</g>
<mask id="mask54_761_356" style="mask-type:luminance" maskUnits="userSpaceOnUse" x="10" y="-63" width="139" height="134">
<mask id="mask55_761_356" style="mask-type:luminance" maskUnits="userSpaceOnUse" x="10" y="-63" width="139" height="134">
<mask id="mask56_761_356" style="mask-type:luminance" maskUnits="userSpaceOnUse" x="10" y="-63" width="139" height="134">
<path d="M123.457 -61.6544C122.977 -61.6544 122.577 -61.6544 122.097 -61.5739L16.6709 -43.1455C14.6712 -42.7431 12.9114 -41.697 11.7115 -40.007C10.6717 -38.478 10.2717 -36.6272 10.5917 -34.8567L28.3494 64.8499C28.9894 68.6322 32.9088 71.2073 36.9083 70.483L142.335 52.0546C144.335 51.7327 146.094 50.6061 147.294 48.9162C148.334 47.3872 148.734 45.6167 148.414 43.8463L130.656 -55.8603C130.096 -59.2402 126.977 -61.6544 123.457 -61.6544ZM35.5485 70.9659C31.869 70.9659 28.5894 68.4712 27.9495 64.8499L10.1917 -34.8567C9.87179 -36.7076 10.3517 -38.639 11.3916 -40.2485C12.6714 -41.9384 14.5112 -43.1455 16.6709 -43.4674L122.017 -61.8958C126.257 -62.6201 130.336 -59.9645 131.056 -55.9408L148.814 43.7658C149.134 45.6167 148.734 47.5481 147.614 49.1576C146.414 50.928 144.495 52.0546 142.335 52.457L36.9883 70.8854C36.5084 70.9659 36.0285 70.9659 35.5485 70.9659Z" fill="white"/>
</mask>
<g mask="url(#mask56_761_356)">
<path d="M-476.309 -135.207H421.177V767.705H-476.309V-135.207Z" fill="white"/>
</g>
</mask>
<g mask="url(#mask55_761_356)">
<path d="M123.457 -61.6544C122.977 -61.6544 122.577 -61.6544 122.097 -61.5739L16.6709 -43.1455C14.6712 -42.7431 12.9114 -41.697 11.7115 -40.007C10.6717 -38.478 10.2717 -36.6272 10.5917 -34.8567L28.3494 64.8499C28.9894 68.6322 32.9088 71.2073 36.9083 70.483L142.335 52.0546C144.335 51.7327 146.094 50.6061 147.294 48.9162C148.334 47.3872 148.734 45.6167 148.414 43.8463L130.656 -55.8603C130.096 -59.2402 126.977 -61.6544 123.457 -61.6544ZM35.5485 70.9659C31.869 70.9659 28.5894 68.4712 27.9495 64.8499L10.1917 -34.8567C9.87179 -36.7076 10.3517 -38.639 11.3916 -40.2485C12.6714 -41.9384 14.5112 -43.1455 16.6709 -43.4674L122.017 -61.8958C126.257 -62.6201 130.336 -59.9645 131.056 -55.9408L148.814 43.7658C149.134 45.6167 148.734 47.5481 147.614 49.1576C146.414 50.928 144.495 52.0546 142.335 52.457L36.9883 70.8854C36.5084 70.9659 36.0285 70.9659 35.5485 70.9659Z" fill="white"/>
</g>
</mask>
<g mask="url(#mask54_761_356)">
<path d="M-476.309 -135.207H421.177V767.705H-476.309V-135.207Z" fill="url(#paint18_linear_761_356)"/>
</g>
<mask id="mask57_761_356" style="mask-type:luminance" maskUnits="userSpaceOnUse" x="13" y="-60" width="133" height="129">
<mask id="mask58_761_356" style="mask-type:luminance" maskUnits="userSpaceOnUse" x="13" y="-60" width="133" height="129">
<mask id="mask59_761_356" style="mask-type:luminance" maskUnits="userSpaceOnUse" x="13" y="-60" width="133" height="129">
<path d="M128.333 -59.4817C128.093 -59.4817 127.853 -59.4817 127.613 -59.4817L21.0669 -50.0663C19.0672 -49.9053 17.3074 -49.0201 15.9476 -47.4911C14.6678 -46.0426 14.1078 -44.1112 14.2678 -42.1799L23.3066 61.7919C23.4666 63.7232 24.4265 65.4937 25.9463 66.7812C27.4661 67.9883 29.3859 68.6321 31.3856 68.3907L137.932 59.0558C142.091 58.6534 145.131 55.1126 144.731 51.0889L135.692 -52.8828C135.532 -54.8142 134.652 -56.5846 133.053 -57.7917C131.773 -58.9183 130.093 -59.4817 128.333 -59.4817ZM30.6657 68.7931C28.8259 68.7931 27.0661 68.2298 25.7063 67.0227C24.1065 65.7351 23.0666 63.8842 22.9067 61.8723L13.8678 -42.1799C13.7078 -44.1917 14.3478 -46.2035 15.7076 -47.7325C17.0674 -49.342 18.9872 -50.3077 21.0669 -50.4686L127.613 -59.884C129.693 -60.045 131.693 -59.4012 133.293 -58.1136C134.892 -56.826 135.932 -54.9751 136.092 -52.8828L145.131 51.0889C145.531 55.2735 142.251 59.0558 138.012 59.3777L31.3856 68.7931C31.1456 68.7931 30.9057 68.7931 30.6657 68.7931Z" fill="white"/>
</mask>
<g mask="url(#mask59_761_356)">
<path d="M-476.312 -135.207H421.173V767.705H-476.312V-135.207Z" fill="white"/>
</g>
</mask>
<g mask="url(#mask58_761_356)">
<path d="M128.333 -59.4817C128.093 -59.4817 127.853 -59.4817 127.613 -59.4817L21.0669 -50.0663C19.0672 -49.9053 17.3074 -49.0201 15.9476 -47.4911C14.6678 -46.0426 14.1078 -44.1112 14.2678 -42.1799L23.3066 61.7919C23.4666 63.7232 24.4265 65.4937 25.9463 66.7812C27.4661 67.9883 29.3859 68.6321 31.3856 68.3907L137.932 59.0558C142.091 58.6534 145.131 55.1126 144.731 51.0889L135.692 -52.8828C135.532 -54.8142 134.652 -56.5846 133.053 -57.7917C131.773 -58.9183 130.093 -59.4817 128.333 -59.4817ZM30.6657 68.7931C28.8259 68.7931 27.0661 68.2298 25.7063 67.0227C24.1065 65.7351 23.0666 63.8842 22.9067 61.8723L13.8678 -42.1799C13.7078 -44.1917 14.3478 -46.2035 15.7076 -47.7325C17.0674 -49.342 18.9872 -50.3077 21.0669 -50.4686L127.613 -59.884C129.693 -60.045 131.693 -59.4012 133.293 -58.1136C134.892 -56.826 135.932 -54.9751 136.092 -52.8828L145.131 51.0889C145.531 55.2735 142.251 59.0558 138.012 59.3777L31.3856 68.7931C31.1456 68.7931 30.9057 68.7931 30.6657 68.7931Z" fill="white"/>
</g>
</mask>
<g mask="url(#mask57_761_356)">
<path d="M-476.312 -135.207H421.173V767.705H-476.312V-135.207Z" fill="url(#paint19_linear_761_356)"/>
</g>
<mask id="mask60_761_356" style="mask-type:luminance" maskUnits="userSpaceOnUse" x="18" y="-58" width="123" height="125">
<mask id="mask61_761_356" style="mask-type:luminance" maskUnits="userSpaceOnUse" x="18" y="-58" width="123" height="125">
<mask id="mask62_761_356" style="mask-type:luminance" maskUnits="userSpaceOnUse" x="18" y="-58" width="123" height="125">
<path d="M26.0265 -56.8261C21.867 -56.8261 18.5074 -53.4462 18.5074 -49.3421V58.251C18.5074 62.4356 21.867 65.8155 26.0265 65.8155H132.973C137.132 65.8155 140.492 62.4356 140.492 58.251V-49.3421C140.492 -53.4462 137.132 -56.8261 132.973 -56.8261H26.0265ZM132.973 66.2178H26.0265C21.707 66.2178 18.1875 62.677 18.1875 58.251V-49.3421C18.1875 -53.6876 21.707 -57.2285 26.0265 -57.2285H132.973C137.292 -57.2285 140.812 -53.6876 140.812 -49.3421V58.251C140.812 62.677 137.292 66.2178 132.973 66.2178Z" fill="white"/>
</mask>
<g mask="url(#mask62_761_356)">
<path d="M-476.309 -135.207H421.177V767.705H-476.309V-135.207Z" fill="white"/>
</g>
</mask>
<g mask="url(#mask61_761_356)">
<path d="M26.0265 -56.8261C21.867 -56.8261 18.5074 -53.4462 18.5074 -49.3421V58.251C18.5074 62.4356 21.867 65.8155 26.0265 65.8155H132.973C137.132 65.8155 140.492 62.4356 140.492 58.251V-49.3421C140.492 -53.4462 137.132 -56.8261 132.973 -56.8261H26.0265ZM132.973 66.2178H26.0265C21.707 66.2178 18.1875 62.677 18.1875 58.251V-49.3421C18.1875 -53.6876 21.707 -57.2285 26.0265 -57.2285H132.973C137.292 -57.2285 140.812 -53.6876 140.812 -49.3421V58.251C140.812 62.677 137.292 66.2178 132.973 66.2178Z" fill="white"/>
</g>
</mask>
<g mask="url(#mask60_761_356)">
<path d="M-476.309 -135.207H421.177V767.705H-476.309V-135.207Z" fill="url(#paint20_linear_761_356)"/>
</g>
<defs>
<linearGradient id="paint0_linear_761_356" x1="33.6678" y1="4.4716" x2="125.346" y2="4.4716" gradientUnits="userSpaceOnUse">
<stop stop-color="#3DDEED"/>
<stop offset="1" stop-color="#CB00DD"/>
</linearGradient>
<linearGradient id="paint1_linear_761_356" x1="29.0277" y1="4.4716" x2="129.978" y2="4.4716" gradientUnits="userSpaceOnUse">
<stop stop-color="#3DDEED"/>
<stop offset="1" stop-color="#CB00DD"/>
</linearGradient>
<linearGradient id="paint2_linear_761_356" x1="24.5939" y1="4.47142" x2="134.412" y2="4.47142" gradientUnits="userSpaceOnUse">
<stop stop-color="#3DDEED"/>
<stop offset="1" stop-color="#CB00DD"/>
</linearGradient>
<linearGradient id="paint3_linear_761_356" x1="20.4143" y1="4.47142" x2="138.598" y2="4.47142" gradientUnits="userSpaceOnUse">
<stop stop-color="#3DDEED"/>
<stop offset="1" stop-color="#CB00DD"/>
</linearGradient>
<linearGradient id="paint4_linear_761_356" x1="16.5124" y1="4.47141" x2="142.5" y2="4.47141" gradientUnits="userSpaceOnUse">
<stop stop-color="#3DDEED"/>
<stop offset="1" stop-color="#CB00DD"/>
</linearGradient>
<linearGradient id="paint5_linear_761_356" x1="12.9368" y1="4.4716" x2="146.077" y2="4.4716" gradientUnits="userSpaceOnUse">
<stop stop-color="#3DDEED"/>
<stop offset="1" stop-color="#CB00DD"/>
</linearGradient>
<linearGradient id="paint6_linear_761_356" x1="9.72137" y1="4.47147" x2="149.284" y2="4.47147" gradientUnits="userSpaceOnUse">
<stop stop-color="#3DDEED"/>
<stop offset="1" stop-color="#CB00DD"/>
</linearGradient>
<linearGradient id="paint7_linear_761_356" x1="6.91054" y1="4.47142" x2="152.094" y2="4.47142" gradientUnits="userSpaceOnUse">
<stop stop-color="#3DDEED"/>
<stop offset="1" stop-color="#CB00DD"/>
</linearGradient>
<linearGradient id="paint8_linear_761_356" x1="4.53642" y1="4.47142" x2="154.47" y2="4.47142" gradientUnits="userSpaceOnUse">
<stop stop-color="#3DDEED"/>
<stop offset="1" stop-color="#CB00DD"/>
</linearGradient>
<linearGradient id="paint9_linear_761_356" x1="2.63647" y1="4.47141" x2="156.385" y2="4.47141" gradientUnits="userSpaceOnUse">
<stop stop-color="#3DDEED"/>
<stop offset="1" stop-color="#CB00DD"/>
</linearGradient>
<linearGradient id="paint10_linear_761_356" x1="1.21767" y1="4.47142" x2="157.787" y2="4.47142" gradientUnits="userSpaceOnUse">
<stop stop-color="#3DDEED"/>
<stop offset="1" stop-color="#CB00DD"/>
</linearGradient>
<linearGradient id="paint11_linear_761_356" x1="0.337583" y1="4.47141" x2="158.685" y2="4.47141" gradientUnits="userSpaceOnUse">
<stop stop-color="#3DDEED"/>
<stop offset="1" stop-color="#CB00DD"/>
</linearGradient>
<linearGradient id="paint12_linear_761_356" x1="-0.0149842" y1="4.4716" x2="159.02" y2="4.4716" gradientUnits="userSpaceOnUse">
<stop stop-color="#3DDEED"/>
<stop offset="1" stop-color="#CB00DD"/>
</linearGradient>
<linearGradient id="paint13_linear_761_356" x1="0.204985" y1="4.47129" x2="158.802" y2="4.47129" gradientUnits="userSpaceOnUse">
<stop stop-color="#3DDEED"/>
<stop offset="1" stop-color="#CB00DD"/>
</linearGradient>
<linearGradient id="paint14_linear_761_356" x1="1.00167" y1="4.47141" x2="158.004" y2="4.47141" gradientUnits="userSpaceOnUse">
<stop stop-color="#3DDEED"/>
<stop offset="1" stop-color="#CB00DD"/>
</linearGradient>
<linearGradient id="paint15_linear_761_356" x1="2.3863" y1="4.4716" x2="156.619" y2="4.4716" gradientUnits="userSpaceOnUse">
<stop stop-color="#3DDEED"/>
<stop offset="1" stop-color="#CB00DD"/>
</linearGradient>
<linearGradient id="paint16_linear_761_356" x1="4.36922" y1="4.47148" x2="154.645" y2="4.47148" gradientUnits="userSpaceOnUse">
<stop stop-color="#3DDEED"/>
<stop offset="1" stop-color="#CB00DD"/>
</linearGradient>
<linearGradient id="paint17_linear_761_356" x1="6.93771" y1="4.47147" x2="152.068" y2="4.47147" gradientUnits="userSpaceOnUse">
<stop stop-color="#3DDEED"/>
<stop offset="1" stop-color="#CB00DD"/>
</linearGradient>
<linearGradient id="paint18_linear_761_356" x1="10.1061" y1="4.47142" x2="148.908" y2="4.47142" gradientUnits="userSpaceOnUse">
<stop stop-color="#3DDEED"/>
<stop offset="1" stop-color="#CB00DD"/>
</linearGradient>
<linearGradient id="paint19_linear_761_356" x1="13.848" y1="4.47148" x2="145.157" y2="4.47148" gradientUnits="userSpaceOnUse">
<stop stop-color="#3DDEED"/>
<stop offset="1" stop-color="#CB00DD"/>
</linearGradient>
<linearGradient id="paint20_linear_761_356" x1="18.1666" y1="4.4713" x2="140.847" y2="4.4713" gradientUnits="userSpaceOnUse">
<stop stop-color="#3DDEED"/>
<stop offset="1" stop-color="#CB00DD"/>
</linearGradient>
<clipPath id="clip0_761_356">
<rect width="157.58" height="133.586" fill="white" transform="translate(0.429688 -61.9763)"/>
</clipPath>
<clipPath id="clip1_761_356">
<rect width="157.58" height="140.829" fill="white" transform="translate(0.429688 -66)"/>
</clipPath>
</defs>
</svg>
