<svg width="194" height="100" viewBox="0 0 194 100" fill="none" xmlns="http://www.w3.org/2000/svg">
<mask id="mask0_416_645" style="mask-type:luminance" maskUnits="userSpaceOnUse" x="40" y="-57" width="113" height="144">
<mask id="mask1_416_645" style="mask-type:luminance" maskUnits="userSpaceOnUse" x="40" y="-57" width="113" height="144">
<mask id="mask2_416_645" style="mask-type:luminance" maskUnits="userSpaceOnUse" x="40" y="-57" width="113" height="144">
<path d="M147.499 -56.3999C146.819 -56.3999 146.237 -56.3027 145.459 -56.0113L50.7452 -25.217C47.0538 -23.9541 43.9451 -19.9713 43.848 -16.1827L41.2252 81.543C41.2252 83.3887 41.808 84.8459 42.9738 85.7201C44.1395 86.5944 45.7909 86.7887 47.6366 86.2059L142.351 55.3144C146.042 54.1487 149.151 50.0687 149.248 46.2801L151.871 -51.4456C151.968 -53.1942 151.288 -54.6513 150.122 -55.5256C149.442 -56.1084 148.471 -56.3999 147.499 -56.3999ZM45.5966 86.8858C44.528 86.8858 43.5566 86.5944 42.7795 86.0116C41.5166 85.0401 40.8366 83.4859 40.9337 81.543L43.5566 -16.1827C43.6537 -20.0684 46.8594 -24.2456 50.648 -25.5084L145.362 -56.3999C147.305 -56.9827 149.054 -56.7884 150.317 -55.817C151.579 -54.8456 152.259 -53.2913 152.259 -51.4456L149.539 46.2801C149.442 50.1659 146.334 54.4401 142.448 55.6059L47.7337 86.4973C46.9566 86.7887 46.2766 86.8858 45.5966 86.8858Z" fill="white"/>
</mask>
<g mask="url(#mask2_416_645)">
<path d="M-578.449 -153.543H511.494V936.4H-578.449V-153.543Z" fill="white"/>
</g>
</mask>
<g mask="url(#mask1_416_645)">
<path d="M147.499 -56.3999C146.819 -56.3999 146.237 -56.3027 145.459 -56.0113L50.7452 -25.217C47.0538 -23.9541 43.9451 -19.9713 43.848 -16.1827L41.2252 81.543C41.2252 83.3887 41.808 84.8459 42.9738 85.7201C44.1395 86.5944 45.7909 86.7887 47.6366 86.2059L142.351 55.3144C146.042 54.1487 149.151 50.0687 149.248 46.2801L151.871 -51.4456C151.968 -53.1942 151.288 -54.6513 150.122 -55.5256C149.442 -56.1084 148.471 -56.3999 147.499 -56.3999ZM45.5966 86.8858C44.528 86.8858 43.5566 86.5944 42.7795 86.0116C41.5166 85.0401 40.8366 83.4859 40.9337 81.543L43.5566 -16.1827C43.6537 -20.0684 46.8594 -24.2456 50.648 -25.5084L145.362 -56.3999C147.305 -56.9827 149.054 -56.7884 150.317 -55.817C151.579 -54.8456 152.259 -53.2913 152.259 -51.4456L149.539 46.2801C149.442 50.1659 146.334 54.4401 142.448 55.6059L47.7337 86.4973C46.9566 86.7887 46.2766 86.8858 45.5966 86.8858Z" fill="white"/>
</g>
</mask>
<g mask="url(#mask0_416_645)">
<path d="M-578.449 -153.543H511.494V936.4H-578.449V-153.543Z" fill="white"/>
</g>
<mask id="mask3_416_645" style="mask-type:luminance" maskUnits="userSpaceOnUse" x="35" y="-55" width="123" height="140">
<mask id="mask4_416_645" style="mask-type:luminance" maskUnits="userSpaceOnUse" x="35" y="-55" width="123" height="140">
<mask id="mask5_416_645" style="mask-type:luminance" maskUnits="userSpaceOnUse" x="35" y="-55" width="123" height="140">
<path d="M153.037 -53.777C152.551 -53.777 152.065 -53.6799 151.482 -53.5828L54.4366 -30.3656C50.648 -29.4913 47.248 -25.6056 46.7623 -21.7199L35.688 78.4344C35.3966 80.2801 35.9794 81.8344 37.048 82.8058C38.2137 83.8744 39.768 84.1658 41.6137 83.6801L138.659 60.5601C142.448 59.5887 145.848 55.7029 146.334 51.8172L157.505 -48.2399C157.699 -50.0856 157.214 -51.737 156.048 -52.7085C155.271 -53.3885 154.202 -53.777 153.037 -53.777ZM40.0594 84.2629C38.7966 84.2629 37.728 83.8744 36.8537 83.0972C35.5909 82.0287 35.1051 80.3772 35.2994 78.3372L46.4708 -21.7199C46.8594 -25.7999 50.4537 -29.7828 54.3394 -30.7542L151.482 -53.8742C153.328 -54.3599 155.077 -54.0685 156.242 -52.9999C157.505 -51.9313 157.991 -50.1828 157.797 -48.2399L146.625 51.9144C146.237 55.8972 142.642 59.9772 138.757 60.8515L41.7109 84.0687C41.128 84.1658 40.5451 84.2629 40.0594 84.2629Z" fill="white"/>
</mask>
<g mask="url(#mask5_416_645)">
<path d="M-578.449 -153.543H511.494V936.4H-578.449V-153.543Z" fill="white"/>
</g>
</mask>
<g mask="url(#mask4_416_645)">
<path d="M153.037 -53.777C152.551 -53.777 152.065 -53.6799 151.482 -53.5828L54.4366 -30.3656C50.648 -29.4913 47.248 -25.6056 46.7623 -21.7199L35.688 78.4344C35.3966 80.2801 35.9794 81.8344 37.048 82.8058C38.2137 83.8744 39.768 84.1658 41.6137 83.6801L138.659 60.5601C142.448 59.5887 145.848 55.7029 146.334 51.8172L157.505 -48.2399C157.699 -50.0856 157.214 -51.737 156.048 -52.7085C155.271 -53.3885 154.202 -53.777 153.037 -53.777ZM40.0594 84.2629C38.7966 84.2629 37.728 83.8744 36.8537 83.0972C35.5909 82.0287 35.1051 80.3772 35.2994 78.3372L46.4708 -21.7199C46.8594 -25.7999 50.4537 -29.7828 54.3394 -30.7542L151.482 -53.8742C153.328 -54.3599 155.077 -54.0685 156.242 -52.9999C157.505 -51.9313 157.991 -50.1828 157.797 -48.2399L146.625 51.9144C146.237 55.8972 142.642 59.9772 138.757 60.8515L41.7109 84.0687C41.128 84.1658 40.5451 84.2629 40.0594 84.2629Z" fill="white"/>
</g>
</mask>
<g mask="url(#mask3_416_645)">
<path d="M-578.449 -153.543H511.494V936.4H-578.449V-153.543Z" fill="white"/>
</g>
<mask id="mask6_416_645" style="mask-type:luminance" maskUnits="userSpaceOnUse" x="29" y="-51" width="135" height="133">
<mask id="mask7_416_645" style="mask-type:luminance" maskUnits="userSpaceOnUse" x="29" y="-51" width="135" height="133">
<mask id="mask8_416_645" style="mask-type:luminance" maskUnits="userSpaceOnUse" x="29" y="-51" width="135" height="133">
<path d="M158.282 -50.5714C157.991 -50.5714 157.602 -50.5714 157.311 -50.4742L58.5165 -35.4171C54.728 -34.8342 50.9393 -31.1428 50.1622 -27.16L30.3451 74.6458C29.9565 76.5886 30.3451 78.2401 31.4136 79.4058C32.4822 80.4743 34.0365 80.8629 35.7851 80.6686L134.579 65.5143C138.368 64.9315 142.157 61.24 142.934 57.3543L162.751 -44.4514C163.139 -46.3942 162.751 -48.1428 161.682 -49.2114C160.808 -50.0857 159.642 -50.5714 158.282 -50.5714ZM34.8136 81.0572C33.3565 81.0572 32.0936 80.5715 31.2193 79.6001C30.0536 78.4343 29.6651 76.5886 30.0537 74.5486L49.8708 -27.2571C50.6479 -31.3371 54.5337 -35.1257 58.5165 -35.7085L157.214 -50.8628C159.157 -51.1542 160.808 -50.6685 161.876 -49.5028C163.042 -48.24 163.528 -46.4914 163.139 -44.4514L143.225 57.3543C142.448 61.4343 138.562 65.32 134.579 65.9029L35.8823 80.96C35.4937 81.0572 35.2022 81.0572 34.8136 81.0572Z" fill="white"/>
</mask>
<g mask="url(#mask8_416_645)">
<path d="M-578.449 -153.543H511.494V936.4H-578.449V-153.543Z" fill="white"/>
</g>
</mask>
<g mask="url(#mask7_416_645)">
<path d="M158.282 -50.5714C157.991 -50.5714 157.602 -50.5714 157.311 -50.4742L58.5165 -35.4171C54.728 -34.8342 50.9393 -31.1428 50.1622 -27.16L30.3451 74.6458C29.9565 76.5886 30.3451 78.2401 31.4136 79.4058C32.4822 80.4743 34.0365 80.8629 35.7851 80.6686L134.579 65.5143C138.368 64.9315 142.157 61.24 142.934 57.3543L162.751 -44.4514C163.139 -46.3942 162.751 -48.1428 161.682 -49.2114C160.808 -50.0857 159.642 -50.5714 158.282 -50.5714ZM34.8136 81.0572C33.3565 81.0572 32.0936 80.5715 31.2193 79.6001C30.0536 78.4343 29.6651 76.5886 30.0537 74.5486L49.8708 -27.2571C50.6479 -31.3371 54.5337 -35.1257 58.5165 -35.7085L157.214 -50.8628C159.157 -51.1542 160.808 -50.6685 161.876 -49.5028C163.042 -48.24 163.528 -46.4914 163.139 -44.4514L143.225 57.3543C142.448 61.4343 138.562 65.32 134.579 65.9029L35.8823 80.96C35.4937 81.0572 35.2022 81.0572 34.8136 81.0572Z" fill="white"/>
</g>
</mask>
<g mask="url(#mask6_416_645)">
<path d="M-578.449 -153.543H511.494V936.4H-578.449V-153.543Z" fill="white"/>
</g>
<mask id="mask9_416_645" style="mask-type:luminance" maskUnits="userSpaceOnUse" x="24" y="-48" width="145" height="126">
<mask id="mask10_416_645" style="mask-type:luminance" maskUnits="userSpaceOnUse" x="24" y="-48" width="145" height="126">
<mask id="mask11_416_645" style="mask-type:luminance" maskUnits="userSpaceOnUse" x="24" y="-48" width="145" height="126">
<path d="M163.236 -46.7829C163.042 -46.7829 162.945 -46.7829 162.751 -46.7829L63.0822 -40.1772C59.1965 -39.9829 55.1165 -36.4858 54.0479 -32.5029L25.3907 70.2742C24.905 72.2171 25.0994 74.0628 26.1679 75.3257C27.0422 76.4914 28.5965 77.0742 30.3451 76.9771L130.014 70.3714C133.899 70.0799 137.979 66.5828 139.048 62.6L167.705 -40.1772C168.191 -42.1201 167.996 -43.9658 166.928 -45.2286C166.054 -46.2972 164.791 -46.7829 163.236 -46.7829ZM29.8594 77.3657C28.2079 77.3657 26.8479 76.6857 25.8765 75.6171C24.8079 74.2571 24.5165 72.3142 25.0993 70.1771L53.7565 -32.6C54.825 -36.68 59.0994 -40.2743 63.0822 -40.5658L162.751 -47.1715C164.596 -47.2686 166.248 -46.6858 167.219 -45.4229C168.288 -44.0629 168.579 -42.12 167.997 -40.08L139.436 62.6971C138.271 66.8742 134.094 70.4685 130.014 70.6628L30.3451 77.2685C30.2479 77.2685 30.0536 77.3657 29.8594 77.3657Z" fill="white"/>
</mask>
<g mask="url(#mask11_416_645)">
<path d="M-578.449 -153.543H511.494V936.4H-578.449V-153.543Z" fill="white"/>
</g>
</mask>
<g mask="url(#mask10_416_645)">
<path d="M163.236 -46.7829C163.042 -46.7829 162.945 -46.7829 162.751 -46.7829L63.0822 -40.1772C59.1965 -39.9829 55.1165 -36.4858 54.0479 -32.5029L25.3907 70.2742C24.905 72.2171 25.0994 74.0628 26.1679 75.3257C27.0422 76.4914 28.5965 77.0742 30.3451 76.9771L130.014 70.3714C133.899 70.0799 137.979 66.5828 139.048 62.6L167.705 -40.1772C168.191 -42.1201 167.996 -43.9658 166.928 -45.2286C166.054 -46.2972 164.791 -46.7829 163.236 -46.7829ZM29.8594 77.3657C28.2079 77.3657 26.8479 76.6857 25.8765 75.6171C24.8079 74.2571 24.5165 72.3142 25.0993 70.1771L53.7565 -32.6C54.825 -36.68 59.0994 -40.2743 63.0822 -40.5658L162.751 -47.1715C164.596 -47.2686 166.248 -46.6858 167.219 -45.4229C168.288 -44.0629 168.579 -42.12 167.997 -40.08L139.436 62.6971C138.271 66.8742 134.094 70.4685 130.014 70.6628L30.3451 77.2685C30.2479 77.2685 30.0536 77.3657 29.8594 77.3657Z" fill="white"/>
</g>
</mask>
<g mask="url(#mask9_416_645)">
<path d="M-578.449 -153.543H511.494V936.4H-578.449V-153.543Z" fill="white"/>
</g>
<mask id="mask12_416_645" style="mask-type:luminance" maskUnits="userSpaceOnUse" x="20" y="-46" width="154" height="122">
<mask id="mask13_416_645" style="mask-type:luminance" maskUnits="userSpaceOnUse" x="20" y="-46" width="154" height="122">
<mask id="mask14_416_645" style="mask-type:luminance" maskUnits="userSpaceOnUse" x="20" y="-46" width="154" height="122">
<path d="M67.8423 -44.7429C64.0537 -44.7429 59.7795 -41.5372 58.3223 -37.5543L20.9223 65.4171C20.1452 67.36 20.2423 69.3028 21.2137 70.76C22.088 71.9257 23.4481 72.6057 25.1966 72.7028L125.059 74.84C128.945 74.9371 133.317 71.7314 134.774 67.7486L172.271 -35.2229C172.951 -37.2629 172.854 -39.2057 171.882 -40.5657C171.105 -41.8286 169.648 -42.5086 167.899 -42.5086L68.0366 -44.7429C67.9395 -44.7429 67.9394 -44.7429 67.8423 -44.7429ZM125.254 75.2286C125.157 75.2286 125.157 75.2286 125.059 75.2286L25.1966 72.9943C23.3509 72.9943 21.7966 72.2171 20.9223 70.9543C19.9509 69.4971 19.7566 67.36 20.5337 65.2228L58.0309 -37.7486C59.488 -41.8286 63.8594 -45.0343 67.8423 -45.0343C67.9394 -45.0343 67.9395 -45.0343 68.0366 -45.0343L167.899 -42.8972C169.745 -42.8972 171.299 -42.12 172.174 -40.76C173.242 -39.3029 173.339 -37.2629 172.562 -35.1257L135.065 67.8457C133.608 71.9257 129.237 75.2286 125.254 75.2286Z" fill="white"/>
</mask>
<g mask="url(#mask14_416_645)">
<path d="M-578.449 -153.543H511.494V936.4H-578.449V-153.543Z" fill="white"/>
</g>
</mask>
<g mask="url(#mask13_416_645)">
<path d="M67.8423 -44.7429C64.0537 -44.7429 59.7795 -41.5372 58.3223 -37.5543L20.9223 65.4171C20.1452 67.36 20.2423 69.3028 21.2137 70.76C22.088 71.9257 23.4481 72.6057 25.1966 72.7028L125.059 74.84C128.945 74.9371 133.317 71.7314 134.774 67.7486L172.271 -35.2229C172.951 -37.2629 172.854 -39.2057 171.882 -40.5657C171.105 -41.8286 169.648 -42.5086 167.899 -42.5086L68.0366 -44.7429C67.9395 -44.7429 67.9394 -44.7429 67.8423 -44.7429ZM125.254 75.2286C125.157 75.2286 125.157 75.2286 125.059 75.2286L25.1966 72.9943C23.3509 72.9943 21.7966 72.2171 20.9223 70.9543C19.9509 69.4971 19.7566 67.36 20.5337 65.2228L58.0309 -37.7486C59.488 -41.8286 63.8594 -45.0343 67.8423 -45.0343C67.9394 -45.0343 67.9395 -45.0343 68.0366 -45.0343L167.899 -42.8972C169.745 -42.8972 171.299 -42.12 172.174 -40.76C173.242 -39.3029 173.339 -37.2629 172.562 -35.1257L135.065 67.8457C133.608 71.9257 129.237 75.2286 125.254 75.2286Z" fill="white"/>
</g>
</mask>
<g mask="url(#mask12_416_645)">
<path d="M-578.449 -153.543H511.494V936.4H-578.449V-153.543Z" fill="white"/>
</g>
<mask id="mask15_416_645" style="mask-type:luminance" maskUnits="userSpaceOnUse" x="15" y="-50" width="163" height="130">
<mask id="mask16_416_645" style="mask-type:luminance" maskUnits="userSpaceOnUse" x="15" y="-50" width="163" height="130">
<mask id="mask17_416_645" style="mask-type:luminance" maskUnits="userSpaceOnUse" x="15" y="-50" width="163" height="130">
<path d="M72.6022 -48.9199C68.9107 -48.9199 64.7336 -46.1999 63.0822 -42.4113L16.8422 59.9772C15.8707 62.0173 15.8707 64.0573 16.6479 65.5144C17.425 66.7773 18.785 67.6515 20.4364 67.8458L119.716 79.0172C123.602 79.4058 128.168 76.5887 130.014 72.6058L176.351 -29.7827C177.225 -31.8227 177.322 -33.8627 176.448 -35.417C175.671 -36.6799 174.311 -37.457 172.659 -37.6513L73.3793 -48.9199C73.0879 -48.9199 72.7965 -48.9199 72.6022 -48.9199ZM120.494 79.4058C120.299 79.4058 120.008 79.4058 119.716 79.4058L20.4364 68.1372C18.5907 67.943 17.1336 67.0687 16.3564 65.7087C15.4822 64.0572 15.4822 61.9201 16.4536 59.783L62.7907 -42.6056C64.6364 -46.6856 69.3964 -49.697 73.3793 -49.2113L172.659 -38.0399C174.505 -37.8456 175.962 -36.9713 176.739 -35.6113C177.614 -33.9599 177.614 -31.8227 176.642 -29.6856L130.305 72.703C128.654 76.5887 124.379 79.4058 120.494 79.4058Z" fill="white"/>
</mask>
<g mask="url(#mask17_416_645)">
<path d="M-578.449 -153.543H511.494V936.4H-578.449V-153.543Z" fill="white"/>
</g>
</mask>
<g mask="url(#mask16_416_645)">
<path d="M72.6022 -48.9199C68.9107 -48.9199 64.7336 -46.1999 63.0822 -42.4113L16.8422 59.9772C15.8707 62.0173 15.8707 64.0573 16.6479 65.5144C17.425 66.7773 18.785 67.6515 20.4364 67.8458L119.716 79.0172C123.602 79.4058 128.168 76.5887 130.014 72.6058L176.351 -29.7827C177.225 -31.8227 177.322 -33.8627 176.448 -35.417C175.671 -36.6799 174.311 -37.457 172.659 -37.6513L73.3793 -48.9199C73.0879 -48.9199 72.7965 -48.9199 72.6022 -48.9199ZM120.494 79.4058C120.299 79.4058 120.008 79.4058 119.716 79.4058L20.4364 68.1372C18.5907 67.943 17.1336 67.0687 16.3564 65.7087C15.4822 64.0572 15.4822 61.9201 16.4536 59.783L62.7907 -42.6056C64.6364 -46.6856 69.3964 -49.697 73.3793 -49.2113L172.659 -38.0399C174.505 -37.8456 175.962 -36.9713 176.739 -35.6113C177.614 -33.9599 177.614 -31.8227 176.642 -29.6856L130.305 72.703C128.654 76.5887 124.379 79.4058 120.494 79.4058Z" fill="white"/>
</g>
</mask>
<g mask="url(#mask15_416_645)">
<path d="M-578.449 -153.543H511.494V936.4H-578.449V-153.543Z" fill="white"/>
</g>
<mask id="mask18_416_645" style="mask-type:luminance" maskUnits="userSpaceOnUse" x="11" y="-54" width="171" height="138">
<mask id="mask19_416_645" style="mask-type:luminance" maskUnits="userSpaceOnUse" x="11" y="-54" width="171" height="138">
<mask id="mask20_416_645" style="mask-type:luminance" maskUnits="userSpaceOnUse" x="11" y="-54" width="171" height="138">
<path d="M77.5566 -52.8056C74.0594 -52.8056 70.0766 -50.4742 68.2309 -46.9771L13.1509 53.9544C12.0823 55.9944 11.888 58.1315 12.6652 59.7829C13.248 61.1429 14.5109 62.1144 16.1623 62.4058L114.082 82.8058C117.871 83.5829 122.728 81.0572 124.865 77.1715L179.945 -23.8571C181.014 -25.8971 181.208 -28.0342 180.528 -29.6856C179.848 -30.9485 178.585 -31.9199 176.934 -32.3085L79.0137 -52.7085C78.528 -52.8056 78.0423 -52.8056 77.5566 -52.8056ZM115.539 83.3886C115.054 83.3886 114.471 83.2915 113.985 83.1944L16.0652 62.7944C14.3166 62.4058 12.9566 61.4344 12.2766 59.9772C11.4994 58.2287 11.6938 55.9944 12.8595 53.7601L67.9395 -47.1713C70.1738 -51.2513 75.128 -53.8742 79.1109 -53.0971L177.031 -32.5999C178.779 -32.3085 180.139 -31.2399 180.819 -29.7828C181.597 -28.0342 181.402 -25.7999 180.237 -23.6628L125.157 77.3658C123.214 80.8629 119.134 83.3886 115.539 83.3886Z" fill="white"/>
</mask>
<g mask="url(#mask20_416_645)">
<path d="M-578.449 -153.543H511.494V936.4H-578.449V-153.543Z" fill="white"/>
</g>
</mask>
<g mask="url(#mask19_416_645)">
<path d="M77.5566 -52.8056C74.0594 -52.8056 70.0766 -50.4742 68.2309 -46.9771L13.1509 53.9544C12.0823 55.9944 11.888 58.1315 12.6652 59.7829C13.248 61.1429 14.5109 62.1144 16.1623 62.4058L114.082 82.8058C117.871 83.5829 122.728 81.0572 124.865 77.1715L179.945 -23.8571C181.014 -25.8971 181.208 -28.0342 180.528 -29.6856C179.848 -30.9485 178.585 -31.9199 176.934 -32.3085L79.0137 -52.7085C78.528 -52.8056 78.0423 -52.8056 77.5566 -52.8056ZM115.539 83.3886C115.054 83.3886 114.471 83.2915 113.985 83.1944L16.0652 62.7944C14.3166 62.4058 12.9566 61.4344 12.2766 59.9772C11.4994 58.2287 11.6938 55.9944 12.8595 53.7601L67.9395 -47.1713C70.1738 -51.2513 75.128 -53.8742 79.1109 -53.0971L177.031 -32.5999C178.779 -32.3085 180.139 -31.2399 180.819 -29.7828C181.597 -28.0342 181.402 -25.7999 180.237 -23.6628L125.157 77.3658C123.214 80.8629 119.134 83.3886 115.539 83.3886Z" fill="white"/>
</g>
</mask>
<g mask="url(#mask18_416_645)">
<path d="M-578.449 -153.543H511.494V936.4H-578.449V-153.543Z" fill="white"/>
</g>
<mask id="mask21_416_645" style="mask-type:luminance" maskUnits="userSpaceOnUse" x="8" y="-57" width="177" height="144">
<mask id="mask22_416_645" style="mask-type:luminance" maskUnits="userSpaceOnUse" x="8" y="-57" width="177" height="144">
<mask id="mask23_416_645" style="mask-type:luminance" maskUnits="userSpaceOnUse" x="8" y="-57" width="177" height="144">
<path d="M82.8993 -56.4C79.4993 -56.4 75.8079 -54.36 73.7679 -51.2514L10.1394 47.5428C8.77937 49.5828 8.39076 51.72 9.07076 53.4686C9.55647 54.9257 10.7222 55.9943 12.2765 56.48L108.156 86.2057C111.848 87.3714 116.899 85.2343 119.328 81.3486L182.956 -17.3486C184.316 -19.3886 184.705 -21.6229 184.025 -23.3714C183.539 -24.8286 182.374 -25.8 180.819 -26.2857L84.9394 -56.1086C84.3565 -56.3029 83.5793 -56.4 82.8993 -56.4ZM110.197 86.8857C109.517 86.8857 108.739 86.7886 108.059 86.5943L12.1793 56.8686C10.5279 56.2857 9.26508 55.12 8.68222 53.6628C8.00222 51.72 8.39075 49.4857 9.84789 47.3486L73.4765 -51.4457C76.0022 -55.4286 81.2479 -57.6629 85.1336 -56.4971L180.917 -26.6743C182.568 -26.1886 183.831 -25.0229 184.414 -23.4686C185.094 -21.6229 184.705 -19.2914 183.345 -17.1543L119.619 81.5428C117.579 84.8457 113.694 86.8857 110.197 86.8857Z" fill="white"/>
</mask>
<g mask="url(#mask23_416_645)">
<path d="M-578.449 -153.543H511.494V936.4H-578.449V-153.543Z" fill="white"/>
</g>
</mask>
<g mask="url(#mask22_416_645)">
<path d="M82.8993 -56.4C79.4993 -56.4 75.8079 -54.36 73.7679 -51.2514L10.1394 47.5428C8.77937 49.5828 8.39076 51.72 9.07076 53.4686C9.55647 54.9257 10.7222 55.9943 12.2765 56.48L108.156 86.2057C111.848 87.3714 116.899 85.2343 119.328 81.3486L182.956 -17.3486C184.316 -19.3886 184.705 -21.6229 184.025 -23.3714C183.539 -24.8286 182.374 -25.8 180.819 -26.2857L84.9394 -56.1086C84.3565 -56.3029 83.5793 -56.4 82.8993 -56.4ZM110.197 86.8857C109.517 86.8857 108.739 86.7886 108.059 86.5943L12.1793 56.8686C10.5279 56.2857 9.26508 55.12 8.68222 53.6628C8.00222 51.72 8.39075 49.4857 9.84789 47.3486L73.4765 -51.4457C76.0022 -55.4286 81.2479 -57.6629 85.1336 -56.4971L180.917 -26.6743C182.568 -26.1886 183.831 -25.0229 184.414 -23.4686C185.094 -21.6229 184.705 -19.2914 183.345 -17.1543L119.619 81.5428C117.579 84.8457 113.694 86.8857 110.197 86.8857Z" fill="white"/>
</g>
</mask>
<g mask="url(#mask21_416_645)">
<path d="M-578.449 -153.543H511.494V936.4H-578.449V-153.543Z" fill="white"/>
</g>
<mask id="mask24_416_645" style="mask-type:luminance" maskUnits="userSpaceOnUse" x="5" y="-60" width="183" height="151">
<mask id="mask25_416_645" style="mask-type:luminance" maskUnits="userSpaceOnUse" x="5" y="-60" width="183" height="151">
<mask id="mask26_416_645" style="mask-type:luminance" maskUnits="userSpaceOnUse" x="5" y="-60" width="183" height="151">
<path d="M88.4366 -59.6057C85.2309 -59.6057 81.7338 -57.8571 79.5966 -55.04L7.61375 40.6457C6.15661 42.5886 5.57377 44.8229 6.05949 46.7657C6.44806 48.2229 7.51661 49.3886 9.07089 50.0686L101.842 89.2171C105.437 90.7714 110.682 88.9257 113.499 85.2343L185.482 -10.5486C186.939 -12.4914 187.522 -14.7257 187.037 -16.5714C186.648 -18.1257 185.579 -19.2914 184.025 -19.8743L91.2538 -59.0228C90.3795 -59.4114 89.408 -59.6057 88.4366 -59.6057ZM104.659 90.0914C103.688 90.0914 102.619 89.8971 101.745 89.6057L8.87659 50.36C7.22517 49.68 6.15661 48.4172 5.67089 46.8629C5.18518 44.8229 5.76805 42.4914 7.32233 40.4514L79.3052 -55.3314C82.2194 -59.12 87.6595 -60.9657 91.3509 -59.4114L184.219 -20.2629C185.871 -19.5829 186.939 -18.32 187.425 -16.6686C187.911 -14.7257 187.328 -12.3943 185.774 -10.2571L113.791 85.4286C111.557 88.3428 107.962 90.0914 104.659 90.0914Z" fill="white"/>
</mask>
<g mask="url(#mask26_416_645)">
<path d="M-578.449 -153.543H511.494V936.4H-578.449V-153.543Z" fill="white"/>
</g>
</mask>
<g mask="url(#mask25_416_645)">
<path d="M88.4366 -59.6057C85.2309 -59.6057 81.7338 -57.8571 79.5966 -55.04L7.61375 40.6457C6.15661 42.5886 5.57377 44.8229 6.05949 46.7657C6.44806 48.2229 7.51661 49.3886 9.07089 50.0686L101.842 89.2171C105.437 90.7714 110.682 88.9257 113.499 85.2343L185.482 -10.5486C186.939 -12.4914 187.522 -14.7257 187.037 -16.5714C186.648 -18.1257 185.579 -19.2914 184.025 -19.8743L91.2538 -59.0228C90.3795 -59.4114 89.408 -59.6057 88.4366 -59.6057ZM104.659 90.0914C103.688 90.0914 102.619 89.8971 101.745 89.6057L8.87659 50.36C7.22517 49.68 6.15661 48.4172 5.67089 46.8629C5.18518 44.8229 5.76805 42.4914 7.32233 40.4514L79.3052 -55.3314C82.2194 -59.12 87.6595 -60.9657 91.3509 -59.4114L184.219 -20.2629C185.871 -19.5829 186.939 -18.32 187.425 -16.6686C187.911 -14.7257 187.328 -12.3943 185.774 -10.2571L113.791 85.4286C111.557 88.3428 107.962 90.0914 104.659 90.0914Z" fill="white"/>
</g>
</mask>
<g mask="url(#mask24_416_645)">
<path d="M-578.449 -153.543H511.494V936.4H-578.449V-153.543Z" fill="white"/>
</g>
<mask id="mask27_416_645" style="mask-type:luminance" maskUnits="userSpaceOnUse" x="3" y="-63" width="187" height="156">
<mask id="mask28_416_645" style="mask-type:luminance" maskUnits="userSpaceOnUse" x="3" y="-63" width="187" height="156">
<mask id="mask29_416_645" style="mask-type:luminance" maskUnits="userSpaceOnUse" x="3" y="-63" width="187" height="156">
<path d="M94.168 -62.4228C91.2537 -62.4228 87.9508 -60.9657 85.8137 -58.5371L5.76798 33.36C4.01941 35.2057 3.3394 37.5371 3.63083 39.48C3.92226 41.0343 4.89367 42.2971 6.35082 43.0743L95.4308 91.6457C98.8308 93.5886 104.174 92.2286 107.282 88.6343L187.328 -3.1657C189.077 -5.10856 189.757 -7.34285 189.465 -9.38285C189.174 -10.9371 188.202 -12.2 186.745 -12.9771L97.6651 -61.5486C96.6937 -62.1314 95.4308 -62.4228 94.168 -62.4228ZM98.9279 92.9086C97.5679 92.9086 96.3051 92.6172 95.2365 92.0343L6.15652 43.4629C4.60223 42.5886 3.6308 41.2286 3.24223 39.5771C2.9508 37.44 3.72794 35.1086 5.47651 33.0686L85.5222 -58.7314C88.728 -62.4229 94.2651 -63.88 97.8594 -61.9371L186.939 -13.2686C188.494 -12.4914 189.562 -11.1314 189.854 -9.38285C190.242 -7.34285 189.368 -4.91428 187.619 -2.97142L107.574 88.9257C105.339 91.4514 102.037 92.9086 98.9279 92.9086Z" fill="white"/>
</mask>
<g mask="url(#mask29_416_645)">
<path d="M-578.449 -153.543H511.494V936.4H-578.449V-153.543Z" fill="white"/>
</g>
</mask>
<g mask="url(#mask28_416_645)">
<path d="M94.168 -62.4228C91.2537 -62.4228 87.9508 -60.9657 85.8137 -58.5371L5.76798 33.36C4.01941 35.2057 3.3394 37.5371 3.63083 39.48C3.92226 41.0343 4.89367 42.2971 6.35082 43.0743L95.4308 91.6457C98.8308 93.5886 104.174 92.2286 107.282 88.6343L187.328 -3.1657C189.077 -5.10856 189.757 -7.34285 189.465 -9.38285C189.174 -10.9371 188.202 -12.2 186.745 -12.9771L97.6651 -61.5486C96.6937 -62.1314 95.4308 -62.4228 94.168 -62.4228ZM98.9279 92.9086C97.5679 92.9086 96.3051 92.6172 95.2365 92.0343L6.15652 43.4629C4.60223 42.5886 3.6308 41.2286 3.24223 39.5771C2.9508 37.44 3.72794 35.1086 5.47651 33.0686L85.5222 -58.7314C88.728 -62.4229 94.2651 -63.88 97.8594 -61.9371L186.939 -13.2686C188.494 -12.4914 189.562 -11.1314 189.854 -9.38285C190.242 -7.34285 189.368 -4.91428 187.619 -2.97142L107.574 88.9257C105.339 91.4514 102.037 92.9086 98.9279 92.9086Z" fill="white"/>
</g>
</mask>
<g mask="url(#mask27_416_645)">
<path d="M-578.449 -153.543H511.494V936.4H-578.449V-153.543Z" fill="white"/>
</g>
<mask id="mask30_416_645" style="mask-type:luminance" maskUnits="userSpaceOnUse" x="1" y="-66" width="191" height="162">
<mask id="mask31_416_645" style="mask-type:luminance" maskUnits="userSpaceOnUse" x="0" y="-66" width="192" height="163">
<mask id="mask32_416_645" style="mask-type:luminance" maskUnits="userSpaceOnUse" x="0" y="-66" width="192" height="163">
<g clip-path="url(#clip0_416_645)">
<rect width="191.371" height="161.257" transform="translate(0.522217 -65.1428)" fill="white"/>
<path d="M100.094 -64.7543C97.3736 -64.7543 94.4594 -63.5886 92.2251 -61.4514L4.50504 25.6857C2.65933 27.5314 1.68795 29.7657 1.88223 31.8057C2.07652 33.4571 2.85363 34.8171 4.21363 35.7886L88.7279 93.6857C92.0308 95.92 97.4708 94.9486 100.871 91.5486L188.591 4.50857C190.436 2.66286 191.408 0.428581 191.214 -1.70856C191.019 -3.26285 190.242 -4.71999 188.882 -5.59427L104.368 -63.4914C103.202 -64.3657 101.648 -64.7543 100.094 -64.7543ZM93.0022 95.24C91.3508 95.24 89.7965 94.8514 88.5336 93.9771L4.01933 36.08C2.56219 35.1086 1.68792 33.5543 1.49364 31.9028C1.29935 29.6686 2.27077 27.3371 4.21363 25.3943L92.0308 -61.7428C95.5279 -65.24 101.162 -66.2114 104.562 -63.88L189.076 -5.98285C190.534 -4.91428 191.408 -3.45713 191.602 -1.70856C191.797 0.525719 190.825 2.85714 188.882 4.70286L101.162 91.84C98.9279 94.0743 95.8194 95.24 93.0022 95.24Z" fill="white"/>
</g>
</mask>
<g mask="url(#mask32_416_645)">
<path d="M-578.449 -153.543H511.494V936.4H-578.449V-153.543Z" fill="white"/>
</g>
</mask>
<g mask="url(#mask31_416_645)">
<path d="M100.094 -64.7543C97.3736 -64.7543 94.4594 -63.5886 92.2251 -61.4515L4.50504 25.6857C2.65933 27.5314 1.68795 29.7657 1.88223 31.8057C2.07652 33.4571 2.85363 34.8171 4.21363 35.7885L88.7279 93.6857C92.0308 95.92 97.4708 94.9485 100.871 91.5485L188.591 4.50852C190.436 2.66281 191.408 0.428528 191.214 -1.70861C191.019 -3.2629 190.242 -4.72004 188.882 -5.59433L104.368 -63.4915C103.202 -64.3658 101.648 -64.7543 100.094 -64.7543ZM93.0022 95.24C91.3508 95.24 89.7965 94.8514 88.5336 93.9771L4.01933 36.0799C2.56219 35.1085 1.68792 33.5542 1.49364 31.9028C1.29935 29.6685 2.27077 27.3371 4.21363 25.3942L92.0308 -61.7429C95.5279 -65.24 101.162 -66.2115 104.562 -63.88L189.076 -5.98291C190.534 -4.91433 191.408 -3.45718 191.602 -1.70861C191.797 0.525673 190.825 2.85709 188.882 4.7028L101.162 91.84C98.9279 94.0742 95.8194 95.24 93.0022 95.24Z" fill="white"/>
</g>
</mask>
<g mask="url(#mask30_416_645)">
<path d="M-578.449 -153.543H511.494V936.4H-578.449V-153.543Z" fill="white"/>
</g>
<mask id="mask33_416_645" style="mask-type:luminance" maskUnits="userSpaceOnUse" x="0" y="-68" width="193" height="166">
<mask id="mask34_416_645" style="mask-type:luminance" maskUnits="userSpaceOnUse" x="0" y="-68" width="193" height="166">
<mask id="mask35_416_645" style="mask-type:luminance" maskUnits="userSpaceOnUse" x="0" y="-68" width="193" height="166">
<path d="M106.214 -66.6C103.688 -66.6 101.065 -65.7257 98.9279 -63.88L3.92217 17.72C1.97931 19.3715 0.813585 21.6057 0.813585 23.7429C0.813585 25.3943 1.49358 26.9486 2.75644 28.0172L81.9279 95.0457C84.9393 97.6686 90.4765 97.1829 94.1679 94.0743L189.174 12.4743C191.214 10.7257 192.282 8.49146 192.282 6.35431C192.282 4.70288 191.602 3.14858 190.339 2.08002L111.168 -64.9486C109.905 -66.1143 108.059 -66.6 106.214 -66.6ZM86.9793 97.1829C84.9393 97.1829 83.0936 96.6 81.6365 95.4343L2.56214 28.3086C1.20214 27.1429 0.425049 25.5886 0.425049 23.7429C0.425049 21.5086 1.59075 19.1772 3.63075 17.3314L98.7336 -64.1714C102.522 -67.4743 108.254 -67.96 111.459 -65.24L190.631 1.78858C191.991 2.9543 192.671 4.60574 192.671 6.35431C192.671 8.68574 191.505 11.0172 189.465 12.7657L94.3621 94.3657C92.225 96.2114 89.505 97.1829 86.9793 97.1829Z" fill="white"/>
</mask>
<g mask="url(#mask35_416_645)">
<path d="M-578.449 -153.543H511.494V936.4H-578.449V-153.543Z" fill="white"/>
</g>
</mask>
<g mask="url(#mask34_416_645)">
<path d="M106.214 -66.6C103.688 -66.6 101.065 -65.7257 98.9279 -63.88L3.92217 17.72C1.97931 19.3715 0.813585 21.6057 0.813585 23.7429C0.813585 25.3943 1.49358 26.9486 2.75644 28.0172L81.9279 95.0457C84.9393 97.6686 90.4765 97.1829 94.1679 94.0743L189.174 12.4743C191.214 10.7257 192.282 8.49146 192.282 6.35431C192.282 4.70288 191.602 3.14858 190.339 2.08002L111.168 -64.9486C109.905 -66.1143 108.059 -66.6 106.214 -66.6ZM86.9793 97.1829C84.9393 97.1829 83.0936 96.6 81.6365 95.4343L2.56214 28.3086C1.20214 27.1429 0.425049 25.5886 0.425049 23.7429C0.425049 21.5086 1.59075 19.1772 3.63075 17.3314L98.7336 -64.1714C102.522 -67.4743 108.254 -67.96 111.459 -65.24L190.631 1.78858C191.991 2.9543 192.671 4.60574 192.671 6.35431C192.671 8.68574 191.505 11.0172 189.465 12.7657L94.3621 94.3657C92.225 96.2114 89.505 97.1829 86.9793 97.1829Z" fill="white"/>
</g>
</mask>
<g mask="url(#mask33_416_645)">
<path d="M-578.449 -153.543H511.494V936.4H-578.449V-153.543Z" fill="white"/>
</g>
<mask id="mask36_416_645" style="mask-type:luminance" maskUnits="userSpaceOnUse" x="0" y="-69" width="194" height="168">
<mask id="mask37_416_645" style="mask-type:luminance" maskUnits="userSpaceOnUse" x="0" y="-69" width="194" height="168">
<mask id="mask38_416_645" style="mask-type:luminance" maskUnits="userSpaceOnUse" x="0" y="-69" width="194" height="168">
<path d="M112.334 -67.9599C110.197 -67.9599 107.768 -67.2799 105.825 -65.8227L4.01945 9.46298C1.88231 11.0173 0.619501 13.1544 0.425215 15.3887C0.230929 17.1373 0.813763 18.6916 1.97948 19.9544L75.0309 95.9201C77.8481 98.8344 83.288 98.9315 87.2709 96.0173L189.077 20.7315C191.214 19.1773 192.477 16.943 192.671 14.7087C192.865 13.0573 192.282 11.4058 191.117 10.143L118.065 -65.8227C116.705 -67.2799 114.568 -67.9599 112.334 -67.9599ZM80.7623 98.543C78.4309 98.543 76.1966 97.7658 74.7395 96.2116L1.68806 20.2458C0.425203 18.8858 -0.157666 17.2344 0.03662 15.3887C0.230906 13.0573 1.59093 10.7258 3.82521 9.0744L105.631 -66.1142C109.711 -69.2227 115.442 -69.1256 118.357 -66.1142L191.408 9.9487C192.671 11.2116 193.254 12.9601 193.059 14.8058C192.865 17.1373 191.505 19.3716 189.271 21.023L87.4652 96.3087C85.5223 97.7659 82.9966 98.543 80.7623 98.543Z" fill="white"/>
</mask>
<g mask="url(#mask38_416_645)">
<path d="M-578.449 -153.543H511.494V936.4H-578.449V-153.543Z" fill="white"/>
</g>
</mask>
<g mask="url(#mask37_416_645)">
<path d="M112.334 -67.9599C110.197 -67.9599 107.768 -67.2799 105.825 -65.8227L4.01945 9.46298C1.88231 11.0173 0.619501 13.1544 0.425215 15.3887C0.230929 17.1373 0.813763 18.6916 1.97948 19.9544L75.0309 95.9201C77.8481 98.8344 83.288 98.9315 87.2709 96.0173L189.077 20.7315C191.214 19.1773 192.477 16.943 192.671 14.7087C192.865 13.0573 192.282 11.4058 191.117 10.143L118.065 -65.8227C116.705 -67.2799 114.568 -67.9599 112.334 -67.9599ZM80.7623 98.543C78.4309 98.543 76.1966 97.7658 74.7395 96.2116L1.68806 20.2458C0.425203 18.8858 -0.157666 17.2344 0.03662 15.3887C0.230906 13.0573 1.59093 10.7258 3.82521 9.0744L105.631 -66.1142C109.711 -69.2227 115.442 -69.1256 118.357 -66.1142L191.408 9.9487C192.671 11.2116 193.254 12.9601 193.059 14.8058C192.865 17.1373 191.505 19.3716 189.271 21.023L87.4652 96.3087C85.5223 97.7659 82.9966 98.543 80.7623 98.543Z" fill="white"/>
</g>
</mask>
<g mask="url(#mask36_416_645)">
<path d="M-578.449 -153.543H511.494V936.4H-578.449V-153.543Z" fill="white"/>
</g>
<mask id="mask39_416_645" style="mask-type:luminance" maskUnits="userSpaceOnUse" x="0" y="-70" width="193" height="170">
<mask id="mask40_416_645" style="mask-type:luminance" maskUnits="userSpaceOnUse" x="0" y="-70" width="193" height="170">
<mask id="mask41_416_645" style="mask-type:luminance" maskUnits="userSpaceOnUse" x="0" y="-70" width="193" height="170">
<path d="M118.648 -68.8344C116.705 -68.8344 114.665 -68.3486 112.82 -67.1829L4.89389 0.914207C2.65961 2.37135 1.10533 4.5085 0.716762 6.74278C0.425333 8.49136 0.911035 10.2399 1.97961 11.5999L68.0368 96.2113C70.5625 99.4171 76.0996 99.9999 80.2767 97.2799L188.202 29.1828C190.437 27.7256 191.991 25.6856 192.38 23.4513C192.671 21.7028 192.282 19.9542 191.117 18.4971L125.06 -66.0172C123.602 -67.9601 121.174 -68.8344 118.648 -68.8344ZM74.4482 99.4171C71.7282 99.4171 69.2996 98.4456 67.7453 96.4056L1.59101 11.8914C0.52244 10.3371 0.0367378 8.49135 0.328166 6.64563C0.813881 4.3142 2.36817 2.07993 4.6996 0.62278L112.625 -67.5715C116.997 -70.2915 122.728 -69.7086 125.351 -66.3086L191.505 18.3028C192.671 19.7599 193.06 21.6056 192.768 23.4513C192.38 25.8799 190.728 28.0171 188.397 29.5714L80.471 97.6685C78.6253 98.8342 76.4882 99.4171 74.4482 99.4171Z" fill="white"/>
</mask>
<g mask="url(#mask41_416_645)">
<path d="M-578.449 -153.543H511.494V936.4H-578.449V-153.543Z" fill="white"/>
</g>
</mask>
<g mask="url(#mask40_416_645)">
<path d="M118.648 -68.8344C116.705 -68.8344 114.665 -68.3486 112.82 -67.1829L4.89389 0.914207C2.65961 2.37135 1.10533 4.5085 0.716762 6.74278C0.425333 8.49136 0.911035 10.2399 1.97961 11.5999L68.0368 96.2113C70.5625 99.4171 76.0996 99.9999 80.2767 97.2799L188.202 29.1828C190.437 27.7256 191.991 25.6856 192.38 23.4513C192.671 21.7028 192.282 19.9542 191.117 18.4971L125.06 -66.0172C123.602 -67.9601 121.174 -68.8344 118.648 -68.8344ZM74.4482 99.4171C71.7282 99.4171 69.2996 98.4456 67.7453 96.4056L1.59101 11.8914C0.52244 10.3371 0.0367378 8.49135 0.328166 6.64563C0.813881 4.3142 2.36817 2.07993 4.6996 0.62278L112.625 -67.5715C116.997 -70.2915 122.728 -69.7086 125.351 -66.3086L191.505 18.3028C192.671 19.7599 193.06 21.6056 192.768 23.4513C192.38 25.8799 190.728 28.0171 188.397 29.5714L80.471 97.6685C78.6253 98.8342 76.4882 99.4171 74.4482 99.4171Z" fill="white"/>
</g>
</mask>
<g mask="url(#mask39_416_645)">
<path d="M-578.449 -153.543H511.494V936.4H-578.449V-153.543Z" fill="white"/>
</g>
<mask id="mask42_416_645" style="mask-type:luminance" maskUnits="userSpaceOnUse" x="1" y="-70" width="191" height="170">
<mask id="mask43_416_645" style="mask-type:luminance" maskUnits="userSpaceOnUse" x="0" y="-70" width="192" height="170">
<mask id="mask44_416_645" style="mask-type:luminance" maskUnits="userSpaceOnUse" x="0" y="-70" width="192" height="170">
<g clip-path="url(#clip1_416_645)">
<rect width="191.371" height="170" transform="translate(0.522217 -70)" fill="white"/>
<path d="M124.962 -69.2228C123.311 -69.2228 121.562 -68.8343 120.008 -67.96L6.44788 -7.63427C4.11645 -6.46855 2.46507 -4.42854 1.88221 -2.19426C1.3965 -0.348549 1.68792 1.49716 2.65935 3.05145L61.0422 95.8229C63.3736 99.4172 68.7165 100.389 73.185 98.0572L186.648 37.8286C188.979 36.5657 190.631 34.5257 191.214 32.2915C191.699 30.5429 191.505 28.6972 190.534 27.1429L132.054 -65.7257C130.596 -67.96 127.876 -69.2228 124.962 -69.2228ZM68.1336 99.7086C65.1222 99.7086 62.2079 98.4457 60.7508 96.0172L2.27075 3.24573C1.20218 1.5943 0.910763 -0.348549 1.49362 -2.29141C2.07648 -4.62284 3.82507 -6.75998 6.25364 -8.02283L119.814 -68.3486C124.379 -70.7771 130.014 -69.7086 132.345 -65.92L190.825 26.9486C191.894 28.5029 192.185 30.5429 191.602 32.3886C191.019 34.8172 189.271 36.8572 186.842 38.2172L73.3793 98.4457C71.6308 99.32 69.8822 99.7086 68.1336 99.7086Z" fill="white"/>
</g>
</mask>
<g mask="url(#mask44_416_645)">
<path d="M-578.449 -153.543H511.494V936.4H-578.449V-153.543Z" fill="white"/>
</g>
</mask>
<g mask="url(#mask43_416_645)">
<path d="M124.962 -69.2229C123.311 -69.2229 121.562 -68.8343 120.008 -67.96L6.44788 -7.63433C4.11645 -6.46861 2.46507 -4.4286 1.88221 -2.19432C1.3965 -0.34861 1.68792 1.4971 2.65935 3.05138L61.0422 95.8228C63.3736 99.4171 68.7165 100.389 73.185 98.0571L186.648 37.8285C188.979 36.5657 190.631 34.5257 191.214 32.2914C191.699 30.5428 191.505 28.6971 190.534 27.1428L132.054 -65.7258C130.596 -67.96 127.876 -69.2229 124.962 -69.2229ZM68.1336 99.7085C65.1222 99.7085 62.2079 98.4457 60.7508 96.0171L2.27075 3.24567C1.20218 1.59424 0.910763 -0.34861 1.49362 -2.29147C2.07648 -4.6229 3.82507 -6.76004 6.25364 -8.02289L119.814 -68.3486C124.379 -70.7772 130.014 -69.7086 132.345 -65.92L190.825 26.9485C191.894 28.5028 192.185 30.5428 191.602 32.3885C191.019 34.8171 189.271 36.8571 186.842 38.2171L73.3793 98.4457C71.6308 99.32 69.8822 99.7085 68.1336 99.7085Z" fill="white"/>
</g>
</mask>
<g mask="url(#mask42_416_645)">
<path d="M-578.449 -153.543H511.494V936.4H-578.449V-153.543Z" fill="white"/>
</g>
<mask id="mask45_416_645" style="mask-type:luminance" maskUnits="userSpaceOnUse" x="2" y="-70" width="189" height="170">
<mask id="mask46_416_645" style="mask-type:luminance" maskUnits="userSpaceOnUse" x="2" y="-70" width="189" height="170">
<mask id="mask47_416_645" style="mask-type:luminance" maskUnits="userSpaceOnUse" x="2" y="-70" width="189" height="170">
<path d="M131.276 -68.9313C129.916 -68.9313 128.459 -68.6399 127.099 -68.057L8.7793 -16.377C6.44787 -15.3085 4.60214 -13.4627 3.72786 -11.2285C3.145 -9.38274 3.24213 -7.43987 4.01927 -5.78844L54.145 94.8515C56.0879 98.7373 61.4307 100.194 65.9965 98.2516L184.316 46.4744C186.745 45.503 188.494 43.5601 189.368 41.3258C190.048 39.4801 189.951 37.5373 189.076 35.8858L138.951 -64.657C137.591 -67.377 134.579 -68.9313 131.276 -68.9313ZM61.8193 99.5144C58.4193 99.5144 55.2136 97.863 53.8536 95.0458L3.63074 -5.59416C2.75645 -7.34273 2.65932 -9.38274 3.33932 -11.3256C4.21361 -13.7542 6.15646 -15.697 8.68218 -16.7656L126.905 -68.4456C131.762 -70.5827 137.299 -68.9313 139.339 -64.8513L189.465 35.6916C190.339 37.5373 190.436 39.5773 189.756 41.5201C188.882 43.8516 186.939 45.7944 184.511 46.863L66.1907 98.6401C64.7336 99.223 63.2764 99.5144 61.8193 99.5144Z" fill="white"/>
</mask>
<g mask="url(#mask47_416_645)">
<path d="M-578.449 -153.543H511.494V936.4H-578.449V-153.543Z" fill="white"/>
</g>
</mask>
<g mask="url(#mask46_416_645)">
<path d="M131.276 -68.9313C129.916 -68.9313 128.459 -68.6399 127.099 -68.057L8.7793 -16.377C6.44787 -15.3085 4.60214 -13.4627 3.72786 -11.2285C3.145 -9.38274 3.24213 -7.43987 4.01927 -5.78844L54.145 94.8515C56.0879 98.7373 61.4307 100.194 65.9965 98.2516L184.316 46.4744C186.745 45.503 188.494 43.5601 189.368 41.3258C190.048 39.4801 189.951 37.5373 189.076 35.8858L138.951 -64.657C137.591 -67.377 134.579 -68.9313 131.276 -68.9313ZM61.8193 99.5144C58.4193 99.5144 55.2136 97.863 53.8536 95.0458L3.63074 -5.59416C2.75645 -7.34273 2.65932 -9.38274 3.33932 -11.3256C4.21361 -13.7542 6.15646 -15.697 8.68218 -16.7656L126.905 -68.4456C131.762 -70.5827 137.299 -68.9313 139.339 -64.8513L189.465 35.6916C190.339 37.5373 190.436 39.5773 189.756 41.5201C188.882 43.8516 186.939 45.7944 184.511 46.863L66.1907 98.6401C64.7336 99.223 63.2764 99.5144 61.8193 99.5144Z" fill="white"/>
</g>
</mask>
<g mask="url(#mask45_416_645)">
<path d="M-578.449 -153.543H511.494V936.4H-578.449V-153.543Z" fill="white"/>
</g>
<mask id="mask48_416_645" style="mask-type:luminance" maskUnits="userSpaceOnUse" x="5" y="-69" width="183" height="168">
<mask id="mask49_416_645" style="mask-type:luminance" maskUnits="userSpaceOnUse" x="5" y="-69" width="183" height="168">
<mask id="mask50_416_645" style="mask-type:luminance" maskUnits="userSpaceOnUse" x="5" y="-69" width="183" height="168">
<path d="M137.591 -68.1542C136.522 -68.1542 135.357 -67.9599 134.288 -67.5714L11.888 -25.1199C9.45945 -24.2456 7.41941 -22.4971 6.44798 -20.3599C5.5737 -18.5142 5.4766 -16.4742 6.25375 -14.6285L47.4423 93.2001C48.9966 97.2801 54.1451 99.4172 58.9051 97.7658L181.208 55.2172C183.637 54.4401 185.677 52.6915 186.648 50.5544C187.522 48.6115 187.619 46.5715 186.939 44.7258L145.751 -63.0056C144.488 -66.2114 141.185 -68.1542 137.591 -68.1542ZM55.5051 98.7372C51.7166 98.7372 48.3166 96.6972 46.9566 93.2972L5.76803 -14.4342C5.08803 -16.4742 5.18516 -18.6114 6.05945 -20.5542C7.12802 -22.7885 9.16798 -24.6342 11.7908 -25.5085L134.094 -67.9599C139.048 -69.7085 144.391 -67.5714 146.139 -63.1999L187.328 44.6286C188.008 46.5715 187.911 48.7086 187.037 50.6515C185.968 52.9829 183.928 54.7315 181.402 55.7029L59.0023 98.1544C57.8366 98.5429 56.6708 98.7372 55.5051 98.7372Z" fill="white"/>
</mask>
<g mask="url(#mask50_416_645)">
<path d="M-578.449 -153.543H511.494V936.4H-578.449V-153.543Z" fill="white"/>
</g>
</mask>
<g mask="url(#mask49_416_645)">
<path d="M137.591 -68.1542C136.522 -68.1542 135.357 -67.9599 134.288 -67.5714L11.888 -25.1199C9.45945 -24.2456 7.41941 -22.4971 6.44798 -20.3599C5.5737 -18.5142 5.4766 -16.4742 6.25375 -14.6285L47.4423 93.2001C48.9966 97.2801 54.1451 99.4172 58.9051 97.7658L181.208 55.2172C183.637 54.4401 185.677 52.6915 186.648 50.5544C187.522 48.6115 187.619 46.5715 186.939 44.7258L145.751 -63.0056C144.488 -66.2114 141.185 -68.1542 137.591 -68.1542ZM55.5051 98.7372C51.7166 98.7372 48.3166 96.6972 46.9566 93.2972L5.76803 -14.4342C5.08803 -16.4742 5.18516 -18.6114 6.05945 -20.5542C7.12802 -22.7885 9.16798 -24.6342 11.7908 -25.5085L134.094 -67.9599C139.048 -69.7085 144.391 -67.5714 146.139 -63.1999L187.328 44.6286C188.008 46.5715 187.911 48.7086 187.037 50.6515C185.968 52.9829 183.928 54.7315 181.402 55.7029L59.0023 98.1544C57.8366 98.5429 56.6708 98.7372 55.5051 98.7372Z" fill="white"/>
</g>
</mask>
<g mask="url(#mask48_416_645)">
<path d="M-578.449 -153.543H511.494V936.4H-578.449V-153.543Z" fill="white"/>
</g>
<mask id="mask51_416_645" style="mask-type:luminance" maskUnits="userSpaceOnUse" x="8" y="-68" width="177" height="166">
<mask id="mask52_416_645" style="mask-type:luminance" maskUnits="userSpaceOnUse" x="8" y="-68" width="177" height="166">
<mask id="mask53_416_645" style="mask-type:luminance" maskUnits="userSpaceOnUse" x="8" y="-68" width="177" height="166">
<path d="M143.808 -66.7942C143.031 -66.7942 142.157 -66.6971 141.282 -66.4056L15.6765 -33.7656C13.248 -33.1828 11.1109 -31.6285 9.94515 -29.4913C8.87658 -27.6456 8.58516 -25.5085 9.16802 -23.5656L40.7395 90.8687C42.0023 95.2401 46.9566 97.863 51.8137 96.6001L177.419 63.9601C179.848 63.2801 181.985 61.7258 183.151 59.6858C184.219 57.8401 184.511 55.7029 183.928 53.6629L152.357 -60.7713C151.288 -64.3656 147.791 -66.7942 143.808 -66.7942ZM49.288 97.3772C45.1109 97.3772 41.4194 94.8515 40.3509 90.9658L8.68231 -23.4685C8.09945 -25.5085 8.39084 -27.7428 9.55656 -29.7828C10.8194 -31.9199 13.0537 -33.5713 15.5794 -34.2513L141.185 -66.8913C146.334 -68.1542 151.482 -65.5313 152.745 -60.8685L184.414 53.5658C184.997 55.7029 184.705 57.9372 183.539 59.8801C182.277 62.1144 180.042 63.6687 177.517 64.3487L51.9109 96.9887C51.0366 97.183 50.1623 97.3772 49.288 97.3772Z" fill="white"/>
</mask>
<g mask="url(#mask53_416_645)">
<path d="M-578.449 -153.543H511.494V936.4H-578.449V-153.543Z" fill="white"/>
</g>
</mask>
<g mask="url(#mask52_416_645)">
<path d="M143.808 -66.7942C143.031 -66.7942 142.157 -66.6971 141.282 -66.4056L15.6765 -33.7656C13.248 -33.1828 11.1109 -31.6285 9.94515 -29.4913C8.87658 -27.6456 8.58516 -25.5085 9.16802 -23.5656L40.7395 90.8687C42.0023 95.2401 46.9566 97.863 51.8137 96.6001L177.419 63.9601C179.848 63.2801 181.985 61.7258 183.151 59.6858C184.219 57.8401 184.511 55.7029 183.928 53.6629L152.357 -60.7713C151.288 -64.3656 147.791 -66.7942 143.808 -66.7942ZM49.288 97.3772C45.1109 97.3772 41.4194 94.8515 40.3509 90.9658L8.68231 -23.4685C8.09945 -25.5085 8.39084 -27.7428 9.55656 -29.7828C10.8194 -31.9199 13.0537 -33.5713 15.5794 -34.2513L141.185 -66.8913C146.334 -68.1542 151.482 -65.5313 152.745 -60.8685L184.414 53.5658C184.997 55.7029 184.705 57.9372 183.539 59.8801C182.277 62.1144 180.042 63.6687 177.517 64.3487L51.9109 96.9887C51.0366 97.183 50.1623 97.3772 49.288 97.3772Z" fill="white"/>
</g>
</mask>
<g mask="url(#mask51_416_645)">
<path d="M-578.449 -153.543H511.494V936.4H-578.449V-153.543Z" fill="white"/>
</g>
<mask id="mask54_416_645" style="mask-type:luminance" maskUnits="userSpaceOnUse" x="12" y="-66" width="169" height="162">
<mask id="mask55_416_645" style="mask-type:luminance" maskUnits="userSpaceOnUse" x="12" y="-66" width="169" height="162">
<mask id="mask56_416_645" style="mask-type:luminance" maskUnits="userSpaceOnUse" x="12" y="-66" width="169" height="162">
<path d="M149.928 -64.7542C149.345 -64.7542 148.859 -64.7543 148.276 -64.6571L20.2422 -42.4114C17.8136 -41.9257 15.6765 -40.6628 14.2193 -38.6228C12.9565 -36.7771 12.4708 -34.5428 12.8594 -32.4057L34.4251 87.9543C35.2022 92.5201 39.9622 95.6286 44.8193 94.7543L172.854 72.5086C175.282 72.12 177.419 70.7601 178.876 68.72C180.139 66.8743 180.625 64.7372 180.236 62.6001L158.671 -57.76C157.991 -61.84 154.202 -64.7542 149.928 -64.7542ZM43.1679 95.3372C38.6994 95.3372 34.7165 92.3258 33.9394 87.9543L12.3737 -32.4057C11.9851 -34.64 12.5679 -36.9714 13.8308 -38.9142C15.3851 -40.9543 17.6193 -42.4114 20.2422 -42.8L148.179 -65.0457C153.328 -65.92 158.282 -62.7143 159.156 -57.8571L180.722 62.5029C181.111 64.7372 180.625 67.0686 179.265 69.0115C177.808 71.1486 175.477 72.5086 172.854 72.9943L44.9165 95.2401C44.3337 95.3372 43.7508 95.3372 43.1679 95.3372Z" fill="white"/>
</mask>
<g mask="url(#mask56_416_645)">
<path d="M-578.449 -153.543H511.494V936.4H-578.449V-153.543Z" fill="white"/>
</g>
</mask>
<g mask="url(#mask55_416_645)">
<path d="M149.928 -64.7542C149.345 -64.7542 148.859 -64.7543 148.276 -64.6571L20.2422 -42.4114C17.8136 -41.9257 15.6765 -40.6628 14.2193 -38.6228C12.9565 -36.7771 12.4708 -34.5428 12.8594 -32.4057L34.4251 87.9543C35.2022 92.5201 39.9622 95.6286 44.8193 94.7543L172.854 72.5086C175.282 72.12 177.419 70.7601 178.876 68.72C180.139 66.8743 180.625 64.7372 180.236 62.6001L158.671 -57.76C157.991 -61.84 154.202 -64.7542 149.928 -64.7542ZM43.1679 95.3372C38.6994 95.3372 34.7165 92.3258 33.9394 87.9543L12.3737 -32.4057C11.9851 -34.64 12.5679 -36.9714 13.8308 -38.9142C15.3851 -40.9543 17.6193 -42.4114 20.2422 -42.8L148.179 -65.0457C153.328 -65.92 158.282 -62.7143 159.156 -57.8571L180.722 62.5029C181.111 64.7372 180.625 67.0686 179.265 69.0115C177.808 71.1486 175.477 72.5086 172.854 72.9943L44.9165 95.2401C44.3337 95.3372 43.7508 95.3372 43.1679 95.3372Z" fill="white"/>
</g>
</mask>
<g mask="url(#mask54_416_645)">
<path d="M-578.449 -153.543H511.494V936.4H-578.449V-153.543Z" fill="white"/>
</g>
<mask id="mask57_416_645" style="mask-type:luminance" maskUnits="userSpaceOnUse" x="16" y="-63" width="161" height="156">
<mask id="mask58_416_645" style="mask-type:luminance" maskUnits="userSpaceOnUse" x="16" y="-63" width="161" height="156">
<mask id="mask59_416_645" style="mask-type:luminance" maskUnits="userSpaceOnUse" x="16" y="-63" width="161" height="156">
<path d="M155.854 -62.1314C155.562 -62.1314 155.271 -62.1314 154.979 -62.1314L25.5851 -50.7657C23.1565 -50.5714 21.0194 -49.5029 19.368 -47.6571C17.8137 -45.9086 17.1337 -43.5771 17.3279 -41.2457L28.3051 84.2629C28.4994 86.5943 29.6651 88.7314 31.5108 90.2857C33.3566 91.7429 35.688 92.52 38.1165 92.2286L167.511 80.96C172.562 80.4743 176.254 76.2 175.768 71.3429L164.791 -54.1657C164.597 -56.4971 163.528 -58.6343 161.585 -60.0914C160.031 -61.4514 157.991 -62.1314 155.854 -62.1314ZM37.2422 92.7143C35.0079 92.7143 32.8708 92.0343 31.2194 90.5772C29.2765 89.0229 28.0136 86.7886 27.8194 84.36L16.8422 -41.2457C16.6479 -43.6743 17.4251 -46.1029 19.0765 -47.9486C20.7279 -49.8914 23.0594 -51.0571 25.5851 -51.2514L154.979 -62.6171C157.505 -62.8114 159.934 -62.0343 161.877 -60.48C163.819 -58.9257 165.082 -56.6914 165.277 -54.1657L176.254 71.3429C176.739 76.3943 172.757 80.96 167.608 81.3486L38.1165 92.7143C37.8251 92.7143 37.5337 92.7143 37.2422 92.7143Z" fill="white"/>
</mask>
<g mask="url(#mask59_416_645)">
<path d="M-578.449 -153.543H511.494V936.4H-578.449V-153.543Z" fill="white"/>
</g>
</mask>
<g mask="url(#mask58_416_645)">
<path d="M155.854 -62.1314C155.562 -62.1314 155.271 -62.1314 154.979 -62.1314L25.5851 -50.7657C23.1565 -50.5714 21.0194 -49.5029 19.368 -47.6571C17.8137 -45.9086 17.1337 -43.5771 17.3279 -41.2457L28.3051 84.2629C28.4994 86.5943 29.6651 88.7314 31.5108 90.2857C33.3566 91.7429 35.688 92.52 38.1165 92.2286L167.511 80.96C172.562 80.4743 176.254 76.2 175.768 71.3429L164.791 -54.1657C164.597 -56.4971 163.528 -58.6343 161.585 -60.0914C160.031 -61.4514 157.991 -62.1314 155.854 -62.1314ZM37.2422 92.7143C35.0079 92.7143 32.8708 92.0343 31.2194 90.5772C29.2765 89.0229 28.0136 86.7886 27.8194 84.36L16.8422 -41.2457C16.6479 -43.6743 17.4251 -46.1029 19.0765 -47.9486C20.7279 -49.8914 23.0594 -51.0571 25.5851 -51.2514L154.979 -62.6171C157.505 -62.8114 159.934 -62.0343 161.877 -60.48C163.819 -58.9257 165.082 -56.6914 165.277 -54.1657L176.254 71.3429C176.739 76.3943 172.757 80.96 167.608 81.3486L38.1165 92.7143C37.8251 92.7143 37.5337 92.7143 37.2422 92.7143Z" fill="white"/>
</g>
</mask>
<g mask="url(#mask57_416_645)">
<path d="M-578.449 -153.543H511.494V936.4H-578.449V-153.543Z" fill="white"/>
</g>
<mask id="mask60_416_645" style="mask-type:luminance" maskUnits="userSpaceOnUse" x="22" y="-60" width="150" height="150">
<mask id="mask61_416_645" style="mask-type:luminance" maskUnits="userSpaceOnUse" x="22" y="-60" width="150" height="150">
<mask id="mask62_416_645" style="mask-type:luminance" maskUnits="userSpaceOnUse" x="22" y="-60" width="150" height="150">
<path d="M31.6079 -58.9258C26.5565 -58.9258 22.4764 -54.8458 22.4764 -49.8915V79.9885C22.4764 85.0399 26.5565 89.1199 31.6079 89.1199H161.488C166.539 89.1199 170.619 85.0399 170.619 79.9885V-49.8915C170.619 -54.8458 166.539 -58.9258 161.488 -58.9258H31.6079ZM161.488 89.6056H31.6079C26.3622 89.6056 22.0879 85.3314 22.0879 79.9885V-49.8915C22.0879 -55.1372 26.3622 -59.4115 31.6079 -59.4115H161.488C166.734 -59.4115 171.008 -55.1372 171.008 -49.8915V79.9885C171.008 85.3314 166.734 89.6056 161.488 89.6056Z" fill="white"/>
</mask>
<g mask="url(#mask62_416_645)">
<path d="M-578.449 -153.543H511.494V936.4H-578.449V-153.543Z" fill="white"/>
</g>
</mask>
<g mask="url(#mask61_416_645)">
<path d="M31.6079 -58.9258C26.5565 -58.9258 22.4764 -54.8458 22.4764 -49.8915V79.9885C22.4764 85.0399 26.5565 89.1199 31.6079 89.1199H161.488C166.539 89.1199 170.619 85.0399 170.619 79.9885V-49.8915C170.619 -54.8458 166.539 -58.9258 161.488 -58.9258H31.6079ZM161.488 89.6056H31.6079C26.3622 89.6056 22.0879 85.3314 22.0879 79.9885V-49.8915C22.0879 -55.1372 26.3622 -59.4115 31.6079 -59.4115H161.488C166.734 -59.4115 171.008 -55.1372 171.008 -49.8915V79.9885C171.008 85.3314 166.734 89.6056 161.488 89.6056Z" fill="white"/>
</g>
</mask>
<g mask="url(#mask60_416_645)">
<path d="M-578.449 -153.543H511.494V936.4H-578.449V-153.543Z" fill="white"/>
</g>
<defs>
<clipPath id="clip0_416_645">
<rect width="191.371" height="161.257" fill="white" transform="translate(0.522217 -65.1428)"/>
</clipPath>
<clipPath id="clip1_416_645">
<rect width="191.371" height="170" fill="white" transform="translate(0.522217 -70)"/>
</clipPath>
</defs>
</svg>
