<svg width="560" height="457" viewBox="0 0 560 457" fill="none" xmlns="http://www.w3.org/2000/svg">
<g opacity="0.44">
<mask id="mask0_416_2198" style="mask-type:luminance" maskUnits="userSpaceOnUse" x="219" y="180" width="136" height="110">
<mask id="mask1_416_2198" style="mask-type:luminance" maskUnits="userSpaceOnUse" x="219" y="180" width="136" height="110">
<mask id="mask2_416_2198" style="mask-type:luminance" maskUnits="userSpaceOnUse" x="219" y="180" width="136" height="110">
<path d="M285.063 182.363C288.002 182.363 291.432 183.019 295.351 184.549C306.374 188.704 316.907 197.669 320.826 206.415L351.2 273.107C353.649 278.792 353.16 283.165 349.975 285.57C345.076 289.069 335.523 287.757 325.725 282.29L241.951 235.497C227.989 227.625 221.13 216.255 221.62 209.476C221.865 206.634 223.58 204.447 226.519 203.354L279.919 183.237C281.389 182.581 283.103 182.363 285.063 182.363ZM342.627 289.287C346.056 289.287 348.995 288.413 351.2 286.882C355.119 284.04 355.609 278.792 352.915 272.451L322.541 205.759C318.376 196.575 307.599 187.173 296.086 182.8C289.472 180.395 283.348 179.957 279.184 181.707L225.785 201.823C222.11 203.135 220.151 205.759 219.661 209.476C218.926 218.004 228.234 229.812 240.972 237.028L324.5 283.821C331.114 287.32 337.483 289.287 342.627 289.287Z" fill="white"/>
</mask>
<g mask="url(#mask2_416_2198)">
<path d="M760.024 -1796.29H-1988.34V657.074H760.024V-1796.29Z" fill="white"/>
</g>
</mask>
<g mask="url(#mask1_416_2198)">
<path d="M285.063 182.363C288.002 182.363 291.432 183.019 295.351 184.549C306.374 188.704 316.907 197.669 320.826 206.415L351.2 273.107C353.649 278.792 353.16 283.165 349.975 285.57C345.076 289.069 335.523 287.757 325.725 282.29L241.951 235.497C227.989 227.625 221.13 216.255 221.62 209.476C221.865 206.634 223.58 204.447 226.519 203.354L279.919 183.237C281.389 182.581 283.103 182.363 285.063 182.363ZM342.627 289.287C346.056 289.287 348.995 288.413 351.2 286.882C355.119 284.04 355.609 278.792 352.915 272.451L322.541 205.759C318.376 196.575 307.599 187.173 296.086 182.8C289.472 180.395 283.348 179.957 279.184 181.707L225.785 201.823C222.11 203.135 220.151 205.759 219.661 209.476C218.926 218.004 228.234 229.812 240.972 237.028L324.5 283.821C331.114 287.32 337.483 289.287 342.627 289.287Z" fill="white"/>
</g>
</mask>
<g mask="url(#mask0_416_2198)">
<path d="M760.024 -1796.3H-1988.34V657.073H760.024V-1796.3Z" fill="url(#paint0_linear_416_2198)"/>
</g>
<mask id="mask3_416_2198" style="mask-type:luminance" maskUnits="userSpaceOnUse" x="215" y="178" width="143" height="120">
<mask id="mask4_416_2198" style="mask-type:luminance" maskUnits="userSpaceOnUse" x="215" y="178" width="143" height="120">
<mask id="mask5_416_2198" style="mask-type:luminance" maskUnits="userSpaceOnUse" x="215" y="178" width="143" height="120">
<path d="M288.982 180.613C302.454 180.613 322.54 194.389 327.684 208.601L353.894 281.197C356.099 287.1 355.364 291.474 351.689 293.879C346.056 297.596 335.278 295.41 324.5 288.631L237.052 232.873C222.6 223.47 216.231 211.007 217.456 204.01C217.946 200.73 220.15 198.762 223.58 197.668L284.818 181.05C286.042 180.613 287.512 180.613 288.982 180.613ZM344.586 297.377C347.77 297.377 350.71 296.722 352.669 295.191C357.078 292.567 358.303 287.319 355.854 280.759L329.644 208.164C323.52 191.327 298.535 175.584 284.328 179.301L223.09 196.138C218.925 197.231 216.231 199.855 215.496 203.791C213.781 212.537 222.6 225.657 236.072 234.185L323.52 290.162C331.113 294.972 338.462 297.377 344.586 297.377Z" fill="white"/>
</mask>
<g mask="url(#mask5_416_2198)">
<path d="M760.024 -1796.29H-1988.34V657.074H760.024V-1796.29Z" fill="white"/>
</g>
</mask>
<g mask="url(#mask4_416_2198)">
<path d="M288.982 180.613C302.454 180.613 322.54 194.389 327.684 208.601L353.894 281.197C356.099 287.1 355.364 291.474 351.689 293.879C346.056 297.596 335.278 295.41 324.5 288.631L237.052 232.873C222.6 223.47 216.231 211.007 217.456 204.01C217.946 200.73 220.15 198.762 223.58 197.668L284.818 181.05C286.042 180.613 287.512 180.613 288.982 180.613ZM344.586 297.377C347.77 297.377 350.71 296.722 352.669 295.191C357.078 292.567 358.303 287.319 355.854 280.759L329.644 208.164C323.52 191.327 298.535 175.584 284.328 179.301L223.09 196.138C218.925 197.231 216.231 199.855 215.496 203.791C213.781 212.537 222.6 225.657 236.072 234.185L323.52 290.162C331.113 294.972 338.462 297.377 344.586 297.377Z" fill="white"/>
</g>
</mask>
<g mask="url(#mask3_416_2198)">
<path d="M760.024 -1796.29H-1988.34V657.074H760.024V-1796.29Z" fill="url(#paint1_linear_416_2198)"/>
</g>
<mask id="mask6_416_2198" style="mask-type:luminance" maskUnits="userSpaceOnUse" x="210" y="177" width="149" height="130">
<mask id="mask7_416_2198" style="mask-type:luminance" maskUnits="userSpaceOnUse" x="210" y="177" width="149" height="130">
<mask id="mask8_416_2198" style="mask-type:luminance" maskUnits="userSpaceOnUse" x="210" y="177" width="149" height="130">
<path d="M293.636 178.864C308.578 178.864 330.869 195.701 335.033 211.663L356.344 289.944C358.058 296.066 356.589 300.658 352.67 302.845C347.281 305.906 335.768 304.812 322.785 295.41L231.908 229.593C217.211 218.879 211.332 205.322 213.292 197.888C214.272 194.608 216.721 192.421 220.885 191.546L290.452 179.083C291.432 178.864 292.411 178.864 293.636 178.864ZM345.811 306.124C348.995 306.124 351.445 305.468 353.649 304.375C358.548 301.533 360.018 296.285 358.303 289.506L336.993 211.226C332.094 193.077 306.129 174.491 289.962 177.333L220.395 190.016C215.741 190.891 212.557 193.514 211.332 197.45C208.883 206.853 216.966 220.847 230.683 230.905L321.561 296.722C329.889 302.845 338.952 306.124 345.811 306.124Z" fill="white"/>
</mask>
<g mask="url(#mask8_416_2198)">
<path d="M760.025 -1796.29H-1988.34V657.074H760.025V-1796.29Z" fill="white"/>
</g>
</mask>
<g mask="url(#mask7_416_2198)">
<path d="M293.636 178.864C308.578 178.864 330.869 195.701 335.033 211.663L356.344 289.944C358.058 296.066 356.589 300.658 352.67 302.845C347.281 305.906 335.768 304.812 322.785 295.41L231.908 229.593C217.211 218.879 211.332 205.322 213.292 197.888C214.272 194.608 216.721 192.421 220.885 191.546L290.452 179.083C291.432 178.864 292.411 178.864 293.636 178.864ZM345.811 306.124C348.995 306.124 351.445 305.468 353.649 304.375C358.548 301.533 360.018 296.285 358.303 289.506L336.993 211.226C332.094 193.077 306.129 174.491 289.962 177.333L220.395 190.016C215.741 190.891 212.557 193.514 211.332 197.45C208.883 206.853 216.966 220.847 230.683 230.905L321.561 296.722C329.889 302.845 338.952 306.124 345.811 306.124Z" fill="white"/>
</g>
</mask>
<g mask="url(#mask6_416_2198)">
<path d="M760.025 -1796.29H-1988.34V657.074H760.025V-1796.29Z" fill="url(#paint2_linear_416_2198)"/>
</g>
<mask id="mask9_416_2198" style="mask-type:luminance" maskUnits="userSpaceOnUse" x="206" y="175" width="155" height="141">
<mask id="mask10_416_2198" style="mask-type:luminance" maskUnits="userSpaceOnUse" x="206" y="175" width="155" height="141">
<mask id="mask11_416_2198" style="mask-type:luminance" maskUnits="userSpaceOnUse" x="206" y="175" width="155" height="141">
<path d="M298.78 177.552C315.682 177.552 339.687 197.887 342.872 215.38L357.814 299.127C359.039 305.468 357.324 310.06 352.67 312.247C346.301 315.308 333.808 313.34 320.091 302.188L226.764 225.657C211.577 213.412 206.434 198.762 209.128 191.327C210.598 187.61 213.782 185.424 218.681 184.986L296.821 177.552C297.556 177.552 298.046 177.552 298.78 177.552ZM346.301 315.308C348.996 315.308 351.69 314.87 353.65 313.777C359.039 311.372 360.998 305.905 359.773 298.908L344.831 215.161C341.402 195.701 314.947 174.053 296.821 175.803L218.436 183.237C212.802 183.893 209.128 186.298 207.413 190.89C203.739 200.292 211.333 215.599 225.295 226.969L318.621 303.5C328.175 311.153 338.218 315.308 346.301 315.308Z" fill="white"/>
</mask>
<g mask="url(#mask11_416_2198)">
<path d="M760.025 -1796.29H-1988.34V657.074H760.025V-1796.29Z" fill="white"/>
</g>
</mask>
<g mask="url(#mask10_416_2198)">
<path d="M298.78 177.552C315.682 177.552 339.687 197.887 342.872 215.38L357.814 299.127C359.039 305.468 357.324 310.06 352.67 312.247C346.301 315.308 333.808 313.34 320.091 302.188L226.764 225.657C211.577 213.412 206.434 198.762 209.128 191.327C210.598 187.61 213.782 185.424 218.681 184.986L296.821 177.552C297.556 177.552 298.046 177.552 298.78 177.552ZM346.301 315.308C348.996 315.308 351.69 314.87 353.65 313.777C359.039 311.372 360.998 305.905 359.773 298.908L344.831 215.161C341.402 195.701 314.947 174.053 296.821 175.803L218.436 183.237C212.802 183.893 209.128 186.298 207.413 190.89C203.739 200.292 211.333 215.599 225.295 226.969L318.621 303.5C328.175 311.153 338.218 315.308 346.301 315.308Z" fill="white"/>
</g>
</mask>
<g mask="url(#mask9_416_2198)">
<path d="M760.025 -1796.29H-1988.34V657.074H760.025V-1796.29Z" fill="url(#paint3_linear_416_2198)"/>
</g>
<mask id="mask12_416_2198" style="mask-type:luminance" maskUnits="userSpaceOnUse" x="202" y="174" width="95" height="152">
<mask id="mask13_416_2198" style="mask-type:luminance" maskUnits="userSpaceOnUse" x="185" y="173" width="112" height="154">
<mask id="mask14_416_2198" style="mask-type:luminance" maskUnits="userSpaceOnUse" x="185" y="173" width="112" height="154">
<g clip-path="url(#clip0_416_2198)">
<path d="M257.588 176.459C270.751 176.459 288.872 200.73 290.069 219.972L295.369 308.967C295.711 315.526 294.001 320.337 290.582 322.305C284.428 325.804 274.17 320.337 265.622 308.967L199.291 221.284C188.692 207.29 185.786 191.983 188.35 184.112C189.718 180.176 192.453 177.989 196.214 177.77L257.246 176.459C257.417 176.459 257.417 176.459 257.588 176.459ZM286.308 325.148C288.018 325.148 289.727 324.71 291.095 323.835C295.198 321.649 297.078 316.182 296.736 308.967L291.437 219.753C290.24 199.199 271.435 174.272 257.246 174.709L196.214 176.021C191.769 176.24 188.692 178.645 187.154 183.456C183.905 193.295 188.692 209.695 198.437 222.596L264.768 310.279C271.777 319.681 279.983 325.148 286.308 325.148Z" fill="white"/>
</g>
</mask>
<g mask="url(#mask14_416_2198)">
<path d="M760.025 -1796.29H-1988.34V657.074H760.025V-1796.29Z" fill="white"/>
</g>
</mask>
<g mask="url(#mask13_416_2198)">
<path d="M304.659 176.459C323.52 176.459 349.485 200.73 351.2 219.972L358.793 308.967C359.283 315.527 356.834 320.337 351.935 322.305C343.116 325.804 328.419 320.337 316.172 308.967L221.13 221.284C205.943 207.29 201.779 191.984 205.454 184.112C207.413 180.176 211.332 177.989 216.721 177.771L304.169 176.459C304.414 176.459 304.414 176.459 304.659 176.459ZM345.811 325.148C348.26 325.148 350.71 324.71 352.67 323.836C358.548 321.649 361.243 316.183 360.753 308.967L353.16 219.754C351.445 199.199 324.5 174.272 304.169 174.71L216.721 176.021C210.353 176.24 205.943 178.645 203.739 183.456C199.085 193.296 205.943 209.695 219.906 222.596L314.947 310.279C324.99 319.681 336.748 325.148 345.811 325.148Z" fill="white"/>
</g>
</mask>
<g mask="url(#mask12_416_2198)">
<path d="M760.025 -1796.29H-1988.34V657.074H760.025V-1796.29Z" fill="url(#paint4_linear_416_2198)"/>
</g>
<mask id="mask15_416_2198" style="mask-type:luminance" maskUnits="userSpaceOnUse" x="198" y="168" width="164" height="168">
<mask id="mask16_416_2198" style="mask-type:luminance" maskUnits="userSpaceOnUse" x="198" y="168" width="164" height="168">
<mask id="mask17_416_2198" style="mask-type:luminance" maskUnits="userSpaceOnUse" x="198" y="168" width="164" height="168">
<path d="M214.026 170.118C214.516 170.118 215.006 170.118 215.496 170.118L312.497 176.022C333.563 177.115 360.263 204.885 359.773 225.439L358.548 319.463C358.303 326.241 355.364 330.833 349.975 332.582C339.687 335.862 323.765 329.084 311.272 315.964L215.741 216.255C200.799 200.512 197.37 184.331 202.024 176.24C204.228 172.304 208.392 170.118 214.026 170.118ZM344.341 335.206C346.545 335.206 348.505 334.988 350.464 334.332C356.833 332.364 360.263 327.116 360.507 319.463L361.732 225.439C362.222 203.792 335.032 175.584 312.742 174.272L215.741 168.369C208.392 167.931 203.003 170.555 200.309 175.584C194.43 185.643 200.309 202.917 214.271 217.349L309.802 317.058C320.825 328.647 333.808 335.206 344.341 335.206Z" fill="white"/>
</mask>
<g mask="url(#mask17_416_2198)">
<path d="M760.024 -1796.29H-1988.34V657.074H760.024V-1796.29Z" fill="white"/>
</g>
</mask>
<g mask="url(#mask16_416_2198)">
<path d="M214.026 170.118C214.516 170.118 215.006 170.118 215.496 170.118L312.497 176.022C333.563 177.115 360.263 204.885 359.773 225.439L358.548 319.463C358.303 326.241 355.364 330.833 349.975 332.582C339.687 335.862 323.765 329.084 311.272 315.964L215.741 216.255C200.799 200.512 197.37 184.331 202.024 176.24C204.228 172.304 208.392 170.118 214.026 170.118ZM344.341 335.206C346.545 335.206 348.505 334.988 350.464 334.332C356.833 332.364 360.263 327.116 360.507 319.463L361.732 225.439C362.222 203.792 335.032 175.584 312.742 174.272L215.741 168.369C208.392 167.931 203.003 170.555 200.309 175.584C194.43 185.643 200.309 202.917 214.271 217.349L309.802 317.058C320.825 328.647 333.808 335.206 344.341 335.206Z" fill="white"/>
</g>
</mask>
<g mask="url(#mask15_416_2198)">
<path d="M760.024 -1796.29H-1988.34V657.074H760.024V-1796.29Z" fill="url(#paint5_linear_416_2198)"/>
</g>
<mask id="mask18_416_2198" style="mask-type:luminance" maskUnits="userSpaceOnUse" x="193" y="160" width="178" height="186">
<mask id="mask19_416_2198" style="mask-type:luminance" maskUnits="userSpaceOnUse" x="193" y="160" width="178" height="186">
<mask id="mask20_416_2198" style="mask-type:luminance" maskUnits="userSpaceOnUse" x="193" y="160" width="178" height="186">
<path d="M215.006 162.027L321.805 176.022C345.076 179.083 371.531 210.351 368.836 231.78L357.078 330.396C356.344 337.393 352.669 341.985 346.546 343.515C334.788 346.358 317.641 337.83 305.149 322.961L210.107 210.351C197.125 195.045 192.471 177.552 198.84 167.931C202.024 163.121 207.658 161.153 215.006 162.027ZM341.647 345.702C343.606 345.702 345.321 345.483 347.035 345.046C353.894 343.515 358.058 338.267 359.038 330.614L370.796 231.999C373.49 209.258 346.546 177.552 322.05 174.272L215.251 160.278C207.168 159.185 200.799 161.59 197.125 167.056C190.266 177.334 194.92 195.482 208.393 211.445L303.434 323.836C314.947 337.393 329.889 345.702 341.647 345.702Z" fill="white"/>
</mask>
<g mask="url(#mask20_416_2198)">
<path d="M760.024 -1796.29H-1988.34V657.074H760.024V-1796.29Z" fill="white"/>
</g>
</mask>
<g mask="url(#mask19_416_2198)">
<path d="M215.006 162.027L321.805 176.022C345.076 179.083 371.531 210.351 368.836 231.78L357.078 330.396C356.344 337.393 352.669 341.985 346.546 343.515C334.788 346.358 317.641 337.83 305.149 322.961L210.107 210.351C197.125 195.045 192.471 177.552 198.84 167.931C202.024 163.121 207.658 161.153 215.006 162.027ZM341.647 345.702C343.606 345.702 345.321 345.483 347.035 345.046C353.894 343.515 358.058 338.267 359.038 330.614L370.796 231.999C373.49 209.258 346.546 177.552 322.05 174.272L215.251 160.278C207.168 159.185 200.799 161.59 197.125 167.056C190.266 177.334 194.92 195.482 208.393 211.445L303.434 323.836C314.947 337.393 329.889 345.702 341.647 345.702Z" fill="white"/>
</g>
</mask>
<g mask="url(#mask18_416_2198)">
<path d="M760.024 -1796.29H-1988.34V657.074H760.024V-1796.29Z" fill="url(#paint6_linear_416_2198)"/>
</g>
<mask id="mask21_416_2198" style="mask-type:luminance" maskUnits="userSpaceOnUse" x="190" y="151" width="191" height="206">
<mask id="mask22_416_2198" style="mask-type:luminance" maskUnits="userSpaceOnUse" x="190" y="151" width="191" height="206">
<mask id="mask23_416_2198" style="mask-type:luminance" maskUnits="userSpaceOnUse" x="190" y="151" width="191" height="206">
<path d="M215.252 153.499L332.094 176.896C357.324 181.925 383.289 216.91 378.145 239.214L354.384 341.765C352.915 348.981 348.261 353.354 341.402 354.448C328.174 356.853 310.048 346.576 297.311 329.52L204.474 203.791C191.981 187.173 188.797 168.586 196.145 158.965C200.31 153.718 206.923 151.75 215.252 153.499ZM337.728 356.634C339.197 356.634 340.422 356.416 341.892 356.197C349.485 354.885 354.629 349.856 356.344 341.984L380.104 239.651C385.493 216.036 359.283 180.613 332.339 175.146L215.742 151.75C206.678 150 199.085 152.187 194.676 157.872C186.592 168.149 190.022 187.391 202.759 204.665L295.841 330.614C307.598 346.357 324.255 356.634 337.728 356.634Z" fill="white"/>
</mask>
<g mask="url(#mask23_416_2198)">
<path d="M760.025 -1796.3H-1988.34V657.074H760.025V-1796.3Z" fill="white"/>
</g>
</mask>
<g mask="url(#mask22_416_2198)">
<path d="M215.252 153.499L332.094 176.896C357.324 181.925 383.289 216.91 378.145 239.214L354.384 341.765C352.915 348.981 348.261 353.354 341.402 354.448C328.174 356.853 310.048 346.576 297.311 329.52L204.474 203.791C191.981 187.173 188.797 168.586 196.145 158.965C200.31 153.718 206.923 151.75 215.252 153.499ZM337.728 356.634C339.197 356.634 340.422 356.416 341.892 356.197C349.485 354.885 354.629 349.856 356.344 341.984L380.104 239.651C385.493 216.036 359.283 180.613 332.339 175.146L215.742 151.75C206.678 150 199.085 152.187 194.676 157.872C186.592 168.149 190.022 187.391 202.759 204.665L295.841 330.614C307.598 346.357 324.255 356.634 337.728 356.634Z" fill="white"/>
</g>
</mask>
<g mask="url(#mask21_416_2198)">
<path d="M760.025 -1796.3H-1988.34V657.074H760.025V-1796.3Z" fill="url(#paint7_linear_416_2198)"/>
</g>
<mask id="mask24_416_2198" style="mask-type:luminance" maskUnits="userSpaceOnUse" x="186" y="141" width="206" height="227">
<mask id="mask25_416_2198" style="mask-type:luminance" maskUnits="userSpaceOnUse" x="186" y="141" width="206" height="227">
<mask id="mask26_416_2198" style="mask-type:luminance" maskUnits="userSpaceOnUse" x="186" y="141" width="206" height="227">
<path d="M208.393 143.441C210.842 143.441 213.782 143.878 216.721 144.534L343.116 178.645C356.834 182.362 371.286 194.17 380.349 209.695C388.433 223.471 391.127 237.684 387.698 247.961L350.22 353.355C347.771 360.789 342.137 364.944 334.543 365.818C319.356 367.13 300.495 354.885 288.247 335.862L198.84 196.357C187.327 178.427 185.367 158.966 194.186 149.345C197.615 145.409 202.514 143.441 208.393 143.441ZM332.094 367.568C333.073 367.568 333.808 367.568 334.788 367.568C343.116 366.693 349.24 361.883 352.18 353.792L389.412 248.398C393.332 237.683 390.637 223.252 382.064 209.039C372.756 193.077 358.059 180.832 343.851 176.896L217.211 143.004C206.923 140.161 198.105 141.91 192.716 148.251C183.408 158.747 185.122 178.427 197.37 197.231L286.533 336.737C298.535 355.323 316.907 367.568 332.094 367.568Z" fill="white"/>
</mask>
<g mask="url(#mask26_416_2198)">
<path d="M760.025 -1796.29H-1988.34V657.074H760.025V-1796.29Z" fill="white"/>
</g>
</mask>
<g mask="url(#mask25_416_2198)">
<path d="M208.393 143.441C210.842 143.441 213.782 143.878 216.721 144.534L343.116 178.645C356.834 182.362 371.286 194.17 380.349 209.695C388.433 223.471 391.127 237.684 387.698 247.961L350.22 353.355C347.771 360.789 342.137 364.944 334.543 365.818C319.356 367.13 300.495 354.885 288.247 335.862L198.84 196.357C187.327 178.427 185.367 158.966 194.186 149.345C197.615 145.409 202.514 143.441 208.393 143.441ZM332.094 367.568C333.073 367.568 333.808 367.568 334.788 367.568C343.116 366.693 349.24 361.883 352.18 353.792L389.412 248.398C393.332 237.683 390.637 223.252 382.064 209.039C372.756 193.077 358.059 180.832 343.851 176.896L217.211 143.004C206.923 140.161 198.105 141.91 192.716 148.251C183.408 158.747 185.122 178.427 197.37 197.231L286.533 336.737C298.535 355.323 316.907 367.568 332.094 367.568Z" fill="white"/>
</g>
</mask>
<g mask="url(#mask24_416_2198)">
<path d="M760.025 -1796.29H-1988.34V657.074H760.025V-1796.29Z" fill="url(#paint8_linear_416_2198)"/>
</g>
<mask id="mask27_416_2198" style="mask-type:luminance" maskUnits="userSpaceOnUse" x="183" y="131" width="220" height="248">
<mask id="mask28_416_2198" style="mask-type:luminance" maskUnits="userSpaceOnUse" x="183" y="131" width="220" height="248">
<mask id="mask29_416_2198" style="mask-type:luminance" maskUnits="userSpaceOnUse" x="183" y="131" width="220" height="248">
<path d="M218.925 135.351L355.364 181.488C370.796 186.517 385.738 200.949 394.066 218.66C400.925 233.31 402.15 247.523 397.006 257.8L344.341 365.163C340.667 372.816 334.053 376.752 325.48 376.97C308.578 377.189 288.737 362.976 277.469 341.985L193.695 188.266C182.918 168.806 182.673 148.908 192.716 139.068C199.084 132.945 208.393 131.633 218.925 135.351ZM324.99 378.72C325.235 378.72 325.48 378.72 325.48 378.72C334.788 378.501 342.136 373.909 346.3 365.819L398.965 258.456C404.109 247.742 402.884 233.092 395.781 218.004C387.207 199.855 372.02 185.205 356.099 179.739L219.66 133.601C208.148 129.884 198.105 131.196 191.491 137.975C180.713 148.252 180.958 168.806 191.981 189.141L275.754 342.641C287.267 364.069 307.598 378.72 324.99 378.72Z" fill="white"/>
</mask>
<g mask="url(#mask29_416_2198)">
<path d="M760.024 -1796.29H-1988.34V657.074H760.024V-1796.29Z" fill="white"/>
</g>
</mask>
<g mask="url(#mask28_416_2198)">
<path d="M218.925 135.351L355.364 181.488C370.796 186.517 385.738 200.949 394.066 218.66C400.925 233.31 402.15 247.523 397.006 257.8L344.341 365.163C340.667 372.816 334.053 376.752 325.48 376.97C308.578 377.189 288.737 362.976 277.469 341.985L193.695 188.266C182.918 168.806 182.673 148.908 192.716 139.068C199.084 132.945 208.393 131.633 218.925 135.351ZM324.99 378.72C325.235 378.72 325.48 378.72 325.48 378.72C334.788 378.501 342.136 373.909 346.3 365.819L398.965 258.456C404.109 247.742 402.884 233.092 395.781 218.004C387.207 199.855 372.02 185.205 356.099 179.739L219.66 133.601C208.148 129.884 198.105 131.196 191.491 137.975C180.713 148.252 180.958 168.806 191.981 189.141L275.754 342.641C287.267 364.069 307.598 378.72 324.99 378.72Z" fill="white"/>
</g>
</mask>
<g mask="url(#mask27_416_2198)">
<path d="M760.024 -1796.29H-1988.34V657.074H760.024V-1796.29Z" fill="url(#paint9_linear_416_2198)"/>
</g>
<mask id="mask30_416_2198" style="mask-type:luminance" maskUnits="userSpaceOnUse" x="180" y="120" width="234" height="270">
<mask id="mask31_416_2198" style="mask-type:luminance" maskUnits="userSpaceOnUse" x="180" y="120" width="234" height="270">
<mask id="mask32_416_2198" style="mask-type:luminance" maskUnits="userSpaceOnUse" x="180" y="120" width="234" height="270">
<path d="M208.148 122.668C212.802 122.668 217.701 123.762 222.6 125.73L368.591 185.205C385.738 192.203 400.68 209.039 407.784 228.937C413.418 244.462 412.928 258.894 406.559 268.734L336.503 377.189C331.604 384.842 323.765 388.559 314.212 388.122C295.351 386.81 275.02 370.192 264.732 347.233L188.797 179.302C179.243 158.529 180.713 138.193 192.226 128.354C196.635 124.636 202.024 122.668 208.148 122.668ZM316.172 389.871C325.48 389.871 333.318 385.717 338.217 378.064L408.274 269.608C414.887 259.331 415.377 244.244 409.743 228.282C402.395 207.946 386.963 190.891 369.571 183.675L223.58 124.199C210.842 118.951 199.085 120.045 191.001 127.042C178.754 137.537 177.039 158.31 186.837 179.957L263.017 347.889C273.55 371.285 294.616 388.559 313.967 389.871C314.702 389.871 315.437 389.871 316.172 389.871Z" fill="white"/>
</mask>
<g mask="url(#mask32_416_2198)">
<path d="M760.024 -1796.29H-1988.34V657.074H760.024V-1796.29Z" fill="white"/>
</g>
</mask>
<g mask="url(#mask31_416_2198)">
<path d="M208.148 122.668C212.802 122.668 217.701 123.762 222.6 125.73L368.591 185.205C385.738 192.203 400.68 209.039 407.784 228.937C413.418 244.462 412.928 258.894 406.559 268.734L336.503 377.189C331.604 384.842 323.765 388.559 314.212 388.122C295.351 386.81 275.02 370.192 264.732 347.233L188.797 179.302C179.243 158.529 180.713 138.193 192.226 128.354C196.635 124.636 202.024 122.668 208.148 122.668ZM316.172 389.871C325.48 389.871 333.318 385.717 338.217 378.064L408.274 269.608C414.887 259.331 415.377 244.244 409.743 228.282C402.395 207.946 386.963 190.891 369.571 183.675L223.58 124.199C210.842 118.951 199.085 120.045 191.001 127.042C178.754 137.537 177.039 158.31 186.837 179.957L263.017 347.889C273.55 371.285 294.616 388.559 313.967 389.871C314.702 389.871 315.437 389.871 316.172 389.871Z" fill="white"/>
</g>
</mask>
<g mask="url(#mask30_416_2198)">
<path d="M760.024 -1796.29H-1988.34V657.074H760.024V-1796.29Z" fill="url(#paint10_linear_416_2198)"/>
</g>
<mask id="mask33_416_2198" style="mask-type:luminance" maskUnits="userSpaceOnUse" x="178" y="109" width="248" height="292">
<mask id="mask34_416_2198" style="mask-type:luminance" maskUnits="userSpaceOnUse" x="178" y="109" width="248" height="292">
<mask id="mask35_416_2198" style="mask-type:luminance" maskUnits="userSpaceOnUse" x="178" y="109" width="248" height="292">
<path d="M227.744 116.108L383.043 190.452C401.17 199.199 416.357 218.878 421.991 240.526C425.91 256.707 423.705 271.575 415.867 281.197L326.704 388.996C320.091 396.868 311.027 400.148 300.005 398.617C279.429 395.556 259.098 376.314 250.034 351.824L184.142 169.461C176.304 147.376 179.488 126.822 192.716 116.983C202.024 109.986 214.516 109.767 227.744 116.108ZM305.149 400.804C314.457 400.804 322.54 397.087 328.174 390.089L417.337 282.071C425.665 272.232 427.87 256.925 423.705 240.088C418.316 218.004 402.64 197.887 383.778 188.922L228.724 114.577C214.761 108.018 201.289 108.236 191.491 115.671C177.774 125.948 174.099 147.158 182.428 170.117L248.32 352.261C257.383 377.407 278.449 397.305 299.76 400.366C301.474 400.585 303.434 400.804 305.149 400.804Z" fill="white"/>
</mask>
<g mask="url(#mask35_416_2198)">
<path d="M760.024 -1796.29H-1988.34V657.074H760.024V-1796.29Z" fill="white"/>
</g>
</mask>
<g mask="url(#mask34_416_2198)">
<path d="M227.744 116.108L383.043 190.452C401.17 199.199 416.357 218.878 421.991 240.526C425.91 256.707 423.705 271.575 415.867 281.197L326.704 388.996C320.091 396.868 311.027 400.148 300.005 398.617C279.429 395.556 259.098 376.314 250.034 351.824L184.142 169.461C176.304 147.376 179.488 126.822 192.716 116.983C202.024 109.986 214.516 109.767 227.744 116.108ZM305.149 400.804C314.457 400.804 322.54 397.087 328.174 390.089L417.337 282.071C425.665 272.232 427.87 256.925 423.705 240.088C418.316 218.004 402.64 197.887 383.778 188.922L228.724 114.577C214.761 108.018 201.289 108.236 191.491 115.671C177.774 125.948 174.099 147.158 182.428 170.117L248.32 352.261C257.383 377.407 278.449 397.305 299.76 400.366C301.474 400.585 303.434 400.804 305.149 400.804Z" fill="white"/>
</g>
</mask>
<g mask="url(#mask33_416_2198)">
<path d="M760.024 -1796.29H-1988.34V657.074H760.024V-1796.29Z" fill="url(#paint11_linear_416_2198)"/>
</g>
<mask id="mask36_416_2198" style="mask-type:luminance" maskUnits="userSpaceOnUse" x="175" y="98" width="264" height="314">
<mask id="mask37_416_2198" style="mask-type:luminance" maskUnits="userSpaceOnUse" x="175" y="98" width="264" height="314">
<mask id="mask38_416_2198" style="mask-type:luminance" maskUnits="userSpaceOnUse" x="175" y="98" width="264" height="314">
<path d="M234.603 106.487L398.231 197.013C417.582 207.946 432.524 230.031 435.953 253.427C438.648 270.483 434.484 285.57 424.685 294.754L314.212 400.804C306.129 408.457 295.106 411.3 282.858 408.457C260.813 403.209 240.482 381.343 233.378 355.323L180.223 158.747C174.1 135.788 179.489 114.578 194.431 104.957C205.453 97.9597 220.151 98.3971 234.603 106.487ZM292.166 411.3C301.23 411.3 309.313 408.02 315.682 401.897L426.155 296.066C436.198 286.445 440.607 270.701 437.913 253.208C434.239 229.156 419.052 206.634 399.21 195.701L235.583 104.957C220.396 96.4291 204.964 95.9918 193.206 103.645C177.774 113.703 171.895 135.351 178.509 159.185L231.663 355.76C238.767 382.437 259.588 404.74 282.368 410.207C285.798 410.863 288.982 411.3 292.166 411.3Z" fill="white"/>
</mask>
<g mask="url(#mask38_416_2198)">
<path d="M760.025 -1796.29H-1988.34V657.074H760.025V-1796.29Z" fill="white"/>
</g>
</mask>
<g mask="url(#mask37_416_2198)">
<path d="M234.603 106.487L398.231 197.013C417.582 207.946 432.524 230.031 435.953 253.427C438.648 270.483 434.484 285.57 424.685 294.754L314.212 400.804C306.129 408.457 295.106 411.3 282.858 408.457C260.813 403.209 240.482 381.343 233.378 355.323L180.223 158.747C174.1 135.788 179.489 114.578 194.431 104.957C205.453 97.9597 220.151 98.3971 234.603 106.487ZM292.166 411.3C301.23 411.3 309.313 408.02 315.682 401.897L426.155 296.066C436.198 286.445 440.607 270.701 437.913 253.208C434.239 229.156 419.052 206.634 399.21 195.701L235.583 104.957C220.396 96.4291 204.964 95.9918 193.206 103.645C177.774 113.703 171.895 135.351 178.509 159.185L231.663 355.76C238.767 382.437 259.588 404.74 282.368 410.207C285.798 410.863 288.982 411.3 292.166 411.3Z" fill="white"/>
</g>
</mask>
<g mask="url(#mask36_416_2198)">
<path d="M760.025 -1796.29H-1988.34V657.075H760.025V-1796.29Z" fill="url(#paint12_linear_416_2198)"/>
</g>
<mask id="mask39_416_2198" style="mask-type:luminance" maskUnits="userSpaceOnUse" x="173" y="86" width="280" height="336">
<mask id="mask40_416_2198" style="mask-type:luminance" maskUnits="userSpaceOnUse" x="173" y="86" width="280" height="336">
<mask id="mask41_416_2198" style="mask-type:luminance" maskUnits="userSpaceOnUse" x="173" y="86" width="280" height="336">
<path d="M215.496 88.1203C224.559 88.1203 233.868 90.9629 242.931 96.6481L414.397 205.322C434.728 218.223 448.935 242.713 450.16 267.64C450.895 285.571 444.771 301.095 433.258 310.06L299.515 411.956C289.227 419.828 275.999 421.577 262.527 417.204C238.767 409.332 219.66 385.498 214.516 357.728L177.039 147.377C172.63 122.887 180.468 102.115 197.37 92.7122C203.004 89.651 209.127 88.1203 215.496 88.1203ZM276.734 421.14C285.552 421.14 293.636 418.516 300.739 413.268L434.483 311.373C446.486 302.189 452.855 286.227 452.12 267.64C450.65 242.057 436.443 217.13 415.377 203.792L244.156 95.336C227.744 85.059 210.352 83.5284 196.39 91.1816C178.753 101.021 170.67 122.45 175.079 147.596L212.802 358.166C217.701 386.373 237.542 410.863 261.792 418.735C266.936 420.484 272.08 421.14 276.734 421.14Z" fill="white"/>
</mask>
<g mask="url(#mask41_416_2198)">
<path d="M760.024 -1796.29H-1988.34V657.075H760.024V-1796.29Z" fill="white"/>
</g>
</mask>
<g mask="url(#mask40_416_2198)">
<path d="M215.496 88.1203C224.559 88.1203 233.868 90.9629 242.931 96.6481L414.397 205.322C434.728 218.223 448.935 242.713 450.16 267.64C450.895 285.571 444.771 301.095 433.258 310.06L299.515 411.956C289.227 419.828 275.999 421.577 262.527 417.204C238.767 409.332 219.66 385.498 214.516 357.728L177.039 147.377C172.63 122.887 180.468 102.115 197.37 92.7122C203.004 89.651 209.127 88.1203 215.496 88.1203ZM276.734 421.14C285.552 421.14 293.636 418.516 300.739 413.268L434.483 311.373C446.486 302.189 452.855 286.227 452.12 267.64C450.65 242.057 436.443 217.13 415.377 203.792L244.156 95.336C227.744 85.059 210.352 83.5284 196.39 91.1816C178.753 101.021 170.67 122.45 175.079 147.596L212.802 358.166C217.701 386.373 237.542 410.863 261.792 418.735C266.936 420.484 272.08 421.14 276.734 421.14Z" fill="white"/>
</g>
</mask>
<g mask="url(#mask39_416_2198)">
<path d="M760.024 -1796.29H-1988.34V657.075H760.024V-1796.29Z" fill="url(#paint13_linear_416_2198)"/>
</g>
<mask id="mask42_416_2198" style="mask-type:luminance" maskUnits="userSpaceOnUse" x="172" y="74" width="295" height="357">
<mask id="mask43_416_2198" style="mask-type:luminance" maskUnits="userSpaceOnUse" x="172" y="74" width="295" height="357">
<mask id="mask44_416_2198" style="mask-type:luminance" maskUnits="userSpaceOnUse" x="172" y="74" width="295" height="357">
<path d="M253.464 87.2458L431.299 215.162C452.61 230.468 465.347 257.145 464.122 283.165C463.388 302.407 454.814 318.151 440.852 326.679L281.633 422.671C268.896 430.324 253.709 430.761 238.522 424.201C214.027 413.706 195.9 387.248 193.451 358.822L174.834 134.914C172.63 109.768 183.163 88.7764 202.024 79.8113C217.701 72.3769 236.562 75.2195 253.464 87.2458ZM259.343 430.542C267.671 430.542 275.509 428.356 282.858 423.983L441.832 327.991C456.284 319.244 465.102 303.063 466.082 283.384C467.307 256.707 454.079 229.375 432.524 213.85L254.689 85.9338C237.052 73.4702 217.701 70.6276 201.044 78.2807C181.448 87.4644 170.67 109.33 172.875 135.132L191.491 358.822C193.94 388.122 212.557 415.018 237.787 425.951C244.89 429.012 252.239 430.542 259.343 430.542Z" fill="white"/>
</mask>
<g mask="url(#mask44_416_2198)">
<path d="M760.024 -1796.29H-1988.34V657.074H760.024V-1796.29Z" fill="white"/>
</g>
</mask>
<g mask="url(#mask43_416_2198)">
<path d="M253.464 87.2458L431.299 215.162C452.61 230.468 465.347 257.145 464.122 283.165C463.388 302.407 454.814 318.151 440.852 326.679L281.633 422.671C268.896 430.324 253.709 430.761 238.522 424.201C214.027 413.706 195.9 387.248 193.451 358.822L174.834 134.914C172.63 109.768 183.163 88.7764 202.024 79.8113C217.701 72.3769 236.562 75.2195 253.464 87.2458ZM259.343 430.542C267.671 430.542 275.509 428.356 282.858 423.983L441.832 327.991C456.284 319.244 465.102 303.063 466.082 283.384C467.307 256.707 454.079 229.375 432.524 213.85L254.689 85.9338C237.052 73.4702 217.701 70.6276 201.044 78.2807C181.448 87.4644 170.67 109.33 172.875 135.132L191.491 358.822C193.94 388.122 212.557 415.018 237.787 425.951C244.89 429.012 252.239 430.542 259.343 430.542Z" fill="white"/>
</g>
</mask>
<g mask="url(#mask42_416_2198)">
<path d="M760.024 -1796.29H-1988.34V657.074H760.024V-1796.29Z" fill="url(#paint14_linear_416_2198)"/>
</g>
<mask id="mask45_416_2198" style="mask-type:luminance" maskUnits="userSpaceOnUse" x="168" y="61" width="313" height="378">
<mask id="mask46_416_2198" style="mask-type:luminance" maskUnits="userSpaceOnUse" x="168" y="61" width="313" height="378">
<mask id="mask47_416_2198" style="mask-type:luminance" maskUnits="userSpaceOnUse" x="168" y="61" width="313" height="378">
<path d="M265.957 78.2808L448.936 226.97C470.492 244.463 482.004 273.326 478.085 300.221C475.146 320.556 464.123 336.737 447.466 344.609L260.813 432.292C245.381 439.508 227.499 438.633 210.842 429.449C185.612 415.674 169.691 387.685 169.936 358.166L173.61 121.794C174.1 95.9923 187.327 75.0008 208.148 66.9104C227.009 59.4759 248.075 63.6305 265.957 78.2808ZM239.257 438.852C246.85 438.852 254.689 437.102 261.793 433.822L448.446 346.14C465.592 338.049 477.105 321.431 480.045 300.44C483.964 272.888 472.451 243.588 450.405 225.658L267.426 76.9689C248.81 61.8813 227.009 57.7267 207.413 65.1611C185.857 73.6889 172.14 95.3363 171.65 121.794L168.221 357.947C167.731 388.122 184.143 416.767 209.863 430.98C219.416 436.228 229.459 438.852 239.257 438.852Z" fill="white"/>
</mask>
<g mask="url(#mask47_416_2198)">
<path d="M760.025 -1796.29H-1988.34V657.075H760.025V-1796.29Z" fill="white"/>
</g>
</mask>
<g mask="url(#mask46_416_2198)">
<path d="M265.957 78.2808L448.936 226.97C470.492 244.463 482.004 273.326 478.085 300.221C475.146 320.556 464.123 336.737 447.466 344.609L260.813 432.292C245.381 439.508 227.499 438.633 210.842 429.449C185.612 415.674 169.691 387.685 169.936 358.166L173.61 121.794C174.1 95.9923 187.327 75.0008 208.148 66.9104C227.009 59.4759 248.075 63.6305 265.957 78.2808ZM239.257 438.852C246.85 438.852 254.689 437.102 261.793 433.822L448.446 346.14C465.592 338.049 477.105 321.431 480.045 300.44C483.964 272.888 472.451 243.588 450.405 225.658L267.426 76.9689C248.81 61.8813 227.009 57.7267 207.413 65.1611C185.857 73.6889 172.14 95.3363 171.65 121.794L168.221 357.947C167.731 388.122 184.143 416.767 209.863 430.98C219.416 436.228 229.459 438.852 239.257 438.852Z" fill="white"/>
</g>
</mask>
<g mask="url(#mask45_416_2198)">
<path d="M760.025 -1796.29H-1988.34V657.075H760.025V-1796.29Z" fill="url(#paint15_linear_416_2198)"/>
</g>
<mask id="mask48_416_2198" style="mask-type:luminance" maskUnits="userSpaceOnUse" x="141" y="49" width="355" height="397">
<mask id="mask49_416_2198" style="mask-type:luminance" maskUnits="userSpaceOnUse" x="141" y="49" width="355" height="397">
<mask id="mask50_416_2198" style="mask-type:luminance" maskUnits="userSpaceOnUse" x="141" y="49" width="355" height="397">
<path d="M280.899 69.9711L467.307 240.745C489.353 260.643 498.661 290.599 492.047 318.806C486.658 340.673 472.451 357.072 452.855 364.069L236.807 440.6C217.946 447.379 197.125 444.099 179.244 432.072C154.259 415.236 140.541 385.061 144.216 355.323L173.61 108.018C177.039 81.1228 192.961 60.7874 216.721 53.5716C238.522 46.7931 262.527 52.9156 280.899 69.9711ZM216.721 445.848C223.825 445.848 230.929 444.536 237.542 442.131L453.59 365.6C473.921 358.384 488.618 341.547 493.762 319.244C500.621 290.599 491.068 259.987 468.777 239.433L282.369 68.6592C263.262 51.1664 238.522 44.8252 215.987 51.8223C191.736 59.4754 175.08 80.2481 171.895 107.799L142.256 355.104C138.582 385.498 152.789 416.329 178.019 433.384C190.022 441.694 203.494 445.848 216.721 445.848Z" fill="white"/>
</mask>
<g mask="url(#mask50_416_2198)">
<path d="M760.025 -1796.29H-1988.34V657.074H760.025V-1796.29Z" fill="white"/>
</g>
</mask>
<g mask="url(#mask49_416_2198)">
<path d="M280.899 69.9711L467.307 240.745C489.353 260.643 498.661 290.599 492.047 318.806C486.658 340.673 472.451 357.072 452.855 364.069L236.807 440.6C217.946 447.379 197.125 444.099 179.244 432.072C154.259 415.236 140.541 385.061 144.216 355.323L173.61 108.018C177.039 81.1228 192.961 60.7874 216.721 53.5716C238.522 46.7931 262.527 52.9156 280.899 69.9711ZM216.721 445.848C223.825 445.848 230.929 444.536 237.542 442.131L453.59 365.6C473.921 358.384 488.618 341.547 493.762 319.244C500.621 290.599 491.068 259.987 468.777 239.433L282.369 68.6592C263.262 51.1664 238.522 44.8252 215.987 51.8223C191.736 59.4754 175.08 80.2481 171.895 107.799L142.256 355.104C138.582 385.498 152.789 416.329 178.019 433.384C190.022 441.694 203.494 445.848 216.721 445.848Z" fill="white"/>
</g>
</mask>
<g mask="url(#mask48_416_2198)">
<path d="M760.025 -1796.29H-1988.34V657.074H760.025V-1796.29Z" fill="url(#paint16_linear_416_2198)"/>
</g>
<mask id="mask51_416_2198" style="mask-type:luminance" maskUnits="userSpaceOnUse" x="111" y="36" width="401" height="416">
<mask id="mask52_416_2198" style="mask-type:luminance" maskUnits="userSpaceOnUse" x="111" y="36" width="401" height="416">
<mask id="mask53_416_2198" style="mask-type:luminance" maskUnits="userSpaceOnUse" x="111" y="36" width="401" height="416">
<path d="M298.29 62.3183L486.168 256.707C507.724 279.011 515.072 310.498 505.519 338.924C497.681 362.32 479.799 378.938 456.774 384.842L209.372 447.379C186.592 453.283 162.831 447.598 143.725 431.854C119.475 411.738 108.942 380.469 115.801 350.513L175.324 93.5867C181.693 66.2542 201.289 46.1375 227.744 40.015C252.974 34.3298 279.429 42.6389 298.29 62.3183ZM191.736 451.315C197.86 451.315 203.738 450.659 209.862 449.128L457.264 386.592C481.024 380.469 499.395 363.414 507.479 339.361C517.277 310.279 509.683 278.136 487.638 255.614L299.76 61.225C280.163 40.8896 253.219 32.3618 227.254 38.4843C200.064 44.6068 179.978 65.1609 173.364 93.1494L113.841 350.075C106.738 380.688 117.76 412.612 142.5 433.166C156.953 445.192 174.344 451.315 191.736 451.315Z" fill="white"/>
</mask>
<g mask="url(#mask53_416_2198)">
<path d="M760.024 -1796.29H-1988.34V657.074H760.024V-1796.29Z" fill="white"/>
</g>
</mask>
<g mask="url(#mask52_416_2198)">
<path d="M298.29 62.3183L486.168 256.707C507.724 279.011 515.072 310.498 505.519 338.924C497.681 362.32 479.799 378.938 456.774 384.842L209.372 447.379C186.592 453.283 162.831 447.598 143.725 431.854C119.475 411.738 108.942 380.469 115.801 350.513L175.324 93.5867C181.693 66.2542 201.289 46.1375 227.744 40.015C252.974 34.3298 279.429 42.6389 298.29 62.3183ZM191.736 451.315C197.86 451.315 203.738 450.659 209.862 449.128L457.264 386.592C481.024 380.469 499.395 363.414 507.479 339.361C517.277 310.279 509.683 278.136 487.638 255.614L299.76 61.225C280.163 40.8896 253.219 32.3618 227.254 38.4843C200.064 44.6068 179.978 65.1609 173.364 93.1494L113.841 350.075C106.738 380.688 117.76 412.612 142.5 433.166C156.953 445.192 174.344 451.315 191.736 451.315Z" fill="white"/>
</g>
</mask>
<g mask="url(#mask51_416_2198)">
<path d="M760.024 -1796.29H-1988.34V657.074H760.024V-1796.29Z" fill="url(#paint17_linear_416_2198)"/>
</g>
<mask id="mask54_416_2198" style="mask-type:luminance" maskUnits="userSpaceOnUse" x="78" y="24" width="450" height="432">
<mask id="mask55_416_2198" style="mask-type:luminance" maskUnits="userSpaceOnUse" x="78" y="24" width="450" height="432">
<mask id="mask56_416_2198" style="mask-type:luminance" maskUnits="userSpaceOnUse" x="78" y="24" width="450" height="432">
<path d="M254.444 25.8019C278.694 25.8019 302.21 36.5163 318.621 55.7584L505.275 274.856C526.096 299.346 531.24 332.145 518.747 360.789C507.969 385.717 485.923 402.554 458.734 406.927L178.019 452.408C150.829 456.781 124.129 448.035 104.778 428.137C81.9978 405.178 74.4042 372.597 84.9372 343.078L178.754 78.4991C188.552 50.7292 212.067 31.2684 241.461 26.8952C245.871 26.0206 250.035 25.8019 254.444 25.8019ZM164.302 455.251C168.956 455.251 173.61 454.813 178.264 454.157L458.979 408.676C486.903 404.084 509.439 386.81 520.462 361.445C533.199 332.145 528.055 298.69 506.989 273.981L320.091 54.6651C300.25 31.4871 270.856 20.5541 241.216 25.1459C210.842 29.7378 186.837 49.4172 176.794 77.843L82.9776 342.422C72.4446 372.597 80.0381 405.834 103.309 429.449C119.72 446.286 141.521 455.251 164.302 455.251Z" fill="white"/>
</mask>
<g mask="url(#mask56_416_2198)">
<path d="M760.025 -1796.29H-1988.34V657.074H760.025V-1796.29Z" fill="white"/>
</g>
</mask>
<g mask="url(#mask55_416_2198)">
<path d="M254.444 25.8019C278.694 25.8019 302.21 36.5163 318.621 55.7584L505.275 274.856C526.096 299.346 531.24 332.145 518.747 360.789C507.969 385.717 485.923 402.554 458.734 406.927L178.019 452.408C150.829 456.781 124.129 448.035 104.778 428.137C81.9978 405.178 74.4042 372.597 84.9372 343.078L178.754 78.4991C188.552 50.7292 212.067 31.2684 241.461 26.8952C245.871 26.0206 250.035 25.8019 254.444 25.8019ZM164.302 455.251C168.956 455.251 173.61 454.813 178.264 454.157L458.979 408.676C486.903 404.084 509.439 386.81 520.462 361.445C533.199 332.145 528.055 298.69 506.989 273.981L320.091 54.6651C300.25 31.4871 270.856 20.5541 241.216 25.1459C210.842 29.7378 186.837 49.4172 176.794 77.843L82.9776 342.422C72.4446 372.597 80.0381 405.834 103.309 429.449C119.72 446.286 141.521 455.251 164.302 455.251Z" fill="white"/>
</g>
</mask>
<g mask="url(#mask54_416_2198)">
<path d="M760.025 -1796.29H-1988.34V657.074H760.025V-1796.29Z" fill="url(#paint18_linear_416_2198)"/>
</g>
<mask id="mask57_416_2198" style="mask-type:luminance" maskUnits="userSpaceOnUse" x="41" y="11" width="503" height="446">
<mask id="mask58_416_2198" style="mask-type:luminance" maskUnits="userSpaceOnUse" x="41" y="11" width="503" height="446">
<mask id="mask59_416_2198" style="mask-type:luminance" maskUnits="userSpaceOnUse" x="41" y="11" width="503" height="446">
<path d="M266.447 13.557C296.331 13.557 324.01 27.1138 341.402 50.5105L524.381 295.629C544.467 322.305 546.917 355.323 531.485 384.186C517.277 410.644 489.843 427.918 458.489 430.323L142.746 455.032C111.392 457.437 81.018 444.755 61.9118 420.921C41.0909 394.901 37.1716 361.883 51.6237 332.582L184.143 62.7555C197.86 34.767 225.785 16.3995 258.608 13.7756C261.303 13.5569 263.752 13.557 266.447 13.557ZM135.152 457C137.847 457 140.296 457 142.991 456.781L458.489 432.073C490.823 429.667 518.747 411.956 533.199 385.061C549.121 355.542 546.427 321.868 526.096 294.754L343.117 49.6359C323.765 23.6153 291.922 9.62098 258.363 12.2449C224.805 14.8688 196.39 33.4551 182.428 62.0996L49.9091 331.926C35.212 361.883 39.1312 395.338 60.442 421.796C78.3235 444.318 105.758 457 135.152 457Z" fill="white"/>
</mask>
<g mask="url(#mask59_416_2198)">
<path d="M760.025 -1796.29H-1988.34V657.074H760.025V-1796.29Z" fill="white"/>
</g>
</mask>
<g mask="url(#mask58_416_2198)">
<path d="M266.447 13.557C296.331 13.557 324.01 27.1138 341.402 50.5105L524.381 295.629C544.467 322.305 546.917 355.323 531.485 384.186C517.277 410.644 489.843 427.918 458.489 430.323L142.746 455.032C111.392 457.437 81.018 444.755 61.9118 420.921C41.0909 394.901 37.1716 361.883 51.6237 332.582L184.143 62.7555C197.86 34.767 225.785 16.3995 258.608 13.7756C261.303 13.5569 263.752 13.557 266.447 13.557ZM135.152 457C137.847 457 140.296 457 142.991 456.781L458.489 432.073C490.823 429.667 518.747 411.956 533.199 385.061C549.121 355.542 546.427 321.868 526.096 294.754L343.117 49.6359C323.765 23.6153 291.922 9.62098 258.363 12.2449C224.805 14.8688 196.39 33.4551 182.428 62.0996L49.9091 331.926C35.212 361.883 39.1312 395.338 60.442 421.796C78.3235 444.318 105.758 457 135.152 457Z" fill="white"/>
</g>
</mask>
<g mask="url(#mask57_416_2198)">
<path d="M760.025 -1796.29H-1988.34V657.074H760.025V-1796.29Z" fill="url(#paint19_linear_416_2198)"/>
</g>
<mask id="mask60_416_2198" style="mask-type:luminance" maskUnits="userSpaceOnUse" x="0" y="0" width="560" height="457">
<mask id="mask61_416_2198" style="mask-type:luminance" maskUnits="userSpaceOnUse" x="0" y="0" width="560" height="457">
<mask id="mask62_416_2198" style="mask-type:luminance" maskUnits="userSpaceOnUse" x="0" y="0" width="560" height="457">
<path d="M367.612 47.012L543.487 319.025C561.859 347.451 561.859 381.344 543.487 409.551C525.116 437.977 492.292 455.032 455.549 455.032H103.553C67.0556 455.032 33.9871 437.977 15.8607 409.551C-2.51068 381.344 -2.51068 347.451 15.8607 319.025L191.736 47.012C210.108 18.5861 242.931 1.74926 279.674 1.74926C316.417 1.74926 349.24 18.5861 367.612 47.012ZM103.553 456.563H455.549C493.027 456.563 526.341 439.289 545.202 410.425C563.818 381.562 563.818 347.014 545.202 318.151L369.081 46.1373C350.465 17.2741 316.907 0 279.674 0C242.196 0 208.638 17.2741 190.021 46.1373L14.146 318.151C-4.71533 347.014 -4.71533 381.562 14.146 410.425C32.7623 439.289 66.3208 456.563 103.553 456.563Z" fill="white"/>
</mask>
<g mask="url(#mask62_416_2198)">
<path d="M760.025 -1796.29H-1988.34V657.074H760.025V-1796.29Z" fill="white"/>
</g>
</mask>
<g mask="url(#mask61_416_2198)">
<path d="M367.612 47.012L543.487 319.025C561.859 347.451 561.859 381.344 543.487 409.551C525.116 437.977 492.292 455.032 455.549 455.032H103.553C67.0556 455.032 33.9871 437.977 15.8607 409.551C-2.51068 381.344 -2.51068 347.451 15.8607 319.025L191.736 47.012C210.108 18.5861 242.931 1.74926 279.674 1.74926C316.417 1.74926 349.24 18.5861 367.612 47.012ZM103.553 456.563H455.549C493.027 456.563 526.341 439.289 545.202 410.425C563.818 381.562 563.818 347.014 545.202 318.151L369.081 46.1373C350.465 17.2741 316.907 0 279.674 0C242.196 0 208.638 17.2741 190.021 46.1373L14.146 318.151C-4.71533 347.014 -4.71533 381.562 14.146 410.425C32.7623 439.289 66.3208 456.563 103.553 456.563Z" fill="white"/>
</g>
</mask>
<g mask="url(#mask60_416_2198)">
<path d="M760.025 -1796.29H-1988.34V657.074H760.025V-1796.29Z" fill="url(#paint20_linear_416_2198)"/>
</g>
</g>
<defs>
<linearGradient id="paint0_linear_416_2198" x1="354.629" y1="234.963" x2="219.737" y2="234.963" gradientUnits="userSpaceOnUse">
<stop stop-color="#3DDEED"/>
<stop offset="1" stop-color="#CB00DD"/>
</linearGradient>
<linearGradient id="paint1_linear_416_2198" x1="357.063" y1="238.099" x2="215.319" y2="238.099" gradientUnits="userSpaceOnUse">
<stop stop-color="#3DDEED"/>
<stop offset="1" stop-color="#CB00DD"/>
</linearGradient>
<linearGradient id="paint2_linear_416_2198" x1="358.94" y1="241.604" x2="210.893" y2="241.604" gradientUnits="userSpaceOnUse">
<stop stop-color="#3DDEED"/>
<stop offset="1" stop-color="#CB00DD"/>
</linearGradient>
<linearGradient id="paint3_linear_416_2198" x1="360.192" y1="245.545" x2="206.521" y2="245.545" gradientUnits="userSpaceOnUse">
<stop stop-color="#3DDEED"/>
<stop offset="1" stop-color="#CB00DD"/>
</linearGradient>
<linearGradient id="paint4_linear_416_2198" x1="360.726" y1="249.907" x2="202.243" y2="249.907" gradientUnits="userSpaceOnUse">
<stop stop-color="#3DDEED"/>
<stop offset="1" stop-color="#CB00DD"/>
</linearGradient>
<linearGradient id="paint5_linear_416_2198" x1="361.808" y1="251.827" x2="198.039" y2="251.827" gradientUnits="userSpaceOnUse">
<stop stop-color="#3DDEED"/>
<stop offset="1" stop-color="#CB00DD"/>
</linearGradient>
<linearGradient id="paint6_linear_416_2198" x1="370.982" y1="252.929" x2="194.07" y2="252.929" gradientUnits="userSpaceOnUse">
<stop stop-color="#3DDEED"/>
<stop offset="1" stop-color="#CB00DD"/>
</linearGradient>
<linearGradient id="paint7_linear_416_2198" x1="380.753" y1="253.884" x2="190.329" y2="253.884" gradientUnits="userSpaceOnUse">
<stop stop-color="#3DDEED"/>
<stop offset="1" stop-color="#CB00DD"/>
</linearGradient>
<linearGradient id="paint8_linear_416_2198" x1="391.117" y1="254.641" x2="186.727" y2="254.641" gradientUnits="userSpaceOnUse">
<stop stop-color="#3DDEED"/>
<stop offset="1" stop-color="#CB00DD"/>
</linearGradient>
<linearGradient id="paint9_linear_416_2198" x1="402.073" y1="255.15" x2="183.529" y2="255.15" gradientUnits="userSpaceOnUse">
<stop stop-color="#3DDEED"/>
<stop offset="1" stop-color="#CB00DD"/>
</linearGradient>
<linearGradient id="paint10_linear_416_2198" x1="413.64" y1="255.371" x2="180.523" y2="255.371" gradientUnits="userSpaceOnUse">
<stop stop-color="#3DDEED"/>
<stop offset="1" stop-color="#CB00DD"/>
</linearGradient>
<linearGradient id="paint11_linear_416_2198" x1="425.834" y1="255.283" x2="177.987" y2="255.283" gradientUnits="userSpaceOnUse">
<stop stop-color="#3DDEED"/>
<stop offset="1" stop-color="#CB00DD"/>
</linearGradient>
<linearGradient id="paint12_linear_416_2198" x1="438.665" y1="254.764" x2="175.812" y2="254.764" gradientUnits="userSpaceOnUse">
<stop stop-color="#3DDEED"/>
<stop offset="1" stop-color="#CB00DD"/>
</linearGradient>
<linearGradient id="paint13_linear_416_2198" x1="452.122" y1="253.784" x2="173.962" y2="253.784" gradientUnits="userSpaceOnUse">
<stop stop-color="#3DDEED"/>
<stop offset="1" stop-color="#CB00DD"/>
</linearGradient>
<linearGradient id="paint14_linear_416_2198" x1="466.187" y1="252.282" x2="172.595" y2="252.282" gradientUnits="userSpaceOnUse">
<stop stop-color="#3DDEED"/>
<stop offset="1" stop-color="#CB00DD"/>
</linearGradient>
<linearGradient id="paint15_linear_416_2198" x1="480.831" y1="250.194" x2="168.111" y2="250.194" gradientUnits="userSpaceOnUse">
<stop stop-color="#3DDEED"/>
<stop offset="1" stop-color="#CB00DD"/>
</linearGradient>
<linearGradient id="paint16_linear_416_2198" x1="496.04" y1="247.443" x2="141.673" y2="247.443" gradientUnits="userSpaceOnUse">
<stop stop-color="#3DDEED"/>
<stop offset="1" stop-color="#CB00DD"/>
</linearGradient>
<linearGradient id="paint17_linear_416_2198" x1="511.594" y1="243.957" x2="111.769" y2="243.957" gradientUnits="userSpaceOnUse">
<stop stop-color="#3DDEED"/>
<stop offset="1" stop-color="#CB00DD"/>
</linearGradient>
<linearGradient id="paint18_linear_416_2198" x1="527.383" y1="239.656" x2="78.344" y2="239.656" gradientUnits="userSpaceOnUse">
<stop stop-color="#3DDEED"/>
<stop offset="1" stop-color="#CB00DD"/>
</linearGradient>
<linearGradient id="paint19_linear_416_2198" x1="543.427" y1="234.452" x2="41.0352" y2="234.452" gradientUnits="userSpaceOnUse">
<stop stop-color="#3DDEED"/>
<stop offset="1" stop-color="#CB00DD"/>
</linearGradient>
<linearGradient id="paint20_linear_416_2198" x1="559.164" y1="228.295" x2="0.0588996" y2="228.295" gradientUnits="userSpaceOnUse">
<stop stop-color="#3DDEED"/>
<stop offset="1" stop-color="#CB00DD"/>
</linearGradient>
<clipPath id="clip0_416_2198">
<rect width="111.121" height="153.062" fill="white" transform="matrix(-1 0 0 1 296.736 173.835)"/>
</clipPath>
</defs>
</svg>
