<svg width="247" height="253" viewBox="0 0 247 253" fill="none" xmlns="http://www.w3.org/2000/svg">
<g opacity="0.7">
<mask id="mask0_416_1930" style="mask-type:luminance" maskUnits="userSpaceOnUse" x="58" y="59" width="140" height="143">
<mask id="mask1_416_1930" style="mask-type:luminance" maskUnits="userSpaceOnUse" x="58" y="59" width="140" height="143">
<mask id="mask2_416_1930" style="mask-type:luminance" maskUnits="userSpaceOnUse" x="58" y="59" width="140" height="143">
<path d="M195.911 83.8033C197.886 74.2096 196.476 67.1555 191.82 63.4874C185.894 58.6906 174.89 59.6781 160.923 66.1679C127.345 81.687 85.4435 124.012 67.6671 160.552C58.4968 179.175 57.086 193.566 63.7168 199.914C64.2812 200.479 65.1276 200.761 66.2563 200.62C71.7585 200.337 81.211 193.142 87.8419 184.395L122.125 139.108C125.793 134.311 130.449 129.796 134.822 126.692L195.911 83.8033ZM181.944 59.396C186.318 59.396 189.845 60.3836 192.525 62.4998C197.604 66.5912 199.156 74.0686 197.04 84.2265L196.899 84.3676L135.528 127.68C131.154 130.643 126.64 135.157 123.113 139.813L88.6884 185.101C81.9164 193.989 72.1817 201.325 66.3974 201.748C64.8454 201.889 63.7168 201.607 62.8703 200.761C55.9572 193.989 57.3681 179.175 66.6795 160.129C84.597 123.447 126.64 80.8405 160.358 65.1804C168.682 61.3711 176.019 59.396 181.944 59.396Z" fill="white"/>
</mask>
<g mask="url(#mask2_416_1930)">
<path d="M1461.99 371.047H-120.96V-1211.9H1461.99V371.047Z" fill="white"/>
</g>
</mask>
<g mask="url(#mask1_416_1930)">
<path d="M195.911 83.8033C197.886 74.2096 196.476 67.1555 191.82 63.4874C185.894 58.6906 174.89 59.6781 160.923 66.1679C127.345 81.687 85.4435 124.012 67.6671 160.552C58.4968 179.175 57.086 193.566 63.7168 199.914C64.2812 200.479 65.1276 200.761 66.2563 200.62C71.7585 200.337 81.211 193.142 87.8419 184.395L122.125 139.108C125.793 134.311 130.449 129.796 134.822 126.692L195.911 83.8033ZM181.944 59.396C186.318 59.396 189.845 60.3836 192.525 62.4998C197.604 66.5912 199.156 74.0686 197.04 84.2265L196.899 84.3676L135.528 127.68C131.154 130.643 126.64 135.157 123.113 139.813L88.6884 185.101C81.9164 193.989 72.1817 201.325 66.3974 201.748C64.8454 201.889 63.7168 201.607 62.8703 200.761C55.9572 193.989 57.3681 179.175 66.6795 160.129C84.597 123.447 126.64 80.8405 160.358 65.1804C168.682 61.3711 176.019 59.396 181.944 59.396Z" fill="white"/>
</g>
</mask>
<g mask="url(#mask0_416_1930)">
<path d="M1461.99 371.047H-120.96V-1211.9H1461.99V371.047Z" fill="url(#paint0_linear_416_1930)"/>
</g>
<mask id="mask3_416_1930" style="mask-type:luminance" maskUnits="userSpaceOnUse" x="53" y="58" width="150" height="145">
<mask id="mask4_416_1930" style="mask-type:luminance" maskUnits="userSpaceOnUse" x="53" y="58" width="150" height="145">
<mask id="mask5_416_1930" style="mask-type:luminance" maskUnits="userSpaceOnUse" x="53" y="58" width="150" height="145">
<path d="M199.438 86.6245C202.401 75.7611 201.413 67.8605 196.475 63.4869C190.832 58.408 179.969 58.549 166.002 64.0513C131.154 77.7363 85.8667 119.638 64.8454 157.448C54.2642 176.776 51.5836 192.154 57.5091 199.773C58.0734 200.478 58.9199 200.901 60.0485 200.901C65.5508 200.901 75.5676 194.129 82.9039 185.241L121.137 139.53C125.088 134.734 130.025 130.219 134.822 127.256L199.438 86.6245ZM184.907 58.6901C190.127 58.6901 194.359 59.9599 197.322 62.6404C202.401 67.2962 203.53 75.7611 200.426 87.0477L200.285 87.3299L135.387 128.244C130.731 131.065 125.793 135.439 121.984 140.236L83.7504 185.947C76.273 194.976 65.8329 202.03 60.0485 202.03C58.4966 202.03 57.368 201.466 56.6626 200.478C50.3139 192.577 52.9944 176.635 63.8578 157.025C85.0202 118.932 130.59 76.7487 165.578 63.0637C172.915 60.101 179.545 58.6901 184.907 58.6901Z" fill="white"/>
</mask>
<g mask="url(#mask5_416_1930)">
<path d="M1461.99 371.047H-120.96V-1211.9H1461.99V371.047Z" fill="white"/>
</g>
</mask>
<g mask="url(#mask4_416_1930)">
<path d="M199.438 86.6245C202.401 75.7611 201.413 67.8605 196.475 63.4869C190.832 58.408 179.969 58.549 166.002 64.0513C131.154 77.7363 85.8667 119.638 64.8454 157.448C54.2642 176.776 51.5836 192.154 57.5091 199.773C58.0734 200.478 58.9199 200.901 60.0485 200.901C65.5508 200.901 75.5676 194.129 82.9039 185.241L121.137 139.53C125.088 134.734 130.025 130.219 134.822 127.256L199.438 86.6245ZM184.907 58.6901C190.127 58.6901 194.359 59.9599 197.322 62.6404C202.401 67.2962 203.53 75.7611 200.426 87.0477L200.285 87.3299L135.387 128.244C130.731 131.065 125.793 135.439 121.984 140.236L83.7504 185.947C76.273 194.976 65.8329 202.03 60.0485 202.03C58.4966 202.03 57.368 201.466 56.6626 200.478C50.3139 192.577 52.9944 176.635 63.8578 157.025C85.0202 118.932 130.59 76.7487 165.578 63.0637C172.915 60.101 179.545 58.6901 184.907 58.6901Z" fill="white"/>
</g>
</mask>
<g mask="url(#mask3_416_1930)">
<path d="M1461.99 371.047H-120.96V-1211.9H1461.99V371.047Z" fill="url(#paint1_linear_416_1930)"/>
</g>
<mask id="mask6_416_1930" style="mask-type:luminance" maskUnits="userSpaceOnUse" x="48" y="58" width="159" height="144">
<mask id="mask7_416_1930" style="mask-type:luminance" maskUnits="userSpaceOnUse" x="48" y="58" width="159" height="144">
<mask id="mask8_416_1930" style="mask-type:luminance" maskUnits="userSpaceOnUse" x="48" y="58" width="159" height="144">
<path d="M202.542 89.8697C206.633 78.0188 206.21 68.9895 201.131 63.9105C195.77 58.4083 185.189 57.844 171.363 62.3586C135.387 73.7863 86.5721 114.841 62.447 153.921C50.0317 173.814 46.0814 190.321 51.4426 199.068C51.8658 199.914 52.7123 200.337 53.841 200.478C59.3432 201.043 69.9244 194.553 77.9661 185.806L120.009 139.813C124.382 135.016 129.743 130.643 134.681 127.821L202.542 89.8697ZM187.728 58.1261C193.936 58.1261 198.733 59.8191 201.978 63.2051C207.339 68.5663 207.903 78.0188 203.53 90.4341V90.7162L135.246 128.809C130.308 131.63 125.088 135.863 120.714 140.518L78.8126 186.511C70.4887 195.541 59.4843 202.171 53.6999 201.607C52.148 201.466 51.1604 200.761 50.455 199.773C44.9528 190.462 48.9031 173.532 61.4594 153.357C85.7256 114.136 134.822 72.7987 170.94 61.2299C177.288 59.2548 182.932 58.1261 187.728 58.1261Z" fill="white"/>
</mask>
<g mask="url(#mask8_416_1930)">
<path d="M1461.99 371.047H-120.96V-1211.9H1461.99V371.047Z" fill="white"/>
</g>
</mask>
<g mask="url(#mask7_416_1930)">
<path d="M202.542 89.8697C206.633 78.0188 206.21 68.9895 201.131 63.9105C195.77 58.4083 185.189 57.844 171.363 62.3586C135.387 73.7863 86.5721 114.841 62.447 153.921C50.0317 173.814 46.0814 190.321 51.4426 199.068C51.8658 199.914 52.7123 200.337 53.841 200.478C59.3432 201.043 69.9244 194.553 77.9661 185.806L120.009 139.813C124.382 135.016 129.743 130.643 134.681 127.821L202.542 89.8697ZM187.728 58.1261C193.936 58.1261 198.733 59.8191 201.978 63.2051C207.339 68.5663 207.903 78.0188 203.53 90.4341V90.7162L135.246 128.809C130.308 131.63 125.088 135.863 120.714 140.518L78.8126 186.511C70.4887 195.541 59.4843 202.171 53.6999 201.607C52.148 201.466 51.1604 200.761 50.455 199.773C44.9528 190.462 48.9031 173.532 61.4594 153.357C85.7256 114.136 134.822 72.7987 170.94 61.2299C177.288 59.2548 182.932 58.1261 187.728 58.1261Z" fill="white"/>
</g>
</mask>
<g mask="url(#mask6_416_1930)">
<path d="M1461.99 371.047H-120.96V-1211.9H1461.99V371.047Z" fill="url(#paint2_linear_416_1930)"/>
</g>
<mask id="mask9_416_1930" style="mask-type:luminance" maskUnits="userSpaceOnUse" x="42" y="57" width="169" height="144">
<mask id="mask10_416_1930" style="mask-type:luminance" maskUnits="userSpaceOnUse" x="42" y="57" width="169" height="144">
<mask id="mask11_416_1930" style="mask-type:luminance" maskUnits="userSpaceOnUse" x="42" y="57" width="169" height="144">
<path d="M205.505 93.8202C210.725 80.8406 210.866 70.6827 205.787 64.7572C200.567 58.8317 190.55 57.4209 176.724 60.948C140.042 69.9772 87.7007 109.763 60.3307 149.689C46.2224 170.146 40.8613 187.64 45.376 197.798C45.7992 198.786 46.6457 199.35 47.7743 199.491C53.2765 200.479 64.2811 194.553 72.8871 185.806L118.739 139.954C123.536 135.298 129.32 131.066 134.54 128.527L205.505 93.8202ZM190.127 57.9852C197.463 57.9852 203.106 59.9604 206.633 64.0518C211.995 70.4005 211.994 80.8406 206.351 94.5256V94.6667L134.963 129.514C129.884 132.054 124.241 136.145 119.585 140.801L73.7336 186.653C64.7043 195.682 53.4176 201.748 47.6333 200.62C46.0814 200.338 44.9527 199.491 44.2473 198.221C39.5915 187.781 45.0938 169.864 59.3431 149.125C86.9953 108.916 139.478 68.8486 176.442 59.8193C181.521 58.5496 186.035 57.9852 190.127 57.9852Z" fill="white"/>
</mask>
<g mask="url(#mask11_416_1930)">
<path d="M1461.99 371.047H-120.96V-1211.9H1461.99V371.047Z" fill="white"/>
</g>
</mask>
<g mask="url(#mask10_416_1930)">
<path d="M205.505 93.8202C210.725 80.8406 210.866 70.6827 205.787 64.7572C200.567 58.8317 190.55 57.4209 176.724 60.948C140.042 69.9772 87.7007 109.763 60.3307 149.689C46.2224 170.146 40.8613 187.64 45.376 197.798C45.7992 198.786 46.6457 199.35 47.7743 199.491C53.2765 200.479 64.2811 194.553 72.8871 185.806L118.739 139.954C123.536 135.298 129.32 131.066 134.54 128.527L205.505 93.8202ZM190.127 57.9852C197.463 57.9852 203.106 59.9604 206.633 64.0518C211.995 70.4005 211.994 80.8406 206.351 94.5256V94.6667L134.963 129.514C129.884 132.054 124.241 136.145 119.585 140.801L73.7336 186.653C64.7043 195.682 53.4176 201.748 47.6333 200.62C46.0814 200.338 44.9527 199.491 44.2473 198.221C39.5915 187.781 45.0938 169.864 59.3431 149.125C86.9953 108.916 139.478 68.8486 176.442 59.8193C181.521 58.5496 186.035 57.9852 190.127 57.9852Z" fill="white"/>
</g>
</mask>
<g mask="url(#mask9_416_1930)">
<path d="M1461.99 371.047H-120.96V-1211.9H1461.99V371.047Z" fill="url(#paint3_linear_416_1930)"/>
</g>
<mask id="mask12_416_1930" style="mask-type:luminance" maskUnits="userSpaceOnUse" x="37" y="57" width="178" height="143">
<mask id="mask13_416_1930" style="mask-type:luminance" maskUnits="userSpaceOnUse" x="37" y="57" width="178" height="143">
<mask id="mask14_416_1930" style="mask-type:luminance" maskUnits="userSpaceOnUse" x="37" y="57" width="178" height="143">
<path d="M207.903 98.3348C214.534 84.3676 215.381 72.9399 210.302 66.1679C205.505 59.6781 195.77 57.5619 182.226 59.8192C144.84 66.1679 89.394 104.401 58.4969 145.033C42.6957 165.772 35.7827 184.254 39.4508 195.682C39.733 196.81 40.5795 197.516 41.8492 197.939C47.2104 199.35 58.638 193.848 67.9495 185.383L117.611 140.236C122.831 135.439 128.897 131.489 134.258 129.232L207.903 98.3348ZM191.961 57.8441C200.849 57.8441 207.339 60.3836 211.148 65.4625C216.651 72.6577 215.804 84.3676 208.891 99.0402L208.75 99.1813L134.682 130.219C129.32 132.477 123.395 136.427 118.316 140.942L68.6549 186.229C59.0613 195.117 47.3514 200.479 41.567 199.068C40.0151 198.503 38.8865 197.516 38.3222 196.105C34.654 184.254 41.567 165.49 57.6504 144.328C88.6886 103.555 144.416 65.1804 182.085 58.8316C185.612 58.1262 188.857 57.8441 191.961 57.8441Z" fill="white"/>
</mask>
<g mask="url(#mask14_416_1930)">
<path d="M1461.99 371.047H-120.96V-1211.9H1461.99V371.047Z" fill="white"/>
</g>
</mask>
<g mask="url(#mask13_416_1930)">
<path d="M207.903 98.3348C214.534 84.3676 215.381 72.9399 210.302 66.1679C205.505 59.6781 195.77 57.5619 182.226 59.8192C144.84 66.1679 89.394 104.401 58.4969 145.033C42.6957 165.772 35.7827 184.254 39.4508 195.682C39.733 196.81 40.5795 197.516 41.8492 197.939C47.2104 199.35 58.638 193.848 67.9495 185.383L117.611 140.236C122.831 135.439 128.897 131.489 134.258 129.232L207.903 98.3348ZM191.961 57.8441C200.849 57.8441 207.339 60.3836 211.148 65.4625C216.651 72.6577 215.804 84.3676 208.891 99.0402L208.75 99.1813L134.682 130.219C129.32 132.477 123.395 136.427 118.316 140.942L68.6549 186.229C59.0613 195.117 47.3514 200.479 41.567 199.068C40.0151 198.503 38.8865 197.516 38.3222 196.105C34.654 184.254 41.567 165.49 57.6504 144.328C88.6886 103.555 144.416 65.1804 182.085 58.8316C185.612 58.1262 188.857 57.8441 191.961 57.8441Z" fill="white"/>
</g>
</mask>
<g mask="url(#mask12_416_1930)">
<path d="M1461.99 371.047H-120.96V-1211.9H1461.99V371.047Z" fill="url(#paint4_linear_416_1930)"/>
</g>
<mask id="mask15_416_1930" style="mask-type:luminance" maskUnits="userSpaceOnUse" x="32" y="57" width="187" height="141">
<mask id="mask16_416_1930" style="mask-type:luminance" maskUnits="userSpaceOnUse" x="32" y="57" width="187" height="141">
<mask id="mask17_416_1930" style="mask-type:luminance" maskUnits="userSpaceOnUse" x="32" y="57" width="187" height="141">
<path d="M210.019 103.555C218.202 88.3177 219.895 75.7613 214.675 67.8607C210.302 61.0887 200.99 58.126 187.869 59.2547C150.059 62.6407 91.369 98.7578 57.0859 139.813C39.5917 160.834 31.1267 180.162 33.6662 192.86C33.9483 194.271 34.7949 195.117 36.2057 195.682C41.5668 197.516 53.1356 192.719 63.0114 184.536L116.482 140.236C121.984 135.58 128.333 131.771 133.976 129.937L210.019 103.555ZM193.089 57.9849C203.812 57.9849 211.571 61.0887 215.663 67.2964C221.024 75.4792 219.331 88.5998 211.007 104.26L210.866 104.401L134.258 130.925C128.897 132.9 122.548 136.568 117.187 141.083L63.7168 185.383C53.5589 193.847 41.5668 198.644 35.7824 196.669C34.0894 196.105 32.9608 194.835 32.6786 193.142C29.857 180.021 38.604 160.411 56.2394 139.107C90.8046 97.7702 149.777 61.512 187.728 58.126C189.562 57.9849 191.396 57.9849 193.089 57.9849Z" fill="white"/>
</mask>
<g mask="url(#mask17_416_1930)">
<path d="M1461.99 371.047H-120.96V-1211.9H1461.99V371.047Z" fill="white"/>
</g>
</mask>
<g mask="url(#mask16_416_1930)">
<path d="M210.019 103.555C218.202 88.3177 219.895 75.7613 214.675 67.8607C210.302 61.0887 200.99 58.126 187.869 59.2547C150.059 62.6407 91.369 98.7578 57.0859 139.813C39.5917 160.834 31.1267 180.162 33.6662 192.86C33.9483 194.271 34.7949 195.117 36.2057 195.682C41.5668 197.516 53.1356 192.719 63.0114 184.536L116.482 140.236C121.984 135.58 128.333 131.771 133.976 129.937L210.019 103.555ZM193.089 57.9849C203.812 57.9849 211.571 61.0887 215.663 67.2964C221.024 75.4792 219.331 88.5998 211.007 104.26L210.866 104.401L134.258 130.925C128.897 132.9 122.548 136.568 117.187 141.083L63.7168 185.383C53.5589 193.847 41.5668 198.644 35.7824 196.669C34.0894 196.105 32.9608 194.835 32.6786 193.142C29.857 180.021 38.604 160.411 56.2394 139.107C90.8046 97.7702 149.777 61.512 187.728 58.126C189.562 57.9849 191.396 57.9849 193.089 57.9849Z" fill="white"/>
</g>
</mask>
<g mask="url(#mask15_416_1930)">
<path d="M1461.99 371.047H-120.96V-1211.9H1461.99V371.047Z" fill="url(#paint5_linear_416_1930)"/>
</g>
<mask id="mask18_416_1930" style="mask-type:luminance" maskUnits="userSpaceOnUse" x="27" y="58" width="196" height="137">
<mask id="mask19_416_1930" style="mask-type:luminance" maskUnits="userSpaceOnUse" x="27" y="58" width="196" height="137">
<mask id="mask20_416_1930" style="mask-type:luminance" maskUnits="userSpaceOnUse" x="27" y="58" width="196" height="137">
<path d="M211.713 109.339C221.447 93.1144 224.128 79.2883 219.049 70.259C214.958 63.0638 206.069 59.1135 193.513 59.1135C193.513 59.1135 193.513 59.1135 193.372 59.1135C155.562 59.1135 94.0498 92.6911 56.2397 134.028C36.9114 155.05 26.7534 175.224 28.3053 189.333C28.4464 190.885 29.2929 192.013 30.7038 192.719C36.0649 194.976 47.7748 190.885 58.2149 183.125L115.212 140.095C121.138 135.721 127.91 132.194 133.553 130.642L211.713 109.339ZM193.372 58.1259C193.513 58.1259 193.513 58.1259 193.513 58.1259C206.493 58.1259 215.663 62.0762 220.037 69.6947C225.257 79.1472 222.717 93.3966 212.559 110.044L212.418 110.185L133.835 131.771C128.333 133.323 121.702 136.709 115.918 141.082L58.9203 183.972C48.0569 192.154 36.0649 196.246 30.2805 193.706C28.4465 192.86 27.3178 191.449 27.1767 189.474C25.6248 175.083 35.9238 154.626 55.3932 133.182C93.3444 91.8446 155.28 58.1259 193.372 58.1259Z" fill="white"/>
</mask>
<g mask="url(#mask20_416_1930)">
<path d="M1461.99 371.047H-120.96V-1211.9H1461.99V371.047Z" fill="white"/>
</g>
</mask>
<g mask="url(#mask19_416_1930)">
<path d="M211.713 109.339C221.447 93.1144 224.128 79.2883 219.049 70.259C214.958 63.0638 206.069 59.1135 193.513 59.1135C193.513 59.1135 193.513 59.1135 193.372 59.1135C155.562 59.1135 94.0498 92.6911 56.2397 134.028C36.9114 155.05 26.7534 175.224 28.3053 189.333C28.4464 190.885 29.2929 192.013 30.7038 192.719C36.0649 194.976 47.7748 190.885 58.2149 183.125L115.212 140.095C121.138 135.721 127.91 132.194 133.553 130.642L211.713 109.339ZM193.372 58.1259C193.513 58.1259 193.513 58.1259 193.513 58.1259C206.493 58.1259 215.663 62.0762 220.037 69.6947C225.257 79.1472 222.717 93.3966 212.559 110.044L212.418 110.185L133.835 131.771C128.333 133.323 121.702 136.709 115.918 141.082L58.9203 183.972C48.0569 192.154 36.0649 196.246 30.2805 193.706C28.4465 192.86 27.3178 191.449 27.1767 189.474C25.6248 175.083 35.9238 154.626 55.3932 133.182C93.3444 91.8446 155.28 58.1259 193.372 58.1259Z" fill="white"/>
</g>
</mask>
<g mask="url(#mask18_416_1930)">
<path d="M1461.99 371.047H-120.96V-1211.9H1461.99V371.047Z" fill="url(#paint6_linear_416_1930)"/>
</g>
<mask id="mask21_416_1930" style="mask-type:luminance" maskUnits="userSpaceOnUse" x="22" y="58" width="205" height="134">
<mask id="mask22_416_1930" style="mask-type:luminance" maskUnits="userSpaceOnUse" x="22" y="58" width="205" height="134">
<mask id="mask23_416_1930" style="mask-type:luminance" maskUnits="userSpaceOnUse" x="22" y="58" width="205" height="134">
<path d="M212.841 115.688C224.41 98.6168 228.078 83.5209 223.14 73.2219C219.472 65.4623 211.148 60.8066 199.015 59.5369C161.346 56.0098 97.0123 86.4836 55.8162 127.539C34.7949 148.701 22.8028 169.581 23.085 184.959C23.2261 186.793 24.0726 188.204 25.6245 189.051C30.8446 191.731 42.8365 188.204 53.4178 181.009L114.083 139.954C120.432 135.721 127.345 132.618 133.129 131.489L212.841 115.688ZM192.807 58.2671C194.924 58.2671 197.04 58.2671 199.156 58.5493C211.712 59.678 220.318 64.6159 224.128 72.6576C229.207 83.3798 225.539 98.8989 213.688 116.534L213.546 116.675L133.412 132.477C127.768 133.605 120.855 136.709 114.648 140.942L54.1232 181.997C42.9776 189.474 30.7035 192.86 25.0602 190.038C23.085 188.91 22.0975 187.217 22.0975 184.959C21.6742 169.299 33.8073 147.996 55.1108 126.833C94.1906 87.7534 154.151 58.2671 192.807 58.2671Z" fill="white"/>
</mask>
<g mask="url(#mask23_416_1930)">
<path d="M1461.99 371.047H-120.96V-1211.9H1461.99V371.047Z" fill="white"/>
</g>
</mask>
<g mask="url(#mask22_416_1930)">
<path d="M212.841 115.688C224.41 98.6168 228.078 83.5209 223.14 73.2219C219.472 65.4623 211.148 60.8066 199.015 59.5369C161.346 56.0098 97.0123 86.4836 55.8162 127.539C34.7949 148.701 22.8028 169.581 23.085 184.959C23.2261 186.793 24.0726 188.204 25.6245 189.051C30.8446 191.731 42.8365 188.204 53.4178 181.009L114.083 139.954C120.432 135.721 127.345 132.618 133.129 131.489L212.841 115.688ZM192.807 58.2671C194.924 58.2671 197.04 58.2671 199.156 58.5493C211.712 59.678 220.318 64.6159 224.128 72.6576C229.207 83.3798 225.539 98.8989 213.688 116.534L213.546 116.675L133.412 132.477C127.768 133.605 120.855 136.709 114.648 140.942L54.1232 181.997C42.9776 189.474 30.7035 192.86 25.0602 190.038C23.085 188.91 22.0975 187.217 22.0975 184.959C21.6742 169.299 33.8073 147.996 55.1108 126.833C94.1906 87.7534 154.151 58.2671 192.807 58.2671Z" fill="white"/>
</g>
</mask>
<g mask="url(#mask21_416_1930)">
<path d="M1461.99 371.047H-120.96V-1211.9H1461.99V371.047Z" fill="url(#paint7_linear_416_1930)"/>
</g>
<mask id="mask24_416_1930" style="mask-type:luminance" maskUnits="userSpaceOnUse" x="17" y="58" width="213" height="130">
<mask id="mask25_416_1930" style="mask-type:luminance" maskUnits="userSpaceOnUse" x="17" y="57" width="214" height="131">
<mask id="mask26_416_1930" style="mask-type:luminance" maskUnits="userSpaceOnUse" x="17" y="57" width="214" height="131">
<g clip-path="url(#clip0_416_1930)">
<path d="M213.547 122.742C226.809 104.824 231.605 88.4588 227.091 76.749C223.987 68.5662 216.227 62.9229 204.659 60.5245C167.272 53.0471 100.681 79.9939 56.0987 120.626C33.2433 141.506 19.5583 162.95 18.4296 179.739C18.2885 181.856 19.1351 183.549 20.828 184.536C26.0481 187.64 37.899 185.1 49.0446 178.328L112.955 139.672C119.586 135.58 126.781 132.9 132.707 132.194L213.547 122.742ZM191.115 58.2672C195.912 58.2672 200.567 58.6904 204.8 59.5369C216.792 61.9353 224.833 67.7197 228.219 76.3258C232.875 88.4589 227.937 105.248 214.252 123.588L214.111 123.729L132.848 133.323C127.063 134.029 120.009 136.709 113.519 140.659L49.6089 179.316C37.8991 186.37 25.907 188.91 20.2637 185.524C18.1474 184.254 17.1599 182.279 17.301 179.598C18.4296 162.668 32.2558 140.8 55.2522 119.779C95.0375 83.662 152.317 58.2672 191.115 58.2672Z" fill="white"/>
</g>
</mask>
<g mask="url(#mask26_416_1930)">
<path d="M1461.99 371.047H-120.96V-1211.9H1461.99V371.047Z" fill="white"/>
</g>
</mask>
<g mask="url(#mask25_416_1930)">
<path d="M213.547 122.742C226.809 104.824 231.605 88.4588 227.091 76.749C223.987 68.5662 216.227 62.9229 204.659 60.5245C167.272 53.0471 100.681 79.9939 56.0987 120.626C33.2433 141.506 19.5583 162.95 18.4296 179.739C18.2885 181.856 19.1351 183.549 20.828 184.536C26.0481 187.64 37.899 185.1 49.0446 178.328L112.955 139.672C119.586 135.58 126.781 132.9 132.707 132.194L213.547 122.742ZM191.115 58.2672C195.912 58.2672 200.567 58.6904 204.8 59.5369C216.792 61.9353 224.833 67.7197 228.219 76.3258C232.875 88.4589 227.937 105.248 214.252 123.588L214.111 123.729L132.848 133.323C127.063 134.029 120.009 136.709 113.519 140.659L49.6089 179.316C37.8991 186.37 25.907 188.91 20.2637 185.524C18.1474 184.254 17.1599 182.279 17.301 179.598C18.4296 162.668 32.2558 140.8 55.2522 119.779C95.0375 83.662 152.317 58.2672 191.115 58.2672Z" fill="white"/>
</g>
</mask>
<g mask="url(#mask24_416_1930)">
<path d="M1461.99 371.047H-120.96V-1211.9H1461.99V371.047Z" fill="url(#paint8_linear_416_1930)"/>
</g>
<mask id="mask27_416_1930" style="mask-type:luminance" maskUnits="userSpaceOnUse" x="12" y="57" width="222" height="126">
<mask id="mask28_416_1930" style="mask-type:luminance" maskUnits="userSpaceOnUse" x="12" y="57" width="222" height="126">
<mask id="mask29_416_1930" style="mask-type:luminance" maskUnits="userSpaceOnUse" x="12" y="57" width="222" height="126">
<path d="M213.406 130.36C228.642 111.878 234.85 94.3841 230.9 81.1223C228.219 72.2341 221.024 65.7443 210.02 62.2173C173.479 50.5074 104.772 73.3628 56.8039 113.148C32.2555 133.464 16.7365 155.473 14.197 173.531C13.9148 176.071 14.6202 178.046 16.5953 179.316C21.6743 182.843 33.5253 181.15 44.6708 175.083L111.826 139.248C118.739 135.439 126.217 133.182 132.142 133.041L213.406 130.36ZM188.011 57.9848C196.335 57.9848 203.812 59.1135 210.302 61.0886C221.729 64.7568 229.207 71.5287 231.887 80.8402C235.979 94.3841 229.63 112.302 214.111 131.348L213.97 131.489L132.283 134.169C126.499 134.31 119.162 136.568 112.39 140.236L45.2351 176.071C33.5252 182.42 21.3921 184.113 15.8899 180.303C13.6326 178.752 12.645 176.353 13.0683 173.39C15.6077 155.05 31.2679 132.759 56.0985 112.302C95.8838 79.4294 149.777 57.9848 188.011 57.9848Z" fill="white"/>
</mask>
<g mask="url(#mask29_416_1930)">
<path d="M1461.99 371.047H-120.96V-1211.9H1461.99V371.047Z" fill="white"/>
</g>
</mask>
<g mask="url(#mask28_416_1930)">
<path d="M213.406 130.36C228.642 111.878 234.85 94.3841 230.9 81.1223C228.219 72.2341 221.024 65.7443 210.02 62.2173C173.479 50.5074 104.772 73.3628 56.8039 113.148C32.2555 133.464 16.7365 155.473 14.197 173.531C13.9148 176.071 14.6202 178.046 16.5953 179.316C21.6743 182.843 33.5253 181.15 44.6708 175.083L111.826 139.248C118.739 135.439 126.217 133.182 132.142 133.041L213.406 130.36ZM188.011 57.9848C196.335 57.9848 203.812 59.1135 210.302 61.0886C221.729 64.7568 229.207 71.5287 231.887 80.8402C235.979 94.3841 229.63 112.302 214.111 131.348L213.97 131.489L132.283 134.169C126.499 134.31 119.162 136.568 112.39 140.236L45.2351 176.071C33.5252 182.42 21.3921 184.113 15.8899 180.303C13.6326 178.752 12.645 176.353 13.0683 173.39C15.6077 155.05 31.2679 132.759 56.0985 112.302C95.8838 79.4294 149.777 57.9848 188.011 57.9848Z" fill="white"/>
</g>
</mask>
<g mask="url(#mask27_416_1930)">
<path d="M1461.99 371.047H-120.96V-1211.9H1461.99V371.047Z" fill="url(#paint9_linear_416_1930)"/>
</g>
<mask id="mask30_416_1930" style="mask-type:luminance" maskUnits="userSpaceOnUse" x="9" y="57" width="228" height="120">
<mask id="mask31_416_1930" style="mask-type:luminance" maskUnits="userSpaceOnUse" x="9" y="57" width="228" height="120">
<mask id="mask32_416_1930" style="mask-type:luminance" maskUnits="userSpaceOnUse" x="9" y="57" width="228" height="120">
<path d="M212.841 138.684C229.771 119.779 237.389 101.156 234.286 86.3424C232.31 76.7488 225.679 69.1303 215.239 64.4746C179.969 48.3912 109.568 66.5908 58.3555 105.106C31.9731 124.858 14.6199 147.149 10.5285 166.477C9.96414 169.44 10.6696 171.697 12.6447 173.39C17.7237 177.341 29.2925 176.494 40.7202 171.133L110.697 138.684C118.033 135.298 125.652 133.464 131.577 133.887L212.841 138.684ZM183.637 57.5615C195.911 57.5615 206.916 59.3956 215.804 63.3459C226.526 68.2838 233.298 76.1844 235.414 86.0602C238.518 101.297 230.758 120.343 213.405 139.672L213.264 139.813L131.577 135.016C125.793 134.593 118.316 136.286 111.261 139.672L41.2845 172.121C29.4336 177.623 17.4417 178.469 12.0805 174.237C9.68211 172.403 8.6945 169.581 9.39992 166.336C13.6324 146.726 31.1266 124.153 57.6501 104.26C96.4478 75.0558 146.25 57.5615 183.637 57.5615Z" fill="white"/>
</mask>
<g mask="url(#mask32_416_1930)">
<path d="M1461.99 371.047H-120.96V-1211.9H1461.99V371.047Z" fill="white"/>
</g>
</mask>
<g mask="url(#mask31_416_1930)">
<path d="M212.841 138.684C229.771 119.779 237.389 101.156 234.286 86.3424C232.31 76.7488 225.679 69.1303 215.239 64.4746C179.969 48.3912 109.568 66.5908 58.3555 105.106C31.9731 124.858 14.6199 147.149 10.5285 166.477C9.96414 169.44 10.6696 171.697 12.6447 173.39C17.7237 177.341 29.2925 176.494 40.7202 171.133L110.697 138.684C118.033 135.298 125.652 133.464 131.577 133.887L212.841 138.684ZM183.637 57.5615C195.911 57.5615 206.916 59.3956 215.804 63.3459C226.526 68.2838 233.298 76.1844 235.414 86.0602C238.518 101.297 230.758 120.343 213.405 139.672L213.264 139.813L131.577 135.016C125.793 134.593 118.316 136.286 111.261 139.672L41.2845 172.121C29.4336 177.623 17.4417 178.469 12.0805 174.237C9.68211 172.403 8.6945 169.581 9.39992 166.336C13.6324 146.726 31.1266 124.153 57.6501 104.26C96.4478 75.0558 146.25 57.5615 183.637 57.5615Z" fill="white"/>
</g>
</mask>
<g mask="url(#mask30_416_1930)">
<path d="M1461.99 371.047H-120.96V-1211.9H1461.99V371.047Z" fill="url(#paint10_linear_416_1930)"/>
</g>
<mask id="mask33_416_1930" style="mask-type:luminance" maskUnits="userSpaceOnUse" x="5" y="56" width="234" height="116">
<mask id="mask34_416_1930" style="mask-type:luminance" maskUnits="userSpaceOnUse" x="5" y="56" width="234" height="116">
<mask id="mask35_416_1930" style="mask-type:luminance" maskUnits="userSpaceOnUse" x="5" y="56" width="234" height="116">
<path d="M211.289 147.714C230.194 128.526 239.364 108.916 237.389 92.4092C236.119 82.1102 230.194 73.363 220.318 67.2965C186.599 46.6984 114.788 59.678 60.4714 96.5006C32.537 115.406 13.2087 137.979 7.42436 158.577C6.57787 161.822 7.28331 164.643 9.39955 166.619C14.4785 171.133 25.624 170.992 37.1927 166.478L109.709 137.838C117.328 134.875 124.946 133.746 130.872 134.734L211.289 147.714ZM177.852 56.4331C194.923 56.4331 209.878 59.678 220.882 66.45C231.04 72.6576 237.107 81.5458 238.377 92.2681C240.493 109.198 231.04 129.232 211.994 148.701L211.712 148.842L130.731 135.863C125.087 134.875 117.469 136.004 110.132 138.966L37.6161 167.465C25.6241 172.262 13.9142 172.262 8.69414 167.465C6.15465 165.208 5.30818 161.963 6.43684 158.154C12.2212 137.415 31.6905 114.559 59.766 95.6541C96.8707 70.5414 141.876 56.4331 177.852 56.4331Z" fill="white"/>
</mask>
<g mask="url(#mask35_416_1930)">
<path d="M1461.99 371.047H-120.961V-1211.9H1461.99V371.047Z" fill="white"/>
</g>
</mask>
<g mask="url(#mask34_416_1930)">
<path d="M211.289 147.714C230.194 128.526 239.364 108.916 237.389 92.4092C236.119 82.1102 230.194 73.363 220.318 67.2965C186.599 46.6984 114.788 59.678 60.4714 96.5006C32.537 115.406 13.2087 137.979 7.42436 158.577C6.57787 161.822 7.28331 164.643 9.39955 166.619C14.4785 171.133 25.624 170.992 37.1927 166.478L109.709 137.838C117.328 134.875 124.946 133.746 130.872 134.734L211.289 147.714ZM177.852 56.4331C194.923 56.4331 209.878 59.678 220.882 66.45C231.04 72.6576 237.107 81.5458 238.377 92.2681C240.493 109.198 231.04 129.232 211.994 148.701L211.712 148.842L130.731 135.863C125.087 134.875 117.469 136.004 110.132 138.966L37.6161 167.465C25.6241 172.262 13.9142 172.262 8.69414 167.465C6.15465 165.208 5.30818 161.963 6.43684 158.154C12.2212 137.415 31.6905 114.559 59.766 95.6541C96.8707 70.5414 141.876 56.4331 177.852 56.4331Z" fill="white"/>
</g>
</mask>
<g mask="url(#mask33_416_1930)">
<path d="M1461.99 371.047H-120.961V-1211.9H1461.99V371.047Z" fill="url(#paint11_linear_416_1930)"/>
</g>
<mask id="mask36_416_1930" style="mask-type:luminance" maskUnits="userSpaceOnUse" x="3" y="54" width="238" height="111">
<mask id="mask37_416_1930" style="mask-type:luminance" maskUnits="userSpaceOnUse" x="3" y="54" width="238" height="111">
<mask id="mask38_416_1930" style="mask-type:luminance" maskUnits="userSpaceOnUse" x="3" y="54" width="238" height="111">
<path d="M209.173 157.166C229.63 138.12 240.493 117.804 239.929 99.6045C239.506 88.3179 234.427 78.4421 225.115 70.9648C193.231 45.4288 120.714 52.7651 63.2937 87.4714C33.8074 105.248 12.6451 127.821 5.16769 149.548C3.89795 153.357 4.46222 156.602 6.86063 159C11.6574 163.938 22.5209 164.785 34.0896 161.117L108.722 136.991C116.623 134.452 124.382 134.029 130.167 135.581L209.173 157.166ZM170.516 54.5992C193.231 54.5992 212.841 59.6781 225.821 70.1183C235.273 77.7367 240.635 88.0358 240.917 99.6045C241.622 118.086 230.477 138.967 209.737 158.295L209.455 158.436L129.885 136.709C124.241 135.157 116.764 135.581 109.146 138.12L34.3717 162.104C22.3797 166.054 11.2342 165.067 6.01416 159.847C3.33359 157.025 2.62814 153.357 4.03897 149.266C11.6574 127.257 33.1021 104.401 62.7294 86.4838C97.1535 65.6036 137.08 54.5992 170.516 54.5992Z" fill="white"/>
</mask>
<g mask="url(#mask38_416_1930)">
<path d="M1461.99 371.047H-120.96V-1211.9H1461.99V371.047Z" fill="white"/>
</g>
</mask>
<g mask="url(#mask37_416_1930)">
<path d="M209.173 157.166C229.63 138.12 240.493 117.804 239.929 99.6045C239.506 88.3179 234.427 78.4421 225.115 70.9648C193.231 45.4288 120.714 52.7651 63.2937 87.4714C33.8074 105.248 12.6451 127.821 5.16769 149.548C3.89795 153.357 4.46222 156.602 6.86063 159C11.6574 163.938 22.5209 164.785 34.0896 161.117L108.722 136.991C116.623 134.452 124.382 134.029 130.167 135.581L209.173 157.166ZM170.516 54.5992C193.231 54.5992 212.841 59.6781 225.821 70.1183C235.273 77.7367 240.635 88.0358 240.917 99.6045C241.622 118.086 230.477 138.967 209.737 158.295L209.455 158.436L129.885 136.709C124.241 135.157 116.764 135.581 109.146 138.12L34.3717 162.104C22.3797 166.054 11.2342 165.067 6.01416 159.847C3.33359 157.025 2.62814 153.357 4.03897 149.266C11.6574 127.257 33.1021 104.401 62.7294 86.4838C97.1535 65.6036 137.08 54.5992 170.516 54.5992Z" fill="white"/>
</g>
</mask>
<g mask="url(#mask36_416_1930)">
<path d="M1461.99 371.047H-120.96V-1211.9H1461.99V371.047Z" fill="url(#paint12_linear_416_1930)"/>
</g>
<mask id="mask39_416_1930" style="mask-type:luminance" maskUnits="userSpaceOnUse" x="1" y="51" width="242" height="118">
<mask id="mask40_416_1930" style="mask-type:luminance" maskUnits="userSpaceOnUse" x="1" y="51" width="242" height="118">
<mask id="mask41_416_1930" style="mask-type:luminance" maskUnits="userSpaceOnUse" x="1" y="51" width="242" height="118">
<path d="M206.21 167.324C228.078 148.701 240.775 127.68 241.763 108.069C242.468 95.6541 238.236 84.3674 229.489 75.3382C200.003 44.5822 127.063 45.7108 66.9617 77.8776C36.0646 94.3843 12.9271 116.816 3.61562 139.672C1.78154 143.904 2.34573 147.714 4.88522 150.676C9.54094 156.037 19.9811 157.73 31.4088 154.909L107.876 136.004C115.917 134.029 123.677 134.17 129.461 136.427L206.21 167.324ZM162.192 51.9185C190.973 51.9185 215.804 59.3958 230.335 74.6327C239.223 83.8031 243.597 95.513 242.892 108.21C241.763 128.103 228.924 149.548 206.633 168.453L206.351 168.594L129.038 137.414C123.536 135.298 115.917 135.157 108.158 136.991L31.5499 156.037C19.6989 158.859 8.97665 157.166 4.03876 151.382C1.2171 148.137 0.652771 143.763 2.62793 139.249C12.0805 116.252 35.3591 93.3967 66.3973 76.8901C97.4355 60.2423 132.001 51.9185 162.192 51.9185Z" fill="white"/>
</mask>
<g mask="url(#mask41_416_1930)">
<path d="M1461.99 371.047H-120.96V-1211.9H1461.99V371.047Z" fill="white"/>
</g>
</mask>
<g mask="url(#mask40_416_1930)">
<path d="M206.21 167.324C228.078 148.701 240.775 127.68 241.763 108.069C242.468 95.6541 238.236 84.3674 229.489 75.3382C200.003 44.5822 127.063 45.7108 66.9617 77.8776C36.0646 94.3843 12.9271 116.816 3.61562 139.672C1.78154 143.904 2.34573 147.714 4.88522 150.676C9.54094 156.037 19.9811 157.73 31.4088 154.909L107.876 136.004C115.917 134.029 123.677 134.17 129.461 136.427L206.21 167.324ZM162.192 51.9185C190.973 51.9185 215.804 59.3958 230.335 74.6327C239.223 83.8031 243.597 95.513 242.892 108.21C241.763 128.103 228.924 149.548 206.633 168.453L206.351 168.594L129.038 137.414C123.536 135.298 115.917 135.157 108.158 136.991L31.5499 156.037C19.6989 158.859 8.97665 157.166 4.03876 151.382C1.2171 148.137 0.652771 143.763 2.62793 139.249C12.0805 116.252 35.3591 93.3967 66.3973 76.8901C97.4355 60.2423 132.001 51.9185 162.192 51.9185Z" fill="white"/>
</g>
</mask>
<g mask="url(#mask39_416_1930)">
<path d="M1461.99 371.047H-120.96V-1211.9H1461.99V371.047Z" fill="url(#paint13_linear_416_1930)"/>
</g>
<mask id="mask42_416_1930" style="mask-type:luminance" maskUnits="userSpaceOnUse" x="0" y="48" width="245" height="132">
<mask id="mask43_416_1930" style="mask-type:luminance" maskUnits="userSpaceOnUse" x="0" y="48" width="245" height="132">
<mask id="mask44_416_1930" style="mask-type:luminance" maskUnits="userSpaceOnUse" x="0" y="48" width="245" height="132">
<path d="M202.26 178.046C241.622 147.714 254.319 108.493 233.58 80.5583C220.742 63.2052 196.758 52.3418 166.002 49.9434C135.246 47.4039 101.668 53.8937 71.4762 67.8609C39.1683 82.8157 14.1967 104.966 2.91011 128.809C0.652786 133.464 0.934952 137.979 3.61552 141.506C7.98909 147.431 18.147 149.971 29.1514 147.996L107.17 134.734C115.212 133.323 123.112 134.311 128.474 137.274L202.26 178.046ZM153.304 48.2504C188.434 48.2504 219.049 58.9727 234.427 79.8529C255.589 108.493 242.75 148.278 202.683 179.034L202.401 179.316L128.05 138.261C122.689 135.298 115.212 134.452 107.311 135.863L29.4335 149.124C17.7237 151.1 7.5657 148.419 2.76889 142.211C-0.193832 138.261 -0.475967 133.323 1.92244 128.244C13.3501 104.26 38.4629 81.8281 70.9118 66.8733C97.9997 54.317 126.922 48.2504 153.304 48.2504Z" fill="white"/>
</mask>
<g mask="url(#mask44_416_1930)">
<path d="M1461.99 371.047H-120.961V-1211.9H1461.99V371.047Z" fill="white"/>
</g>
</mask>
<g mask="url(#mask43_416_1930)">
<path d="M202.26 178.046C241.622 147.714 254.319 108.493 233.58 80.5583C220.742 63.2052 196.758 52.3418 166.002 49.9434C135.246 47.4039 101.668 53.8937 71.4762 67.8609C39.1683 82.8157 14.1967 104.966 2.91011 128.809C0.652786 133.464 0.934952 137.979 3.61552 141.506C7.98909 147.431 18.147 149.971 29.1514 147.996L107.17 134.734C115.212 133.323 123.112 134.311 128.474 137.274L202.26 178.046ZM153.304 48.2504C188.434 48.2504 219.049 58.9727 234.427 79.8529C255.589 108.493 242.75 148.278 202.683 179.034L202.401 179.316L128.05 138.261C122.689 135.298 115.212 134.452 107.311 135.863L29.4335 149.124C17.7237 151.1 7.5657 148.419 2.76889 142.211C-0.193832 138.261 -0.475967 133.323 1.92244 128.244C13.3501 104.26 38.4629 81.8281 70.9118 66.8733C97.9997 54.317 126.922 48.2504 153.304 48.2504Z" fill="white"/>
</g>
</mask>
<g mask="url(#mask42_416_1930)">
<path d="M1461.99 371.047H-120.961V-1211.9H1461.99V371.047Z" fill="url(#paint14_linear_416_1930)"/>
</g>
<mask id="mask45_416_1930" style="mask-type:luminance" maskUnits="userSpaceOnUse" x="0" y="43" width="246" height="148">
<mask id="mask46_416_1930" style="mask-type:luminance" maskUnits="userSpaceOnUse" x="0" y="43" width="246" height="148">
<mask id="mask47_416_1930" style="mask-type:luminance" maskUnits="userSpaceOnUse" x="0" y="43" width="246" height="148">
<path d="M197.463 189.192C239.365 159.988 255.307 118.791 237.107 86.6247C225.962 66.5909 202.965 52.4827 172.491 46.9805C142.018 41.3372 108.017 45.1464 76.6964 57.4206C43.4009 70.5413 16.5952 92.1269 3.19238 116.957C0.370728 122.036 0.370728 127.256 3.19238 131.63C7.42485 137.979 16.7363 141.224 27.7408 140.377L106.465 133.323C114.648 132.618 122.407 134.311 127.627 138.12L197.463 189.192ZM144.416 43.3123C186.176 43.3123 222.576 58.4082 238.095 86.0603C256.718 118.933 240.493 160.834 197.745 190.32L197.463 190.603L126.922 138.966C121.984 135.439 114.507 133.746 106.606 134.452L27.7408 141.365C16.4542 142.493 6.71948 138.966 2.34592 132.194C-0.757904 127.539 -0.757874 121.895 2.20486 116.393C15.7488 91.4215 42.6955 69.5537 76.2731 56.2919C98.9874 47.5448 122.407 43.3123 144.416 43.3123Z" fill="white"/>
</mask>
<g mask="url(#mask47_416_1930)">
<path d="M1461.99 371.047H-120.96V-1211.9H1461.99V371.047Z" fill="white"/>
</g>
</mask>
<g mask="url(#mask46_416_1930)">
<path d="M197.463 189.192C239.365 159.988 255.307 118.791 237.107 86.6247C225.962 66.5909 202.965 52.4827 172.491 46.9805C142.018 41.3372 108.017 45.1464 76.6964 57.4206C43.4009 70.5413 16.5952 92.1269 3.19238 116.957C0.370728 122.036 0.370728 127.256 3.19238 131.63C7.42485 137.979 16.7363 141.224 27.7408 140.377L106.465 133.323C114.648 132.618 122.407 134.311 127.627 138.12L197.463 189.192ZM144.416 43.3123C186.176 43.3123 222.576 58.4082 238.095 86.0603C256.718 118.933 240.493 160.834 197.745 190.32L197.463 190.603L126.922 138.966C121.984 135.439 114.507 133.746 106.606 134.452L27.7408 141.365C16.4542 142.493 6.71948 138.966 2.34592 132.194C-0.757904 127.539 -0.757874 121.895 2.20486 116.393C15.7488 91.4215 42.6955 69.5537 76.2731 56.2919C98.9874 47.5448 122.407 43.3123 144.416 43.3123Z" fill="white"/>
</g>
</mask>
<g mask="url(#mask45_416_1930)">
<path d="M1461.99 371.047H-120.96V-1211.9H1461.99V371.047Z" fill="url(#paint15_linear_416_1930)"/>
</g>
<mask id="mask48_416_1930" style="mask-type:luminance" maskUnits="userSpaceOnUse" x="0" y="37" width="247" height="166">
<mask id="mask49_416_1930" style="mask-type:luminance" maskUnits="userSpaceOnUse" x="0" y="37" width="247" height="166">
<mask id="mask50_416_1930" style="mask-type:luminance" maskUnits="userSpaceOnUse" x="0" y="37" width="247" height="166">
<path d="M191.82 200.901C236.12 173.249 255.448 130.078 240.211 93.3965C230.759 70.6822 209.032 53.329 179.264 44.4408C149.354 35.5526 115.212 36.2581 82.9043 46.5571C48.6212 57.7026 19.9815 78.5828 4.46242 104.119C1.07643 109.762 0.794312 115.688 3.61595 120.767C7.56627 127.68 16.3133 131.912 26.7534 131.912H26.8945L105.901 131.771C105.901 131.771 105.901 131.771 106.042 131.771C114.225 131.771 121.702 134.31 126.64 138.966L191.82 200.901ZM135.81 37.1046C150.906 37.1046 165.72 39.2208 179.546 43.3122C209.738 52.3415 231.605 69.9768 241.199 92.9732C256.859 130.36 236.966 174.096 191.961 202.03L191.679 202.312L125.793 139.813C121.138 135.298 113.942 132.9 105.901 132.9L26.8945 133.041H26.7534C16.0312 133.041 6.71967 128.526 2.62828 121.331C-0.47554 115.829 -0.193405 109.48 3.47473 103.554C19.1349 77.7363 47.9158 56.715 82.6221 45.5695C100.116 39.9262 118.175 37.1046 135.81 37.1046Z" fill="white"/>
</mask>
<g mask="url(#mask50_416_1930)">
<path d="M1461.99 371.047H-120.96V-1211.9H1461.99V371.047Z" fill="white"/>
</g>
</mask>
<g mask="url(#mask49_416_1930)">
<path d="M191.82 200.901C236.12 173.249 255.448 130.078 240.211 93.3965C230.759 70.6822 209.032 53.329 179.264 44.4408C149.354 35.5526 115.212 36.2581 82.9043 46.5571C48.6212 57.7026 19.9815 78.5828 4.46242 104.119C1.07643 109.762 0.794312 115.688 3.61595 120.767C7.56627 127.68 16.3133 131.912 26.7534 131.912H26.8945L105.901 131.771C105.901 131.771 105.901 131.771 106.042 131.771C114.225 131.771 121.702 134.31 126.64 138.966L191.82 200.901ZM135.81 37.1046C150.906 37.1046 165.72 39.2208 179.546 43.3122C209.738 52.3415 231.605 69.9768 241.199 92.9732C256.859 130.36 236.966 174.096 191.961 202.03L191.679 202.312L125.793 139.813C121.138 135.298 113.942 132.9 105.901 132.9L26.8945 133.041H26.7534C16.0312 133.041 6.71967 128.526 2.62828 121.331C-0.47554 115.829 -0.193405 109.48 3.47473 103.554C19.1349 77.7363 47.9158 56.715 82.6221 45.5695C100.116 39.9262 118.175 37.1046 135.81 37.1046Z" fill="white"/>
</g>
</mask>
<g mask="url(#mask48_416_1930)">
<path d="M1461.99 371.047H-120.96V-1211.9H1461.99V371.047Z" fill="url(#paint16_linear_416_1930)"/>
</g>
<mask id="mask51_416_1930" style="mask-type:luminance" maskUnits="userSpaceOnUse" x="2" y="29" width="245" height="186">
<mask id="mask52_416_1930" style="mask-type:luminance" maskUnits="userSpaceOnUse" x="2" y="29" width="245" height="186">
<mask id="mask53_416_1930" style="mask-type:luminance" maskUnits="userSpaceOnUse" x="2" y="29" width="245" height="186">
<path d="M185.048 212.894C231.605 187.217 254.743 142.352 242.61 101.156C235.132 75.6202 215.098 54.74 186.177 42.1837C157.255 29.7684 123.113 27.37 90.0992 35.5528C54.8286 44.1588 24.4958 64.1926 6.8605 90.2928C2.76912 96.5005 2.0638 103.131 5.02654 109.198C8.41252 116.675 16.5953 121.613 26.7532 122.601L105.477 129.937C113.801 130.784 121.137 134.311 125.511 139.672L185.048 212.894ZM128.897 29.6273C149.072 29.6273 168.823 33.5776 186.6 41.1961C215.945 53.7524 236.12 74.9148 243.738 100.733C256.012 142.634 232.452 188.204 185.189 214.163L184.766 214.304L124.664 140.377C120.432 135.298 113.378 131.771 105.477 131.066L26.6121 123.729C16.172 122.742 7.70703 117.522 3.89781 109.762C0.935074 103.414 1.64049 96.0772 6.01405 89.7285C23.7905 63.3461 54.4054 43.1712 89.8171 34.4241C102.797 31.3203 115.917 29.6273 128.897 29.6273Z" fill="white"/>
</mask>
<g mask="url(#mask53_416_1930)">
<path d="M1461.99 371.047H-120.96V-1211.9H1461.99V371.047Z" fill="white"/>
</g>
</mask>
<g mask="url(#mask52_416_1930)">
<path d="M185.048 212.894C231.605 187.217 254.743 142.352 242.61 101.156C235.132 75.6202 215.098 54.74 186.177 42.1837C157.255 29.7684 123.113 27.37 90.0992 35.5528C54.8286 44.1588 24.4958 64.1926 6.8605 90.2928C2.76912 96.5005 2.0638 103.131 5.02654 109.198C8.41252 116.675 16.5953 121.613 26.7532 122.601L105.477 129.937C113.801 130.784 121.137 134.311 125.511 139.672L185.048 212.894ZM128.897 29.6273C149.072 29.6273 168.823 33.5776 186.6 41.1961C215.945 53.7524 236.12 74.9148 243.738 100.733C256.012 142.634 232.452 188.204 185.189 214.163L184.766 214.304L124.664 140.377C120.432 135.298 113.378 131.771 105.477 131.066L26.6121 123.729C16.172 122.742 7.70703 117.522 3.89781 109.762C0.935074 103.414 1.64049 96.0772 6.01405 89.7285C23.7905 63.3461 54.4054 43.1712 89.8171 34.4241C102.797 31.3203 115.917 29.6273 128.897 29.6273Z" fill="white"/>
</g>
</mask>
<g mask="url(#mask51_416_1930)">
<path d="M1461.99 371.047H-120.96V-1211.9H1461.99V371.047Z" fill="url(#paint17_linear_416_1930)"/>
</g>
<mask id="mask54_416_1930" style="mask-type:luminance" maskUnits="userSpaceOnUse" x="4" y="21" width="243" height="206">
<mask id="mask55_416_1930" style="mask-type:luminance" maskUnits="userSpaceOnUse" x="4" y="21" width="243" height="206">
<mask id="mask56_416_1930" style="mask-type:luminance" maskUnits="userSpaceOnUse" x="4" y="21" width="243" height="206">
<path d="M177.288 225.309C225.821 201.889 252.767 155.473 244.444 109.621C239.224 81.4047 221.024 56.8563 193.231 40.6318C165.578 24.2663 131.719 18.4819 98.1409 24.2662C62.306 30.3328 30.4213 48.9557 10.5286 75.6203C5.73181 82.1101 4.46217 89.8697 7.28381 96.7827C10.2466 104.824 17.865 110.75 27.4586 112.584L105.336 128.103C113.519 129.655 120.432 134.17 124.382 140.518L177.288 225.309ZM123.254 21.0213C148.507 21.0213 172.915 27.3701 193.795 39.6443C221.87 56.0098 240.211 80.8404 245.431 109.48C254.037 155.896 226.667 203.018 177.288 226.579L176.865 226.861L123.395 141.083C119.586 135.016 112.955 130.643 105.054 129.091L27.3175 113.713C17.3006 111.737 9.39999 105.53 6.15509 97.2059C3.33344 89.8696 4.60318 81.6868 9.68216 75.056C29.7159 48.1092 61.8828 29.2041 97.9999 23.1376C106.465 21.7267 114.93 21.0213 123.254 21.0213Z" fill="white"/>
</mask>
<g mask="url(#mask56_416_1930)">
<path d="M1461.99 371.047H-120.96V-1211.9H1461.99V371.047Z" fill="white"/>
</g>
</mask>
<g mask="url(#mask55_416_1930)">
<path d="M177.288 225.309C225.821 201.889 252.767 155.473 244.444 109.621C239.224 81.4047 221.024 56.8563 193.231 40.6318C165.578 24.2663 131.719 18.4819 98.1409 24.2662C62.306 30.3328 30.4213 48.9557 10.5286 75.6203C5.73181 82.1101 4.46217 89.8697 7.28381 96.7827C10.2466 104.824 17.865 110.75 27.4586 112.584L105.336 128.103C113.519 129.655 120.432 134.17 124.382 140.518L177.288 225.309ZM123.254 21.0213C148.507 21.0213 172.915 27.3701 193.795 39.6443C221.87 56.0098 240.211 80.8404 245.431 109.48C254.037 155.896 226.667 203.018 177.288 226.579L176.865 226.861L123.395 141.083C119.586 135.016 112.955 130.643 105.054 129.091L27.3175 113.713C17.3006 111.737 9.39999 105.53 6.15509 97.2059C3.33344 89.8696 4.60318 81.6868 9.68216 75.056C29.7159 48.1092 61.8828 29.2041 97.9999 23.1376C106.465 21.7267 114.93 21.0213 123.254 21.0213Z" fill="white"/>
</g>
</mask>
<g mask="url(#mask54_416_1930)">
<path d="M1461.99 371.047H-120.96V-1211.9H1461.99V371.047Z" fill="url(#paint18_linear_416_1930)"/>
</g>
<mask id="mask57_416_1930" style="mask-type:luminance" maskUnits="userSpaceOnUse" x="8" y="11" width="239" height="229">
<mask id="mask58_416_1930" style="mask-type:luminance" maskUnits="userSpaceOnUse" x="8" y="11" width="239" height="229">
<mask id="mask59_416_1930" style="mask-type:luminance" maskUnits="userSpaceOnUse" x="8" y="11" width="239" height="229">
<path d="M168.4 238.148C218.907 217.267 249.805 169.581 245.431 119.215C242.609 87.8946 226.667 59.6781 200.567 39.5032C174.325 19.1873 141.171 9.73482 107.17 12.6976C70.9119 15.8014 37.4753 33.1545 15.3253 60.1013C9.8231 66.8733 7.98903 75.4793 10.3874 83.521C13.068 92.127 19.9811 98.899 29.1515 101.862L105.195 125.846C113.237 128.385 119.726 134.029 123.112 141.224L168.4 238.148ZM119.303 11.0046C149.213 11.0046 177.852 20.5982 201.131 38.5157C227.655 58.9726 243.738 87.6124 246.56 119.074C250.933 170.146 219.613 218.537 168.4 239.276L167.836 239.558L167.695 238.994L122.125 141.647C118.88 134.734 112.672 129.373 104.913 126.974L28.7282 102.849C19.2756 99.8866 12.0805 92.8324 9.39992 83.8032C6.86043 75.3382 8.69447 66.45 14.4789 59.3959C36.7699 32.167 70.4886 14.8138 107.029 11.5689C111.12 11.2867 115.353 11.0046 119.303 11.0046Z" fill="white"/>
</mask>
<g mask="url(#mask59_416_1930)">
<path d="M1461.99 371.047H-120.96V-1211.9H1461.99V371.047Z" fill="white"/>
</g>
</mask>
<g mask="url(#mask58_416_1930)">
<path d="M168.4 238.148C218.907 217.267 249.805 169.581 245.431 119.215C242.609 87.8946 226.667 59.6781 200.567 39.5032C174.325 19.1873 141.171 9.73482 107.17 12.6976C70.9119 15.8014 37.4753 33.1545 15.3253 60.1013C9.8231 66.8733 7.98903 75.4793 10.3874 83.521C13.068 92.127 19.9811 98.899 29.1515 101.862L105.195 125.846C113.237 128.385 119.726 134.029 123.112 141.224L168.4 238.148ZM119.303 11.0046C149.213 11.0046 177.852 20.5982 201.131 38.5157C227.655 58.9726 243.738 87.6124 246.56 119.074C250.933 170.146 219.613 218.537 168.4 239.276L167.836 239.558L167.695 238.994L122.125 141.647C118.88 134.734 112.672 129.373 104.913 126.974L28.7282 102.849C19.2756 99.8866 12.0805 92.8324 9.39992 83.8032C6.86043 75.3382 8.69447 66.45 14.4789 59.3959C36.7699 32.167 70.4886 14.8138 107.029 11.5689C111.12 11.2867 115.353 11.0046 119.303 11.0046Z" fill="white"/>
</g>
</mask>
<g mask="url(#mask57_416_1930)">
<path d="M1461.99 371.047H-120.96V-1211.9H1461.99V371.047Z" fill="url(#paint19_linear_416_1930)"/>
</g>
<mask id="mask60_416_1930" style="mask-type:luminance" maskUnits="userSpaceOnUse" x="12" y="0" width="235" height="253">
<mask id="mask61_416_1930" style="mask-type:luminance" maskUnits="userSpaceOnUse" x="12" y="0" width="235" height="253">
<mask id="mask62_416_1930" style="mask-type:luminance" maskUnits="userSpaceOnUse" x="12" y="0" width="235" height="253">
<path d="M158.525 251.127C210.584 233.351 245.573 184.536 245.573 129.514C245.573 95.5129 232.17 63.205 207.762 38.9388C183.355 14.5315 151.188 1.12863 117.187 1.12863C80.7881 1.12863 45.9406 16.6477 21.6744 43.7356C15.3257 50.7897 12.7862 60.1012 14.7614 69.4126C16.7365 78.7241 22.8031 86.3425 31.5502 90.2929L105.336 123.588C113.096 127.115 119.163 133.746 121.843 141.788L158.525 251.127ZM117.187 0C151.47 0 183.919 13.5439 208.609 38.0923C233.157 62.6407 246.701 95.0897 246.701 129.514C246.701 185.241 211.148 234.62 158.383 252.397L157.819 252.538L120.856 142.211C118.175 134.452 112.391 127.962 104.913 124.576L31.127 91.2804C22.0977 87.189 15.749 79.2884 13.6328 69.5537C11.6576 59.9601 14.1971 50.2254 20.828 43.0302C45.3763 15.6602 80.5059 0 117.187 0Z" fill="white"/>
</mask>
<g mask="url(#mask62_416_1930)">
<path d="M1461.99 371.047H-120.96V-1211.9H1461.99V371.047Z" fill="white"/>
</g>
</mask>
<g mask="url(#mask61_416_1930)">
<path d="M158.525 251.127C210.584 233.351 245.573 184.536 245.573 129.514C245.573 95.5129 232.17 63.205 207.762 38.9388C183.355 14.5315 151.188 1.12863 117.187 1.12863C80.7881 1.12863 45.9406 16.6477 21.6744 43.7356C15.3257 50.7897 12.7862 60.1012 14.7614 69.4126C16.7365 78.7241 22.8031 86.3425 31.5502 90.2929L105.336 123.588C113.096 127.115 119.163 133.746 121.843 141.788L158.525 251.127ZM117.187 0C151.47 0 183.919 13.5439 208.609 38.0923C233.157 62.6407 246.701 95.0897 246.701 129.514C246.701 185.241 211.148 234.62 158.383 252.397L157.819 252.538L120.856 142.211C118.175 134.452 112.391 127.962 104.913 124.576L31.127 91.2804C22.0977 87.189 15.749 79.2884 13.6328 69.5537C11.6576 59.9601 14.1971 50.2254 20.828 43.0302C45.3763 15.6602 80.5059 0 117.187 0Z" fill="white"/>
</g>
</mask>
<g mask="url(#mask60_416_1930)">
<path d="M1461.99 371.047H-120.96V-1211.9H1461.99V371.047Z" fill="url(#paint20_linear_416_1930)"/>
</g>
</g>
<defs>
<linearGradient id="paint0_linear_416_1930" x1="197.929" y1="130.593" x2="58.528" y2="130.593" gradientUnits="userSpaceOnUse">
<stop stop-color="#3DDEED"/>
<stop offset="1" stop-color="#CB00DD"/>
</linearGradient>
<linearGradient id="paint1_linear_416_1930" x1="202.163" y1="130.347" x2="53.295" y2="130.347" gradientUnits="userSpaceOnUse">
<stop stop-color="#3DDEED"/>
<stop offset="1" stop-color="#CB00DD"/>
</linearGradient>
<linearGradient id="paint2_linear_416_1930" x1="206.406" y1="129.919" x2="47.9959" y2="129.919" gradientUnits="userSpaceOnUse">
<stop stop-color="#3DDEED"/>
<stop offset="1" stop-color="#CB00DD"/>
</linearGradient>
<linearGradient id="paint3_linear_416_1930" x1="210.625" y1="129.346" x2="42.6744" y2="129.346" gradientUnits="userSpaceOnUse">
<stop stop-color="#3DDEED"/>
<stop offset="1" stop-color="#CB00DD"/>
</linearGradient>
<linearGradient id="paint4_linear_416_1930" x1="214.778" y1="128.563" x2="37.3754" y2="128.563" gradientUnits="userSpaceOnUse">
<stop stop-color="#3DDEED"/>
<stop offset="1" stop-color="#CB00DD"/>
</linearGradient>
<linearGradient id="paint5_linear_416_1930" x1="218.758" y1="127.539" x2="32.1383" y2="127.539" gradientUnits="userSpaceOnUse">
<stop stop-color="#3DDEED"/>
<stop offset="1" stop-color="#CB00DD"/>
</linearGradient>
<linearGradient id="paint6_linear_416_1930" x1="222.663" y1="126.245" x2="27.0128" y2="126.245" gradientUnits="userSpaceOnUse">
<stop stop-color="#3DDEED"/>
<stop offset="1" stop-color="#CB00DD"/>
</linearGradient>
<linearGradient id="paint7_linear_416_1930" x1="226.385" y1="124.614" x2="22.041" y2="124.614" gradientUnits="userSpaceOnUse">
<stop stop-color="#3DDEED"/>
<stop offset="1" stop-color="#CB00DD"/>
</linearGradient>
<linearGradient id="paint8_linear_416_1930" x1="229.888" y1="122.625" x2="17.3204" y2="122.625" gradientUnits="userSpaceOnUse">
<stop stop-color="#3DDEED"/>
<stop offset="1" stop-color="#CB00DD"/>
</linearGradient>
<linearGradient id="paint9_linear_416_1930" x1="233.133" y1="120.178" x2="13.0174" y2="120.178" gradientUnits="userSpaceOnUse">
<stop stop-color="#3DDEED"/>
<stop offset="1" stop-color="#CB00DD"/>
</linearGradient>
<linearGradient id="paint10_linear_416_1930" x1="236.087" y1="117.228" x2="9.20812" y2="117.228" gradientUnits="userSpaceOnUse">
<stop stop-color="#3DDEED"/>
<stop offset="1" stop-color="#CB00DD"/>
</linearGradient>
<linearGradient id="paint11_linear_416_1930" x1="238.718" y1="113.731" x2="5.95714" y2="113.731" gradientUnits="userSpaceOnUse">
<stop stop-color="#3DDEED"/>
<stop offset="1" stop-color="#CB00DD"/>
</linearGradient>
<linearGradient id="paint12_linear_416_1930" x1="241.006" y1="109.574" x2="3.33817" y2="109.574" gradientUnits="userSpaceOnUse">
<stop stop-color="#3DDEED"/>
<stop offset="1" stop-color="#CB00DD"/>
</linearGradient>
<linearGradient id="paint13_linear_416_1930" x1="242.931" y1="110.271" x2="1.44016" y2="110.271" gradientUnits="userSpaceOnUse">
<stop stop-color="#3DDEED"/>
<stop offset="1" stop-color="#CB00DD"/>
</linearGradient>
<linearGradient id="paint14_linear_416_1930" x1="244.549" y1="113.755" x2="0.289838" y2="113.755" gradientUnits="userSpaceOnUse">
<stop stop-color="#3DDEED"/>
<stop offset="1" stop-color="#CB00DD"/>
</linearGradient>
<linearGradient id="paint15_linear_416_1930" x1="245.705" y1="116.904" x2="-0.0228677" y2="116.904" gradientUnits="userSpaceOnUse">
<stop stop-color="#3DDEED"/>
<stop offset="1" stop-color="#CB00DD"/>
</linearGradient>
<linearGradient id="paint16_linear_416_1930" x1="246.484" y1="119.689" x2="0.557377" y2="119.689" gradientUnits="userSpaceOnUse">
<stop stop-color="#3DDEED"/>
<stop offset="1" stop-color="#CB00DD"/>
</linearGradient>
<linearGradient id="paint17_linear_416_1930" x1="246.915" y1="122.012" x2="2.13568" y2="122.012" gradientUnits="userSpaceOnUse">
<stop stop-color="#3DDEED"/>
<stop offset="1" stop-color="#CB00DD"/>
</linearGradient>
<linearGradient id="paint18_linear_416_1930" x1="247.041" y1="123.889" x2="4.68792" y2="123.889" gradientUnits="userSpaceOnUse">
<stop stop-color="#3DDEED"/>
<stop offset="1" stop-color="#CB00DD"/>
</linearGradient>
<linearGradient id="paint19_linear_416_1930" x1="246.932" y1="125.302" x2="8.29669" y2="125.302" gradientUnits="userSpaceOnUse">
<stop stop-color="#3DDEED"/>
<stop offset="1" stop-color="#CB00DD"/>
</linearGradient>
<linearGradient id="paint20_linear_416_1930" x1="246.692" y1="126.243" x2="13.0005" y2="126.243" gradientUnits="userSpaceOnUse">
<stop stop-color="#3DDEED"/>
<stop offset="1" stop-color="#CB00DD"/>
</linearGradient>
<clipPath id="clip0_416_1930">
<rect width="213.035" height="129.796" fill="white" transform="matrix(-1 0 0 -1 230.335 187.64)"/>
</clipPath>
</defs>
</svg>
