<svg width="457" height="427" viewBox="0 0 457 427" fill="none" xmlns="http://www.w3.org/2000/svg">
<g opacity="0.7">
<mask id="mask0_2009_4" style="mask-type:luminance" maskUnits="userSpaceOnUse" x="114" y="11" width="313" height="405">
<mask id="mask1_2009_4" style="mask-type:luminance" maskUnits="userSpaceOnUse" x="114" y="11" width="313" height="405">
<mask id="mask2_2009_4" style="mask-type:luminance" maskUnits="userSpaceOnUse" x="114" y="11" width="313" height="405">
<path d="M127.934 12.2392C129.842 12.2392 131.477 12.5124 133.658 13.3318L399.405 99.9181C409.763 103.469 418.485 114.668 418.757 125.32L426.116 400.102C426.116 405.292 424.481 409.389 421.21 411.847C417.939 414.306 413.306 414.852 408.127 413.213L142.38 326.354C132.023 323.076 123.301 311.604 123.028 300.951L115.669 26.1695C115.396 21.253 117.304 17.1558 120.575 14.6975C122.483 13.0587 125.209 12.2392 127.934 12.2392ZM413.851 415.125C416.849 415.125 419.575 414.306 421.755 412.667C425.299 409.935 427.207 405.565 426.934 400.102L419.575 125.32C419.302 114.395 410.308 102.65 399.678 99.0987L133.931 12.2392C128.479 10.6004 123.573 11.1467 120.03 13.8781C116.487 16.6095 114.579 20.9798 114.579 26.1695L122.21 300.951C122.483 311.877 131.205 323.895 142.107 327.173L407.855 414.032C410.035 414.852 411.943 415.125 413.851 415.125Z" fill="white"/>
</mask>
<g mask="url(#mask2_2009_4)">
<path d="M2164.78 -260.902H-893.354V2803.76H2164.78V-260.902Z" fill="white"/>
</g>
</mask>
<g mask="url(#mask1_2009_4)">
<path d="M127.934 12.2392C129.842 12.2392 131.477 12.5124 133.658 13.3318L399.405 99.9181C409.763 103.469 418.485 114.668 418.757 125.32L426.116 400.102C426.116 405.292 424.481 409.389 421.21 411.847C417.939 414.306 413.306 414.852 408.127 413.213L142.38 326.354C132.023 323.076 123.301 311.604 123.028 300.951L115.669 26.1695C115.396 21.253 117.304 17.1558 120.575 14.6975C122.483 13.0587 125.209 12.2392 127.934 12.2392ZM413.851 415.125C416.849 415.125 419.575 414.306 421.755 412.667C425.299 409.935 427.207 405.565 426.934 400.102L419.575 125.32C419.302 114.395 410.308 102.65 399.678 99.0987L133.931 12.2392C128.479 10.6004 123.573 11.1467 120.03 13.8781C116.487 16.6095 114.579 20.9798 114.579 26.1695L122.21 300.951C122.483 311.877 131.205 323.895 142.107 327.173L407.855 414.032C410.035 414.852 411.943 415.125 413.851 415.125Z" fill="white"/>
</g>
</mask>
<g mask="url(#mask0_2009_4)">
<path d="M2164.78 -260.902H-893.354V2803.76H2164.78V-260.902Z" fill="url(#paint0_linear_2009_4)"/>
</g>
<mask id="mask3_2009_4" style="mask-type:luminance" maskUnits="userSpaceOnUse" x="98" y="18" width="345" height="390">
<mask id="mask4_2009_4" style="mask-type:luminance" maskUnits="userSpaceOnUse" x="98" y="18" width="345" height="390">
<mask id="mask5_2009_4" style="mask-type:luminance" maskUnits="userSpaceOnUse" x="98" y="18" width="345" height="390">
<path d="M112.398 19.6145C113.761 19.6145 115.124 19.8876 116.759 20.1608L389.048 85.4419C399.678 87.9002 409.218 98.8259 410.58 109.752L441.652 391.362C442.47 396.552 440.835 400.922 437.837 403.653C434.566 406.658 430.205 407.477 425.026 406.112L152.737 341.104C142.107 338.372 132.568 327.446 131.205 316.521L99.8604 35.1836C99.3153 29.9939 100.678 25.3505 103.949 22.6191C106.129 20.7071 109.127 19.6145 112.398 19.6145ZM429.387 407.75C432.93 407.75 435.928 406.658 438.382 404.473C441.925 401.468 443.288 396.825 442.743 391.089L411.398 109.752C410.308 98.2796 400.223 87.0808 389.32 84.3494L116.759 19.3413C111.58 17.9756 106.674 18.7951 103.404 21.7996C99.8603 24.8042 98.4974 29.7208 99.0426 35.1836L130.387 316.794C131.477 327.993 141.562 339.465 152.465 341.923L424.753 407.204C426.389 407.477 428.024 407.75 429.387 407.75Z" fill="white"/>
</mask>
<g mask="url(#mask5_2009_4)">
<path d="M2164.79 -260.902H-893.353V2803.76H2164.79V-260.902Z" fill="white"/>
</g>
</mask>
<g mask="url(#mask4_2009_4)">
<path d="M112.398 19.6145C113.761 19.6145 115.124 19.8876 116.759 20.1608L389.048 85.4419C399.678 87.9002 409.218 98.8259 410.58 109.752L441.652 391.362C442.47 396.552 440.835 400.922 437.837 403.653C434.566 406.658 430.205 407.477 425.026 406.112L152.737 341.104C142.107 338.372 132.568 327.446 131.205 316.521L99.8604 35.1836C99.3153 29.9939 100.678 25.3505 103.949 22.6191C106.129 20.7071 109.127 19.6145 112.398 19.6145ZM429.387 407.75C432.93 407.75 435.928 406.658 438.382 404.473C441.925 401.468 443.288 396.825 442.743 391.089L411.398 109.752C410.308 98.2796 400.223 87.0808 389.32 84.3494L116.759 19.3413C111.58 17.9756 106.674 18.7951 103.404 21.7996C99.8603 24.8042 98.4974 29.7208 99.0426 35.1836L130.387 316.794C131.477 327.993 141.562 339.465 152.465 341.923L424.753 407.204C426.389 407.477 428.024 407.75 429.387 407.75Z" fill="white"/>
</g>
</mask>
<g mask="url(#mask3_2009_4)">
<path d="M2164.79 -260.902H-893.353V2803.76H2164.79V-260.902Z" fill="url(#paint1_linear_2009_4)"/>
</g>
<mask id="mask6_2009_4" style="mask-type:luminance" maskUnits="userSpaceOnUse" x="83" y="27" width="375" height="372">
<mask id="mask7_2009_4" style="mask-type:luminance" maskUnits="userSpaceOnUse" x="83" y="27" width="375" height="372">
<mask id="mask8_2009_4" style="mask-type:luminance" maskUnits="userSpaceOnUse" x="83" y="27" width="375" height="372">
<path d="M97.6799 28.6299C98.4976 28.6299 99.5879 28.6299 100.406 28.903L377.601 71.2401C388.23 72.879 398.86 83.2585 401.041 94.4573L456.643 380.711C457.734 386.174 456.643 390.817 453.645 394.095C450.647 397.1 446.286 398.192 441.38 397.646L164.185 355.036C153.555 353.397 142.925 343.017 140.745 332.092L85.1422 45.8379C84.0519 40.375 85.1421 35.4584 88.1403 32.4539C90.5934 29.9956 93.8641 28.6299 97.6799 28.6299ZM444.106 398.738C448.194 398.738 451.737 397.373 454.19 394.641C457.461 391.364 458.551 386.174 457.461 380.438L401.859 94.1842C399.678 82.7122 388.776 72.0596 377.601 70.4207L100.678 27.8104C95.227 26.991 90.5935 28.3567 87.5953 31.6344C84.3246 35.1853 82.9616 40.1019 84.0519 45.8379L139.927 332.092C142.107 343.564 153.01 354.489 164.185 356.128L441.107 398.465C442.198 398.738 443.015 398.738 444.106 398.738Z" fill="white"/>
</mask>
<g mask="url(#mask8_2009_4)">
<path d="M2164.78 -260.902H-893.354V2803.76H2164.78V-260.902Z" fill="white"/>
</g>
</mask>
<g mask="url(#mask7_2009_4)">
<path d="M97.6799 28.6299C98.4976 28.6299 99.5879 28.6299 100.406 28.903L377.601 71.2401C388.23 72.879 398.86 83.2585 401.041 94.4573L456.643 380.711C457.734 386.174 456.643 390.817 453.645 394.095C450.647 397.1 446.286 398.192 441.38 397.646L164.185 355.036C153.555 353.397 142.925 343.017 140.745 332.092L85.1422 45.8379C84.0519 40.375 85.1421 35.4584 88.1403 32.4539C90.5934 29.9956 93.8641 28.6299 97.6799 28.6299ZM444.106 398.738C448.194 398.738 451.737 397.373 454.19 394.641C457.461 391.364 458.551 386.174 457.461 380.438L401.859 94.1842C399.678 82.7122 388.776 72.0596 377.601 70.4207L100.678 27.8104C95.227 26.991 90.5935 28.3567 87.5953 31.6344C84.3246 35.1853 82.9616 40.1019 84.0519 45.8379L139.927 332.092C142.107 343.564 153.01 354.489 164.185 356.128L441.107 398.465C442.198 398.738 443.015 398.738 444.106 398.738Z" fill="white"/>
</g>
</mask>
<g mask="url(#mask6_2009_4)">
<path d="M2164.78 -260.902H-893.354V2803.76H2164.78V-260.902Z" fill="url(#paint2_linear_2009_4)"/>
</g>
<mask id="mask9_2009_4" style="mask-type:luminance" maskUnits="userSpaceOnUse" x="69" y="38" width="404" height="351">
<mask id="mask10_2009_4" style="mask-type:luminance" maskUnits="userSpaceOnUse" x="69" y="38" width="404" height="351">
<mask id="mask11_2009_4" style="mask-type:luminance" maskUnits="userSpaceOnUse" x="69" y="38" width="404" height="351">
<path d="M83.7794 39.283C84.3245 39.283 84.597 39.283 85.1422 39.283L364.79 57.8567C375.692 58.403 387.14 68.2361 390.138 79.435L470.544 368.42C471.907 373.883 471.362 379.073 468.363 382.624C465.91 385.901 461.549 387.54 456.643 387.267L176.995 368.693C166.093 367.874 154.645 358.041 151.647 346.842L71.2416 57.8567C69.8788 52.3938 70.4239 47.2041 73.4221 43.6533C75.8751 40.6487 79.4184 39.283 83.7794 39.283ZM458.006 388.36C462.64 388.36 466.456 386.448 469.181 383.443C472.179 379.619 472.997 374.156 471.362 368.147L390.956 79.1618C387.958 67.6898 375.965 57.5836 364.79 56.7641L85.1422 38.1904C79.9635 37.9173 75.33 39.5561 72.6044 43.107C69.6062 46.931 68.7884 52.3938 70.4238 58.1298L150.557 347.115C153.828 358.86 165.548 368.966 176.995 369.513L456.643 388.086C456.916 388.086 457.461 388.36 458.006 388.36Z" fill="white"/>
</mask>
<g mask="url(#mask11_2009_4)">
<path d="M2164.78 -260.901H-893.354V2803.76H2164.78V-260.901Z" fill="white"/>
</g>
</mask>
<g mask="url(#mask10_2009_4)">
<path d="M83.7794 39.283C84.3245 39.283 84.597 39.283 85.1422 39.283L364.79 57.8567C375.692 58.403 387.14 68.2361 390.138 79.435L470.544 368.42C471.907 373.883 471.362 379.073 468.363 382.624C465.91 385.901 461.549 387.54 456.643 387.267L176.995 368.693C166.093 367.874 154.645 358.041 151.647 346.842L71.2416 57.8567C69.8788 52.3938 70.4239 47.2041 73.4221 43.6533C75.8751 40.6487 79.4184 39.283 83.7794 39.283ZM458.006 388.36C462.64 388.36 466.456 386.448 469.181 383.443C472.179 379.619 472.997 374.156 471.362 368.147L390.956 79.1618C387.958 67.6898 375.965 57.5836 364.79 56.7641L85.1422 38.1904C79.9635 37.9173 75.33 39.5561 72.6044 43.107C69.6062 46.931 68.7884 52.3938 70.4238 58.1298L150.557 347.115C153.828 358.86 165.548 368.966 176.995 369.513L456.643 388.086C456.916 388.086 457.461 388.36 458.006 388.36Z" fill="white"/>
</g>
</mask>
<g mask="url(#mask9_2009_4)">
<path d="M2164.78 -260.901H-893.354V2803.76H2164.78V-260.901Z" fill="url(#paint3_linear_2009_4)"/>
</g>
<mask id="mask12_2009_4" style="mask-type:luminance" maskUnits="userSpaceOnUse" x="56" y="44" width="430" height="339">
<mask id="mask13_2009_4" style="mask-type:luminance" maskUnits="userSpaceOnUse" x="56" y="44" width="430" height="339">
<mask id="mask14_2009_4" style="mask-type:luminance" maskUnits="userSpaceOnUse" x="56" y="44" width="430" height="339">
<path d="M351.434 45.0177C362.064 45.0177 374.057 54.0314 378.145 65.2303L483.082 354.762C485.262 360.225 484.99 365.687 482.264 369.785C479.811 373.062 475.995 374.974 471.089 375.247L190.896 381.257C179.993 381.53 167.728 372.516 163.64 361.317L58.4311 71.7857C56.5231 66.0497 56.7956 60.5868 59.5212 56.7628C61.7017 53.212 65.7902 51.3 70.6963 51.3L350.889 45.0177C351.162 45.0177 351.162 45.0177 351.434 45.0177ZM190.351 382.349C190.623 382.349 190.623 382.349 190.896 382.349L471.089 376.067C476.267 376.067 480.629 373.882 483.082 370.331C485.807 366.234 486.352 360.225 484.172 354.215L378.963 64.684C374.875 53.212 362.61 44.1982 351.434 44.1982C351.162 44.1982 351.162 44.1982 350.889 44.1982L70.6963 50.2074C65.5177 50.2074 61.1566 52.3925 58.7036 56.2165C55.7054 60.3137 55.4329 66.0497 57.6134 72.0588L162.822 361.59C166.91 373.062 179.176 382.349 190.351 382.349Z" fill="white"/>
</mask>
<g mask="url(#mask14_2009_4)">
<path d="M2164.79 -260.902H-893.353V2803.76H2164.79V-260.902Z" fill="white"/>
</g>
</mask>
<g mask="url(#mask13_2009_4)">
<path d="M351.434 45.0177C362.064 45.0177 374.057 54.0314 378.145 65.2303L483.082 354.762C485.262 360.225 484.99 365.687 482.264 369.785C479.811 373.062 475.995 374.974 471.089 375.247L190.896 381.257C179.993 381.53 167.728 372.516 163.64 361.317L58.4311 71.7857C56.5231 66.0497 56.7956 60.5868 59.5212 56.7628C61.7017 53.212 65.7902 51.3 70.6963 51.3L350.889 45.0177C351.162 45.0177 351.162 45.0177 351.434 45.0177ZM190.351 382.349C190.623 382.349 190.623 382.349 190.896 382.349L471.089 376.067C476.267 376.067 480.629 373.882 483.082 370.331C485.807 366.234 486.352 360.225 484.172 354.215L378.963 64.684C374.875 53.212 362.61 44.1982 351.434 44.1982C351.162 44.1982 351.162 44.1982 350.889 44.1982L70.6963 50.2074C65.5177 50.2074 61.1566 52.3925 58.7036 56.2165C55.7054 60.3137 55.4329 66.0497 57.6134 72.0588L162.822 361.59C166.91 373.062 179.176 382.349 190.351 382.349Z" fill="white"/>
</g>
</mask>
<g mask="url(#mask12_2009_4)">
<path d="M2164.79 -260.902H-893.353V2803.76H2164.79V-260.902Z" fill="url(#paint4_linear_2009_4)"/>
</g>
<mask id="mask15_2009_4" style="mask-type:luminance" maskUnits="userSpaceOnUse" x="44" y="32" width="454" height="363">
<mask id="mask16_2009_4" style="mask-type:luminance" maskUnits="userSpaceOnUse" x="44" y="32" width="454" height="363">
<mask id="mask17_2009_4" style="mask-type:luminance" maskUnits="userSpaceOnUse" x="44" y="32" width="454" height="363">
<path d="M338.079 33.2722C348.437 33.2722 360.157 40.9202 364.79 51.5727L494.53 339.465C497.255 345.201 497.255 350.937 495.075 355.034C492.894 358.585 489.078 361.044 484.445 361.59L205.887 393.001C194.985 394.094 182.174 386.173 176.996 374.974L46.9838 87.0813C44.5308 81.3453 44.2583 75.6093 46.7113 71.239C48.8918 67.6882 52.7076 65.503 57.3411 64.9567L335.899 33.2722C336.717 33.2722 337.534 33.2722 338.079 33.2722ZM203.707 394.094C204.252 394.094 205.069 394.094 205.887 394.094L484.445 362.409C489.624 361.863 493.712 359.405 495.892 355.581C498.345 350.937 498.345 344.928 495.62 338.919L365.608 51.0264C360.429 39.5544 347.074 31.087 335.899 32.4527L57.3411 63.8642C52.1624 64.4105 48.074 66.8687 45.8935 70.6927C43.4404 75.3362 43.4405 81.3453 46.1662 87.3544L176.178 375.247C180.812 386.173 192.804 394.094 203.707 394.094Z" fill="white"/>
</mask>
<g mask="url(#mask17_2009_4)">
<path d="M2164.79 -260.902H-893.353V2803.76H2164.79V-260.902Z" fill="white"/>
</g>
</mask>
<g mask="url(#mask16_2009_4)">
<path d="M338.079 33.2722C348.437 33.2722 360.157 40.9202 364.79 51.5727L494.53 339.465C497.255 345.201 497.255 350.937 495.075 355.034C492.894 358.585 489.078 361.044 484.445 361.59L205.887 393.001C194.985 394.094 182.174 386.173 176.996 374.974L46.9838 87.0813C44.5308 81.3453 44.2583 75.6093 46.7113 71.239C48.8918 67.6882 52.7076 65.503 57.3411 64.9567L335.899 33.2722C336.717 33.2722 337.534 33.2722 338.079 33.2722ZM203.707 394.094C204.252 394.094 205.069 394.094 205.887 394.094L484.445 362.409C489.624 361.863 493.712 359.405 495.892 355.581C498.345 350.937 498.345 344.928 495.62 338.919L365.608 51.0264C360.429 39.5544 347.074 31.087 335.899 32.4527L57.3411 63.8642C52.1624 64.4105 48.074 66.8687 45.8935 70.6927C43.4404 75.3362 43.4405 81.3453 46.1662 87.3544L176.178 375.247C180.812 386.173 192.804 394.094 203.707 394.094Z" fill="white"/>
</g>
</mask>
<g mask="url(#mask15_2009_4)">
<path d="M2164.79 -260.902H-893.353V2803.76H2164.79V-260.902Z" fill="url(#paint5_linear_2009_4)"/>
</g>
<mask id="mask18_2009_4" style="mask-type:luminance" maskUnits="userSpaceOnUse" x="33" y="21" width="476" height="385">
<mask id="mask19_2009_4" style="mask-type:luminance" maskUnits="userSpaceOnUse" x="33" y="21" width="476" height="385">
<mask id="mask20_2009_4" style="mask-type:luminance" maskUnits="userSpaceOnUse" x="33" y="21" width="476" height="385">
<path d="M324.178 22.3461C333.99 22.3461 345.165 28.9016 350.344 38.7347L504.886 322.53C507.885 328.266 508.43 334.275 506.249 338.919C504.614 342.743 501.071 345.474 496.437 346.294L221.695 403.654C211.065 405.839 197.437 398.737 191.441 387.811L36.8985 103.743C33.9003 98.0067 33.3552 91.9976 35.2632 87.3542C37.1711 83.8033 40.7144 81.0719 45.348 79.9793L320.09 22.6193C321.453 22.3462 322.815 22.3461 324.178 22.3461ZM217.607 405.292C218.969 405.292 220.605 405.019 221.968 404.746L496.709 347.386C501.616 346.294 505.432 343.562 507.339 339.465C509.52 334.548 508.975 328.266 505.704 321.984L351.162 38.1884C344.893 26.7164 330.992 19.3416 319.817 21.5267L45.0753 79.1599C40.1692 79.9793 36.3534 82.9839 34.4455 87.081C32.265 91.9976 32.8101 98.2799 36.0808 104.289L190.623 388.358C196.074 398.191 207.522 405.292 217.607 405.292Z" fill="white"/>
</mask>
<g mask="url(#mask20_2009_4)">
<path d="M2164.79 -260.902H-893.353V2803.76H2164.79V-260.902Z" fill="white"/>
</g>
</mask>
<g mask="url(#mask19_2009_4)">
<path d="M324.178 22.3461C333.99 22.3461 345.165 28.9016 350.344 38.7347L504.886 322.53C507.885 328.266 508.43 334.275 506.249 338.919C504.614 342.743 501.071 345.474 496.437 346.294L221.695 403.654C211.065 405.839 197.437 398.737 191.441 387.811L36.8985 103.743C33.9003 98.0067 33.3552 91.9976 35.2632 87.3542C37.1711 83.8033 40.7144 81.0719 45.348 79.9793L320.09 22.6193C321.453 22.3462 322.815 22.3461 324.178 22.3461ZM217.607 405.292C218.969 405.292 220.605 405.019 221.968 404.746L496.709 347.386C501.616 346.294 505.432 343.562 507.339 339.465C509.52 334.548 508.975 328.266 505.704 321.984L351.162 38.1884C344.893 26.7164 330.992 19.3416 319.817 21.5267L45.0753 79.1599C40.1692 79.9793 36.3534 82.9839 34.4455 87.081C32.265 91.9976 32.8101 98.2799 36.0808 104.289L190.623 388.358C196.074 398.191 207.522 405.292 217.607 405.292Z" fill="white"/>
</g>
</mask>
<g mask="url(#mask18_2009_4)">
<path d="M2164.79 -260.902H-893.353V2803.76H2164.79V-260.902Z" fill="url(#paint6_linear_2009_4)"/>
</g>
<mask id="mask21_2009_4" style="mask-type:luminance" maskUnits="userSpaceOnUse" x="23" y="11" width="496" height="405">
<mask id="mask22_2009_4" style="mask-type:luminance" maskUnits="userSpaceOnUse" x="23" y="11" width="496" height="405">
<mask id="mask23_2009_4" style="mask-type:luminance" maskUnits="userSpaceOnUse" x="23" y="11" width="496" height="405">
<path d="M309.187 12.2396C318.727 12.2396 329.084 17.9756 334.808 26.7162L513.336 304.502C517.152 310.238 518.242 316.248 516.334 321.164C514.971 325.261 511.7 328.266 507.339 329.632L238.321 413.213C227.964 416.491 213.791 410.482 206.977 399.556L28.4491 122.043C24.6332 116.307 23.5429 110.025 25.4508 105.108C26.8136 101.011 30.0845 98.2796 34.4455 96.9139L303.463 13.059C305.099 12.5128 307.279 12.2396 309.187 12.2396ZM232.597 415.125C234.505 415.125 236.686 414.852 238.594 414.306L507.612 330.724C512.245 329.085 515.789 325.808 517.424 321.71C519.332 316.248 518.242 309.965 514.153 303.956L335.626 26.1699C328.539 14.971 313.821 8.68875 302.918 11.9665L34.1728 95.8213C29.5393 97.187 25.996 100.465 24.3607 104.835C22.4527 110.025 23.5429 116.58 27.3588 122.589L206.159 400.102C211.883 409.389 222.785 415.125 232.597 415.125Z" fill="white"/>
</mask>
<g mask="url(#mask23_2009_4)">
<path d="M2164.78 -260.902H-893.354V2803.76H2164.78V-260.902Z" fill="white"/>
</g>
</mask>
<g mask="url(#mask22_2009_4)">
<path d="M309.187 12.2396C318.727 12.2396 329.084 17.9756 334.808 26.7162L513.336 304.502C517.152 310.238 518.242 316.248 516.334 321.164C514.971 325.261 511.7 328.266 507.339 329.632L238.321 413.213C227.964 416.491 213.791 410.482 206.977 399.556L28.4491 122.043C24.6332 116.307 23.5429 110.025 25.4508 105.108C26.8136 101.011 30.0845 98.2796 34.4455 96.9139L303.463 13.059C305.099 12.5128 307.279 12.2396 309.187 12.2396ZM232.597 415.125C234.505 415.125 236.686 414.852 238.594 414.306L507.612 330.724C512.245 329.085 515.789 325.808 517.424 321.71C519.332 316.248 518.242 309.965 514.153 303.956L335.626 26.1699C328.539 14.971 313.821 8.68875 302.918 11.9665L34.1728 95.8213C29.5393 97.187 25.996 100.465 24.3607 104.835C22.4527 110.025 23.5429 116.58 27.3588 122.589L206.159 400.102C211.883 409.389 222.785 415.125 232.597 415.125Z" fill="white"/>
</g>
</mask>
<g mask="url(#mask21_2009_4)">
<path d="M2164.78 -260.902H-893.354V2803.76H2164.78V-260.902Z" fill="url(#paint7_linear_2009_4)"/>
</g>
<mask id="mask24_2009_4" style="mask-type:luminance" maskUnits="userSpaceOnUse" x="15" y="2" width="512" height="423">
<mask id="mask25_2009_4" style="mask-type:luminance" maskUnits="userSpaceOnUse" x="15" y="2" width="512" height="423">
<mask id="mask26_2009_4" style="mask-type:luminance" maskUnits="userSpaceOnUse" x="15" y="2" width="512" height="423">
<path d="M293.651 3.22669C302.646 3.22669 312.458 8.14327 318.454 16.0644L520.422 285.11C524.511 290.573 526.146 296.855 524.783 302.318C523.693 306.415 520.695 309.693 516.334 311.605L256.038 421.682C245.953 426.052 231.235 420.862 223.331 410.483L21.3626 141.164C17.2742 135.701 15.6389 129.419 17.0017 124.229C18.0919 119.859 21.09 116.581 25.451 114.942L285.747 4.86556C288.2 3.77299 290.926 3.22669 293.651 3.22669ZM248.134 424.14C250.859 424.14 253.857 423.594 256.31 422.774L516.879 312.424C521.513 310.512 524.511 306.962 525.874 302.591C527.237 296.855 525.601 290.3 521.24 284.564L319.272 15.245C311.095 4.59241 295.832 -0.597302 285.475 3.77298L24.906 113.85C20.2725 115.762 17.2742 119.312 15.9114 123.956C14.5485 129.419 16.1839 135.974 20.5449 141.983L222.513 411.029C228.782 419.223 238.867 424.14 248.134 424.14Z" fill="white"/>
</mask>
<g mask="url(#mask26_2009_4)">
<path d="M2164.79 -260.902H-893.353V2803.76H2164.79V-260.902Z" fill="white"/>
</g>
</mask>
<g mask="url(#mask25_2009_4)">
<path d="M293.651 3.22669C302.646 3.22669 312.458 8.14327 318.454 16.0644L520.422 285.11C524.511 290.573 526.146 296.855 524.783 302.318C523.693 306.415 520.695 309.693 516.334 311.605L256.038 421.682C245.953 426.052 231.235 420.862 223.331 410.483L21.3626 141.164C17.2742 135.701 15.6389 129.419 17.0017 124.229C18.0919 119.859 21.09 116.581 25.451 114.942L285.747 4.86556C288.2 3.77299 290.926 3.22669 293.651 3.22669ZM248.134 424.14C250.859 424.14 253.857 423.594 256.31 422.774L516.879 312.424C521.513 310.512 524.511 306.962 525.874 302.591C527.237 296.855 525.601 290.3 521.24 284.564L319.272 15.245C311.095 4.59241 295.832 -0.597302 285.475 3.77298L24.906 113.85C20.2725 115.762 17.2742 119.312 15.9114 123.956C14.5485 129.419 16.1839 135.974 20.5449 141.983L222.513 411.029C228.782 419.223 238.867 424.14 248.134 424.14Z" fill="white"/>
</g>
</mask>
<g mask="url(#mask24_2009_4)">
<path d="M2164.79 -260.902H-893.353V2803.76H2164.79V-260.902Z" fill="url(#paint8_linear_2009_4)"/>
</g>
<mask id="mask27_2009_4" style="mask-type:luminance" maskUnits="userSpaceOnUse" x="8" y="-6" width="525" height="439">
<mask id="mask28_2009_4" style="mask-type:luminance" maskUnits="userSpaceOnUse" x="8" y="-6" width="525" height="439">
<mask id="mask29_2009_4" style="mask-type:luminance" maskUnits="userSpaceOnUse" x="8" y="-6" width="525" height="439">
<path d="M277.571 -4.69424C285.748 -4.69424 295.015 -0.597098 301.011 6.23147L525.602 264.625C530.508 269.814 532.416 276.37 531.598 281.833C530.78 286.203 528.055 289.754 523.966 291.939L274.027 428.51C264.488 433.973 249.497 430.149 240.775 420.043L16.1845 161.923C11.2784 156.46 9.37042 150.178 10.1881 144.442C11.0058 140.071 13.7314 136.521 17.8198 134.335L267.759 -2.23597C270.484 -3.87483 274.027 -4.69424 277.571 -4.69424ZM264.215 432.061C268.031 432.061 271.574 431.242 274.573 429.603L524.511 293.031C528.872 290.573 531.598 286.749 532.688 282.106C533.506 276.097 531.325 269.541 526.419 263.805L301.829 5.68518C292.834 -4.69425 277.298 -8.79138 267.213 -3.32853L17.2746 133.516C12.9137 135.701 9.91548 139.525 9.09779 144.442C8.00755 150.178 10.4607 157.006 15.3668 162.469L239.957 420.862C246.226 427.964 255.493 432.061 264.215 432.061Z" fill="white"/>
</mask>
<g mask="url(#mask29_2009_4)">
<path d="M2164.79 -260.902H-893.353V2803.76H2164.79V-260.902Z" fill="white"/>
</g>
</mask>
<g mask="url(#mask28_2009_4)">
<path d="M277.571 -4.69424C285.748 -4.69424 295.015 -0.597098 301.011 6.23147L525.602 264.625C530.508 269.814 532.416 276.37 531.598 281.833C530.78 286.203 528.055 289.754 523.966 291.939L274.027 428.51C264.488 433.973 249.497 430.149 240.775 420.043L16.1845 161.923C11.2784 156.46 9.37042 150.178 10.1881 144.442C11.0058 140.071 13.7314 136.521 17.8198 134.335L267.759 -2.23597C270.484 -3.87483 274.027 -4.69424 277.571 -4.69424ZM264.215 432.061C268.031 432.061 271.574 431.242 274.573 429.603L524.511 293.031C528.872 290.573 531.598 286.749 532.688 282.106C533.506 276.097 531.325 269.541 526.419 263.805L301.829 5.68518C292.834 -4.69425 277.298 -8.79138 267.213 -3.32853L17.2746 133.516C12.9137 135.701 9.91548 139.525 9.09779 144.442C8.00755 150.178 10.4607 157.006 15.3668 162.469L239.957 420.862C246.226 427.964 255.493 432.061 264.215 432.061Z" fill="white"/>
</g>
</mask>
<g mask="url(#mask27_2009_4)">
<path d="M2164.79 -260.902H-893.353V2803.76H2164.79V-260.902Z" fill="url(#paint9_linear_2009_4)"/>
</g>
<mask id="mask30_2009_4" style="mask-type:luminance" maskUnits="userSpaceOnUse" x="4" y="-13" width="534" height="452">
<mask id="mask31_2009_4" style="mask-type:luminance" maskUnits="userSpaceOnUse" x="3" y="-13" width="538" height="455">
<mask id="mask32_2009_4" style="mask-type:luminance" maskUnits="userSpaceOnUse" x="3" y="-13" width="538" height="455">
<g clip-path="url(#clip0_2009_4)">
<path d="M260.944 -11.2504C268.576 -11.2504 276.753 -7.97268 283.021 -1.96354L529.145 243.046C534.323 248.235 537.049 254.518 536.504 260.254C535.958 264.897 533.778 268.721 529.962 271.452L292.834 434.246C283.567 440.528 268.303 437.796 258.764 428.236L12.6407 183.5C7.46204 178.311 4.73639 172.028 5.28149 166.019C5.8266 161.649 8.00702 157.552 11.8229 155.094L248.951 -7.69955C252.222 -10.1578 256.583 -11.2504 260.944 -11.2504ZM280.841 438.616C285.475 438.616 289.836 437.523 293.379 435.065L530.507 272.272C534.596 269.54 537.049 265.17 537.594 260.527C538.139 254.244 535.413 247.689 529.962 242.226L283.567 -2.78297C273.754 -12.6161 257.946 -15.3475 248.406 -8.79211L11.2779 154.001C7.18945 157.006 4.73633 161.103 4.19116 166.019C3.64606 172.302 6.37164 178.857 11.8229 184.047L257.946 429.056C264.215 435.338 272.937 438.616 280.841 438.616Z" fill="white"/>
</g>
</mask>
<g mask="url(#mask32_2009_4)">
<path d="M2164.78 -260.902H-893.354V2803.76H2164.78V-260.902Z" fill="white"/>
</g>
</mask>
<g mask="url(#mask31_2009_4)">
<path d="M260.945 -11.2499C268.576 -11.2499 276.753 -7.97219 283.022 -1.96305L529.145 243.046C534.324 248.236 537.049 254.518 536.504 260.254C535.959 264.898 533.779 268.721 529.963 271.453L292.834 434.246C283.567 440.528 268.304 437.797 258.764 428.237L12.6412 183.501C7.46252 178.311 4.73687 172.029 5.28199 166.02C5.82711 161.65 8.0075 157.552 11.8234 155.094L248.952 -7.69906C252.223 -10.1573 256.584 -11.2499 260.945 -11.2499ZM280.842 438.616C285.475 438.616 289.836 437.524 293.379 435.066L530.508 272.272C534.596 269.541 537.049 265.171 537.594 260.527C538.14 254.245 535.414 247.69 529.963 242.227L283.567 -2.78248C273.755 -12.6156 257.946 -15.347 248.407 -8.79162L11.2784 154.002C7.18995 157.006 4.7368 161.103 4.19168 166.02C3.64656 172.302 6.37214 178.857 11.8234 184.047L257.946 429.056C264.215 435.339 272.937 438.616 280.842 438.616Z" fill="white"/>
</g>
</mask>
<g mask="url(#mask30_2009_4)">
<path d="M2164.78 -260.902H-893.354V2803.76H2164.78V-260.902Z" fill="url(#paint10_linear_2009_4)"/>
</g>
<mask id="mask33_2009_4" style="mask-type:luminance" maskUnits="userSpaceOnUse" x="1" y="-18" width="540" height="463">
<mask id="mask34_2009_4" style="mask-type:luminance" maskUnits="userSpaceOnUse" x="1" y="-18" width="540" height="463">
<mask id="mask35_2009_4" style="mask-type:luminance" maskUnits="userSpaceOnUse" x="1" y="-18" width="540" height="463">
<path d="M243.773 -16.4411C250.86 -16.4411 258.219 -13.9828 264.215 -8.79307L530.78 220.647C536.232 225.29 539.502 231.573 539.502 237.582C539.502 242.225 537.594 246.595 534.051 249.6L311.914 438.069C303.464 445.443 287.928 444.078 277.571 435.337L11.0058 205.897C5.28201 200.981 2.2838 194.698 2.2838 188.689C2.2838 184.046 4.19173 179.675 7.73503 176.671L229.873 -11.7977C233.416 -15.0754 238.595 -16.4411 243.773 -16.4411ZM297.74 444.078C303.464 444.078 308.643 442.439 312.731 439.161L534.596 250.419C538.412 247.142 540.593 242.771 540.593 237.582C540.593 231.299 537.322 224.744 531.598 219.554L264.761 -9.61251C254.131 -18.8994 238.049 -20.2651 229.055 -12.6171L6.91737 175.851C3.10151 179.129 1.19365 183.773 1.19365 188.689C1.19365 195.245 4.46436 201.8 10.1881 206.717L277.026 436.157C283.022 441.346 290.654 444.078 297.74 444.078Z" fill="white"/>
</mask>
<g mask="url(#mask35_2009_4)">
<path d="M2164.79 -260.902H-893.353V2803.76H2164.79V-260.902Z" fill="white"/>
</g>
</mask>
<g mask="url(#mask34_2009_4)">
<path d="M243.773 -16.4411C250.86 -16.4411 258.219 -13.9828 264.215 -8.79307L530.78 220.647C536.232 225.29 539.502 231.573 539.502 237.582C539.502 242.225 537.594 246.595 534.051 249.6L311.914 438.069C303.464 445.443 287.928 444.078 277.571 435.337L11.0058 205.897C5.28201 200.981 2.2838 194.698 2.2838 188.689C2.2838 184.046 4.19173 179.675 7.73503 176.671L229.873 -11.7977C233.416 -15.0754 238.595 -16.4411 243.773 -16.4411ZM297.74 444.078C303.464 444.078 308.643 442.439 312.731 439.161L534.596 250.419C538.412 247.142 540.593 242.771 540.593 237.582C540.593 231.299 537.322 224.744 531.598 219.554L264.761 -9.61251C254.131 -18.8994 238.049 -20.2651 229.055 -12.6171L6.91737 175.851C3.10151 179.129 1.19365 183.773 1.19365 188.689C1.19365 195.245 4.46436 201.8 10.1881 206.717L277.026 436.157C283.022 441.346 290.654 444.078 297.74 444.078Z" fill="white"/>
</g>
</mask>
<g mask="url(#mask33_2009_4)">
<path d="M2164.79 -260.902H-893.353V2803.76H2164.79V-260.902Z" fill="url(#paint11_linear_2009_4)"/>
</g>
<mask id="mask36_2009_4" style="mask-type:luminance" maskUnits="userSpaceOnUse" x="0" y="-22" width="542" height="470">
<mask id="mask37_2009_4" style="mask-type:luminance" maskUnits="userSpaceOnUse" x="0" y="-22" width="542" height="470">
<mask id="mask38_2009_4" style="mask-type:luminance" maskUnits="userSpaceOnUse" x="0" y="-22" width="542" height="470">
<path d="M226.601 -20.2632C232.598 -20.2632 239.412 -18.3512 244.863 -14.254L530.507 197.432C536.504 201.802 540.047 207.811 540.592 214.093C541.137 219.01 539.502 223.38 536.231 226.931L331.265 440.529C323.36 448.723 308.097 448.996 296.922 440.802L11.2778 229.116C5.28141 224.746 1.73808 218.464 1.19295 212.181C0.647832 207.538 2.28313 202.895 5.55387 199.344L210.52 -14.254C214.336 -18.3512 220.332 -20.2632 226.601 -20.2632ZM315.184 447.904C321.725 447.904 327.994 445.719 332.082 441.348L537.049 227.751C540.592 223.927 542.227 219.283 541.682 214.093C541.137 207.538 537.321 200.983 531.052 196.339L245.408 -15.0734C233.96 -23.814 217.879 -23.5409 209.702 -15.0734L4.73622 198.797C1.19292 202.348 -0.44248 207.265 0.102643 212.455C0.647765 219.01 4.46369 225.292 10.7326 229.936L296.377 441.621C301.828 445.719 308.915 447.904 315.184 447.904Z" fill="white"/>
</mask>
<g mask="url(#mask38_2009_4)">
<path d="M2164.79 -260.902H-893.353V2803.76H2164.79V-260.902Z" fill="white"/>
</g>
</mask>
<g mask="url(#mask37_2009_4)">
<path d="M226.601 -20.2632C232.598 -20.2632 239.412 -18.3512 244.863 -14.254L530.507 197.432C536.504 201.802 540.047 207.811 540.592 214.093C541.137 219.01 539.502 223.38 536.231 226.931L331.265 440.529C323.36 448.723 308.097 448.996 296.922 440.802L11.2778 229.116C5.28141 224.746 1.73808 218.464 1.19295 212.181C0.647832 207.538 2.28313 202.895 5.55387 199.344L210.52 -14.254C214.336 -18.3512 220.332 -20.2632 226.601 -20.2632ZM315.184 447.904C321.725 447.904 327.994 445.719 332.082 441.348L537.049 227.751C540.592 223.927 542.227 219.283 541.682 214.093C541.137 207.538 537.321 200.983 531.052 196.339L245.408 -15.0734C233.96 -23.814 217.879 -23.5409 209.702 -15.0734L4.73622 198.797C1.19292 202.348 -0.44248 207.265 0.102643 212.455C0.647765 219.01 4.46369 225.292 10.7326 229.936L296.377 441.621C301.828 445.719 308.915 447.904 315.184 447.904Z" fill="white"/>
</g>
</mask>
<g mask="url(#mask36_2009_4)">
<path d="M2164.79 -260.902H-893.353V2803.76H2164.79V-260.902Z" fill="url(#paint12_linear_2009_4)"/>
</g>
<mask id="mask39_2009_4" style="mask-type:luminance" maskUnits="userSpaceOnUse" x="0" y="-24" width="542" height="475">
<mask id="mask40_2009_4" style="mask-type:luminance" maskUnits="userSpaceOnUse" x="0" y="-24" width="542" height="475">
<mask id="mask41_2009_4" style="mask-type:luminance" maskUnits="userSpaceOnUse" x="0" y="-24" width="542" height="475">
<path d="M208.884 -22.7228C214.336 -22.7228 220.06 -21.357 225.238 -18.0793L528.054 173.394C534.323 177.491 538.684 183.5 539.774 189.782C540.592 194.699 539.229 199.616 536.231 203.44L350.889 441.347C343.802 450.361 328.266 452 316.546 444.352L13.7305 252.878C7.46156 248.781 3.10061 243.045 2.01037 236.763C1.19268 231.846 2.2829 226.93 5.55363 222.833L190.895 -14.8016C194.984 -20.2645 201.798 -22.7228 208.884 -22.7228ZM332.9 450.361C340.532 450.361 347.346 447.629 351.707 441.893L537.321 204.259C540.319 199.889 541.682 194.699 540.864 189.509C539.501 182.954 535.14 176.672 528.599 172.574L225.783 -19.1719C213.518 -26.8199 197.437 -25.181 190.078 -15.621L4.46349 222.286C1.19275 226.383 0.102372 231.573 0.920056 236.763C2.0103 243.591 6.64384 249.601 13.1853 253.971L316.001 445.444C321.18 448.722 327.176 450.361 332.9 450.361Z" fill="white"/>
</mask>
<g mask="url(#mask41_2009_4)">
<path d="M2164.78 -260.902H-893.354V2803.76H2164.78V-260.902Z" fill="white"/>
</g>
</mask>
<g mask="url(#mask40_2009_4)">
<path d="M208.884 -22.7228C214.336 -22.7228 220.06 -21.357 225.238 -18.0793L528.054 173.394C534.323 177.491 538.684 183.5 539.774 189.782C540.592 194.699 539.229 199.616 536.231 203.44L350.889 441.347C343.802 450.361 328.266 452 316.546 444.352L13.7305 252.878C7.46156 248.781 3.10061 243.045 2.01037 236.763C1.19268 231.846 2.2829 226.93 5.55363 222.833L190.895 -14.8016C194.984 -20.2645 201.798 -22.7228 208.884 -22.7228ZM332.9 450.361C340.532 450.361 347.346 447.629 351.707 441.893L537.321 204.259C540.319 199.889 541.682 194.699 540.864 189.509C539.501 182.954 535.14 176.672 528.599 172.574L225.783 -19.1719C213.518 -26.8199 197.437 -25.181 190.078 -15.621L4.46349 222.286C1.19275 226.383 0.102372 231.573 0.920056 236.763C2.0103 243.591 6.64384 249.601 13.1853 253.971L316.001 445.444C321.18 448.722 327.176 450.361 332.9 450.361Z" fill="white"/>
</g>
</mask>
<g mask="url(#mask39_2009_4)">
<path d="M2164.78 -260.902H-893.354V2803.76H2164.78V-260.902Z" fill="url(#paint13_linear_2009_4)"/>
</g>
<mask id="mask42_2009_4" style="mask-type:luminance" maskUnits="userSpaceOnUse" x="3" y="-26" width="536" height="478">
<mask id="mask43_2009_4" style="mask-type:luminance" maskUnits="userSpaceOnUse" x="3" y="-26" width="538" height="478">
<mask id="mask44_2009_4" style="mask-type:luminance" maskUnits="userSpaceOnUse" x="3" y="-26" width="538" height="478">
<g clip-path="url(#clip1_2009_4)">
<path d="M191.169 -23.8148C195.802 -23.8148 200.708 -22.7222 205.069 -20.2639L523.693 149.358C530.235 152.635 534.868 158.372 536.504 164.654C537.867 169.844 537.049 175.033 534.323 179.404L370.514 440.255C363.972 450.361 348.982 453.093 336.444 446.537L18.092 277.189C11.5506 273.638 6.91699 267.902 5.28162 261.62C3.91882 256.703 4.46399 251.513 7.18958 247.143L171.271 -13.9816C175.36 -20.2639 182.992 -23.8148 191.169 -23.8148ZM350.617 451.181C359.066 451.181 367.243 447.63 371.332 440.801L535.414 179.95C538.412 175.306 539.229 169.844 537.594 164.381C535.959 157.825 531.052 151.816 524.238 148.265L205.614 -21.3565C192.804 -28.1851 176.995 -25.1805 170.454 -14.5279L6.37177 246.597C3.3736 250.967 2.55597 256.703 4.19135 261.893C5.82672 268.721 10.7328 274.457 17.5469 278.281L335.899 447.63C340.805 450.088 345.711 451.181 350.617 451.181Z" fill="white"/>
</g>
</mask>
<g mask="url(#mask44_2009_4)">
<path d="M2164.78 -260.902H-893.354V2803.76H2164.78V-260.902Z" fill="white"/>
</g>
</mask>
<g mask="url(#mask43_2009_4)">
<path d="M191.169 -23.8143C195.802 -23.8143 200.708 -22.7217 205.069 -20.2634L523.693 149.358C530.235 152.636 534.868 158.372 536.504 164.654C537.867 169.844 537.049 175.034 534.323 179.404L370.514 440.255C363.972 450.362 348.982 453.093 336.444 446.538L18.0921 277.189C11.5506 273.638 6.91705 267.902 5.28168 261.62C3.91887 256.703 4.46403 251.514 7.18964 247.143L171.271 -13.9811C175.36 -20.2634 182.992 -23.8143 191.169 -23.8143ZM350.617 451.181C359.066 451.181 367.243 447.63 371.332 440.802L535.414 179.95C538.412 175.307 539.229 169.844 537.594 164.381C535.959 157.826 531.052 151.817 524.238 148.266L205.614 -21.356C192.804 -28.1846 176.995 -25.18 170.454 -14.5274L6.37183 246.597C3.37365 250.967 2.556 256.703 4.19137 261.893C5.82674 268.722 10.7329 274.458 17.5469 278.282L335.899 447.63C340.805 450.089 345.711 451.181 350.617 451.181Z" fill="white"/>
</g>
</mask>
<g mask="url(#mask42_2009_4)">
<path d="M2164.78 -260.902H-893.354V2803.76H2164.78V-260.902Z" fill="url(#paint14_linear_2009_4)"/>
</g>
<mask id="mask45_2009_4" style="mask-type:luminance" maskUnits="userSpaceOnUse" x="8" y="-25" width="526" height="476">
<mask id="mask46_2009_4" style="mask-type:luminance" maskUnits="userSpaceOnUse" x="8" y="-25" width="526" height="476">
<mask id="mask47_2009_4" style="mask-type:luminance" maskUnits="userSpaceOnUse" x="8" y="-25" width="526" height="476">
<path d="M173.452 -22.9945C177.268 -22.9945 181.357 -22.175 185.173 -20.5362L517.152 124.776C523.694 127.78 528.872 132.97 531.325 139.252C532.961 144.442 532.688 149.905 530.508 154.548L389.866 437.524C384.415 448.45 369.424 452.547 356.614 447.084L24.6339 301.499C17.8199 298.768 12.9137 293.305 10.4607 287.023C8.55274 281.833 8.82544 276.37 11.2785 271.727L151.92 -10.9762C155.736 -18.6242 164.185 -22.9945 173.452 -22.9945ZM368.334 450.635C377.873 450.635 386.868 445.992 390.684 438.071L531.598 155.095C534.051 150.178 534.324 144.442 532.416 138.979C529.963 132.151 524.511 126.688 517.425 123.683L185.718 -21.6288C172.09 -27.6379 156.554 -22.9945 150.83 -11.5225L10.1882 271.18C7.73512 276.37 7.4626 282.106 9.37053 287.569C11.8236 294.124 17.2747 299.587 24.0887 302.592L356.069 448.177C360.157 449.816 364.245 450.635 368.334 450.635Z" fill="white"/>
</mask>
<g mask="url(#mask47_2009_4)">
<path d="M2164.78 -260.902H-893.354V2803.76H2164.78V-260.902Z" fill="white"/>
</g>
</mask>
<g mask="url(#mask46_2009_4)">
<path d="M173.452 -22.9945C177.268 -22.9945 181.357 -22.175 185.173 -20.5362L517.152 124.776C523.694 127.78 528.872 132.97 531.325 139.252C532.961 144.442 532.688 149.905 530.508 154.548L389.866 437.524C384.415 448.45 369.424 452.547 356.614 447.084L24.6339 301.499C17.8199 298.768 12.9137 293.305 10.4607 287.023C8.55274 281.833 8.82544 276.37 11.2785 271.727L151.92 -10.9762C155.736 -18.6242 164.185 -22.9945 173.452 -22.9945ZM368.334 450.635C377.873 450.635 386.868 445.992 390.684 438.071L531.598 155.095C534.051 150.178 534.324 144.442 532.416 138.979C529.963 132.151 524.511 126.688 517.425 123.683L185.718 -21.6288C172.09 -27.6379 156.554 -22.9945 150.83 -11.5225L10.1882 271.18C7.73512 276.37 7.4626 282.106 9.37053 287.569C11.8236 294.124 17.2747 299.587 24.0887 302.592L356.069 448.177C360.157 449.816 364.245 450.635 368.334 450.635Z" fill="white"/>
</g>
</mask>
<g mask="url(#mask45_2009_4)">
<path d="M2164.78 -260.902H-893.354V2803.76H2164.78V-260.902Z" fill="url(#paint15_linear_2009_4)"/>
</g>
<mask id="mask48_2009_4" style="mask-type:luminance" maskUnits="userSpaceOnUse" x="14" y="-22" width="513" height="471">
<mask id="mask49_2009_4" style="mask-type:luminance" maskUnits="userSpaceOnUse" x="14" y="-22" width="513" height="471">
<mask id="mask50_2009_4" style="mask-type:luminance" maskUnits="userSpaceOnUse" x="14" y="-22" width="513" height="471">
<path d="M155.736 -20.8098C158.734 -20.8098 162.004 -20.2635 165.002 -19.171L508.43 100.192C515.244 102.651 520.968 107.567 523.693 113.576C526.146 118.766 526.419 124.502 524.238 129.692L408.672 432.88C404.311 444.352 389.866 450.362 376.51 445.718L33.3554 326.082C26.5413 323.896 20.8176 318.98 18.092 312.971C15.639 307.508 15.3663 301.772 17.2742 296.582L132.84 -6.33326C136.384 -15.347 145.651 -20.8098 155.736 -20.8098ZM386.05 448.45C396.68 448.45 406.219 442.714 410.035 433.154L525.601 130.238C527.509 124.502 527.237 118.493 524.784 113.03C521.785 106.748 516.062 101.558 508.703 99.0999L165.548 -20.2635C151.647 -25.1801 136.656 -19.171 131.75 -6.87954L16.1841 296.309C14.2761 301.772 14.5486 307.781 17.0017 313.244C19.9999 319.799 25.7236 324.716 32.8102 327.447L376.238 446.811C379.508 447.903 382.779 448.45 386.05 448.45Z" fill="white"/>
</mask>
<g mask="url(#mask50_2009_4)">
<path d="M2164.79 -260.902H-893.353V2803.76H2164.79V-260.902Z" fill="white"/>
</g>
</mask>
<g mask="url(#mask49_2009_4)">
<path d="M155.736 -20.8098C158.734 -20.8098 162.004 -20.2635 165.002 -19.171L508.43 100.192C515.244 102.651 520.968 107.567 523.693 113.576C526.146 118.766 526.419 124.502 524.238 129.692L408.672 432.88C404.311 444.352 389.866 450.362 376.51 445.718L33.3554 326.082C26.5413 323.896 20.8176 318.98 18.092 312.971C15.639 307.508 15.3663 301.772 17.2742 296.582L132.84 -6.33326C136.384 -15.347 145.651 -20.8098 155.736 -20.8098ZM386.05 448.45C396.68 448.45 406.219 442.714 410.035 433.154L525.601 130.238C527.509 124.502 527.237 118.493 524.784 113.03C521.785 106.748 516.062 101.558 508.703 99.0999L165.548 -20.2635C151.647 -25.1801 136.656 -19.171 131.75 -6.87954L16.1841 296.309C14.2761 301.772 14.5486 307.781 17.0017 313.244C19.9999 319.799 25.7236 324.716 32.8102 327.447L376.238 446.811C379.508 447.903 382.779 448.45 386.05 448.45Z" fill="white"/>
</g>
</mask>
<g mask="url(#mask48_2009_4)">
<path d="M2164.79 -260.902H-893.353V2803.76H2164.79V-260.902Z" fill="url(#paint16_linear_2009_4)"/>
</g>
<mask id="mask51_2009_4" style="mask-type:luminance" maskUnits="userSpaceOnUse" x="23" y="-19" width="496" height="464">
<mask id="mask52_2009_4" style="mask-type:luminance" maskUnits="userSpaceOnUse" x="23" y="-19" width="496" height="464">
<mask id="mask53_2009_4" style="mask-type:luminance" maskUnits="userSpaceOnUse" x="23" y="-19" width="496" height="464">
<path d="M138.291 -16.9851C140.472 -16.9851 142.925 -16.712 145.378 -15.8926L497.8 75.8835C504.614 77.5223 510.61 81.8926 513.881 87.9017C516.879 93.0915 517.697 99.1006 516.061 104.563L427.479 426.326C423.936 438.617 410.035 445.992 396.407 442.441L43.9853 350.665C37.1712 348.753 31.1748 344.383 27.9041 338.647C24.9059 333.457 24.0882 327.448 25.7236 321.712L114.306 -0.0502625C117.304 -10.1565 127.116 -16.9851 138.291 -16.9851ZM403.494 444.626C415.214 444.626 425.571 437.525 428.569 426.599L517.424 104.837C519.06 99.1006 518.242 92.8183 514.971 87.0823C511.428 81.0732 505.159 76.4298 498.072 74.5178L145.651 -17.2583C131.205 -20.8091 116.759 -13.4343 113.216 -0.323401L24.3608 321.439C22.7254 327.448 23.543 333.73 26.8138 339.193C30.3571 345.475 36.626 349.846 43.7126 351.758L396.134 443.534C398.587 444.08 401.041 444.626 403.494 444.626Z" fill="white"/>
</mask>
<g mask="url(#mask53_2009_4)">
<path d="M2164.79 -260.902H-893.353V2803.76H2164.79V-260.902Z" fill="white"/>
</g>
</mask>
<g mask="url(#mask52_2009_4)">
<path d="M138.291 -16.9851C140.472 -16.9851 142.925 -16.712 145.378 -15.8926L497.8 75.8835C504.614 77.5223 510.61 81.8926 513.881 87.9017C516.879 93.0915 517.697 99.1006 516.061 104.563L427.479 426.326C423.936 438.617 410.035 445.992 396.407 442.441L43.9853 350.665C37.1712 348.753 31.1748 344.383 27.9041 338.647C24.9059 333.457 24.0882 327.448 25.7236 321.712L114.306 -0.0502625C117.304 -10.1565 127.116 -16.9851 138.291 -16.9851ZM403.494 444.626C415.214 444.626 425.571 437.525 428.569 426.599L517.424 104.837C519.06 99.1006 518.242 92.8183 514.971 87.0823C511.428 81.0732 505.159 76.4298 498.072 74.5178L145.651 -17.2583C131.205 -20.8091 116.759 -13.4343 113.216 -0.323401L24.3608 321.439C22.7254 327.448 23.543 333.73 26.8138 339.193C30.3571 345.475 36.626 349.846 43.7126 351.758L396.134 443.534C398.587 444.08 401.041 444.626 403.494 444.626Z" fill="white"/>
</g>
</mask>
<g mask="url(#mask51_2009_4)">
<path d="M2164.79 -260.902H-893.353V2803.76H2164.79V-260.902Z" fill="url(#paint17_linear_2009_4)"/>
</g>
<mask id="mask54_2009_4" style="mask-type:luminance" maskUnits="userSpaceOnUse" x="34" y="-13" width="474" height="452">
<mask id="mask55_2009_4" style="mask-type:luminance" maskUnits="userSpaceOnUse" x="34" y="-13" width="474" height="452">
<mask id="mask56_2009_4" style="mask-type:luminance" maskUnits="userSpaceOnUse" x="34" y="-13" width="474" height="452">
<path d="M121.12 -11.2513C122.755 -11.2513 124.118 -11.2513 125.753 -10.9781L484.989 51.5716C491.803 52.9373 497.8 56.4882 501.888 62.2242C505.431 67.4139 506.794 73.6962 505.704 79.7053L445.195 418.129C443.015 430.967 429.659 439.708 416.031 437.249L56.7953 374.7C49.9812 373.607 43.985 369.783 39.8966 364.047C36.3533 358.857 34.9904 352.848 36.0807 346.839L96.5893 8.41502C98.4973 -3.05698 109.127 -11.2513 121.12 -11.2513ZM420.665 438.888C433.203 438.888 444.378 430.421 446.558 418.129L507.067 79.7053C508.157 73.423 506.522 66.8676 502.978 61.4047C498.617 55.6687 492.348 51.5716 484.989 50.479L126.026 -12.0707C111.58 -14.529 97.6796 -5.51527 95.2265 8.14188L34.7179 346.566C33.6276 352.848 34.9904 359.404 38.8063 364.867C42.8947 370.876 49.4361 374.7 56.7953 376.065L415.759 438.615C417.394 438.888 419.029 438.888 420.665 438.888Z" fill="white"/>
</mask>
<g mask="url(#mask56_2009_4)">
<path d="M2164.79 -260.902H-893.353V2803.76H2164.79V-260.902Z" fill="white"/>
</g>
</mask>
<g mask="url(#mask55_2009_4)">
<path d="M121.12 -11.2513C122.755 -11.2513 124.118 -11.2513 125.753 -10.9781L484.989 51.5716C491.803 52.9373 497.8 56.4882 501.888 62.2242C505.431 67.4139 506.794 73.6962 505.704 79.7053L445.195 418.129C443.015 430.967 429.659 439.708 416.031 437.249L56.7953 374.7C49.9812 373.607 43.985 369.783 39.8966 364.047C36.3533 358.857 34.9904 352.848 36.0807 346.839L96.5893 8.41502C98.4973 -3.05698 109.127 -11.2513 121.12 -11.2513ZM420.665 438.888C433.203 438.888 444.378 430.421 446.558 418.129L507.067 79.7053C508.157 73.423 506.522 66.8676 502.978 61.4047C498.617 55.6687 492.348 51.5716 484.989 50.479L126.026 -12.0707C111.58 -14.529 97.6796 -5.51527 95.2265 8.14188L34.7179 346.566C33.6276 352.848 34.9904 359.404 38.8063 364.867C42.8947 370.876 49.4361 374.7 56.7953 376.065L415.759 438.615C417.394 438.888 419.029 438.888 420.665 438.888Z" fill="white"/>
</g>
</mask>
<g mask="url(#mask54_2009_4)">
<path d="M2164.79 -260.902H-893.353V2803.76H2164.79V-260.902Z" fill="url(#paint18_linear_2009_4)"/>
</g>
<mask id="mask57_2009_4" style="mask-type:luminance" maskUnits="userSpaceOnUse" x="47" y="-6" width="448" height="438">
<mask id="mask58_2009_4" style="mask-type:luminance" maskUnits="userSpaceOnUse" x="47" y="-6" width="448" height="438">
<mask id="mask59_2009_4" style="mask-type:luminance" maskUnits="userSpaceOnUse" x="47" y="-6" width="448" height="438">
<path d="M104.494 -3.87552C105.311 -3.87552 106.129 -3.87552 106.947 -3.87552L469.999 28.0822C476.813 28.6285 482.809 31.6331 487.442 36.8228C491.803 41.7393 493.711 48.2948 493.166 54.8502L462.367 407.751C461.822 414.306 458.551 420.315 453.372 424.686C448.194 428.783 441.652 430.968 434.838 430.149L71.7862 398.464C57.613 397.098 47.2557 385.08 48.6185 371.423L79.4181 18.5222C79.9632 11.9668 82.9613 5.95762 88.4126 1.86048C92.7735 -1.96352 98.4972 -3.87552 104.494 -3.87552ZM437.291 431.514C443.56 431.514 449.556 429.602 454.19 425.505C459.641 421.135 463.185 414.853 463.73 408.024L494.529 54.8502C495.074 48.0216 492.894 41.1931 488.26 36.0033C483.627 30.5405 477.085 27.2628 469.999 26.7165L106.947 -5.24123C99.8601 -5.78752 93.0461 -3.60236 87.5949 0.767923C82.1437 5.13821 78.6004 11.4205 78.0553 18.5222L47.2557 371.423C45.8929 385.626 57.068 398.464 71.5137 399.557L434.838 431.514C435.656 431.514 436.473 431.514 437.291 431.514Z" fill="white"/>
</mask>
<g mask="url(#mask59_2009_4)">
<path d="M2164.79 -260.902H-893.353V2803.76H2164.79V-260.902Z" fill="white"/>
</g>
</mask>
<g mask="url(#mask58_2009_4)">
<path d="M104.494 -3.87552C105.311 -3.87552 106.129 -3.87552 106.947 -3.87552L469.999 28.0822C476.813 28.6285 482.809 31.6331 487.442 36.8228C491.803 41.7393 493.711 48.2948 493.166 54.8502L462.367 407.751C461.822 414.306 458.551 420.315 453.372 424.686C448.194 428.783 441.652 430.968 434.838 430.149L71.7862 398.464C57.613 397.098 47.2557 385.08 48.6185 371.423L79.4181 18.5222C79.9632 11.9668 82.9613 5.95762 88.4126 1.86048C92.7735 -1.96352 98.4972 -3.87552 104.494 -3.87552ZM437.291 431.514C443.56 431.514 449.556 429.602 454.19 425.505C459.641 421.135 463.185 414.853 463.73 408.024L494.529 54.8502C495.074 48.0216 492.894 41.1931 488.26 36.0033C483.627 30.5405 477.085 27.2628 469.999 26.7165L106.947 -5.24123C99.8601 -5.78752 93.0461 -3.60236 87.5949 0.767923C82.1437 5.13821 78.6004 11.4205 78.0553 18.5222L47.2557 371.423C45.8929 385.626 57.068 398.464 71.5137 399.557L434.838 431.514C435.656 431.514 436.473 431.514 437.291 431.514Z" fill="white"/>
</g>
</mask>
<g mask="url(#mask57_2009_4)">
<path d="M2164.79 -260.902H-893.353V2803.76H2164.79V-260.902Z" fill="url(#paint19_linear_2009_4)"/>
</g>
<mask id="mask60_2009_4" style="mask-type:luminance" maskUnits="userSpaceOnUse" x="61" y="3" width="419" height="420">
<mask id="mask61_2009_4" style="mask-type:luminance" maskUnits="userSpaceOnUse" x="61" y="3" width="419" height="420">
<mask id="mask62_2009_4" style="mask-type:luminance" maskUnits="userSpaceOnUse" x="61" y="3" width="419" height="420">
<path d="M453.1 5.13769C467.273 5.13769 478.721 16.6097 478.721 30.54V395.732C478.721 409.935 467.273 421.407 453.1 421.407H88.6857C74.5125 421.407 63.065 409.935 63.065 395.732V30.54C63.065 16.6097 74.5125 5.13769 88.6857 5.13769H453.1ZM88.6857 422.773H453.1C467.819 422.773 479.811 410.755 479.811 395.732V30.54C479.811 15.7902 467.819 3.77197 453.1 3.77197H88.6857C73.9674 3.77197 61.9747 15.7902 61.9747 30.54V395.732C61.9747 410.755 73.9674 422.773 88.6857 422.773Z" fill="white"/>
</mask>
<g mask="url(#mask62_2009_4)">
<path d="M2164.79 -260.902H-893.353V2803.76H2164.79V-260.902Z" fill="white"/>
</g>
</mask>
<g mask="url(#mask61_2009_4)">
<path d="M453.1 5.13769C467.273 5.13769 478.721 16.6097 478.721 30.54V395.732C478.721 409.935 467.273 421.407 453.1 421.407H88.6857C74.5125 421.407 63.065 409.935 63.065 395.732V30.54C63.065 16.6097 74.5125 5.13769 88.6857 5.13769H453.1ZM88.6857 422.773H453.1C467.819 422.773 479.811 410.755 479.811 395.732V30.54C479.811 15.7902 467.819 3.77197 453.1 3.77197H88.6857C73.9674 3.77197 61.9747 15.7902 61.9747 30.54V395.732C61.9747 410.755 73.9674 422.773 88.6857 422.773Z" fill="white"/>
</g>
</mask>
<g mask="url(#mask60_2009_4)">
<path d="M2164.79 -260.902H-893.353V2803.76H2164.79V-260.902Z" fill="url(#paint20_linear_2009_4)"/>
</g>
</g>
<g filter="url(#filter0_dd_2009_4)">
<path d="M210.469 184.327C222.246 162.991 244.676 148.571 270.417 148.571C296.188 148.571 318.618 162.991 330.366 184.327" stroke="#AFAFAF" stroke-width="3" stroke-miterlimit="10" stroke-linecap="round"/>
<path d="M210.469 252.673C222.246 274.009 244.676 288.428 270.417 288.428C296.159 288.428 318.618 274.009 330.366 252.673" stroke="#AFAFAF" stroke-width="3" stroke-miterlimit="10" stroke-linecap="round"/>
<path d="M239.867 243.617H241.71L246.835 253.259L251.817 243.617H253.66V258.623H251.702V247.457L247.814 254.842C247.642 255.164 247.498 255.37 247.354 255.516C247.21 255.633 247.037 255.721 246.835 255.721H246.26L241.825 247.457V258.652H239.839V243.617H239.867Z" fill="#AFAFAF"/>
<path d="M257.23 258.212C256.942 257.919 256.798 257.538 256.798 257.04V243.646H267.135V245.434H258.785V250.124H266.502V251.882H258.785V256.894H267.135V258.681H258.382C257.921 258.652 257.518 258.506 257.23 258.212Z" fill="#AFAFAF"/>
<path d="M270.072 258.212C269.784 257.919 269.64 257.538 269.64 257.04V243.646H276.061C277.126 243.646 278.076 243.852 278.883 244.262C279.689 244.672 280.322 245.258 280.754 246.02C281.186 246.782 281.417 247.662 281.417 248.658V253.201C281.417 254.989 280.985 256.337 280.092 257.275C279.199 258.183 277.904 258.652 276.176 258.652H271.252C270.734 258.652 270.36 258.506 270.072 258.212ZM276.09 256.835C277.184 256.835 278.019 256.542 278.566 255.926C279.142 255.311 279.401 254.402 279.401 253.172V248.717C279.401 247.75 279.084 246.958 278.451 246.372C277.817 245.786 277.011 245.493 275.974 245.493H271.627V256.835H276.09Z" fill="#AFAFAF"/>
<path d="M284.239 243.618H286.254V258.623H284.239V243.618Z" fill="#AFAFAF"/>
<path d="M298.002 254.696H291.869L290.429 258.652H288.356L294.057 243.646H294.949C295.554 243.646 295.986 243.969 296.245 244.643L301.543 258.652H299.47L298.002 254.696ZM292.444 252.996H297.426L294.949 246.226H294.921L292.444 252.996Z" fill="#AFAFAF"/>
<path d="M183 203.319H187.981V216.214H202.752V203.319H207.705V233.711H202.752V220.64H187.981V233.711H183V203.319Z" fill="#AFAFAF"/>
<path d="M213.924 203.319H218.905V233.712H213.924V203.319Z" fill="#AFAFAF"/>
<path d="M260.455 207.686H250.982V203.29H274.909V207.686H265.436V233.682H260.455V207.686Z" fill="#AFAFAF"/>
<path d="M279.574 232.686C278.912 232.012 278.566 231.103 278.566 230.019V203.319H300.449V207.716H283.547V215.951H299.154V220.377H283.547V229.315H300.449V233.712H282.223C281.158 233.712 280.265 233.36 279.574 232.686Z" fill="#AFAFAF"/>
<path d="M308.915 232.627C307.331 231.689 306.093 230.341 305.2 228.641C304.308 226.912 303.876 224.919 303.876 222.663V214.339C303.876 212.083 304.336 210.09 305.229 208.36C306.122 206.631 307.389 205.312 309.001 204.375C310.613 203.437 312.485 202.968 314.645 202.968H319.165C321.181 202.968 322.966 203.407 324.55 204.287C326.104 205.166 327.314 206.426 328.178 208.009C329.041 209.621 329.445 211.467 329.445 213.577H324.55C324.55 211.731 324.06 210.236 323.052 209.093C322.045 207.95 320.778 207.393 319.165 207.393H314.616C312.888 207.393 311.477 208.038 310.441 209.357C309.375 210.646 308.857 212.376 308.857 214.486V222.487C308.857 224.626 309.375 226.355 310.383 227.645C311.42 228.935 312.744 229.579 314.443 229.579H319.05C320.691 229.579 322.045 228.935 323.052 227.674C324.089 226.414 324.578 224.743 324.578 222.721H329.473C329.473 224.978 329.041 226.971 328.178 228.671C327.314 230.371 326.076 231.689 324.521 232.657C322.937 233.594 321.123 234.063 319.05 234.063H314.443C312.341 234.034 310.498 233.565 308.915 232.627Z" fill="#AFAFAF"/>
<path d="M333.677 203.319H338.658V216.215H353.429V203.319H358.382V233.712H353.429V220.64H338.658V233.712H333.677V203.319Z" fill="#AFAFAF"/>
<path d="M234.943 222.955C237.36 222.955 239.32 220.961 239.32 218.501C239.32 216.04 237.36 214.046 234.943 214.046C232.526 214.046 230.567 216.04 230.567 218.501C230.567 220.961 232.526 222.955 234.943 222.955Z" fill="#AFAFAF"/>
</g>
<defs>
<filter id="filter0_dd_2009_4" x="178.6" y="141.9" width="184.8" height="154.5" filterUnits="userSpaceOnUse" color-interpolation-filters="sRGB">
<feFlood flood-opacity="0" result="BackgroundImageFix"/>
<feColorMatrix in="SourceAlpha" type="matrix" values="0 0 0 0 0 0 0 0 0 0 0 0 0 0 0 0 0 0 127 0" result="hardAlpha"/>
<feOffset dy="2"/>
<feGaussianBlur stdDeviation="2.2"/>
<feComposite in2="hardAlpha" operator="out"/>
<feColorMatrix type="matrix" values="0 0 0 0 1 0 0 0 0 1 0 0 0 0 1 0 0 0 1 0"/>
<feBlend mode="normal" in2="BackgroundImageFix" result="effect1_dropShadow_2009_4"/>
<feColorMatrix in="SourceAlpha" type="matrix" values="0 0 0 0 0 0 0 0 0 0 0 0 0 0 0 0 0 0 127 0" result="hardAlpha"/>
<feOffset dy="-2"/>
<feGaussianBlur stdDeviation="1.55"/>
<feComposite in2="hardAlpha" operator="out"/>
<feColorMatrix type="matrix" values="0 0 0 0 1 0 0 0 0 1 0 0 0 0 1 0 0 0 1 0"/>
<feBlend mode="normal" in2="effect1_dropShadow_2009_4" result="effect2_dropShadow_2009_4"/>
<feBlend mode="normal" in="SourceGraphic" in2="effect2_dropShadow_2009_4" result="shape"/>
</filter>
<linearGradient id="paint0_linear_2009_4" x1="427.064" y1="213.195" x2="114.676" y2="213.195" gradientUnits="userSpaceOnUse">
<stop stop-color="#3DDEED"/>
<stop offset="1" stop-color="#CB00DD"/>
</linearGradient>
<linearGradient id="paint1_linear_2009_4" x1="442.863" y1="213.195" x2="98.8793" y2="213.195" gradientUnits="userSpaceOnUse">
<stop stop-color="#3DDEED"/>
<stop offset="1" stop-color="#CB00DD"/>
</linearGradient>
<linearGradient id="paint2_linear_2009_4" x1="457.97" y1="213.195" x2="83.7706" y2="213.195" gradientUnits="userSpaceOnUse">
<stop stop-color="#3DDEED"/>
<stop offset="1" stop-color="#CB00DD"/>
</linearGradient>
<linearGradient id="paint3_linear_2009_4" x1="472.225" y1="213.196" x2="69.5184" y2="213.196" gradientUnits="userSpaceOnUse">
<stop stop-color="#3DDEED"/>
<stop offset="1" stop-color="#CB00DD"/>
</linearGradient>
<linearGradient id="paint4_linear_2009_4" x1="485.521" y1="213.195" x2="56.2235" y2="213.195" gradientUnits="userSpaceOnUse">
<stop stop-color="#3DDEED"/>
<stop offset="1" stop-color="#CB00DD"/>
</linearGradient>
<linearGradient id="paint5_linear_2009_4" x1="497.705" y1="213.195" x2="44.0372" y2="213.195" gradientUnits="userSpaceOnUse">
<stop stop-color="#3DDEED"/>
<stop offset="1" stop-color="#CB00DD"/>
</linearGradient>
<linearGradient id="paint6_linear_2009_4" x1="508.648" y1="213.195" x2="33.0943" y2="213.195" gradientUnits="userSpaceOnUse">
<stop stop-color="#3DDEED"/>
<stop offset="1" stop-color="#CB00DD"/>
</linearGradient>
<linearGradient id="paint7_linear_2009_4" x1="518.225" y1="213.195" x2="23.5182" y2="213.195" gradientUnits="userSpaceOnUse">
<stop stop-color="#3DDEED"/>
<stop offset="1" stop-color="#CB00DD"/>
</linearGradient>
<linearGradient id="paint8_linear_2009_4" x1="526.315" y1="213.195" x2="15.4237" y2="213.195" gradientUnits="userSpaceOnUse">
<stop stop-color="#3DDEED"/>
<stop offset="1" stop-color="#CB00DD"/>
</linearGradient>
<linearGradient id="paint9_linear_2009_4" x1="532.816" y1="213.195" x2="8.92587" y2="213.195" gradientUnits="userSpaceOnUse">
<stop stop-color="#3DDEED"/>
<stop offset="1" stop-color="#CB00DD"/>
</linearGradient>
<linearGradient id="paint10_linear_2009_4" x1="537.623" y1="213.195" x2="4.11998" y2="213.195" gradientUnits="userSpaceOnUse">
<stop stop-color="#3DDEED"/>
<stop offset="1" stop-color="#CB00DD"/>
</linearGradient>
<linearGradient id="paint11_linear_2009_4" x1="540.65" y1="213.195" x2="1.09014" y2="213.195" gradientUnits="userSpaceOnUse">
<stop stop-color="#3DDEED"/>
<stop offset="1" stop-color="#CB00DD"/>
</linearGradient>
<linearGradient id="paint12_linear_2009_4" x1="541.824" y1="213.195" x2="-0.0796546" y2="213.195" gradientUnits="userSpaceOnUse">
<stop stop-color="#3DDEED"/>
<stop offset="1" stop-color="#CB00DD"/>
</linearGradient>
<linearGradient id="paint13_linear_2009_4" x1="541.074" y1="213.195" x2="0.663984" y2="213.195" gradientUnits="userSpaceOnUse">
<stop stop-color="#3DDEED"/>
<stop offset="1" stop-color="#CB00DD"/>
</linearGradient>
<linearGradient id="paint14_linear_2009_4" x1="538.359" y1="213.195" x2="3.38143" y2="213.195" gradientUnits="userSpaceOnUse">
<stop stop-color="#3DDEED"/>
<stop offset="1" stop-color="#CB00DD"/>
</linearGradient>
<linearGradient id="paint15_linear_2009_4" x1="533.641" y1="213.195" x2="8.09947" y2="213.195" gradientUnits="userSpaceOnUse">
<stop stop-color="#3DDEED"/>
<stop offset="1" stop-color="#CB00DD"/>
</linearGradient>
<linearGradient id="paint16_linear_2009_4" x1="526.899" y1="213.195" x2="14.8403" y2="213.195" gradientUnits="userSpaceOnUse">
<stop stop-color="#3DDEED"/>
<stop offset="1" stop-color="#CB00DD"/>
</linearGradient>
<linearGradient id="paint17_linear_2009_4" x1="518.134" y1="213.195" x2="23.6092" y2="213.195" gradientUnits="userSpaceOnUse">
<stop stop-color="#3DDEED"/>
<stop offset="1" stop-color="#CB00DD"/>
</linearGradient>
<linearGradient id="paint18_linear_2009_4" x1="507.35" y1="213.195" x2="34.3911" y2="213.195" gradientUnits="userSpaceOnUse">
<stop stop-color="#3DDEED"/>
<stop offset="1" stop-color="#CB00DD"/>
</linearGradient>
<linearGradient id="paint19_linear_2009_4" x1="494.587" y1="213.195" x2="47.158" y2="213.195" gradientUnits="userSpaceOnUse">
<stop stop-color="#3DDEED"/>
<stop offset="1" stop-color="#CB00DD"/>
</linearGradient>
<linearGradient id="paint20_linear_2009_4" x1="479.885" y1="213.195" x2="61.8572" y2="213.195" gradientUnits="userSpaceOnUse">
<stop stop-color="#3DDEED"/>
<stop offset="1" stop-color="#CB00DD"/>
</linearGradient>
<clipPath id="clip0_2009_4">
<rect width="536.946" height="453.417" fill="white" transform="matrix(-1 0 0 1 540.32 -12.3428)"/>
</clipPath>
<clipPath id="clip1_2009_4">
<rect width="536.946" height="478" fill="white" transform="matrix(-1 0 0 1 540.32 -26)"/>
</clipPath>
</defs>
</svg>
