<svg width="98" height="163" viewBox="0 0 98 163" fill="none" xmlns="http://www.w3.org/2000/svg">
<g opacity="0.4">
<mask id="mask0_416_1405" style="mask-type:luminance" maskUnits="userSpaceOnUse" x="-48" y="41" width="103" height="108">
<mask id="mask1_416_1405" style="mask-type:luminance" maskUnits="userSpaceOnUse" x="-48" y="41" width="103" height="108">
<mask id="mask2_416_1405" style="mask-type:luminance" maskUnits="userSpaceOnUse" x="-48" y="41" width="103" height="108">
<path d="M26.9999 46.3999C2.39994 57.7999 -28.3001 88.8999 -41.4001 115.7C-48.1001 129.3 -49.2001 139.9 -44.4001 144.7C-40.3001 148.9 -31.9001 148.5 -20.8001 143.3C3.89994 131.9 34.5999 100.8 47.6999 73.9999C54.2999 60.3999 55.3999 49.8999 50.6999 45.0999C46.4999 40.7999 38.0999 41.2999 26.9999 46.3999ZM-36.3001 148.1C-40.0001 148.1 -42.8001 147.1 -44.8001 145.1C-49.7001 140.1 -48.7001 129.3 -41.9001 115.5C-28.8001 88.5999 1.99994 57.3999 26.7999 45.8999C38.0999 40.6999 46.6999 40.1999 51.0999 44.6999C55.9999 49.6999 54.8999 60.4999 48.1999 74.1999C35.0999 101.1 4.19994 132.4 -20.5001 143.8C-26.7001 146.7 -32.0001 148.1 -36.3001 148.1Z" fill="white"/>
</mask>
<g mask="url(#mask2_416_1405)">
<path d="M-193 -78.7001H929V1043.3H-193V-78.7001Z" fill="white"/>
</g>
</mask>
<g mask="url(#mask1_416_1405)">
<path d="M26.9999 46.3999C2.39994 57.7999 -28.3001 88.8999 -41.4001 115.7C-48.1001 129.3 -49.2001 139.9 -44.4001 144.7C-40.3001 148.9 -31.9001 148.5 -20.8001 143.3C3.89994 131.9 34.5999 100.8 47.6999 73.9999C54.2999 60.3999 55.3999 49.8999 50.6999 45.0999C46.4999 40.7999 38.0999 41.2999 26.9999 46.3999ZM-36.3001 148.1C-40.0001 148.1 -42.8001 147.1 -44.8001 145.1C-49.7001 140.1 -48.7001 129.3 -41.9001 115.5C-28.8001 88.5999 1.99994 57.3999 26.7999 45.8999C38.0999 40.6999 46.6999 40.1999 51.0999 44.6999C55.9999 49.6999 54.8999 60.4999 48.1999 74.1999C35.0999 101.1 4.19994 132.4 -20.5001 143.8C-26.7001 146.7 -32.0001 148.1 -36.3001 148.1Z" fill="white"/>
</g>
</mask>
<g mask="url(#mask0_416_1405)">
<path d="M-193 -78.7001H929V1043.3H-193V-78.7001Z" fill="url(#paint0_linear_416_1405)"/>
</g>
<mask id="mask3_416_1405" style="mask-type:luminance" maskUnits="userSpaceOnUse" x="-52" y="40" width="110" height="109">
<mask id="mask4_416_1405" style="mask-type:luminance" maskUnits="userSpaceOnUse" x="-52" y="40" width="110" height="109">
<mask id="mask5_416_1405" style="mask-type:luminance" maskUnits="userSpaceOnUse" x="-52" y="40" width="110" height="109">
<path d="M45.2001 41.5002C41.3001 41.5002 36.6001 42.5002 31.2001 44.6002C5.60012 54.7002 -27.6999 85.4002 -43.0999 113.2C-51.0999 127.8 -52.9999 139.3 -48.1999 144.8C-44.1999 149.3 -35.9999 149.4 -24.8999 145.1C0.600128 135.1 34.0001 104.3 49.3001 76.5002C57.4001 61.9002 59.3001 50.4002 54.4001 44.9002C52.4001 42.6002 49.3001 41.5002 45.2001 41.5002ZM-38.8999 148.8C-43.1999 148.8 -46.4999 147.6 -48.5999 145.2C-53.5999 139.5 -51.7999 127.7 -43.5999 113C-28.0999 85.1002 5.30012 54.2002 31.0001 44.1002C42.2001 39.7002 50.7001 39.9002 54.9001 44.6002C59.8001 50.3002 58.0001 62.0002 49.8001 76.8002C34.4001 104.7 0.900127 135.6 -24.6999 145.6C-30.1999 147.8 -34.9999 148.8 -38.8999 148.8Z" fill="white"/>
</mask>
<g mask="url(#mask5_416_1405)">
<path d="M-193 -78.6998H929V1043.3H-193V-78.6998Z" fill="white"/>
</g>
</mask>
<g mask="url(#mask4_416_1405)">
<path d="M45.2001 41.5002C41.3001 41.5002 36.6001 42.5002 31.2001 44.6002C5.60012 54.7002 -27.6999 85.4002 -43.0999 113.2C-51.0999 127.8 -52.9999 139.3 -48.1999 144.8C-44.1999 149.3 -35.9999 149.4 -24.8999 145.1C0.600128 135.1 34.0001 104.3 49.3001 76.5002C57.4001 61.9002 59.3001 50.4002 54.4001 44.9002C52.4001 42.6002 49.3001 41.5002 45.2001 41.5002ZM-38.8999 148.8C-43.1999 148.8 -46.4999 147.6 -48.5999 145.2C-53.5999 139.5 -51.7999 127.7 -43.5999 113C-28.0999 85.1002 5.30012 54.2002 31.0001 44.1002C42.2001 39.7002 50.7001 39.9002 54.9001 44.6002C59.8001 50.3002 58.0001 62.0002 49.8001 76.8002C34.4001 104.7 0.900127 135.6 -24.6999 145.6C-30.1999 147.8 -34.9999 148.8 -38.8999 148.8Z" fill="white"/>
</g>
</mask>
<g mask="url(#mask3_416_1405)">
<path d="M-193 -78.6998H929V1043.3H-193V-78.6998Z" fill="url(#paint1_linear_416_1405)"/>
</g>
<mask id="mask6_416_1405" style="mask-type:luminance" maskUnits="userSpaceOnUse" x="-55" y="40" width="117" height="110">
<mask id="mask7_416_1405" style="mask-type:luminance" maskUnits="userSpaceOnUse" x="-55" y="40" width="117" height="110">
<mask id="mask8_416_1405" style="mask-type:luminance" maskUnits="userSpaceOnUse" x="-55" y="40" width="117" height="110">
<path d="M47.6 40.8999C44.1 40.8999 39.9999 41.5999 35.3999 43.0999C9.09994 51.4999 -26.8001 81.6999 -44.5001 110.4C-54.1001 125.9 -56.8 138.4 -51.9 144.7C-48.2 149.4 -40.1001 150.1 -29.2001 146.6C-2.90005 138.2 33 108 50.7999 79.3999C60.3999 63.8999 63.0999 51.3999 58.1999 45.0999C55.9999 42.2999 52.4 40.8999 47.6 40.8999ZM-41.3001 149.4C-46.3001 149.4 -50.1 147.9 -52.4 145C-57.4 138.5 -54.7001 125.8 -45.0001 110.1C-27.2001 81.2999 8.79995 51.0999 35.2999 42.5999C46.3999 38.9999 54.7 39.7999 58.6 44.6999C63.7 51.1999 60.9999 63.8999 51.1999 79.6999C33.3999 108.4 -2.60006 138.7 -29.0001 147.2C-33.7001 148.6 -37.8001 149.4 -41.3001 149.4Z" fill="white"/>
</mask>
<g mask="url(#mask8_416_1405)">
<path d="M-193 -78.7001H929V1043.3H-193V-78.7001Z" fill="white"/>
</g>
</mask>
<g mask="url(#mask7_416_1405)">
<path d="M47.6 40.8999C44.1 40.8999 39.9999 41.5999 35.3999 43.0999C9.09994 51.4999 -26.8001 81.6999 -44.5001 110.4C-54.1001 125.9 -56.8 138.4 -51.9 144.7C-48.2 149.4 -40.1001 150.1 -29.2001 146.6C-2.90005 138.2 33 108 50.7999 79.3999C60.3999 63.8999 63.0999 51.3999 58.1999 45.0999C55.9999 42.2999 52.4 40.8999 47.6 40.8999ZM-41.3001 149.4C-46.3001 149.4 -50.1 147.9 -52.4 145C-57.4 138.5 -54.7001 125.8 -45.0001 110.1C-27.2001 81.2999 8.79995 51.0999 35.2999 42.5999C46.3999 38.9999 54.7 39.7999 58.6 44.6999C63.7 51.1999 60.9999 63.8999 51.1999 79.6999C33.3999 108.4 -2.60006 138.7 -29.0001 147.2C-33.7001 148.6 -37.8001 149.4 -41.3001 149.4Z" fill="white"/>
</g>
</mask>
<g mask="url(#mask6_416_1405)">
<path d="M-193 -78.7001H929V1043.3H-193V-78.7001Z" fill="url(#paint2_linear_416_1405)"/>
</g>
<mask id="mask9_416_1405" style="mask-type:luminance" maskUnits="userSpaceOnUse" x="-59" y="39" width="124" height="111">
<mask id="mask10_416_1405" style="mask-type:luminance" maskUnits="userSpaceOnUse" x="-59" y="39" width="124" height="111">
<mask id="mask11_416_1405" style="mask-type:luminance" maskUnits="userSpaceOnUse" x="-59" y="39" width="124" height="111">
<path d="M49.8 40.5001C46.9 40.5001 43.6 40.9001 39.8 41.9001C12.9 48.5001 -25.5 77.8001 -45.7 107.1C-57 123.5 -60.6 137 -55.7 144.2C-52.1 149.3 -44.5 150.6 -33.6 147.9C-6.59999 141.2 31.7 112 51.9 82.6001C63.2 66.2001 66.9 52.7001 61.9 45.6001C59.6 42.2001 55.5 40.5001 49.8 40.5001ZM-43.6 149.8C-49.4 149.8 -53.7 148 -56.1 144.5C-61.2 137.1 -57.6 123.4 -46.1 106.8C-25.9 77.4001 12.6 48.0001 39.7 41.3001C50.9 38.6001 58.7 39.9001 62.4 45.3001C67.5 52.6001 63.8 66.3001 52.4 83.0001C32.1 112.4 -6.39998 141.8 -33.5 148.4C-37.2 149.3 -40.6 149.8 -43.6 149.8Z" fill="white"/>
</mask>
<g mask="url(#mask11_416_1405)">
<path d="M-193 -78.7H929V1043.3H-193V-78.7Z" fill="white"/>
</g>
</mask>
<g mask="url(#mask10_416_1405)">
<path d="M49.8 40.5001C46.9 40.5001 43.6 40.9001 39.8 41.9001C12.9 48.5001 -25.5 77.8001 -45.7 107.1C-57 123.5 -60.6 137 -55.7 144.2C-52.1 149.3 -44.5 150.6 -33.6 147.9C-6.59999 141.2 31.7 112 51.9 82.6001C63.2 66.2001 66.9 52.7001 61.9 45.6001C59.6 42.2001 55.5 40.5001 49.8 40.5001ZM-43.6 149.8C-49.4 149.8 -53.7 148 -56.1 144.5C-61.2 137.1 -57.6 123.4 -46.1 106.8C-25.9 77.4001 12.6 48.0001 39.7 41.3001C50.9 38.6001 58.7 39.9001 62.4 45.3001C67.5 52.6001 63.8 66.3001 52.4 83.0001C32.1 112.4 -6.39998 141.8 -33.5 148.4C-37.2 149.3 -40.6 149.8 -43.6 149.8Z" fill="white"/>
</g>
</mask>
<g mask="url(#mask9_416_1405)">
<path d="M-193 -78.7H929V1043.3H-193V-78.7Z" fill="url(#paint3_linear_416_1405)"/>
</g>
<mask id="mask12_416_1405" style="mask-type:luminance" maskUnits="userSpaceOnUse" x="-62" y="39" width="131" height="111">
<mask id="mask13_416_1405" style="mask-type:luminance" maskUnits="userSpaceOnUse" x="-62" y="39" width="131" height="111">
<mask id="mask14_416_1405" style="mask-type:luminance" maskUnits="userSpaceOnUse" x="-62" y="39" width="131" height="111">
<path d="M51.6 40.3C49.4 40.3 46.9 40.5 44.3 40.9C16.9 45.6 -23.9 73.6 -46.5 103.5C-59.4 120.4 -64.2 135.3 -59.4 143.3C-56.1 148.7 -48.8 150.6 -38.1 148.8C-10.6 144.2 30.1 116.1 52.8 86.3C65.7 69.3 70.5 54.4 65.7 46.4C63.2 42.4 58.4 40.3 51.6 40.3ZM-45.3 150C-52.3 150 -57.3 147.9 -59.9 143.6C-64.9 135.3 -60.2 120.6 -47 103.1C-24.2 73.2 16.7 45 44.2 40.4C55.2 38.5 62.7 40.5 66.1 46.2C71.2 54.4 66.5 69.2 53.2 86.6C30.5 116.6 -10.4 144.7 -38 149.4C-40.6 149.8 -43.1 150 -45.3 150Z" fill="white"/>
</mask>
<g mask="url(#mask14_416_1405)">
<path d="M-193 -78.7H929V1043.3H-193V-78.7Z" fill="white"/>
</g>
</mask>
<g mask="url(#mask13_416_1405)">
<path d="M51.6 40.3C49.4 40.3 46.9 40.5 44.3 40.9C16.9 45.6 -23.9 73.6 -46.5 103.5C-59.4 120.4 -64.2 135.3 -59.4 143.3C-56.1 148.7 -48.8 150.6 -38.1 148.8C-10.6 144.2 30.1 116.1 52.8 86.3C65.7 69.3 70.5 54.4 65.7 46.4C63.2 42.4 58.4 40.3 51.6 40.3ZM-45.3 150C-52.3 150 -57.3 147.9 -59.9 143.6C-64.9 135.3 -60.2 120.6 -47 103.1C-24.2 73.2 16.7 45 44.2 40.4C55.2 38.5 62.7 40.5 66.1 46.2C71.2 54.4 66.5 69.2 53.2 86.6C30.5 116.6 -10.4 144.7 -38 149.4C-40.6 149.8 -43.1 150 -45.3 150Z" fill="white"/>
</g>
</mask>
<g mask="url(#mask12_416_1405)">
<path d="M-193 -78.7H929V1043.3H-193V-78.7Z" fill="url(#paint4_linear_416_1405)"/>
</g>
<mask id="mask15_416_1405" style="mask-type:luminance" maskUnits="userSpaceOnUse" x="-66" y="39" width="138" height="112">
<mask id="mask16_416_1405" style="mask-type:luminance" maskUnits="userSpaceOnUse" x="-66" y="39" width="138" height="112">
<mask id="mask17_416_1405" style="mask-type:luminance" maskUnits="userSpaceOnUse" x="-66" y="39" width="138" height="112">
<path d="M48.9 40.3C21.1001 42.7 -21.8999 69.3 -47.0999 99.4C-61.7999 117.1 -67.7999 133 -63.0999 142C-60.0999 147.8 -52.9999 150.3 -42.5999 149.4C-14.8999 147 28.2001 120.5 53.3001 90.3C68.1001 72.6 74 56.7 69.3 47.7C66.3 42 59.3 39.4 48.9 40.3ZM-46.5999 150.1C-54.9999 150.1 -60.8999 147.5 -63.5999 142.3C-68.3999 133.1 -62.3999 116.9 -47.4999 99.1C-22.2999 68.8 21.0001 42.2 48.8001 39.8C59.5001 38.9 66.7 41.5 69.8 47.5C74.6001 56.7 68.6001 72.8 53.8001 90.7C28.5001 120.9 -14.7 147.5 -42.5999 150C-43.9999 150.1 -45.2999 150.1 -46.5999 150.1Z" fill="white"/>
</mask>
<g mask="url(#mask17_416_1405)">
<path d="M-193 -78.7H929V1043.3H-193V-78.7Z" fill="white"/>
</g>
</mask>
<g mask="url(#mask16_416_1405)">
<path d="M48.9 40.3C21.1001 42.7 -21.8999 69.3 -47.0999 99.4C-61.7999 117.1 -67.7999 133 -63.0999 142C-60.0999 147.8 -52.9999 150.3 -42.5999 149.4C-14.8999 147 28.2001 120.5 53.3001 90.3C68.1001 72.6 74 56.7 69.3 47.7C66.3 42 59.3 39.4 48.9 40.3ZM-46.5999 150.1C-54.9999 150.1 -60.8999 147.5 -63.5999 142.3C-68.3999 133.1 -62.3999 116.9 -47.4999 99.1C-22.2999 68.8 21.0001 42.2 48.8001 39.8C59.5001 38.9 66.7 41.5 69.8 47.5C74.6001 56.7 68.6001 72.8 53.8001 90.7C28.5001 120.9 -14.7 147.5 -42.5999 150C-43.9999 150.1 -45.2999 150.1 -46.5999 150.1Z" fill="white"/>
</g>
</mask>
<g mask="url(#mask15_416_1405)">
<path d="M-193 -78.7H929V1043.3H-193V-78.7Z" fill="url(#paint5_linear_416_1405)"/>
</g>
<mask id="mask18_416_1405" style="mask-type:luminance" maskUnits="userSpaceOnUse" x="-69" y="39" width="144" height="112">
<mask id="mask19_416_1405" style="mask-type:luminance" maskUnits="userSpaceOnUse" x="-69" y="39" width="144" height="112">
<mask id="mask20_416_1405" style="mask-type:luminance" maskUnits="userSpaceOnUse" x="-69" y="39" width="144" height="112">
<path d="M53.3999 40.1001C25.5999 40.1001 -19.6001 64.8001 -47.3001 95.0001C-63.9001 113.2 -71.2 130.1 -66.7 140.3C-64 146.4 -57.3 149.6 -47.2 149.6C-19.3 149.6 25.8 125 53.5 94.7001C70.2 76.5001 77.3999 59.6001 72.8999 49.4001C70.2999 43.3001 63.5 40.1001 53.5 40.1001C53.4 40.1001 53.3999 40.1001 53.3999 40.1001ZM-47.2 150.2C-57.5 150.2 -64.4 146.8 -67.2 140.5C-71.8 130.2 -64.5 113 -47.7 94.7001C-19.9 64.3001 25.4999 39.6001 53.3999 39.6001C53.3999 39.6001 53.4 39.6001 53.5 39.6001C63.8 39.6001 70.7 42.9001 73.3999 49.2001C78 59.6001 70.7 76.7001 53.8999 95.1001C26.2 125.5 -19.2 150.2 -47.2 150.2Z" fill="white"/>
</mask>
<g mask="url(#mask20_416_1405)">
<path d="M-193 -78.7H929V1043.3H-193V-78.7Z" fill="white"/>
</g>
</mask>
<g mask="url(#mask19_416_1405)">
<path d="M53.3999 40.1001C25.5999 40.1001 -19.6001 64.8001 -47.3001 95.0001C-63.9001 113.2 -71.2 130.1 -66.7 140.3C-64 146.4 -57.3 149.6 -47.2 149.6C-19.3 149.6 25.8 125 53.5 94.7001C70.2 76.5001 77.3999 59.6001 72.8999 49.4001C70.2999 43.3001 63.5 40.1001 53.5 40.1001C53.4 40.1001 53.3999 40.1001 53.3999 40.1001ZM-47.2 150.2C-57.5 150.2 -64.4 146.8 -67.2 140.5C-71.8 130.2 -64.5 113 -47.7 94.7001C-19.9 64.3001 25.4999 39.6001 53.3999 39.6001C53.3999 39.6001 53.4 39.6001 53.5 39.6001C63.8 39.6001 70.7 42.9001 73.3999 49.2001C78 59.6001 70.7 76.7001 53.8999 95.1001C26.2 125.5 -19.2 150.2 -47.2 150.2Z" fill="white"/>
</g>
</mask>
<g mask="url(#mask18_416_1405)">
<path d="M-193 -78.7H929V1043.3H-193V-78.7Z" fill="url(#paint6_linear_416_1405)"/>
</g>
<mask id="mask21_416_1405" style="mask-type:luminance" maskUnits="userSpaceOnUse" x="-72" y="39" width="150" height="112">
<mask id="mask22_416_1405" style="mask-type:luminance" maskUnits="userSpaceOnUse" x="-72" y="39" width="150" height="112">
<mask id="mask23_416_1405" style="mask-type:luminance" maskUnits="userSpaceOnUse" x="-72" y="39" width="150" height="112">
<path d="M53.3999 40.1C25.2999 40.1 -18.5001 61.7 -47.1001 90.3C-65.7001 108.8 -74.3001 126.6 -70.2001 138.1C-67.8001 144.6 -61.5001 148.5 -51.8001 149.4C-24.1001 152.1 23.0999 129.7 53.3999 99.5C71.8999 81 80.4999 63.1 76.3999 51.7C74.0999 45.2 67.6999 41.3 57.9999 40.3C56.4999 40.2 54.9999 40.1 53.3999 40.1ZM-47.2001 150.2C-48.8001 150.2 -50.3001 150.1 -51.8001 150C-61.8001 149 -68.3001 145 -70.7001 138.3C-74.9001 126.6 -66.2001 108.5 -47.5001 89.9C-17.2001 59.6 30.1999 37.1 58.0999 39.8C67.9999 40.7 74.4999 44.8 76.8999 51.5C81.0999 63.1 72.4999 81.2 53.7999 99.9C24.9999 128.5 -18.9001 150.2 -47.2001 150.2Z" fill="white"/>
</mask>
<g mask="url(#mask23_416_1405)">
<path d="M-193 -78.7H929V1043.3H-193V-78.7Z" fill="white"/>
</g>
</mask>
<g mask="url(#mask22_416_1405)">
<path d="M53.3999 40.1C25.2999 40.1 -18.5001 61.7 -47.1001 90.3C-65.7001 108.8 -74.3001 126.6 -70.2001 138.1C-67.8001 144.6 -61.5001 148.5 -51.8001 149.4C-24.1001 152.1 23.0999 129.7 53.3999 99.5C71.8999 81 80.4999 63.1 76.3999 51.7C74.0999 45.2 67.6999 41.3 57.9999 40.3C56.4999 40.2 54.9999 40.1 53.3999 40.1ZM-47.2001 150.2C-48.8001 150.2 -50.3001 150.1 -51.8001 150C-61.8001 149 -68.3001 145 -70.7001 138.3C-74.9001 126.6 -66.2001 108.5 -47.5001 89.9C-17.2001 59.6 30.1999 37.1 58.0999 39.8C67.9999 40.7 74.4999 44.8 76.8999 51.5C81.0999 63.1 72.4999 81.2 53.7999 99.9C24.9999 128.5 -18.9001 150.2 -47.2001 150.2Z" fill="white"/>
</g>
</mask>
<g mask="url(#mask21_416_1405)">
<path d="M-193 -78.7H929V1043.3H-193V-78.7Z" fill="url(#paint7_linear_416_1405)"/>
</g>
<mask id="mask24_416_1405" style="mask-type:luminance" maskUnits="userSpaceOnUse" x="-75" y="39" width="157" height="112">
<mask id="mask25_416_1405" style="mask-type:luminance" maskUnits="userSpaceOnUse" x="-75" y="39" width="157" height="112">
<mask id="mask26_416_1405" style="mask-type:luminance" maskUnits="userSpaceOnUse" x="-75" y="39" width="157" height="112">
<path d="M52.6001 40.1001C24.4001 40.1001 -17.3999 58.6001 -46.4999 85.1001C-66.9999 103.7 -77.0999 122.5 -73.4999 135.3C-71.5999 142.2 -65.5999 146.9 -56.2999 148.7C-53.1999 149.4 -49.8999 149.7 -46.2999 149.7C-18.0999 149.7 23.7001 131.1 52.8001 104.7C73.2001 86.0001 83.3 67.3001 79.8 54.5001C77.8 47.5001 71.9001 42.9001 62.6001 41.0001C59.5001 40.4001 56.1001 40.1001 52.6001 40.1001ZM-46.2999 150.2C-49.8999 150.2 -53.2999 149.9 -56.3999 149.3C-65.9999 147.4 -72.0999 142.6 -74.0999 135.4C-77.6999 122.4 -67.4999 103.4 -46.8999 84.7001C-13.9999 54.8001 35.1001 34.9001 62.7001 40.4001C72.2001 42.4001 78.3 47.2001 80.3 54.3001C83.9001 67.3001 73.8001 86.3001 53.1001 105.1C24.0001 131.6 -17.9999 150.2 -46.2999 150.2Z" fill="white"/>
</mask>
<g mask="url(#mask26_416_1405)">
<path d="M-193 -78.7H929V1043.3H-193V-78.7Z" fill="white"/>
</g>
</mask>
<g mask="url(#mask25_416_1405)">
<path d="M52.6001 40.1001C24.4001 40.1001 -17.3999 58.6001 -46.4999 85.1001C-66.9999 103.7 -77.0999 122.5 -73.4999 135.3C-71.5999 142.2 -65.5999 146.9 -56.2999 148.7C-53.1999 149.4 -49.8999 149.7 -46.2999 149.7C-18.0999 149.7 23.7001 131.1 52.8001 104.7C73.2001 86.0001 83.3 67.3001 79.8 54.5001C77.8 47.5001 71.9001 42.9001 62.6001 41.0001C59.5001 40.4001 56.1001 40.1001 52.6001 40.1001ZM-46.2999 150.2C-49.8999 150.2 -53.2999 149.9 -56.3999 149.3C-65.9999 147.4 -72.0999 142.6 -74.0999 135.4C-77.6999 122.4 -67.4999 103.4 -46.8999 84.7001C-13.9999 54.8001 35.1001 34.9001 62.7001 40.4001C72.2001 42.4001 78.3 47.2001 80.3 54.3001C83.9001 67.3001 73.8001 86.3001 53.1001 105.1C24.0001 131.6 -17.9999 150.2 -46.2999 150.2Z" fill="white"/>
</g>
</mask>
<g mask="url(#mask24_416_1405)">
<path d="M-193 -78.6998H929V1043.3H-193V-78.6998Z" fill="url(#paint8_linear_416_1405)"/>
</g>
<mask id="mask27_416_1405" style="mask-type:luminance" maskUnits="userSpaceOnUse" x="-78" y="39" width="162" height="112">
<mask id="mask28_416_1405" style="mask-type:luminance" maskUnits="userSpaceOnUse" x="-78" y="39" width="162" height="112">
<mask id="mask29_416_1405" style="mask-type:luminance" maskUnits="userSpaceOnUse" x="-78" y="39" width="162" height="112">
<path d="M50.8 39.9C22.9 39.9 -16.4 55.5 -45.5 79.6C-67.8 98 -79.4 117.6 -76.7 131.8C-75.2 139.3 -69.7 144.8 -60.8 147.6C-34 156.1 16.5 139.4 51.7 110.2C74 91.7 85.7 72.2 82.9 57.9C81.5 50.4 76 45 67 42.1C62.3 40.6 56.8 39.9 50.8 39.9ZM-44.6 150.4C-50.7 150.4 -56.2 149.7 -60.9 148.1C-70.1 145.2 -75.7 139.6 -77.2 131.9C-80 117.5 -68.3 97.7 -45.8 79.1C-10.5 49.8 40.2 33 67.2 41.6C76.3 44.5 82 50.1 83.5 57.8C86.3 72.3 74.5 92 52.1 110.6C23 134.7 -16.5 150.4 -44.6 150.4Z" fill="white"/>
</mask>
<g mask="url(#mask29_416_1405)">
<path d="M-193 -78.7H929V1043.3H-193V-78.7Z" fill="white"/>
</g>
</mask>
<g mask="url(#mask28_416_1405)">
<path d="M50.8 39.9C22.9 39.9 -16.4 55.5 -45.5 79.6C-67.8 98 -79.4 117.6 -76.7 131.8C-75.2 139.3 -69.7 144.8 -60.8 147.6C-34 156.1 16.5 139.4 51.7 110.2C74 91.7 85.7 72.2 82.9 57.9C81.5 50.4 76 45 67 42.1C62.3 40.6 56.8 39.9 50.8 39.9ZM-44.6 150.4C-50.7 150.4 -56.2 149.7 -60.9 148.1C-70.1 145.2 -75.7 139.6 -77.2 131.9C-80 117.5 -68.3 97.7 -45.8 79.1C-10.5 49.8 40.2 33 67.2 41.6C76.3 44.5 82 50.1 83.5 57.8C86.3 72.3 74.5 92 52.1 110.6C23 134.7 -16.5 150.4 -44.6 150.4Z" fill="white"/>
</g>
</mask>
<g mask="url(#mask27_416_1405)">
<path d="M-193 -78.7001H929V1043.3H-193V-78.7001Z" fill="url(#paint9_linear_416_1405)"/>
</g>
<mask id="mask30_416_1405" style="mask-type:luminance" maskUnits="userSpaceOnUse" x="-81" y="38" width="168" height="113">
<mask id="mask31_416_1405" style="mask-type:luminance" maskUnits="userSpaceOnUse" x="-81" y="38" width="168" height="113">
<mask id="mask32_416_1405" style="mask-type:luminance" maskUnits="userSpaceOnUse" x="-81" y="38" width="168" height="113">
<path d="M48.1 39.4999C20.8 39.4999 -15.6 52.3999 -43.9 73.6999C-68 91.6999 -81.3 111.9 -79.5 127.7C-78.7 135.7 -73.7 142.1 -65.1 145.9C-39.2 157.7 12.6 144.3 50.2 116.1C74.2 98.0999 87.4999 77.8999 85.7999 62.0999C84.8999 53.9999 79.8999 47.6999 71.3999 43.7999C65 40.8999 57 39.4999 48.1 39.4999ZM-41.9 150.8C-50.9 150.8 -58.9001 149.4 -65.4001 146.4C-74.1 142.5 -79.2 136 -80.1 127.7C-81.8 111.7 -68.4001 91.3999 -44.3001 73.1999C-6.50005 44.8999 45.5 31.3999 71.6 43.2999C80.3 47.2999 85.3999 53.6999 86.3999 61.9999C88.0999 77.9999 74.7 98.3999 50.5 116.5C22.1 137.9 -14.4 150.8 -41.9 150.8Z" fill="white"/>
</mask>
<g mask="url(#mask32_416_1405)">
<path d="M-193 -78.7001H929V1043.3H-193V-78.7001Z" fill="white"/>
</g>
</mask>
<g mask="url(#mask31_416_1405)">
<path d="M48.1 39.4999C20.8 39.4999 -15.6 52.3999 -43.9 73.6999C-68 91.6999 -81.3 111.9 -79.5 127.7C-78.7 135.7 -73.7 142.1 -65.1 145.9C-39.2 157.7 12.6 144.3 50.2 116.1C74.2 98.0999 87.4999 77.8999 85.7999 62.0999C84.8999 53.9999 79.8999 47.6999 71.3999 43.7999C65 40.8999 57 39.4999 48.1 39.4999ZM-41.9 150.8C-50.9 150.8 -58.9001 149.4 -65.4001 146.4C-74.1 142.5 -79.2 136 -80.1 127.7C-81.8 111.7 -68.4001 91.3999 -44.3001 73.1999C-6.50005 44.8999 45.5 31.3999 71.6 43.2999C80.3 47.2999 85.3999 53.6999 86.3999 61.9999C88.0999 77.9999 74.7 98.3999 50.5 116.5C22.1 137.9 -14.4 150.8 -41.9 150.8Z" fill="white"/>
</g>
</mask>
<g mask="url(#mask30_416_1405)">
<path d="M-193 -78.7001H929V1043.3H-193V-78.7001Z" fill="url(#paint10_linear_416_1405)"/>
</g>
<mask id="mask33_416_1405" style="mask-type:luminance" maskUnits="userSpaceOnUse" x="-83" y="38" width="172" height="114">
<mask id="mask34_416_1405" style="mask-type:luminance" maskUnits="userSpaceOnUse" x="-83" y="38" width="172" height="114">
<mask id="mask35_416_1405" style="mask-type:luminance" maskUnits="userSpaceOnUse" x="-83" y="38" width="172" height="114">
<path d="M44.3001 38.8C18.1001 38.8 -14.7999 49.1 -41.8999 67.4C-67.3999 84.7 -82.4999 105.3 -82.0999 122.6C-81.8999 131.4 -77.4999 138.7 -69.2999 143.7C-44.4999 158.9 8.2001 149.3 48.1001 122.3C73.7001 105 88.7001 84.4 88.3001 67.1C88.1001 58.3 83.7001 51 75.6001 46C67.6001 41.1 56.7001 38.8 44.3001 38.8ZM-37.9999 151.5C-50.5999 151.5 -61.4999 149.1 -69.5999 144.2C-77.8999 139.1 -82.3999 131.6 -82.5999 122.6C-82.9999 105.2 -67.8999 84.4 -42.1999 67C-2.09991 39.8 50.9001 30.2 75.9001 45.5C84.2001 50.6 88.7001 58.1 88.9001 67.1C89.3001 84.6 74.2001 105.4 48.4001 122.8C21.3001 141.2 -11.7999 151.5 -37.9999 151.5Z" fill="white"/>
</mask>
<g mask="url(#mask35_416_1405)">
<path d="M-193 -78.7H929V1043.3H-193V-78.7Z" fill="white"/>
</g>
</mask>
<g mask="url(#mask34_416_1405)">
<path d="M44.3001 38.8C18.1001 38.8 -14.7999 49.1 -41.8999 67.4C-67.3999 84.7 -82.4999 105.3 -82.0999 122.6C-81.8999 131.4 -77.4999 138.7 -69.2999 143.7C-44.4999 158.9 8.2001 149.3 48.1001 122.3C73.7001 105 88.7001 84.4 88.3001 67.1C88.1001 58.3 83.7001 51 75.6001 46C67.6001 41.1 56.7001 38.8 44.3001 38.8ZM-37.9999 151.5C-50.5999 151.5 -61.4999 149.1 -69.5999 144.2C-77.8999 139.1 -82.3999 131.6 -82.5999 122.6C-82.9999 105.2 -67.8999 84.4 -42.1999 67C-2.09991 39.8 50.9001 30.2 75.9001 45.5C84.2001 50.6 88.7001 58.1 88.9001 67.1C89.3001 84.6 74.2001 105.4 48.4001 122.8C21.3001 141.2 -11.7999 151.5 -37.9999 151.5Z" fill="white"/>
</g>
</mask>
<g mask="url(#mask33_416_1405)">
<path d="M-193 -78.7H929V1043.3H-193V-78.7Z" fill="url(#paint11_linear_416_1405)"/>
</g>
<mask id="mask36_416_1405" style="mask-type:luminance" maskUnits="userSpaceOnUse" x="-85" y="37" width="177" height="116">
<mask id="mask37_416_1405" style="mask-type:luminance" maskUnits="userSpaceOnUse" x="-85" y="37" width="177" height="116">
<mask id="mask38_416_1405" style="mask-type:luminance" maskUnits="userSpaceOnUse" x="-85" y="37" width="177" height="116">
<path d="M39.3999 37.6C14.9999 37.6 -14.1001 45.6 -39.3001 60.9C-66.1001 77.1001 -82.9001 97.9 -84.2001 116.6C-84.8001 126.3 -81.1001 134.7 -73.3001 140.9C-49.9001 159.8 3.39989 154.4 45.5999 128.9C72.3999 112.7 89.1999 91.8 90.3999 73.2C91.0999 63.5 87.2999 55.1 79.4999 48.8C70.0999 41.2 55.8999 37.6 39.3999 37.6ZM-33.2001 152.7C-49.7001 152.7 -64.1001 149 -73.6001 141.4C-81.5001 135 -85.4001 126.4 -84.7001 116.6C-83.5001 97.7 -66.6001 76.7001 -39.6001 60.4C2.69987 34.8 56.2999 29.4 79.8999 48.4C87.7999 54.7 91.5999 63.3 90.9999 73.2C89.6999 92.1 72.7999 113.1 45.8999 129.4C20.5999 144.6 -8.70012 152.7 -33.2001 152.7Z" fill="white"/>
</mask>
<g mask="url(#mask38_416_1405)">
<path d="M-193 -78.7H929V1043.3H-193V-78.7Z" fill="white"/>
</g>
</mask>
<g mask="url(#mask37_416_1405)">
<path d="M39.3999 37.6C14.9999 37.6 -14.1001 45.6 -39.3001 60.9C-66.1001 77.1001 -82.9001 97.9 -84.2001 116.6C-84.8001 126.3 -81.1001 134.7 -73.3001 140.9C-49.9001 159.8 3.39989 154.4 45.5999 128.9C72.3999 112.7 89.1999 91.8 90.3999 73.2C91.0999 63.5 87.2999 55.1 79.4999 48.8C70.0999 41.2 55.8999 37.6 39.3999 37.6ZM-33.2001 152.7C-49.7001 152.7 -64.1001 149 -73.6001 141.4C-81.5001 135 -85.4001 126.4 -84.7001 116.6C-83.5001 97.7 -66.6001 76.7001 -39.6001 60.4C2.69987 34.8 56.2999 29.4 79.8999 48.4C87.7999 54.7 91.5999 63.3 90.9999 73.2C89.6999 92.1 72.7999 113.1 45.8999 129.4C20.5999 144.6 -8.70012 152.7 -33.2001 152.7Z" fill="white"/>
</g>
</mask>
<g mask="url(#mask36_416_1405)">
<path d="M-193 -78.7H929V1043.3H-193V-78.7Z" fill="url(#paint12_linear_416_1405)"/>
</g>
<mask id="mask39_416_1405" style="mask-type:luminance" maskUnits="userSpaceOnUse" x="-87" y="35" width="180" height="120">
<mask id="mask40_416_1405" style="mask-type:luminance" maskUnits="userSpaceOnUse" x="-87" y="35" width="180" height="120">
<mask id="mask41_416_1405" style="mask-type:luminance" maskUnits="userSpaceOnUse" x="-87" y="35" width="180" height="120">
<path d="M33.8 35.8002C11.7 35.8002 -13.5 41.9002 -36.2 54.0002C-64 68.8002 -82.5 89.6002 -85.6 109.5C-87.3 120.2 -84.4 129.9 -77 137.5C-55.3 160.1 -1.8 159.3 42.4 135.8C70.2 120.9 88.7 100.2 91.9 80.3002C93.6 69.6002 90.6 59.9002 83.3 52.2002C72.7 41.2002 54.7 35.8002 33.8 35.8002ZM-27.5 154.5C-48.6 154.5 -66.8 149 -77.4 137.9C-84.9 130.1 -87.9 120.3 -86.2 109.4C-83 89.3002 -64.4 68.4002 -36.4 53.5002C8.00002 29.8002 61.8 29.1002 83.7 51.8002C91.1 59.6002 94.2 69.5002 92.4 80.3002C89.2 100.4 70.6 121.3 42.7 136.2C19.9 148.4 -5.39999 154.5 -27.5 154.5Z" fill="white"/>
</mask>
<g mask="url(#mask41_416_1405)">
<path d="M-193 -78.6998H929V1043.3H-193V-78.6998Z" fill="white"/>
</g>
</mask>
<g mask="url(#mask40_416_1405)">
<path d="M33.8 35.8002C11.7 35.8002 -13.5 41.9002 -36.2 54.0002C-64 68.8002 -82.5 89.6002 -85.6 109.5C-87.3 120.2 -84.4 129.9 -77 137.5C-55.3 160.1 -1.8 159.3 42.4 135.8C70.2 120.9 88.7 100.2 91.9 80.3002C93.6 69.6002 90.6 59.9002 83.3 52.2002C72.7 41.2002 54.7 35.8002 33.8 35.8002ZM-27.5 154.5C-48.6 154.5 -66.8 149 -77.4 137.9C-84.9 130.1 -87.9 120.3 -86.2 109.4C-83 89.3002 -64.4 68.4002 -36.4 53.5002C8.00002 29.8002 61.8 29.1002 83.7 51.8002C91.1 59.6002 94.2 69.5002 92.4 80.3002C89.2 100.4 70.6 121.3 42.7 136.2C19.9 148.4 -5.39999 154.5 -27.5 154.5Z" fill="white"/>
</g>
</mask>
<g mask="url(#mask39_416_1405)">
<path d="M-193 -78.6998H929V1043.3H-193V-78.6998Z" fill="url(#paint13_linear_416_1405)"/>
</g>
<mask id="mask42_416_1405" style="mask-type:luminance" maskUnits="userSpaceOnUse" x="-89" y="32" width="184" height="126">
<mask id="mask43_416_1405" style="mask-type:luminance" maskUnits="userSpaceOnUse" x="-89" y="32" width="184" height="126">
<mask id="mask44_416_1405" style="mask-type:luminance" maskUnits="userSpaceOnUse" x="-89" y="32" width="184" height="126">
<path d="M27.7001 33.2001C8.50006 33.2001 -12.6999 37.7001 -32.4999 46.9001C-60.7999 60.0001 -80.9999 80.3001 -86.2999 101.2C-89.2999 113 -87.2999 124.2 -80.3999 133.5C-60.7999 160 -7.39994 164.2 38.7001 142.9C67.1001 129.7 87.2001 109.4 92.6001 88.5001C95.6001 76.7001 93.5001 65.5001 86.7001 56.2001C75.5001 41.1001 53.3001 33.2001 27.7001 33.2001ZM-21.3999 157.1C-47.1999 157.1 -69.5999 149.1 -80.8999 133.8C-87.7999 124.4 -89.8999 113.1 -86.7999 101.1C-81.4999 80.0001 -61.1999 59.6001 -32.6999 46.3001C13.6001 24.9001 67.3001 29.2001 87.1001 55.9001C94.1001 65.3001 96.2001 76.7001 93.1001 88.7001C87.7001 109.7 67.5001 130.2 38.9001 143.4C19.1001 152.6 -2.09993 157.1 -21.3999 157.1Z" fill="white"/>
</mask>
<g mask="url(#mask44_416_1405)">
<path d="M-193 -78.7H929V1043.3H-193V-78.7Z" fill="white"/>
</g>
</mask>
<g mask="url(#mask43_416_1405)">
<path d="M27.7001 33.2001C8.50006 33.2001 -12.6999 37.7001 -32.4999 46.9001C-60.7999 60.0001 -80.9999 80.3001 -86.2999 101.2C-89.2999 113 -87.2999 124.2 -80.3999 133.5C-60.7999 160 -7.39994 164.2 38.7001 142.9C67.1001 129.7 87.2001 109.4 92.6001 88.5001C95.6001 76.7001 93.5001 65.5001 86.7001 56.2001C75.5001 41.1001 53.3001 33.2001 27.7001 33.2001ZM-21.3999 157.1C-47.1999 157.1 -69.5999 149.1 -80.8999 133.8C-87.7999 124.4 -89.8999 113.1 -86.7999 101.1C-81.4999 80.0001 -61.1999 59.6001 -32.6999 46.3001C13.6001 24.9001 67.3001 29.2001 87.1001 55.9001C94.1001 65.3001 96.2001 76.7001 93.1001 88.7001C87.7001 109.7 67.5001 130.2 38.9001 143.4C19.1001 152.6 -2.09993 157.1 -21.3999 157.1Z" fill="white"/>
</g>
</mask>
<g mask="url(#mask42_416_1405)">
<path d="M-193 -78.7H929V1043.3H-193V-78.7Z" fill="url(#paint14_linear_416_1405)"/>
</g>
<mask id="mask45_416_1405" style="mask-type:luminance" maskUnits="userSpaceOnUse" x="-90" y="29" width="186" height="132">
<mask id="mask46_416_1405" style="mask-type:luminance" maskUnits="userSpaceOnUse" x="-90" y="29" width="186" height="132">
<mask id="mask47_416_1405" style="mask-type:luminance" maskUnits="userSpaceOnUse" x="-90" y="29" width="186" height="132">
<path d="M21.6001 29.9C5.5001 29.9 -11.5999 33 -28.0999 39.5C-56.6999 50.7 -78.3999 70.2 -85.9999 91.7C-90.5999 104.8 -89.7999 117.6 -83.4999 128.8C-66.1999 159.4 -13.3999 169 34.4001 150.3C63.0001 139 84.6001 119.5 92.2001 98C96.9001 85 96.0001 72.1 89.7001 60.9C78.4001 40.9 51.9001 29.9 21.6001 29.9ZM-15.2999 160.4C-45.8999 160.4 -72.5999 149.3 -83.8999 129.1C-90.2999 117.7 -91.1999 104.7 -86.4999 91.5C-78.7999 69.9 -57.0999 50.2 -28.2999 39C19.7001 20.1 72.8001 29.9 90.2001 60.7C96.6001 72 97.5001 85 92.8001 98.2C85.1001 119.9 63.3001 139.5 34.6001 150.8C18.0001 157.3 0.800087 160.4 -15.2999 160.4Z" fill="white"/>
</mask>
<g mask="url(#mask47_416_1405)">
<path d="M-193 -78.7H929V1043.3H-193V-78.7Z" fill="white"/>
</g>
</mask>
<g mask="url(#mask46_416_1405)">
<path d="M21.6001 29.9C5.5001 29.9 -11.5999 33 -28.0999 39.5C-56.6999 50.7 -78.3999 70.2 -85.9999 91.7C-90.5999 104.8 -89.7999 117.6 -83.4999 128.8C-66.1999 159.4 -13.3999 169 34.4001 150.3C63.0001 139 84.6001 119.5 92.2001 98C96.9001 85 96.0001 72.1 89.7001 60.9C78.4001 40.9 51.9001 29.9 21.6001 29.9ZM-15.2999 160.4C-45.8999 160.4 -72.5999 149.3 -83.8999 129.1C-90.2999 117.7 -91.1999 104.7 -86.4999 91.5C-78.7999 69.9 -57.0999 50.2 -28.2999 39C19.7001 20.1 72.8001 29.9 90.2001 60.7C96.6001 72 97.5001 85 92.8001 98.2C85.1001 119.9 63.3001 139.5 34.6001 150.8C18.0001 157.3 0.800087 160.4 -15.2999 160.4Z" fill="white"/>
</g>
</mask>
<g mask="url(#mask45_416_1405)">
<path d="M-193 -78.7H929V1043.3H-193V-78.7Z" fill="url(#paint15_linear_416_1405)"/>
</g>
<mask id="mask48_416_1405" style="mask-type:luminance" maskUnits="userSpaceOnUse" x="-91" y="25" width="188" height="140">
<mask id="mask49_416_1405" style="mask-type:luminance" maskUnits="userSpaceOnUse" x="-91" y="25" width="188" height="140">
<mask id="mask50_416_1405" style="mask-type:luminance" maskUnits="userSpaceOnUse" x="-91" y="25" width="188" height="140">
<path d="M15.9001 25.7001C3.20007 25.7001 -10.0999 27.7001 -23.1999 31.9001C-51.5999 41.0001 -74.4999 59.3001 -84.4999 81.0001C-91.0999 95.3001 -91.6999 110 -86.0999 123.4C-75.3999 148.9 -44.6999 164 -9.69992 164C3.00008 164 16.3001 162 29.4001 157.8C57.8001 148.7 80.8001 130.4 90.7001 108.8C97.4001 94.4001 97.9001 79.7001 92.3001 66.3001C81.7001 40.8001 51.0001 25.7001 15.9001 25.7001ZM-9.59993 164.6C-44.8999 164.6 -75.8999 149.4 -86.5999 123.7C-92.1999 110.1 -91.6999 95.2001 -84.9999 80.7001C-74.8999 59.0001 -51.8999 40.5001 -23.2999 31.4001C26.1001 15.5001 78.2001 31.1002 92.8001 66.1002C98.5001 79.6002 97.9001 94.5001 91.2001 109C81.2001 130.8 58.2001 149.2 29.6001 158.4C16.5001 162.6 3.10007 164.6 -9.59993 164.6Z" fill="white"/>
</mask>
<g mask="url(#mask50_416_1405)">
<path d="M-193 -78.6998H929V1043.3H-193V-78.6998Z" fill="white"/>
</g>
</mask>
<g mask="url(#mask49_416_1405)">
<path d="M15.9001 25.7001C3.20007 25.7001 -10.0999 27.7001 -23.1999 31.9001C-51.5999 41.0001 -74.4999 59.3001 -84.4999 81.0001C-91.0999 95.3001 -91.6999 110 -86.0999 123.4C-75.3999 148.9 -44.6999 164 -9.69992 164C3.00008 164 16.3001 162 29.4001 157.8C57.8001 148.7 80.8001 130.4 90.7001 108.8C97.4001 94.4001 97.9001 79.7001 92.3001 66.3001C81.7001 40.8001 51.0001 25.7001 15.9001 25.7001ZM-9.59993 164.6C-44.8999 164.6 -75.8999 149.4 -86.5999 123.7C-92.1999 110.1 -91.6999 95.2001 -84.9999 80.7001C-74.8999 59.0001 -51.8999 40.5001 -23.2999 31.4001C26.1001 15.5001 78.2001 31.1002 92.8001 66.1002C98.5001 79.6002 97.9001 94.5001 91.2001 109C81.2001 130.8 58.2001 149.2 29.6001 158.4C16.5001 162.6 3.10007 164.6 -9.59993 164.6Z" fill="white"/>
</g>
</mask>
<g mask="url(#mask48_416_1405)">
<path d="M-193 -78.6998H929V1043.3H-193V-78.6998Z" fill="url(#paint16_linear_416_1405)"/>
</g>
<mask id="mask51_416_1405" style="mask-type:luminance" maskUnits="userSpaceOnUse" x="-92" y="20" width="190" height="150">
<mask id="mask52_416_1405" style="mask-type:luminance" maskUnits="userSpaceOnUse" x="-92" y="20" width="190" height="150">
<mask id="mask53_416_1405" style="mask-type:luminance" maskUnits="userSpaceOnUse" x="-92" y="20" width="190" height="150">
<path d="M11.1001 20.7001C1.7001 20.7001 -7.89992 21.8001 -17.5999 24.2001C-45.8999 31.1001 -69.1999 47.5001 -81.5999 69.1001C-90.5999 84.7001 -92.8999 101.4 -88.1999 117.4C-78.9999 148.9 -44.3999 169.1 -4.79991 169.1C4.60009 169.1 14.2001 167.9 23.8001 165.6C52.1001 158.6 75.4001 142.2 87.8001 120.7C96.9001 105 99.1001 88.3001 94.5001 72.4001C85.2001 40.8001 50.6001 20.7001 11.1001 20.7001ZM-4.79991 169.6C-44.5999 169.6 -79.4999 149.3 -88.7999 117.5C-93.4999 101.4 -91.1999 84.6001 -82.0999 68.8001C-69.5999 47.1001 -46.0999 30.6001 -17.6999 23.6001C32.9001 11.1001 83.5001 32.9001 95.0001 72.2001C99.7001 88.3001 97.4001 105.2 88.3001 121C75.8001 142.7 52.4001 159.1 24.0001 166.1C14.3001 168.5 4.60009 169.6 -4.79991 169.6Z" fill="white"/>
</mask>
<g mask="url(#mask53_416_1405)">
<path d="M-193 -78.6998H929V1043.3H-193V-78.6998Z" fill="white"/>
</g>
</mask>
<g mask="url(#mask52_416_1405)">
<path d="M11.1001 20.7001C1.7001 20.7001 -7.89992 21.8001 -17.5999 24.2001C-45.8999 31.1001 -69.1999 47.5001 -81.5999 69.1001C-90.5999 84.7001 -92.8999 101.4 -88.1999 117.4C-78.9999 148.9 -44.3999 169.1 -4.79991 169.1C4.60009 169.1 14.2001 167.9 23.8001 165.6C52.1001 158.6 75.4001 142.2 87.8001 120.7C96.9001 105 99.1001 88.3001 94.5001 72.4001C85.2001 40.8001 50.6001 20.7001 11.1001 20.7001ZM-4.79991 169.6C-44.5999 169.6 -79.4999 149.3 -88.7999 117.5C-93.4999 101.4 -91.1999 84.6001 -82.0999 68.8001C-69.5999 47.1001 -46.0999 30.6001 -17.6999 23.6001C32.9001 11.1001 83.5001 32.9001 95.0001 72.2001C99.7001 88.3001 97.4001 105.2 88.3001 121C75.8001 142.7 52.4001 159.1 24.0001 166.1C14.3001 168.5 4.60009 169.6 -4.79991 169.6Z" fill="white"/>
</g>
</mask>
<g mask="url(#mask51_416_1405)">
<path d="M-193 -78.6998H929V1043.3H-193V-78.6998Z" fill="url(#paint17_linear_416_1405)"/>
</g>
<mask id="mask54_416_1405" style="mask-type:luminance" maskUnits="userSpaceOnUse" x="-92" y="14" width="190" height="162">
<mask id="mask55_416_1405" style="mask-type:luminance" maskUnits="userSpaceOnUse" x="-92" y="14" width="190" height="162">
<mask id="mask56_416_1405" style="mask-type:luminance" maskUnits="userSpaceOnUse" x="-92" y="14" width="190" height="162">
<path d="M7.19991 14.8C1.09991 14.8 -5.1001 15.3 -11.3001 16.3C-38.7001 21 -62.7001 35.5 -77.2001 56.1C-88.8001 72.7 -93.3001 92 -89.8001 110.6C-82.8001 148.6 -44.8001 175 -1.00009 175C5.09991 175 11.2999 174.5 17.5999 173.4C44.9999 168.8 68.9999 154.3 83.3999 133.6C94.9999 117.1 99.4999 97.7 96.0999 79.1C89.0999 41.1 51.0999 14.8 7.19991 14.8ZM-1.00009 175.5C-45.1001 175.5 -83.3001 149 -90.4001 110.7C-93.8001 92 -89.3001 72.5 -77.6001 55.8C-63.1001 35 -39.0001 20.4 -11.4001 15.8C40.0999 7.1 88.5999 35.4 96.5999 79C100.1 97.8 95.5999 117.2 83.8999 133.9C69.2999 154.7 45.1999 169.3 17.6999 174C11.3999 175 5.19991 175.5 -1.00009 175.5Z" fill="white"/>
</mask>
<g mask="url(#mask56_416_1405)">
<path d="M-193 -78.7H929V1043.3H-193V-78.7Z" fill="white"/>
</g>
</mask>
<g mask="url(#mask55_416_1405)">
<path d="M7.19991 14.8C1.09991 14.8 -5.1001 15.3 -11.3001 16.3C-38.7001 21 -62.7001 35.5 -77.2001 56.1C-88.8001 72.7 -93.3001 92 -89.8001 110.6C-82.8001 148.6 -44.8001 175 -1.00009 175C5.09991 175 11.2999 174.5 17.5999 173.4C44.9999 168.8 68.9999 154.3 83.3999 133.6C94.9999 117.1 99.4999 97.7 96.0999 79.1C89.0999 41.1 51.0999 14.8 7.19991 14.8ZM-1.00009 175.5C-45.1001 175.5 -83.3001 149 -90.4001 110.7C-93.8001 92 -89.3001 72.5 -77.6001 55.8C-63.1001 35 -39.0001 20.4 -11.4001 15.8C40.0999 7.1 88.5999 35.4 96.5999 79C100.1 97.8 95.5999 117.2 83.8999 133.9C69.2999 154.7 45.1999 169.3 17.6999 174C11.3999 175 5.19991 175.5 -1.00009 175.5Z" fill="white"/>
</g>
</mask>
<g mask="url(#mask54_416_1405)">
<path d="M-193 -78.7H929V1043.3H-193V-78.7Z" fill="url(#paint18_linear_416_1405)"/>
</g>
<mask id="mask57_416_1405" style="mask-type:luminance" maskUnits="userSpaceOnUse" x="-92" y="7" width="190" height="176">
<mask id="mask58_416_1405" style="mask-type:luminance" maskUnits="userSpaceOnUse" x="-92" y="7" width="190" height="176">
<mask id="mask59_416_1405" style="mask-type:luminance" maskUnits="userSpaceOnUse" x="-92" y="7" width="190" height="176">
<g clip-path="url(#clip0_416_1405)">
<path d="M4.70008 8.00001C1.60008 8.00001 -1.39991 8.20001 -4.39991 8.40001C-56.2999 13 -94.9999 55.4 -90.8999 103.1C-86.8999 148 -46.2999 181.7 1.70008 181.7C4.70008 181.7 7.70008 181.6 10.7001 181.3C35.8001 179.1 58.6001 168.1 74.9001 150.2C91.3001 132.3 99.1001 109.7 97.1001 86.6C95.1001 63.6 83.4001 42.7 64.2001 27.9C47.4001 15 26.5001 8.00001 4.70008 8.00001ZM1.70008 182.3C-46.5999 182.3 -87.4999 148.3 -91.3999 103.1C-95.5999 55.2 -56.5999 12.4 -4.49992 7.90001C20.8001 5.70001 45.3001 12.6 64.6001 27.5C83.9001 42.4 95.6001 63.4 97.7001 86.6C99.7001 109.8 91.8001 132.6 75.3001 150.5C58.9001 168.5 36.0001 179.7 10.7001 181.9C7.70008 182.1 4.70008 182.3 1.70008 182.3Z" fill="white"/>
</g>
</mask>
<g mask="url(#mask59_416_1405)">
<path d="M-193 -78.7H929V1043.3H-193V-78.7Z" fill="white"/>
</g>
</mask>
<g mask="url(#mask58_416_1405)">
<path d="M4.70008 8.00001C1.60008 8.00001 -1.39991 8.20001 -4.39991 8.40001C-56.2999 13 -94.9999 55.4 -90.8999 103.1C-86.8999 148 -46.2999 181.7 1.70008 181.7C4.70008 181.7 7.70008 181.6 10.7001 181.3C35.8001 179.1 58.6001 168.1 74.9001 150.2C91.3001 132.3 99.1001 109.7 97.1001 86.6C95.1001 63.6 83.4001 42.7 64.2001 27.9C47.4001 15 26.5001 8.00001 4.70008 8.00001ZM1.70008 182.3C-46.5999 182.3 -87.4999 148.3 -91.3999 103.1C-95.5999 55.2 -56.5999 12.4 -4.49992 7.90001C20.8001 5.70001 45.3001 12.6 64.6001 27.5C83.9001 42.4 95.6001 63.4 97.7001 86.6C99.7001 109.8 91.8001 132.6 75.3001 150.5C58.9001 168.5 36.0001 179.7 10.7001 181.9C7.70008 182.1 4.70008 182.3 1.70008 182.3Z" fill="white"/>
</g>
</mask>
<g mask="url(#mask57_416_1405)">
<path d="M-193 -78.7H929V1043.3H-193V-78.7Z" fill="url(#paint19_linear_416_1405)"/>
</g>
<mask id="mask60_416_1405" style="mask-type:luminance" maskUnits="userSpaceOnUse" x="-92" y="0" width="190" height="190">
<mask id="mask61_416_1405" style="mask-type:luminance" maskUnits="userSpaceOnUse" x="-92" y="0" width="190" height="190">
<mask id="mask62_416_1405" style="mask-type:luminance" maskUnits="userSpaceOnUse" x="-92" y="0" width="190" height="190">
<path d="M3.09996 0.5C-48.9 0.5 -91.2 42.9 -91.2 94.9C-91.2 146.9 -48.9 189.2 3.09996 189.2C55.1 189.2 97.5 146.9 97.5 94.9C97.5 42.9 55.1 0.5 3.09996 0.5ZM3.09996 189.8C-49.2 189.8 -91.8 147.2 -91.8 94.9C-91.8 42.5 -49.2 0 3.09996 0C55.5 0 98 42.5 98 94.9C98 147.2 55.5 189.8 3.09996 189.8Z" fill="white"/>
</mask>
<g mask="url(#mask62_416_1405)">
<path d="M-193 -78.7H929V1043.3H-193V-78.7Z" fill="white"/>
</g>
</mask>
<g mask="url(#mask61_416_1405)">
<path d="M3.09996 0.5C-48.9 0.5 -91.2 42.9 -91.2 94.9C-91.2 146.9 -48.9 189.2 3.09996 189.2C55.1 189.2 97.5 146.9 97.5 94.9C97.5 42.9 55.1 0.5 3.09996 0.5ZM3.09996 189.8C-49.2 189.8 -91.8 147.2 -91.8 94.9C-91.8 42.5 -49.2 0 3.09996 0C55.5 0 98 42.5 98 94.9C98 147.2 55.5 189.8 3.09996 189.8Z" fill="white"/>
</g>
</mask>
<g mask="url(#mask60_416_1405)">
<path d="M-193 -78.7H929V1043.3H-193V-78.7Z" fill="url(#paint20_linear_416_1405)"/>
</g>
</g>
<defs>
<linearGradient id="paint0_linear_416_1405" x1="-47.873" y1="94.8709" x2="54.123" y2="94.8709" gradientUnits="userSpaceOnUse">
<stop stop-color="#3DDEED"/>
<stop offset="1" stop-color="#CB00DD"/>
</linearGradient>
<linearGradient id="paint1_linear_416_1405" x1="-51.357" y1="94.8712" x2="57.608" y2="94.8712" gradientUnits="userSpaceOnUse">
<stop stop-color="#3DDEED"/>
<stop offset="1" stop-color="#CB00DD"/>
</linearGradient>
<linearGradient id="paint2_linear_416_1405" x1="-54.869" y1="94.871" x2="61.12" y2="94.871" gradientUnits="userSpaceOnUse">
<stop stop-color="#3DDEED"/>
<stop offset="1" stop-color="#CB00DD"/>
</linearGradient>
<linearGradient id="paint3_linear_416_1405" x1="-58.379" y1="94.8711" x2="64.629" y2="94.8711" gradientUnits="userSpaceOnUse">
<stop stop-color="#3DDEED"/>
<stop offset="1" stop-color="#CB00DD"/>
</linearGradient>
<linearGradient id="paint4_linear_416_1405" x1="-61.855" y1="94.8711" x2="68.107" y2="94.8711" gradientUnits="userSpaceOnUse">
<stop stop-color="#3DDEED"/>
<stop offset="1" stop-color="#CB00DD"/>
</linearGradient>
<linearGradient id="paint5_linear_416_1405" x1="-65.211" y1="94.8711" x2="71.462" y2="94.8711" gradientUnits="userSpaceOnUse">
<stop stop-color="#3DDEED"/>
<stop offset="1" stop-color="#CB00DD"/>
</linearGradient>
<linearGradient id="paint6_linear_416_1405" x1="-68.533" y1="94.8711" x2="74.784" y2="94.8711" gradientUnits="userSpaceOnUse">
<stop stop-color="#3DDEED"/>
<stop offset="1" stop-color="#CB00DD"/>
</linearGradient>
<linearGradient id="paint7_linear_416_1405" x1="-71.729" y1="94.8711" x2="77.978" y2="94.8711" gradientUnits="userSpaceOnUse">
<stop stop-color="#3DDEED"/>
<stop offset="1" stop-color="#CB00DD"/>
</linearGradient>
<linearGradient id="paint8_linear_416_1405" x1="-74.766" y1="94.8712" x2="81.017" y2="94.8712" gradientUnits="userSpaceOnUse">
<stop stop-color="#3DDEED"/>
<stop offset="1" stop-color="#CB00DD"/>
</linearGradient>
<linearGradient id="paint9_linear_416_1405" x1="-77.616" y1="94.8709" x2="83.867" y2="94.8709" gradientUnits="userSpaceOnUse">
<stop stop-color="#3DDEED"/>
<stop offset="1" stop-color="#CB00DD"/>
</linearGradient>
<linearGradient id="paint10_linear_416_1405" x1="-80.252" y1="94.8709" x2="86.503" y2="94.8709" gradientUnits="userSpaceOnUse">
<stop stop-color="#3DDEED"/>
<stop offset="1" stop-color="#CB00DD"/>
</linearGradient>
<linearGradient id="paint11_linear_416_1405" x1="-82.651" y1="94.8711" x2="88.904" y2="94.8711" gradientUnits="userSpaceOnUse">
<stop stop-color="#3DDEED"/>
<stop offset="1" stop-color="#CB00DD"/>
</linearGradient>
<linearGradient id="paint12_linear_416_1405" x1="-84.794" y1="94.8711" x2="91.045" y2="94.8711" gradientUnits="userSpaceOnUse">
<stop stop-color="#3DDEED"/>
<stop offset="1" stop-color="#CB00DD"/>
</linearGradient>
<linearGradient id="paint13_linear_416_1405" x1="-86.655" y1="94.8712" x2="92.906" y2="94.8712" gradientUnits="userSpaceOnUse">
<stop stop-color="#3DDEED"/>
<stop offset="1" stop-color="#CB00DD"/>
</linearGradient>
<linearGradient id="paint14_linear_416_1405" x1="-88.223" y1="94.8711" x2="94.473" y2="94.8711" gradientUnits="userSpaceOnUse">
<stop stop-color="#3DDEED"/>
<stop offset="1" stop-color="#CB00DD"/>
</linearGradient>
<linearGradient id="paint15_linear_416_1405" x1="-89.491" y1="94.8711" x2="95.743" y2="94.8711" gradientUnits="userSpaceOnUse">
<stop stop-color="#3DDEED"/>
<stop offset="1" stop-color="#CB00DD"/>
</linearGradient>
<linearGradient id="paint16_linear_416_1405" x1="-90.462" y1="94.8712" x2="96.713" y2="94.8712" gradientUnits="userSpaceOnUse">
<stop stop-color="#3DDEED"/>
<stop offset="1" stop-color="#CB00DD"/>
</linearGradient>
<linearGradient id="paint17_linear_416_1405" x1="-91.143" y1="94.8712" x2="97.393" y2="94.8712" gradientUnits="userSpaceOnUse">
<stop stop-color="#3DDEED"/>
<stop offset="1" stop-color="#CB00DD"/>
</linearGradient>
<linearGradient id="paint18_linear_416_1405" x1="-91.512" y1="94.8711" x2="97.763" y2="94.8711" gradientUnits="userSpaceOnUse">
<stop stop-color="#3DDEED"/>
<stop offset="1" stop-color="#CB00DD"/>
</linearGradient>
<linearGradient id="paint19_linear_416_1405" x1="-91.72" y1="94.8691" x2="97.974" y2="94.8691" gradientUnits="userSpaceOnUse">
<stop stop-color="#3DDEED"/>
<stop offset="1" stop-color="#CB00DD"/>
</linearGradient>
<linearGradient id="paint20_linear_416_1405" x1="-91.771" y1="94.871" x2="98.022" y2="94.871" gradientUnits="userSpaceOnUse">
<stop stop-color="#3DDEED"/>
<stop offset="1" stop-color="#CB00DD"/>
</linearGradient>
<clipPath id="clip0_416_1405">
<rect width="190" height="175" fill="white" transform="translate(-92 7.30005)"/>
</clipPath>
</defs>
</svg>
