<svg width="128" height="179" viewBox="0 0 128 179" fill="none" xmlns="http://www.w3.org/2000/svg">
<g opacity="0.4">
<mask id="mask0_416_1256" style="mask-type:luminance" maskUnits="userSpaceOnUse" x="44" y="30" width="103" height="108">
<mask id="mask1_416_1256" style="mask-type:luminance" maskUnits="userSpaceOnUse" x="44" y="30" width="103" height="108">
<mask id="mask2_416_1256" style="mask-type:luminance" maskUnits="userSpaceOnUse" x="44" y="30" width="103" height="108">
<path d="M119 35.3999C94.3999 46.7999 63.6999 77.8999 50.5999 104.7C43.8999 118.3 42.7999 128.9 47.5999 133.7C51.6999 137.9 60.0999 137.5 71.1999 132.3C95.8999 120.9 126.6 89.7999 139.7 62.9999C146.3 49.3999 147.4 38.8999 142.7 34.0999C138.5 29.7999 130.1 30.2999 119 35.3999ZM55.6999 137.1C51.9999 137.1 49.1999 136.1 47.1999 134.1C42.2999 129.1 43.2999 118.3 50.0999 104.5C63.1999 77.5999 93.9999 46.3999 118.8 34.8999C130.1 29.6999 138.7 29.1999 143.1 33.6999C148 38.6999 146.9 49.4999 140.2 63.1999C127.1 90.0999 96.1999 121.4 71.4999 132.8C65.2999 135.7 59.9999 137.1 55.6999 137.1Z" fill="white"/>
</mask>
<g mask="url(#mask2_416_1256)">
<path d="M-101 -89.7001H1021V1032.3H-101V-89.7001Z" fill="white"/>
</g>
</mask>
<g mask="url(#mask1_416_1256)">
<path d="M119 35.3999C94.3999 46.7999 63.6999 77.8999 50.5999 104.7C43.8999 118.3 42.7999 128.9 47.5999 133.7C51.6999 137.9 60.0999 137.5 71.1999 132.3C95.8999 120.9 126.6 89.7999 139.7 62.9999C146.3 49.3999 147.4 38.8999 142.7 34.0999C138.5 29.7999 130.1 30.2999 119 35.3999ZM55.6999 137.1C51.9999 137.1 49.1999 136.1 47.1999 134.1C42.2999 129.1 43.2999 118.3 50.0999 104.5C63.1999 77.5999 93.9999 46.3999 118.8 34.8999C130.1 29.6999 138.7 29.1999 143.1 33.6999C148 38.6999 146.9 49.4999 140.2 63.1999C127.1 90.0999 96.1999 121.4 71.4999 132.8C65.2999 135.7 59.9999 137.1 55.6999 137.1Z" fill="white"/>
</g>
</mask>
<g mask="url(#mask0_416_1256)">
<path d="M-101 -89.7001H1021V1032.3H-101V-89.7001Z" fill="url(#paint0_linear_416_1256)"/>
</g>
<mask id="mask3_416_1256" style="mask-type:luminance" maskUnits="userSpaceOnUse" x="40" y="29" width="110" height="109">
<mask id="mask4_416_1256" style="mask-type:luminance" maskUnits="userSpaceOnUse" x="40" y="29" width="110" height="109">
<mask id="mask5_416_1256" style="mask-type:luminance" maskUnits="userSpaceOnUse" x="40" y="29" width="110" height="109">
<path d="M137.2 30.5002C133.3 30.5002 128.6 31.5002 123.2 33.6002C97.6001 43.7002 64.3001 74.4002 48.9001 102.2C40.9001 116.8 39.0001 128.3 43.8001 133.8C47.8001 138.3 56.0001 138.4 67.1001 134.1C92.6001 124.1 126 93.3002 141.3 65.5002C149.4 50.9002 151.3 39.4002 146.4 33.9002C144.4 31.6002 141.3 30.5002 137.2 30.5002ZM53.1001 137.8C48.8001 137.8 45.5001 136.6 43.4001 134.2C38.4001 128.5 40.2001 116.7 48.4001 102C63.9001 74.1002 97.3001 43.2002 123 33.1002C134.2 28.7002 142.7 28.9002 146.9 33.6002C151.8 39.3002 150 51.0002 141.8 65.8002C126.4 93.7002 92.9001 124.6 67.3001 134.6C61.8001 136.8 57.0001 137.8 53.1001 137.8Z" fill="white"/>
</mask>
<g mask="url(#mask5_416_1256)">
<path d="M-101 -89.6998H1021V1032.3H-101V-89.6998Z" fill="white"/>
</g>
</mask>
<g mask="url(#mask4_416_1256)">
<path d="M137.2 30.5002C133.3 30.5002 128.6 31.5002 123.2 33.6002C97.6001 43.7002 64.3001 74.4002 48.9001 102.2C40.9001 116.8 39.0001 128.3 43.8001 133.8C47.8001 138.3 56.0001 138.4 67.1001 134.1C92.6001 124.1 126 93.3002 141.3 65.5002C149.4 50.9002 151.3 39.4002 146.4 33.9002C144.4 31.6002 141.3 30.5002 137.2 30.5002ZM53.1001 137.8C48.8001 137.8 45.5001 136.6 43.4001 134.2C38.4001 128.5 40.2001 116.7 48.4001 102C63.9001 74.1002 97.3001 43.2002 123 33.1002C134.2 28.7002 142.7 28.9002 146.9 33.6002C151.8 39.3002 150 51.0002 141.8 65.8002C126.4 93.7002 92.9001 124.6 67.3001 134.6C61.8001 136.8 57.0001 137.8 53.1001 137.8Z" fill="white"/>
</g>
</mask>
<g mask="url(#mask3_416_1256)">
<path d="M-101 -89.6998H1021V1032.3H-101V-89.6998Z" fill="url(#paint1_linear_416_1256)"/>
</g>
<mask id="mask6_416_1256" style="mask-type:luminance" maskUnits="userSpaceOnUse" x="37" y="29" width="117" height="110">
<mask id="mask7_416_1256" style="mask-type:luminance" maskUnits="userSpaceOnUse" x="37" y="29" width="117" height="110">
<mask id="mask8_416_1256" style="mask-type:luminance" maskUnits="userSpaceOnUse" x="37" y="29" width="117" height="110">
<path d="M139.6 29.8999C136.1 29.8999 132 30.5999 127.4 32.0999C101.1 40.4999 65.1999 70.6999 47.4999 99.3999C37.8999 114.9 35.2 127.4 40.1 133.7C43.8 138.4 51.8999 139.1 62.7999 135.6C89.0999 127.2 125 96.9999 142.8 68.3999C152.4 52.8999 155.1 40.3999 150.2 34.0999C148 31.2999 144.4 29.8999 139.6 29.8999ZM50.6999 138.4C45.6999 138.4 41.9 136.9 39.6 134C34.6 127.5 37.2999 114.8 46.9999 99.0999C64.7999 70.2999 100.8 40.0999 127.3 31.5999C138.4 27.9999 146.7 28.7999 150.6 33.6999C155.7 40.1999 153 52.8999 143.2 68.6999C125.4 97.3999 89.3999 127.7 62.9999 136.2C58.2999 137.6 54.1999 138.4 50.6999 138.4Z" fill="white"/>
</mask>
<g mask="url(#mask8_416_1256)">
<path d="M-101 -89.7001H1021V1032.3H-101V-89.7001Z" fill="white"/>
</g>
</mask>
<g mask="url(#mask7_416_1256)">
<path d="M139.6 29.8999C136.1 29.8999 132 30.5999 127.4 32.0999C101.1 40.4999 65.1999 70.6999 47.4999 99.3999C37.8999 114.9 35.2 127.4 40.1 133.7C43.8 138.4 51.8999 139.1 62.7999 135.6C89.0999 127.2 125 96.9999 142.8 68.3999C152.4 52.8999 155.1 40.3999 150.2 34.0999C148 31.2999 144.4 29.8999 139.6 29.8999ZM50.6999 138.4C45.6999 138.4 41.9 136.9 39.6 134C34.6 127.5 37.2999 114.8 46.9999 99.0999C64.7999 70.2999 100.8 40.0999 127.3 31.5999C138.4 27.9999 146.7 28.7999 150.6 33.6999C155.7 40.1999 153 52.8999 143.2 68.6999C125.4 97.3999 89.3999 127.7 62.9999 136.2C58.2999 137.6 54.1999 138.4 50.6999 138.4Z" fill="white"/>
</g>
</mask>
<g mask="url(#mask6_416_1256)">
<path d="M-101 -89.7001H1021V1032.3H-101V-89.7001Z" fill="url(#paint2_linear_416_1256)"/>
</g>
<mask id="mask9_416_1256" style="mask-type:luminance" maskUnits="userSpaceOnUse" x="33" y="28" width="124" height="111">
<mask id="mask10_416_1256" style="mask-type:luminance" maskUnits="userSpaceOnUse" x="33" y="28" width="124" height="111">
<mask id="mask11_416_1256" style="mask-type:luminance" maskUnits="userSpaceOnUse" x="33" y="28" width="124" height="111">
<path d="M141.8 29.5001C138.9 29.5001 135.6 29.9001 131.8 30.9001C104.9 37.5001 66.5 66.8001 46.3 96.1001C35 112.5 31.4 126 36.3 133.2C39.9 138.3 47.5 139.6 58.4 136.9C85.4 130.2 123.7 101 143.9 71.6001C155.2 55.2001 158.9 41.7001 153.9 34.6001C151.6 31.2001 147.5 29.5001 141.8 29.5001ZM48.4 138.8C42.6 138.8 38.3 137 35.9 133.5C30.8 126.1 34.4 112.4 45.9 95.8001C66.1 66.4001 104.6 37.0001 131.7 30.3001C142.9 27.6001 150.7 28.9001 154.4 34.3001C159.5 41.6001 155.8 55.3001 144.4 72.0001C124.1 101.4 85.6 130.8 58.5 137.4C54.8 138.3 51.4 138.8 48.4 138.8Z" fill="white"/>
</mask>
<g mask="url(#mask11_416_1256)">
<path d="M-101 -89.7H1021V1032.3H-101V-89.7Z" fill="white"/>
</g>
</mask>
<g mask="url(#mask10_416_1256)">
<path d="M141.8 29.5001C138.9 29.5001 135.6 29.9001 131.8 30.9001C104.9 37.5001 66.5 66.8001 46.3 96.1001C35 112.5 31.4 126 36.3 133.2C39.9 138.3 47.5 139.6 58.4 136.9C85.4 130.2 123.7 101 143.9 71.6001C155.2 55.2001 158.9 41.7001 153.9 34.6001C151.6 31.2001 147.5 29.5001 141.8 29.5001ZM48.4 138.8C42.6 138.8 38.3 137 35.9 133.5C30.8 126.1 34.4 112.4 45.9 95.8001C66.1 66.4001 104.6 37.0001 131.7 30.3001C142.9 27.6001 150.7 28.9001 154.4 34.3001C159.5 41.6001 155.8 55.3001 144.4 72.0001C124.1 101.4 85.6 130.8 58.5 137.4C54.8 138.3 51.4 138.8 48.4 138.8Z" fill="white"/>
</g>
</mask>
<g mask="url(#mask9_416_1256)">
<path d="M-101 -89.7H1021V1032.3H-101V-89.7Z" fill="url(#paint3_linear_416_1256)"/>
</g>
<mask id="mask12_416_1256" style="mask-type:luminance" maskUnits="userSpaceOnUse" x="30" y="28" width="131" height="111">
<mask id="mask13_416_1256" style="mask-type:luminance" maskUnits="userSpaceOnUse" x="30" y="28" width="131" height="111">
<mask id="mask14_416_1256" style="mask-type:luminance" maskUnits="userSpaceOnUse" x="30" y="28" width="131" height="111">
<path d="M143.6 29.3C141.4 29.3 138.9 29.5 136.3 29.9C108.9 34.6 68.1 62.6 45.5 92.5C32.6 109.4 27.8 124.3 32.6 132.3C35.9 137.7 43.2 139.6 53.9 137.8C81.4 133.2 122.1 105.1 144.8 75.3C157.7 58.3 162.5 43.4 157.7 35.4C155.2 31.4 150.4 29.3 143.6 29.3ZM46.7 139C39.7 139 34.7 136.9 32.1 132.6C27.1 124.3 31.8 109.6 45 92.1C67.8 62.2 108.7 34 136.2 29.4C147.2 27.5 154.7 29.5 158.1 35.2C163.2 43.4 158.5 58.2 145.2 75.6C122.5 105.6 81.6 133.7 54 138.4C51.4 138.8 48.9 139 46.7 139Z" fill="white"/>
</mask>
<g mask="url(#mask14_416_1256)">
<path d="M-101 -89.7H1021V1032.3H-101V-89.7Z" fill="white"/>
</g>
</mask>
<g mask="url(#mask13_416_1256)">
<path d="M143.6 29.3C141.4 29.3 138.9 29.5 136.3 29.9C108.9 34.6 68.1 62.6 45.5 92.5C32.6 109.4 27.8 124.3 32.6 132.3C35.9 137.7 43.2 139.6 53.9 137.8C81.4 133.2 122.1 105.1 144.8 75.3C157.7 58.3 162.5 43.4 157.7 35.4C155.2 31.4 150.4 29.3 143.6 29.3ZM46.7 139C39.7 139 34.7 136.9 32.1 132.6C27.1 124.3 31.8 109.6 45 92.1C67.8 62.2 108.7 34 136.2 29.4C147.2 27.5 154.7 29.5 158.1 35.2C163.2 43.4 158.5 58.2 145.2 75.6C122.5 105.6 81.6 133.7 54 138.4C51.4 138.8 48.9 139 46.7 139Z" fill="white"/>
</g>
</mask>
<g mask="url(#mask12_416_1256)">
<path d="M-101 -89.7H1021V1032.3H-101V-89.7Z" fill="url(#paint4_linear_416_1256)"/>
</g>
<mask id="mask15_416_1256" style="mask-type:luminance" maskUnits="userSpaceOnUse" x="26" y="28" width="138" height="112">
<mask id="mask16_416_1256" style="mask-type:luminance" maskUnits="userSpaceOnUse" x="26" y="28" width="138" height="112">
<mask id="mask17_416_1256" style="mask-type:luminance" maskUnits="userSpaceOnUse" x="26" y="28" width="138" height="112">
<path d="M140.9 29.3C113.1 31.7 70.1001 58.3 44.9001 88.4C30.2001 106.1 24.2001 122 28.9001 131C31.9001 136.8 39.0001 139.3 49.4001 138.4C77.1001 136 120.2 109.5 145.3 79.3C160.1 61.6 166 45.7 161.3 36.7C158.3 31 151.3 28.4 140.9 29.3ZM45.4001 139.1C37.0001 139.1 31.1001 136.5 28.4001 131.3C23.6001 122.1 29.6001 105.9 44.5001 88.1C69.7001 57.8 113 31.2 140.8 28.8C151.5 27.9 158.7 30.5 161.8 36.5C166.6 45.7 160.6 61.8 145.8 79.7C120.5 109.9 77.3 136.5 49.4001 139C48.0001 139.1 46.7001 139.1 45.4001 139.1Z" fill="white"/>
</mask>
<g mask="url(#mask17_416_1256)">
<path d="M-101 -89.7H1021V1032.3H-101V-89.7Z" fill="white"/>
</g>
</mask>
<g mask="url(#mask16_416_1256)">
<path d="M140.9 29.3C113.1 31.7 70.1001 58.3 44.9001 88.4C30.2001 106.1 24.2001 122 28.9001 131C31.9001 136.8 39.0001 139.3 49.4001 138.4C77.1001 136 120.2 109.5 145.3 79.3C160.1 61.6 166 45.7 161.3 36.7C158.3 31 151.3 28.4 140.9 29.3ZM45.4001 139.1C37.0001 139.1 31.1001 136.5 28.4001 131.3C23.6001 122.1 29.6001 105.9 44.5001 88.1C69.7001 57.8 113 31.2 140.8 28.8C151.5 27.9 158.7 30.5 161.8 36.5C166.6 45.7 160.6 61.8 145.8 79.7C120.5 109.9 77.3 136.5 49.4001 139C48.0001 139.1 46.7001 139.1 45.4001 139.1Z" fill="white"/>
</g>
</mask>
<g mask="url(#mask15_416_1256)">
<path d="M-101 -89.7H1021V1032.3H-101V-89.7Z" fill="url(#paint5_linear_416_1256)"/>
</g>
<mask id="mask18_416_1256" style="mask-type:luminance" maskUnits="userSpaceOnUse" x="23" y="28" width="144" height="112">
<mask id="mask19_416_1256" style="mask-type:luminance" maskUnits="userSpaceOnUse" x="23" y="28" width="144" height="112">
<mask id="mask20_416_1256" style="mask-type:luminance" maskUnits="userSpaceOnUse" x="23" y="28" width="144" height="112">
<path d="M145.4 29.1001C117.6 29.1001 72.3999 53.8001 44.6999 84.0001C28.0999 102.2 20.8 119.1 25.3 129.3C28 135.4 34.7 138.6 44.8 138.6C72.7 138.6 117.8 114 145.5 83.7001C162.2 65.5001 169.4 48.6001 164.9 38.4001C162.3 32.3001 155.5 29.1001 145.5 29.1001C145.4 29.1001 145.4 29.1001 145.4 29.1001ZM44.8 139.2C34.5 139.2 27.6 135.8 24.8 129.5C20.2 119.2 27.5 102 44.3 83.7001C72.1 53.3001 117.5 28.6001 145.4 28.6001C145.4 28.6001 145.4 28.6001 145.5 28.6001C155.8 28.6001 162.7 31.9001 165.4 38.2001C170 48.6001 162.7 65.7001 145.9 84.1001C118.2 114.5 72.8 139.2 44.8 139.2Z" fill="white"/>
</mask>
<g mask="url(#mask20_416_1256)">
<path d="M-101 -89.7H1021V1032.3H-101V-89.7Z" fill="white"/>
</g>
</mask>
<g mask="url(#mask19_416_1256)">
<path d="M145.4 29.1001C117.6 29.1001 72.3999 53.8001 44.6999 84.0001C28.0999 102.2 20.8 119.1 25.3 129.3C28 135.4 34.7 138.6 44.8 138.6C72.7 138.6 117.8 114 145.5 83.7001C162.2 65.5001 169.4 48.6001 164.9 38.4001C162.3 32.3001 155.5 29.1001 145.5 29.1001C145.4 29.1001 145.4 29.1001 145.4 29.1001ZM44.8 139.2C34.5 139.2 27.6 135.8 24.8 129.5C20.2 119.2 27.5 102 44.3 83.7001C72.1 53.3001 117.5 28.6001 145.4 28.6001C145.4 28.6001 145.4 28.6001 145.5 28.6001C155.8 28.6001 162.7 31.9001 165.4 38.2001C170 48.6001 162.7 65.7001 145.9 84.1001C118.2 114.5 72.8 139.2 44.8 139.2Z" fill="white"/>
</g>
</mask>
<g mask="url(#mask18_416_1256)">
<path d="M-101 -89.7H1021V1032.3H-101V-89.7Z" fill="url(#paint6_linear_416_1256)"/>
</g>
<mask id="mask21_416_1256" style="mask-type:luminance" maskUnits="userSpaceOnUse" x="20" y="28" width="150" height="112">
<mask id="mask22_416_1256" style="mask-type:luminance" maskUnits="userSpaceOnUse" x="20" y="28" width="150" height="112">
<mask id="mask23_416_1256" style="mask-type:luminance" maskUnits="userSpaceOnUse" x="20" y="28" width="150" height="112">
<path d="M145.4 29.1C117.3 29.1 73.4999 50.7 44.8999 79.3C26.2999 97.8 17.6999 115.6 21.7999 127.1C24.1999 133.6 30.4999 137.5 40.1999 138.4C67.8999 141.1 115.1 118.7 145.4 88.5C163.9 70 172.5 52.1 168.4 40.7C166.1 34.2 159.7 30.3 150 29.3C148.5 29.2 147 29.1 145.4 29.1ZM44.7999 139.2C43.1999 139.2 41.6999 139.1 40.1999 139C30.1999 138 23.6999 134 21.2999 127.3C17.0999 115.6 25.7999 97.5 44.4999 78.9C74.7999 48.6 122.2 26.1 150.1 28.8C160 29.7 166.5 33.8 168.9 40.5C173.1 52.1 164.5 70.2 145.8 88.9C117 117.5 73.0999 139.2 44.7999 139.2Z" fill="white"/>
</mask>
<g mask="url(#mask23_416_1256)">
<path d="M-101 -89.7H1021V1032.3H-101V-89.7Z" fill="white"/>
</g>
</mask>
<g mask="url(#mask22_416_1256)">
<path d="M145.4 29.1C117.3 29.1 73.4999 50.7 44.8999 79.3C26.2999 97.8 17.6999 115.6 21.7999 127.1C24.1999 133.6 30.4999 137.5 40.1999 138.4C67.8999 141.1 115.1 118.7 145.4 88.5C163.9 70 172.5 52.1 168.4 40.7C166.1 34.2 159.7 30.3 150 29.3C148.5 29.2 147 29.1 145.4 29.1ZM44.7999 139.2C43.1999 139.2 41.6999 139.1 40.1999 139C30.1999 138 23.6999 134 21.2999 127.3C17.0999 115.6 25.7999 97.5 44.4999 78.9C74.7999 48.6 122.2 26.1 150.1 28.8C160 29.7 166.5 33.8 168.9 40.5C173.1 52.1 164.5 70.2 145.8 88.9C117 117.5 73.0999 139.2 44.7999 139.2Z" fill="white"/>
</g>
</mask>
<g mask="url(#mask21_416_1256)">
<path d="M-101 -89.7H1021V1032.3H-101V-89.7Z" fill="url(#paint7_linear_416_1256)"/>
</g>
<mask id="mask24_416_1256" style="mask-type:luminance" maskUnits="userSpaceOnUse" x="17" y="28" width="157" height="112">
<mask id="mask25_416_1256" style="mask-type:luminance" maskUnits="userSpaceOnUse" x="17" y="28" width="157" height="112">
<mask id="mask26_416_1256" style="mask-type:luminance" maskUnits="userSpaceOnUse" x="17" y="28" width="157" height="112">
<path d="M144.6 29.1001C116.4 29.1001 74.6001 47.6001 45.5001 74.1001C25.0001 92.7001 14.9001 111.5 18.5001 124.3C20.4001 131.2 26.4001 135.9 35.7001 137.7C38.8001 138.4 42.1001 138.7 45.7001 138.7C73.9001 138.7 115.7 120.1 144.8 93.7001C165.2 75.0001 175.3 56.3001 171.8 43.5001C169.8 36.5001 163.9 31.9001 154.6 30.0001C151.5 29.4001 148.1 29.1001 144.6 29.1001ZM45.7001 139.2C42.1001 139.2 38.7001 138.9 35.6001 138.3C26.0001 136.4 19.9001 131.6 17.9001 124.4C14.3001 111.4 24.5001 92.4001 45.1001 73.7001C78.0001 43.8001 127.1 23.9001 154.7 29.4001C164.2 31.4001 170.3 36.2001 172.3 43.3001C175.9 56.3001 165.8 75.3001 145.1 94.1001C116 120.6 74.0001 139.2 45.7001 139.2Z" fill="white"/>
</mask>
<g mask="url(#mask26_416_1256)">
<path d="M-101 -89.7H1021V1032.3H-101V-89.7Z" fill="white"/>
</g>
</mask>
<g mask="url(#mask25_416_1256)">
<path d="M144.6 29.1001C116.4 29.1001 74.6001 47.6001 45.5001 74.1001C25.0001 92.7001 14.9001 111.5 18.5001 124.3C20.4001 131.2 26.4001 135.9 35.7001 137.7C38.8001 138.4 42.1001 138.7 45.7001 138.7C73.9001 138.7 115.7 120.1 144.8 93.7001C165.2 75.0001 175.3 56.3001 171.8 43.5001C169.8 36.5001 163.9 31.9001 154.6 30.0001C151.5 29.4001 148.1 29.1001 144.6 29.1001ZM45.7001 139.2C42.1001 139.2 38.7001 138.9 35.6001 138.3C26.0001 136.4 19.9001 131.6 17.9001 124.4C14.3001 111.4 24.5001 92.4001 45.1001 73.7001C78.0001 43.8001 127.1 23.9001 154.7 29.4001C164.2 31.4001 170.3 36.2001 172.3 43.3001C175.9 56.3001 165.8 75.3001 145.1 94.1001C116 120.6 74.0001 139.2 45.7001 139.2Z" fill="white"/>
</g>
</mask>
<g mask="url(#mask24_416_1256)">
<path d="M-101 -89.6998H1021V1032.3H-101V-89.6998Z" fill="url(#paint8_linear_416_1256)"/>
</g>
<mask id="mask27_416_1256" style="mask-type:luminance" maskUnits="userSpaceOnUse" x="14" y="28" width="162" height="112">
<mask id="mask28_416_1256" style="mask-type:luminance" maskUnits="userSpaceOnUse" x="14" y="28" width="162" height="112">
<mask id="mask29_416_1256" style="mask-type:luminance" maskUnits="userSpaceOnUse" x="14" y="28" width="162" height="112">
<path d="M142.8 28.9C114.9 28.9 75.6 44.5 46.5 68.6C24.2 87 12.6 106.6 15.3 120.8C16.8 128.3 22.3 133.8 31.2 136.6C58 145.1 108.5 128.4 143.7 99.2C166 80.7 177.7 61.2 174.9 46.9C173.5 39.4 168 34 159 31.1C154.3 29.6 148.8 28.9 142.8 28.9ZM47.4 139.4C41.3 139.4 35.8 138.7 31.1 137.1C21.9 134.2 16.3 128.6 14.8 120.9C12 106.5 23.7 86.7 46.2 68.1C81.5 38.8 132.2 22 159.2 30.6C168.3 33.5 174 39.1 175.5 46.8C178.3 61.3 166.5 81 144.1 99.6C115 123.7 75.5 139.4 47.4 139.4Z" fill="white"/>
</mask>
<g mask="url(#mask29_416_1256)">
<path d="M-101 -89.7H1021V1032.3H-101V-89.7Z" fill="white"/>
</g>
</mask>
<g mask="url(#mask28_416_1256)">
<path d="M142.8 28.9C114.9 28.9 75.6 44.5 46.5 68.6C24.2 87 12.6 106.6 15.3 120.8C16.8 128.3 22.3 133.8 31.2 136.6C58 145.1 108.5 128.4 143.7 99.2C166 80.7 177.7 61.2 174.9 46.9C173.5 39.4 168 34 159 31.1C154.3 29.6 148.8 28.9 142.8 28.9ZM47.4 139.4C41.3 139.4 35.8 138.7 31.1 137.1C21.9 134.2 16.3 128.6 14.8 120.9C12 106.5 23.7 86.7 46.2 68.1C81.5 38.8 132.2 22 159.2 30.6C168.3 33.5 174 39.1 175.5 46.8C178.3 61.3 166.5 81 144.1 99.6C115 123.7 75.5 139.4 47.4 139.4Z" fill="white"/>
</g>
</mask>
<g mask="url(#mask27_416_1256)">
<path d="M-101 -89.7001H1021V1032.3H-101V-89.7001Z" fill="url(#paint9_linear_416_1256)"/>
</g>
<mask id="mask30_416_1256" style="mask-type:luminance" maskUnits="userSpaceOnUse" x="11" y="27" width="168" height="113">
<mask id="mask31_416_1256" style="mask-type:luminance" maskUnits="userSpaceOnUse" x="11" y="27" width="168" height="113">
<mask id="mask32_416_1256" style="mask-type:luminance" maskUnits="userSpaceOnUse" x="11" y="27" width="168" height="113">
<path d="M140.1 28.4999C112.8 28.4999 76.4 41.3999 48.1 62.6999C24 80.6999 10.7 100.9 12.5 116.7C13.3 124.7 18.3 131.1 26.9 134.9C52.8 146.7 104.6 133.3 142.2 105.1C166.2 87.0999 179.5 66.8999 177.8 51.0999C176.9 42.9999 171.9 36.6999 163.4 32.7999C157 29.8999 149 28.4999 140.1 28.4999ZM50.1 139.8C41.1 139.8 33.0999 138.4 26.5999 135.4C17.9 131.5 12.8 125 11.9 116.7C10.2 100.7 23.5999 80.3999 47.6999 62.1999C85.4999 33.8999 137.5 20.3999 163.6 32.2999C172.3 36.2999 177.4 42.6999 178.4 50.9999C180.1 66.9999 166.7 87.3999 142.5 105.5C114.1 126.9 77.6 139.8 50.1 139.8Z" fill="white"/>
</mask>
<g mask="url(#mask32_416_1256)">
<path d="M-101 -89.7001H1021V1032.3H-101V-89.7001Z" fill="white"/>
</g>
</mask>
<g mask="url(#mask31_416_1256)">
<path d="M140.1 28.4999C112.8 28.4999 76.4 41.3999 48.1 62.6999C24 80.6999 10.7 100.9 12.5 116.7C13.3 124.7 18.3 131.1 26.9 134.9C52.8 146.7 104.6 133.3 142.2 105.1C166.2 87.0999 179.5 66.8999 177.8 51.0999C176.9 42.9999 171.9 36.6999 163.4 32.7999C157 29.8999 149 28.4999 140.1 28.4999ZM50.1 139.8C41.1 139.8 33.0999 138.4 26.5999 135.4C17.9 131.5 12.8 125 11.9 116.7C10.2 100.7 23.5999 80.3999 47.6999 62.1999C85.4999 33.8999 137.5 20.3999 163.6 32.2999C172.3 36.2999 177.4 42.6999 178.4 50.9999C180.1 66.9999 166.7 87.3999 142.5 105.5C114.1 126.9 77.6 139.8 50.1 139.8Z" fill="white"/>
</g>
</mask>
<g mask="url(#mask30_416_1256)">
<path d="M-101 -89.7001H1021V1032.3H-101V-89.7001Z" fill="url(#paint10_linear_416_1256)"/>
</g>
<mask id="mask33_416_1256" style="mask-type:luminance" maskUnits="userSpaceOnUse" x="9" y="27" width="172" height="114">
<mask id="mask34_416_1256" style="mask-type:luminance" maskUnits="userSpaceOnUse" x="9" y="27" width="172" height="114">
<mask id="mask35_416_1256" style="mask-type:luminance" maskUnits="userSpaceOnUse" x="9" y="27" width="172" height="114">
<path d="M136.3 27.8C110.1 27.8 77.2001 38.1 50.1001 56.4C24.6001 73.7 9.50009 94.3 9.90009 111.6C10.1001 120.4 14.5001 127.7 22.7001 132.7C47.5001 147.9 100.2 138.3 140.1 111.3C165.7 94 180.7 73.4 180.3 56.1C180.1 47.3 175.7 40 167.6 35C159.6 30.1 148.7 27.8 136.3 27.8ZM54.0001 140.5C41.4001 140.5 30.5001 138.1 22.4001 133.2C14.1001 128.1 9.60009 120.6 9.40009 111.6C9.00009 94.2 24.1001 73.4 49.8001 56C89.9001 28.8 142.9 19.2 167.9 34.5C176.2 39.6 180.7 47.1 180.9 56.1C181.3 73.6 166.2 94.4 140.4 111.8C113.3 130.2 80.2001 140.5 54.0001 140.5Z" fill="white"/>
</mask>
<g mask="url(#mask35_416_1256)">
<path d="M-101 -89.7H1021V1032.3H-101V-89.7Z" fill="white"/>
</g>
</mask>
<g mask="url(#mask34_416_1256)">
<path d="M136.3 27.8C110.1 27.8 77.2001 38.1 50.1001 56.4C24.6001 73.7 9.50009 94.3 9.90009 111.6C10.1001 120.4 14.5001 127.7 22.7001 132.7C47.5001 147.9 100.2 138.3 140.1 111.3C165.7 94 180.7 73.4 180.3 56.1C180.1 47.3 175.7 40 167.6 35C159.6 30.1 148.7 27.8 136.3 27.8ZM54.0001 140.5C41.4001 140.5 30.5001 138.1 22.4001 133.2C14.1001 128.1 9.60009 120.6 9.40009 111.6C9.00009 94.2 24.1001 73.4 49.8001 56C89.9001 28.8 142.9 19.2 167.9 34.5C176.2 39.6 180.7 47.1 180.9 56.1C181.3 73.6 166.2 94.4 140.4 111.8C113.3 130.2 80.2001 140.5 54.0001 140.5Z" fill="white"/>
</g>
</mask>
<g mask="url(#mask33_416_1256)">
<path d="M-101 -89.7H1021V1032.3H-101V-89.7Z" fill="url(#paint11_linear_416_1256)"/>
</g>
<mask id="mask36_416_1256" style="mask-type:luminance" maskUnits="userSpaceOnUse" x="7" y="26" width="177" height="116">
<mask id="mask37_416_1256" style="mask-type:luminance" maskUnits="userSpaceOnUse" x="7" y="26" width="177" height="116">
<mask id="mask38_416_1256" style="mask-type:luminance" maskUnits="userSpaceOnUse" x="7" y="26" width="177" height="116">
<path d="M131.4 26.6C107 26.6 77.8999 34.6 52.6999 49.9C25.8999 66.1001 9.09988 86.9 7.79988 105.6C7.19988 115.3 10.8999 123.7 18.6999 129.9C42.0999 148.8 95.3999 143.4 137.6 117.9C164.4 101.7 181.2 80.8 182.4 62.2C183.1 52.5 179.3 44.1 171.5 37.8C162.1 30.2 147.9 26.6 131.4 26.6ZM58.7999 141.7C42.2999 141.7 27.8999 138 18.3999 130.4C10.4999 124 6.59988 115.4 7.29988 105.6C8.49988 86.7 25.3999 65.7001 52.3999 49.4C94.6999 23.8 148.3 18.4 171.9 37.4C179.8 43.7 183.6 52.3 183 62.2C181.7 81.1 164.8 102.1 137.9 118.4C112.6 133.6 83.2999 141.7 58.7999 141.7Z" fill="white"/>
</mask>
<g mask="url(#mask38_416_1256)">
<path d="M-101 -89.7H1021V1032.3H-101V-89.7Z" fill="white"/>
</g>
</mask>
<g mask="url(#mask37_416_1256)">
<path d="M131.4 26.6C107 26.6 77.8999 34.6 52.6999 49.9C25.8999 66.1001 9.09988 86.9 7.79988 105.6C7.19988 115.3 10.8999 123.7 18.6999 129.9C42.0999 148.8 95.3999 143.4 137.6 117.9C164.4 101.7 181.2 80.8 182.4 62.2C183.1 52.5 179.3 44.1 171.5 37.8C162.1 30.2 147.9 26.6 131.4 26.6ZM58.7999 141.7C42.2999 141.7 27.8999 138 18.3999 130.4C10.4999 124 6.59988 115.4 7.29988 105.6C8.49988 86.7 25.3999 65.7001 52.3999 49.4C94.6999 23.8 148.3 18.4 171.9 37.4C179.8 43.7 183.6 52.3 183 62.2C181.7 81.1 164.8 102.1 137.9 118.4C112.6 133.6 83.2999 141.7 58.7999 141.7Z" fill="white"/>
</g>
</mask>
<g mask="url(#mask36_416_1256)">
<path d="M-101 -89.7H1021V1032.3H-101V-89.7Z" fill="url(#paint12_linear_416_1256)"/>
</g>
<mask id="mask39_416_1256" style="mask-type:luminance" maskUnits="userSpaceOnUse" x="5" y="24" width="180" height="120">
<mask id="mask40_416_1256" style="mask-type:luminance" maskUnits="userSpaceOnUse" x="5" y="24" width="180" height="120">
<mask id="mask41_416_1256" style="mask-type:luminance" maskUnits="userSpaceOnUse" x="5" y="24" width="180" height="120">
<path d="M125.8 24.8002C103.7 24.8002 78.5 30.9002 55.8 43.0002C28 57.8002 9.50001 78.6002 6.40001 98.5002C4.70001 109.2 7.6 118.9 15 126.5C36.7 149.1 90.2 148.3 134.4 124.8C162.2 109.9 180.7 89.2002 183.9 69.3002C185.6 58.6002 182.6 48.9002 175.3 41.2002C164.7 30.2002 146.7 24.8002 125.8 24.8002ZM64.5 143.5C43.4 143.5 25.2 138 14.6 126.9C7.1 119.1 4.10001 109.3 5.80001 98.4002C9.00001 78.3002 27.6 57.4002 55.6 42.5002C100 18.8002 153.8 18.1002 175.7 40.8002C183.1 48.6002 186.2 58.5002 184.4 69.3002C181.2 89.4002 162.6 110.3 134.7 125.2C111.9 137.4 86.6 143.5 64.5 143.5Z" fill="white"/>
</mask>
<g mask="url(#mask41_416_1256)">
<path d="M-101 -89.6998H1021V1032.3H-101V-89.6998Z" fill="white"/>
</g>
</mask>
<g mask="url(#mask40_416_1256)">
<path d="M125.8 24.8002C103.7 24.8002 78.5 30.9002 55.8 43.0002C28 57.8002 9.50001 78.6002 6.40001 98.5002C4.70001 109.2 7.6 118.9 15 126.5C36.7 149.1 90.2 148.3 134.4 124.8C162.2 109.9 180.7 89.2002 183.9 69.3002C185.6 58.6002 182.6 48.9002 175.3 41.2002C164.7 30.2002 146.7 24.8002 125.8 24.8002ZM64.5 143.5C43.4 143.5 25.2 138 14.6 126.9C7.1 119.1 4.10001 109.3 5.80001 98.4002C9.00001 78.3002 27.6 57.4002 55.6 42.5002C100 18.8002 153.8 18.1002 175.7 40.8002C183.1 48.6002 186.2 58.5002 184.4 69.3002C181.2 89.4002 162.6 110.3 134.7 125.2C111.9 137.4 86.6 143.5 64.5 143.5Z" fill="white"/>
</g>
</mask>
<g mask="url(#mask39_416_1256)">
<path d="M-101 -89.6998H1021V1032.3H-101V-89.6998Z" fill="url(#paint13_linear_416_1256)"/>
</g>
<mask id="mask42_416_1256" style="mask-type:luminance" maskUnits="userSpaceOnUse" x="3" y="21" width="184" height="126">
<mask id="mask43_416_1256" style="mask-type:luminance" maskUnits="userSpaceOnUse" x="3" y="21" width="184" height="126">
<mask id="mask44_416_1256" style="mask-type:luminance" maskUnits="userSpaceOnUse" x="3" y="21" width="184" height="126">
<path d="M119.7 22.2001C100.5 22.2001 79.3001 26.7001 59.5001 35.9001C31.2001 49.0001 11.0001 69.3001 5.70006 90.2001C2.70006 102 4.70006 113.2 11.6001 122.5C31.2001 149 84.6001 153.2 130.7 131.9C159.1 118.7 179.2 98.4001 184.6 77.5001C187.6 65.7001 185.5 54.5001 178.7 45.2001C167.5 30.1001 145.3 22.2001 119.7 22.2001ZM70.6001 146.1C44.8001 146.1 22.4001 138.1 11.1001 122.8C4.20006 113.4 2.10006 102.1 5.20006 90.1001C10.5001 69.0001 30.8001 48.6001 59.3001 35.3001C105.6 13.9001 159.3 18.2001 179.1 44.9001C186.1 54.3001 188.2 65.7001 185.1 77.7001C179.7 98.7001 159.5 119.2 130.9 132.4C111.1 141.6 89.9001 146.1 70.6001 146.1Z" fill="white"/>
</mask>
<g mask="url(#mask44_416_1256)">
<path d="M-101 -89.7H1021V1032.3H-101V-89.7Z" fill="white"/>
</g>
</mask>
<g mask="url(#mask43_416_1256)">
<path d="M119.7 22.2001C100.5 22.2001 79.3001 26.7001 59.5001 35.9001C31.2001 49.0001 11.0001 69.3001 5.70006 90.2001C2.70006 102 4.70006 113.2 11.6001 122.5C31.2001 149 84.6001 153.2 130.7 131.9C159.1 118.7 179.2 98.4001 184.6 77.5001C187.6 65.7001 185.5 54.5001 178.7 45.2001C167.5 30.1001 145.3 22.2001 119.7 22.2001ZM70.6001 146.1C44.8001 146.1 22.4001 138.1 11.1001 122.8C4.20006 113.4 2.10006 102.1 5.20006 90.1001C10.5001 69.0001 30.8001 48.6001 59.3001 35.3001C105.6 13.9001 159.3 18.2001 179.1 44.9001C186.1 54.3001 188.2 65.7001 185.1 77.7001C179.7 98.7001 159.5 119.2 130.9 132.4C111.1 141.6 89.9001 146.1 70.6001 146.1Z" fill="white"/>
</g>
</mask>
<g mask="url(#mask42_416_1256)">
<path d="M-101 -89.7H1021V1032.3H-101V-89.7Z" fill="url(#paint14_linear_416_1256)"/>
</g>
<mask id="mask45_416_1256" style="mask-type:luminance" maskUnits="userSpaceOnUse" x="2" y="18" width="186" height="132">
<mask id="mask46_416_1256" style="mask-type:luminance" maskUnits="userSpaceOnUse" x="2" y="18" width="186" height="132">
<mask id="mask47_416_1256" style="mask-type:luminance" maskUnits="userSpaceOnUse" x="2" y="18" width="186" height="132">
<path d="M113.6 18.9C97.5001 18.9 80.4001 22 63.9001 28.5C35.3001 39.7 13.6001 59.2 6.00009 80.7C1.40009 93.8 2.20009 106.6 8.50009 117.8C25.8001 148.4 78.6001 158 126.4 139.3C155 128 176.6 108.5 184.2 87C188.9 74 188 61.1 181.7 49.9C170.4 29.9 143.9 18.9 113.6 18.9ZM76.7001 149.4C46.1001 149.4 19.4001 138.3 8.10009 118.1C1.70009 106.7 0.800094 93.7 5.50009 80.5C13.2001 58.9 34.9001 39.2 63.7001 28C111.7 9.10001 164.8 18.9 182.2 49.7C188.6 61 189.5 74 184.8 87.2C177.1 108.9 155.3 128.5 126.6 139.8C110 146.3 92.8001 149.4 76.7001 149.4Z" fill="white"/>
</mask>
<g mask="url(#mask47_416_1256)">
<path d="M-101 -89.7H1021V1032.3H-101V-89.7Z" fill="white"/>
</g>
</mask>
<g mask="url(#mask46_416_1256)">
<path d="M113.6 18.9C97.5001 18.9 80.4001 22 63.9001 28.5C35.3001 39.7 13.6001 59.2 6.00009 80.7C1.40009 93.8 2.20009 106.6 8.50009 117.8C25.8001 148.4 78.6001 158 126.4 139.3C155 128 176.6 108.5 184.2 87C188.9 74 188 61.1 181.7 49.9C170.4 29.9 143.9 18.9 113.6 18.9ZM76.7001 149.4C46.1001 149.4 19.4001 138.3 8.10009 118.1C1.70009 106.7 0.800094 93.7 5.50009 80.5C13.2001 58.9 34.9001 39.2 63.7001 28C111.7 9.10001 164.8 18.9 182.2 49.7C188.6 61 189.5 74 184.8 87.2C177.1 108.9 155.3 128.5 126.6 139.8C110 146.3 92.8001 149.4 76.7001 149.4Z" fill="white"/>
</g>
</mask>
<g mask="url(#mask45_416_1256)">
<path d="M-101 -89.7H1021V1032.3H-101V-89.7Z" fill="url(#paint15_linear_416_1256)"/>
</g>
<mask id="mask48_416_1256" style="mask-type:luminance" maskUnits="userSpaceOnUse" x="1" y="14" width="188" height="140">
<mask id="mask49_416_1256" style="mask-type:luminance" maskUnits="userSpaceOnUse" x="1" y="14" width="188" height="140">
<mask id="mask50_416_1256" style="mask-type:luminance" maskUnits="userSpaceOnUse" x="1" y="14" width="188" height="140">
<path d="M107.9 14.7001C95.2001 14.7001 81.9001 16.7001 68.8001 20.9001C40.4001 30.0001 17.5001 48.3001 7.50007 70.0001C0.900075 84.3001 0.300076 99.0002 5.90008 112.4C16.6001 137.9 47.3001 153 82.3001 153C95.0001 153 108.3 151 121.4 146.8C149.8 137.7 172.8 119.4 182.7 97.8001C189.4 83.4001 189.9 68.7001 184.3 55.3001C173.7 29.8001 143 14.7001 107.9 14.7001ZM82.4001 153.6C47.1001 153.6 16.1001 138.4 5.40008 112.7C-0.199924 99.1001 0.300075 84.2001 7.00007 69.7001C17.1001 48.0001 40.1001 29.5001 68.7001 20.4001C118.1 4.50015 170.2 20.1002 184.8 55.1002C190.5 68.6002 189.9 83.5001 183.2 98.0001C173.2 119.8 150.2 138.2 121.6 147.4C108.5 151.6 95.1001 153.6 82.4001 153.6Z" fill="white"/>
</mask>
<g mask="url(#mask50_416_1256)">
<path d="M-101 -89.6998H1021V1032.3H-101V-89.6998Z" fill="white"/>
</g>
</mask>
<g mask="url(#mask49_416_1256)">
<path d="M107.9 14.7001C95.2001 14.7001 81.9001 16.7001 68.8001 20.9001C40.4001 30.0001 17.5001 48.3001 7.50007 70.0001C0.900075 84.3001 0.300076 99.0002 5.90008 112.4C16.6001 137.9 47.3001 153 82.3001 153C95.0001 153 108.3 151 121.4 146.8C149.8 137.7 172.8 119.4 182.7 97.8001C189.4 83.4001 189.9 68.7001 184.3 55.3001C173.7 29.8001 143 14.7001 107.9 14.7001ZM82.4001 153.6C47.1001 153.6 16.1001 138.4 5.40008 112.7C-0.199924 99.1001 0.300075 84.2001 7.00007 69.7001C17.1001 48.0001 40.1001 29.5001 68.7001 20.4001C118.1 4.50015 170.2 20.1002 184.8 55.1002C190.5 68.6002 189.9 83.5001 183.2 98.0001C173.2 119.8 150.2 138.2 121.6 147.4C108.5 151.6 95.1001 153.6 82.4001 153.6Z" fill="white"/>
</g>
</mask>
<g mask="url(#mask48_416_1256)">
<path d="M-101 -89.6998H1021V1032.3H-101V-89.6998Z" fill="url(#paint16_linear_416_1256)"/>
</g>
<mask id="mask51_416_1256" style="mask-type:luminance" maskUnits="userSpaceOnUse" x="0" y="9" width="190" height="150">
<mask id="mask52_416_1256" style="mask-type:luminance" maskUnits="userSpaceOnUse" x="0" y="9" width="190" height="150">
<mask id="mask53_416_1256" style="mask-type:luminance" maskUnits="userSpaceOnUse" x="0" y="9" width="190" height="150">
<path d="M103.1 9.70013C93.7001 9.70013 84.1001 10.8001 74.4001 13.2001C46.1001 20.1001 22.8001 36.5001 10.4001 58.1001C1.40009 73.7001 -0.899903 90.4001 3.8001 106.4C13.0001 137.9 47.6001 158.1 87.2001 158.1C96.6001 158.1 106.2 156.9 115.8 154.6C144.1 147.6 167.4 131.2 179.8 109.7C188.9 94.0001 191.1 77.3001 186.5 61.4001C177.2 29.8001 142.6 9.70013 103.1 9.70013ZM87.2001 158.6C47.4001 158.6 12.5001 138.3 3.20009 106.5C-1.49991 90.4001 0.800095 73.6001 9.90009 57.8001C22.4001 36.1001 45.9001 19.6001 74.3001 12.6001C124.9 0.100132 175.5 21.9001 187 61.2001C191.7 77.3001 189.4 94.2001 180.3 110C167.8 131.7 144.4 148.1 116 155.1C106.3 157.5 96.6001 158.6 87.2001 158.6Z" fill="white"/>
</mask>
<g mask="url(#mask53_416_1256)">
<path d="M-101 -89.6998H1021V1032.3H-101V-89.6998Z" fill="white"/>
</g>
</mask>
<g mask="url(#mask52_416_1256)">
<path d="M103.1 9.70013C93.7001 9.70013 84.1001 10.8001 74.4001 13.2001C46.1001 20.1001 22.8001 36.5001 10.4001 58.1001C1.40009 73.7001 -0.899903 90.4001 3.8001 106.4C13.0001 137.9 47.6001 158.1 87.2001 158.1C96.6001 158.1 106.2 156.9 115.8 154.6C144.1 147.6 167.4 131.2 179.8 109.7C188.9 94.0001 191.1 77.3001 186.5 61.4001C177.2 29.8001 142.6 9.70013 103.1 9.70013ZM87.2001 158.6C47.4001 158.6 12.5001 138.3 3.20009 106.5C-1.49991 90.4001 0.800095 73.6001 9.90009 57.8001C22.4001 36.1001 45.9001 19.6001 74.3001 12.6001C124.9 0.100132 175.5 21.9001 187 61.2001C191.7 77.3001 189.4 94.2001 180.3 110C167.8 131.7 144.4 148.1 116 155.1C106.3 157.5 96.6001 158.6 87.2001 158.6Z" fill="white"/>
</g>
</mask>
<g mask="url(#mask51_416_1256)">
<path d="M-101 -89.6998H1021V1032.3H-101V-89.6998Z" fill="url(#paint17_linear_416_1256)"/>
</g>
<mask id="mask54_416_1256" style="mask-type:luminance" maskUnits="userSpaceOnUse" x="0" y="3" width="190" height="162">
<mask id="mask55_416_1256" style="mask-type:luminance" maskUnits="userSpaceOnUse" x="0" y="3" width="190" height="162">
<mask id="mask56_416_1256" style="mask-type:luminance" maskUnits="userSpaceOnUse" x="0" y="3" width="190" height="162">
<path d="M99.1999 3.8C93.0999 3.8 86.8999 4.3 80.6999 5.3C53.2999 10 29.2999 24.5 14.7999 45.1C3.19991 61.7 -1.3001 81 2.1999 99.6C9.1999 137.6 47.1999 164 90.9999 164C97.0999 164 103.3 163.5 109.6 162.4C137 157.8 161 143.3 175.4 122.6C187 106.1 191.5 86.7 188.1 68.1C181.1 30.1 143.1 3.8 99.1999 3.8ZM90.9999 164.5C46.8999 164.5 8.69991 138 1.59991 99.7C-1.80009 81 2.69991 61.5 14.3999 44.8C28.8999 24 52.9999 9.4 80.5999 4.8C132.1 -3.9 180.6 24.4 188.6 68C192.1 86.8 187.6 106.2 175.9 122.9C161.3 143.7 137.2 158.3 109.7 163C103.4 164 97.1999 164.5 90.9999 164.5Z" fill="white"/>
</mask>
<g mask="url(#mask56_416_1256)">
<path d="M-101 -89.7H1021V1032.3H-101V-89.7Z" fill="white"/>
</g>
</mask>
<g mask="url(#mask55_416_1256)">
<path d="M99.1999 3.8C93.0999 3.8 86.8999 4.3 80.6999 5.3C53.2999 10 29.2999 24.5 14.7999 45.1C3.19991 61.7 -1.3001 81 2.1999 99.6C9.1999 137.6 47.1999 164 90.9999 164C97.0999 164 103.3 163.5 109.6 162.4C137 157.8 161 143.3 175.4 122.6C187 106.1 191.5 86.7 188.1 68.1C181.1 30.1 143.1 3.8 99.1999 3.8ZM90.9999 164.5C46.8999 164.5 8.69991 138 1.59991 99.7C-1.80009 81 2.69991 61.5 14.3999 44.8C28.8999 24 52.9999 9.4 80.5999 4.8C132.1 -3.9 180.6 24.4 188.6 68C192.1 86.8 187.6 106.2 175.9 122.9C161.3 143.7 137.2 158.3 109.7 163C103.4 164 97.1999 164.5 90.9999 164.5Z" fill="white"/>
</g>
</mask>
<g mask="url(#mask54_416_1256)">
<path d="M-101 -89.7H1021V1032.3H-101V-89.7Z" fill="url(#paint18_linear_416_1256)"/>
</g>
<mask id="mask57_416_1256" style="mask-type:luminance" maskUnits="userSpaceOnUse" x="0" y="-4" width="190" height="176">
<mask id="mask58_416_1256" style="mask-type:luminance" maskUnits="userSpaceOnUse" x="0" y="-4" width="190" height="176">
<mask id="mask59_416_1256" style="mask-type:luminance" maskUnits="userSpaceOnUse" x="0" y="-4" width="190" height="176">
<g clip-path="url(#clip0_416_1256)">
<path d="M96.7001 -2.99999C93.6001 -2.99999 90.6001 -2.79999 87.6001 -2.59999C35.7001 2.00001 -2.99992 44.4 1.10008 92.1C5.10008 137 45.7001 170.7 93.7001 170.7C96.7001 170.7 99.7001 170.6 102.7 170.3C127.8 168.1 150.6 157.1 166.9 139.2C183.3 121.3 191.1 98.7 189.1 75.6C187.1 52.6 175.4 31.7 156.2 16.9C139.4 4.00001 118.5 -2.99999 96.7001 -2.99999ZM93.7001 171.3C45.4001 171.3 4.50008 137.3 0.600082 92.1C-3.59992 44.2 35.4001 1.40001 87.5001 -3.09999C112.8 -5.29999 137.3 1.60001 156.6 16.5C175.9 31.4 187.6 52.4 189.7 75.6C191.7 98.8 183.8 121.6 167.3 139.5C150.9 157.5 128 168.7 102.7 170.9C99.7001 171.1 96.7001 171.3 93.7001 171.3Z" fill="white"/>
</g>
</mask>
<g mask="url(#mask59_416_1256)">
<path d="M-101 -89.7H1021V1032.3H-101V-89.7Z" fill="white"/>
</g>
</mask>
<g mask="url(#mask58_416_1256)">
<path d="M96.7001 -2.99999C93.6001 -2.99999 90.6001 -2.79999 87.6001 -2.59999C35.7001 2.00001 -2.99992 44.4 1.10008 92.1C5.10008 137 45.7001 170.7 93.7001 170.7C96.7001 170.7 99.7001 170.6 102.7 170.3C127.8 168.1 150.6 157.1 166.9 139.2C183.3 121.3 191.1 98.7 189.1 75.6C187.1 52.6 175.4 31.7 156.2 16.9C139.4 4.00001 118.5 -2.99999 96.7001 -2.99999ZM93.7001 171.3C45.4001 171.3 4.50008 137.3 0.600082 92.1C-3.59992 44.2 35.4001 1.40001 87.5001 -3.09999C112.8 -5.29999 137.3 1.60001 156.6 16.5C175.9 31.4 187.6 52.4 189.7 75.6C191.7 98.8 183.8 121.6 167.3 139.5C150.9 157.5 128 168.7 102.7 170.9C99.7001 171.1 96.7001 171.3 93.7001 171.3Z" fill="white"/>
</g>
</mask>
<g mask="url(#mask57_416_1256)">
<path d="M-101 -89.7H1021V1032.3H-101V-89.7Z" fill="url(#paint19_linear_416_1256)"/>
</g>
<mask id="mask60_416_1256" style="mask-type:luminance" maskUnits="userSpaceOnUse" x="0" y="-11" width="190" height="190">
<mask id="mask61_416_1256" style="mask-type:luminance" maskUnits="userSpaceOnUse" x="0" y="-11" width="190" height="190">
<mask id="mask62_416_1256" style="mask-type:luminance" maskUnits="userSpaceOnUse" x="0" y="-11" width="190" height="190">
<path d="M95.1 -10.5C43.1 -10.5 0.799957 31.9 0.799957 83.9C0.799957 135.9 43.1 178.2 95.1 178.2C147.1 178.2 189.5 135.9 189.5 83.9C189.5 31.9 147.1 -10.5 95.1 -10.5ZM95.1 178.8C42.8 178.8 0.199951 136.2 0.199951 83.9C0.199951 31.5 42.8 -11 95.1 -11C147.5 -11 190 31.5 190 83.9C190 136.2 147.5 178.8 95.1 178.8Z" fill="white"/>
</mask>
<g mask="url(#mask62_416_1256)">
<path d="M-101 -89.7H1021V1032.3H-101V-89.7Z" fill="white"/>
</g>
</mask>
<g mask="url(#mask61_416_1256)">
<path d="M95.1 -10.5C43.1 -10.5 0.799957 31.9 0.799957 83.9C0.799957 135.9 43.1 178.2 95.1 178.2C147.1 178.2 189.5 135.9 189.5 83.9C189.5 31.9 147.1 -10.5 95.1 -10.5ZM95.1 178.8C42.8 178.8 0.199951 136.2 0.199951 83.9C0.199951 31.5 42.8 -11 95.1 -11C147.5 -11 190 31.5 190 83.9C190 136.2 147.5 178.8 95.1 178.8Z" fill="white"/>
</g>
</mask>
<g mask="url(#mask60_416_1256)">
<path d="M-101 -89.7H1021V1032.3H-101V-89.7Z" fill="url(#paint20_linear_416_1256)"/>
</g>
</g>
<defs>
<linearGradient id="paint0_linear_416_1256" x1="44.127" y1="83.8709" x2="146.123" y2="83.8709" gradientUnits="userSpaceOnUse">
<stop stop-color="#3DDEED"/>
<stop offset="1" stop-color="#CB00DD"/>
</linearGradient>
<linearGradient id="paint1_linear_416_1256" x1="40.643" y1="83.8712" x2="149.608" y2="83.8712" gradientUnits="userSpaceOnUse">
<stop stop-color="#3DDEED"/>
<stop offset="1" stop-color="#CB00DD"/>
</linearGradient>
<linearGradient id="paint2_linear_416_1256" x1="37.131" y1="83.871" x2="153.12" y2="83.871" gradientUnits="userSpaceOnUse">
<stop stop-color="#3DDEED"/>
<stop offset="1" stop-color="#CB00DD"/>
</linearGradient>
<linearGradient id="paint3_linear_416_1256" x1="33.621" y1="83.8711" x2="156.629" y2="83.8711" gradientUnits="userSpaceOnUse">
<stop stop-color="#3DDEED"/>
<stop offset="1" stop-color="#CB00DD"/>
</linearGradient>
<linearGradient id="paint4_linear_416_1256" x1="30.145" y1="83.8711" x2="160.107" y2="83.8711" gradientUnits="userSpaceOnUse">
<stop stop-color="#3DDEED"/>
<stop offset="1" stop-color="#CB00DD"/>
</linearGradient>
<linearGradient id="paint5_linear_416_1256" x1="26.789" y1="83.8711" x2="163.462" y2="83.8711" gradientUnits="userSpaceOnUse">
<stop stop-color="#3DDEED"/>
<stop offset="1" stop-color="#CB00DD"/>
</linearGradient>
<linearGradient id="paint6_linear_416_1256" x1="23.467" y1="83.8711" x2="166.784" y2="83.8711" gradientUnits="userSpaceOnUse">
<stop stop-color="#3DDEED"/>
<stop offset="1" stop-color="#CB00DD"/>
</linearGradient>
<linearGradient id="paint7_linear_416_1256" x1="20.271" y1="83.8711" x2="169.978" y2="83.8711" gradientUnits="userSpaceOnUse">
<stop stop-color="#3DDEED"/>
<stop offset="1" stop-color="#CB00DD"/>
</linearGradient>
<linearGradient id="paint8_linear_416_1256" x1="17.234" y1="83.8712" x2="173.017" y2="83.8712" gradientUnits="userSpaceOnUse">
<stop stop-color="#3DDEED"/>
<stop offset="1" stop-color="#CB00DD"/>
</linearGradient>
<linearGradient id="paint9_linear_416_1256" x1="14.384" y1="83.8709" x2="175.867" y2="83.8709" gradientUnits="userSpaceOnUse">
<stop stop-color="#3DDEED"/>
<stop offset="1" stop-color="#CB00DD"/>
</linearGradient>
<linearGradient id="paint10_linear_416_1256" x1="11.748" y1="83.8709" x2="178.503" y2="83.8709" gradientUnits="userSpaceOnUse">
<stop stop-color="#3DDEED"/>
<stop offset="1" stop-color="#CB00DD"/>
</linearGradient>
<linearGradient id="paint11_linear_416_1256" x1="9.34899" y1="83.8711" x2="180.904" y2="83.8711" gradientUnits="userSpaceOnUse">
<stop stop-color="#3DDEED"/>
<stop offset="1" stop-color="#CB00DD"/>
</linearGradient>
<linearGradient id="paint12_linear_416_1256" x1="7.206" y1="83.8711" x2="183.045" y2="83.8711" gradientUnits="userSpaceOnUse">
<stop stop-color="#3DDEED"/>
<stop offset="1" stop-color="#CB00DD"/>
</linearGradient>
<linearGradient id="paint13_linear_416_1256" x1="5.345" y1="83.8712" x2="184.906" y2="83.8712" gradientUnits="userSpaceOnUse">
<stop stop-color="#3DDEED"/>
<stop offset="1" stop-color="#CB00DD"/>
</linearGradient>
<linearGradient id="paint14_linear_416_1256" x1="3.777" y1="83.8711" x2="186.473" y2="83.8711" gradientUnits="userSpaceOnUse">
<stop stop-color="#3DDEED"/>
<stop offset="1" stop-color="#CB00DD"/>
</linearGradient>
<linearGradient id="paint15_linear_416_1256" x1="2.509" y1="83.8711" x2="187.743" y2="83.8711" gradientUnits="userSpaceOnUse">
<stop stop-color="#3DDEED"/>
<stop offset="1" stop-color="#CB00DD"/>
</linearGradient>
<linearGradient id="paint16_linear_416_1256" x1="1.538" y1="83.8712" x2="188.713" y2="83.8712" gradientUnits="userSpaceOnUse">
<stop stop-color="#3DDEED"/>
<stop offset="1" stop-color="#CB00DD"/>
</linearGradient>
<linearGradient id="paint17_linear_416_1256" x1="0.856995" y1="83.8712" x2="189.393" y2="83.8712" gradientUnits="userSpaceOnUse">
<stop stop-color="#3DDEED"/>
<stop offset="1" stop-color="#CB00DD"/>
</linearGradient>
<linearGradient id="paint18_linear_416_1256" x1="0.488001" y1="83.8711" x2="189.763" y2="83.8711" gradientUnits="userSpaceOnUse">
<stop stop-color="#3DDEED"/>
<stop offset="1" stop-color="#CB00DD"/>
</linearGradient>
<linearGradient id="paint19_linear_416_1256" x1="0.280003" y1="83.8691" x2="189.974" y2="83.8691" gradientUnits="userSpaceOnUse">
<stop stop-color="#3DDEED"/>
<stop offset="1" stop-color="#CB00DD"/>
</linearGradient>
<linearGradient id="paint20_linear_416_1256" x1="0.228998" y1="83.871" x2="190.022" y2="83.871" gradientUnits="userSpaceOnUse">
<stop stop-color="#3DDEED"/>
<stop offset="1" stop-color="#CB00DD"/>
</linearGradient>
<clipPath id="clip0_416_1256">
<rect width="190" height="175" fill="white" transform="translate(0 -3.69995)"/>
</clipPath>
</defs>
</svg>
