<svg width="403" height="356" viewBox="0 0 403 356" fill="none" xmlns="http://www.w3.org/2000/svg">
<g opacity="0.7">
<mask id="mask0_480_221" style="mask-type:luminance" maskUnits="userSpaceOnUse" x="85" y="27" width="233" height="302">
<mask id="mask1_480_221" style="mask-type:luminance" maskUnits="userSpaceOnUse" x="85" y="27" width="233" height="302">
<mask id="mask2_480_221" style="mask-type:luminance" maskUnits="userSpaceOnUse" x="85" y="27" width="233" height="302">
<path d="M95.1624 28.4795C96.5816 28.4795 97.798 28.683 99.42 29.2933L297.093 93.7801C304.797 96.4247 311.285 104.765 311.488 112.699L316.961 317.348C316.961 321.213 315.745 324.265 313.312 326.096C310.879 327.926 307.433 328.333 303.581 327.113L105.908 262.422C98.2035 259.981 91.7159 251.437 91.5131 243.504L86.0391 38.8544C85.8363 35.1927 87.2555 32.1413 89.6884 30.3104C91.1076 29.0898 93.135 28.4795 95.1624 28.4795ZM307.838 328.537C310.068 328.537 312.096 327.926 313.718 326.706C316.353 324.672 317.773 321.417 317.57 317.348L312.096 112.699C311.893 104.562 305.203 95.8144 297.296 93.1698L99.6228 28.4795C95.5679 27.259 91.9185 27.6658 89.2829 29.7001C86.6472 31.7344 85.2281 34.9893 85.2281 38.8544L90.9048 243.504C91.1075 251.641 97.5954 260.592 105.705 263.033L303.378 327.723C305 328.333 306.419 328.537 307.838 328.537Z" fill="white"/>
</mask>
<g mask="url(#mask2_480_221)">
<path d="M1610.25 -174.948H-664.51V2107.52H1610.25V-174.948Z" fill="white"/>
</g>
</mask>
<g mask="url(#mask1_480_221)">
<path d="M95.1624 28.4795C96.5816 28.4795 97.798 28.683 99.42 29.2933L297.093 93.7801C304.797 96.4247 311.285 104.765 311.488 112.699L316.961 317.348C316.961 321.213 315.745 324.265 313.312 326.096C310.879 327.926 307.433 328.333 303.581 327.113L105.908 262.422C98.2035 259.981 91.7159 251.437 91.5131 243.504L86.0391 38.8544C85.8363 35.1927 87.2555 32.1413 89.6884 30.3104C91.1076 29.0898 93.135 28.4795 95.1624 28.4795ZM307.838 328.537C310.068 328.537 312.096 327.926 313.718 326.706C316.353 324.672 317.773 321.417 317.57 317.348L312.096 112.699C311.893 104.562 305.203 95.8144 297.296 93.1698L99.6228 28.4795C95.5679 27.259 91.9185 27.6658 89.2829 29.7001C86.6472 31.7344 85.2281 34.9893 85.2281 38.8544L90.9048 243.504C91.1075 251.641 97.5954 260.592 105.705 263.033L303.378 327.723C305 328.333 306.419 328.537 307.838 328.537Z" fill="white"/>
</g>
</mask>
<g mask="url(#mask0_480_221)">
<path d="M1610.25 -174.948H-664.51V2107.52H1610.25V-174.948Z" fill="url(#paint0_linear_480_221)"/>
</g>
<mask id="mask3_480_221" style="mask-type:luminance" maskUnits="userSpaceOnUse" x="73" y="33" width="257" height="291">
<mask id="mask4_480_221" style="mask-type:luminance" maskUnits="userSpaceOnUse" x="73" y="33" width="257" height="291">
<mask id="mask5_480_221" style="mask-type:luminance" maskUnits="userSpaceOnUse" x="73" y="33" width="257" height="291">
<path d="M83.6061 33.9722C84.6198 33.9722 85.6335 34.1756 86.8499 34.3791L289.389 82.9985C297.296 84.8294 304.392 92.9665 305.405 101.104L328.518 310.838C329.126 314.704 327.91 317.958 325.679 319.993C323.247 322.23 320.003 322.841 316.151 321.824L113.612 273.408C105.705 271.373 98.609 263.236 97.5953 255.099L74.2801 45.5676C73.8746 41.7025 74.8883 38.2442 77.3212 36.2099C78.9431 34.7859 81.1732 33.9722 83.6061 33.9722ZM319.394 323.044C322.03 323.044 324.26 322.23 326.085 320.603C328.72 318.365 329.734 314.907 329.329 310.635L306.013 101.104C305.203 92.5596 297.701 84.2191 289.591 82.1848L86.8499 33.7688C82.9979 32.7516 79.3486 33.3619 76.9157 35.5996C74.28 37.8374 73.2663 41.4991 73.6718 45.5676L96.987 255.302C97.798 263.643 105.299 272.187 113.409 274.018L315.948 322.637C317.164 322.841 318.381 323.044 319.394 323.044Z" fill="white"/>
</mask>
<g mask="url(#mask5_480_221)">
<path d="M1610.25 -174.948H-664.51V2107.52H1610.25V-174.948Z" fill="white"/>
</g>
</mask>
<g mask="url(#mask4_480_221)">
<path d="M83.6061 33.9722C84.6198 33.9722 85.6335 34.1756 86.8499 34.3791L289.389 82.9985C297.296 84.8294 304.392 92.9665 305.405 101.104L328.518 310.838C329.126 314.704 327.91 317.958 325.679 319.993C323.247 322.23 320.003 322.841 316.151 321.824L113.612 273.408C105.705 271.373 98.609 263.236 97.5953 255.099L74.2801 45.5676C73.8746 41.7025 74.8883 38.2442 77.3212 36.2099C78.9431 34.7859 81.1732 33.9722 83.6061 33.9722ZM319.394 323.044C322.03 323.044 324.26 322.23 326.085 320.603C328.72 318.365 329.734 314.907 329.329 310.635L306.013 101.104C305.203 92.5596 297.701 84.2191 289.591 82.1848L86.8499 33.7688C82.9979 32.7516 79.3486 33.3619 76.9157 35.5996C74.28 37.8374 73.2663 41.4991 73.6718 45.5676L96.987 255.302C97.798 263.643 105.299 272.187 113.409 274.018L315.948 322.637C317.164 322.841 318.381 323.044 319.394 323.044Z" fill="white"/>
</g>
</mask>
<g mask="url(#mask3_480_221)">
<path d="M1610.25 -174.948H-664.51V2107.52H1610.25V-174.948Z" fill="url(#paint1_linear_480_221)"/>
</g>
<mask id="mask6_480_221" style="mask-type:luminance" maskUnits="userSpaceOnUse" x="62" y="39" width="279" height="278">
<mask id="mask7_480_221" style="mask-type:luminance" maskUnits="userSpaceOnUse" x="62" y="39" width="279" height="278">
<mask id="mask8_480_221" style="mask-type:luminance" maskUnits="userSpaceOnUse" x="62" y="39" width="279" height="278">
<path d="M72.6583 40.6866C73.2665 40.6866 74.0775 40.6866 74.6857 40.89L280.874 72.4215C288.781 73.6421 296.688 81.3724 298.31 89.7129L339.669 302.906C340.48 306.975 339.669 310.433 337.439 312.874C335.208 315.112 331.965 315.926 328.315 315.519L122.127 283.784C114.22 282.563 106.313 274.833 104.692 266.696L63.3322 53.5026C62.5212 49.4341 63.3322 45.7723 65.5623 43.5346C67.387 41.7038 69.8199 40.6866 72.6583 40.6866ZM330.343 316.332C333.384 316.332 336.019 315.315 337.844 313.281C340.277 310.84 341.088 306.975 340.277 302.703L298.918 89.5095C297.296 80.9655 289.186 73.0318 280.874 71.8112L74.8885 40.0763C70.8337 39.466 67.3871 40.4832 65.1569 42.9243C62.724 45.5689 61.7102 49.2306 62.5212 53.5026L104.083 266.696C105.705 275.24 113.815 283.377 122.127 284.598L328.112 316.129C328.923 316.332 329.532 316.332 330.343 316.332Z" fill="white"/>
</mask>
<g mask="url(#mask8_480_221)">
<path d="M1610.25 -174.948H-664.51V2107.52H1610.25V-174.948Z" fill="white"/>
</g>
</mask>
<g mask="url(#mask7_480_221)">
<path d="M72.6583 40.6866C73.2665 40.6866 74.0775 40.6866 74.6857 40.89L280.874 72.4215C288.781 73.6421 296.688 81.3724 298.31 89.7129L339.669 302.906C340.48 306.975 339.669 310.433 337.439 312.874C335.208 315.112 331.965 315.926 328.315 315.519L122.127 283.784C114.22 282.563 106.313 274.833 104.692 266.696L63.3322 53.5026C62.5212 49.4341 63.3322 45.7723 65.5623 43.5346C67.387 41.7038 69.8199 40.6866 72.6583 40.6866ZM330.343 316.332C333.384 316.332 336.019 315.315 337.844 313.281C340.277 310.84 341.088 306.975 340.277 302.703L298.918 89.5095C297.296 80.9655 289.186 73.0318 280.874 71.8112L74.8885 40.0763C70.8337 39.466 67.3871 40.4832 65.1569 42.9243C62.724 45.5689 61.7102 49.2306 62.5212 53.5026L104.083 266.696C105.705 275.24 113.815 283.377 122.127 284.598L328.112 316.129C328.923 316.332 329.532 316.332 330.343 316.332Z" fill="white"/>
</g>
</mask>
<g mask="url(#mask6_480_221)">
<path d="M1610.25 -174.948H-664.51V2107.52H1610.25V-174.948Z" fill="url(#paint2_linear_480_221)"/>
</g>
<mask id="mask9_480_221" style="mask-type:luminance" maskUnits="userSpaceOnUse" x="51" y="47" width="301" height="262">
<mask id="mask10_480_221" style="mask-type:luminance" maskUnits="userSpaceOnUse" x="51" y="47" width="301" height="262">
<mask id="mask11_480_221" style="mask-type:luminance" maskUnits="userSpaceOnUse" x="51" y="47" width="301" height="262">
<path d="M62.3187 48.6207C62.7242 48.6207 62.9269 48.6207 63.3324 48.6207L271.345 62.4538C279.455 62.8607 287.97 70.1841 290.2 78.5247L350.009 293.752C351.022 297.821 350.617 301.686 348.387 304.33C346.562 306.772 343.318 307.992 339.669 307.789L131.656 293.956C123.547 293.345 115.032 286.022 112.801 277.681L52.9926 62.4538C51.9789 58.3852 52.3844 54.5201 54.6146 51.8755C56.4392 49.6378 59.0749 48.6207 62.3187 48.6207ZM340.683 308.602C344.129 308.602 346.968 307.178 348.995 304.941C351.225 302.093 351.833 298.024 350.617 293.549L290.808 78.3212C288.578 69.7772 279.657 62.2504 271.345 61.6401L63.3324 47.807C59.4803 47.6035 56.0338 48.8241 54.0063 51.4687C51.7762 54.3167 51.1679 58.3852 52.3843 62.6572L111.99 277.885C114.423 286.632 123.141 294.159 131.656 294.566L339.669 308.399C339.872 308.399 340.277 308.602 340.683 308.602Z" fill="white"/>
</mask>
<g mask="url(#mask11_480_221)">
<path d="M1610.25 -174.947H-664.509V2107.52H1610.25V-174.947Z" fill="white"/>
</g>
</mask>
<g mask="url(#mask10_480_221)">
<path d="M62.3187 48.6207C62.7242 48.6207 62.9269 48.6207 63.3324 48.6207L271.345 62.4538C279.455 62.8607 287.97 70.1841 290.2 78.5247L350.009 293.752C351.022 297.821 350.617 301.686 348.387 304.33C346.562 306.772 343.318 307.992 339.669 307.789L131.656 293.956C123.547 293.345 115.032 286.022 112.801 277.681L52.9926 62.4538C51.9789 58.3852 52.3844 54.5201 54.6146 51.8755C56.4392 49.6378 59.0749 48.6207 62.3187 48.6207ZM340.683 308.602C344.129 308.602 346.968 307.178 348.995 304.941C351.225 302.093 351.833 298.024 350.617 293.549L290.808 78.3212C288.578 69.7772 279.657 62.2504 271.345 61.6401L63.3324 47.807C59.4803 47.6035 56.0338 48.8241 54.0063 51.4687C51.7762 54.3167 51.1679 58.3852 52.3843 62.6572L111.99 277.885C114.423 286.632 123.141 294.159 131.656 294.566L339.669 308.399C339.872 308.399 340.277 308.602 340.683 308.602Z" fill="white"/>
</g>
</mask>
<g mask="url(#mask9_480_221)">
<path d="M1610.25 -174.947H-664.509V2107.52H1610.25V-174.947Z" fill="url(#paint3_linear_480_221)"/>
</g>
<mask id="mask12_480_221" style="mask-type:luminance" maskUnits="userSpaceOnUse" x="41" y="52" width="321" height="253">
<mask id="mask13_480_221" style="mask-type:luminance" maskUnits="userSpaceOnUse" x="41" y="52" width="321" height="253">
<mask id="mask14_480_221" style="mask-type:luminance" maskUnits="userSpaceOnUse" x="41" y="52" width="321" height="253">
<path d="M261.411 52.892C269.318 52.892 278.238 59.6052 281.279 67.9458L359.335 283.58C360.957 287.649 360.754 291.717 358.726 294.769C356.902 297.21 354.063 298.634 350.414 298.837L141.996 303.313C133.886 303.516 124.763 296.803 121.722 288.462L43.4637 72.828C42.0445 68.556 42.2472 64.4875 44.2746 61.6395C45.8965 58.9949 48.9377 57.5709 52.587 57.5709L261.005 52.892C261.208 52.892 261.208 52.892 261.411 52.892ZM141.59 304.126C141.793 304.126 141.793 304.126 141.996 304.126L350.414 299.447C354.266 299.447 357.51 297.82 359.335 295.176C361.362 292.124 361.768 287.649 360.146 283.173L281.887 67.5389C278.846 58.9949 269.723 52.2817 261.411 52.2817C261.208 52.2817 261.208 52.2817 261.005 52.2817L52.587 56.7572C48.735 56.7572 45.491 58.3846 43.6664 61.2326C41.4362 64.284 41.2336 68.556 42.8555 73.0315L121.114 288.666C124.155 297.21 133.278 304.126 141.59 304.126Z" fill="white"/>
</mask>
<g mask="url(#mask14_480_221)">
<path d="M1610.25 -174.948H-664.509V2107.52H1610.25V-174.948Z" fill="white"/>
</g>
</mask>
<g mask="url(#mask13_480_221)">
<path d="M261.411 52.892C269.318 52.892 278.238 59.6052 281.279 67.9458L359.335 283.58C360.957 287.649 360.754 291.717 358.726 294.769C356.902 297.21 354.063 298.634 350.414 298.837L141.996 303.313C133.886 303.516 124.763 296.803 121.722 288.462L43.4637 72.828C42.0445 68.556 42.2472 64.4875 44.2746 61.6395C45.8965 58.9949 48.9377 57.5709 52.587 57.5709L261.005 52.892C261.208 52.892 261.208 52.892 261.411 52.892ZM141.59 304.126C141.793 304.126 141.793 304.126 141.996 304.126L350.414 299.447C354.266 299.447 357.51 297.82 359.335 295.176C361.362 292.124 361.768 287.649 360.146 283.173L281.887 67.5389C278.846 58.9949 269.723 52.2817 261.411 52.2817C261.208 52.2817 261.208 52.2817 261.005 52.2817L52.587 56.7572C48.735 56.7572 45.491 58.3846 43.6664 61.2326C41.4362 64.284 41.2336 68.556 42.8555 73.0315L121.114 288.666C124.155 297.21 133.278 304.126 141.59 304.126Z" fill="white"/>
</g>
</mask>
<g mask="url(#mask12_480_221)">
<path d="M1610.25 -174.948H-664.509V2107.52H1610.25V-174.948Z" fill="url(#paint4_linear_480_221)"/>
</g>
<mask id="mask15_480_221" style="mask-type:luminance" maskUnits="userSpaceOnUse" x="32" y="43" width="339" height="270">
<mask id="mask16_480_221" style="mask-type:luminance" maskUnits="userSpaceOnUse" x="32" y="43" width="339" height="270">
<mask id="mask17_480_221" style="mask-type:luminance" maskUnits="userSpaceOnUse" x="32" y="43" width="339" height="270">
<path d="M251.476 44.1443C259.18 44.1443 267.898 49.8403 271.345 57.774L367.85 272.188C369.877 276.46 369.877 280.732 368.255 283.783C366.633 286.428 363.795 288.259 360.348 288.665L153.146 312.06C145.037 312.873 135.508 306.974 131.656 298.633L34.9483 84.2197C33.1236 79.9477 32.9209 75.6757 34.7456 72.4208C36.3676 69.7763 39.2058 68.1488 42.6524 67.742L249.854 44.1443C250.462 44.1443 251.071 44.1443 251.476 44.1443ZM151.525 312.873C151.93 312.873 152.538 312.873 153.146 312.873L360.348 289.276C364.2 288.869 367.241 287.038 368.863 284.19C370.688 280.732 370.688 276.256 368.661 271.781L271.953 57.3671C268.101 48.8231 258.167 42.5168 249.854 43.534L42.6524 66.9283C38.8004 67.3351 35.7592 69.166 34.1373 72.014C32.3126 75.4723 32.3127 79.9477 34.3401 84.4231L131.048 298.837C134.494 306.974 143.415 312.873 151.525 312.873Z" fill="white"/>
</mask>
<g mask="url(#mask17_480_221)">
<path d="M1610.25 -174.948H-664.51V2107.52H1610.25V-174.948Z" fill="white"/>
</g>
</mask>
<g mask="url(#mask16_480_221)">
<path d="M251.476 44.1443C259.18 44.1443 267.898 49.8403 271.345 57.774L367.85 272.188C369.877 276.46 369.877 280.732 368.255 283.783C366.633 286.428 363.795 288.259 360.348 288.665L153.146 312.06C145.037 312.873 135.508 306.974 131.656 298.633L34.9483 84.2197C33.1236 79.9477 32.9209 75.6757 34.7456 72.4208C36.3676 69.7763 39.2058 68.1488 42.6524 67.742L249.854 44.1443C250.462 44.1443 251.071 44.1443 251.476 44.1443ZM151.525 312.873C151.93 312.873 152.538 312.873 153.146 312.873L360.348 289.276C364.2 288.869 367.241 287.038 368.863 284.19C370.688 280.732 370.688 276.256 368.661 271.781L271.953 57.3671C268.101 48.8231 258.167 42.5168 249.854 43.534L42.6524 66.9283C38.8004 67.3351 35.7592 69.166 34.1373 72.014C32.3126 75.4723 32.3127 79.9477 34.3401 84.4231L131.048 298.837C134.494 306.974 143.415 312.873 151.525 312.873Z" fill="white"/>
</g>
</mask>
<g mask="url(#mask15_480_221)">
<path d="M1610.25 -174.948H-664.51V2107.52H1610.25V-174.948Z" fill="url(#paint5_linear_480_221)"/>
</g>
<mask id="mask18_480_221" style="mask-type:luminance" maskUnits="userSpaceOnUse" x="24" y="35" width="355" height="287">
<mask id="mask19_480_221" style="mask-type:luminance" maskUnits="userSpaceOnUse" x="24" y="35" width="355" height="287">
<mask id="mask20_480_221" style="mask-type:luminance" maskUnits="userSpaceOnUse" x="24" y="35" width="355" height="287">
<path d="M241.136 36.007C248.435 36.007 256.747 40.8893 260.599 48.2127L375.554 259.575C377.784 263.847 378.189 268.322 376.567 271.781C375.351 274.629 372.715 276.663 369.269 277.273L164.905 319.993C156.998 321.621 146.861 316.332 142.401 308.194L27.4468 96.6287C25.2166 92.3567 24.8112 87.8813 26.2304 84.423C27.6496 81.7784 30.2852 79.7441 33.7318 78.9304L238.095 36.2104C239.109 36.007 240.122 36.007 241.136 36.007ZM161.864 321.214C162.878 321.214 164.094 321.01 165.108 320.807L369.471 278.087C373.121 277.273 375.959 275.239 377.378 272.188C379 268.526 378.595 263.847 376.162 259.168L261.208 47.8058C256.544 39.2618 246.205 33.7693 237.892 35.3967L33.529 78.3201C29.8797 78.9304 27.0414 81.1681 25.6222 84.2196C24.0002 87.8813 24.4057 92.5601 26.8386 97.0356L141.793 308.601C145.848 315.925 154.363 321.214 161.864 321.214Z" fill="white"/>
</mask>
<g mask="url(#mask20_480_221)">
<path d="M1610.25 -174.948H-664.509V2107.52H1610.25V-174.948Z" fill="white"/>
</g>
</mask>
<g mask="url(#mask19_480_221)">
<path d="M241.136 36.007C248.435 36.007 256.747 40.8893 260.599 48.2127L375.554 259.575C377.784 263.847 378.189 268.322 376.567 271.781C375.351 274.629 372.715 276.663 369.269 277.273L164.905 319.993C156.998 321.621 146.861 316.332 142.401 308.194L27.4468 96.6287C25.2166 92.3567 24.8112 87.8813 26.2304 84.423C27.6496 81.7784 30.2852 79.7441 33.7318 78.9304L238.095 36.2104C239.109 36.007 240.122 36.007 241.136 36.007ZM161.864 321.214C162.878 321.214 164.094 321.01 165.108 320.807L369.471 278.087C373.121 277.273 375.959 275.239 377.378 272.188C379 268.526 378.595 263.847 376.162 259.168L261.208 47.8058C256.544 39.2618 246.205 33.7693 237.892 35.3967L33.529 78.3201C29.8797 78.9304 27.0414 81.1681 25.6222 84.2196C24.0002 87.8813 24.4057 92.5601 26.8386 97.0356L141.793 308.601C145.848 315.925 154.363 321.214 161.864 321.214Z" fill="white"/>
</g>
</mask>
<g mask="url(#mask18_480_221)">
<path d="M1610.25 -174.948H-664.509V2107.52H1610.25V-174.948Z" fill="url(#paint6_linear_480_221)"/>
</g>
<mask id="mask21_480_221" style="mask-type:luminance" maskUnits="userSpaceOnUse" x="17" y="27" width="369" height="302">
<mask id="mask22_480_221" style="mask-type:luminance" maskUnits="userSpaceOnUse" x="17" y="27" width="369" height="302">
<mask id="mask23_480_221" style="mask-type:luminance" maskUnits="userSpaceOnUse" x="17" y="27" width="369" height="302">
<path d="M229.985 28.4796C237.081 28.4796 244.785 32.7516 249.043 39.2614L381.839 246.148C384.677 250.42 385.488 254.896 384.069 258.557C383.055 261.609 380.622 263.846 377.378 264.864L177.273 327.113C169.568 329.554 159.026 325.078 153.957 316.941L21.1618 110.258C18.3234 105.986 17.5124 101.307 18.9315 97.6453C19.9453 94.5939 22.3783 92.5596 25.6221 91.5425L225.728 29.0899C226.944 28.6831 228.566 28.4796 229.985 28.4796ZM173.015 328.537C174.434 328.537 176.056 328.333 177.475 327.926L377.581 265.677C381.028 264.457 383.663 262.016 384.88 258.964C386.299 254.896 385.488 250.217 382.447 245.741L249.651 38.8545C244.38 30.5139 233.432 25.8351 225.322 28.2762L25.4193 90.7288C21.9727 91.7459 19.3371 94.187 18.1207 97.4419C16.7015 101.307 17.5124 106.189 20.3508 110.665L153.349 317.348C157.607 324.265 165.716 328.537 173.015 328.537Z" fill="white"/>
</mask>
<g mask="url(#mask23_480_221)">
<path d="M1610.25 -174.948H-664.509V2107.52H1610.25V-174.948Z" fill="white"/>
</g>
</mask>
<g mask="url(#mask22_480_221)">
<path d="M229.985 28.4796C237.081 28.4796 244.785 32.7516 249.043 39.2614L381.839 246.148C384.677 250.42 385.488 254.896 384.069 258.557C383.055 261.609 380.622 263.846 377.378 264.864L177.273 327.113C169.568 329.554 159.026 325.078 153.957 316.941L21.1618 110.258C18.3234 105.986 17.5124 101.307 18.9315 97.6453C19.9453 94.5939 22.3783 92.5596 25.6221 91.5425L225.728 29.0899C226.944 28.6831 228.566 28.4796 229.985 28.4796ZM173.015 328.537C174.434 328.537 176.056 328.333 177.475 327.926L377.581 265.677C381.028 264.457 383.663 262.016 384.88 258.964C386.299 254.896 385.488 250.217 382.447 245.741L249.651 38.8545C244.38 30.5139 233.432 25.8351 225.322 28.2762L25.4193 90.7288C21.9727 91.7459 19.3371 94.187 18.1207 97.4419C16.7015 101.307 17.5124 106.189 20.3508 110.665L153.349 317.348C157.607 324.265 165.716 328.537 173.015 328.537Z" fill="white"/>
</g>
</mask>
<g mask="url(#mask21_480_221)">
<path d="M1610.25 -174.948H-664.509V2107.52H1610.25V-174.948Z" fill="url(#paint7_linear_480_221)"/>
</g>
<mask id="mask24_480_221" style="mask-type:luminance" maskUnits="userSpaceOnUse" x="11" y="21" width="381" height="315">
<mask id="mask25_480_221" style="mask-type:luminance" maskUnits="userSpaceOnUse" x="11" y="21" width="381" height="315">
<mask id="mask26_480_221" style="mask-type:luminance" maskUnits="userSpaceOnUse" x="11" y="21" width="381" height="315">
<path d="M218.429 21.7675C225.119 21.7675 232.418 25.4293 236.878 31.3287L387.11 231.706C390.151 235.774 391.367 240.453 390.354 244.522C389.543 247.573 387.313 250.014 384.069 251.438L190.451 333.42C182.949 336.675 172.001 332.81 166.122 325.08L15.8904 124.499C12.8492 120.43 11.6328 115.752 12.6465 111.886C13.4575 108.632 15.6876 106.19 18.9315 104.97L212.549 22.9881C214.374 22.1744 216.402 21.7675 218.429 21.7675ZM184.571 335.251C186.599 335.251 188.829 334.844 190.653 334.234L384.474 252.049C387.921 250.625 390.151 247.98 391.165 244.725C392.178 240.453 390.962 235.571 387.718 231.299L237.487 30.7184C231.405 22.7847 220.051 18.9196 212.347 22.1744L18.5261 104.156C15.0795 105.58 12.8492 108.225 11.8355 111.683C10.8218 115.752 12.0383 120.634 15.2822 125.109L165.514 325.486C170.177 331.589 177.678 335.251 184.571 335.251Z" fill="white"/>
</mask>
<g mask="url(#mask26_480_221)">
<path d="M1610.25 -174.948H-664.509V2107.52H1610.25V-174.948Z" fill="white"/>
</g>
</mask>
<g mask="url(#mask25_480_221)">
<path d="M218.429 21.7675C225.119 21.7675 232.418 25.4293 236.878 31.3287L387.11 231.706C390.151 235.774 391.367 240.453 390.354 244.522C389.543 247.573 387.313 250.014 384.069 251.438L190.451 333.42C182.949 336.675 172.001 332.81 166.122 325.08L15.8904 124.499C12.8492 120.43 11.6328 115.752 12.6465 111.886C13.4575 108.632 15.6876 106.19 18.9315 104.97L212.549 22.9881C214.374 22.1744 216.402 21.7675 218.429 21.7675ZM184.571 335.251C186.599 335.251 188.829 334.844 190.653 334.234L384.474 252.049C387.921 250.625 390.151 247.98 391.165 244.725C392.178 240.453 390.962 235.571 387.718 231.299L237.487 30.7184C231.405 22.7847 220.051 18.9196 212.347 22.1744L18.5261 104.156C15.0795 105.58 12.8492 108.225 11.8355 111.683C10.8218 115.752 12.0383 120.634 15.2822 125.109L165.514 325.486C170.177 331.589 177.678 335.251 184.571 335.251Z" fill="white"/>
</g>
</mask>
<g mask="url(#mask24_480_221)">
<path d="M1610.25 -174.948H-664.509V2107.52H1610.25V-174.948Z" fill="url(#paint8_linear_480_221)"/>
</g>
<mask id="mask27_480_221" style="mask-type:luminance" maskUnits="userSpaceOnUse" x="6" y="15" width="391" height="327">
<mask id="mask28_480_221" style="mask-type:luminance" maskUnits="userSpaceOnUse" x="6" y="15" width="391" height="327">
<mask id="mask29_480_221" style="mask-type:luminance" maskUnits="userSpaceOnUse" x="6" y="15" width="391" height="327">
<path d="M206.468 15.8682C212.55 15.8682 219.443 18.9196 223.904 24.0053L390.963 216.449C394.612 220.314 396.031 225.196 395.423 229.265C394.815 232.52 392.787 235.164 389.746 236.792L203.832 338.506C196.736 342.575 185.586 339.727 179.098 332.2L12.039 139.96C8.38971 135.891 6.97049 131.212 7.5787 126.94C8.18692 123.685 10.2143 121.041 13.2554 119.413L199.169 17.699C201.197 16.4785 203.832 15.8682 206.468 15.8682ZM196.534 341.151C199.372 341.151 202.008 340.54 204.238 339.32L390.152 237.605C393.396 235.775 395.423 232.926 396.234 229.468C396.842 224.993 395.22 220.111 391.571 215.839L224.512 23.5985C217.822 15.8682 206.265 12.8168 198.764 16.8853L12.8499 118.803C9.60608 120.43 7.37592 123.278 6.7677 126.94C5.95673 131.212 7.78149 136.298 11.4308 140.366L178.49 332.81C183.153 338.099 190.046 341.151 196.534 341.151Z" fill="white"/>
</mask>
<g mask="url(#mask29_480_221)">
<path d="M1610.25 -174.948H-664.509V2107.52H1610.25V-174.948Z" fill="white"/>
</g>
</mask>
<g mask="url(#mask28_480_221)">
<path d="M206.468 15.8682C212.55 15.8682 219.443 18.9196 223.904 24.0053L390.963 216.449C394.612 220.314 396.031 225.196 395.423 229.265C394.815 232.52 392.787 235.164 389.746 236.792L203.832 338.506C196.736 342.575 185.586 339.727 179.098 332.2L12.039 139.96C8.38971 135.891 6.97049 131.212 7.5787 126.94C8.18692 123.685 10.2143 121.041 13.2554 119.413L199.169 17.699C201.197 16.4785 203.832 15.8682 206.468 15.8682ZM196.534 341.151C199.372 341.151 202.008 340.54 204.238 339.32L390.152 237.605C393.396 235.775 395.423 232.926 396.234 229.468C396.842 224.993 395.22 220.111 391.571 215.839L224.512 23.5985C217.822 15.8682 206.265 12.8168 198.764 16.8853L12.8499 118.803C9.60608 120.43 7.37592 123.278 6.7677 126.94C5.95673 131.212 7.78149 136.298 11.4308 140.366L178.49 332.81C183.153 338.099 190.046 341.151 196.534 341.151Z" fill="white"/>
</g>
</mask>
<g mask="url(#mask27_480_221)">
<path d="M1610.25 -174.948H-664.509V2107.52H1610.25V-174.948Z" fill="url(#paint9_linear_480_221)"/>
</g>
<mask id="mask30_480_221" style="mask-type:luminance" maskUnits="userSpaceOnUse" x="3" y="13" width="397" height="334">
<mask id="mask31_480_221" style="mask-type:luminance" maskUnits="userSpaceOnUse" x="3" y="13" width="538" height="455">
<mask id="mask32_480_221" style="mask-type:luminance" maskUnits="userSpaceOnUse" x="3" y="13" width="538" height="455">
<g clip-path="url(#clip0_480_221)">
<path d="M260.944 14.7496C268.576 14.7496 276.753 18.0273 283.022 24.0365L529.145 269.046C534.323 274.235 537.049 280.518 536.504 286.254C535.959 290.897 533.778 294.721 529.962 297.452L292.834 460.246C283.567 466.528 268.303 463.796 258.764 454.236L12.6409 209.5C7.46228 204.311 4.73663 198.028 5.28174 192.019C5.82684 187.649 8.00726 183.552 11.8231 181.094L248.952 18.3004C252.222 15.8422 256.583 14.7496 260.944 14.7496ZM280.841 464.616C285.475 464.616 289.836 463.523 293.379 461.065L530.508 298.272C534.596 295.54 537.049 291.17 537.594 286.527C538.139 280.244 535.414 273.689 529.962 268.226L283.567 23.217C273.755 13.3839 257.946 10.6525 248.407 17.2079L11.2781 180.001C7.1897 183.006 4.73657 187.103 4.19141 192.019C3.6463 198.302 6.37189 204.857 11.8231 210.047L257.946 455.056C264.215 461.338 272.937 464.616 280.841 464.616Z" fill="white"/>
</g>
</mask>
<g mask="url(#mask32_480_221)">
<path d="M1610.25 -174.948H-664.51V2107.52H1610.25V-174.948Z" fill="white"/>
</g>
</mask>
<g mask="url(#mask31_480_221)">
<path d="M194.1 10.9851C199.777 10.9851 205.859 13.4262 210.522 17.9017L393.598 200.377C397.45 204.242 399.477 208.921 399.072 213.193C398.666 216.651 397.044 219.499 394.206 221.534L217.821 342.777C210.928 347.456 199.574 345.422 192.478 338.302L9.40277 156.03C5.55069 152.165 3.52325 147.486 3.92874 143.01C4.3342 139.755 5.95605 136.704 8.79443 134.873L185.179 13.6296C187.612 11.7988 190.856 10.9851 194.1 10.9851ZM208.9 346.032C212.347 346.032 215.591 345.218 218.226 343.387L394.611 222.144C397.653 220.11 399.477 216.855 399.883 213.396C400.288 208.718 398.261 203.835 394.206 199.767L210.928 17.2914C203.629 9.96794 191.87 7.93366 184.774 12.8159L8.38907 134.059C5.34793 136.297 3.52319 139.349 3.11771 143.01C2.71222 147.689 4.73962 152.571 8.79443 156.436L191.87 338.912C196.533 343.591 203.021 346.032 208.9 346.032Z" fill="white"/>
</g>
</mask>
<g mask="url(#mask30_480_221)">
<path d="M1610.25 -174.948H-664.51V2107.52H1610.25V-174.948Z" fill="url(#paint10_linear_480_221)"/>
</g>
<mask id="mask33_480_221" style="mask-type:luminance" maskUnits="userSpaceOnUse" x="0" y="6" width="403" height="345">
<mask id="mask34_480_221" style="mask-type:luminance" maskUnits="userSpaceOnUse" x="0" y="6" width="403" height="345">
<mask id="mask35_480_221" style="mask-type:luminance" maskUnits="userSpaceOnUse" x="0" y="6" width="403" height="345">
<path d="M181.328 7.11922C186.599 7.11922 192.073 8.95008 196.534 12.8152L394.815 183.695C398.869 187.154 401.302 191.832 401.302 196.308C401.302 199.766 399.883 203.021 397.248 205.259L232.013 345.624C225.728 351.117 214.172 350.1 206.468 343.59L8.1868 172.71C3.92923 169.048 1.69904 164.37 1.69904 159.894C1.69904 156.436 3.11823 153.181 5.75388 150.943L170.988 10.5775C173.624 8.13635 177.476 7.11922 181.328 7.11922ZM221.471 350.1C225.728 350.1 229.58 348.879 232.622 346.438L397.653 205.869C400.491 203.428 402.113 200.173 402.113 196.308C402.113 191.629 399.68 186.747 395.423 182.881L196.939 12.2049C189.032 5.28836 177.07 4.27122 170.38 9.96722L5.14566 150.333C2.30728 152.774 0.888153 156.232 0.888153 159.894C0.888153 164.776 3.32101 169.659 7.57858 173.32L206.062 344.2C210.523 348.065 216.199 350.1 221.471 350.1Z" fill="white"/>
</mask>
<g mask="url(#mask35_480_221)">
<path d="M1610.25 -174.948H-664.509V2107.52H1610.25V-174.948Z" fill="white"/>
</g>
</mask>
<g mask="url(#mask34_480_221)">
<path d="M181.328 7.11922C186.599 7.11922 192.073 8.95008 196.534 12.8152L394.815 183.695C398.869 187.154 401.302 191.832 401.302 196.308C401.302 199.766 399.883 203.021 397.248 205.259L232.013 345.624C225.728 351.117 214.172 350.1 206.468 343.59L8.1868 172.71C3.92923 169.048 1.69904 164.37 1.69904 159.894C1.69904 156.436 3.11823 153.181 5.75388 150.943L170.988 10.5775C173.624 8.13635 177.476 7.11922 181.328 7.11922ZM221.471 350.1C225.728 350.1 229.58 348.879 232.622 346.438L397.653 205.869C400.491 203.428 402.113 200.173 402.113 196.308C402.113 191.629 399.68 186.747 395.423 182.881L196.939 12.2049C189.032 5.28836 177.07 4.27122 170.38 9.96722L5.14566 150.333C2.30728 152.774 0.888153 156.232 0.888153 159.894C0.888153 164.776 3.32101 169.659 7.57858 173.32L206.062 344.2C210.523 348.065 216.199 350.1 221.471 350.1Z" fill="white"/>
</g>
</mask>
<g mask="url(#mask33_480_221)">
<path d="M1610.25 -174.948H-664.509V2107.52H1610.25V-174.948Z" fill="url(#paint11_linear_480_221)"/>
</g>
<mask id="mask36_480_221" style="mask-type:luminance" maskUnits="userSpaceOnUse" x="0" y="3" width="403" height="350">
<mask id="mask37_480_221" style="mask-type:luminance" maskUnits="userSpaceOnUse" x="0" y="3" width="403" height="350">
<mask id="mask38_480_221" style="mask-type:luminance" maskUnits="userSpaceOnUse" x="0" y="3" width="403" height="350">
<path d="M168.555 4.2727C173.015 4.2727 178.083 5.69671 182.138 8.74814L394.611 166.405C399.072 169.66 401.707 174.136 402.113 178.814C402.518 182.476 401.302 185.731 398.869 188.376L246.407 347.457C240.528 353.56 229.174 353.763 220.862 347.66L8.38889 190.003C3.92856 186.748 1.29291 182.069 0.887421 177.39C0.481934 173.932 1.69833 170.474 4.13123 167.829L156.593 8.74814C159.431 5.69671 163.892 4.2727 168.555 4.2727ZM234.446 352.949C239.311 352.949 243.974 351.322 247.015 348.067L399.477 188.986C402.113 186.138 403.329 182.68 402.924 178.814C402.518 173.932 399.68 169.05 395.017 165.592L182.544 8.13785C174.029 1.62813 162.067 1.83156 155.985 8.13785L3.52304 167.422C0.88739 170.067 -0.329071 173.729 0.076416 177.594C0.481873 182.476 3.32031 187.155 7.98337 190.613L220.456 348.27C224.511 351.322 229.782 352.949 234.446 352.949Z" fill="white"/>
</mask>
<g mask="url(#mask38_480_221)">
<path d="M1610.25 -174.948H-664.51V2107.52H1610.25V-174.948Z" fill="white"/>
</g>
</mask>
<g mask="url(#mask37_480_221)">
<path d="M168.555 4.2727C173.015 4.2727 178.083 5.69671 182.138 8.74814L394.611 166.405C399.072 169.66 401.707 174.136 402.113 178.814C402.518 182.476 401.302 185.731 398.869 188.376L246.407 347.457C240.528 353.56 229.174 353.763 220.862 347.66L8.38889 190.003C3.92856 186.748 1.29291 182.069 0.887421 177.39C0.481934 173.932 1.69833 170.474 4.13123 167.829L156.593 8.74814C159.431 5.69671 163.892 4.2727 168.555 4.2727ZM234.446 352.949C239.311 352.949 243.974 351.322 247.015 348.067L399.477 188.986C402.113 186.138 403.329 182.68 402.924 178.814C402.518 173.932 399.68 169.05 395.017 165.592L182.544 8.13785C174.029 1.62813 162.067 1.83156 155.985 8.13785L3.52304 167.422C0.88739 170.067 -0.329071 173.729 0.076416 177.594C0.481873 182.476 3.32031 187.155 7.98337 190.613L220.456 348.27C224.511 351.322 229.782 352.949 234.446 352.949Z" fill="white"/>
</g>
</mask>
<g mask="url(#mask36_480_221)">
<path d="M1610.25 -174.948H-664.51V2107.52H1610.25V-174.948Z" fill="url(#paint12_linear_480_221)"/>
</g>
<mask id="mask39_480_221" style="mask-type:luminance" maskUnits="userSpaceOnUse" x="0" y="1" width="403" height="354">
<mask id="mask40_480_221" style="mask-type:luminance" maskUnits="userSpaceOnUse" x="0" y="1" width="403" height="354">
<mask id="mask41_480_221" style="mask-type:luminance" maskUnits="userSpaceOnUse" x="0" y="1" width="403" height="354">
<path d="M155.376 2.44115C159.431 2.44115 163.689 3.4583 167.541 5.89944L392.787 148.503C397.45 151.554 400.693 156.03 401.504 160.709C402.113 164.37 401.099 168.032 398.869 170.88L261.005 348.066C255.733 354.779 244.177 356 235.459 350.304L10.2135 207.701C5.55048 204.649 2.30664 200.377 1.4957 195.698C0.887451 192.037 1.69839 188.375 4.13129 185.323L141.995 8.34058C145.037 4.27201 150.105 2.44115 155.376 2.44115ZM247.624 354.779C253.301 354.779 258.369 352.745 261.613 348.473L399.68 171.49C401.91 168.235 402.924 164.37 402.315 160.505C401.302 155.623 398.058 150.944 393.192 147.893L167.946 5.08573C158.823 -0.610273 146.861 0.610304 141.387 7.7303L3.3204 184.917C0.887512 187.968 0.0764465 191.833 0.684662 195.698C1.49564 200.784 4.94223 205.259 9.80804 208.514L235.054 351.118C238.906 353.559 243.366 354.779 247.624 354.779Z" fill="white"/>
</mask>
<g mask="url(#mask41_480_221)">
<path d="M1610.25 -174.948H-664.51V2107.52H1610.25V-174.948Z" fill="white"/>
</g>
</mask>
<g mask="url(#mask40_480_221)">
<path d="M155.376 2.44115C159.431 2.44115 163.689 3.4583 167.541 5.89944L392.787 148.503C397.45 151.554 400.693 156.03 401.504 160.709C402.113 164.37 401.099 168.032 398.869 170.88L261.005 348.066C255.733 354.779 244.177 356 235.459 350.304L10.2135 207.701C5.55048 204.649 2.30664 200.377 1.4957 195.698C0.887451 192.037 1.69839 188.375 4.13129 185.323L141.995 8.34058C145.037 4.27201 150.105 2.44115 155.376 2.44115ZM247.624 354.779C253.301 354.779 258.369 352.745 261.613 348.473L399.68 171.49C401.91 168.235 402.924 164.37 402.315 160.505C401.302 155.623 398.058 150.944 393.192 147.893L167.946 5.08573C158.823 -0.610273 146.861 0.610304 141.387 7.7303L3.3204 184.917C0.887512 187.968 0.0764465 191.833 0.684662 195.698C1.49564 200.784 4.94223 205.259 9.80804 208.514L235.054 351.118C238.906 353.559 243.366 354.779 247.624 354.779Z" fill="white"/>
</g>
</mask>
<g mask="url(#mask39_480_221)">
<path d="M1610.25 -174.948H-664.51V2107.52H1610.25V-174.948Z" fill="url(#paint13_linear_480_221)"/>
</g>
<mask id="mask42_480_221" style="mask-type:luminance" maskUnits="userSpaceOnUse" x="3" y="0" width="398" height="356">
<mask id="mask43_480_221" style="mask-type:luminance" maskUnits="userSpaceOnUse" x="3" y="0" width="538" height="478">
<mask id="mask44_480_221" style="mask-type:luminance" maskUnits="userSpaceOnUse" x="3" y="0" width="538" height="478">
<g clip-path="url(#clip1_480_221)">
<path d="M191.169 2.18524C195.802 2.18524 200.708 3.2778 205.069 5.73609L523.694 175.358C530.235 178.635 534.869 184.372 536.504 190.654C537.867 195.844 537.049 201.033 534.324 205.404L370.514 466.255C363.973 476.361 348.982 479.093 336.444 472.537L18.0923 303.189C11.5508 299.638 6.91724 293.902 5.28186 287.62C3.91907 282.703 4.46423 277.513 7.18982 273.143L171.272 12.0184C175.36 5.73609 182.992 2.18524 191.169 2.18524ZM350.617 477.181C359.067 477.181 367.243 473.63 371.332 466.801L535.414 205.95C538.412 201.306 539.23 195.844 537.594 190.381C535.959 183.825 531.053 177.816 524.239 174.265L205.615 4.64351C192.804 -2.18506 176.996 0.819512 170.454 11.4721L6.37201 272.597C3.37384 276.967 2.55621 282.703 4.19159 287.893C5.82697 294.721 10.7331 300.457 17.5471 304.281L335.899 473.63C340.805 476.088 345.711 477.181 350.617 477.181Z" fill="white"/>
</g>
</mask>
<g mask="url(#mask44_480_221)">
<path d="M1610.25 -174.948H-664.51V2107.52H1610.25V-174.948Z" fill="white"/>
</g>
</mask>
<g mask="url(#mask43_480_221)">
<path d="M142.198 1.62767C145.645 1.62767 149.294 2.44138 152.538 4.27224L389.543 130.601C394.409 133.043 397.855 137.315 399.072 141.993C400.085 145.859 399.477 149.724 397.45 152.979L275.602 347.253C270.736 354.78 259.586 356.814 250.259 351.932L13.4576 225.806C8.59174 223.161 5.14511 218.889 3.92868 214.211C2.91498 210.549 3.32047 206.684 5.3479 203.429L127.398 8.9511C130.439 4.27224 136.116 1.62767 142.198 1.62767ZM260.802 355.39C267.087 355.39 273.169 352.745 276.21 347.66L398.261 153.385C400.491 149.927 401.099 145.859 399.883 141.79C398.666 136.908 395.017 132.432 389.948 129.788L152.944 3.45852C143.415 -1.6272 131.656 0.610519 126.79 8.54423L4.73956 203.022C2.5094 206.277 1.90121 210.549 3.11765 214.414C4.33411 219.5 7.98349 223.772 13.052 226.62L249.854 352.745C253.503 354.576 257.153 355.39 260.802 355.39Z" fill="white"/>
</g>
</mask>
<g mask="url(#mask42_480_221)">
<path d="M1610.25 -174.948H-664.51V2107.52H1610.25V-174.948Z" fill="url(#paint14_linear_480_221)"/>
</g>
<mask id="mask45_480_221" style="mask-type:luminance" maskUnits="userSpaceOnUse" x="6" y="1" width="391" height="354">
<mask id="mask46_480_221" style="mask-type:luminance" maskUnits="userSpaceOnUse" x="6" y="1" width="391" height="354">
<mask id="mask47_480_221" style="mask-type:luminance" maskUnits="userSpaceOnUse" x="6" y="1" width="391" height="354">
<path d="M129.02 2.23859C131.859 2.23859 134.9 2.84888 137.738 4.06945L384.677 112.293C389.543 114.531 393.395 118.396 395.22 123.075C396.436 126.94 396.233 131.009 394.611 134.467L289.997 345.219C285.942 353.356 274.791 356.408 265.262 352.339L18.3234 243.912C13.2549 241.877 9.60553 237.809 7.78085 233.13C6.36166 229.265 6.56451 225.196 8.38919 221.738L113.004 11.1895C115.842 5.49345 122.127 2.23859 129.02 2.23859ZM273.98 354.984C281.076 354.984 287.767 351.525 290.605 345.626L395.422 134.874C397.247 131.212 397.45 126.94 396.031 122.872C394.206 117.786 390.151 113.717 384.88 111.48L138.144 3.25573C128.007 -1.2197 116.45 2.2386 112.193 10.7826L7.57816 221.331C5.75348 225.196 5.55078 229.468 6.96997 233.537C8.79465 238.419 12.8494 242.488 17.9179 244.725L264.857 353.153C267.898 354.374 270.939 354.984 273.98 354.984Z" fill="white"/>
</mask>
<g mask="url(#mask47_480_221)">
<path d="M1610.25 -174.948H-664.51V2107.52H1610.25V-174.948Z" fill="white"/>
</g>
</mask>
<g mask="url(#mask46_480_221)">
<path d="M129.02 2.23859C131.859 2.23859 134.9 2.84888 137.738 4.06945L384.677 112.293C389.543 114.531 393.395 118.396 395.22 123.075C396.436 126.94 396.233 131.009 394.611 134.467L289.997 345.219C285.942 353.356 274.791 356.408 265.262 352.339L18.3234 243.912C13.2549 241.877 9.60553 237.809 7.78085 233.13C6.36166 229.265 6.56451 225.196 8.38919 221.738L113.004 11.1895C115.842 5.49345 122.127 2.23859 129.02 2.23859ZM273.98 354.984C281.076 354.984 287.767 351.525 290.605 345.626L395.422 134.874C397.247 131.212 397.45 126.94 396.031 122.872C394.206 117.786 390.151 113.717 384.88 111.48L138.144 3.25573C128.007 -1.2197 116.45 2.2386 112.193 10.7826L7.57816 221.331C5.75348 225.196 5.55078 229.468 6.96997 233.537C8.79465 238.419 12.8494 242.488 17.9179 244.725L264.857 353.153C267.898 354.374 270.939 354.984 273.98 354.984Z" fill="white"/>
</g>
</mask>
<g mask="url(#mask45_480_221)">
<path d="M1610.25 -174.948H-664.51V2107.52H1610.25V-174.948Z" fill="url(#paint15_linear_480_221)"/>
</g>
<mask id="mask48_480_221" style="mask-type:luminance" maskUnits="userSpaceOnUse" x="11" y="2" width="381" height="352">
<mask id="mask49_480_221" style="mask-type:luminance" maskUnits="userSpaceOnUse" x="11" y="2" width="381" height="352">
<mask id="mask50_480_221" style="mask-type:luminance" maskUnits="userSpaceOnUse" x="11" y="2" width="381" height="352">
<path d="M115.842 3.86564C118.072 3.86564 120.505 4.27249 122.735 5.08621L378.19 93.9845C383.258 95.8154 387.516 99.4771 389.543 103.953C391.368 107.818 391.57 112.09 389.948 115.955L303.986 341.761C300.742 350.305 289.997 354.78 280.063 351.322L24.8113 262.22C19.7428 260.593 15.4853 256.931 13.4579 252.455C11.6332 248.387 11.4303 244.115 12.8495 240.25L98.8119 14.6473C101.448 7.9342 108.341 3.86564 115.842 3.86564ZM287.159 353.356C295.066 353.356 302.162 349.084 305 341.964L390.962 116.362C392.381 112.09 392.179 107.614 390.354 103.546C388.124 98.8668 383.866 95.0017 378.392 93.1708L123.141 4.27249C112.801 0.610776 101.65 5.08621 98.0009 14.2405L12.0386 240.046C10.6194 244.115 10.8221 248.59 12.6468 252.659C14.877 257.541 19.1345 261.203 24.4058 263.237L279.86 352.135C282.293 352.949 284.726 353.356 287.159 353.356Z" fill="white"/>
</mask>
<g mask="url(#mask50_480_221)">
<path d="M1610.25 -174.948H-664.509V2107.52H1610.25V-174.948Z" fill="white"/>
</g>
</mask>
<g mask="url(#mask49_480_221)">
<path d="M115.842 3.86564C118.072 3.86564 120.505 4.27249 122.735 5.08621L378.19 93.9845C383.258 95.8154 387.516 99.4771 389.543 103.953C391.368 107.818 391.57 112.09 389.948 115.955L303.986 341.761C300.742 350.305 289.997 354.78 280.063 351.322L24.8113 262.22C19.7428 260.593 15.4853 256.931 13.4579 252.455C11.6332 248.387 11.4303 244.115 12.8495 240.25L98.8119 14.6473C101.448 7.9342 108.341 3.86564 115.842 3.86564ZM287.159 353.356C295.066 353.356 302.162 349.084 305 341.964L390.962 116.362C392.381 112.09 392.179 107.614 390.354 103.546C388.124 98.8668 383.866 95.0017 378.392 93.1708L123.141 4.27249C112.801 0.610776 101.65 5.08621 98.0009 14.2405L12.0386 240.046C10.6194 244.115 10.8221 248.59 12.6468 252.659C14.877 257.541 19.1345 261.203 24.4058 263.237L279.86 352.135C282.293 352.949 284.726 353.356 287.159 353.356Z" fill="white"/>
</g>
</mask>
<g mask="url(#mask48_480_221)">
<path d="M1610.25 -174.948H-664.509V2107.52H1610.25V-174.948Z" fill="url(#paint16_linear_480_221)"/>
</g>
<mask id="mask51_480_221" style="mask-type:luminance" maskUnits="userSpaceOnUse" x="17" y="5" width="369" height="346">
<mask id="mask52_480_221" style="mask-type:luminance" maskUnits="userSpaceOnUse" x="17" y="5" width="369" height="346">
<mask id="mask53_480_221" style="mask-type:luminance" maskUnits="userSpaceOnUse" x="17" y="5" width="369" height="346">
<path d="M102.866 6.71431C104.488 6.71431 106.313 6.91773 108.138 7.52802L370.282 75.88C375.351 77.1006 379.811 80.3554 382.244 84.8309C384.474 88.696 385.082 93.1715 383.866 97.24L317.975 336.879C315.339 346.033 305 351.526 294.862 348.881L32.7179 280.529C27.6494 279.105 23.189 275.85 20.7561 271.578C18.5259 267.713 17.9177 263.238 19.1342 258.966L85.0251 19.3269C87.2553 11.8 94.554 6.71431 102.866 6.71431ZM300.134 350.509C308.852 350.509 316.556 345.219 318.786 337.082L384.88 97.4434C386.096 93.1714 385.488 88.4926 383.055 84.2206C380.419 79.7452 375.756 76.2869 370.485 74.8629L108.34 6.51087C97.5951 3.8663 86.8498 9.35888 84.2141 19.1235L18.1205 258.762C16.904 263.238 17.5122 267.917 19.9451 271.985C22.5807 276.664 27.2438 279.919 32.5151 281.343L294.66 349.695C296.484 350.102 298.309 350.509 300.134 350.509Z" fill="white"/>
</mask>
<g mask="url(#mask53_480_221)">
<path d="M1610.25 -174.947H-664.509V2107.52H1610.25V-174.947Z" fill="white"/>
</g>
</mask>
<g mask="url(#mask52_480_221)">
<path d="M102.866 6.71431C104.488 6.71431 106.313 6.91773 108.138 7.52802L370.282 75.88C375.351 77.1006 379.811 80.3554 382.244 84.8309C384.474 88.696 385.082 93.1715 383.866 97.24L317.975 336.879C315.339 346.033 305 351.526 294.862 348.881L32.7179 280.529C27.6494 279.105 23.189 275.85 20.7561 271.578C18.5259 267.713 17.9177 263.238 19.1342 258.966L85.0251 19.3269C87.2553 11.8 94.554 6.71431 102.866 6.71431ZM300.134 350.509C308.852 350.509 316.556 345.219 318.786 337.082L384.88 97.4434C386.096 93.1714 385.488 88.4926 383.055 84.2206C380.419 79.7452 375.756 76.2869 370.485 74.8629L108.34 6.51087C97.5951 3.8663 86.8498 9.35888 84.2141 19.1235L18.1205 258.762C16.904 263.238 17.5122 267.917 19.9451 271.985C22.5807 276.664 27.2438 279.919 32.5151 281.343L294.66 349.695C296.484 350.102 298.309 350.509 300.134 350.509Z" fill="white"/>
</g>
</mask>
<g mask="url(#mask51_480_221)">
<path d="M1610.25 -174.947H-664.509V2107.52H1610.25V-174.947Z" fill="url(#paint17_linear_480_221)"/>
</g>
<mask id="mask54_480_221" style="mask-type:luminance" maskUnits="userSpaceOnUse" x="25" y="10" width="353" height="337">
<mask id="mask55_480_221" style="mask-type:luminance" maskUnits="userSpaceOnUse" x="25" y="10" width="353" height="337">
<mask id="mask56_480_221" style="mask-type:luminance" maskUnits="userSpaceOnUse" x="25" y="10" width="353" height="337">
<path d="M90.0937 10.9844C91.3102 10.9844 92.3239 10.9844 93.5403 11.1878L360.753 57.7729C365.822 58.7901 370.282 61.4347 373.323 65.7066C375.959 69.5718 376.973 74.2506 376.162 78.7261L331.153 330.774C329.531 340.335 319.597 346.845 309.46 345.014L42.2466 298.429C37.1781 297.615 32.7179 294.767 29.6768 290.495C27.0411 286.63 26.0274 282.155 26.8383 277.679L71.847 25.6312C73.2661 17.0872 81.1731 10.9844 90.0937 10.9844ZM312.906 346.235C322.232 346.235 330.545 339.928 332.167 330.774L377.175 78.7261C377.986 74.0472 376.77 69.1649 374.134 65.0964C370.89 60.8244 366.227 57.7729 360.753 56.9592L93.743 10.3741C82.9977 8.5432 72.6579 15.2564 70.8333 25.4278L25.8246 277.476C25.0137 282.155 26.0274 287.037 28.8658 291.106C31.9069 295.581 36.7726 298.429 42.2466 299.446L309.257 346.031C310.474 346.235 311.69 346.235 312.906 346.235Z" fill="white"/>
</mask>
<g mask="url(#mask56_480_221)">
<path d="M1610.25 -174.948H-664.509V2107.52H1610.25V-174.948Z" fill="white"/>
</g>
</mask>
<g mask="url(#mask55_480_221)">
<path d="M90.0937 10.9844C91.3102 10.9844 92.3239 10.9844 93.5403 11.1878L360.753 57.7729C365.822 58.7901 370.282 61.4347 373.323 65.7066C375.959 69.5718 376.973 74.2506 376.162 78.7261L331.153 330.774C329.531 340.335 319.597 346.845 309.46 345.014L42.2466 298.429C37.1781 297.615 32.7179 294.767 29.6768 290.495C27.0411 286.63 26.0274 282.155 26.8383 277.679L71.847 25.6312C73.2661 17.0872 81.1731 10.9844 90.0937 10.9844ZM312.906 346.235C322.232 346.235 330.545 339.928 332.167 330.774L377.175 78.7261C377.986 74.0472 376.77 69.1649 374.134 65.0964C370.89 60.8244 366.227 57.7729 360.753 56.9592L93.743 10.3741C82.9977 8.5432 72.6579 15.2564 70.8333 25.4278L25.8246 277.476C25.0137 282.155 26.0274 287.037 28.8658 291.106C31.9069 295.581 36.7726 298.429 42.2466 299.446L309.257 346.031C310.474 346.235 311.69 346.235 312.906 346.235Z" fill="white"/>
</g>
</mask>
<g mask="url(#mask54_480_221)">
<path d="M1610.25 -174.948H-664.509V2107.52H1610.25V-174.948Z" fill="url(#paint18_linear_480_221)"/>
</g>
<mask id="mask57_480_221" style="mask-type:luminance" maskUnits="userSpaceOnUse" x="35" y="15" width="333" height="326">
<mask id="mask58_480_221" style="mask-type:luminance" maskUnits="userSpaceOnUse" x="35" y="15" width="333" height="326">
<mask id="mask59_480_221" style="mask-type:luminance" maskUnits="userSpaceOnUse" x="35" y="15" width="333" height="326">
<path d="M77.7266 16.478C78.3348 16.478 78.9431 16.478 79.5513 16.478L349.603 40.2792C354.671 40.686 359.132 42.9237 362.578 46.7889C365.822 50.4506 367.241 55.3329 366.836 60.2151L343.926 323.045C343.521 327.927 341.088 332.403 337.236 335.657C333.384 338.709 328.518 340.336 323.449 339.726L53.3976 316.128C42.8551 315.111 35.1509 306.16 36.1646 295.989L59.0745 33.1592C59.48 28.2769 61.7101 23.8014 65.765 20.75C69.0088 17.902 73.2663 16.478 77.7266 16.478ZM325.274 340.743C329.937 340.743 334.397 339.319 337.844 336.268C341.899 333.013 344.534 328.334 344.94 323.248L367.85 60.2151C368.255 55.1294 366.633 50.0437 363.187 46.1786C359.74 42.11 354.874 39.6689 349.603 39.262L79.5513 15.4609C74.2801 15.054 69.2116 16.6814 65.1567 19.9363C61.1019 23.1912 58.4663 27.87 58.0608 33.1592L35.1509 295.989C34.1372 306.567 42.4496 316.128 53.1949 316.942L323.449 340.743C324.057 340.743 324.666 340.743 325.274 340.743Z" fill="white"/>
</mask>
<g mask="url(#mask59_480_221)">
<path d="M1610.25 -174.948H-664.509V2107.52H1610.25V-174.948Z" fill="white"/>
</g>
</mask>
<g mask="url(#mask58_480_221)">
<path d="M77.7266 16.478C78.3348 16.478 78.9431 16.478 79.5513 16.478L349.603 40.2792C354.671 40.686 359.132 42.9237 362.578 46.7889C365.822 50.4506 367.241 55.3329 366.836 60.2151L343.926 323.045C343.521 327.927 341.088 332.403 337.236 335.657C333.384 338.709 328.518 340.336 323.449 339.726L53.3976 316.128C42.8551 315.111 35.1509 306.16 36.1646 295.989L59.0745 33.1592C59.48 28.2769 61.7101 23.8014 65.765 20.75C69.0088 17.902 73.2663 16.478 77.7266 16.478ZM325.274 340.743C329.937 340.743 334.397 339.319 337.844 336.268C341.899 333.013 344.534 328.334 344.94 323.248L367.85 60.2151C368.255 55.1294 366.633 50.0437 363.187 46.1786C359.74 42.11 354.874 39.6689 349.603 39.262L79.5513 15.4609C74.2801 15.054 69.2116 16.6814 65.1567 19.9363C61.1019 23.1912 58.4663 27.87 58.0608 33.1592L35.1509 295.989C34.1372 306.567 42.4496 316.128 53.1949 316.942L323.449 340.743C324.057 340.743 324.666 340.743 325.274 340.743Z" fill="white"/>
</g>
</mask>
<g mask="url(#mask57_480_221)">
<path d="M1610.25 -174.948H-664.509V2107.52H1610.25V-174.948Z" fill="url(#paint19_linear_480_221)"/>
</g>
<mask id="mask60_480_221" style="mask-type:luminance" maskUnits="userSpaceOnUse" x="46" y="22" width="311" height="313">
<mask id="mask61_480_221" style="mask-type:luminance" maskUnits="userSpaceOnUse" x="46" y="22" width="311" height="313">
<mask id="mask62_480_221" style="mask-type:luminance" maskUnits="userSpaceOnUse" x="46" y="22" width="311" height="313">
<path d="M337.033 23.1905C347.576 23.1905 356.091 31.7345 356.091 42.1093V314.093C356.091 324.672 347.576 333.216 337.033 333.216H65.968C55.4254 333.216 46.9103 324.672 46.9103 314.093V42.1093C46.9103 31.7345 55.4254 23.1905 65.968 23.1905H337.033ZM65.968 334.233H337.033C347.981 334.233 356.902 325.282 356.902 314.093V42.1093C356.902 31.1242 347.981 22.1733 337.033 22.1733H65.968C55.0199 22.1733 46.0993 31.1242 46.0993 42.1093V314.093C46.0993 325.282 55.0199 334.233 65.968 334.233Z" fill="white"/>
</mask>
<g mask="url(#mask62_480_221)">
<path d="M1610.25 -174.948H-664.51V2107.52H1610.25V-174.948Z" fill="white"/>
</g>
</mask>
<g mask="url(#mask61_480_221)">
<path d="M337.033 23.1905C347.576 23.1905 356.091 31.7345 356.091 42.1093V314.093C356.091 324.672 347.576 333.216 337.033 333.216H65.968C55.4254 333.216 46.9103 324.672 46.9103 314.093V42.1093C46.9103 31.7345 55.4254 23.1905 65.968 23.1905H337.033ZM65.968 334.233H337.033C347.981 334.233 356.902 325.282 356.902 314.093V42.1093C356.902 31.1242 347.981 22.1733 337.033 22.1733H65.968C55.0199 22.1733 46.0993 31.1242 46.0993 42.1093V314.093C46.0993 325.282 55.0199 334.233 65.968 334.233Z" fill="white"/>
</g>
</mask>
<g mask="url(#mask60_480_221)">
<path d="M1610.25 -174.948H-664.51V2107.52H1610.25V-174.948Z" fill="url(#paint20_linear_480_221)"/>
</g>
</g>
<g filter="url(#filter0_dd_480_221)">
<path d="M140.969 143.827C152.746 122.491 175.176 108.071 200.918 108.071C226.688 108.071 249.118 122.491 260.866 143.827" stroke="#AFAFAF" stroke-width="3" stroke-miterlimit="10" stroke-linecap="round"/>
<path d="M140.969 212.173C152.746 233.509 175.176 247.928 200.918 247.928C226.659 247.928 249.118 233.509 260.866 212.173" stroke="#AFAFAF" stroke-width="3" stroke-miterlimit="10" stroke-linecap="round"/>
<path d="M170.368 203.117H172.21L177.336 212.759L182.317 203.117H184.16V218.123H182.202V206.957L178.315 214.342C178.142 214.664 177.998 214.87 177.854 215.016C177.71 215.133 177.537 215.221 177.336 215.221H176.76L172.326 206.957V218.152H170.339V203.117H170.368Z" fill="#AFAFAF"/>
<path d="M187.73 217.712C187.442 217.419 187.298 217.038 187.298 216.54V203.146H197.635V204.934H189.285V209.624H197.002V211.382H189.285V216.394H197.635V218.181H188.882C188.421 218.152 188.018 218.006 187.73 217.712Z" fill="#AFAFAF"/>
<path d="M200.572 217.712C200.284 217.419 200.14 217.038 200.14 216.54V203.146H206.561C207.626 203.146 208.577 203.352 209.383 203.762C210.189 204.172 210.823 204.758 211.255 205.52C211.686 206.282 211.917 207.162 211.917 208.158V212.701C211.917 214.489 211.485 215.837 210.592 216.775C209.7 217.683 208.404 218.152 206.676 218.152H201.753C201.234 218.152 200.86 218.006 200.572 217.712ZM206.59 216.335C207.684 216.335 208.519 216.042 209.066 215.426C209.642 214.811 209.901 213.902 209.901 212.672V208.217C209.901 207.25 209.584 206.458 208.951 205.872C208.318 205.286 207.511 204.993 206.475 204.993H202.127V216.335H206.59Z" fill="#AFAFAF"/>
<path d="M214.739 203.118H216.754V218.123H214.739V203.118Z" fill="#AFAFAF"/>
<path d="M228.502 214.196H222.369L220.929 218.152H218.856L224.557 203.146H225.45C226.054 203.146 226.486 203.469 226.745 204.143L232.043 218.152H229.97L228.502 214.196ZM222.945 212.496H227.926L225.45 205.726H225.421L222.945 212.496Z" fill="#AFAFAF"/>
<path d="M113.5 162.819H118.481V175.714H133.252V162.819H138.205V193.211H133.252V180.14H118.481V193.211H113.5V162.819Z" fill="#AFAFAF"/>
<path d="M144.424 162.819H149.406V193.212H144.424V162.819Z" fill="#AFAFAF"/>
<path d="M190.955 167.186H181.482V162.79H205.409V167.186H195.936V193.182H190.955V167.186Z" fill="#AFAFAF"/>
<path d="M210.074 192.186C209.412 191.512 209.066 190.603 209.066 189.519V162.819H230.95V167.216H214.048V175.451H229.654V179.877H214.048V188.815H230.95V193.212H212.723C211.658 193.212 210.765 192.86 210.074 192.186Z" fill="#AFAFAF"/>
<path d="M239.415 192.127C237.831 191.189 236.593 189.841 235.7 188.141C234.808 186.412 234.376 184.419 234.376 182.163V173.839C234.376 171.583 234.837 169.59 235.729 167.86C236.622 166.131 237.889 164.812 239.501 163.875C241.114 162.937 242.985 162.468 245.145 162.468H249.665C251.681 162.468 253.466 162.907 255.05 163.787C256.605 164.666 257.814 165.926 258.678 167.509C259.542 169.121 259.945 170.967 259.945 173.077H255.05C255.05 171.231 254.56 169.736 253.553 168.593C252.545 167.45 251.278 166.893 249.665 166.893H245.116C243.388 166.893 241.978 167.538 240.941 168.857C239.876 170.146 239.357 171.876 239.357 173.986V181.987C239.357 184.126 239.876 185.855 240.883 187.145C241.92 188.435 243.244 189.079 244.943 189.079H249.55C251.191 189.079 252.545 188.435 253.553 187.174C254.589 185.914 255.079 184.243 255.079 182.221H259.974C259.974 184.478 259.542 186.471 258.678 188.171C257.814 189.871 256.576 191.189 255.021 192.157C253.437 193.094 251.623 193.563 249.55 193.563H244.943C242.841 193.534 240.999 193.065 239.415 192.127Z" fill="#AFAFAF"/>
<path d="M264.177 162.819H269.159V175.715H283.93V162.819H288.882V193.212H283.93V180.14H269.159V193.212H264.177V162.819Z" fill="#AFAFAF"/>
<path d="M165.444 182.455C167.861 182.455 169.82 180.461 169.82 178.001C169.82 175.54 167.861 173.546 165.444 173.546C163.026 173.546 161.067 175.54 161.067 178.001C161.067 180.461 163.026 182.455 165.444 182.455Z" fill="#AFAFAF"/>
</g>
<defs>
<filter id="filter0_dd_480_221" x="109.1" y="101.4" width="184.8" height="154.5" filterUnits="userSpaceOnUse" color-interpolation-filters="sRGB">
<feFlood flood-opacity="0" result="BackgroundImageFix"/>
<feColorMatrix in="SourceAlpha" type="matrix" values="0 0 0 0 0 0 0 0 0 0 0 0 0 0 0 0 0 0 127 0" result="hardAlpha"/>
<feOffset dy="2"/>
<feGaussianBlur stdDeviation="2.2"/>
<feComposite in2="hardAlpha" operator="out"/>
<feColorMatrix type="matrix" values="0 0 0 0 1 0 0 0 0 1 0 0 0 0 1 0 0 0 1 0"/>
<feBlend mode="normal" in2="BackgroundImageFix" result="effect1_dropShadow_480_221"/>
<feColorMatrix in="SourceAlpha" type="matrix" values="0 0 0 0 0 0 0 0 0 0 0 0 0 0 0 0 0 0 127 0" result="hardAlpha"/>
<feOffset dy="-2"/>
<feGaussianBlur stdDeviation="1.55"/>
<feComposite in2="hardAlpha" operator="out"/>
<feColorMatrix type="matrix" values="0 0 0 0 1 0 0 0 0 1 0 0 0 0 1 0 0 0 1 0"/>
<feBlend mode="normal" in2="effect1_dropShadow_480_221" result="effect2_dropShadow_480_221"/>
<feBlend mode="normal" in="SourceGraphic" in2="effect2_dropShadow_480_221" result="shape"/>
</filter>
<linearGradient id="paint0_linear_480_221" x1="317.667" y1="178.145" x2="85.3009" y2="178.145" gradientUnits="userSpaceOnUse">
<stop stop-color="#3DDEED"/>
<stop offset="1" stop-color="#CB00DD"/>
</linearGradient>
<linearGradient id="paint1_linear_480_221" x1="329.418" y1="178.145" x2="73.5501" y2="178.145" gradientUnits="userSpaceOnUse">
<stop stop-color="#3DDEED"/>
<stop offset="1" stop-color="#CB00DD"/>
</linearGradient>
<linearGradient id="paint2_linear_480_221" x1="340.656" y1="178.145" x2="62.312" y2="178.145" gradientUnits="userSpaceOnUse">
<stop stop-color="#3DDEED"/>
<stop offset="1" stop-color="#CB00DD"/>
</linearGradient>
<linearGradient id="paint3_linear_480_221" x1="351.26" y1="178.146" x2="51.7112" y2="178.146" gradientUnits="userSpaceOnUse">
<stop stop-color="#3DDEED"/>
<stop offset="1" stop-color="#CB00DD"/>
</linearGradient>
<linearGradient id="paint4_linear_480_221" x1="361.149" y1="178.145" x2="41.8215" y2="178.145" gradientUnits="userSpaceOnUse">
<stop stop-color="#3DDEED"/>
<stop offset="1" stop-color="#CB00DD"/>
</linearGradient>
<linearGradient id="paint5_linear_480_221" x1="370.211" y1="178.145" x2="32.7565" y2="178.145" gradientUnits="userSpaceOnUse">
<stop stop-color="#3DDEED"/>
<stop offset="1" stop-color="#CB00DD"/>
</linearGradient>
<linearGradient id="paint6_linear_480_221" x1="378.352" y1="178.145" x2="24.6168" y2="178.145" gradientUnits="userSpaceOnUse">
<stop stop-color="#3DDEED"/>
<stop offset="1" stop-color="#CB00DD"/>
</linearGradient>
<linearGradient id="paint7_linear_480_221" x1="385.476" y1="178.145" x2="17.4945" y2="178.145" gradientUnits="userSpaceOnUse">
<stop stop-color="#3DDEED"/>
<stop offset="1" stop-color="#CB00DD"/>
</linearGradient>
<linearGradient id="paint8_linear_480_221" x1="391.494" y1="178.145" x2="11.4731" y2="178.145" gradientUnits="userSpaceOnUse">
<stop stop-color="#3DDEED"/>
<stop offset="1" stop-color="#CB00DD"/>
</linearGradient>
<linearGradient id="paint9_linear_480_221" x1="396.329" y1="178.145" x2="6.6398" y2="178.145" gradientUnits="userSpaceOnUse">
<stop stop-color="#3DDEED"/>
<stop offset="1" stop-color="#CB00DD"/>
</linearGradient>
<linearGradient id="paint10_linear_480_221" x1="399.905" y1="178.145" x2="3.06488" y2="178.145" gradientUnits="userSpaceOnUse">
<stop stop-color="#3DDEED"/>
<stop offset="1" stop-color="#CB00DD"/>
</linearGradient>
<linearGradient id="paint11_linear_480_221" x1="402.156" y1="178.145" x2="0.81093" y2="178.145" gradientUnits="userSpaceOnUse">
<stop stop-color="#3DDEED"/>
<stop offset="1" stop-color="#CB00DD"/>
</linearGradient>
<linearGradient id="paint12_linear_480_221" x1="403.029" y1="178.145" x2="-0.0598176" y2="178.145" gradientUnits="userSpaceOnUse">
<stop stop-color="#3DDEED"/>
<stop offset="1" stop-color="#CB00DD"/>
</linearGradient>
<linearGradient id="paint13_linear_480_221" x1="402.472" y1="178.145" x2="0.49418" y2="178.145" gradientUnits="userSpaceOnUse">
<stop stop-color="#3DDEED"/>
<stop offset="1" stop-color="#CB00DD"/>
</linearGradient>
<linearGradient id="paint14_linear_480_221" x1="400.452" y1="178.145" x2="2.51552" y2="178.145" gradientUnits="userSpaceOnUse">
<stop stop-color="#3DDEED"/>
<stop offset="1" stop-color="#CB00DD"/>
</linearGradient>
<linearGradient id="paint15_linear_480_221" x1="396.942" y1="178.145" x2="6.02448" y2="178.145" gradientUnits="userSpaceOnUse">
<stop stop-color="#3DDEED"/>
<stop offset="1" stop-color="#CB00DD"/>
</linearGradient>
<linearGradient id="paint16_linear_480_221" x1="391.927" y1="178.145" x2="11.0392" y2="178.145" gradientUnits="userSpaceOnUse">
<stop stop-color="#3DDEED"/>
<stop offset="1" stop-color="#CB00DD"/>
</linearGradient>
<linearGradient id="paint17_linear_480_221" x1="385.407" y1="178.146" x2="17.5615" y2="178.146" gradientUnits="userSpaceOnUse">
<stop stop-color="#3DDEED"/>
<stop offset="1" stop-color="#CB00DD"/>
</linearGradient>
<linearGradient id="paint18_linear_480_221" x1="377.387" y1="178.145" x2="25.5818" y2="178.145" gradientUnits="userSpaceOnUse">
<stop stop-color="#3DDEED"/>
<stop offset="1" stop-color="#CB00DD"/>
</linearGradient>
<linearGradient id="paint19_linear_480_221" x1="367.892" y1="178.145" x2="35.0783" y2="178.145" gradientUnits="userSpaceOnUse">
<stop stop-color="#3DDEED"/>
<stop offset="1" stop-color="#CB00DD"/>
</linearGradient>
<linearGradient id="paint20_linear_480_221" x1="356.956" y1="178.145" x2="46.0116" y2="178.145" gradientUnits="userSpaceOnUse">
<stop stop-color="#3DDEED"/>
<stop offset="1" stop-color="#CB00DD"/>
</linearGradient>
<clipPath id="clip0_480_221">
<rect width="536.946" height="453.417" fill="white" transform="matrix(-1 0 0 1 540.32 13.6572)"/>
</clipPath>
<clipPath id="clip1_480_221">
<rect width="536.946" height="478" fill="white" transform="matrix(-1 0 0 1 540.32 0)"/>
</clipPath>
</defs>
</svg>
